<svg xmlns="http://www.w3.org/2000/svg" width="275" height="263" viewBox="0 0 275 263" version="1.1">
	<path d="M 110.019 8.759 C 102.355 12.533, 95.781 22.231, 93.029 33.824 L 91.765 39.149 89.132 36.680 C 87.685 35.322, 84.025 32.926, 81 31.355 C 70.618 25.965, 57.948 28.331, 50.633 37.025 C 45.183 43.502, 43.657 48.582, 43.576 60.529 L 43.500 71.559 37.207 71.160 C 26.115 70.458, 17.116 75.892, 13.443 85.511 C 9.889 94.815, 13.536 112.582, 21.335 123.963 L 23.664 127.363 18.804 129.785 C 6.498 135.917, 2.726 151.623, 9.809 167.235 C 12.282 172.686, 20.567 184.298, 23.288 186.127 C 23.801 186.472, 21.941 187.996, 19.154 189.513 C 11.678 193.582, 8.537 198.764, 8.554 207 C 8.563 211.413, 9.168 214.624, 10.437 217 C 13.534 222.797, 20.170 230.026, 26 233.954 C 31.213 237.466, 44.581 244.614, 50 246.786 C 51.952 247.569, 50.445 247.806, 43.133 247.869 C 37.673 247.916, 33.189 248.428, 32.383 249.097 C 30.618 250.562, 30.606 253.428, 32.358 254.882 C 33.351 255.706, 61.903 255.941, 138.499 255.755 C 237.045 255.515, 243.348 255.396, 244.386 253.750 C 246.486 250.421, 243.989 248.534, 237.045 248.200 L 230.798 247.899 241.746 242.450 C 254.123 236.290, 262.625 228.832, 266.131 221.061 C 269.145 214.380, 269.155 202.952, 266.152 197.198 C 263.995 193.067, 256.353 187, 253.304 187 C 251.642 187, 251.614 185.344, 253.260 184.300 C 255.707 182.746, 264.932 167.879, 265.575 164.452 C 265.933 162.541, 266.626 160.731, 267.113 160.430 C 267.601 160.129, 268 155.296, 267.999 149.691 C 267.998 137.319, 266.191 131.775, 260.115 125.505 C 255.890 121.146, 246.721 117, 241.306 117 C 238.474 117, 238.456 116.415, 241.105 110.333 C 242.594 106.916, 243.233 103.293, 243.287 97.970 C 243.354 91.451, 242.970 89.715, 240.432 85.047 C 238.819 82.081, 235.816 78.434, 233.758 76.942 C 229.141 73.595, 218.988 71.489, 214.250 72.896 L 211 73.860 210.956 67.680 C 210.908 60.895, 209.197 55, 206.345 51.793 C 201.796 46.677, 191.366 44.518, 185.636 47.506 C 182.073 49.364, 182 49.362, 182 47.366 C 182 43.321, 179.282 37.405, 175.557 33.341 C 172.063 29.529, 170.806 28.836, 166.500 28.350 C 160.503 27.672, 154.575 29.121, 149.637 32.471 L 146 34.940 145.978 32.720 C 145.913 26.104, 136.842 12.967, 129.917 9.458 C 124.013 6.466, 115.298 6.160, 110.019 8.759 M 109.577 20.250 C 105.944 23.835, 104.857 25.908, 102.623 33.500 C 101.166 38.450, 99.974 44.750, 99.973 47.500 C 99.970 53.410, 98.173 57.500, 95.579 57.500 C 94.556 57.500, 93.219 56.602, 92.609 55.504 C 90.296 51.340, 83.953 43.744, 80.494 40.996 C 76.117 37.517, 72.287 36.580, 66.187 37.495 C 60.553 38.339, 55.680 42.982, 53.802 49.292 C 52.346 54.189, 52.121 67.982, 53.364 76.238 C 54.121 81.272, 54.011 82.058, 52.466 82.651 C 51.498 83.023, 49.309 82.783, 47.603 82.118 C 42.666 80.194, 31.534 79.536, 28.086 80.964 C 24.249 82.554, 21 89.062, 21 95.159 C 21 103.313, 25.342 113.963, 32.951 124.473 C 35.728 128.307, 38 131.763, 38 132.151 C 38 134.253, 34.452 136, 30.179 136.002 C 20.536 136.005, 15.190 141.318, 15.088 151 C 14.984 160.879, 19.479 169.524, 30.791 181.201 C 38.051 188.695, 39.199 191.296, 35.773 192.488 C 21.450 197.473, 17 200.790, 17 206.482 C 17 215.152, 26.481 225.027, 42.720 233.271 C 61.556 242.833, 81.223 247.997, 98.817 247.999 C 110.090 248, 110.132 247.991, 109.450 245.750 C 108.797 243.606, 105.242 238.320, 100.161 231.938 C 97.851 229.037, 97.696 229, 87.661 228.980 C 73.584 228.953, 64.961 227.519, 58.222 224.084 C 52.377 221.106, 51.206 220.029, 45.987 212.823 C 41.540 206.685, 41.953 204.715, 48.250 202.017 C 52.078 200.376, 56.210 199.630, 63.507 199.263 C 73.007 198.785, 73.842 198.909, 80.007 201.723 C 86.822 204.834, 96.458 212.716, 97.514 216.045 C 98.855 220.270, 99.485 217.594, 99.178 208.975 C 98.887 200.789, 98.488 199.209, 94.914 192.068 C 91.187 184.622, 86.495 179.008, 76.637 170.200 C 72.826 166.795, 72.643 165, 76.109 165 C 79.594 165, 83.312 167.613, 90.558 175.154 C 95.205 179.990, 98.776 184.892, 101.009 189.500 C 104.282 196.253, 104.421 197.029, 104.965 211.500 C 105.587 228.076, 104.582 225.017, 114.818 241.500 L 118.544 247.500 128.140 247.785 L 137.736 248.069 138.368 244.910 C 138.716 243.172, 139 238.498, 139 234.524 C 139 227.388, 138.936 227.213, 133.858 220.399 C 131.030 216.605, 127.258 211.925, 125.475 210 C 123.692 208.075, 121.056 204.700, 119.619 202.500 C 118.181 200.300, 115.794 196.700, 114.316 194.500 C 111.648 190.532, 105.622 177.260, 103.872 171.500 C 102.240 166.129, 100 149.176, 100.008 142.257 C 100.014 136.288, 100.650 130.524, 102.544 119.250 C 103.205 115.320, 105.431 115.032, 112.978 117.900 C 126.699 123.113, 144.086 138.732, 149.798 150.975 L 152.353 156.451 153.662 150.686 C 154.382 147.516, 155.420 144.083, 155.969 143.058 C 156.723 141.649, 156.390 140.130, 154.606 136.847 C 148.154 124.967, 147.105 105.142, 152.321 93.654 C 155.476 86.704, 161.736 78.944, 166.625 75.923 C 172.113 72.531, 174.211 74.088, 178.853 85 C 180.291 88.381, 181.704 94.437, 182.494 100.607 L 183.148 105.715 187.204 104.318 C 192.819 102.383, 205.919 102.911, 207.313 105.128 C 209.293 108.280, 204.398 118.465, 197.594 125.346 C 190.949 132.066, 177.698 139.611, 168.317 142.015 C 163.826 143.166, 162.960 143.808, 161.691 146.920 C 158.479 154.801, 157.636 161.770, 157.449 182 C 157.255 203.012, 155.848 214.873, 152.468 224 C 151.551 226.475, 149.555 232.888, 148.031 238.250 L 145.260 248 147.880 247.955 C 149.982 247.919, 151.280 246.682, 154.441 241.705 C 156.609 238.292, 160.812 231.675, 163.782 227 C 166.752 222.325, 171.111 214.754, 173.469 210.176 C 177.366 202.609, 177.666 201.518, 176.762 198.176 C 176.216 196.154, 175.554 190.661, 175.293 185.968 C 174.506 171.859, 178.611 161.960, 189.392 151.968 C 194.898 146.866, 199.526 144.103, 202.670 144.042 C 206.297 143.972, 208.504 152.201, 208.425 165.500 C 208.324 182.559, 204.509 189.924, 190.193 200.698 C 186.168 203.728, 183.059 206.392, 183.285 206.618 C 183.511 206.844, 186.327 205.824, 189.543 204.352 C 200.327 199.414, 214.705 200.270, 227.179 206.591 C 233.162 209.623, 233.330 212.509, 227.865 218.376 C 226.839 219.476, 226 220.654, 226 220.992 C 226 222.243, 213.958 230.046, 209.027 231.989 C 201.343 235.018, 188.823 234.771, 178.674 231.391 L 170.841 228.783 169.170 231.061 C 166.878 234.187, 160.104 246.299, 160.046 247.373 C 160.021 247.859, 169.410 248.017, 181.250 247.729 C 200.243 247.268, 203.507 246.931, 211.985 244.563 C 240.028 236.728, 256.034 226.556, 259.599 214.304 C 263.079 202.344, 258.654 197.312, 242.013 194.307 C 235.683 193.164, 235.621 190.993, 241.735 184.629 C 249.016 177.051, 252.637 171.991, 256.252 164.347 C 258.974 158.591, 259.536 156.146, 259.780 149 C 260.031 141.637, 259.764 139.978, 257.785 136.595 C 256.528 134.447, 253.806 131.326, 251.735 129.658 C 246.899 125.763, 238.773 124.918, 230.998 127.501 C 226.550 128.978, 225.597 129.026, 224.404 127.832 C 223.210 126.638, 223.661 125.291, 227.529 118.504 C 236.837 102.171, 237.336 91.668, 229.131 84.764 C 224.214 80.626, 218.258 80.190, 210.143 83.374 C 202.531 86.361, 200.715 86.567, 199.104 84.626 C 198.233 83.576, 198.441 82.138, 199.982 78.543 C 201.296 75.478, 202 71.631, 202 67.523 C 202 61.881, 201.680 60.869, 198.978 57.977 C 196.272 55.080, 195.529 54.800, 191.851 55.293 C 189.551 55.602, 185.818 57.228, 183.364 58.990 C 180.790 60.839, 178.058 62.005, 176.741 61.818 C 174.716 61.531, 174.438 60.777, 173.857 54 C 173.504 49.875, 172.759 45.375, 172.203 44 C 170.875 40.716, 167.597 37.324, 164.936 36.480 C 161.058 35.249, 154.379 38.757, 149.044 44.827 C 142.550 52.215, 141.324 51.577, 138.472 39.322 C 136.172 29.436, 132.702 22.610, 127.943 18.605 C 125.431 16.492, 123.812 16, 119.365 16 C 114.258 16, 113.589 16.291, 109.577 20.250 M 120.041 49.959 C 115.670 54.330, 113.567 60.159, 113.533 68 C 113.515 72.125, 113.837 76.703, 114.250 78.173 C 115.324 82.004, 119.828 87, 122.207 87 C 124.276 87, 129.955 81.424, 129.984 79.364 C 129.993 78.740, 130.672 76.940, 131.494 75.364 C 134.794 69.037, 132.382 56.235, 126.764 50.250 C 124.170 47.487, 122.582 47.418, 120.041 49.959 M 120.522 60.569 C 118.645 66.537, 118.936 75.144, 121.156 79.291 C 122.201 81.244, 122.413 81.098, 124.590 76.936 C 127.208 71.930, 127.622 64.642, 125.605 59.060 C 123.753 53.934, 122.491 54.309, 120.522 60.569 M 74.149 70.750 C 67.607 83.719, 70.469 106.025, 80.019 116.500 C 81.786 118.439, 81.768 118.774, 79.404 127.500 C 77.726 133.692, 77.049 138.528, 77.233 143 C 77.472 148.810, 77.730 149.533, 79.671 149.809 C 81.620 150.087, 81.913 149.527, 82.541 144.309 C 83.796 133.894, 87.889 120.022, 91.072 115.396 C 97.440 106.139, 98.938 92.340, 94.612 82.779 C 91.357 75.586, 82.839 67, 78.957 67 C 76.590 67, 75.684 67.706, 74.149 70.750 M 77.474 78.450 C 75.366 85.689, 75.920 96.941, 78.667 102.674 L 80.500 106.500 81 99.009 C 81.407 92.914, 81.825 91.457, 83.247 91.187 C 85.411 90.775, 86.973 94.505, 87.070 100.315 C 87.109 102.617, 87.471 105.342, 87.876 106.371 C 88.472 107.889, 88.836 107.489, 89.805 104.255 C 92.767 94.369, 90.685 84.969, 83.900 77.598 L 79.207 72.500 77.474 78.450 M 164.801 85.250 C 162.358 88.138, 159.385 92.540, 158.195 95.033 C 154.117 103.577, 153.661 118.490, 157.217 127 L 158.679 130.500 159.401 124.500 C 160.478 115.560, 164.063 102.913, 165.699 102.285 C 168.916 101.051, 169.178 103.654, 167.080 116.005 C 164.089 133.614, 164.079 133.583, 170.397 126.522 C 174.997 121.379, 175.964 120.725, 177.313 121.845 C 179.274 123.472, 178.566 125.589, 174.674 129.735 C 173.003 131.514, 171.972 133.306, 172.382 133.716 C 173.880 135.213, 189.847 125.981, 194.085 121.167 C 198.295 116.386, 202.413 109.080, 201.444 108.111 C 201.147 107.813, 196.987 108.411, 192.201 109.439 C 187.416 110.467, 182.037 111.513, 180.250 111.763 C 176.761 112.252, 176.624 111.994, 176.946 105.500 C 177.261 99.133, 171.750 80, 169.601 80 C 169.404 80, 167.244 82.362, 164.801 85.250 M 40.750 101.023 C 38.503 102.405, 38.547 103.687, 41.020 108.804 C 43.393 113.716, 51.523 120.496, 56.797 121.960 C 61.527 123.274, 67.129 123.282, 70.556 121.979 C 72.892 121.091, 73.162 120.559, 72.628 117.892 C 70.798 108.739, 60.067 100.854, 48.640 100.264 C 45.263 100.090, 41.712 100.431, 40.750 101.023 M 46.884 107.782 C 48.627 111.040, 53.135 114.890, 56.338 115.859 C 66.594 118.959, 68.710 117.587, 62.323 111.978 C 57.938 108.129, 53.193 106, 48.997 106 C 46.364 106, 46.065 106.253, 46.884 107.782 M 107.429 125.750 C 107.094 127.263, 106.398 129.895, 105.882 131.600 C 104.725 135.422, 106.428 155.754, 108.680 165 C 111.090 174.898, 116.977 187.705, 123.420 197.067 C 129.847 206.405, 138.253 217.080, 138.771 216.562 C 139.531 215.802, 136.644 197.857, 134.418 189.500 C 130.757 175.758, 130.268 174.459, 123.402 160.243 C 116.692 146.349, 116.396 145.491, 117.979 144.513 C 120.269 143.097, 123.091 146.637, 128.492 157.702 C 137.985 177.148, 142.912 194.358, 145.611 217.500 C 146.305 223.446, 146.319 223.468, 147.244 220 C 152.171 201.514, 153.308 180.695, 150.034 168.882 C 145.733 153.359, 137.474 140.922, 125.751 132.317 C 121.018 128.843, 110.410 123, 108.836 123 C 108.397 123, 107.764 124.237, 107.429 125.750 M 231.019 148.735 C 223.421 152.529, 215.755 164.502, 217.468 169.900 C 218.691 173.752, 225.607 173.772, 233.109 169.944 C 239.373 166.749, 245.402 156.888, 244.817 150.796 C 244.509 147.589, 244.365 147.493, 239.500 147.249 C 236.307 147.088, 233.242 147.626, 231.019 148.735 M 196.089 153.434 C 190.979 157.262, 186.746 162.626, 183.805 169 C 181.553 173.879, 180.011 190.411, 181.654 192.054 C 182.195 192.595, 183.519 190.049, 184.943 185.730 C 186.254 181.753, 188.208 176.363, 189.286 173.750 C 191.244 169.006, 193.538 167.633, 194.653 170.537 C 195.161 171.861, 191.598 186.678, 189.386 192.437 C 188.768 194.047, 189.263 193.901, 192.314 191.574 C 194.578 189.847, 197.235 186.232, 199.243 182.147 C 202.324 175.878, 202.499 174.925, 202.488 164.510 C 202.481 158.455, 202.030 152.742, 201.485 151.816 C 200.598 150.308, 200.036 150.476, 196.089 153.434 M 34.149 152.697 C 31.994 156.550, 38.919 165.957, 46.579 169.580 C 50.379 171.378, 53.388 172, 58.287 172 C 61.914 172, 65.167 171.539, 65.515 170.976 C 67.808 167.265, 59.474 156.483, 51.519 152.869 C 46.104 150.410, 35.489 150.305, 34.149 152.697 M 233.287 154.087 C 230.681 155.377, 227.916 157.921, 226.037 160.758 C 221.981 166.881, 222.029 168.229, 226.250 166.782 C 232.611 164.603, 236.540 160.569, 238.453 154.250 C 239.295 151.472, 238.613 151.451, 233.287 154.087 M 40.197 157.115 C 41.573 161.316, 57.676 169.619, 58.856 166.736 C 59.281 165.695, 53.528 160.366, 49.965 158.499 C 48.571 157.769, 45.701 156.847, 43.587 156.450 C 40.541 155.879, 39.837 156.017, 40.197 157.115 M 54.750 205.648 C 51.587 206.510, 49 207.573, 49 208.011 C 49 208.448, 51.347 211.068, 54.215 213.833 C 61.039 220.411, 68.757 223.084, 81.099 223.143 C 92.839 223.199, 93.774 222.588, 89.756 217.489 C 85.210 211.718, 80.505 207.940, 75.881 206.347 C 69.567 204.171, 61.184 203.894, 54.750 205.648 M 197.500 207.873 C 190.637 209.693, 178 217.793, 178 220.373 C 178 220.569, 182.162 219.662, 187.250 218.358 C 192.338 217.053, 198.525 215.876, 201 215.743 C 204.873 215.534, 205.500 215.771, 205.500 217.443 C 205.500 219.435, 204.089 220, 187.500 224.648 L 181.500 226.330 187.500 227.759 C 194.938 229.531, 202.429 228.406, 211.369 224.175 C 217.608 221.223, 225.330 214.490, 224.688 212.563 C 223.587 209.260, 204.614 205.987, 197.500 207.873" stroke="none" fill="black" fill-rule="evenodd"/>
</svg>