<svg xmlns="http://www.w3.org/2000/svg" width="287" height="286" viewBox="0 0 287 286" version="1.1">
	<path d="M 97 8.294 C 95.625 8.989, 93.928 10.751, 93.229 12.209 C 92.470 13.792, 90.565 15.319, 88.496 16.001 C 84.839 17.208, 81.041 21.558, 80.939 24.654 C 80.897 25.950, 78.518 27.632, 72.953 30.300 L 65.027 34.101 61.945 30.590 C 57.951 26.041, 49.658 22.027, 42.792 21.318 C 32.305 20.236, 19.617 26.154, 13.533 34.966 C 9.075 41.423, 7.685 46.040, 7.653 54.500 C 7.607 66.635, 11.812 74.115, 23.392 82.500 L 26.155 84.500 23.620 95 C 18.580 115.880, 17.858 125.420, 20.488 136.431 C 24.896 154.895, 40.288 171.546, 61.725 181.044 C 69.637 184.550, 70.558 185.249, 71.734 188.647 C 73.361 193.346, 75.683 211.935, 76.524 227.001 L 77.166 238.501 74.175 240.712 C 69.812 243.938, 65.598 253.046, 66.427 257.462 C 67.390 262.595, 71.314 266.596, 77.792 269.049 C 82.542 270.849, 84.798 271.115, 91.237 270.638 C 95.493 270.323, 100.320 269.369, 101.965 268.518 C 104.875 267.013, 104.972 267.039, 105.587 269.489 C 106.408 272.764, 111.092 276.654, 115.781 277.956 C 120.531 279.275, 134.409 279.292, 139.118 277.984 C 146.887 275.826, 151.729 270.992, 154.936 262.191 C 156.680 257.405, 158.691 246.646, 158.196 244.750 C 158.088 244.337, 159.088 244, 160.418 244 C 161.748 244, 163.601 243.707, 164.535 243.348 C 166.028 242.775, 166.084 242.975, 164.998 245.003 C 162.992 248.753, 163.321 256.604, 165.617 259.756 C 168.619 263.875, 175.509 267, 181.589 267 C 185.068 267, 187.182 267.514, 188.061 268.573 C 191.461 272.671, 197.190 274.397, 207.500 274.431 C 216.464 274.460, 218.035 274.183, 222.662 271.759 C 232.464 266.625, 234.585 261.017, 234.276 241.060 C 234.126 231.392, 234.539 224.287, 235.525 219.560 C 236.336 215.677, 236.999 209.012, 236.999 204.750 L 237 197 242.250 196.990 C 252.214 196.972, 262.239 189.853, 266.431 179.819 C 267.242 177.880, 268.939 175.604, 270.202 174.762 C 277.573 169.850, 280 165.148, 279.999 155.782 C 279.998 147.588, 276.130 139.179, 269.606 133.188 C 263.930 127.976, 260.370 127.765, 257.996 132.500 C 257.168 134.150, 254.340 139.166, 251.711 143.648 C 245.645 153.986, 244.711 159.706, 247.987 166.473 C 249.222 169.025, 251.500 172.049, 253.049 173.194 C 255.711 175.162, 255.781 175.405, 254.329 177.621 C 249.257 185.362, 234.963 186.286, 230.744 179.144 C 227.297 173.309, 217.563 164.818, 210.484 161.472 C 206.625 159.648, 202.265 157.854, 200.796 157.485 L 198.125 156.814 201.062 151.035 C 206.352 140.624, 207.003 137.659, 206.965 124.124 C 206.930 111.538, 206.101 106.007, 202.182 92.226 L 200.114 84.953 203.807 82.590 C 214.498 75.748, 219.554 65.397, 218.841 51.813 C 218.200 39.602, 211.933 29.805, 201.355 24.479 C 189.416 18.468, 172.901 21.297, 165 30.707 L 161.666 34.679 154.230 30.440 C 150.141 28.110, 144.805 25.645, 142.373 24.964 C 139.177 24.070, 137.058 22.587, 134.727 19.613 C 128.604 11.804, 123.296 9.004, 118.068 10.826 C 115.720 11.645, 114.328 11.388, 110.429 9.414 C 105.151 6.742, 100.788 6.378, 97 8.294 M 102 16.878 C 102 17.361, 102.689 19.406, 103.532 21.422 C 104.374 23.438, 104.798 25.518, 104.473 26.044 C 103.682 27.324, 100.565 27.250, 95.860 25.840 C 93.730 25.202, 91.705 24.962, 91.360 25.306 C 91.016 25.651, 92.169 27.568, 93.923 29.566 C 97.629 33.787, 97.745 37.324, 94.192 37.827 C 92.923 38.007, 90.801 37.445, 89.477 36.577 C 88.154 35.710, 86.267 35.004, 85.285 35.010 C 82.510 35.025, 73.847 39.367, 68.599 43.373 C 65.985 45.368, 63.449 47, 62.963 47 C 62.476 47, 60.598 44.724, 58.789 41.943 C 53.258 33.439, 43.145 28.504, 35.263 30.464 C 31.047 31.511, 24.815 35.812, 21.720 39.809 C 12.255 52.032, 16.135 67.715, 30.454 75.119 C 37.992 79.017, 38.408 80.315, 34.978 89.239 C 30.501 100.887, 28.611 111.034, 28.597 123.500 C 28.582 138.122, 29.585 140.878, 39.988 154.805 C 47.337 164.642, 68.250 175.932, 85.500 179.375 C 114.464 185.156, 143.751 182.373, 164.430 171.874 C 175.426 166.292, 179.901 163.029, 186.378 155.871 C 201.469 139.195, 202.771 120.993, 191.226 88.086 C 188.245 79.592, 187.290 81.362, 198.970 73.729 C 207.728 68.005, 209.500 64.742, 209.500 54.340 C 209.500 46.875, 209.242 45.810, 206.468 41.840 C 202.913 36.750, 195.312 31.337, 190.437 30.422 C 182.696 28.970, 173.257 33.718, 168.305 41.556 C 166.762 43.998, 164.758 45.997, 163.850 45.998 C 162.943 45.999, 159.793 44.379, 156.850 42.398 C 149.924 37.734, 147.043 36.272, 139.133 33.403 C 133.836 31.482, 131.530 29.874, 126.753 24.771 C 121.557 19.220, 120.951 18.827, 121.484 21.346 C 122.138 24.436, 120.669 27, 118.246 27 C 117.415 27, 115.277 25.453, 113.493 23.561 C 110.392 20.273, 104.334 16.012, 102.750 16.004 C 102.338 16.002, 102 16.395, 102 16.878 M 33.396 40.429 C 26.843 43.282, 22.579 53.665, 24.977 60.932 C 26.811 66.486, 32.925 73, 36.307 73 C 37.745 73, 39.394 72.438, 39.973 71.750 C 42.972 68.183, 47 62.647, 47 62.091 C 47 61.742, 49.025 59.251, 51.500 56.555 C 53.975 53.859, 56 50.761, 56 49.671 C 56 46.346, 51.287 41.174, 47.231 40.047 C 42.213 38.654, 37.154 38.794, 33.396 40.429 M 177.190 40.968 C 175.369 42.110, 173.221 44.619, 172.417 46.545 C 170.683 50.695, 171.151 51.851, 177.429 58.920 C 179.817 61.609, 182.591 65.667, 183.592 67.937 C 185.837 73.025, 188.585 73.927, 193.737 71.267 C 203.878 66.030, 205.031 48.430, 195.669 41.764 C 191.187 38.573, 181.663 38.162, 177.190 40.968 M 36.388 45.980 C 35.227 46.449, 33.270 48.108, 32.040 49.667 C 28.776 53.802, 29.579 61.041, 33.767 65.228 L 36.809 68.270 38.301 65.385 C 39.122 63.798, 42.044 59.604, 44.794 56.065 C 47.545 52.526, 49.592 49.099, 49.343 48.451 C 48.235 45.564, 40.887 44.162, 36.388 45.980 M 180.223 46.557 C 179 47.413, 178 48.581, 178 49.153 C 178 49.725, 179.847 52.287, 182.103 54.847 C 184.360 57.406, 186.884 61.188, 187.712 63.250 C 188.540 65.313, 189.540 67, 189.934 67 C 191.527 67, 194.882 62.255, 196.020 58.394 C 197.050 54.899, 196.978 53.756, 195.534 50.713 C 193.001 45.374, 185.008 43.205, 180.223 46.557 M 151.997 110.381 C 142.301 113.546, 141.385 128.108, 150.607 132.484 C 156.952 135.495, 162.586 133.462, 165.440 127.132 C 169.833 117.392, 161.672 107.222, 151.997 110.381 M 63.819 111.928 C 60.144 114.819, 58.392 121.028, 59.865 125.944 C 61.413 131.111, 65.144 134, 70.267 134 C 73.522 134, 74.863 133.365, 77.491 130.578 C 79.266 128.696, 81.001 125.743, 81.347 124.016 C 82.089 120.307, 79.960 114.567, 76.840 111.861 C 73.943 109.349, 67.053 109.384, 63.819 111.928 M 70.590 116.627 C 69.865 118.514, 71.607 121, 73.654 121 C 75.645 121, 76.457 118.256, 74.989 116.487 C 73.367 114.533, 71.369 114.596, 70.590 116.627 M 155.332 116.578 C 154.548 118.620, 157.380 121.452, 159.422 120.668 C 161.467 119.884, 161.464 116.392, 159.418 115.607 C 156.933 114.653, 155.984 114.879, 155.332 116.578 M 107.121 130.002 C 101.311 131.374, 99 133.091, 99 136.034 C 99 139.381, 102.072 143.389, 107.041 146.526 C 111.260 149.189, 111.464 151.861, 107.653 154.531 C 104.555 156.700, 102.462 156.345, 98.655 153.002 C 95.834 150.525, 95.043 150.244, 94.099 151.381 C 92.226 153.637, 94.500 157.893, 98.462 159.548 C 103.109 161.490, 106.874 161.370, 110.500 159.165 C 113.404 157.398, 113.596 157.398, 116.500 159.166 C 122.784 162.992, 133.115 159.741, 133.816 153.718 C 134.213 150.310, 132.688 150.243, 128.818 153.500 C 125.214 156.532, 122.108 156.681, 119.189 153.961 C 115.694 150.705, 116.357 147.779, 121.035 145.814 C 125.856 143.788, 128.666 138.499, 127.222 134.166 C 125.806 129.917, 116.047 127.895, 107.121 130.002 M 262.487 142.868 C 261.944 143.895, 260.042 147.158, 258.259 150.118 C 254.214 156.836, 253.795 163.042, 257.223 165.443 C 263.396 169.767, 272 164.873, 272 157.037 C 272 152.873, 269.648 147.366, 266.112 143.250 C 263.775 140.529, 263.726 140.524, 262.487 142.868 M 184 169.470 C 173.528 178.093, 156.137 185.456, 138.765 188.622 C 127.063 190.754, 99.916 190.841, 88.692 188.782 L 80.883 187.350 81.548 191.425 C 83.468 203.197, 96.428 219.411, 107.750 224.204 L 114 226.850 114 222.532 C 114 218.261, 115.789 216.133, 118.152 217.594 C 121.732 219.807, 125.448 245.061, 123.101 251.234 C 122.607 252.534, 120.609 255.191, 118.660 257.140 C 114.762 261.038, 113.096 265.496, 114.873 267.273 C 115.709 268.109, 116 267.996, 116 266.835 C 116 264.414, 119.922 260, 122.073 260 C 124.382 260, 124.575 262.655, 122.468 265.441 C 120.373 268.211, 120.601 271, 122.922 271 C 124.234 271, 125.213 269.885, 126.003 267.492 C 127.214 263.823, 130.392 261.208, 131.488 262.980 C 131.823 263.522, 131.791 265.597, 131.417 267.591 L 130.737 271.217 134.118 270.500 C 139.519 269.357, 143.672 266.280, 145.281 262.231 C 147.405 256.885, 149.806 243.646, 151.495 227.962 C 151.919 224.017, 152.645 222.079, 154.016 221.222 C 156.669 219.565, 158 222.242, 158 229.234 L 158 234.600 166.250 233.830 C 170.787 233.406, 177.704 232.318, 181.620 231.411 L 188.740 229.763 187.729 226.469 C 186.499 222.461, 187.297 220, 189.826 220 C 191.236 220, 192.794 222.348, 195.966 229.250 C 199.406 236.735, 200.244 239.695, 200.359 244.763 C 200.491 250.621, 200.290 251.222, 197.250 254.064 C 193.987 257.113, 192.790 262.134, 195 263.500 C 195.550 263.840, 196 263.252, 196 262.194 C 196 260.267, 199.548 254.986, 200.823 255.015 C 201.195 255.024, 202.073 255.394, 202.773 255.838 C 203.790 256.484, 203.740 257.378, 202.523 260.291 C 200.523 265.077, 200.600 266, 203 266 C 204.250 266, 205 265.333, 205 264.223 C 205 263.245, 205.716 261.423, 206.590 260.175 C 208.821 256.990, 211.367 259.053, 210.436 263.291 L 209.783 266.263 213.642 265.558 C 218.391 264.689, 221.430 262.799, 223.736 259.280 C 225.217 257.020, 225.541 253.857, 225.754 239.544 C 225.893 230.170, 226.456 220.055, 227.004 217.066 C 229.957 200.957, 225.995 186.217, 216.051 176.322 C 210.598 170.895, 201.100 166.124, 194.385 165.440 C 189.760 164.968, 189.207 165.182, 184 169.470 M 86.005 229 C 86.065 235.325, 86.088 241.281, 86.057 242.236 C 86.026 243.191, 84.264 245.120, 82.143 246.524 C 78.117 249.188, 75.999 252.559, 76.002 256.297 C 76.003 258.074, 76.341 257.823, 77.752 255 C 78.837 252.827, 80.353 251.379, 81.750 251.180 C 84.321 250.815, 84.565 252.081, 82.865 256.958 C 81.961 259.551, 82.005 260.385, 83.080 261.049 C 84.033 261.638, 84.784 261.042, 85.633 259.021 C 87 255.770, 90.504 253.388, 91.513 255.022 C 91.863 255.587, 91.854 257.388, 91.495 259.024 C 90.946 261.524, 91.150 262, 92.773 262 C 93.835 262, 96.233 260.980, 98.102 259.733 C 100.741 257.972, 101.983 256.016, 103.660 250.983 C 104.848 247.417, 106.130 241.972, 106.509 238.882 L 107.197 233.265 100.849 229.485 C 97.357 227.406, 92.564 223.859, 90.198 221.603 L 85.896 217.500 86.005 229 M 182.750 239.696 C 177.036 241.206, 177 241.239, 177 244.985 C 177 247.059, 176.374 249.275, 175.608 249.910 C 173.762 251.443, 173.037 254.450, 174.107 256.139 C 174.799 257.231, 174.972 257.185, 174.985 255.905 C 175.004 253.880, 178.142 251, 180.329 251 C 181.248 251, 182 251.115, 182 251.257 C 182 251.398, 181.581 252.973, 181.070 254.757 C 180.201 257.786, 180.301 258, 182.595 258 C 184.307 258, 185.343 257.227, 186.020 255.447 C 186.554 254.043, 188.411 251.127, 190.146 248.968 C 192.937 245.495, 193.193 244.664, 192.365 241.778 C 191.255 237.907, 190.302 237.700, 182.750 239.696" stroke="none" fill="black" fill-rule="evenodd"/>
</svg>