<svg xmlns="http://www.w3.org/2000/svg" width="270" height="287" viewBox="0 0 270 287" version="1.1">
	<path d="M 74.202 9.022 C 55.646 13.883, 45.236 23.639, 37.943 43 C 37.218 44.925, 34.350 50.775, 31.571 56 C 26.676 65.200, 26.519 65.752, 26.585 73.500 C 26.639 79.732, 27.149 82.459, 28.893 85.840 C 32.496 92.822, 37.533 99.277, 41.894 102.500 C 44.126 104.150, 45.963 105.744, 45.976 106.042 C 45.989 106.340, 42.155 107.310, 37.455 108.197 C 27.553 110.067, 19.009 114.642, 15.832 119.776 C 13.934 122.842, 13.908 123.211, 15.425 125.526 C 16.529 127.211, 17.966 128, 19.929 128 C 22.756 128, 22.792 128.068, 21.751 131.460 C 20.945 134.087, 20.997 135.291, 21.967 136.460 C 24.091 139.019, 26.954 138.214, 30.744 133.993 C 33.097 131.371, 35.752 129.617, 38.421 128.920 C 49.065 126.141, 54.648 123.446, 59.923 118.542 C 62.906 115.769, 65.134 113.950, 64.876 114.500 C 62.137 120.326, 61.213 121.975, 58.993 125 C 47.026 141.312, 39.393 159.347, 37.519 175.743 L 36.805 181.987 31.091 185.032 C 22.159 189.793, 15.850 195.914, 11.948 203.605 C 8.628 210.150, 8.501 210.812, 8.526 221.451 C 8.551 232.191, 8.653 232.696, 12.194 239.500 C 16.464 247.705, 25.663 257.438, 33.830 262.391 C 44.261 268.718, 60.734 274.327, 78 277.429 C 110.410 283.252, 152.897 279.729, 177.826 269.150 C 183.216 266.863, 186.635 266.189, 195.593 265.651 C 212.068 264.660, 225.516 260.691, 236 253.725 C 249.379 244.836, 259.174 227.917, 262.196 208.479 C 264.334 194.725, 259.711 183, 252.150 183 C 248.251 183, 246.336 185.491, 241.655 196.652 C 237.433 206.722, 236.348 208.221, 229.508 213.442 L 224.575 217.207 222.790 209.945 C 220.336 199.963, 215.205 191.987, 207.684 186.464 C 205.628 184.955, 204.756 183.119, 203.914 178.532 C 201.212 163.815, 191.549 154.305, 173.788 148.882 C 167.708 147.026, 164.179 146.662, 152.500 146.687 C 137.406 146.718, 127.951 148.401, 114.578 153.434 C 110.829 154.846, 107.317 156, 106.773 156 C 104.529 156, 107.754 148.265, 121.157 121.500 C 128.374 107.088, 131.353 102.227, 136.103 97.114 C 142.790 89.916, 144.250 87.257, 146.598 78 C 148.917 68.860, 147.489 50.867, 143.882 43.764 C 143.397 42.809, 143 41.520, 143 40.900 C 143 38.506, 133.562 24.784, 129.388 21.110 C 123.569 15.989, 113.042 10.609, 104.936 8.615 C 96.200 6.466, 83.307 6.637, 74.202 9.022 M 81.250 16.640 C 78.351 17.283, 78.270 20.802, 81.073 24.365 C 83.881 27.935, 89.070 27.860, 97.225 24.130 C 100.676 22.552, 105.075 20.913, 107 20.489 L 110.500 19.717 106.500 18.285 C 102.448 16.835, 85.381 15.723, 81.250 16.640 M 70 19.692 C 65.216 21.398, 55.710 28.723, 53.029 32.770 C 51.363 35.285, 50 37.701, 50 38.138 C 50 38.998, 41.452 56.668, 37.489 64 C 36.151 66.475, 35.050 70.075, 35.043 72 C 35.022 77.758, 38.264 85.376, 42.809 90.250 C 46.245 93.933, 47.418 93.735, 45.067 89.869 C 42.141 85.059, 45.013 81.360, 48.193 85.841 C 50.544 89.154, 53.882 90.245, 59.510 89.542 C 64.339 88.939, 65.151 89.147, 69.271 92.052 C 75.677 96.567, 81.150 96.994, 88.648 93.561 C 91.863 92.089, 95.485 89.954, 96.696 88.816 C 99.242 86.424, 102 87.007, 102 89.936 C 102 92.750, 92.597 99.577, 86.672 101.065 C 83.795 101.787, 79.046 102.042, 74.922 101.697 C 68.692 101.174, 68 101.298, 68 102.929 C 68 104.471, 69.203 104.847, 76.056 105.444 C 86.256 106.334, 95.039 105.476, 106.736 102.447 C 118.073 99.511, 122.891 97.118, 129.034 91.371 C 139.602 81.487, 141.882 64.776, 135.226 46 C 132.394 38.008, 124.286 27.280, 119 24.528 C 115.428 22.668, 109.027 23.984, 99.700 28.496 C 92.630 31.916, 91.367 32.215, 86.200 31.686 C 81.320 31.186, 80.033 30.593, 77.250 27.566 C 75.382 25.534, 74 22.960, 74 21.515 C 74 19.055, 73.030 18.613, 70 19.692 M 47.488 47.377 C 44.813 51.461, 43.898 56.162, 45.081 59.747 C 47.422 66.838, 56.877 67.006, 60.490 60.020 C 62.733 55.682, 62.363 51.585, 59.411 48.077 C 56.012 44.037, 49.912 43.679, 47.488 47.377 M 53.380 51.452 C 52.676 53.286, 53.700 55, 55.500 55 C 57.558 55, 58.338 53.112, 56.964 51.456 C 55.425 49.603, 54.090 49.601, 53.380 51.452 M 99.558 54.532 C 95.211 59.222, 96.050 69.212, 101 71.709 C 108.479 75.483, 115 71.313, 115 62.758 C 115 55.432, 112.252 52, 106.384 52 C 102.875 52, 101.396 52.549, 99.558 54.532 M 106.015 58.180 C 106.043 60.573, 107.618 62.084, 109.379 61.408 C 110.325 61.045, 110.959 60.017, 110.789 59.124 C 110.412 57.146, 105.993 56.272, 106.015 58.180 M 54.040 77.452 C 52.099 79.790, 53.205 82.464, 56.259 82.816 C 58.564 83.083, 59 82.756, 59 80.766 C 59 78.514, 57.377 76, 55.922 76 C 55.550 76, 54.703 76.653, 54.040 77.452 M 69.590 81.627 C 69.246 82.521, 69.471 83.862, 70.088 84.606 C 71.607 86.436, 75 84.612, 75 81.965 C 75 79.495, 70.515 79.214, 69.590 81.627 M 51.427 96.521 C 52.487 97.323, 53.599 97.735, 53.898 97.435 C 54.526 96.808, 51.986 95.023, 50.500 95.047 C 49.950 95.056, 50.367 95.720, 51.427 96.521 M 60.416 97.607 C 56.748 108.605, 52.313 113.173, 44 114.515 C 36.824 115.672, 26.889 119.011, 27.530 120.049 C 28.509 121.633, 32.269 121.141, 42.622 118.073 C 50.907 115.618, 53.003 114.567, 55.617 111.560 C 58.642 108.080, 62.820 97.486, 61.634 96.301 C 61.311 95.978, 60.763 96.566, 60.416 97.607 M 115.500 108.091 C 114.400 108.554, 111.004 109.629, 107.954 110.478 C 102.916 111.882, 102.124 112.502, 99.294 117.262 C 92.482 128.717, 83.004 148.484, 80.003 157.492 C 77.287 165.644, 76.839 168.405, 76.869 176.825 C 76.955 200.938, 89.759 217.544, 114.718 225.915 C 133.185 232.108, 166.395 224.574, 182.669 210.500 L 186.138 207.500 180.816 202 C 174.774 195.756, 171.350 187.365, 172.530 181.697 C 173.684 176.156, 177.649 170.377, 181.212 169.044 C 183.020 168.367, 185.391 167.476, 186.480 167.064 C 188.225 166.404, 187.932 165.982, 184.004 163.503 C 181.554 161.956, 177.092 159.826, 174.089 158.771 L 168.628 156.852 164.045 162.051 C 159.851 166.807, 159.022 167.292, 154.285 167.747 C 151.438 168.020, 147.938 167.950, 146.506 167.591 C 143.536 166.845, 137 160.536, 137 158.414 C 137 156.760, 135.154 156.611, 131.565 157.975 C 129.915 158.603, 129 159.714, 129 161.089 C 129 164.155, 125.145 170.584, 122.439 172.033 C 119.052 173.845, 110.879 172.762, 106.978 169.984 L 103.701 167.651 104.236 172.401 C 104.615 175.760, 105.589 178.005, 107.562 180.065 C 111.557 184.234, 113.537 184.567, 117.003 181.651 C 121.040 178.254, 129.599 175.196, 137.199 174.435 C 143.134 173.841, 145.965 174.374, 153.170 177.442 C 154.421 177.974, 154.924 177.568, 155.170 175.826 C 155.616 172.683, 159.522 172.065, 160.294 175.016 C 160.599 176.182, 160.379 178.482, 159.806 180.128 C 158.932 182.633, 159.087 183.475, 160.757 185.309 C 166.879 192.037, 166.491 201.549, 159.845 207.654 C 157.447 209.857, 150.787 212.164, 148.675 211.524 C 148.029 211.327, 146.297 210.905, 144.827 210.584 C 141.105 209.772, 136.281 205.471, 133.936 200.874 C 132.168 197.408, 131.562 197, 128.183 197 C 125.091 197, 123.694 197.729, 120.479 201.022 C 111.158 210.567, 95.703 207.665, 91.584 195.596 C 90.175 191.467, 91.185 184.192, 93.854 179.251 C 95.164 176.827, 94.404 167, 92.907 167 C 92.448 167, 90.931 165.321, 89.536 163.268 C 87.540 160.330, 87 158.298, 87 153.718 C 87 144.116, 91.243 137.884, 99.454 135.427 C 104.267 133.987, 104.649 133.608, 107.729 127.209 C 109.505 123.519, 112.536 117.606, 114.464 114.068 C 116.392 110.531, 117.864 107.549, 117.735 107.442 C 117.606 107.336, 116.600 107.628, 115.500 108.091 M 83.914 113.742 L 75.327 114.073 73.036 118.149 C 71.156 121.494, 70.993 122.383, 72.123 123.109 C 74.418 124.582, 80.283 125.989, 84.155 125.994 C 87.452 125.999, 88.089 125.534, 90.655 121.250 C 94.502 114.827, 95.216 112.953, 93.718 113.206 C 93.048 113.319, 88.636 113.560, 83.914 113.742 M 65.303 131.412 C 62.239 135.971, 59 141.696, 59 142.553 C 59 143.616, 67.514 146.837, 72.099 147.508 L 76.698 148.182 80.782 140.190 C 83.028 135.795, 84.596 131.929, 84.266 131.600 C 83.936 131.270, 82.504 130.985, 81.083 130.967 C 79.663 130.949, 76.149 130.122, 73.275 129.130 L 68.051 127.325 65.303 131.412 M 98.081 141.656 C 95.475 143.481, 92.055 150.345, 92.022 153.816 C 92.010 155.089, 92.509 157.083, 93.131 158.245 C 94.132 160.116, 94.542 159.392, 96.685 151.967 C 98.018 147.351, 99.598 142.984, 100.197 142.263 C 101.885 140.228, 100.633 139.869, 98.081 141.656 M 53.661 152.269 C 49.257 160.973, 48.828 163.491, 51.344 165.848 C 54.496 168.800, 58.397 170, 64.844 170 L 70.557 170 72.416 162.750 C 73.438 158.762, 74.486 154.938, 74.744 154.250 C 75.040 153.464, 74.312 153, 72.785 153 C 69.894 153, 61.352 150.225, 58.417 148.332 C 56.466 147.074, 56.163 147.325, 53.661 152.269 M 145.750 155.672 C 142.745 156.176, 142.002 158.927, 144.345 160.872 C 146.244 162.447, 151.473 163.349, 154.421 162.609 C 156.901 161.987, 162.683 157.336, 161.907 156.589 C 161.197 155.906, 148.615 155.192, 145.750 155.672 M 117.174 162.760 C 111.527 165.130, 111.037 165.554, 112.615 166.708 C 113.587 167.418, 115.442 168, 116.737 168 C 119.388 168, 124 163.901, 124 161.545 C 124 160.695, 123.888 160.023, 123.750 160.052 C 123.612 160.081, 120.653 161.299, 117.174 162.760 M 47.434 173.498 C 46.516 178.396, 47.467 189.653, 48.951 191.441 C 50.475 193.277, 59.344 195.179, 62.814 194.413 C 71.012 192.604, 72.141 191.925, 71.560 189.153 C 71.254 187.694, 70.932 184.137, 70.843 181.250 C 70.685 176.087, 70.632 176, 67.591 175.985 C 62.775 175.962, 51.761 173.093, 49.850 171.364 C 48.255 169.921, 48.076 170.079, 47.434 173.498 M 181.137 175.538 C 178.399 177.842, 178 178.807, 178 183.129 C 178 189.165, 180.570 194.538, 185.551 198.910 C 189.165 202.084, 189.241 202.102, 190.642 200.101 C 194.718 194.282, 196.373 181.286, 193.712 176 C 191.811 172.225, 185.356 171.988, 181.137 175.538 M 136.500 179.616 C 130.357 181.059, 119.962 185.388, 120.288 186.368 C 121.454 189.875, 138.084 189.220, 147.042 185.313 L 151.327 183.444 148.734 181.745 C 145.956 179.925, 139.770 178.849, 136.500 179.616 M 96.961 186.094 C 95.551 189.499, 96.461 195.711, 98.743 198.254 C 102.603 202.555, 112.434 202.493, 116.371 198.143 C 117.887 196.468, 117.654 196.224, 112.480 194.080 C 109.453 192.826, 104.991 189.869, 102.564 187.510 L 98.151 183.221 96.961 186.094 M 150.963 191.922 C 148.467 193.445, 144.417 195.364, 141.963 196.185 L 137.500 197.679 141.091 201.280 C 146.650 206.856, 152.658 207.430, 156.972 202.799 C 159.204 200.404, 159.721 194.216, 157.965 190.934 C 156.673 188.521, 156.496 188.546, 150.963 191.922 M 32.716 194.851 C 26.304 198.627, 25.638 199.422, 26.388 202.409 C 27.276 205.946, 32.241 208.270, 38.787 208.211 C 41.748 208.184, 44.368 207.965, 44.610 207.723 C 44.852 207.482, 43.689 204.408, 42.025 200.892 C 40.362 197.376, 39.001 193.938, 39.001 193.250 C 39 191.456, 38.087 191.688, 32.716 194.851 M 201.997 195.563 C 201.994 198.225, 195.606 208.689, 191.186 213.273 C 188.015 216.563, 187.706 217.299, 188.774 219.010 C 190.489 221.755, 190.304 231.084, 188.462 234.776 C 182.391 246.946, 167.145 248.101, 155.816 237.251 C 152.219 233.806, 152.031 233.750, 147.816 234.860 C 145.442 235.485, 136.462 236.518, 127.861 237.155 L 112.221 238.312 110.715 241.406 C 108.173 246.626, 102.285 252.646, 97.538 254.877 C 89.103 258.842, 81.626 257.336, 74.303 250.196 C 69.485 245.499, 67.556 239.973, 68.242 232.832 L 68.692 228.150 63.596 225.384 C 60.793 223.863, 56.250 220.504, 53.500 217.921 C 48.643 213.358, 48.355 213.238, 43.435 213.721 C 35.130 214.537, 27.624 212.474, 24.038 208.391 C 22.033 206.107, 20.812 205.351, 20.504 206.201 C 16.423 217.463, 15.999 223.760, 18.851 230.783 L 20.590 235.066 22.916 232.589 C 28.680 226.454, 38.019 225.253, 46.034 229.615 C 52.406 233.083, 56.571 241.184, 58.149 253.178 C 58.751 257.755, 59.390 262.037, 59.569 262.693 C 60.727 266.946, 107.432 273.941, 112.744 270.658 C 113.310 270.308, 114.083 268.330, 114.461 266.261 C 116.987 252.451, 131.209 243.593, 144.606 247.488 C 150.799 249.288, 158.316 255.457, 161.484 261.340 L 163.305 264.721 170.902 262.022 C 180.737 258.529, 185.086 256.252, 192.848 250.535 C 198.110 246.660, 199.093 245.486, 198.595 243.680 C 198.263 242.481, 197.704 238.248, 197.351 234.273 C 196.855 228.679, 197.097 226.035, 198.420 222.570 C 200.398 217.390, 205.501 212.488, 209.926 211.516 C 211.617 211.145, 213 210.412, 213 209.887 C 213 207.758, 207.988 199.311, 205.093 196.563 C 202.377 193.984, 202 193.862, 201.997 195.563 M 251.697 196.750 C 251.466 197.162, 250.955 198.850, 250.562 200.500 C 250.169 202.150, 248.454 205.941, 246.751 208.923 C 244.457 212.942, 243.635 215.674, 243.577 219.468 C 243.530 222.607, 242.801 225.655, 241.696 227.342 C 237.634 233.539, 228.620 235.943, 223.869 232.095 L 221.517 230.190 217.758 236.669 C 215.691 240.232, 214 243.278, 214 243.437 C 214 244.074, 224.713 241.729, 227.913 240.392 C 233.923 237.881, 241.170 231.670, 245.093 225.668 C 249.452 219, 251.536 212.423, 252.354 202.750 C 252.887 196.449, 252.720 194.927, 251.697 196.750 M 68.500 198.737 C 65.595 199.531, 60.854 199.919, 57.185 199.662 C 51.921 199.293, 50.964 199.465, 51.435 200.692 C 51.746 201.501, 52 202.542, 52 203.005 C 52 204.703, 57.566 210.389, 63.343 214.593 C 69.257 218.896, 69.290 218.906, 72.889 217.413 C 74.875 216.590, 77.589 214.836, 78.920 213.515 L 81.340 211.115 78.033 204.807 C 76.215 201.338, 74.451 198.245, 74.114 197.934 C 73.776 197.623, 71.250 197.984, 68.500 198.737 M 82.757 217.454 C 81.399 218.579, 79.436 220.005, 78.394 220.622 C 76.752 221.595, 77.395 222.022, 83.239 223.836 C 86.946 224.987, 92.346 226.218, 95.239 226.572 L 100.500 227.217 96 224.269 C 93.525 222.648, 90.088 219.991, 88.363 218.365 L 85.226 215.409 82.757 217.454 M 210.030 217.279 C 205.208 219.719, 203 224.546, 203 232.648 C 203 236.692, 203.419 240, 203.932 240 C 206.536 240, 212.447 228.146, 213.531 220.750 C 214.273 215.685, 213.904 215.319, 210.030 217.279 M 231.776 223.381 C 228.160 225.885, 227.327 226.927, 228.226 227.826 C 230.884 230.484, 235.869 227.471, 237.452 222.250 C 238.352 219.284, 237.428 219.468, 231.776 223.381 M 179.362 223.505 C 177.086 224.866, 171.543 227.385, 167.044 229.103 L 158.864 232.227 161.076 234.581 C 162.292 235.875, 165.453 237.654, 168.100 238.533 C 172.642 240.042, 173.159 240.023, 177.280 238.201 C 182.456 235.911, 184.265 232.436, 183.811 225.662 L 183.500 221.031 179.362 223.505 M 73.431 234.517 C 72.562 239.148, 74.308 243.142, 79.092 247.464 C 85.734 253.465, 92.337 253.401, 99.124 247.269 C 102.466 244.249, 106 239.325, 106 237.688 C 106 237.461, 103.086 236.978, 99.524 236.613 C 95.963 236.248, 89.206 234.836, 84.509 233.475 C 79.813 232.114, 75.547 231, 75.030 231 C 74.513 231, 73.794 232.582, 73.431 234.517 M 30.325 233.459 C 28.579 234.219, 26.394 235.995, 25.469 237.407 C 23.882 239.829, 23.892 240.135, 25.644 242.812 C 28.705 247.493, 35.027 252.453, 43.536 256.849 C 52.773 261.620, 54.013 261.847, 53.965 258.750 C 53.897 254.378, 51.272 244.192, 49.008 239.515 C 45.620 232.518, 38.097 230.079, 30.325 233.459 M 226.750 246.658 C 224.688 247.514, 223 248.809, 223 249.537 C 223 250.457, 224.369 250.094, 227.500 248.344 C 233.960 244.734, 233.560 243.834, 226.750 246.658 M 204.603 252.675 L 200.706 256.297 205.795 255.622 C 212.098 254.785, 217.567 252.570, 218.347 250.537 C 218.832 249.273, 218.009 249.005, 213.719 249.027 C 209.123 249.051, 208.034 249.487, 204.603 252.675 M 132.655 252.459 C 127.476 254.305, 124.202 257.511, 121.377 263.500 C 118.018 270.623, 118.163 271.001, 124.250 270.995 C 129.924 270.990, 155.424 267.474, 157.043 266.473 C 159.723 264.817, 150.745 255.463, 143.620 252.486 C 139.312 250.686, 137.639 250.682, 132.655 252.459" stroke="none" fill="black" fill-rule="evenodd"/>
</svg>