<svg xmlns="http://www.w3.org/2000/svg" width="291" height="213" viewBox="0 0 291 213" version="1.1">
	<path d="M 53 8.918 C 35.250 13.664, 22.023 24.246, 14.980 39.334 C 12.883 43.825, 10.637 50.200, 9.988 53.500 C 9.339 56.800, 8.421 61.300, 7.947 63.500 C 5.561 74.596, 7.474 90.280, 12.368 99.744 C 14.576 104.014, 25.771 114.096, 31.724 117.175 C 39.131 121.006, 51.159 124.110, 61 124.728 C 70.346 125.315, 72.971 126.199, 73.058 128.785 C 73.117 130.540, 75.289 133.987, 80.374 140.393 L 83.248 144.013 79.732 151.257 C 73.178 164.762, 72.567 176.159, 78.062 182.418 C 82.818 187.834, 90.341 191.258, 98.662 191.792 C 111.155 192.594, 114.859 189.617, 117.064 177 L 118.375 169.500 119.554 178.500 C 121.643 194.443, 124.253 199.412, 132.764 203.642 C 138.421 206.455, 155.959 206.265, 161.500 203.331 C 168.130 199.820, 169.500 197.648, 169.500 190.646 C 169.500 187.266, 169.136 183.193, 168.692 181.595 L 167.884 178.691 177.790 179.294 C 186.676 179.836, 195.371 179.095, 210.559 176.503 C 213.521 175.998, 213.659 176.143, 214.944 181.160 C 216.554 187.440, 222.505 194.351, 227.810 196.102 C 233.482 197.974, 245.745 197.441, 252.152 195.044 C 265.016 190.231, 266.683 180.855, 257.571 164.560 L 253.952 158.090 258.226 157.011 C 275.665 152.611, 284 147.080, 284 139.910 C 284 133.525, 281.388 131.509, 273.107 131.504 C 267.156 131.501, 266.376 131.286, 266.774 129.762 C 267.754 126.001, 265.828 120.904, 261.855 116.743 C 259.511 114.289, 256.972 110.181, 255.833 107 C 243.398 72.296, 218.797 51.363, 186.500 48.005 C 169.064 46.192, 152.736 49.450, 138.773 57.529 C 134.523 59.988, 130.811 62, 130.523 62 C 130.235 62, 129.995 60.538, 129.988 58.750 C 129.982 56.962, 129.323 53.045, 128.525 50.045 C 123.140 29.813, 106.651 13.881, 85.540 8.515 C 77.539 6.481, 61.366 6.682, 53 8.918 M 56 17.608 C 43.520 20.959, 35.104 26.237, 28.941 34.580 C 22.148 43.776, 19.075 52.469, 16.874 68.727 C 14.762 84.317, 17.575 93.591, 27.147 102.596 C 38.811 113.571, 54.721 117.556, 79.336 115.669 C 85.296 115.212, 90.455 115.121, 90.801 115.467 C 92.156 116.823, 89.119 119.573, 84.689 121 C 80.766 122.264, 80.131 122.815, 80.651 124.500 C 82.105 129.205, 92.539 140.214, 98.356 143.182 C 103.834 145.976, 114.016 146.178, 119.748 143.605 L 123.970 141.710 120.373 137.727 C 114.356 131.068, 112.681 125.990, 112.708 114.500 C 112.726 106.901, 113.274 102.819, 114.990 97.500 C 119.941 82.153, 120.885 77.464, 120.930 68 C 121.002 53.127, 116.759 41.274, 107.889 31.569 C 96.376 18.971, 73.674 12.863, 56 17.608 M 167.155 57.127 C 159.783 58.103, 150.837 60.919, 147.700 63.251 C 146.196 64.369, 146.674 65.185, 152.260 71.028 C 155.692 74.619, 159.857 79.263, 161.517 81.348 L 164.533 85.139 185.017 86.698 L 205.500 88.257 213.268 79.897 L 221.037 71.536 218.768 69.691 C 215.015 66.638, 198.848 59.269, 193.500 58.174 C 185.335 56.501, 174.986 56.090, 167.155 57.127 M 21.987 60.514 C 20.222 62.393, 19.520 64.488, 19.207 68.812 C 18.835 73.958, 19.086 74.949, 21.483 77.798 C 25.448 82.509, 31.879 82.001, 36.228 76.633 C 38.562 73.751, 38.562 65.249, 36.228 62.367 C 32.203 57.399, 25.708 56.553, 21.987 60.514 M 82.381 60.867 C 77.322 64.021, 75.636 71.322, 78.548 77.460 C 81.301 83.261, 88.789 84.806, 93.694 80.587 C 96.238 78.398, 96.500 77.561, 96.500 71.609 C 96.500 65.941, 96.159 64.705, 94 62.547 C 90.521 59.070, 86.253 58.453, 82.381 60.867 M 29 65.441 C 29 68.093, 30.687 69.746, 31.983 68.363 C 32.991 67.286, 31.432 63, 30.032 63 C 29.465 63, 29 64.098, 29 65.441 M 86.472 66.045 C 86.079 66.681, 86.707 68.151, 87.868 69.312 C 89.545 70.990, 90.232 71.168, 91.216 70.184 C 92.128 69.272, 92.169 68.490, 91.370 67.222 C 90.039 65.109, 87.437 64.484, 86.472 66.045 M 135.903 70.420 C 133.937 71.756, 131.634 73.909, 130.784 75.206 C 129.275 77.509, 126.144 87.200, 123.493 97.769 L 122.172 103.037 125.066 104.534 C 126.657 105.357, 129.853 108.611, 132.167 111.765 C 134.482 114.919, 138.203 119.190, 140.438 121.256 C 143.960 124.513, 144.588 124.778, 145.161 123.256 C 146.696 119.178, 154.512 101.019, 157.214 95.254 L 160.141 89.008 156.320 84.341 C 152.600 79.795, 141.510 68.755, 140.153 68.246 C 139.781 68.106, 137.868 69.085, 135.903 70.420 M 218.391 82.562 C 214.601 86.768, 211.354 90.840, 211.175 91.613 C 210.827 93.117, 213.531 101.459, 216.920 109.333 C 218.064 111.991, 219 115.224, 219 116.517 C 219 117.810, 220.188 121.608, 221.641 124.957 C 224.678 131.961, 224 131.899, 236.185 126.286 C 240.411 124.339, 245.025 121.540, 246.438 120.065 C 248.988 117.403, 248.995 117.347, 247.470 112.212 C 244.008 100.555, 234.246 83.221, 227.756 77.208 L 225.282 74.916 218.391 82.562 M 44.250 88.731 C 41.046 89.848, 44.525 96.290, 49.215 97.925 C 55.297 100.045, 59.940 99.082, 64.750 94.701 C 67.241 92.432, 67.769 89, 65.626 89 C 64.870 89, 62.203 90.145, 59.700 91.544 C 55.383 93.957, 54.963 94.011, 51.574 92.595 C 49.608 91.774, 48 90.677, 48 90.158 C 48 88.963, 45.888 88.159, 44.250 88.731 M 164.583 93.250 C 163.778 94.487, 161.558 99.100, 159.649 103.500 C 157.740 107.900, 155.015 113.854, 153.595 116.732 C 152.175 119.610, 150.897 123.435, 150.756 125.232 L 150.500 128.500 160.208 131.761 C 173.357 136.178, 187.746 137.690, 201.391 136.090 C 211.300 134.927, 218 133.394, 218 132.288 C 218 130.553, 215.095 121.755, 210.247 108.806 L 204.745 94.112 199.623 93.584 C 196.805 93.294, 190.148 92.594, 184.830 92.028 C 169.625 90.411, 166.298 90.612, 164.583 93.250 M 120.777 112.744 C 119.926 116, 121.750 123.898, 124.396 128.412 C 133.996 144.789, 172.542 157.253, 203.193 153.891 C 216.244 152.459, 231.182 148.526, 240 144.199 C 249.475 139.549, 257.006 132.559, 256.985 128.434 C 256.956 122.899, 255.688 122.356, 250.627 125.708 C 222.791 144.146, 186.084 148.136, 153 136.320 C 143.842 133.049, 139.839 130.137, 129.413 119.160 C 122.381 111.758, 121.254 110.920, 120.777 112.744 M 265.702 141.508 C 259.306 142.437, 257.419 143.143, 255.202 145.437 L 252.500 148.234 256.500 147.723 C 262.419 146.965, 275.337 141.804, 273.971 140.743 C 273.712 140.541, 269.991 140.886, 265.702 141.508 M 125.496 148.007 C 124.290 149.958, 118.885 152.087, 113.224 152.841 L 107.500 153.603 113.728 156.805 L 119.956 160.007 122.091 155.753 C 123.265 153.414, 125.153 150.488, 126.287 149.250 C 127.421 148.012, 127.847 147, 127.233 147 C 126.620 147, 125.838 147.453, 125.496 148.007 M 133.172 151.800 C 129.785 156.629, 128.534 162.151, 128.596 172 C 128.663 182.623, 130.706 190.448, 134.283 193.776 C 140.401 199.471, 161 197.472, 161 191.184 C 161 190.210, 159.852 185.454, 158.449 180.614 C 157.046 175.774, 155.446 169.268, 154.893 166.157 C 153.335 157.381, 153.100 156.974, 148.409 154.925 C 145.984 153.866, 141.990 152.122, 139.533 151.050 L 135.066 149.099 133.172 151.800 M 87.968 156.254 C 84.225 164.252, 82.655 172.148, 84.153 175.436 C 86.854 181.365, 103.549 186.580, 105.881 182.223 C 107.228 179.705, 109.186 164.756, 108.266 164.013 C 107.845 163.673, 104.952 161.482, 101.838 159.144 C 98.724 156.806, 94.988 153.792, 93.536 152.446 L 90.896 149.999 87.968 156.254 M 229.500 157.075 C 221.722 159.785, 221.492 159.958, 221.196 163.328 C 220.897 166.729, 223.008 176.779, 225.181 182.297 C 225.786 183.836, 227.621 185.787, 229.258 186.633 C 233.573 188.865, 243.947 188.559, 249.658 186.033 L 254.271 183.993 253.666 179.582 C 253.334 177.156, 252.099 173.445, 250.923 171.335 C 245.004 160.721, 240.361 154.030, 239 154.153 C 238.175 154.227, 233.900 155.543, 229.500 157.075 M 162.973 163.382 C 164.137 168.541, 164.703 169.092, 167.522 167.808 C 168.869 167.194, 170.650 165.656, 171.479 164.391 C 172.939 162.164, 172.868 162.057, 169.243 161.051 C 162.822 159.267, 162.105 159.534, 162.973 163.382 M 206 162.694 C 204.284 163.307, 202 165.939, 202 167.302 C 202 167.817, 203.652 167.930, 205.750 167.558 C 211.990 166.452, 213 165.947, 213 163.933 C 213 162.472, 212.329 162.019, 210.250 162.079 C 208.738 162.122, 206.825 162.399, 206 162.694 M 176.485 166.200 C 173.978 169.179, 173.920 169.451, 175.646 170.130 C 177.877 171.008, 186.384 171.009, 190.375 170.132 C 191.956 169.784, 194.376 168.037, 195.753 166.250 L 198.256 163 188.717 163 C 179.213 163, 179.168 163.012, 176.485 166.200" stroke="none" fill="black" fill-rule="evenodd"/>
</svg>