<svg xmlns="http://www.w3.org/2000/svg" width="295" height="288" viewBox="0 0 295 288" version="1.1">
	<path d="M 33.734 8.029 C 24.217 10.420, 15.346 17.629, 11.006 26.500 C 8.969 30.664, 8.554 33.016, 8.530 40.564 C 8.505 48.254, 8.871 50.351, 10.949 54.395 C 13.676 59.704, 19.900 66.380, 24.190 68.598 C 27.381 70.248, 27.417 70.351, 25.857 73.267 C 23.035 78.540, 18.958 95.820, 18.395 104.895 C 16.535 134.875, 34.694 159.812, 67.258 171.995 L 72.521 173.965 74.783 194.232 C 76.027 205.380, 77.327 220.005, 77.671 226.733 L 78.298 238.965 73.778 243.485 C 70.811 246.452, 68.829 249.539, 68.008 252.471 C 66.862 256.564, 66.956 257.335, 69.129 261.697 C 72.121 267.704, 78.070 271.001, 87.204 271.715 C 92.923 272.163, 101.162 271.203, 105 269.643 C 106.019 269.228, 107.006 270.070, 108.078 272.266 C 110.515 277.258, 116.399 279.984, 126.231 280.678 C 147.090 282.150, 158.049 272.338, 160.588 249.917 L 161.221 244.333 165.524 244.333 C 169.732 244.333, 169.796 244.382, 168.382 246.540 C 167.586 247.754, 166.672 250.977, 166.349 253.703 C 165.813 258.228, 166.032 258.967, 168.867 262.196 C 172.124 265.905, 177.124 267.875, 184.715 268.441 C 187.032 268.614, 189.690 269.548, 190.677 270.534 C 193.693 273.550, 200.362 275.927, 207.730 276.611 C 217.051 277.478, 227.065 274.624, 231.650 269.794 C 237.855 263.256, 238.366 261.220, 238.613 242 C 238.904 219.464, 240.939 199.012, 243 197.917 C 243.825 197.479, 246.975 196.042, 250 194.724 C 253.025 193.406, 257.595 190.286, 260.157 187.792 C 272.238 176.024, 275.273 163.019, 270.494 143.500 C 269.552 139.650, 268.307 133.537, 267.729 129.916 C 266.262 120.738, 268.224 116.785, 276.500 112.240 C 285.746 107.161, 288 104.197, 288 97.119 C 288 87.553, 282.630 82.800, 271.821 82.800 C 260.214 82.800, 248.383 91.388, 241.920 104.506 C 238.868 110.698, 238.468 112.472, 238.202 120.973 C 238.002 127.354, 238.413 132.316, 239.447 136 C 244.802 155.075, 245.230 157.433, 244.099 161.634 C 242.751 166.637, 239.817 170.526, 235.835 172.585 C 232.880 174.113, 232.794 174.081, 228.159 169.745 C 219.359 161.514, 209.330 157.035, 195.014 154.942 L 187.019 153.773 191.368 148.935 C 200.329 138.969, 204.981 125.605, 204.992 109.799 C 205.002 96.263, 203.432 88.216, 197.991 73.911 L 196.245 69.323 199.603 67.515 C 204.728 64.754, 209.736 59.239, 212.716 53.072 C 214.950 48.447, 215.408 46.141, 215.407 39.500 C 215.406 32.737, 214.982 30.683, 212.669 26.216 C 209.321 19.752, 203.932 14.386, 196.848 10.462 C 192.089 7.826, 190.565 7.502, 183 7.514 C 175.727 7.526, 173.760 7.916, 169.375 10.217 C 166.557 11.697, 162.332 14.878, 159.987 17.288 L 155.724 21.669 148.612 18.767 C 136.459 13.808, 126.936 12.015, 112.708 12.007 C 97.821 11.999, 88.090 13.710, 76.302 18.408 L 68.104 21.675 63.394 16.893 C 55.694 9.075, 43.764 5.510, 33.734 8.029 M 28.984 19.852 C 20.952 24.121, 16.246 34.726, 18.077 44.431 C 19.542 52.198, 23.396 56.914, 32.191 61.700 C 37.498 64.589, 37.791 65.529, 35.440 72.124 C 31.506 83.155, 27.970 100.665, 27.892 109.500 C 27.723 128.551, 38.025 145.758, 56.348 157.035 C 60.786 159.766, 64.746 162, 65.149 162 C 65.552 162, 65.236 160.762, 64.447 159.250 C 63.658 157.738, 63.010 154.001, 63.006 150.946 C 62.991 137.467, 73.291 127.348, 91.946 122.514 C 106.842 118.654, 117.033 118.662, 132.500 122.545 C 145.184 125.729, 155.194 132.808, 159.064 141.332 C 161.494 146.684, 161.656 156.619, 159.366 159.887 C 157.775 162.160, 157.794 162.201, 160.116 161.478 C 164.421 160.138, 175.390 152.435, 181.266 146.627 C 186.116 141.831, 186.870 140.626, 186.016 139.029 C 185.457 137.985, 185 136.280, 185 135.240 C 185 132.778, 189.480 128.586, 191.345 129.302 C 192.429 129.718, 193.195 128.255, 194.396 123.473 C 197.599 110.722, 196.093 96.678, 189.463 77.465 C 187.558 71.946, 186 66.903, 186 66.258 C 186 65.612, 188.138 63.868, 190.750 62.381 C 197.007 58.819, 201.733 54.358, 204.088 49.790 C 206.592 44.932, 206.598 35.883, 204.100 30.500 C 200.055 21.782, 190.357 16.368, 184.374 19.489 C 182.793 20.313, 181.033 20.990, 180.462 20.994 C 179.891 20.997, 177.866 22.385, 175.962 24.077 C 173.702 26.086, 173.194 26.915, 174.500 26.466 C 190.014 21.135, 203.166 33.846, 198.081 49.256 C 196.488 54.081, 189.884 60, 186.093 60 C 183.623 60, 182.735 59.192, 180.130 54.576 C 178.446 51.592, 174.523 46.666, 171.412 43.629 C 166.484 38.818, 165.844 37.759, 166.435 35.401 C 166.809 33.913, 168.516 31.386, 170.230 29.785 L 173.345 26.875 170.422 27.548 C 168.815 27.918, 165.994 29.762, 164.153 31.647 C 160.368 35.520, 159.416 35.465, 152.055 30.944 C 140.813 24.038, 124.038 20.476, 106.553 21.281 C 92.959 21.907, 85.738 23.781, 72.787 30.044 C 65.955 33.348, 64.345 33.789, 62.929 32.746 C 50.946 23.924, 39.961 18, 35.584 18 C 33.871 18, 30.901 18.833, 28.984 19.852 M 118.455 26.455 C 113.894 31.015, 116.216 39, 122.102 39 C 128.791 39, 132.940 29.172, 127.777 25.557 C 124.581 23.318, 121.273 23.636, 118.455 26.455 M 33.500 26.871 C 24.338 32.561, 21.574 41.773, 26.250 51.030 C 28.683 55.846, 33.926 60, 37.571 60 C 39.268 60, 40.991 58.285, 44.353 53.250 C 46.832 49.538, 50.916 44.494, 53.430 42.042 C 55.943 39.590, 58 37.157, 58 36.636 C 58 34.889, 52.801 28.849, 49.634 26.919 C 45.496 24.395, 37.524 24.372, 33.500 26.871 M 91.913 26.282 C 90.129 27.652, 88 31.296, 88 32.980 C 88 34.794, 92.757 39, 94.809 39 C 97.841 39, 102 34.490, 102 31.203 C 102 26.087, 95.987 23.154, 91.913 26.282 M 34.816 33.067 C 29.271 37.206, 29.036 46.867, 34.358 51.866 L 36.738 54.102 40.309 48.721 C 42.274 45.762, 45.670 41.724, 47.856 39.749 C 51.498 36.459, 51.692 36.036, 50.166 34.707 C 45.350 30.515, 39.126 29.850, 34.816 33.067 M 175.226 33.464 L 172.298 35.927 177.102 40.912 C 179.744 43.653, 182.883 47.811, 184.077 50.151 L 186.248 54.406 189.062 51.256 C 192.967 46.886, 194.336 41.551, 192.476 37.954 C 188.842 30.926, 180.746 28.819, 175.226 33.464 M 141.321 36.189 C 136.149 38.689, 135.959 47.155, 141.017 49.714 C 146.783 52.632, 156.403 50.226, 157.571 45.575 C 159.274 38.788, 148.645 32.648, 141.321 36.189 M 68.357 40.577 C 66.175 43.908, 67.468 47.978, 71.289 49.810 C 75.828 51.985, 81 49.119, 81 44.429 C 81 38.328, 71.689 35.492, 68.357 40.577 M 143.496 42.007 C 142.713 43.273, 145.497 44.407, 147.500 43.638 C 148.325 43.322, 149 42.599, 149 42.031 C 149 40.703, 144.315 40.682, 143.496 42.007 M 106.807 45.750 C 104.369 48.589, 103.876 51.093, 105.053 54.660 C 106.452 58.900, 109.030 60.399, 112.333 58.894 C 116.735 56.889, 118.622 48.765, 115.429 45.571 C 113.335 43.478, 108.675 43.574, 106.807 45.750 M 126.073 56.635 C 122.083 61.706, 124.292 67, 130.397 67 C 134.313 67, 138 63.528, 138 59.841 C 138 54.013, 129.856 51.825, 126.073 56.635 M 87 57 C 84.612 59.388, 84.547 60.224, 86.463 63.928 C 88.023 66.946, 89.815 68, 93.382 68 C 98.420 68, 99.726 61.635, 95.545 57.455 C 92.570 54.479, 89.675 54.325, 87 57 M 58.455 67.455 C 55.526 70.383, 55.369 72.119, 57.829 74.345 C 60.326 76.605, 62.254 76.423, 64.826 73.686 C 67.480 70.860, 67.580 68.835, 65.171 66.655 C 62.688 64.408, 61.341 64.569, 58.455 67.455 M 155.318 66.202 C 153.134 69.018, 153.103 69.861, 155.086 72.382 C 157.613 75.595, 161.483 75.834, 163.067 72.875 C 165.230 68.833, 158.064 62.661, 155.318 66.202 M 118.223 72.557 C 114.326 75.286, 115.867 81, 120.500 81 C 121.655 81, 123.140 80.460, 123.800 79.800 C 125.701 77.899, 125.258 73.208, 123.066 72.035 C 120.634 70.734, 120.860 70.710, 118.223 72.557 M 98.408 74.500 C 96.891 76.816, 96.891 77.184, 98.408 79.500 C 100.343 82.453, 103.043 82.715, 105.345 80.171 C 107.543 77.743, 107.433 76.481, 104.811 74.039 C 101.932 71.356, 100.396 71.467, 98.408 74.500 M 179 87 C 174.806 91.194, 177.514 101, 182.865 101 C 183.891 101, 185.916 100.067, 187.365 98.927 C 192.581 94.825, 189.854 85, 183.500 85 C 182.125 85, 180.100 85.900, 179 87 M 36.455 89.455 C 33.455 92.454, 33.323 95.870, 36.073 99.365 C 38.612 102.594, 41.473 102.744, 43.409 99.750 C 45.945 95.830, 46.362 92.201, 44.587 89.493 C 42.516 86.332, 39.591 86.318, 36.455 89.455 M 180.675 91.658 C 179.918 92.415, 181.811 95, 183.122 95 C 183.605 95, 184 94.100, 184 93 C 184 91.078, 182.044 90.289, 180.675 91.658 M 40 95.500 C 40 96.325, 40.450 97, 41 97 C 41.550 97, 42 96.325, 42 95.500 C 42 94.675, 41.550 94, 41 94 C 40.450 94, 40 94.675, 40 95.500 M 66.388 97.934 C 62.514 99.584, 60 103.905, 60 108.912 C 60 114.408, 61.997 117.683, 66.495 119.562 C 70.737 121.335, 76.151 119.892, 79.053 116.216 C 82.054 112.414, 81.415 103.961, 77.859 100.404 C 75.154 97.700, 69.696 96.524, 66.388 97.934 M 146.869 98.510 C 140.594 101.919, 139.886 113.405, 145.669 117.955 C 148.507 120.187, 154.816 120.704, 158.055 118.970 C 160.861 117.469, 163 112.702, 163 107.950 C 163 104.564, 162.374 103.174, 159.600 100.400 C 155.812 96.612, 151.531 95.977, 146.869 98.510 M 253.239 102.891 C 251.123 105.753, 251.121 105.799, 253.051 107.546 C 255.857 110.085, 255.543 114.593, 252.354 117.548 C 250.899 118.896, 249.099 120, 248.354 120 C 246.473 120, 246.699 126.853, 248.851 135 C 250.241 140.264, 250.982 141.560, 252.749 141.815 C 255.443 142.204, 260 147.445, 260 150.154 C 260 151.254, 258.740 153.414, 257.200 154.954 C 253.841 158.313, 251.950 165.578, 252.710 172.202 C 253.198 176.459, 252.961 177.193, 250.202 179.952 C 246.951 183.202, 243.341 183.854, 240.032 181.788 C 237.235 180.041, 236.666 181.265, 238.375 185.354 L 239.866 188.924 244.317 187.408 C 249.743 185.559, 256.288 180.133, 257.959 176.098 C 258.995 173.597, 258.937 172.748, 257.597 170.835 C 254.074 165.806, 256.946 159.044, 262.250 159.882 C 263.430 160.068, 263.099 154.142, 261.504 146.500 C 260.481 141.600, 259.403 139.050, 257.911 138 C 252.449 134.157, 251 132.102, 251 128.200 C 251 124.480, 253.233 121, 255.620 121 C 256.150 121, 257.797 118.525, 259.281 115.500 C 260.764 112.475, 262.449 110, 263.024 110 C 263.599 110, 262.479 108.603, 260.535 106.896 C 258.591 105.189, 257 102.939, 257 101.896 C 257 99.204, 255.713 99.545, 253.239 102.891 M 153.250 101.718 C 151.646 102.294, 151.657 104.148, 153.276 106.363 C 154.853 108.520, 158 107.564, 158 104.928 C 158 102.888, 155.222 101.011, 153.250 101.718 M 70.359 103.507 C 70.006 104.427, 70.416 105.844, 71.286 106.714 C 73.410 108.838, 76.227 107.621, 75.820 104.754 C 75.426 101.977, 71.307 101.037, 70.359 103.507 M 182.455 108.455 C 179.390 111.520, 179.057 117.837, 181.829 120.345 C 188.437 126.326, 197.196 114.290, 190.686 108.174 C 187.682 105.352, 185.482 105.427, 182.455 108.455 M 36.008 110.975 C 28.805 112.742, 30.546 126, 37.981 126 C 43.600 126, 46.986 118.281, 43.531 113.347 C 41.798 110.874, 39.446 110.132, 36.008 110.975 M 91.270 128.149 C 73.962 131.177, 64.329 144.347, 69.022 158.566 C 70.005 161.544, 71.170 162.646, 75.363 164.565 C 85.328 169.124, 93.172 170.379, 112 170.425 C 130.995 170.471, 140.328 169.041, 148.941 164.764 C 152.892 162.802, 153.756 161.782, 155.422 157.119 C 157.101 152.420, 157.189 151.155, 156.114 147.137 C 153.405 137.010, 145.018 130.651, 130.250 127.528 C 127.436 126.933, 127 127.110, 127 128.844 C 127 131.751, 122.447 136.709, 118.451 138.154 C 115.701 139.148, 115 139.939, 115 142.046 C 115 145.072, 117.367 147.585, 121 148.416 C 123.768 149.049, 126.054 147.663, 127.872 144.250 C 129.257 141.650, 131.789 141.288, 132.663 143.564 C 134.228 147.644, 127.428 153.989, 121.482 153.996 C 119.822 153.998, 116.837 152.894, 114.848 151.543 C 111.282 149.119, 111.208 149.112, 109.479 151.023 C 106.907 153.866, 101.468 154.594, 97.378 152.643 C 93.235 150.667, 89.908 144.685, 91.872 142.740 C 92.870 141.751, 93.690 142.192, 95.922 144.917 C 98.078 147.548, 99.478 148.333, 102.016 148.333 C 108.317 148.333, 111.918 139.800, 106.151 138.533 C 103.102 137.864, 97.628 132.816, 96.305 129.454 C 95.600 127.662, 94.977 127.500, 91.270 128.149 M 46.073 130.635 C 42.258 135.484, 44.176 142, 49.416 142 C 52.110 142, 54.319 139.689, 55.772 135.349 C 57.993 128.714, 50.463 125.054, 46.073 130.635 M 168.073 132.635 C 164.502 137.175, 166.062 142, 171.101 142 C 175.922 142, 178 140.380, 178 136.620 C 178 130.312, 171.843 127.841, 168.073 132.635 M 49.345 135.543 C 48.591 137.509, 49.483 138.412, 51.440 137.661 C 52.319 137.324, 52.716 136.423, 52.376 135.538 C 51.618 133.562, 50.104 133.565, 49.345 135.543 M 171 136.441 C 171 137.298, 171.450 138, 172 138 C 172.550 138, 173 137.577, 173 137.059 C 173 136.541, 172.550 135.840, 172 135.500 C 171.450 135.160, 171 135.584, 171 136.441 M 168 167.095 C 159.285 171.243, 145.939 175.555, 135.956 177.449 C 125.647 179.404, 99.291 179.470, 89.500 177.564 C 85.650 176.815, 82.367 176.327, 82.204 176.481 C 82.040 176.634, 82.554 180.780, 83.345 185.694 C 85.182 197.103, 89.324 205.416, 97.372 213.847 C 101.702 218.382, 105.361 221.106, 109.843 223.133 C 113.332 224.710, 116.369 226, 116.593 226 C 116.817 226, 117 223.944, 117 221.430 C 117 217.264, 117.198 216.889, 119.250 217.180 C 122.453 217.635, 124.875 225.652, 125.654 238.377 C 126.407 250.680, 125.500 254.051, 120.002 259.379 C 117.073 262.218, 116 264.068, 116 266.277 L 116 269.296 118.250 265.992 C 121.156 261.725, 123.574 260.174, 125.039 261.639 C 125.831 262.431, 125.564 263.667, 124.070 266.116 C 121.546 270.257, 121.468 271.744, 123.750 272.214 C 124.970 272.465, 126.105 271.352, 127.500 268.537 C 129.967 263.557, 133.605 262.240, 132.715 266.649 C 132.399 268.217, 131.823 270.319, 131.436 271.320 C 130.805 272.952, 131.135 273.071, 134.616 272.465 C 139.645 271.590, 145.554 267.763, 147.406 264.183 C 148.999 261.102, 150.880 251.841, 153.535 234.012 C 155.571 220.338, 155.681 220, 158.107 220 C 159.761 220, 160.002 220.790, 160.015 226.250 C 160.024 229.688, 160.429 233.130, 160.917 233.900 C 162.053 235.693, 174.538 234.939, 184.152 232.496 L 190.805 230.806 189.902 227.660 C 188.587 223.075, 188.799 217.412, 190.332 216.139 C 192.378 214.442, 194.522 216.762, 195.994 222.266 C 196.695 224.888, 198.466 228.938, 199.930 231.266 C 206.466 241.666, 206.669 248.683, 200.612 254.885 C 197.871 257.692, 197 259.418, 197.002 262.042 L 197.003 265.500 198.752 262.075 C 200.963 257.744, 203.473 256.073, 205.190 257.790 C 206.184 258.784, 206.066 259.722, 204.606 262.433 C 203.600 264.301, 203.079 266.318, 203.447 266.915 C 204.520 268.651, 207 268.167, 207 266.223 C 207 263.476, 209.885 260, 212.165 260 C 214.285 260, 214.283 259.949, 212.422 266.631 C 211.869 268.619, 212.088 268.715, 215.664 268.050 C 221.730 266.923, 225.578 264.409, 227.529 260.297 C 229.049 257.095, 229.299 254.131, 229.138 241.220 C 229.005 230.529, 229.442 223.313, 230.591 217.217 C 234.826 194.742, 227.311 175.891, 211.290 168.804 C 205.108 166.070, 193.286 164.077, 183 164.036 C 175.526 164.006, 173.715 164.375, 168 167.095 M 172.854 168.168 C 162.357 170.993, 162.009 182.206, 172.259 187.306 C 177.290 189.809, 182.115 188.772, 185.993 184.355 C 190.138 179.634, 190.060 175.401, 185.750 171.300 C 182.006 167.737, 178.038 166.773, 172.854 168.168 M 197.642 170.100 C 195.220 173.559, 195.627 176.269, 199.066 179.563 C 204.883 185.135, 215.491 182.497, 214.799 175.650 C 214.400 171.710, 210.677 169.104, 204.378 168.358 C 199.813 167.818, 199.115 167.998, 197.642 170.100 M 203.058 172.430 C 202.113 173.568, 202.252 174.065, 203.739 174.860 C 206.449 176.310, 208.814 174.685, 207.063 172.576 C 205.446 170.627, 204.581 170.596, 203.058 172.430 M 175.189 174.714 C 170.571 175.596, 171.733 181, 176.541 181 C 180.133 181, 182 179.949, 182 177.928 C 182 176.399, 178.959 173.643, 177.816 174.136 C 177.642 174.211, 176.460 174.471, 175.189 174.714 M 146.388 182.394 C 141.128 186.195, 140.911 194.552, 145.933 199.928 C 148.343 202.508, 149.549 203, 153.467 203 C 156.032 203, 158.940 202.567, 159.929 202.038 C 162.531 200.645, 164.332 195.582, 163.604 191.703 C 162.222 184.336, 151.628 178.608, 146.388 182.394 M 122.853 186.993 C 119.829 190.017, 119.656 192.514, 122.245 195.750 C 124.014 197.962, 128.684 197.217, 130.927 194.365 C 133.926 190.553, 133.609 187.367, 130.050 185.526 C 126.207 183.539, 126.333 183.513, 122.853 186.993 M 215.030 187.279 C 207.327 191.177, 209.474 202.256, 218.204 203.654 C 221.406 204.166, 222.320 203.834, 224.954 201.200 C 232.772 193.381, 224.872 182.299, 215.030 187.279 M 125.736 189.598 C 125.407 189.927, 125.384 190.838, 125.686 191.623 C 126.106 192.719, 126.555 192.784, 127.617 191.903 C 128.378 191.272, 129 190.360, 129 189.878 C 129 188.886, 126.649 188.685, 125.736 189.598 M 148.611 190.572 C 147.794 192.699, 149.541 195.720, 152.047 196.515 C 155.862 197.726, 158.644 193.044, 155.800 190.200 C 154.067 188.467, 149.324 188.713, 148.611 190.572 M 189.750 190.080 C 185.356 192.639, 183.564 201.391, 186.829 204.345 C 191.601 208.663, 202.241 203.560, 203.603 196.300 C 204.523 191.397, 202.038 188.991, 196.095 189.030 C 193.568 189.047, 190.712 189.519, 189.750 190.080 M 217.455 193.429 C 215.592 194.809, 215.583 194.962, 217.250 196.653 C 218.903 198.330, 219.095 198.333, 220.714 196.714 C 222.243 195.186, 222.265 194.837, 220.919 193.490 C 219.596 192.168, 219.166 192.160, 217.455 193.429 M 193.750 195.787 C 192.787 195.985, 192 197.014, 192 198.073 C 192 200.366, 193.286 200.565, 194.972 198.534 C 196.549 196.634, 195.969 195.332, 193.750 195.787 M 171.272 204.211 C 167.004 206.270, 167.194 212.363, 171.577 214.029 C 178.113 216.514, 184.276 208.408, 178.777 204.557 C 176.229 202.772, 174.426 202.688, 171.272 204.211 M 132.571 206.571 C 130.481 208.662, 130.853 213.894, 133.197 215.361 C 137.475 218.039, 144.039 211.475, 141.361 207.197 C 139.894 204.853, 134.662 204.481, 132.571 206.571 M 174 209.559 C 174 210.416, 174.450 210.840, 175 210.500 C 175.550 210.160, 176 209.459, 176 208.941 C 176 208.423, 175.550 208, 175 208 C 174.450 208, 174 208.702, 174 209.559 M 220.443 210.466 C 219.099 211.810, 218 213.760, 218 214.800 C 218 217.003, 220.982 220, 223.174 220 C 228.004 220, 229.722 210.531, 225.193 208.869 C 223.384 208.205, 222.359 208.550, 220.443 210.466 M 87 217.410 C 87 219.226, 87.702 220.318, 89.250 220.910 C 92.614 222.197, 95.250 225.592, 95.250 228.639 C 95.250 231.702, 92.370 234.322, 89.750 233.642 C 88.387 233.288, 88 233.816, 88 236.029 C 88 240.621, 86.202 244.094, 80.944 249.653 C 76.435 254.421, 74.503 259, 77 259 C 77.550 259, 78 258.403, 78 257.674 C 78 255.549, 82.715 251.677, 84.480 252.354 C 85.880 252.891, 85.824 253.424, 83.993 257.015 C 82.855 259.244, 82.193 261.503, 82.521 262.034 C 83.421 263.489, 86 263.193, 86 261.635 C 86 259.379, 90.008 255, 92.073 255 C 94.352 255, 94.508 256.745, 92.468 259.441 C 89.836 262.921, 90.571 264.303, 94.646 263.539 C 96.652 263.162, 99.334 262.172, 100.608 261.337 C 103.497 259.444, 106.596 251.347, 107.441 243.482 C 107.795 240.192, 108.293 236.129, 108.549 234.453 C 108.973 231.676, 108.624 231.216, 104.612 229.267 C 102.191 228.090, 97.238 224.348, 93.605 220.949 C 87.361 215.108, 87 214.915, 87 217.410 M 202.073 219.635 C 200.933 221.084, 200 223.129, 200 224.180 C 200 226.675, 204.362 231, 206.878 231 C 209.871 231, 215 226.208, 215 223.411 C 215 217.252, 206.012 214.627, 202.073 219.635 M 142.174 221.314 C 139.434 224.231, 139.403 227.403, 142.087 230.087 C 145.594 233.594, 152 231.018, 152 226.100 C 152 219.713, 146.291 216.933, 142.174 221.314 M 129.473 231.030 C 128.038 232.616, 127.839 233.634, 128.568 235.677 C 129.998 239.691, 132.458 240.801, 134.941 238.553 C 137.401 236.327, 137.545 234.224, 135.443 231.223 C 133.511 228.463, 131.844 228.409, 129.473 231.030 M 97 236 C 94.731 238.269, 94.565 239.318, 96.035 242.066 C 97.192 244.228, 100.963 244.637, 102.800 242.800 C 104.347 241.253, 104.347 236.747, 102.800 235.200 C 101.071 233.471, 99.283 233.717, 97 236 M 216.655 235.829 C 213.536 239.275, 215.274 243, 220 243 C 223.144 243, 225 241.330, 225 238.500 C 225 234.081, 219.756 232.402, 216.655 235.829 M 186 240.346 C 181.384 241.315, 180.446 241.880, 180.165 243.865 C 179.981 245.166, 178.971 247.641, 177.919 249.365 C 176.868 251.089, 176.006 253.850, 176.005 255.500 L 176.003 258.500 177.752 255 C 179.046 252.409, 180.248 251.415, 182.382 251.171 C 185.081 250.863, 185.222 251.020, 184.600 253.671 C 183.374 258.902, 183.472 259.495, 185.615 259.801 C 187.298 260.042, 187.863 259.435, 188.385 256.823 C 188.746 255.018, 190.639 251.906, 192.592 249.906 C 195.765 246.656, 196.069 245.885, 195.459 242.635 C 194.701 238.592, 194.545 238.554, 186 240.346 M 140.035 241.934 C 137.796 246.118, 139.464 250, 143.500 250 C 146.330 250, 148 248.144, 148 245 C 148 243.570, 147.460 241.860, 146.800 241.200 C 144.963 239.363, 141.192 239.772, 140.035 241.934" stroke="none" fill="black" fill-rule="evenodd"/>
</svg>