<svg xmlns="http://www.w3.org/2000/svg" width="232" height="360" viewBox="0 0 232 360" version="1.1">
	<path d="M 48 8.567 C 33.424 11.723, 20.919 21.404, 16.373 33.050 C 12.460 43.073, 7.690 65.248, 8.179 71.141 C 9.354 85.312, 20.015 95.773, 39.250 101.631 L 44 103.077 44 107.990 C 44 113.401, 43.073 118.549, 39.424 133.419 C 38.026 139.116, 36.709 148.254, 36.330 154.890 C 35.739 165.229, 35.418 166.709, 33.269 168.972 C 27.492 175.057, 26.094 182.930, 29.881 188.053 C 31.046 189.629, 32.007 192.175, 32.016 193.710 C 32.039 197.602, 36.029 204.244, 39.281 205.805 C 40.776 206.522, 42 207.857, 42 208.771 C 42 210.948, 44.902 218.557, 47.467 223.106 C 52.309 231.693, 63.760 241.637, 74.280 246.389 C 77.458 247.825, 80.390 249, 80.794 249 C 81.684 249, 84.192 254.664, 87.026 263.078 C 88.919 268.697, 89.014 270.019, 87.985 276.408 C 86.987 282.606, 83.767 299.156, 82.274 305.761 C 81.955 307.172, 80.774 308.246, 79.131 308.619 C 62.012 312.509, 55 316.925, 55 323.815 C 55 326.956, 58.808 330.873, 62.543 331.574 C 65.340 332.099, 66 332.679, 66 334.611 C 66 339.709, 72.759 343.212, 78.553 341.117 C 82.552 339.671, 98.823 329.025, 101.334 326.211 C 102.617 324.774, 103.591 320.904, 104.577 313.328 C 106.118 301.483, 107.549 295.137, 112.024 280.295 C 115.069 270.197, 115.820 261.286, 114.025 256.565 C 113.488 255.154, 113.376 254.006, 113.775 254.013 C 114.174 254.019, 116.188 258.411, 118.250 263.772 C 121.587 272.444, 121.999 274.509, 121.992 282.509 C 121.988 287.454, 121.571 294.200, 121.065 297.500 C 120.560 300.800, 119.841 306.772, 119.469 310.772 L 118.793 318.043 110.425 322.094 C 100.230 327.028, 97 330.475, 97 336.422 C 97 339.391, 97.597 341.230, 98.959 342.463 C 101.362 344.638, 109.437 345.712, 111.364 344.113 C 112.472 343.193, 112.859 343.547, 113.331 345.907 C 114.057 349.533, 117.621 353, 120.623 353 C 125.935 353, 130.112 349.884, 136.039 341.500 C 142.368 332.548, 142.999 330.257, 143.008 316.216 C 143.015 304.348, 144.653 287.119, 146.878 275.500 C 147.869 270.329, 147.798 269.467, 145.376 257.119 C 144.580 253.060, 144.057 249.668, 144.214 249.581 C 144.371 249.495, 147.200 248.346, 150.500 247.028 C 163.199 241.955, 177.565 230.174, 181.748 221.402 L 183.267 218.216 188.384 220.598 C 200.007 226.010, 211 221.036, 211 210.365 C 211 207.032, 211.378 206, 212.599 206 C 215.720 206, 221.263 202.616, 223.114 199.580 C 225.974 194.890, 225.646 187.238, 222.378 182.390 C 220.936 180.250, 219.376 178.355, 218.911 178.178 C 218.447 178, 219.176 176.097, 220.533 173.948 C 227.341 163.162, 218.671 151, 204.174 151 C 199.108 151, 198.545 150.745, 195.135 146.902 C 191.745 143.082, 191.146 142.807, 186.311 142.844 C 178.507 142.905, 170.619 147.911, 165.865 155.820 C 164.648 157.844, 163.577 159.617, 163.484 159.759 C 163.391 159.901, 159.496 158.228, 154.828 156.041 C 143.368 150.670, 136.496 148.959, 123.668 148.281 C 111.082 147.616, 102.386 148.886, 90.227 153.163 L 81.953 156.073 77.477 154.093 L 73 152.112 73 146.050 C 73 137.144, 75.603 121.764, 78.847 111.509 L 81.691 102.517 90.464 98.009 C 106.850 89.587, 113 81.408, 113 68.038 C 113 64.239, 112.520 59.868, 111.934 58.325 C 111.347 56.782, 110.191 51.955, 109.364 47.597 C 106.965 34.952, 103.491 27.491, 96.960 20.960 C 85.211 9.211, 66.682 4.521, 48 8.567 M 50.780 17.030 C 44.950 18.013, 36.340 21.921, 32.982 25.109 C 27.128 30.666, 25.269 34.527, 21.473 49 C 16.893 66.465, 16.443 69.781, 18.007 74.521 C 20.646 82.517, 27.567 87.829, 41.494 92.547 C 48.325 94.861, 50.786 96.183, 51.729 98.047 C 53.432 101.411, 53.314 113.820, 51.503 121.857 C 50.680 125.511, 48.880 133.374, 47.503 139.330 C 43.572 156.338, 44.514 168.660, 50.208 174.722 C 52.684 177.357, 54.978 177.580, 58.872 175.566 C 64.370 172.723, 64.449 172.368, 64.534 150.123 C 64.618 128.233, 65.309 123.305, 70.550 107.249 C 73.838 97.178, 75.204 95.266, 80.814 92.886 C 89.644 89.139, 93.504 86.828, 97.651 82.805 C 104.251 76.402, 105.439 68.787, 101.692 56.903 C 100.929 54.481, 99.751 49.603, 99.074 46.063 C 97.468 37.658, 94.151 31.273, 88.948 26.572 C 79.559 18.090, 65.441 14.560, 50.780 17.030 M 29 46.273 C 27.625 46.956, 25.692 49.165, 24.704 51.181 C 23.082 54.493, 23.049 55.183, 24.370 58.343 C 26.596 63.670, 32.110 65.590, 37.316 62.850 C 40.347 61.255, 40.967 60.062, 40.985 55.797 C 41.006 50.580, 39.217 47.271, 35.713 46.050 C 32 44.755, 32.055 44.754, 29 46.273 M 78.051 48.662 C 76.899 50.127, 75.690 52.386, 75.365 53.682 C 74.631 56.606, 76.670 61.753, 79.071 63.038 C 81.778 64.487, 87.278 64.194, 89.739 62.471 C 92.148 60.783, 94.213 54.798, 93.291 52.175 C 90.994 45.643, 82.048 43.581, 78.051 48.662 M 32 51.378 C 32 53.810, 34.568 55.225, 35.953 53.556 C 36.624 52.748, 36.882 51.618, 36.527 51.044 C 35.578 49.508, 32 49.772, 32 51.378 M 84.169 52.161 C 84.351 53.447, 85.175 54.500, 86 54.500 C 88.169 54.500, 87.870 50.599, 85.669 50.175 C 84.249 49.901, 83.912 50.347, 84.169 52.161 M 56.500 56.516 C 55.950 56.686, 54.236 57.105, 52.691 57.446 C 51.146 57.788, 47.996 59.791, 45.691 61.898 C 43.386 64.004, 39.401 66.647, 36.836 67.770 C 31.104 70.279, 29.356 73.030, 30.988 76.972 C 32.184 79.858, 33.555 80.706, 45.705 86.073 C 54.046 89.756, 60.269 89.805, 68 86.246 C 70.475 85.107, 74.199 83.647, 76.275 83.001 C 87.976 79.365, 89.313 70.600, 78.641 67.498 C 75.417 66.561, 72.185 64.749, 70.415 62.888 C 66.353 58.615, 59.648 55.545, 56.500 56.516 M 53.450 62.957 C 52.322 63.414, 50.162 65.410, 48.650 67.392 C 46.668 69.991, 44.656 71.310, 41.434 72.121 C 38.976 72.740, 36.758 73.582, 36.504 73.993 C 36.250 74.405, 40.645 76.657, 46.271 78.999 L 56.500 83.256 63 81.020 C 81.622 74.613, 81.987 74.328, 74.343 72.156 C 71.866 71.453, 68.982 69.605, 67.209 67.585 C 62.470 62.187, 58.580 60.879, 53.450 62.957 M 52.250 66.706 C 51.013 66.944, 50 67.721, 50 68.432 C 50 69.397, 51.963 69.667, 57.750 69.498 C 67.150 69.223, 66.955 69.281, 64.559 67.468 C 62.726 66.082, 57.250 65.743, 52.250 66.706 M 183.083 152.443 C 179.647 153.629, 174.943 158.326, 171.819 163.689 L 170.138 166.574 175.577 173 C 182.535 181.220, 185.154 187.971, 185.769 199.270 C 186.209 207.342, 186.455 208.186, 188.873 209.884 C 193.523 213.149, 198.632 214.550, 200.434 213.055 C 202.904 211.005, 202.288 207.644, 198.409 202.004 C 194.196 195.879, 194.776 194.289, 200.630 195.914 C 205.795 197.349, 213.312 197.288, 214.800 195.800 C 215.460 195.140, 216 193.305, 216 191.723 C 216 187.666, 211.421 183.472, 204.898 181.556 C 195.653 178.839, 194.759 176.965, 201.792 175.039 C 207.075 173.593, 211.852 170.420, 213.200 167.460 C 214.198 165.270, 214.052 164.607, 212.149 162.708 C 208.991 159.553, 197.366 159.598, 191.290 162.789 C 187.350 164.858, 183 165.719, 183 164.430 C 183 164.117, 184.273 161.979, 185.830 159.680 C 190.146 153.305, 190.190 153.170, 188.278 152.182 C 187.143 151.596, 185.264 151.690, 183.083 152.443 M 102.727 158.565 C 99.552 159.335, 94.807 160.888, 92.182 162.017 C 87.680 163.954, 87.432 164.258, 87.799 167.403 C 88.025 169.343, 87.454 172.149, 86.430 174.118 C 85.290 176.311, 84.753 179.294, 84.902 182.606 C 85.109 187.207, 84.829 187.966, 82.071 190.287 C 80.388 191.703, 78.117 193.145, 77.025 193.492 C 75.933 193.839, 74.173 196.082, 73.113 198.477 C 70.412 204.584, 67.440 206.276, 60.287 205.780 C 57.104 205.560, 53.649 204.996, 52.608 204.528 C 50.887 203.754, 50.778 204.003, 51.396 207.296 C 53.468 218.341, 64.146 231.132, 76 236.768 C 91.517 244.146, 111.798 246.808, 128.020 243.595 C 137.097 241.797, 151.683 237.322, 152.436 236.103 C 152.687 235.697, 149.205 235.554, 144.696 235.787 C 129.297 236.581, 111.591 230.668, 100.986 221.189 C 92.892 213.955, 86.389 200.216, 90.341 198.700 C 92.285 197.953, 93.478 199.017, 95.485 203.289 C 98.399 209.491, 105.557 216.622, 112.201 219.942 C 118.756 223.218, 123.007 223.726, 126.991 221.710 C 130.424 219.973, 130.591 217.642, 127.569 213.679 C 122.902 207.561, 125.021 205.169, 132.017 208.658 C 136.136 210.713, 143.138 210.960, 145.346 209.128 C 148.291 206.684, 147.329 203.375, 142.500 199.338 C 140.025 197.269, 138 194.997, 138 194.288 C 138 192.669, 143.511 192.585, 147.958 194.135 C 151.715 195.445, 152.959 194.362, 152.985 189.760 C 153.015 184.307, 141.253 178.209, 127.243 176.414 C 123.764 175.968, 118.803 176.339, 112.580 177.511 C 102.667 179.377, 98.434 179.045, 101.072 176.608 C 104.530 173.416, 111.632 171.690, 123.220 171.226 C 133.614 170.809, 135.765 171.024, 142.220 173.126 C 155.091 177.317, 166 186.336, 166 192.786 C 166 194.301, 167.566 196.975, 170 199.616 C 173.370 203.272, 174 204.631, 174 208.243 C 174 210.602, 173.178 214.064, 172.173 215.938 C 170.273 219.480, 164.423 223.373, 162.250 222.541 C 161.499 222.254, 161 222.887, 161 224.127 C 161 227.149, 158.037 231.662, 155.206 232.952 C 153.850 233.570, 152.983 234.316, 153.278 234.611 C 155.354 236.687, 171.056 222.357, 174.769 214.998 C 179.556 205.510, 179.452 194.458, 174.482 184.500 C 169.320 174.159, 150.987 162.032, 135.303 158.583 C 126.543 156.657, 110.641 156.648, 102.727 158.565 M 72.958 165.658 C 72.906 170.424, 70.584 174.758, 65.908 178.813 C 61.470 182.663, 58.078 184, 52.747 184 C 48.137 184, 43.160 181.148, 40.702 177.098 L 39.171 174.574 37.383 178.322 L 35.596 182.070 38.378 184.649 C 40.436 186.558, 41.008 187.834, 40.575 189.557 C 39.850 192.446, 41.727 196.779, 44.020 197.506 C 44.964 197.806, 47.002 197.569, 48.550 196.981 C 50.824 196.116, 52.277 196.303, 56.110 197.952 C 62.806 200.832, 67.393 198.751, 68.607 192.283 C 68.962 190.389, 69.758 188.689, 70.376 188.504 C 70.994 188.319, 72.725 187.899, 74.221 187.572 C 78.458 186.645, 79.563 183.574, 77.391 178.759 C 75.595 174.775, 75.597 174.745, 77.862 172.910 C 81.143 170.254, 80.421 166.133, 76.250 163.707 L 73 161.816 72.958 165.658 M 158.015 193.250 C 158.007 194.762, 158.450 196, 159 196 C 160.264 196, 160.264 193.957, 159 192 C 158.245 190.831, 158.027 191.107, 158.015 193.250 M 155.500 200.850 C 153.968 201.348, 153.423 202.554, 153.171 206 C 152.916 209.482, 152.102 211.254, 149.571 213.833 C 146.805 216.652, 145.591 217.167, 141.711 217.167 C 137.493 217.167, 137.072 217.394, 136.504 219.980 C 136.165 221.527, 135.002 223.594, 133.920 224.573 C 132.413 225.936, 132.251 226.542, 133.226 227.161 C 134.708 228.101, 151.082 228.289, 153.418 227.393 C 155.683 226.524, 155.375 224.180, 152.500 220.411 C 148.822 215.589, 149.227 214.973, 155.977 215.125 C 166.875 215.372, 170.302 210.102, 163.600 203.400 C 160.177 199.977, 159.165 199.658, 155.500 200.850 M 128.846 252.209 C 124.407 253.136, 124.229 253.305, 124.988 255.841 C 125.426 257.303, 126.954 260.975, 128.383 264 C 130.642 268.784, 130.979 270.801, 130.972 279.500 C 130.961 294.143, 127.879 321.236, 125.963 323.545 C 125.273 324.376, 120.724 327.114, 115.854 329.630 C 110.984 332.145, 107 334.607, 107 335.101 C 107 336.571, 108.688 336.161, 115.660 333 C 119.299 331.350, 122.904 330, 123.670 330 C 126.145 330, 126.280 332.922, 124.045 338.117 C 122.844 340.909, 122.061 343.395, 122.306 343.639 C 122.958 344.292, 127.604 338.531, 130.755 333.162 C 133.316 328.798, 133.531 327.508, 134.120 313 C 134.466 304.475, 135.566 291.299, 136.564 283.720 L 138.379 269.940 136.096 260.470 C 134.841 255.261, 133.743 251.053, 133.657 251.118 C 133.570 251.183, 131.406 251.674, 128.846 252.209 M 95.704 259.146 C 98.754 268.126, 98.528 272.064, 93.555 296.500 C 90.907 309.510, 89.628 313.879, 88.106 315.113 C 87.011 316.001, 81.702 317.734, 76.308 318.966 C 66.242 321.263, 60.902 323.791, 68.500 322.661 C 80.052 320.944, 84 320.751, 84 321.905 C 84 322.554, 81.913 325.316, 79.363 328.043 C 76.813 330.769, 75.056 333, 75.458 333 C 77.225 333, 92.827 321.671, 93.786 319.692 C 94.370 318.487, 95.557 312.696, 96.422 306.824 C 97.288 300.952, 99.427 290.827, 101.175 284.324 C 102.923 277.821, 104.536 269.983, 104.758 266.907 C 105.288 259.573, 103.552 253, 101.086 253 C 100.076 253, 97.890 252.728, 96.228 252.396 L 93.206 251.791 95.704 259.146" stroke="none" fill="black" fill-rule="evenodd"/>
</svg>