<svg xmlns="http://www.w3.org/2000/svg" width="316" height="250" viewBox="0 0 316 250" version="1.1">
	<path d="M 152.253 8.570 C 140.562 11.132, 128.129 18.331, 122.369 25.875 L 118.844 30.491 105.672 30.158 C 90.905 29.785, 82.444 31.221, 73.901 35.550 C 68.009 38.536, 60.487 45.158, 58.398 49.198 C 57.601 50.739, 56.148 52, 55.168 52 C 54.189 52, 50.502 52.975, 46.974 54.166 C 40.042 56.507, 31.423 63.466, 30.398 67.548 C 29.986 69.194, 28.602 70.120, 25.168 71.050 C 18.004 72.990, 13.492 75.579, 10.097 79.699 C 7.476 82.878, 7 84.290, 7 88.883 C 7 93.914, 7.292 94.587, 11.002 98.117 C 16.557 103.401, 22.774 105.104, 38.500 105.650 C 45.650 105.899, 52.481 106.305, 53.681 106.552 C 55.074 106.840, 56.699 108.719, 58.181 111.752 C 59.456 114.363, 63.894 119.922, 68.043 124.104 C 74.322 130.433, 77.255 132.507, 85.543 136.474 C 112.174 149.223, 111.669 148.920, 118.959 156.594 C 124.493 162.420, 127.091 166.296, 131.448 175.225 C 136.426 185.429, 137.105 187.639, 138.602 198.500 C 140.111 209.453, 140.121 211.532, 138.722 222.322 C 137.879 228.825, 136.881 234.450, 136.506 234.822 C 136.130 235.195, 120.225 235.371, 101.161 235.214 C 74.386 234.993, 65.949 235.221, 64.079 236.214 C 61.012 237.843, 60.613 239.088, 62.381 241.507 C 63.751 243.380, 66.307 243.440, 156.645 243.709 C 230.087 243.928, 250.023 243.721, 252 242.718 C 254.734 241.331, 255.928 237.269, 253.820 236.526 C 253.094 236.270, 235.085 235.935, 213.799 235.781 C 189.710 235.606, 174.725 235.122, 174.109 234.500 C 172.323 232.696, 171.227 210.789, 172.463 201.578 C 173.813 191.506, 179.437 179.199, 189.794 163.650 C 197.433 152.183, 200.118 150.175, 214.120 145.459 C 226.473 141.300, 236.795 135.889, 242.968 130.339 L 247.794 126 261.325 126 C 276.008 126, 288.566 124.626, 293.775 122.450 C 298.294 120.561, 300.457 115.411, 299.002 110.006 C 298.421 107.849, 297.508 105.814, 296.973 105.483 C 295.285 104.440, 295.912 103.239, 298.482 102.594 C 302.658 101.546, 307.873 96.185, 309.081 91.698 C 311.027 84.472, 307.075 76.212, 299.870 72.447 C 298.423 71.691, 296.308 69.286, 295.170 67.101 C 294.031 64.917, 292.065 61.916, 290.800 60.431 C 287.860 56.981, 279.853 53.203, 273.735 52.380 C 269.572 51.819, 268.767 51.312, 267.368 48.362 C 264.964 43.297, 255.802 35.461, 249.247 32.865 C 244.807 31.107, 241.296 30.556, 233.809 30.445 L 224.118 30.300 217.825 24.065 C 210.016 16.329, 198.531 10.463, 187.257 8.453 C 177.523 6.717, 160.446 6.774, 152.253 8.570 M 160.500 15.629 C 147.119 17.708, 135.536 23.815, 128.028 32.749 L 122.557 39.259 111.070 38.752 C 96.810 38.123, 86.078 39.382, 79.280 42.482 C 73.918 44.927, 65 53.100, 65 55.569 C 65 57.596, 61.228 59.650, 55.217 60.897 C 46.740 62.656, 42.458 65.391, 38.267 71.724 C 34.705 77.107, 34.115 77.537, 27.807 79.341 C 9.782 84.495, 11.327 93.894, 30.692 96.888 C 45.878 99.236, 81.144 97.613, 92.069 94.063 C 97.076 92.436, 101.167 90.176, 107.670 85.442 C 109.604 84.034, 111.809 83.992, 128.018 85.056 C 138.017 85.712, 150.990 86.043, 156.849 85.790 C 165.985 85.397, 168.567 84.878, 175 82.140 C 179.125 80.384, 185.062 78.673, 188.194 78.337 L 193.889 77.727 200.194 83.773 C 206.687 89.999, 212.597 92.804, 223.880 95.014 C 228.124 95.845, 229.104 95.617, 235.909 92.209 C 242.799 88.759, 243.918 88.506, 251.909 88.579 C 259.414 88.648, 261.448 89.083, 268 92.024 C 274.797 95.075, 276.406 95.396, 285.173 95.445 C 293.487 95.492, 295.244 95.205, 297.673 93.401 C 303.363 89.177, 301.396 82.667, 293.251 78.762 C 289.541 76.983, 288.406 75.854, 287.940 73.479 C 286.495 66.125, 280.326 61.587, 270.218 60.445 C 265.194 59.877, 263.542 59.233, 261.968 57.232 C 260.886 55.856, 260 54.197, 260 53.545 C 260 51.188, 252.948 44.194, 248.277 41.919 C 244.212 39.939, 241.786 39.567, 232 39.422 L 220.500 39.251 214 32.720 C 205.795 24.476, 201.491 21.755, 191.557 18.533 C 183.675 15.977, 167.809 14.494, 160.500 15.629 M 184.250 87.662 C 183.563 87.940, 183 89.198, 183 90.458 C 183 91.718, 182.322 94.718, 181.494 97.124 C 178.074 107.065, 174.729 112.008, 165.143 121.285 C 159.839 126.418, 154.691 131.829, 153.703 133.309 C 149.352 139.826, 144.752 133.863, 144.591 121.500 C 144.508 115.128, 144.827 113.962, 148.150 108.500 C 152.358 101.582, 155.260 95, 154.101 95 C 153.662 95, 152.448 96.899, 151.402 99.220 C 145.678 111.919, 139.006 112.030, 135.994 99.477 C 135.272 96.465, 134.334 94, 133.910 94 C 133.486 94, 133.562 95.463, 134.078 97.250 C 134.595 99.037, 135.890 105.675, 136.957 112 C 138.024 118.325, 140.732 129.350, 142.973 136.500 C 147.069 149.566, 149.253 160.076, 149.413 167.500 C 149.485 170.813, 149.146 171.551, 147.437 171.795 C 145.768 172.034, 144.356 170.290, 140.041 162.664 C 137.107 157.480, 132.063 150.147, 128.832 146.369 C 118.854 134.702, 116.416 130.323, 112.690 117.381 C 109.375 105.866, 105.400 96.267, 104.372 97.295 C 104.103 97.564, 105.727 103.202, 107.981 109.824 C 112.923 124.347, 114.080 131.648, 111.589 132.604 C 107.784 134.064, 86.310 124.863, 78.255 118.321 C 75.920 116.425, 72.635 112.877, 70.956 110.437 C 67.016 104.709, 64.055 104.228, 66.885 109.775 C 70.900 117.645, 83.592 127.055, 98 132.844 C 117.600 140.720, 124.239 145.975, 134.320 161.597 C 144.377 177.183, 148.715 195.002, 147.566 216 C 147.219 222.325, 146.676 229.188, 146.358 231.250 L 145.781 235 155.496 235 L 165.210 235 164.579 230.750 C 162.954 219.818, 162.860 204.376, 164.374 197.198 C 167.494 182.404, 179.590 159.428, 189.500 149.472 C 194.204 144.747, 197.012 142.872, 202.500 140.796 C 223.468 132.862, 228.861 130.540, 232.447 127.903 C 237.077 124.498, 234.734 123.765, 229.520 126.988 C 219.449 133.212, 204.169 136.054, 202.051 132.096 C 200.805 129.766, 203.745 117.421, 207.500 109.219 C 209.934 103.903, 210.770 99, 209.244 99 C 208.342 99, 206.729 102.829, 205.032 109 C 201.998 120.036, 194.711 133.893, 187.155 143 C 178.573 153.343, 168.899 167.291, 166.438 172.867 C 164.497 177.268, 161.778 178.891, 159.506 177.005 C 157.004 174.929, 155.774 165.957, 156.144 152.485 C 156.467 140.717, 156.760 138.971, 159.270 133.859 C 160.992 130.352, 165.190 125.026, 170.368 119.778 C 179.621 110.399, 183.562 103.491, 185.502 93.250 C 186.154 89.813, 186.420 87.036, 186.093 87.079 C 185.767 87.122, 184.938 87.385, 184.250 87.662 M 194.072 95.806 C 193.447 98.388, 191.497 104.040, 189.738 108.366 C 186.876 115.406, 185.504 117.251, 176.668 125.940 C 165.675 136.749, 165.124 137.961, 165.047 151.500 L 165.007 158.500 167.122 155 C 168.284 153.075, 172.926 146.775, 177.436 141 C 188.006 127.466, 190.945 122.129, 195.886 107.500 L 199.939 95.500 197.574 93.306 L 195.209 91.113 194.072 95.806 M 114.021 93.500 C 114.034 94.050, 114.849 96.300, 115.833 98.500 C 116.816 100.700, 118.411 105.200, 119.377 108.500 C 123.096 121.213, 125.294 126.685, 128.725 131.777 C 130.680 134.679, 132.484 136.850, 132.733 136.601 C 132.981 136.352, 132.495 133.752, 131.652 130.824 C 130.809 127.896, 129.410 121.225, 128.542 116 C 127.051 107.025, 125.381 98.542, 124.375 94.844 C 124.051 93.651, 122.538 93.092, 118.962 92.844 C 116.081 92.644, 114.008 92.920, 114.021 93.500 M 168.303 93.326 C 165.773 94.255, 164.379 95.960, 161.617 101.500 C 156.892 110.979, 153.942 118, 154.683 118 C 155.019 118, 157.251 116.397, 159.642 114.437 C 164.868 110.155, 169.648 103.432, 172.151 96.844 C 174.164 91.547, 173.873 91.281, 168.303 93.326 M 142 96.500 C 142 97.325, 142.177 98, 142.393 98 C 142.609 98, 143.045 97.325, 143.362 96.500 C 143.678 95.675, 143.501 95, 142.969 95 C 142.436 95, 142 95.675, 142 96.500 M 241.452 97.821 C 239.225 98.866, 236.138 100.895, 234.590 102.329 C 233.043 103.763, 230.815 105.228, 229.639 105.584 C 226.478 106.542, 221 110.898, 221 112.453 C 221 114.567, 226.335 115.924, 239.425 117.137 C 252.729 118.370, 280.285 117.696, 286.214 115.993 C 290.989 114.621, 291.502 113.659, 289.378 110.063 C 287.297 106.539, 283.341 104.427, 276.228 103.040 C 273.329 102.474, 268.604 100.811, 265.728 99.342 C 258.678 95.742, 247.385 95.035, 241.452 97.821 M 92.195 103.182 C 90.377 103.679, 86.327 104.412, 83.195 104.811 L 77.500 105.536 82.500 110.436 C 87.374 115.211, 98.788 121.429, 101.535 120.804 C 102.565 120.570, 102.208 118.564, 99.985 112.098 C 98.396 107.477, 96.737 103.377, 96.298 102.987 C 95.859 102.597, 94.013 102.685, 92.195 103.182 M 211.879 123.227 C 210.941 124.979, 211.079 125.113, 213.164 124.474 C 217.703 123.083, 218.398 122.309, 215.589 121.772 C 213.634 121.399, 212.651 121.784, 211.879 123.227" stroke="none" fill="black" fill-rule="evenodd"/>
</svg>