<svg xmlns="http://www.w3.org/2000/svg" width="322" height="334" viewBox="0 0 322 334" version="1.1">
	<path d="M 63.367 8.338 C 56.459 9.778, 52 12.259, 52 14.662 C 52 15.550, 53.792 20.014, 55.982 24.581 C 59.251 31.399, 61.847 38.980, 61.976 42.089 C 61.989 42.414, 60.942 43.161, 59.650 43.750 C 57.428 44.762, 57.130 44.457, 54.200 38.160 C 48.361 25.612, 34.011 14.384, 21.294 12.411 C 17.535 11.828, 16.774 12.072, 14.138 14.708 C 10.380 18.466, 8.993 23.210, 8.293 34.692 C 7.378 49.727, 11.326 60.676, 21.037 70.035 C 26.500 75.298, 26.717 75.693, 25.463 78.086 C 22.572 83.603, 15.998 105.252, 13.489 117.516 C 11.193 128.738, 10.896 132.196, 11.304 143 C 11.844 157.330, 14.086 165.033, 20.551 174.780 C 29.569 188.375, 41.359 196.159, 58.848 200.064 L 68.697 202.263 69.817 212.382 C 70.433 217.947, 71.847 225.949, 72.959 230.164 C 75.072 238.167, 75.505 244.150, 76.896 284.543 C 77.860 312.544, 78.763 316.171, 85.615 319.572 C 91.073 322.281, 103.005 322.238, 108.495 319.489 L 112.489 317.489 116.086 321.086 C 120.202 325.202, 125.861 327, 134.699 327 C 144.724 327, 150.791 324.051, 153.213 318 C 154.981 313.582, 156.791 303.658, 157.960 291.963 C 158.586 285.696, 159.338 280.328, 159.630 280.034 C 160.206 279.455, 182.947 278.611, 183.083 279.164 C 183.128 279.349, 183.485 286.787, 183.876 295.693 C 184.493 309.748, 184.844 312.171, 186.541 314.045 C 190.413 318.323, 193.549 319.167, 204.566 318.893 C 213.040 318.682, 215.272 318.936, 216.756 320.279 C 221.912 324.945, 236.737 326.679, 244.335 323.505 C 254.657 319.192, 256.824 311.958, 257.963 278 C 258.432 264.014, 259.432 250.654, 260.433 245 C 262.444 233.640, 262.534 221.447, 260.660 214.250 C 259.908 211.363, 259.443 209, 259.626 209 C 260.584 209, 264.033 217.473, 265.935 224.500 C 268.385 233.548, 269.489 236.224, 272.537 240.500 C 273.713 242.150, 275.491 245.654, 276.488 248.287 C 277.485 250.921, 279.603 254.171, 281.196 255.511 C 291.379 264.080, 310.688 258.617, 315.535 245.794 C 316.386 243.543, 311.857 239, 308.762 239 C 307.481 239, 304.014 237.442, 301.058 235.538 C 294.357 231.220, 288.754 230.240, 283.446 232.458 C 278.548 234.505, 278.235 234.142, 275.152 222.856 C 271.457 209.331, 268.852 204.627, 262.799 200.551 C 259.899 198.598, 256.997 197, 256.350 197 C 255.703 197, 253.897 195.277, 252.337 193.171 C 242.407 179.769, 227.473 173.117, 205.383 172.258 L 192.265 171.748 184.634 165.327 C 180.437 161.795, 176.348 157.641, 175.549 156.095 C 170.973 147.245, 168.527 135.166, 167.531 116.500 C 166.763 102.106, 165.147 90.156, 162.797 81.500 C 161.752 77.650, 160.537 73.123, 160.097 71.440 C 159.657 69.758, 158.184 66.158, 156.824 63.440 L 154.352 58.500 156.345 53 C 160.682 41.032, 158.368 21.828, 151.732 14.716 C 149.240 12.046, 148.542 11.815, 144.732 12.397 C 140.458 13.050, 128.816 18.145, 125.944 20.619 C 124.612 21.766, 123.242 21.287, 116.444 17.301 C 104.543 10.322, 95.929 7.890, 81.500 7.437 C 74.124 7.205, 67.137 7.552, 63.367 8.338 M 67.250 16.723 C 63.385 17.203, 63.278 18.060, 66.330 24.076 C 67.608 26.593, 69.513 31.656, 70.564 35.326 L 72.475 42 79.010 42 L 85.545 42 84.932 35.250 C 84.262 27.872, 84.430 27, 86.520 27 C 87.992 27, 91 35.536, 91 39.713 C 91 42.101, 91.377 42.368, 96.250 43.436 C 98.732 43.979, 99.001 43.768, 99.006 41.269 C 99.014 36.855, 100.972 31, 102.440 31 C 104.342 31, 105 33.296, 105 39.927 C 105 44.305, 105.454 46.100, 106.887 47.397 C 108.707 49.045, 108.847 48.862, 110.867 42.213 C 112.018 38.422, 113.919 34.101, 115.091 32.611 C 117.088 30.073, 117.117 29.787, 115.555 28.061 C 112.940 25.171, 101.932 20.157, 93.432 17.983 C 86.148 16.120, 76.034 15.633, 67.250 16.723 M 19.116 25.098 C 18.522 26.802, 17.741 31.068, 17.382 34.577 C 16.034 47.729, 22.235 60.337, 33.639 67.632 L 38.897 70.996 35.766 77.687 C 34.044 81.367, 33.084 84.528, 33.634 84.711 C 35.999 85.500, 47.432 93.612, 47.782 94.750 C 48.072 95.693, 45.696 96, 38.122 96 L 28.077 96 26.539 101.182 C 24.291 108.749, 24.471 109.516, 28.739 110.574 C 34.605 112.027, 34.229 114.548, 27.699 117.538 C 23.183 119.605, 22.136 120.571, 21.621 123.143 C 20.351 129.494, 20.531 129.754, 25.657 128.976 C 30.920 128.177, 34.010 128.694, 33.978 130.367 C 33.967 130.990, 31.487 133.269, 28.469 135.432 C 19.976 141.516, 19.772 141.864, 20.567 148.891 L 21.257 154.989 25.084 150.642 C 29.729 145.365, 39.795 139.905, 50.545 136.832 C 61.368 133.738, 86.518 133.500, 98 136.383 C 113.056 140.162, 125.353 147.711, 132.398 157.498 C 133.189 158.598, 134.017 159.273, 134.239 158.998 C 134.876 158.208, 138 147.897, 138 146.581 C 138 144.898, 132.490 139.935, 125.750 135.548 C 122.588 133.490, 120 131.447, 120 131.010 C 120 128.648, 127.625 128.376, 134.591 130.489 C 137.291 131.308, 139.613 131.983, 139.750 131.989 C 139.887 131.995, 140 130.286, 140 128.191 C 140 123.295, 138.547 121.522, 133 119.651 C 123.358 116.397, 122 115.761, 122 114.496 C 122 112.890, 130.148 110, 134.678 110 C 138.442 110, 138.543 109.631, 136.889 101.920 L 135.779 96.742 124.389 97.443 C 117.116 97.891, 113 97.789, 113 97.161 C 113 95.491, 119.119 90.923, 125.712 87.671 C 129.170 85.966, 132 84.170, 132 83.681 C 132 83.191, 130.875 80.551, 129.500 77.813 C 128.125 75.076, 127 72.642, 127 72.405 C 127 72.169, 129.362 70.450, 132.250 68.587 C 143.389 61.398, 148.036 53.623, 148.789 40.915 C 149.252 33.090, 147.002 22, 144.950 22 C 144.403 22, 141.062 23.312, 137.525 24.916 C 125.081 30.558, 117.786 40.094, 116.211 52.777 C 115.558 58.034, 115.281 58.525, 112.812 58.810 C 110.589 59.067, 108.709 61.299, 101.939 71.715 C 95.178 82.118, 93.585 84.010, 92.787 82.583 C 91.473 80.235, 92.717 70.282, 95.549 60.500 C 96.822 56.100, 97.557 52.193, 97.182 51.818 C 96.807 51.443, 95.191 50.993, 93.590 50.818 C 90.769 50.510, 90.591 50.760, 87.763 59 C 86.158 63.675, 83.495 73.332, 81.845 80.461 C 80.195 87.589, 78.370 94.308, 77.791 95.391 C 76.780 97.280, 76.683 97.286, 75.412 95.549 C 72.918 92.137, 71.630 82.494, 71.565 66.743 C 71.512 53.987, 71.244 51.083, 70.157 51.497 C 69.419 51.778, 67.731 52.280, 66.407 52.613 C 63.696 53.293, 63.585 54.077, 63.530 72.903 C 63.511 79.412, 63.097 83.446, 62.423 83.679 C 60.043 84.502, 53 67.415, 53 60.818 C 53 57.808, 52.118 57.282, 50.233 59.167 C 48.765 60.635, 48.378 59.546, 47.561 51.633 C 46.635 42.664, 43.577 36.690, 36.751 30.513 C 31.769 26.004, 24.322 22, 20.920 22 C 20.521 22, 19.710 23.394, 19.116 25.098 M 24.557 35.223 C 22.574 38.053, 22.559 45.350, 24.524 51.117 C 26.402 56.627, 33.933 65.432, 37.974 66.841 C 40.347 67.668, 41.288 67.569, 42.492 66.365 C 46.412 62.445, 46.471 61.072, 43.225 49.500 C 41.915 44.832, 40.414 42.335, 36.464 38.250 C 30.755 32.346, 27.204 31.444, 24.557 35.223 M 132.229 35.002 C 126.314 38.608, 120 51.293, 120 59.571 C 120 61.335, 120.813 63.783, 121.808 65.011 C 123.294 66.846, 124.197 67.116, 126.882 66.526 C 134.365 64.882, 141.818 54.303, 142.707 44.063 C 143.617 33.575, 139.876 30.340, 132.229 35.002 M 28.540 39.935 C 27.583 41.483, 29.951 50.223, 32.515 54.608 C 34.691 58.328, 39.612 62.722, 40.550 61.783 C 41.514 60.819, 36.428 47.038, 33.710 43.250 C 30.609 38.928, 29.573 38.264, 28.540 39.935 M 132.449 42.242 C 127.699 47.888, 122.721 62, 125.479 62 C 127.969 62, 134.847 53.253, 136.358 48.166 C 137.798 43.317, 137.616 39, 135.972 39 C 135.535 39, 133.950 40.459, 132.449 42.242 M 142.688 71.341 L 137.877 75.560 140.420 83.351 C 144.484 95.800, 148 119.977, 148 135.468 C 148 142.093, 148.479 144.084, 151.918 151.758 C 154.073 156.566, 157.531 162.472, 159.602 164.881 C 163.719 169.671, 171.765 173.993, 176.500 173.959 L 179.500 173.937 176.683 171.836 C 173.476 169.445, 164 156.375, 164 154.343 C 164 153.470, 162.751 153, 160.427 153 C 157.582 153, 156.921 152.648, 157.186 151.275 C 157.368 150.326, 158.435 149.089, 159.557 148.525 C 161.348 147.625, 161.489 147.013, 160.717 143.500 C 160.234 141.300, 159.537 136.353, 159.169 132.508 C 158.525 125.777, 158.392 125.497, 155.607 125.008 C 151.553 124.296, 149.875 121.347, 152.441 119.441 C 153.509 118.649, 155.196 118, 156.191 118 C 158.160 118, 158.571 114.087, 157.367 106.802 C 156.787 103.299, 156.536 103.087, 152.628 102.802 C 149.267 102.556, 148.500 102.128, 148.500 100.500 C 148.500 99.101, 149.539 98.164, 151.956 97.383 C 153.856 96.769, 155.552 95.845, 155.723 95.330 C 156.203 93.890, 151.400 75.724, 149.335 71.169 L 147.500 67.122 142.688 71.341 M 43.315 108.464 C 34.918 112.116, 35.052 126.035, 43.519 129.572 C 49.935 132.253, 56 127.269, 56 119.315 C 56 113.491, 53.809 109.478, 49.881 108.108 C 48.132 107.499, 46.656 107.018, 46.601 107.039 C 46.545 107.061, 45.067 107.702, 43.315 108.464 M 100.661 110.612 C 93.818 117.455, 97.865 131, 106.753 131 C 111.559 131, 113.530 129.631, 115.380 125.009 C 117.416 119.919, 117.413 117.934, 115.361 113.631 C 112.481 107.591, 105.181 106.092, 100.661 110.612 M 47.378 113.457 C 46.481 115.795, 47.777 118.190, 49.735 117.812 C 52.267 117.325, 52.462 114.318, 50.045 113.024 C 48.390 112.138, 47.851 112.226, 47.378 113.457 M 106.357 114.513 C 105.675 116.290, 107.647 119, 109.622 119 C 110.486 119, 111 117.881, 111 116 C 111 113.651, 110.559 113, 108.969 113 C 107.851 113, 106.676 113.681, 106.357 114.513 M 56.746 140.515 C 42.893 143.138, 29.608 151.056, 25.398 159.198 C 24.113 161.681, 24.136 162.370, 25.592 165.250 C 31.325 176.586, 42.871 186.041, 56 190.152 C 62.534 192.197, 65.433 192.491, 78.500 192.431 C 91.976 192.368, 94.235 192.100, 100.733 189.786 C 113.219 185.339, 122.235 178.889, 127.884 170.361 L 130.965 165.710 128.749 161.767 C 123.943 153.215, 113.127 146.051, 98.829 141.947 C 89.082 139.150, 67.784 138.425, 56.746 140.515 M 53.462 151.120 C 52.204 155.084, 58.518 160.882, 61.187 158.213 C 61.820 157.580, 61.425 155.794, 60.061 153.119 C 57.728 148.546, 54.581 147.593, 53.462 151.120 M 92.229 149.669 C 90.421 150.397, 87.752 155.913, 88.396 157.590 C 88.694 158.366, 89.782 159, 90.814 159 C 94.306 159, 97.938 152.835, 95.895 150.373 C 94.693 148.925, 94.277 148.845, 92.229 149.669 M 141.422 162.197 C 138.186 170.238, 132.406 178.645, 126.413 184.028 C 117.379 192.143, 99.219 199.646, 85.666 200.862 L 78.563 201.500 78.858 206.500 C 79.021 209.250, 79.457 211.794, 79.827 212.154 C 81.046 213.337, 96.294 208.829, 102.869 205.341 C 109.500 201.823, 111.782 201.962, 110.561 205.809 C 109.547 209.004, 96.029 221.166, 89.229 225 C 83.364 228.308, 83.057 228.665, 83.636 231.500 C 85.568 240.966, 97.058 255.537, 106.750 260.814 L 111 263.128 111 258.186 C 111 250.182, 115.986 248.542, 117.436 256.069 C 117.746 257.681, 118.246 260.283, 118.547 261.851 C 119.028 264.359, 119.721 264.834, 124.297 265.794 C 127.159 266.395, 132.336 267.184, 135.803 267.547 C 140.906 268.083, 142.049 268.522, 141.803 269.854 C 141.371 272.200, 132.656 276.077, 126.354 276.727 L 121 277.280 121 288.069 L 121 298.858 126.750 300.054 C 130.701 300.876, 134.846 300.976, 140 300.375 C 147.377 299.514, 147.505 299.451, 147.794 296.500 C 148.076 293.616, 147.918 293.489, 143.732 293.223 C 137.018 292.795, 126.836 289.705, 125.604 287.722 C 123.957 285.068, 125.842 284.365, 136.329 283.723 C 141.373 283.414, 146.260 282.863, 147.188 282.497 C 148.365 282.035, 149.084 280.116, 149.559 276.167 C 150.388 269.280, 152.424 264, 154.249 264 C 156.123 264, 158 266.062, 158 268.120 C 158 272.374, 183.285 271.371, 199.818 266.461 L 204.807 264.980 204.654 258.240 C 204.507 251.790, 204.601 251.500, 206.848 251.500 C 208.898 251.500, 209.504 252.473, 211.610 259.153 C 215.008 269.930, 215.977 270.849, 224.782 271.639 C 228.786 271.999, 232.321 272.710, 232.636 273.221 C 233.592 274.767, 228.891 278.930, 225.462 279.573 L 222.244 280.177 222.681 286.838 C 223.430 298.280, 222.917 297.630, 231.733 298.298 C 236.005 298.622, 241.300 298.569, 243.500 298.182 C 247.326 297.507, 247.513 297.300, 247.799 293.411 L 248.098 289.346 242.471 289.119 C 235.251 288.826, 232 287.580, 232 285.104 C 232 283.720, 232.937 282.957, 235.250 282.458 C 237.037 282.072, 240.750 280.922, 243.500 279.901 L 248.500 278.045 248.500 271.501 C 248.500 265.055, 248.462 264.964, 246 265.451 C 240.532 266.533, 229.012 266.412, 227.861 265.261 C 226.221 263.621, 227.937 261.781, 232.687 260.087 C 238.907 257.869, 247.687 251.170, 249.641 247.153 C 250.659 245.057, 251.590 240.366, 251.823 236.148 L 252.229 228.796 247.864 233.546 C 245.464 236.158, 241.944 238.949, 240.042 239.748 C 238.139 240.547, 234.853 242.682, 232.738 244.493 C 228.070 248.488, 221.173 250.614, 220.296 248.328 C 219.926 247.365, 221.508 245.274, 224.756 242.433 C 238.047 230.806, 249.669 208.356, 245.973 201.450 C 243.776 197.345, 238.090 191.291, 238.036 193 C 237.964 195.288, 232.383 212.304, 230.272 216.673 C 227.527 222.354, 220.151 232, 218.552 232 C 216.256 232, 216.265 230.009, 218.603 221.007 C 222.845 204.674, 224.458 184.774, 221.628 183.687 C 220.873 183.398, 218.112 182.839, 215.493 182.447 L 210.730 181.732 211.222 187.616 C 211.753 193.966, 210.532 207.944, 209.093 212 C 208.605 213.375, 207.447 217.200, 206.520 220.500 C 204.063 229.247, 199.028 241.732, 197.418 243.068 C 196.652 243.704, 195.406 243.986, 194.649 243.695 C 193.559 243.277, 193.458 242.055, 194.162 237.834 C 195.314 230.922, 195.733 192.854, 194.721 186.966 C 193.913 182.263, 193.520 182.045, 187.279 182.844 C 186.349 182.963, 186.208 186.456, 186.686 197.528 C 187.421 214.549, 186.201 225.070, 181.881 238.964 C 178.327 250.397, 174.694 257, 171.958 257 C 169.614 257, 169.641 257.689, 171.508 245.413 C 174.127 228.196, 174.106 196.864, 171.467 184.850 L 170.775 181.700 167.888 187.910 C 166.299 191.326, 165 194.577, 165 195.135 C 165 195.693, 162.917 199.370, 160.370 203.306 C 151.355 217.243, 137.597 229.274, 122.015 236.848 C 115.654 239.939, 110 240.961, 110 239.019 C 110 238.479, 114.240 234.662, 119.423 230.536 C 134.979 218.151, 146.341 203.202, 153.216 186.073 C 155.297 180.888, 157 175.852, 157 174.882 C 157 172.101, 155.217 171.720, 153.912 174.222 C 151.441 178.962, 141.968 190.810, 136.068 196.542 C 127.171 205.185, 117 210.626, 117 206.743 C 117 206.051, 119.381 202.755, 122.291 199.419 C 129.076 191.639, 137.243 178.893, 142.144 168.433 C 146.146 159.894, 146.522 158.370, 145.156 156.219 C 144.618 155.370, 143.356 157.391, 141.422 162.197 M 63.378 175.457 C 61.359 180.720, 72.107 186.093, 80.289 183.912 C 85.191 182.605, 90.558 177.896, 89.698 175.656 C 89.022 173.893, 86 173.335, 86 174.974 C 86 176.638, 80.286 179.001, 76.300 178.985 C 72.748 178.971, 71.662 178.569, 66.107 175.207 C 64.302 174.115, 63.878 174.154, 63.378 175.457 M 146.971 235.580 C 143.412 239.199, 137.012 245.087, 132.750 248.666 C 124.823 255.321, 123.244 258.001, 127.250 257.999 C 130.053 257.998, 141.378 252.707, 145.816 249.325 C 147.639 247.935, 149.233 246.956, 149.358 247.149 C 149.483 247.342, 150.665 249.668, 151.985 252.318 C 156.516 261.417, 160.522 260.687, 160.268 250.808 C 160.076 243.311, 158.139 232.007, 156.746 230.250 C 155.017 228.068, 153.597 228.842, 146.971 235.580 M 285.500 243 C 283.830 248.260, 288.832 251.706, 296.593 250.642 C 299.090 250.300, 302.019 249.400, 303.101 248.642 C 304.978 247.327, 304.926 247.235, 301.988 246.648 C 300.294 246.309, 297.424 244.899, 295.610 243.516 C 291.504 240.385, 286.413 240.125, 285.500 243 M 85.091 255.250 C 85.543 257.587, 85.932 259.968, 85.956 260.540 C 85.980 261.111, 89.150 263.281, 93 265.360 C 102.776 270.640, 102.288 273, 91.418 273 C 86.433 273, 86 273.184, 86 275.297 C 86 277.279, 87.063 277.938, 93.750 280.108 C 99.840 282.084, 101.500 283.032, 101.500 284.536 C 101.500 286.110, 100.213 286.710, 94.250 287.917 C 87.896 289.203, 87 289.656, 87 291.581 C 87 293.310, 87.764 293.921, 90.592 294.451 C 94.217 295.131, 106.936 295.397, 107.528 294.805 C 107.704 294.630, 108.232 289.146, 108.703 282.621 L 109.558 270.756 107.029 269.668 C 99.649 266.492, 86 255.023, 86 251.997 C 86 251.449, 85.610 251, 85.134 251 C 84.653 251, 84.634 252.890, 85.091 255.250 M 204 273.216 C 202.075 273.721, 198.785 274.580, 196.688 275.126 C 193.924 275.845, 192.964 276.582, 193.198 277.809 C 193.438 279.073, 194.905 279.629, 199.010 280.011 C 204.985 280.566, 207 281.421, 207 283.399 C 207 284.854, 204.045 286.372, 198.092 287.975 C 195.203 288.753, 194 289.613, 194 290.899 C 194 292.351, 195.068 292.850, 199.250 293.352 C 202.137 293.699, 206.637 293.987, 209.250 293.991 L 214 294 214 290.038 C 214 285.952, 210.956 276.561, 208.749 273.840 C 207.768 272.629, 206.750 272.495, 204 273.216 M 193.777 303.067 C 192.873 309.223, 199.314 312.633, 207.628 310.402 C 209.887 309.795, 212 306.195, 212 302.953 C 212 301.364, 211.300 300.998, 208.250 300.991 C 206.188 300.987, 202.197 300.706, 199.382 300.368 L 194.263 299.753 193.777 303.067 M 86.998 303.800 C 87.001 306.848, 89.520 311.602, 91.545 312.379 C 92.435 312.720, 95.307 313, 97.927 313 C 103.512 313, 105.785 311.098, 106.662 305.693 L 107.239 302.138 97.117 301.819 C 87.130 301.504, 86.996 301.530, 86.998 303.800 M 223.571 307.473 C 222.235 314.597, 227.486 317.949, 237.604 316.432 C 242.512 315.696, 244.321 313.817, 245.481 308.250 L 246.159 305 238.829 304.989 C 234.798 304.983, 229.872 304.709, 227.882 304.380 C 224.354 303.796, 224.246 303.874, 223.571 307.473 M 122 309.802 C 122 315.806, 125.218 318, 134.024 318 C 141.917 318, 144.337 316.516, 145.853 310.750 L 146.839 307 137.544 307 C 132.432 307, 126.844 306.719, 125.125 306.375 C 122.036 305.757, 122 305.797, 122 309.802" stroke="none" fill="black" fill-rule="evenodd"/>
</svg>