<svg xmlns="http://www.w3.org/2000/svg" width="285" height="265" viewBox="0 0 285 265" version="1.1">
	<path d="M 136.251 7.855 C 130.673 9.807, 127.985 12.208, 125.992 17.019 C 125.050 19.295, 123.799 20.225, 120.631 21.010 C 101.253 25.808, 88.539 32.564, 76.423 44.500 C 64.842 55.909, 58.539 66.223, 53.199 82.500 C 50.229 91.553, 48.620 98.056, 47.497 105.555 L 46.890 109.610 32.850 116.539 C 23.147 121.327, 17.062 125.055, 13.155 128.606 L 7.500 133.745 7.500 139.834 C 7.500 145.788, 7.610 146.036, 12.437 150.936 C 15.153 153.693, 20.328 157.488, 23.937 159.369 C 30.660 162.872, 47.463 169, 50.346 169 C 52.328 169, 54.562 172.441, 55.342 176.694 C 55.944 179.980, 61.779 192.646, 66.774 201.511 C 72.742 212.104, 85.102 225.596, 96 233.413 C 103.403 238.723, 116.786 244.633, 125.500 246.441 C 127.799 246.918, 128.895 247.998, 130.188 251.061 C 131.502 254.173, 132.873 255.499, 136.380 257.050 C 144.105 260.467, 151.836 257.953, 155.244 250.916 C 156.566 248.186, 157.928 247.377, 165.139 245.041 C 175.821 241.580, 182.726 238.031, 191.491 231.496 C 203.581 222.482, 210.800 214.624, 218.553 202.041 C 223.850 193.442, 232 174.959, 232 171.544 C 232 170.657, 235.693 169.008, 242.224 166.979 C 253.729 163.405, 262.409 159.307, 268.782 154.440 C 274.179 150.320, 276.378 147.515, 277.919 142.790 C 278.962 139.591, 278.863 138.478, 277.199 134.717 C 274.511 128.641, 268.574 124.159, 252.942 116.408 C 245.549 112.742, 239.192 109.259, 238.816 108.669 C 238.440 108.079, 237.848 105.324, 237.501 102.548 C 235.720 88.289, 229.433 71.177, 221.393 58.702 C 215.411 49.421, 204.136 38.359, 195.322 33.122 C 187.608 28.539, 174.169 22.907, 166.500 21.042 C 162.200 19.997, 161.080 19.178, 158.500 15.198 C 153.298 7.172, 145.531 4.608, 136.251 7.855 M 139.323 15.696 C 138.125 15.929, 136.607 16.768, 135.950 17.560 C 134.928 18.792, 135.857 19, 142.378 19 C 146.570 19, 150 18.752, 150 18.449 C 150 17.783, 143.386 14.944, 142.282 15.136 C 141.852 15.211, 140.520 15.463, 139.323 15.696 M 136.933 28.895 C 128.380 31.675, 119.331 41.995, 112.123 57.190 C 109.855 61.970, 108 66.364, 108 66.954 C 108 67.544, 107.561 68.809, 107.024 69.764 C 105.615 72.271, 101 94.104, 101 98.263 C 101 100.687, 101.546 102.002, 102.750 102.479 C 103.713 102.861, 113.050 103.810, 123.500 104.590 C 137.934 105.666, 145.865 105.767, 156.500 105.007 C 181.148 103.247, 184.121 102.847, 184.752 101.205 C 185.386 99.551, 184.246 93.250, 180.372 77 C 175.809 57.861, 164.299 38.171, 153.925 31.757 C 149.060 28.749, 141.368 27.453, 136.933 28.895 M 114.794 32.475 C 103.219 35.662, 88.248 44.668, 80.435 53.144 C 72.089 62.198, 65.768 73.151, 61.537 85.887 C 60.054 90.354, 59.987 91.378, 61.131 92.107 C 64.574 94.300, 89.467 100.999, 94.178 101 C 94.551 101, 95.158 98.412, 95.527 95.250 C 97.162 81.245, 100.603 68.263, 105.608 57.223 C 106.923 54.320, 108 51.699, 108 51.398 C 108 50.308, 117.270 36.433, 119.791 33.750 C 122.694 30.659, 122.016 30.486, 114.794 32.475 M 165.128 32.747 C 165.883 33.707, 167.135 35.161, 167.911 35.979 C 170.508 38.714, 175.536 47.415, 179.769 56.500 C 184.164 65.932, 186.742 75.032, 189.589 91.163 L 191.294 100.827 194.897 100.316 C 202.774 99.198, 214.990 95.979, 220.353 93.607 L 226.012 91.105 223.924 85.802 C 219.158 73.700, 217.454 70.176, 213.267 63.766 C 207.702 55.248, 200.791 48.361, 191.989 42.562 C 185.003 37.960, 173.308 32.824, 167.128 31.645 C 164.026 31.053, 163.866 31.141, 165.128 32.747 M 82.035 61.934 C 79.648 66.394, 81.485 70, 86.143 70 C 89.061 70, 92 66.895, 92 63.813 C 92 60.070, 83.855 58.535, 82.035 61.934 M 196.039 62.189 C 193.481 64.934, 193.431 68.175, 195.912 70.420 C 200.501 74.573, 207.757 69.202, 204.896 63.769 C 202.587 59.386, 199.211 58.784, 196.039 62.189 M 57.073 105.750 C 56.407 110.013, 55.715 114.271, 55.535 115.213 C 55.082 117.579, 56.667 118.657, 64.092 121.031 C 74.787 124.452, 84.833 126.796, 99 129.177 C 110.971 131.189, 115.955 131.447, 143 131.454 C 170.304 131.462, 174.810 131.227, 186 129.210 C 215.327 123.922, 229.999 119.550, 230.001 116.098 C 230.001 115.219, 229.266 110.794, 228.367 106.265 C 226.760 98.169, 226.688 98.040, 224.116 98.655 C 222.677 98.999, 220.375 99.834, 219 100.511 C 215.260 102.351, 191.698 107.774, 182 109.027 C 168.020 110.833, 132.783 111.419, 118.421 110.085 C 98.290 108.215, 75.115 103.799, 63.124 99.551 C 60.718 98.698, 58.644 98, 58.516 98 C 58.388 98, 57.738 101.487, 57.073 105.750 M 35.264 125.502 C 24.237 130.927, 16 137.224, 16 140.229 C 16 142.499, 23.113 148.525, 29.720 151.851 C 43.195 158.634, 66.972 164.486, 95.500 168.041 C 109.222 169.751, 117.996 170.161, 141 170.163 C 156.675 170.164, 173.550 169.705, 178.500 169.142 C 183.450 168.579, 192 167.606, 197.500 166.979 C 234.812 162.724, 269 149.724, 269 139.791 C 269 136.361, 262.893 131.699, 250.426 125.613 C 238.732 119.904, 238.530 119.847, 235.746 121.491 C 232.232 123.567, 214.530 129.587, 206.500 131.437 C 185.031 136.384, 173.308 137.500, 143 137.485 C 112.875 137.470, 105.096 136.798, 84 132.389 C 74.270 130.355, 54.420 124.143, 50.220 121.817 C 48.415 120.818, 46.829 120, 46.693 120 C 46.558 120, 41.415 122.476, 35.264 125.502 M 64 173.477 C 64 173.740, 65.114 176.914, 66.476 180.532 C 73.753 199.865, 86.960 216.410, 103.899 227.413 C 112.719 233.142, 113.550 233.547, 122.425 236.444 L 130.091 238.946 134.196 235.973 C 140.144 231.664, 148.263 232.102, 153.509 237.014 C 156.213 239.547, 161.282 238.385, 172.823 232.589 C 194.803 221.550, 213.437 199.953, 220.569 177.250 L 221.904 173 219.202 173.044 C 217.716 173.068, 214.475 173.511, 212 174.028 C 203.548 175.796, 180.521 178.109, 162.976 178.952 C 136.403 180.229, 85.483 177.412, 74.007 174.030 C 70.430 172.976, 64 172.621, 64 173.477 M 140.223 242.557 C 136.523 245.148, 137.923 250, 142.371 250 C 147.112 250, 148.842 245.209, 145.169 242.250 C 143.195 240.659, 142.906 240.677, 140.223 242.557" stroke="none" fill="black" fill-rule="evenodd"/>
</svg>