<svg xmlns="http://www.w3.org/2000/svg" width="289" height="196" viewBox="0 0 289 196" version="1.1">
	<path d="M 139.500 7.700 C 113.963 11.110, 94.295 17.932, 82.777 27.374 C 75.249 33.546, 69.785 41.413, 60.933 58.828 C 53.925 72.613, 53.308 73.464, 44.631 81.328 C 26.432 97.819, 22.454 102.323, 18.264 111.184 C 12.789 122.760, 10.319 129.393, 8.535 137.312 C 6.614 145.837, 6.618 147.879, 8.570 154.592 C 11.614 165.064, 22.584 173.886, 38.129 178.364 C 45.257 180.417, 65.060 183.652, 75.500 184.469 C 79.900 184.813, 88.900 185.858, 95.500 186.790 C 112.084 189.133, 149.239 189.117, 164.500 186.760 C 170.550 185.826, 182.025 184.794, 190 184.467 C 206.950 183.772, 227.975 181.457, 236.500 179.348 C 258.924 173.798, 273.732 164.387, 279.338 152.122 C 283.008 144.093, 282.089 130.399, 277.081 118.500 C 276.618 117.400, 275.458 114.475, 274.503 112 C 271.210 103.463, 266.815 93.472, 262.367 84.406 C 256.907 73.278, 250.674 66.704, 239.539 60.329 C 229.055 54.327, 222.878 49.009, 212.274 36.854 C 197.826 20.293, 184.762 11.793, 168.792 8.560 C 161.763 7.137, 146.968 6.703, 139.500 7.700 M 142.500 16.622 C 126.549 18.282, 109.790 22.618, 98.428 28.025 C 93.695 30.278, 89.634 33.252, 85.611 37.411 C 78.556 44.704, 77.219 46.753, 68.658 63.383 C 60.878 78.493, 57.319 83.108, 47.078 91.370 C 35.534 100.682, 30.312 106.664, 25.952 115.573 C 23.778 120.013, 22 124.166, 22 124.802 C 22 125.438, 20.875 129.309, 19.500 133.405 C 15.903 144.121, 16.071 151.418, 20.041 156.898 C 27.547 167.259, 42.929 172.186, 81 176.421 C 130.353 181.911, 124.900 181.800, 162.167 178.081 C 172.984 177.001, 188.059 175.829, 195.667 175.476 C 220.272 174.335, 242.790 169.726, 253.551 163.629 C 257.419 161.438, 257.498 161.281, 257.399 155.946 C 257.217 146.075, 251.782 137.816, 240.067 129.607 C 231.789 123.807, 227 118.185, 227 114.268 C 227 110.991, 230.195 111.366, 232.275 114.888 C 234.075 117.935, 237.722 121.238, 245.652 127 C 248.301 128.925, 251.716 131.756, 253.240 133.291 C 257.017 137.093, 262.074 147.389, 262.891 152.939 L 263.563 157.500 266.421 154.500 C 271.148 149.538, 273.271 143.667, 272.508 137.669 C 271.654 130.960, 267.494 117.376, 263.748 109.066 C 262.120 105.455, 259.914 100.475, 258.846 98 C 251.425 80.804, 246.155 74.089, 235.640 68.433 C 225.414 62.933, 217.758 56.571, 206.863 44.524 C 192.322 28.445, 185.684 23.536, 172.218 18.903 C 166.801 17.039, 150.510 15.789, 142.500 16.622 M 125.075 30.087 C 118.050 31.465, 110.904 34.013, 105.500 37.066 C 99.997 40.174, 91.100 48.972, 88.631 53.747 C 87.192 56.530, 87.193 56.915, 88.641 58.117 C 90.010 59.254, 90.661 58.889, 93.365 55.474 C 102.286 44.201, 109.438 39.720, 124.656 35.867 C 133.780 33.557, 136.733 31.994, 135.559 30.096 C 134.784 28.842, 131.438 28.839, 125.075 30.087 M 80.766 66.726 C 78.807 68.915, 74 79.323, 74 81.377 C 74 83.590, 75.861 84.360, 77.641 82.883 C 79.799 81.092, 85.217 69.361, 84.823 67.331 C 84.358 64.936, 82.603 64.674, 80.766 66.726 M 192.768 128.511 C 180.514 131.182, 175.711 133.984, 169.559 142.051 C 165.172 147.804, 160.749 151.470, 152.831 155.916 C 145.507 160.029, 144.229 161.517, 146.824 162.906 C 151.167 165.230, 166.190 154.737, 176.067 142.480 C 179.552 138.155, 184.609 135.384, 191.500 134.024 C 206.881 130.987, 211.826 129.145, 210.473 126.956 C 209.573 125.499, 204.569 125.939, 192.768 128.511" stroke="none" fill="black" fill-rule="evenodd"/>
</svg>