<svg xmlns="http://www.w3.org/2000/svg" width="220" height="404" viewBox="0 0 220 404" version="1.1">
	<path d="M 104.115 12.472 C 96.799 19.450, 93.041 21, 83.433 21 C 76.186 21, 75.657 21.156, 72.901 24.106 C 68.766 28.533, 68.941 33.441, 73.488 40.549 L 76.977 46.003 72.437 50.251 C 64.758 57.437, 59.013 67.791, 55.047 81.594 C 52.471 90.558, 48.461 96.113, 41.764 99.995 C 36.503 103.044, 36.493 103.046, 25.284 102.389 L 14.068 101.732 10.624 105.176 C 4.518 111.282, 4.889 121.438, 11.424 127.121 C 13.297 128.749, 14 130.340, 14 132.946 C 14 138.661, 17.038 143.213, 22.325 145.420 C 28.131 147.843, 32.453 146.763, 40.172 140.962 C 51.789 132.231, 64.873 130.680, 77.500 136.537 C 80.800 138.067, 87.288 140.038, 91.919 140.916 L 100.337 142.512 84.851 158.006 C 67.741 175.125, 61.866 182.710, 56.077 195.156 C 50.376 207.414, 48.613 216.713, 49.299 230.890 C 50.034 246.056, 52.498 253.742, 60.608 266.166 C 68.095 277.635, 77.435 285.745, 95 296.030 C 110.616 305.173, 118.661 312.785, 121.917 321.500 C 127.110 335.396, 122.695 350.591, 112.104 355.278 C 106.142 357.916, 96.573 357.843, 91.234 355.119 C 81.016 349.906, 77.548 337.356, 85.148 333.090 C 87.495 331.773, 88.043 331.798, 90.385 333.333 C 92.157 334.494, 93 335.934, 93 337.801 C 93 342.618, 95.516 345, 100.604 345 C 106.255 345, 109.314 342.027, 111.032 334.866 C 113.635 324.015, 110.268 314.850, 101.474 308.850 C 95.755 304.948, 90.195 303.671, 81.254 304.208 C 67.796 305.015, 57.720 312.041, 51.651 324.849 C 48.877 330.704, 48.459 332.725, 48.159 341.738 C 47.609 358.264, 51.452 367.619, 63.927 380.120 C 71.283 387.492, 80.648 392.808, 91.087 395.538 C 100.344 397.959, 120.936 397.108, 129.993 393.930 C 147.783 387.689, 163.305 373.519, 171.823 355.746 C 183.721 330.918, 182.957 306.682, 168.989 265.910 L 165.362 255.320 174.086 260.660 C 180.311 264.471, 183.826 266, 186.358 266 C 193.222 266, 196.640 263.107, 199.563 254.823 C 200.346 252.602, 202.512 248.697, 204.376 246.143 C 206.361 243.424, 208.071 239.635, 208.502 237 C 208.907 234.525, 210.183 230.025, 211.336 227 C 212.884 222.942, 213.426 219.271, 213.405 213 C 213.376 204.723, 213.239 204.239, 208.188 194.585 C 205.335 189.132, 203 184.060, 203 183.315 C 203 181.176, 198.248 174.208, 195.609 172.480 C 190.932 169.415, 187.030 169.632, 179.287 173.388 C 175.319 175.312, 169.353 178.694, 166.028 180.902 L 159.983 184.918 160.610 182.209 C 161.850 176.858, 163.564 175.435, 171.571 173.108 C 177.130 171.493, 180.140 169.991, 182.168 167.820 C 184.744 165.062, 185 164.126, 185 157.457 C 185 149.421, 184.425 150.384, 194.411 141.713 C 197.896 138.687, 198.312 137.837, 198.236 133.909 C 198.189 131.484, 197.442 127.827, 196.575 125.782 C 193.888 119.439, 194.537 113.851, 199.063 104.367 C 203.938 94.153, 203.770 92.184, 197.411 85.113 C 190.711 77.660, 189.734 74.537, 190.526 63.113 L 191.193 53.500 188.346 50.833 C 186.781 49.366, 182.862 47.407, 179.638 46.480 C 170.840 43.948, 166.050 38.995, 161.969 28.209 C 161.284 26.399, 159.853 23.812, 158.789 22.459 C 156.936 20.103, 156.377 20, 145.395 20 C 131.782 20, 129.104 19.104, 121.643 12.047 C 114.301 5.103, 111.776 5.164, 104.115 12.472 M 109.472 23.030 C 104.467 28.253, 95.641 32, 88.340 32 C 84.853 32, 82 32.346, 82 32.768 C 82 33.190, 83.164 35.248, 84.586 37.342 C 86.479 40.128, 87.618 40.959, 88.836 40.444 C 92.470 38.908, 101.731 37.030, 105.750 37.016 L 110 37 110.015 31.250 C 110.033 24.712, 110.923 22.650, 113.330 23.573 C 114.515 24.028, 115.004 25.418, 115.014 28.357 C 115.039 36.178, 115.117 36.249, 126.815 39.144 C 132.692 40.599, 138.244 42.093, 139.154 42.464 C 140.369 42.961, 141.641 41.928, 143.952 38.570 C 146.998 34.142, 149.222 32.931, 150.502 35.003 C 150.843 35.555, 149.891 38.266, 148.387 41.030 C 146.795 43.955, 146.039 46.376, 146.577 46.827 C 147.084 47.252, 149.673 49.324, 152.329 51.432 C 154.985 53.539, 158.793 57.454, 160.792 60.132 C 162.791 62.809, 164.785 65, 165.222 65 C 165.659 65, 167.881 63.650, 170.159 62 C 174.753 58.672, 176.514 58.290, 177.340 60.443 C 177.864 61.808, 173.327 66.598, 169.461 68.762 C 167.938 69.614, 167.973 70.026, 169.876 73.756 C 171.017 75.993, 172.403 79.550, 172.956 81.661 C 173.510 83.773, 174.530 87.669, 175.225 90.319 C 176.483 95.122, 176.501 95.138, 180.493 94.935 C 186.706 94.619, 188 94.884, 188 96.472 C 188 97.387, 186.015 98.521, 182.750 99.470 L 177.500 100.997 177.498 108.248 C 177.498 112.237, 177.114 118.482, 176.645 122.126 L 175.794 128.752 179.647 129.664 C 182.499 130.338, 183.500 131.085, 183.500 132.538 C 183.500 134.222, 182.854 134.479, 178.944 134.355 L 174.389 134.210 172.586 141.355 C 171.595 145.285, 169.482 151.797, 167.892 155.826 C 166.301 159.855, 165 163.309, 165 163.501 C 165 163.694, 166.747 163.105, 168.882 162.194 C 172.687 160.569, 172.773 160.416, 173.255 154.412 C 173.952 145.729, 179.220 137.556, 186.778 133.429 C 186.931 133.346, 186.561 131.977, 185.956 130.389 C 182.269 120.705, 183.017 110.487, 188.105 101.028 L 191.048 95.556 188.848 92.528 C 187.638 90.863, 186.049 89.138, 185.317 88.696 C 184.585 88.254, 182.984 86.004, 181.760 83.696 C 179.866 80.125, 179.532 77.915, 179.517 68.860 L 179.500 58.221 176 56.995 C 165.119 53.182, 158.714 47.397, 153.307 36.500 L 150.827 31.500 141.663 31.408 C 130.881 31.299, 125.888 29.700, 118.473 23.979 C 115.636 21.791, 113.104 20, 112.845 20 C 112.586 20, 111.068 21.363, 109.472 23.030 M 98.679 49.087 C 80.427 54.291, 71.349 63.976, 66.474 83.447 C 61.253 104.297, 46.681 115.041, 25.907 113.355 C 19.175 112.809, 18.236 112.943, 17.621 114.545 C 17.116 115.861, 18.091 117.536, 21.214 120.719 C 25.135 124.716, 25.494 125.510, 25.427 130.044 C 25.362 134.424, 25.596 135, 27.438 135 C 28.585 135, 31.768 133.449, 34.511 131.554 C 42.890 125.765, 46.285 124.229, 54.403 122.552 C 64.061 120.557, 70.739 121.569, 82.500 126.811 C 89.150 129.774, 91.960 130.449, 99.153 130.806 C 106.927 131.192, 108.400 130.963, 113.650 128.560 C 121.297 125.059, 123.510 122.870, 127.614 114.750 C 130.429 109.179, 131.454 108, 133.477 108 C 139.095 108, 139.006 115.859, 133.295 124.161 C 130.252 128.586, 129.807 130.041, 129.575 136.343 C 129.060 150.330, 126.804 157.941, 117.229 178 C 110.735 191.604, 108.558 197.979, 107.088 207.692 C 105.009 221.432, 106.194 235.603, 110.500 248.500 C 112.529 254.580, 119.261 268.002, 123.086 273.599 C 130.777 284.850, 138.312 300.057, 140.997 309.748 C 143.487 318.733, 143.712 332.974, 141.453 338.628 C 136.143 351.915, 128.837 360.310, 118.284 365.248 C 112.676 367.872, 110.613 368.300, 103.562 368.300 C 92.161 368.300, 85.189 365.940, 78.481 359.809 C 64.770 347.278, 67.840 326.635, 84.109 321.969 C 88.257 320.779, 95.797 322.461, 98.750 325.234 C 102.012 328.299, 101.794 325.097, 98.472 321.149 C 92.770 314.373, 79.179 312.969, 71.092 318.321 C 64.952 322.383, 60.318 330.142, 59.487 337.750 C 58.400 347.694, 59.679 355.002, 63.692 361.787 C 73.453 378.287, 87.784 386.158, 107.933 386.087 C 136.165 385.987, 157.751 368.282, 166.562 338 C 168.035 332.938, 168.431 328.514, 168.351 318 C 168.232 302.215, 166.391 292.562, 160.054 274.500 C 145.017 231.633, 144.626 229.881, 145.229 208.078 C 145.671 192.079, 148.213 177.781, 152.935 164.732 C 156.466 154.972, 161.865 137.532, 163.686 130 C 165.047 124.371, 165.473 118.882, 165.391 108 C 165.289 94.351, 165.098 93.002, 162.142 85.009 C 158.393 74.876, 153.666 67.723, 146.218 60.917 C 139.294 54.588, 133.222 51.503, 122.756 48.993 C 112.601 46.559, 107.476 46.579, 98.679 49.087 M 90.309 77.104 C 86.900 78.090, 83.542 81.993, 82.487 86.195 C 81.618 89.658, 85.298 96.783, 88.606 98.040 C 97.304 101.347, 105 96.803, 105 88.359 C 105 82.739, 102.930 79.589, 97.920 77.585 C 95.742 76.713, 93.856 76.041, 93.730 76.090 C 93.603 76.140, 92.064 76.596, 90.309 77.104 M 94.362 83.500 C 93.464 85.839, 94.731 88, 97 88 C 99.544 88, 100.651 85.489, 98.989 83.487 C 97.402 81.574, 95.098 81.580, 94.362 83.500 M 121.517 135.972 C 121.186 136.507, 119.236 137.448, 117.183 138.063 C 114.147 138.973, 113.120 139.978, 111.687 143.443 C 110.717 145.787, 109.041 148.652, 107.962 149.810 C 105.032 152.956, 105.497 153.773, 111.182 155.461 C 118.312 157.579, 119.593 157.418, 120.836 154.250 C 122.068 151.108, 124 140.767, 124 137.316 C 124 134.960, 122.608 134.207, 121.517 135.972 M 93.182 165.387 L 85.873 172.582 90.187 174.692 C 94.658 176.879, 103.238 179, 107.614 179 C 109.773 179, 110.628 177.923, 113.638 171.407 C 115.568 167.230, 117.001 163.670, 116.823 163.496 C 116.646 163.321, 113.586 162.424, 110.023 161.503 C 106.461 160.582, 102.859 159.460, 102.019 159.010 C 100.894 158.408, 98.559 160.093, 93.182 165.387 M 76.277 183.407 C 69.681 191.465, 68.051 194.783, 70.057 196.067 C 75.443 199.515, 96.491 204.177, 100.216 202.747 C 100.978 202.455, 102.425 199.580, 103.430 196.358 C 104.436 193.136, 105.674 189.416, 106.181 188.091 C 107.338 185.066, 106.442 184.468, 98.727 183.109 C 95.486 182.538, 90.342 180.930, 87.296 179.535 C 84.250 178.141, 81.700 177.006, 81.629 177.013 C 81.558 177.021, 79.150 179.898, 76.277 183.407 M 181.424 184.750 C 168.090 191.973, 156.550 200.216, 156.180 202.782 C 156.005 204.002, 156.292 205, 156.820 205 C 157.347 205, 163.116 203.002, 169.639 200.560 C 184.050 195.165, 187 194.614, 187 197.316 C 187 198.808, 177.401 203.310, 160.250 209.861 C 157.087 211.069, 156 212.029, 156 213.616 C 156 215.714, 156.273 215.746, 173.250 215.624 C 185.880 215.533, 191.119 215.853, 192.811 216.818 C 197.906 219.723, 194.769 220.488, 175.665 221 C 165.396 221.275, 156.995 221.838, 156.997 222.250 C 156.999 222.662, 157 223.662, 157 224.472 C 157 225.411, 159.084 226.528, 162.750 227.556 C 176.206 231.329, 187.384 236.337, 186.737 238.304 C 186.082 240.294, 182.776 240.191, 175.970 237.970 C 172.411 236.809, 166.914 235.033, 163.754 234.023 L 158.009 232.186 158.642 234.843 C 159.523 238.535, 160.249 239.271, 165.708 241.996 C 168.344 243.312, 174.050 246.989, 178.390 250.167 C 182.729 253.345, 186.661 255.710, 187.127 255.422 C 187.593 255.134, 188.667 252.512, 189.515 249.596 C 190.363 246.680, 192.619 242.469, 194.528 240.238 C 196.460 237.981, 198 235.086, 198 233.710 C 198 232.351, 199.170 228.147, 200.601 224.369 C 204.071 215.204, 203.542 209.299, 198.522 201.167 C 196.528 197.936, 194.278 192.951, 193.524 190.090 C 191.152 181.098, 189.507 180.372, 181.424 184.750 M 62.670 209.237 C 59.089 220.478, 59.123 224.495, 62.814 226.404 C 66.429 228.273, 84.673 230.293, 90.793 229.500 C 100.903 228.191, 100.108 229.188, 99.786 218.222 L 99.500 208.500 92.680 207.747 C 87.117 207.132, 76.368 204.473, 66.920 201.374 C 65.685 200.969, 64.756 202.689, 62.670 209.237 M 61.300 236.750 C 62.136 243.618, 64.968 252.003, 67.717 255.750 L 70.102 259 79.499 259 C 86.789 259, 90.703 258.430, 96.948 256.456 C 101.377 255.058, 105 253.635, 105 253.294 C 105 252.954, 104.326 250.386, 103.502 247.588 C 102.679 244.790, 101.546 240.625, 100.986 238.333 L 99.968 234.166 88.734 234.714 C 80.434 235.118, 75.448 234.835, 69.643 233.631 C 65.322 232.734, 61.547 232, 61.254 232 C 60.961 232, 60.982 234.137, 61.300 236.750 M 98.500 261.756 C 94.049 263.329, 88.336 264.419, 82.812 264.750 L 74.123 265.270 77.265 269.180 C 78.993 271.330, 84.104 275.601, 88.623 278.671 C 96.166 283.794, 97.155 284.195, 100.670 283.548 C 105.001 282.752, 117 277.148, 117 275.922 C 117 275.480, 116.546 274.837, 115.991 274.495 C 115.436 274.152, 113.328 270.525, 111.306 266.435 C 109.284 262.346, 107.150 259.063, 106.565 259.141 C 105.979 259.218, 102.350 260.395, 98.500 261.756 M 111.805 285.162 L 105.110 288.218 114.286 295.109 C 119.334 298.899, 123.784 302, 124.176 302 C 124.568 302, 126.013 300.988, 127.386 299.750 L 129.884 297.500 125.192 289.756 C 122.611 285.497, 120.050 282.034, 119.500 282.059 C 118.950 282.085, 115.487 283.481, 111.805 285.162 M 129.230 304.960 L 126.960 306.853 129.414 310.468 C 132.334 314.771, 134.968 322.336, 136.001 329.387 C 136.697 334.135, 136.760 333.893, 136.878 326 C 136.970 319.914, 136.396 315.441, 134.857 310.250 C 133.676 306.262, 132.437 303.015, 132.104 303.033 C 131.772 303.052, 130.479 303.918, 129.230 304.960" stroke="none" fill="black" fill-rule="evenodd"/>
</svg>