<svg xmlns="http://www.w3.org/2000/svg" width="356" height="274" viewBox="0 0 356 274" version="1.1">
	<path d="M 149.929 8.304 C 143.427 10.147, 136.184 14.649, 134.035 18.182 C 131.331 22.629, 130.816 28.617, 132.504 36 C 136.518 53.562, 137.279 58.653, 136.585 63.281 C 135.873 68.027, 135.806 68.097, 122.433 78.014 C 115.042 83.494, 103.450 92.869, 96.673 98.847 L 84.351 109.717 79.925 103.635 C 64.999 83.119, 43.372 69.582, 23.427 68.271 C 14.244 67.667, 11.894 68.486, 8.950 73.314 C 6.481 77.363, 6.472 82.737, 8.910 95.502 C 12.765 115.686, 18.777 128.777, 29.288 139.879 C 31.879 142.616, 34 145.264, 34 145.763 C 34 146.261, 32.686 147.840, 31.081 149.270 C 21.130 158.136, 11.821 178.848, 9.787 196.647 C 8.412 208.679, 9.309 214.463, 13.144 218.298 C 16.092 221.245, 16.191 221.266, 24.808 220.721 C 46.218 219.367, 64.932 207.570, 81.521 184.971 L 85.136 180.047 92.818 186.297 C 112.242 202.101, 129.051 213.102, 146.023 221.120 L 154.825 225.278 150.938 230.973 C 145.226 239.342, 143.047 244.775, 143.022 250.715 C 143.003 255.106, 143.476 256.473, 146.013 259.362 C 151.731 265.875, 163.169 268.080, 180.481 266.006 C 197.455 263.973, 212.243 257.414, 227.348 245.219 C 235.430 238.694, 235.517 238.655, 245.906 236.791 C 258.444 234.542, 274.160 228.791, 286.465 221.949 C 311.100 208.252, 334.871 184.706, 343.503 165.451 C 344.971 162.178, 346.675 158.600, 347.291 157.500 C 347.906 156.400, 348.595 150.863, 348.820 145.196 C 349.140 137.173, 348.851 133.853, 347.516 130.196 C 345.019 123.359, 338.935 111.191, 337.358 109.882 C 336.611 109.262, 336 108.341, 336 107.835 C 336 105.455, 324.082 91.048, 314 81.238 C 300.658 68.257, 272.296 51.370, 259 48.491 C 256.605 47.973, 253.131 45.465, 248 40.552 C 238.683 31.632, 234.356 28.290, 224.925 22.737 C 215.759 17.339, 205.006 12.840, 194.500 10.005 C 184.400 7.279, 157.204 6.242, 149.929 8.304 M 152.722 19.493 C 144.896 21.645, 142.996 23.366, 143.025 28.273 C 143.038 30.598, 143.967 35.200, 145.088 38.500 C 146.210 41.800, 147.494 48.008, 147.942 52.296 C 148.391 56.583, 148.989 60.323, 149.272 60.606 C 149.555 60.889, 153.547 59.343, 158.143 57.171 C 176.698 48.403, 201.705 42.830, 221.295 43.096 C 227.232 43.177, 232.329 43.004, 232.622 42.712 C 233.339 41.994, 223.796 34.945, 217 31.172 C 197.802 20.515, 168.417 15.176, 152.722 19.493 M 201.500 55.469 C 166.796 60.984, 132.200 80.575, 96.840 114.735 C 82.493 128.595, 81.724 128.775, 76.534 119.495 C 64.613 98.178, 43.269 81.751, 24.598 79.522 L 18.696 78.818 19.350 86.159 C 21.397 109.144, 30.368 127.439, 45.101 138.675 C 51.703 143.710, 51.713 146.293, 45.148 151.581 C 30.988 162.989, 23.011 179.560, 21.399 200.916 L 20.713 210 25.607 209.983 C 31.339 209.963, 44.149 205.095, 51 200.332 C 60.121 193.990, 68.445 184.568, 77.353 170.500 C 79.235 167.528, 81.369 165.378, 82.615 165.199 C 84.789 164.888, 85.229 165.202, 103.717 180.314 C 132.018 203.447, 164.333 219.691, 194 225.695 C 206.239 228.172, 232.692 228.149, 243.500 225.652 C 247.900 224.635, 251.805 223.510, 252.179 223.152 C 252.552 222.793, 251.295 220.250, 249.385 217.500 C 240.765 205.086, 232.385 184.137, 229.349 167.412 C 226.939 154.131, 226.995 128.182, 229.462 115.500 C 232.751 98.590, 241.009 78.480, 249.635 66.373 C 252.036 63.003, 254 60.037, 254 59.781 C 254 58.793, 245.428 56.825, 235.194 55.463 C 222.366 53.755, 212.275 53.757, 201.500 55.469 M 257.281 67.172 C 245.753 83.218, 237.060 104.946, 235.544 121.500 C 235.192 125.350, 234.459 131.425, 233.916 135 C 233.130 140.180, 233.337 144.446, 234.938 156 C 237.660 175.658, 238.295 178.722, 240.822 184.377 C 242.020 187.060, 243 189.709, 243 190.266 C 243 191.929, 250.747 207.565, 254.400 213.276 C 259.500 221.249, 259.854 221.420, 266.138 218.959 C 282.408 212.589, 300.057 201.002, 312.159 188.747 C 317.652 183.184, 329.994 168.021, 330.002 166.825 C 330.004 166.646, 326.398 166.647, 321.991 166.827 C 312.480 167.214, 305.507 165.262, 300.409 160.786 C 296.861 157.671, 296.155 155.245, 298.200 153.200 C 300.048 151.352, 302.728 151.756, 307.612 154.618 C 315.800 159.417, 330.264 158.827, 335.615 153.476 C 337.659 151.432, 338 150.122, 338 144.317 C 338 119.638, 306.830 83.109, 271.486 66.366 C 266.416 63.965, 261.982 62, 261.633 62 C 261.283 62, 259.324 64.328, 257.281 67.172 M 273.712 110.948 C 269.136 114.966, 267.361 120.496, 269.002 125.625 C 271.433 133.225, 278.425 137.842, 285.714 136.659 C 290.617 135.863, 293.648 133.611, 295.987 129.025 C 298.533 124.036, 298.526 120.952, 295.960 115.921 C 293.216 110.543, 288.838 108.008, 282.285 108.004 C 277.934 108.001, 276.513 108.488, 273.712 110.948 M 166.834 113.820 C 157.565 117.601, 150.897 134.971, 152.572 150.976 C 154.078 165.372, 158.798 175.039, 166.535 179.573 C 170.523 181.910, 171.886 182.174, 178.311 181.849 C 187.195 181.401, 195.518 177.606, 204.500 169.908 C 212.099 163.396, 213.866 160.748, 212.063 158.576 C 209.794 155.841, 205.095 156.689, 199.591 160.826 C 191.420 166.968, 185.710 169.924, 179.687 171.134 C 174.864 172.103, 173.693 172.029, 171.548 170.623 C 164.509 166.011, 161.157 149.544, 164.229 134.671 C 165.644 127.820, 169.388 123, 173.296 123 C 177.311 123, 188.888 126.925, 197.209 131.107 C 203.612 134.324, 205.354 134.816, 207.485 134.006 C 211.333 132.543, 211.656 130.294, 208.492 126.992 C 205.260 123.618, 194.433 117.729, 186.347 114.947 C 180.765 113.027, 170.265 112.420, 166.834 113.820 M 283.347 116.537 C 282.687 118.257, 285.605 122, 287.605 122 C 289.606 122, 290.983 118.837, 289.880 116.776 C 288.714 114.596, 284.156 114.430, 283.347 116.537 M 164.772 231.750 C 161.773 235.161, 154 248.474, 154 250.198 C 154 255.396, 173.579 257.004, 188 252.991 C 195.473 250.911, 209.357 244.533, 213.879 241.101 C 216.245 239.307, 216.207 239.292, 207.379 238.592 C 197.072 237.774, 181.351 234.701, 173.297 231.930 C 166.481 229.585, 166.671 229.589, 164.772 231.750" stroke="none" fill="black" fill-rule="evenodd"/>
</svg>