<svg xmlns="http://www.w3.org/2000/svg" width="380" height="326" viewBox="0 0 380 326" version="1.1">
	<path d="M 111.741 8.429 C 109.673 9.167, 107.275 10.357, 106.413 11.073 C 103.645 13.369, 100.141 21.526, 98.927 28.496 C 95.817 46.356, 102.861 62.807, 114.357 64.531 C 122.263 65.716, 129.991 64.538, 136.777 61.112 C 143.550 57.694, 145.246 57.378, 146.777 59.250 C 147.343 59.942, 147.956 67.644, 148.150 76.500 L 148.500 92.500 140.500 93.210 C 117.227 95.275, 111.016 100.873, 104.395 125.750 C 104.212 126.437, 103.300 127, 102.367 127 C 99.669 127, 74.227 135.835, 66.063 139.607 C 55.270 144.593, 40.580 154.731, 32.265 162.931 C 7.563 187.291, 0.194 218.435, 12.130 248.019 C 17.652 261.703, 33.125 279.673, 47.689 289.314 C 69.212 303.561, 98.058 313.560, 128.842 317.443 C 146.725 319.699, 175.665 319.493, 195 316.972 C 228.336 312.625, 264.603 300.544, 290.710 285.090 L 295.919 282.006 301.343 288.753 C 312.623 302.787, 315.055 304.006, 331.718 303.985 C 344.887 303.969, 347.251 303.235, 350.720 298.088 C 353.187 294.427, 353.553 290.788, 352.027 285.116 C 351.492 283.127, 350.165 277.900, 349.079 273.500 C 346.378 262.554, 340.276 239.884, 339.456 237.746 C 338.999 236.555, 339.271 236, 340.311 236 C 341.150 236, 342.591 235.710, 343.513 235.357 C 345.019 234.779, 345.118 235.385, 344.484 241.308 C 343.498 250.515, 345.239 257.116, 349.965 262.084 C 353.456 265.753, 354.053 266, 359.445 266 C 364.626 266, 365.530 265.670, 368.510 262.690 C 370.400 260.800, 372.336 257.474, 373.022 254.940 C 374.255 250.379, 373.802 241.135, 372.136 236.855 C 368.784 228.249, 367.383 225.170, 365.684 222.678 C 363.764 219.859, 363.765 219.849, 366.296 215.178 C 370.381 207.640, 373.359 197.133, 373.433 190 C 373.488 184.634, 373.020 182.683, 370.747 178.816 C 367.800 173.803, 367.186 173.462, 359.500 172.554 C 353.085 171.797, 350.218 173.284, 347.015 179.027 C 344.941 182.747, 344.519 184.846, 344.510 191.500 C 344.505 195.900, 344.840 200.715, 345.257 202.200 C 346.006 204.873, 345.980 204.889, 342.757 203.802 C 340.965 203.198, 339.423 202.655, 339.329 202.597 C 338.858 202.306, 344.943 179.049, 346.811 174 C 347.116 173.175, 347.930 170.025, 348.619 167 C 349.309 163.975, 350.361 159.475, 350.957 157 C 353.279 147.368, 353.296 145.501, 351.105 141.206 C 347.953 135.027, 346.389 134.508, 330.927 134.504 C 317.731 134.500, 317.236 134.578, 313.120 137.302 C 310.755 138.867, 305.981 144.050, 302.303 149.046 L 295.719 157.990 292.610 156.075 C 286.399 152.251, 277.338 147.342, 270 143.825 C 261.926 139.955, 237.929 131, 235.635 131 C 234.802 131, 233.755 129.080, 233.043 126.250 C 231.146 118.711, 226.062 110.211, 220.566 105.389 C 214.559 100.120, 204.675 96.618, 192.750 95.534 L 185 94.829 184.965 73.165 C 184.926 49.309, 184.047 42.989, 179.477 33.696 C 174.064 22.688, 164.601 16.781, 149.830 15.186 C 143.522 14.505, 140.301 13.638, 138.008 12.005 C 131.364 7.274, 119.502 5.660, 111.741 8.429 M 125.011 19.250 C 125.017 19.387, 125.692 21.709, 126.511 24.409 C 128.477 30.890, 128.402 41.527, 126.344 47.896 C 125.434 50.716, 125.009 53.343, 125.401 53.735 C 126.751 55.084, 131.504 51.463, 133.365 47.668 C 137.077 40.095, 135.256 24.193, 130.239 20.384 C 128.774 19.271, 124.976 18.447, 125.011 19.250 M 112.342 23.662 C 109.894 29.427, 109.599 40.472, 111.733 46.434 C 112.705 49.148, 114.036 51.539, 114.691 51.748 C 116.853 52.437, 119.324 45.748, 119.768 38 C 120.103 32.149, 119.766 29.411, 118.234 25.545 C 117.154 22.820, 115.753 20.418, 115.121 20.207 C 114.489 19.996, 113.238 21.551, 112.342 23.662 M 144.500 36.426 C 144.500 46.330, 144.627 47.003, 146.500 47.017 C 147.600 47.026, 150.300 48.049, 152.500 49.291 C 158.558 52.711, 159.820 57.551, 159.920 77.750 L 160 94 166.500 94 L 173 94 173.020 90.750 C 173.031 88.963, 173.308 83, 173.636 77.500 C 174.442 63.990, 172.563 44.025, 170.016 39.031 C 166.364 31.872, 159.973 28.059, 149 26.493 L 144.500 25.851 144.500 36.426 M 127.390 107.036 C 123.222 109.099, 119.038 115.162, 117.624 121.188 C 117.025 123.740, 117.157 123.853, 120.247 123.437 C 135.390 121.396, 141.490 121, 157.822 120.997 C 176.192 120.995, 191.635 122.368, 210.758 125.703 C 215.850 126.591, 220.337 126.997, 220.728 126.605 C 221.852 125.481, 217.023 117.227, 213.360 114.011 C 206.107 107.643, 187.125 105.029, 148 105.010 C 133.410 105.003, 131.024 105.237, 127.390 107.036 M 138.500 132.456 C 114.785 134.955, 89.124 141.284, 73.680 148.443 C 62.045 153.836, 62.234 153.539, 65.872 160.746 C 67.570 164.109, 69.400 168.580, 69.939 170.681 C 70.479 172.781, 72.338 179.675, 74.071 186 C 77.133 197.172, 77.225 198.113, 77.309 219 C 77.390 239.283, 77.240 241.102, 74.672 251.140 C 71.894 261.995, 68.694 270.724, 64.347 279.302 L 61.912 284.108 64.206 286.024 C 67.258 288.574, 85.372 296.165, 96.086 299.384 C 139.461 312.418, 194.406 310.558, 242.328 294.432 C 249.573 291.995, 260.967 287.317, 267.648 284.039 L 279.796 278.077 282.323 271.288 C 286.197 260.885, 289.054 247.811, 290.565 233.578 C 291.735 222.550, 291.729 218.520, 290.523 206.078 C 288.952 189.883, 285.347 174.353, 281.218 166 C 278.603 160.709, 278.109 160.303, 268.209 155.323 C 257.300 149.835, 236.387 142.683, 219 138.494 C 194.676 132.634, 160.875 130.099, 138.500 132.456 M 319.500 146.541 C 316.859 147.946, 311.735 154.139, 306.651 162.073 C 305.004 164.642, 305.013 164.656, 311.525 170.409 C 315.113 173.579, 320.575 179.589, 323.664 183.765 L 329.279 191.358 331.161 184.929 C 332.196 181.393, 333.653 176.475, 334.400 174 C 337.930 162.292, 341.370 147.037, 340.644 146.309 C 340.199 145.864, 335.935 145.375, 331.168 145.223 C 324.729 145.017, 321.728 145.356, 319.500 146.541 M 49.921 162.706 C 29.190 178.477, 18.150 197.940, 18.035 218.918 C 17.913 241.302, 28.363 260.617, 49.325 276.749 L 55.149 281.232 56.825 278.877 C 57.746 277.581, 59.335 274.492, 60.356 272.011 C 61.376 269.530, 62.595 266.600, 63.063 265.500 C 64.895 261.201, 68.912 246.126, 70.125 239 C 72.673 224.039, 70.988 197.103, 66.685 184 C 65.872 181.525, 64.256 176.350, 63.095 172.500 C 61.933 168.650, 59.938 163.772, 58.662 161.661 L 56.342 157.822 49.921 162.706 M 77.115 161.908 C 75.296 163.060, 76.396 167.554, 78.715 168.444 C 79.805 168.862, 80.920 168.462, 81.724 167.363 C 83.371 165.110, 83.332 164.475, 81.429 162.571 C 79.633 160.776, 79.045 160.685, 77.115 161.908 M 289.749 169.250 C 291.243 171.129, 295.841 192.268, 296.981 202.500 C 297.532 207.450, 297.987 215.342, 297.992 220.038 C 298.001 229.257, 295.689 250.170, 294.092 255.324 C 292.217 261.374, 290.044 270.377, 290.379 270.712 C 291.088 271.422, 303.213 261.770, 308.724 256.109 C 315.355 249.295, 320.231 241.673, 323.150 233.554 C 324.795 228.980, 325.119 226.043, 324.842 218.199 C 324.544 209.756, 324.083 207.620, 321.282 201.707 C 315.983 190.519, 307.331 180.762, 293.817 170.733 C 289.913 167.837, 288.099 167.175, 289.749 169.250 M 131.279 182.297 C 115.280 189.048, 106.755 201.599, 106.688 218.500 C 106.656 226.513, 107.026 227.823, 112.688 239.755 C 114.576 243.735, 124.990 252.197, 131.053 254.679 C 134.344 256.027, 138.099 256.497, 145.500 256.487 C 154.221 256.475, 156.231 256.132, 161.218 253.807 C 174.783 247.480, 183.268 234.143, 183.362 219 C 183.468 202.050, 174.698 188.695, 159.453 182.592 C 150.831 179.140, 139.050 179.017, 131.279 182.297 M 224.329 181.877 C 217.774 184.309, 211.017 188.942, 207.106 193.687 C 203.237 198.382, 199.401 207.916, 198.530 215.004 C 196.711 229.820, 205.798 245.671, 220.500 253.326 C 226.145 256.266, 227.151 256.452, 237.500 256.475 C 248.399 256.500, 248.565 256.465, 255.500 252.655 C 265.008 247.433, 266.534 245.823, 271.287 236 C 274.647 229.057, 275.475 226.186, 275.806 220.326 C 276.694 204.605, 267.497 189.879, 252.500 183.008 C 245.403 179.756, 231.543 179.200, 224.329 181.877 M 355.515 182.983 C 353.972 184.689, 353.801 186.192, 354.294 193.733 C 354.609 198.555, 355.384 204.246, 356.016 206.381 C 356.983 209.643, 357.378 210.042, 358.492 208.881 C 360.177 207.124, 365 191.777, 365 188.171 C 365 181.986, 359.260 178.846, 355.515 182.983 M 139.407 187.031 C 129.362 189.022, 120.825 195.584, 116.306 204.786 C 113.927 209.630, 113.505 211.718, 113.533 218.500 C 113.561 225.603, 113.930 227.173, 116.825 232.500 C 121.228 240.605, 122.484 241.955, 129.844 246.491 C 135.874 250.207, 136.595 250.400, 144.425 250.400 C 151.446 250.400, 153.520 249.980, 158.469 247.559 C 169.819 242.006, 176.189 232.593, 176.829 220.429 C 177.675 204.338, 167.814 191.046, 152.327 187.402 C 145.875 185.884, 145.276 185.867, 139.407 187.031 M 229.407 187.369 C 223.113 188.943, 218.230 191.896, 213.786 196.815 C 199.443 212.691, 203.634 236.134, 222.791 247.197 C 228.067 250.244, 229.144 250.488, 237 250.425 C 244.197 250.367, 246.310 249.941, 250.784 247.644 C 260.940 242.431, 267.331 233.842, 269.064 223.081 C 272.520 201.620, 250.762 182.027, 229.407 187.369 M 85 191.559 C 85 192.416, 85.450 192.840, 86 192.500 C 86.550 192.160, 87 191.459, 87 190.941 C 87 190.423, 86.550 190, 86 190 C 85.450 190, 85 190.702, 85 191.559 M 140.326 194.034 C 128.171 196.468, 120.044 206.272, 120.044 218.500 C 120.044 237.420, 140.306 249.489, 156.904 240.456 C 165.563 235.743, 170.217 227.886, 170.179 218.043 C 170.117 202.097, 156.150 190.864, 140.326 194.034 M 226.397 195.907 C 221.309 198.218, 217.687 202.027, 214.475 208.446 C 208.627 220.133, 213.508 234.453, 225.500 240.789 C 235.571 246.111, 248.952 243.547, 256.376 234.873 C 260.518 230.035, 263.397 220.680, 262.411 215.264 C 260.679 205.749, 254.020 197.521, 246.142 195.161 C 240.307 193.412, 231.126 193.760, 226.397 195.907 M 135.380 202.955 C 129.542 206.304, 127 211.005, 127 218.455 C 127 226.537, 130.314 231.794, 137.500 235.110 C 144.705 238.435, 151.339 237.154, 158.228 231.105 C 164.595 225.514, 165.493 213.946, 160.074 207.318 C 153.656 199.469, 144.331 197.822, 135.380 202.955 M 229.500 201.890 C 224.659 204.124, 221.612 207.290, 219.548 212.232 C 217.523 217.078, 217.595 219.901, 219.879 225.167 C 226.118 239.550, 244.790 240.947, 253.330 227.670 C 255.901 223.674, 255.882 213.499, 253.296 209.246 C 248.288 201.011, 238.177 197.886, 229.500 201.890 M 337.214 219.500 C 337.186 222.525, 337.490 225, 337.888 225 C 338.286 225, 341.423 224.051, 344.858 222.891 C 353.079 220.114, 352.842 218.178, 343.991 215.810 C 340.421 214.855, 337.447 214.057, 337.382 214.037 C 337.316 214.017, 337.241 216.475, 337.214 219.500 M 85.465 219.057 C 84.434 220.725, 85.887 225, 87.484 225 C 89.286 225, 91.341 221.331, 90.608 219.422 C 89.973 217.765, 86.419 217.513, 85.465 219.057 M 355.409 234.160 C 353.219 240.619, 352.969 250.693, 354.910 254.327 C 358.285 260.646, 364.635 257.465, 364.331 249.608 C 364.162 245.228, 359.888 231.488, 358.157 229.757 C 357.575 229.175, 356.535 230.840, 355.409 234.160 M 84.446 247.087 C 83.416 248.755, 85.733 250.667, 87.113 249.287 C 88.267 248.133, 87.545 246, 86 246 C 85.515 246, 84.816 246.489, 84.446 247.087 M 324.500 254.616 C 321.750 258.192, 316.238 264.288, 312.250 268.162 C 308.262 272.037, 305 275.515, 305 275.892 C 305 276.712, 316.530 289.967, 318.795 291.750 C 319.832 292.566, 323.957 293, 330.691 293 C 342.904 293, 342.424 293.906, 338.393 278.477 C 336.960 272.990, 335.436 266.925, 335.008 265 C 334.135 261.079, 330.035 247.968, 329.710 248.058 C 329.594 248.089, 327.250 251.041, 324.500 254.616" stroke="none" fill="black" fill-rule="evenodd"/>
</svg>