<svg xmlns="http://www.w3.org/2000/svg" width="394" height="273" viewBox="0 0 394 273" version="1.1">
	<path d="M 318 7.605 C 307.294 9.584, 296.331 15.580, 288 24.015 C 278.338 33.796, 274.505 42.353, 269.556 65.194 C 267.912 72.780, 267.861 72.861, 265.970 70.970 C 263.389 68.389, 259.840 67.622, 253.795 68.338 C 249.164 68.886, 248.423 68.668, 244.628 65.629 C 232.837 56.186, 214.804 48.142, 196.886 44.333 C 184.093 41.614, 154.728 41.868, 142.307 44.805 C 118.604 50.411, 100.653 59.929, 83.799 75.828 C 64.679 93.865, 49.523 122.044, 44.981 148 C 43.911 154.115, 43.593 154.654, 39.609 157.095 C 34.009 160.526, 31.629 165.514, 32.216 172.588 C 32.627 177.549, 32.486 177.968, 30.078 178.927 C 28.660 179.491, 24.397 180.433, 20.605 181.019 C 16.813 181.605, 12.899 182.519, 11.906 183.050 C 9.069 184.569, 7 188.163, 7 191.575 C 7 204.237, 32.849 213.879, 56.438 210.016 C 59.705 209.481, 62.538 209.205, 62.735 209.402 C 62.932 209.598, 57.458 215.307, 50.572 222.088 C 42.589 229.949, 37.497 235.799, 36.525 238.229 C 32.849 247.417, 36.315 256.128, 45.210 260.054 C 49.837 262.096, 52.130 262.396, 63.500 262.444 C 78.685 262.509, 87.386 260.717, 98.958 255.138 C 110.200 249.719, 118.043 241.434, 126.066 226.500 L 128.752 221.500 143.626 220.879 C 167.750 219.873, 188.880 214.473, 210.998 203.660 L 220 199.260 219.984 203.880 C 219.963 210.161, 218.064 217.477, 213.120 230.319 C 206.393 247.793, 207.247 257.881, 215.952 263.747 C 220.086 266.533, 228.894 266.804, 235.230 264.339 C 245.872 260.200, 266.023 243.213, 277.151 229 C 282.236 222.504, 288.656 211.513, 291.127 205.072 C 299.466 183.333, 297.725 159.023, 286.831 145.075 L 284.936 142.649 288.637 138.860 C 295.425 131.908, 304.260 128.194, 322.874 124.468 C 340.347 120.971, 348.440 118.457, 356 114.179 C 369.948 106.286, 378.943 95.927, 384.220 81.682 C 388.239 70.832, 388.610 57.023, 385.147 47.126 C 378.828 29.064, 367.935 17.611, 350.726 10.936 C 343.578 8.164, 341.059 7.706, 331.500 7.445 C 325.450 7.279, 319.375 7.351, 318 7.605 M 317 20.067 C 299.074 24.745, 286.787 38.999, 282.579 60 C 280.211 71.821, 278.222 78.455, 274.820 85.889 C 273.211 89.403, 271.501 94.357, 271.019 96.898 C 270.299 100.696, 265.309 115.586, 262.575 122.095 C 261.910 123.679, 264.396 126.024, 272.863 131.799 C 276.127 134.026, 276.301 134.042, 278.367 132.299 C 279.540 131.310, 280.725 130.250, 281 129.944 C 281.275 129.638, 283.682 127.741, 286.348 125.729 C 292.408 121.155, 303.952 116.648, 315.016 114.536 C 331.615 111.368, 340.597 108.841, 347.738 105.331 C 355.096 101.714, 364.405 94.465, 363.523 93.038 C 363.257 92.606, 359.317 92.048, 354.769 91.797 C 348.491 91.451, 345.296 90.724, 341.500 88.779 C 335.565 85.737, 332.694 82.826, 333.174 80.336 C 333.725 77.473, 336.804 77.574, 342.879 80.652 C 347.747 83.118, 349.639 83.500, 357 83.500 C 371.884 83.500, 375.747 79.753, 375.923 65.144 C 376.019 57.197, 373.707 48.030, 369.939 41.415 C 363.818 30.671, 350.636 21.396, 338.109 19.021 C 330.506 17.579, 325.605 17.822, 317 20.067 M 325.751 44.750 C 321.951 48.733, 320.916 52.111, 322.138 56.538 C 323.700 62.194, 327.325 65, 333.069 65 C 343.919 65, 348.604 53.140, 340.978 44.976 C 338.623 42.456, 337.445 42, 333.286 42 C 329.230 42, 327.917 42.479, 325.751 44.750 M 333.330 48.583 C 332.505 50.732, 336.141 54.267, 338.317 53.432 C 340.511 52.590, 340.454 50.721, 338.171 48.655 C 335.869 46.571, 334.112 46.545, 333.330 48.583 M 158 53.637 C 131.401 56.917, 105.991 69.200, 89.240 86.874 L 84.979 91.369 89.240 94.037 C 96.606 98.649, 112.385 107.777, 115.187 109.046 C 118.504 110.549, 127.265 107.839, 166.332 93.223 L 174.164 90.293 177.514 80.896 C 179.357 75.728, 182.222 67.800, 183.882 63.278 C 186.087 57.268, 186.580 54.859, 185.715 54.324 C 184.378 53.497, 163.357 52.977, 158 53.637 M 192.834 59.750 C 189.660 67.422, 182.136 87.590, 181.504 90.119 C 180.913 92.480, 182.617 94.535, 198.845 111.036 C 219.852 132.396, 217.786 131.907, 227.293 117.765 C 234.296 107.348, 240.355 94.029, 242.994 83.248 C 243.751 80.157, 243.510 79.772, 238.145 75.491 C 235.040 73.013, 228.632 68.979, 223.904 66.526 C 215.824 62.333, 198.912 56, 195.795 56 C 195.019 56, 193.687 57.688, 192.834 59.750 M 252.784 81.750 C 251.945 82.713, 250.266 86.200, 249.053 89.500 C 247.841 92.800, 246.261 96.850, 245.544 98.500 C 244.826 100.150, 243.236 103.975, 242.010 107 C 240.784 110.025, 238.461 114.300, 236.848 116.500 C 235.236 118.700, 232.557 122.616, 230.896 125.202 C 222.984 137.518, 203.001 153.605, 184.513 162.543 C 160.902 173.958, 139.200 179, 113.686 179 C 93.764 179, 81.327 176.941, 62.335 170.498 C 55.042 168.024, 48.393 166, 47.560 166 C 46.727 166, 45.309 167.125, 44.408 168.500 C 42.888 170.820, 42.891 171.184, 44.449 173.563 C 48.788 180.184, 67.639 187.515, 89.500 191.082 C 100.154 192.820, 105.207 193.111, 117.500 192.695 C 176.610 190.692, 229.703 160.571, 251.806 116.500 C 259.349 101.462, 263.444 82.152, 259.418 80.607 C 256.660 79.549, 254.358 79.945, 252.784 81.750 M 168.500 99.577 C 164.650 100.895, 152.275 105.245, 141 109.243 L 120.500 116.513 119.294 124.506 C 118.631 128.903, 117.578 136.550, 116.954 141.500 C 116.330 146.450, 115.185 153.811, 114.410 157.857 C 112.614 167.228, 112.612 171.637, 114.403 172.324 C 118.877 174.041, 148.489 168.875, 162.688 163.900 C 180.273 157.739, 198.763 147.356, 208.814 137.999 L 212.129 134.913 206.134 128.207 C 202.837 124.518, 194.596 116.028, 187.820 109.340 L 175.500 97.180 168.500 99.577 M 79.447 98.765 C 75.664 101.405, 65.197 120.855, 61.097 132.861 C 56.591 146.062, 54.831 158.819, 57.250 160.757 C 59.650 162.680, 79.771 168.892, 88.600 170.437 C 98.196 172.115, 105.601 172.454, 106.347 171.248 C 106.602 170.835, 107.566 163.747, 108.488 155.498 C 109.410 147.249, 110.559 138.676, 111.042 136.446 C 111.525 134.217, 112.227 128.720, 112.601 124.231 L 113.282 116.069 110.391 114.479 C 108.801 113.605, 103.900 110.840, 99.500 108.336 C 85.992 100.647, 81.205 97.999, 80.845 98.015 C 80.655 98.024, 80.026 98.361, 79.447 98.765 M 250.436 140.250 C 247.764 143.688, 245.335 146.725, 245.039 147 C 244.743 147.275, 242.817 149.595, 240.761 152.155 L 237.022 156.810 238.636 161.155 C 239.523 163.545, 240.306 168.462, 240.375 172.082 C 240.488 178.034, 240.080 179.469, 236.112 187.082 C 231.967 195.034, 231.684 196.109, 230.991 206.500 C 230.331 216.400, 227.555 228.143, 225.081 231.500 C 221.524 236.327, 219.552 250.550, 222.026 253.532 C 227.435 260.048, 253.535 241.579, 269.429 219.989 C 279.633 206.128, 285.613 188.309, 284.743 174.359 C 283.992 162.318, 279.966 154.122, 270.290 144.930 C 263.674 138.646, 257.573 134.014, 255.898 134.004 C 255.566 134.002, 253.109 136.813, 250.436 140.250 M 222.934 168.400 C 207.605 178.807, 202.699 181.753, 193.340 186.167 C 187.610 188.870, 178.109 192.692, 172.226 194.661 C 161.631 198.206, 140.942 202.940, 135.867 202.979 C 133.477 202.998, 132.079 204.889, 132.014 208.189 C 131.956 211.085, 153.515 209.664, 172.022 205.551 C 191.242 201.279, 215.477 190.179, 224.703 181.421 C 228.638 177.686, 228.999 176.929, 228.985 172.421 C 228.962 165.286, 228.234 164.802, 222.934 168.400 M 39.290 187.110 C 37.865 188.535, 26.862 192, 23.760 192 C 19.201 192, 20.910 194.253, 27.066 196.358 C 34.312 198.836, 48.044 199.596, 56.557 197.989 L 63.321 196.713 57.410 194.570 C 54.160 193.392, 48.943 191.041, 45.817 189.346 C 42.692 187.652, 39.755 186.645, 39.290 187.110 M 80.082 208.167 C 77.132 211.650, 69.207 219.952, 62.471 226.615 C 48.465 240.468, 46.532 242.999, 47.377 246.366 C 48.496 250.825, 58.788 252.704, 72.658 250.980 C 84.279 249.536, 92.222 246.725, 99.649 241.429 C 106.657 236.430, 110.538 231.881, 114.510 224.007 C 116.810 219.446, 121 207.111, 121 204.900 C 121 204.567, 114.588 203.990, 106.750 203.619 C 98.912 203.247, 90.913 202.694, 88.973 202.388 C 85.632 201.863, 85.161 202.168, 80.082 208.167" stroke="none" fill="black" fill-rule="evenodd"/>
</svg>