<svg xmlns="http://www.w3.org/2000/svg" width="467" height="270" viewBox="0 0 467 270" version="1.1">
	<path d="M 247 9.387 C 229.278 14.775, 216.722 22.918, 200 39.869 C 192.916 47.050, 185.550 55.626, 183 59.661 L 178.500 66.783 170.500 67.423 C 141.484 69.746, 115.266 74.396, 94 80.992 C 48.798 95.013, 9.681 116.524, 7.414 128.606 C 5.683 137.832, 11.172 148.855, 24.454 162.829 C 31.424 170.163, 41.145 177.572, 49 181.536 C 55.384 184.759, 64.940 185.752, 74.500 184.187 C 77.800 183.647, 80.636 183.332, 80.803 183.488 C 80.969 183.644, 79.571 184.720, 77.696 185.879 C 72.894 188.847, 69 192.958, 69 195.059 C 69 200.242, 85.807 209.615, 109 217.365 C 133.153 225.437, 155.931 228.998, 183.423 228.999 L 197.345 229 204.237 236.479 C 218.404 251.854, 242.541 263.933, 259.203 263.985 C 265.305 264.004, 268.406 262.519, 270.541 258.553 C 272.210 255.455, 272.191 255.133, 270.024 249.421 C 264.425 234.662, 260.087 221.480, 260.762 221.272 C 261.168 221.146, 268.249 218.997, 276.498 216.496 C 284.747 213.996, 295.659 210.390, 300.747 208.484 L 309.999 205.018 315.068 208.137 C 321.491 212.089, 333.710 216, 339.634 216 C 345.347 216, 349.731 213.503, 350.547 209.784 C 351.260 206.541, 350.494 200.875, 348.290 193.076 C 346.552 186.928, 346.593 186.861, 354.500 182.778 C 356.700 181.643, 361.742 178.528, 365.705 175.857 C 369.668 173.185, 373.358 171, 373.906 171 C 374.455 171, 376.884 174.037, 379.305 177.750 C 386.244 188.391, 400.004 200.411, 412.500 206.747 C 422.714 211.925, 438.159 214.591, 442.986 212.008 C 444.005 211.462, 445.339 209.502, 445.950 207.652 C 447.254 203.701, 446.874 202.470, 440.365 189.537 C 435.374 179.620, 431.034 167.670, 429.095 158.500 C 428.397 155.200, 427.141 149.459, 426.303 145.741 C 424.930 139.646, 424.934 138.659, 426.345 135.685 C 429.770 128.468, 434.703 116.183, 436.457 110.500 C 440.736 96.645, 447.245 84.161, 457.545 70.059 C 461.119 65.165, 461.604 62.277, 459.506 58.380 C 456.999 53.725, 453.021 52.596, 444.346 54.076 C 422.949 57.727, 400.424 73.244, 385.056 94.919 C 381.320 100.189, 377.192 106.448, 375.882 108.830 C 373.516 113.130, 373.469 113.156, 368.893 112.644 C 366.359 112.360, 360.959 110.845, 356.893 109.277 L 349.500 106.425 349.836 97.463 C 350.140 89.377, 349.941 88.158, 347.803 85 C 345.724 81.928, 344.847 81.462, 340.639 81.192 C 335.192 80.842, 326.175 84.521, 318.127 90.377 L 313.500 93.744 294.980 87.622 C 284.795 84.255, 274.282 80.873, 271.620 80.107 C 265.764 78.422, 264.284 75.666, 263.360 64.725 C 262.476 54.267, 264.325 43.621, 269.564 29 C 273.106 19.118, 273.491 15.641, 271.433 12.156 C 270.463 10.514, 268.598 8.682, 267.288 8.085 C 263.526 6.371, 255.153 6.909, 247 9.387 M 254.500 19.164 C 250.435 19.693, 245.276 21.554, 238.500 24.936 C 220.337 34.002, 206.720 46.166, 192.871 65.693 C 188.505 71.850, 184.160 77.130, 183.216 77.429 C 182.272 77.727, 173.607 78.636, 163.961 79.450 C 133.220 82.042, 115.095 85.795, 86.391 95.510 C 71.571 100.526, 66.647 102.562, 46.500 112.002 C 39.400 115.330, 26.406 123.541, 22.189 127.367 L 19.878 129.463 29.189 130.638 C 38.391 131.800, 60.279 136.636, 69 139.436 C 89.730 146.090, 97.571 149.406, 129 164.812 C 139.175 169.799, 149.525 174.603, 152 175.486 C 170.389 182.049, 174.726 182.881, 178.304 180.536 C 180.311 179.222, 181.314 179.098, 182.933 179.964 C 184.070 180.573, 185 181.169, 185 181.290 C 185 182.619, 190.556 196.166, 193.494 202 C 207.250 229.314, 230.202 248.217, 255.250 252.861 C 257.863 253.345, 260 253.612, 260 253.453 C 260 253.294, 258.924 250.990, 257.609 248.332 C 254.459 241.965, 250.306 229.339, 248.473 220.555 C 246.716 212.129, 246.511 191.167, 248.152 187.566 C 249.668 184.239, 252.505 183.446, 255.612 185.481 C 258.619 187.451, 263.172 187.089, 282.500 183.341 C 305.516 178.878, 319.750 175.050, 347.660 165.821 C 365.927 159.781, 375.794 156.982, 377.402 157.386 C 378.986 157.784, 381.688 160.813, 385.305 166.245 C 388.327 170.785, 392.647 176.597, 394.905 179.159 C 402.956 188.297, 416.369 196.732, 429 200.600 C 431.475 201.358, 433.597 201.983, 433.716 201.989 C 433.834 201.995, 431.956 198.063, 429.541 193.250 C 427.126 188.438, 424.251 181.800, 423.151 178.500 C 419.816 168.491, 415.143 148.898, 414.433 141.949 C 413.844 136.174, 414.060 134.812, 416.262 130.449 C 417.635 127.727, 421.780 117.400, 425.472 107.500 C 432.201 89.461, 440.037 73.596, 444.708 68.559 C 446.080 67.080, 447.044 65.726, 446.851 65.552 C 446.152 64.921, 435.373 68.143, 430.076 70.567 C 413.056 78.355, 397.262 94.076, 386.500 113.941 C 379.157 127.495, 376.432 127.698, 345.323 116.998 C 333.870 113.059, 310.550 105.106, 293.500 99.325 C 276.450 93.544, 261.301 88.106, 259.835 87.242 C 254.913 84.338, 252 74.283, 252.001 60.201 C 252.002 49.337, 253.577 40.545, 257.876 27.408 C 259.479 22.509, 260.726 18.473, 260.646 18.441 C 260.565 18.409, 257.800 18.734, 254.500 19.164 M 335.500 93.231 C 333.850 93.822, 331.035 95.292, 329.244 96.499 L 325.988 98.692 331.173 100.367 C 334.131 101.322, 336.734 101.666, 337.232 101.168 C 337.964 100.436, 339.367 91.840, 338.716 92.079 C 338.597 92.122, 337.150 92.641, 335.500 93.231 M 101.309 116.197 C 94.542 117.957, 90.983 128, 94.886 134.316 C 98.913 140.832, 108.408 141.858, 114.112 136.393 C 116.641 133.970, 117 132.911, 117 127.869 C 117 123.318, 116.522 121.556, 114.721 119.462 C 112.090 116.404, 106.110 114.948, 101.309 116.197 M 106.357 122.513 C 105.969 123.524, 106.552 124.996, 107.857 126.302 C 109.884 128.329, 110.080 128.349, 111.729 126.699 C 113.070 125.359, 113.219 124.568, 112.381 123.231 C 110.904 120.876, 107.156 120.429, 106.357 122.513 M 149.313 128.626 C 148.970 129.520, 149.209 131.690, 149.845 133.447 C 151.732 138.667, 151.292 149.491, 149 154.236 C 146.363 159.694, 146.469 161, 149.546 161 C 155.884 161, 159.535 141.182, 155.027 131.250 C 153.049 126.893, 150.438 125.694, 149.313 128.626 M 162.488 130.020 C 162.141 130.580, 162.406 132.700, 163.076 134.730 C 165.257 141.339, 164.635 151.236, 161.662 157.210 C 159.271 162.014, 159.179 162.611, 160.653 163.711 C 166.386 167.989, 172.977 150.077, 170.161 137.875 C 168.515 130.745, 164.549 126.685, 162.488 130.020 M 176.560 132.903 C 176.253 133.400, 176.380 136.572, 176.842 139.951 C 177.847 147.302, 176.690 155.727, 173.933 161.131 C 170.719 167.431, 173.822 169.377, 178.403 163.933 C 183.923 157.373, 185.668 140.721, 181.502 134.362 C 179.928 131.961, 177.572 131.265, 176.560 132.903 M 20.019 136.678 C 20.096 144.087, 41.903 165.969, 55.244 172.024 C 63.223 175.646, 76.406 173.749, 94.278 166.407 C 101.371 163.493, 103.338 163.036, 104.528 164.023 C 109.556 168.196, 101.855 180.861, 87.045 192.775 L 84.590 194.750 88.634 196.813 C 112.227 208.850, 143.340 216.559, 172.791 217.667 L 190.082 218.318 186.041 211.309 C 183.818 207.454, 182 204.037, 182 203.715 C 182 203.393, 181.475 201.863, 180.833 200.315 C 180.192 198.767, 178.927 195.482, 178.023 193.017 C 176.510 188.888, 175.988 188.429, 171.440 187.224 C 160.553 184.340, 144.207 178.749, 140.040 176.485 C 138.643 175.726, 133.450 173.137, 128.500 170.731 C 123.550 168.326, 118.600 165.855, 117.500 165.241 C 112.725 162.577, 92.883 153.567, 85.047 150.506 C 66.014 143.071, 44.304 137.577, 25.750 135.500 C 20.614 134.925, 20.002 135.051, 20.019 136.678 M 42.309 144.636 C 41.522 146.687, 43.160 149.391, 45.463 149.844 C 48.508 150.442, 49.196 148.519, 46.956 145.671 C 44.544 142.604, 43.204 142.306, 42.309 144.636 M 343.500 173.016 C 333.152 176.727, 322.308 179.928, 316.746 180.913 C 313.582 181.474, 310.117 182.402, 309.046 182.975 C 307.138 183.997, 275.352 190.196, 265.500 191.468 C 256.952 192.572, 257 192.532, 257 198.442 C 257 201.362, 257.270 205.102, 257.601 206.754 L 258.202 209.758 263.851 208.329 C 283.228 203.430, 316.559 190.014, 338 178.484 C 344.875 174.787, 350.688 171.591, 350.917 171.381 C 351.851 170.526, 348.198 171.332, 343.500 173.016 M 328.507 195.760 C 325.761 197.267, 323.642 198.950, 323.798 199.500 C 324.104 200.581, 329.252 202.576, 335.245 203.936 C 338.910 204.767, 338.980 204.728, 338.501 202.143 C 337.419 196.304, 336.286 193.488, 334.928 193.260 C 334.143 193.128, 331.253 194.253, 328.507 195.760" stroke="none" fill="black" fill-rule="evenodd"/>
</svg>