<svg xmlns="http://www.w3.org/2000/svg" width="190" height="270" viewBox="0 0 190 270" version="1.1">
	<path d="M 93.984 4.844 C 89.670 7.128, 84.420 16.998, 83.251 25.023 L 82.454 30.500 78.477 30.273 C 61.886 29.324, 57.463 29.539, 54.292 31.449 C 52.528 32.512, 50.560 34.648, 49.919 36.196 C 48.119 40.540, 49.278 49.019, 52.572 55.614 C 54.182 58.838, 55.637 61.779, 55.804 62.150 C 55.971 62.521, 53.394 64.272, 50.076 66.040 C 43.209 69.700, 37.330 75.001, 35.865 78.854 C 33.397 85.345, 38.494 92.725, 49.849 99.103 L 56.092 102.609 52.915 106.555 C 48.724 111.761, 46.049 117.708, 46.022 121.882 C 45.990 126.880, 51.206 131.381, 60.100 134.030 C 68.649 136.576, 69.053 138.607, 61.493 141.040 C 53.372 143.653, 51.377 144.705, 49.131 147.560 C 45.113 152.668, 47.055 160.408, 54.296 168.146 L 57.708 171.792 50.210 172.495 C 44.107 173.067, 42.248 173.661, 40.222 175.687 C 37.948 177.961, 37.787 178.690, 38.357 184.138 L 38.980 190.101 36.117 188.410 C 32.322 186.168, 28.468 187.194, 26.518 190.965 C 25.683 192.580, 25 194.598, 25 195.450 C 25 197.560, 24.692 197.449, 21 194 C 19.234 192.350, 16.997 191, 16.030 191 C 15.063 191, 11.680 193.450, 8.514 196.445 C 3.489 201.196, 2.841 202.232, 3.429 204.573 C 6.731 217.729, 33.303 232.341, 58.118 234.648 C 61.804 234.990, 65.232 235.547, 65.737 235.885 C 66.242 236.223, 67.611 241.624, 68.780 247.886 C 71.912 264.660, 74.244 266.306, 95.039 266.431 C 104.481 266.487, 107.071 266.178, 109.289 264.727 C 112.613 262.553, 112.925 258.108, 110.039 254.054 C 108.550 251.964, 108.222 250.360, 108.678 247.400 C 109.671 240.950, 110.549 240, 115.516 240 C 120.411 240, 120.284 239.805, 121.493 249.162 C 122.604 257.752, 129.173 261.172, 144.859 261.327 C 159.889 261.476, 165.208 257.006, 159.684 248.867 C 157.839 246.148, 157.540 244.849, 158.211 242.477 C 158.674 240.840, 159.966 235.049, 161.081 229.609 C 162.197 224.169, 164.130 217.644, 165.378 215.109 C 166.626 212.574, 168.448 207.800, 169.427 204.500 C 170.794 199.892, 171.936 198.032, 174.348 196.483 C 180.363 192.620, 181.562 186.563, 178.594 175.032 C 176.283 166.051, 171.736 157.494, 163.256 146.172 C 159.272 140.853, 156.035 136.275, 156.063 136 C 156.090 135.725, 159.293 133.981, 163.181 132.125 C 172.693 127.584, 181 119.290, 183.961 111.376 C 188.438 99.408, 187.562 91.625, 180.429 80 C 178.052 76.126, 176.852 72.726, 176.371 68.500 C 173.344 41.930, 155.015 23.959, 127.409 20.495 C 122.768 19.913, 121.865 19.342, 117.194 14.035 C 112.081 8.226, 103.719 3, 99.538 3 C 98.400 3, 95.901 3.830, 93.984 4.844 M 93.759 9.750 C 89.833 13.879, 85.170 27, 87.629 27 C 87.975 27, 91.402 25.866, 95.244 24.480 C 99.086 23.094, 105.413 21.509, 109.305 20.957 C 113.196 20.405, 116.632 19.692, 116.940 19.372 C 117.730 18.551, 108.245 10.344, 104.397 8.518 C 99.719 6.298, 96.710 6.647, 93.759 9.750 M 103.056 25.610 C 88.832 28.719, 73.988 38.956, 67.123 50.392 C 65.265 53.486, 62.584 59.051, 61.164 62.758 C 58.813 68.896, 58.583 70.798, 58.596 84 L 58.610 98.500 64.055 113 L 69.500 127.500 69.500 139.500 C 69.500 150.572, 69.240 152.234, 66.136 161 C 60.185 177.805, 54.568 186.904, 46.236 193.235 C 37.334 200, 32.976 201.386, 19.250 201.819 C 12.481 202.033, 7 202.629, 7 203.152 C 7 205.413, 10.266 210.064, 14.422 213.723 C 24.360 222.470, 41.870 229.279, 60.184 231.519 L 65.869 232.214 64.434 227.448 C 62.626 221.439, 62.631 220, 64.461 220 C 66.505 220, 70.244 233.850, 73.505 253.500 C 74.413 258.970, 76.290 260.711, 82.718 262.045 C 89.329 263.418, 106.446 262.958, 108.037 261.365 C 108.881 260.519, 108.760 259.436, 107.559 257.115 C 106.673 255.402, 105.510 254, 104.974 254 C 103.529 254, 103.864 250.618, 106.412 239.500 C 107.972 232.695, 109.151 229.500, 110.102 229.500 C 111.103 229.500, 111.417 230.565, 111.207 233.250 L 110.913 237 115.207 236.983 C 122.407 236.954, 138.203 233.073, 144.369 229.818 C 149.597 227.058, 158.471 219.327, 161.017 215.313 C 165.258 208.625, 168.361 195.923, 167.690 188 C 166.490 173.822, 163.106 160.878, 156.769 146.221 C 153.713 139.154, 152.369 137.048, 151.128 137.384 C 140.091 140.376, 130.500 141.142, 130.500 139.031 C 130.500 137.990, 132.543 137.218, 137.500 136.385 C 153.862 133.637, 165.231 128.673, 173.031 120.874 C 184.348 109.557, 185.968 95.143, 177.415 81.868 C 175.406 78.750, 173.854 74.854, 173.519 72.092 C 172.627 64.728, 168.043 50.901, 164.781 45.734 C 158.716 36.130, 145.941 27.788, 133.201 25.113 C 126.107 23.623, 111.003 23.872, 103.056 25.610 M 57.251 34.491 C 52.540 36.538, 51.334 39.842, 52.942 46.290 C 53.657 49.156, 55.182 53.210, 56.333 55.299 L 58.424 59.099 61.679 52.642 C 63.470 49.091, 67.424 43.496, 70.467 40.209 C 75.676 34.583, 75.868 34.198, 73.750 33.630 C 69.758 32.561, 60.592 33.038, 57.251 34.491 M 49.390 70.599 C 37.482 78.558, 36.265 82.771, 43.809 89.934 C 46.454 92.445, 50.032 95.300, 51.760 96.278 L 54.903 98.056 54.903 84.011 C 54.903 76.286, 55.177 69.523, 55.511 68.983 C 56.667 67.112, 53.263 68.011, 49.390 70.599 M 155.655 73.829 C 153.420 76.299, 153.553 81.286, 155.912 83.420 C 158.733 85.974, 163.185 85.130, 164.805 81.734 C 167.930 75.184, 160.353 68.638, 155.655 73.829 M 108.189 79.039 C 105.447 81.593, 105.258 87.018, 107.829 89.345 C 110.139 91.435, 114.380 91.477, 116.429 89.429 C 118.663 87.194, 118.426 81.426, 116 79 C 113.450 76.450, 110.954 76.462, 108.189 79.039 M 135.624 89.538 C 135.284 90.423, 135.681 91.324, 136.560 91.661 C 138.517 92.412, 139.409 91.509, 138.655 89.543 C 137.896 87.565, 136.382 87.562, 135.624 89.538 M 144.667 88.667 C 143.399 89.934, 144.008 91, 146 91 C 147.111 91, 148 90.333, 148 89.500 C 148 87.978, 145.885 87.449, 144.667 88.667 M 150.102 103.586 C 145.587 106.794, 136.982 106.908, 129.882 103.854 C 126.310 102.317, 124.586 102.014, 123.813 102.787 C 122.472 104.128, 127.657 107.519, 133.500 109.122 C 141.546 111.331, 155.915 107.395, 156.812 102.737 C 157.288 100.265, 154.231 100.652, 150.102 103.586 M 54.582 110.304 C 50.241 115.995, 48.725 120.659, 50.217 123.732 C 51.486 126.344, 57.925 130.196, 63.250 131.528 C 65.583 132.112, 66 131.904, 66 130.156 C 66 128.141, 58.218 107, 57.477 107 C 57.271 107, 55.968 108.487, 54.582 110.304 M 57.324 145.998 C 50.784 148.906, 49.452 153.061, 52.903 159.790 C 53.949 161.830, 55.939 164.558, 57.324 165.850 L 59.842 168.200 62.921 158.588 C 66.705 146.777, 66.865 143.973, 63.750 144.071 C 62.513 144.109, 59.621 144.977, 57.324 145.998 M 73.942 154.750 C 72.165 160.537, 71.552 182.176, 72.975 188.884 C 75.487 200.718, 81.427 208, 88.571 208 C 92.121 208, 98 203.876, 98 201.386 C 98 200.597, 99.228 199.483, 100.730 198.913 C 102.231 198.342, 103.799 197.341, 104.214 196.687 C 105.452 194.741, 105.103 190.518, 103.532 188.441 C 101.731 186.060, 101.531 175.357, 103.117 166.249 C 103.930 161.582, 103.934 159.534, 103.134 158.734 C 102.529 158.129, 101.761 157.905, 101.429 158.237 C 100.280 159.386, 99.074 166.538, 98.398 176.211 C 97.831 184.321, 97.990 186.336, 99.360 188.426 C 101.671 191.954, 101.495 195, 98.979 195 C 97.724 195, 96.512 196.043, 95.785 197.750 C 93.732 202.568, 91.924 204, 87.896 204 C 84.781 204, 83.653 203.411, 81.593 200.711 C 76.157 193.584, 73.872 176.699, 76.389 162.250 C 78.350 150.990, 78.350 151, 76.547 151 C 75.739 151, 74.582 152.666, 73.942 154.750 M 164.264 155.250 C 167.582 163.919, 171 180.262, 171 187.456 C 171 191.055, 171.417 194, 171.927 194 C 172.438 194, 173.835 192.762, 175.032 191.250 C 176.825 188.987, 177.119 187.615, 176.697 183.500 C 176.009 176.793, 172.515 167.008, 168.257 159.859 C 165.044 154.466, 163.110 152.233, 164.264 155.250 M 44.250 177.031 C 42.523 177.725, 42 178.742, 42 181.403 C 42 183.310, 42.448 186.047, 42.995 187.486 C 43.975 190.064, 44.023 190.076, 46.398 188.301 C 48.773 186.526, 55 178.149, 55 176.729 C 55 175.710, 46.976 175.936, 44.250 177.031 M 29.557 193.223 C 27.794 195.739, 27.521 198, 28.980 198 C 30.860 198, 38 194.776, 38 193.927 C 38 192.844, 34.613 191, 32.622 191 C 31.792 191, 30.413 192, 29.557 193.223 M 13.667 195.667 C 12.159 197.174, 13.205 198, 16.622 198 C 19.729 198, 20.068 197.786, 19 196.500 C 17.712 194.949, 14.834 194.499, 13.667 195.667 M 153.208 228.070 C 146.326 232.782, 139.293 236.014, 131.638 237.982 L 124.500 239.817 124.740 245.157 C 125.077 252.645, 127.228 255.181, 134.598 256.781 C 140.351 258.030, 152.741 257.855, 156.250 256.474 C 158.674 255.521, 158.437 252.619, 155.673 249.406 L 153.345 246.700 155.709 237.600 C 158.910 225.277, 158.663 224.335, 153.208 228.070" stroke="none" fill="black" fill-rule="evenodd"/>
</svg>