<svg xmlns="http://www.w3.org/2000/svg" width="203" height="270" viewBox="0 0 203 270" version="1.1">
	<path d="M 94.355 3.992 C 89.730 5.858, 83.017 18.431, 82.985 25.287 C 82.957 31.070, 82.208 31.434, 73.320 29.991 C 54.183 26.883, 45.407 33.454, 49.525 47.808 C 50.423 50.939, 52.247 55.380, 53.579 57.678 C 54.910 59.976, 56 62.106, 56 62.411 C 56 62.717, 53.638 64.163, 50.750 65.625 C 29.806 76.231, 29.825 88.778, 50.800 99.401 L 56.101 102.085 53.184 105.792 C 47.975 112.412, 45.565 118.209, 45.885 123.350 C 46.107 126.925, 52.213 131.631, 59.801 134.075 C 64.770 135.675, 66.977 136.866, 66.783 137.843 C 66.628 138.628, 63.428 140.265, 59.674 141.480 C 45.001 146.231, 42.814 154.313, 52.902 166.500 L 57.041 171.500 50.271 172.261 C 46.255 172.712, 42.483 173.779, 41 174.884 C 38.804 176.520, 38.501 177.495, 38.510 182.889 C 38.519 187.992, 38.265 188.919, 37.010 188.374 C 30.937 185.734, 26.994 187.458, 24.952 193.646 L 23.828 197.051 21.930 194.638 C 18.239 189.945, 11.181 190.704, 9.508 195.973 C 9.155 197.088, 8.231 198, 7.456 198 C 6.680 198, 5.320 199.108, 4.433 200.462 C -2.724 211.385, 28.848 231.675, 57.583 234.619 C 61.109 234.980, 64.642 235.776, 65.433 236.388 C 66.268 237.033, 67.734 242.328, 68.926 249 C 71.203 261.750, 72.059 263.078, 79.345 265.164 C 81.630 265.818, 88.468 266.386, 94.539 266.427 C 103.587 266.487, 106.077 266.174, 108.343 264.692 C 112.298 262.105, 112.636 260.262, 110.048 255.384 C 108.263 252.019, 107.918 250.253, 108.470 247.307 C 109.657 240.982, 110.591 240, 115.419 240 C 120.115 240, 120.956 241.111, 120.986 247.349 C 121.010 252.328, 123.764 256.590, 128.271 258.622 C 131.623 260.134, 134.848 260.500, 144.804 260.500 C 157.161 260.500, 157.176 260.497, 159.623 257.652 C 162.329 254.506, 162.165 252.383, 158.851 247.703 C 156.993 245.079, 156.963 244.616, 158.361 240.203 C 159.181 237.616, 160.589 231.713, 161.490 227.085 C 162.391 222.457, 164.060 216.843, 165.199 214.611 C 170.797 203.636, 172.334 189.963, 169.483 176.500 C 168.667 172.651, 168 169.018, 168 168.429 C 168 167.839, 170.159 166.381, 172.799 165.188 C 175.438 163.995, 179.974 160.990, 182.880 158.510 C 186.396 155.509, 189.095 154, 190.947 154 C 192.478 154, 194.926 153.059, 196.388 151.910 C 198.682 150.105, 199.031 149.115, 198.946 144.660 C 198.891 141.822, 199.315 137.984, 199.887 136.132 C 201.356 131.379, 199.577 123.851, 196.182 120.451 C 193.050 117.315, 190.024 116, 185.935 116 C 182.434 116, 182.437 116.027, 185.106 108.465 C 186.756 103.790, 187.065 101.310, 186.532 97 C 186.158 93.975, 185.986 90.150, 186.151 88.500 C 187.457 75.364, 184.562 65.745, 176.951 57.937 C 174.572 55.497, 171.640 51.475, 170.435 49 C 162.998 33.725, 148.178 23.680, 129.134 21.008 C 122.941 20.139, 121.428 19.538, 119.634 17.237 C 111.291 6.536, 101.180 1.238, 94.355 3.992 M 93.698 9.023 C 91.215 10.976, 87.983 18.070, 86.552 24.706 L 85.861 27.911 93.680 25.065 C 97.981 23.499, 104.856 21.701, 108.958 21.068 C 113.060 20.435, 116.563 19.771, 116.742 19.591 C 116.922 19.412, 114.985 17.211, 112.439 14.701 C 104.696 7.068, 98.551 5.206, 93.698 9.023 M 102.028 26.066 C 81.651 31.401, 66.835 44.890, 60.363 64 C 58.864 68.424, 58.516 72.336, 58.581 84 C 58.660 98.122, 58.759 98.774, 62.408 109 C 70.318 131.172, 70.217 130.724, 69.662 141 C 69.299 147.725, 68.287 153.129, 66.199 159.500 C 61.072 175.142, 57.379 181.717, 49.047 190.033 C 39.538 199.524, 35.401 201.125, 18.750 201.762 C 12.287 202.009, 7 202.636, 7 203.155 C 7 205.278, 10.105 209.862, 13.811 213.210 C 23.932 222.354, 40.747 228.979, 60.250 231.507 C 65.673 232.210, 65.752 232.048, 63.537 224.750 C 62.196 220.330, 62.219 220, 63.865 220 C 65.128 220, 66.096 221.502, 67.248 225.250 C 69.039 231.076, 72.442 246.952, 73.446 254.159 C 74 258.137, 74.563 259.038, 77.298 260.328 C 83.992 263.486, 102.444 264.315, 106.754 261.652 C 108.671 260.467, 108.244 258.079, 105.542 254.867 C 104.190 253.260, 103.342 251.272, 103.658 250.449 C 103.974 249.626, 105.203 244.576, 106.390 239.226 C 107.928 232.291, 108.971 229.500, 110.024 229.500 C 111.121 229.500, 111.416 230.462, 111.172 233.250 C 110.863 236.777, 111.012 237, 113.672 236.999 C 118.594 236.996, 132.301 234.258, 137.746 232.188 C 145.827 229.118, 151.061 225.686, 156.608 219.821 C 166.425 209.441, 169.176 194.662, 165.045 174.493 C 162.787 163.469, 158.525 150.090, 154.695 142 C 153.523 139.525, 152.521 137.396, 152.468 137.269 C 152.415 137.142, 147.553 138.010, 141.665 139.198 C 133.530 140.839, 130.679 141.079, 129.796 140.196 C 127.989 138.389, 129.173 137.897, 140.012 135.951 C 150.198 134.121, 164.397 128.488, 167.359 125.102 C 168.905 123.334, 168.189 113.789, 166.374 111.974 C 165.735 111.335, 163.395 111.365, 159.646 112.058 C 139.854 115.716, 120.447 98.066, 122.261 78.058 C 123.364 65.890, 132.378 54.032, 143.280 50.404 C 149.071 48.477, 158.942 48.256, 163.389 49.953 C 164.977 50.560, 166.498 50.835, 166.767 50.566 C 167.694 49.639, 160.753 39.945, 156.630 36.407 C 151.543 32.044, 140.288 26.623, 133.201 25.122 C 125.020 23.390, 110.580 23.827, 102.028 26.066 M 57.091 34.090 C 53.915 35.360, 52.071 37.904, 52.032 41.068 C 51.986 44.804, 54.739 53.460, 56.759 55.929 C 58.489 58.043, 58.518 58.022, 61.359 52.553 C 62.932 49.527, 66.863 44.165, 70.095 40.638 C 75.592 34.639, 75.827 34.187, 73.735 33.626 C 70.326 32.713, 59.802 33.006, 57.091 34.090 M 144.615 53.639 C 138.134 55.629, 130.171 63.588, 127.745 70.500 C 120.696 90.585, 136.032 110.635, 156.991 108.735 C 171.572 107.412, 182.011 96.500, 182.847 81.705 C 183.187 75.677, 182.876 74.190, 180.083 68.517 C 173.578 55.304, 159.046 49.208, 144.615 53.639 M 148.500 56.881 C 133.995 60.674, 126.056 76.689, 132.081 90 C 140.428 108.440, 165.348 109.914, 175.513 92.569 C 184.345 77.498, 174.366 58.130, 156.971 56.583 C 153.962 56.315, 150.150 56.449, 148.500 56.881 M 144.842 62.021 C 131.798 68.912, 129.747 86.878, 140.931 96.288 C 150.626 104.447, 166.445 101.546, 172.725 90.458 C 176.531 83.739, 175.406 73.012, 170.253 66.889 C 164.680 60.265, 152.560 57.944, 144.842 62.021 M 51.975 68.891 C 40.313 74.570, 36.137 81.545, 40.827 87.507 C 43.338 90.700, 49.784 95.479, 52.920 96.475 L 55.202 97.199 54.560 87.849 C 54.208 82.707, 54.342 76.025, 54.859 73 C 55.376 69.975, 55.731 67.427, 55.649 67.337 C 55.567 67.247, 53.914 67.946, 51.975 68.891 M 147.117 73.631 C 143.564 76.119, 141.884 80.995, 143.082 85.335 C 144.306 89.769, 147.308 92, 152.048 92 C 161.065 92, 164.064 78.423, 156.088 73.711 C 152.463 71.569, 150.090 71.548, 147.117 73.631 M 98.667 76.667 C 97.346 77.988, 98.056 79.019, 101.250 80.416 L 104.500 81.837 101.450 81.918 C 98.643 81.994, 96 83.504, 96 85.033 C 96 85.382, 100.050 85.667, 105 85.667 C 109.950 85.667, 114 85.270, 114 84.786 C 114 83.397, 109.234 79.339, 105.552 77.591 C 101.966 75.890, 99.742 75.591, 98.667 76.667 M 182.180 96.570 C 182.081 97.159, 180.359 99.557, 178.353 101.900 L 174.706 106.161 177.259 108.713 L 179.811 111.266 181.458 108.081 C 182.528 106.013, 182.975 103.248, 182.733 100.198 C 182.528 97.614, 182.279 95.982, 182.180 96.570 M 124.452 107.646 C 121.445 110.891, 121.276 115.276, 124.051 118.051 C 127.513 121.513, 132.529 119.030, 133.599 113.323 C 135.036 105.662, 129.484 102.217, 124.452 107.646 M 53.006 112.250 C 48.897 119.357, 48.453 121.516, 50.466 124.589 C 52.180 127.204, 61.060 131.972, 64.250 131.990 C 65.213 131.996, 66 131.343, 66 130.539 C 66 128.213, 57.761 107, 56.857 107 C 56.408 107, 54.675 109.362, 53.006 112.250 M 127.100 109.900 C 124.773 112.227, 124.623 112.857, 125.914 114.896 C 127.184 116.901, 129.829 115.530, 130.597 112.470 C 131.548 108.679, 129.688 107.312, 127.100 109.900 M 170.250 108.824 C 169.266 109.449, 169.305 110.030, 170.433 111.559 C 172.124 113.850, 174.464 112.372, 173.426 109.667 C 172.716 107.816, 172.096 107.652, 170.250 108.824 M 174.223 115.557 C 171.341 117.575, 171.471 119.320, 175 126 L 177.906 131.500 177.953 127.184 C 177.979 124.811, 178.488 121.956, 179.085 120.841 C 180.378 118.426, 179.484 114, 177.703 114 C 177.011 114, 175.445 114.701, 174.223 115.557 M 182.008 122.981 C 180.351 126.981, 181.429 130.629, 185.459 134.659 C 190.738 139.938, 197 138.965, 197 132.865 C 197 125.776, 192.487 120, 186.947 120 C 183.779 120, 183.064 120.432, 182.008 122.981 M 167.500 129.641 C 166.400 130.509, 163.250 132.332, 160.500 133.692 L 155.500 136.166 159.193 135.655 C 164.577 134.910, 172 131.376, 172 129.556 C 172 127.577, 170.070 127.614, 167.500 129.641 M 170 135.624 C 167.525 136.916, 163.788 138.266, 161.695 138.623 C 158.696 139.136, 158.036 139.615, 158.576 140.887 C 158.953 141.774, 160.857 147.225, 162.806 153 C 164.756 158.775, 166.452 163.643, 166.576 163.817 C 166.700 163.992, 169.079 162.980, 171.864 161.569 C 177.811 158.555, 184 153.375, 184 151.410 C 184 150.340, 175.578 134.054, 174.694 133.415 C 174.587 133.338, 172.475 134.332, 170 135.624 M 180 135.882 C 180 136.432, 180.450 137.160, 181 137.500 C 181.550 137.840, 182 137.668, 182 137.118 C 182 136.568, 181.550 135.840, 181 135.500 C 180.450 135.160, 180 135.332, 180 135.882 M 182 138.794 C 182 139.231, 183.465 142.044, 185.256 145.044 C 188.879 151.117, 191.547 152.264, 194.488 149.014 C 195.975 147.370, 196.168 146.380, 195.417 144.245 C 194.651 142.068, 193.622 141.405, 190.056 140.797 C 187.629 140.382, 185.184 139.584, 184.622 139.022 C 183.405 137.805, 182 137.683, 182 138.794 M 60 145.026 C 52.878 147.556, 49.649 151.094, 50.561 155.368 C 51.264 158.663, 56.757 167.086, 58.604 167.701 C 59.203 167.901, 60.928 164.165, 62.463 159.345 C 65.035 151.273, 66.779 142.951, 65.882 143.036 C 65.672 143.056, 63.025 143.951, 60 145.026 M 76.250 147.250 C 74.501 149.447, 70.890 158.255, 68.358 166.500 C 65.283 176.516, 64.695 191.777, 67.202 196.502 C 69.804 201.405, 72.576 203.299, 77.307 203.404 C 80.636 203.478, 82.360 202.875, 84.885 200.750 C 86.683 199.238, 89.234 198, 90.554 198 C 92.012 198, 93.598 197.017, 94.596 195.494 C 95.966 193.403, 96.037 192.505, 95.027 190.066 C 93.611 186.648, 95.193 180.038, 100.133 168.728 C 102.852 162.505, 103.129 160, 101.099 160 C 99.960 160, 93.406 174.517, 91.471 181.321 C 90.131 186.036, 90.042 187.688, 91.005 190.011 C 92.445 193.489, 91.542 195.307, 88.806 194.438 C 87.324 193.968, 86.019 194.628, 83.946 196.898 C 79.078 202.228, 72.310 200.499, 69.940 193.318 C 67.177 184.946, 70.808 165.652, 77.555 152.865 C 78.900 150.315, 80 147.728, 80 147.115 C 80 145.608, 77.484 145.699, 76.250 147.250 M 44.338 176.999 C 41.364 178.198, 40.833 180.652, 42.310 186.377 L 43.568 191.253 48.803 185.525 C 51.682 182.375, 54.496 178.943, 55.054 177.898 C 55.988 176.154, 55.683 176.005, 51.285 176.063 C 48.653 176.098, 45.527 176.519, 44.338 176.999 M 29.035 192.934 C 27.368 196.049, 27.721 198.322, 29.750 197.537 C 30.712 197.165, 32.747 196.608, 34.271 196.301 C 37.899 195.569, 38.754 194.025, 36.462 192.348 C 33.808 190.408, 30.237 190.689, 29.035 192.934 M 13.667 195.667 C 12.159 197.174, 13.205 198, 16.622 198 C 19.729 198, 20.068 197.786, 19 196.500 C 17.712 194.949, 14.834 194.499, 13.667 195.667 M 152.997 228.243 C 146.522 232.681, 137.359 236.641, 130.088 238.143 L 123.777 239.446 124.408 244.973 C 125.299 252.773, 127.412 255.221, 134.598 256.780 C 141.045 258.179, 152.696 257.768, 155.949 256.027 C 158.687 254.562, 158.533 252.806, 155.391 249.664 L 152.783 247.056 155.488 236.457 C 156.975 230.628, 158.035 225.702, 157.843 225.510 C 157.651 225.317, 155.470 226.547, 152.997 228.243" stroke="none" fill="black" fill-rule="evenodd"/>
</svg>