<svg xmlns="http://www.w3.org/2000/svg" width="216" height="270" viewBox="0 0 216 270" version="1.1">
	<path d="M 94.355 3.947 C 89.890 5.843, 84.835 14.795, 83.540 23.102 C 82.224 31.537, 82.399 31.352, 76.642 30.421 C 67.812 28.992, 57.851 29.411, 54.171 31.365 C 50.015 33.572, 47.576 38.950, 48.399 44.094 C 48.864 47, 52.296 55.428, 55.774 62.202 C 55.972 62.588, 53.424 64.272, 50.111 65.944 C 30.491 75.848, 30.205 87.590, 49.316 98.581 L 55.823 102.324 52.097 107.412 C 41.159 122.344, 43.497 128.585, 62.500 135.192 C 64.700 135.957, 66.500 137.187, 66.500 137.925 C 66.500 138.698, 63.657 140.188, 59.792 141.440 C 52.370 143.845, 49.345 146.050, 47.487 150.408 C 45.466 155.150, 48.051 161.840, 54.713 169.109 L 57.104 171.718 50.552 172.244 C 40.132 173.080, 35.888 177.312, 37.956 184.803 C 39.045 188.746, 38.607 190.007, 36.783 188.183 C 34.589 185.989, 29.321 186.776, 27.073 189.635 C 25.933 191.084, 25 193.034, 25 193.968 C 25 196.880, 24.012 196.858, 21.032 193.878 C 19.449 192.295, 17.199 191, 16.031 191 C 13.913 191, 9 195.079, 9 196.838 C 9 197.349, 8.111 197.999, 7.024 198.283 C 3.937 199.091, 2.459 203.280, 3.972 206.933 C 9.077 219.258, 34.948 232.352, 58.938 234.755 C 67.509 235.613, 66.892 234.666, 69.009 250.209 C 70.805 263.399, 73.594 265.436, 91.500 266.637 C 102.225 267.357, 108.278 266.032, 110.625 262.450 C 112.150 260.123, 112.104 259.694, 109.832 255.105 C 107.504 250.399, 107.474 250.065, 108.960 245.366 C 110.483 240.555, 110.551 240.497, 115.081 240.202 L 119.663 239.904 120.952 247.118 C 122.512 255.848, 124.636 258.327, 131.886 259.882 C 139.481 261.511, 152.363 261.293, 156.747 259.461 C 162.783 256.939, 163.426 254.381, 159.483 248.570 L 156.966 244.861 159.482 235.680 C 160.866 230.631, 161.999 225.509, 161.999 224.298 C 162 223.088, 163.533 218.588, 165.406 214.298 C 170.637 202.323, 171.639 193.755, 169.537 178.971 C 168.589 172.306, 167.968 166.736, 168.157 166.594 C 169.488 165.587, 190.536 159.531, 194.860 158.911 C 198.245 158.426, 201.104 157.312, 202.621 155.887 C 205.406 153.270, 207.326 147.146, 206.452 143.665 C 205.954 141.679, 206.297 141.142, 208.405 140.613 C 211.969 139.719, 214.480 134.749, 212.768 131.978 C 212.071 130.849, 210.465 129.663, 209.201 129.342 C 207.396 128.884, 179.667 132.285, 158.500 135.561 C 156.205 135.916, 156.850 135.338, 161.244 133.102 C 175.292 125.953, 182.755 117.494, 185.515 105.590 C 186.888 99.673, 186.887 98.324, 185.508 92.378 C 184.663 88.736, 182.421 83.224, 180.525 80.128 C 178.235 76.389, 176.729 72.318, 176.039 68 C 171.639 40.484, 156.271 25.163, 128.795 20.900 C 123.076 20.013, 121.217 19.274, 119.633 17.260 C 116.376 13.120, 109.687 6.936, 106.855 5.448 C 103.307 3.583, 96.997 2.825, 94.355 3.947 M 93.151 9.841 C 90.663 12.508, 87.981 18.804, 86.532 25.376 C 85.980 27.882, 86.131 28.149, 87.699 27.449 C 92.375 25.363, 107.074 21.019, 112 20.267 L 117.500 19.429 112.500 14.724 C 103.697 6.440, 97.730 4.934, 93.151 9.841 M 102.216 26.019 C 73.239 33.611, 56.358 57.269, 58.346 87.500 C 58.975 97.059, 60.694 104.153, 66.436 120.884 C 70.834 133.698, 71.079 140.851, 67.577 154.237 C 61.337 178.096, 52.288 191.605, 38 198.394 C 32.045 201.223, 30.474 201.512, 19.250 201.844 C 10.910 202.090, 7.001 202.572, 7.004 203.353 C 7.017 207.539, 16.801 216.839, 26.204 221.603 C 36.161 226.649, 62.600 233.733, 64.476 231.858 C 64.764 231.569, 64.486 228.773, 63.857 225.643 C 62.705 219.907, 63.149 217.749, 65.082 219.682 C 66.539 221.139, 69.702 233.428, 71.960 246.401 C 74.119 258.806, 75.393 260.767, 82.142 262.071 C 88.319 263.264, 103.766 263.196, 106.066 261.965 C 108.597 260.610, 108.506 259.347, 105.568 255.054 L 103.137 251.500 105.033 244 C 106.076 239.875, 107.191 234.813, 107.510 232.750 C 108.343 227.370, 111 227.659, 111 233.129 L 111 237.258 118.036 236.565 C 138.985 234.501, 155.779 225.136, 162.639 211.693 C 168.338 200.523, 168.103 182.661, 161.986 162.255 C 159.480 153.896, 153.637 138.456, 152.505 137.201 C 152.357 137.036, 149.370 137.548, 145.868 138.339 C 135.265 140.731, 130.253 141.219, 129.461 139.936 C 128.437 138.279, 130.525 137.290, 136.662 136.523 C 154.789 134.258, 171.890 124.869, 178.532 113.535 C 184.216 103.837, 183.840 91.851, 177.557 82.388 C 175.289 78.971, 173.746 75.072, 172.997 70.862 C 170.153 54.880, 166.253 46.100, 158.649 38.565 C 152.941 32.909, 142.871 27.508, 134.144 25.421 C 125.917 23.454, 110.935 23.734, 102.216 26.019 M 57.500 33.945 C 56.400 34.396, 54.653 35.706, 53.617 36.857 C 51.147 39.604, 51.785 45.666, 55.367 53.490 L 58.012 59.267 61.307 53.075 C 63.119 49.669, 67.151 44.032, 70.267 40.549 C 75.568 34.622, 75.789 34.177, 73.716 33.621 C 70.533 32.768, 59.855 32.981, 57.500 33.945 M 51 69.512 C 48.525 70.788, 44.813 73.392, 42.750 75.301 C 37.739 79.936, 37.694 83.548, 42.579 88.956 C 45.618 92.319, 54.835 98.591, 55.525 97.765 C 55.647 97.619, 55.296 94.125, 54.745 90 C 54.038 84.712, 54.079 80.316, 54.882 75.094 C 55.509 71.021, 55.904 67.577, 55.761 67.441 C 55.617 67.305, 53.475 68.237, 51 69.512 M 155.245 73.250 C 152.531 76.642, 153.098 82.030, 156.400 84.235 C 158.118 85.382, 162.474 85.126, 163.800 83.800 C 165.522 82.078, 165.281 75.424, 163.429 73.571 C 161.549 71.691, 156.646 71.499, 155.245 73.250 M 110 77.694 C 106.027 79.114, 104.523 86.380, 107.571 89.429 C 109.693 91.550, 114.315 91.415, 116.345 89.171 C 118.821 86.435, 118.502 80.465, 115.777 78.557 C 113.465 76.937, 112.515 76.795, 110 77.694 M 145 89.559 C 145 90.416, 145.457 90.835, 146.016 90.490 C 146.575 90.144, 146.774 89.443, 146.457 88.931 C 145.600 87.544, 145 87.802, 145 89.559 M 124.333 102.574 C 123.603 104.476, 126.157 106.455, 131.928 108.461 C 139.611 111.131, 149.990 109.879, 153.644 105.840 C 156.148 103.074, 154.614 102.535, 149.791 104.487 C 143.490 107.038, 135.800 106.699, 129.841 103.607 C 125.666 101.441, 124.828 101.284, 124.333 102.574 M 54.325 110.257 C 53.129 112.041, 51.364 115.176, 50.403 117.224 C 48.126 122.075, 49.381 124.983, 55.195 128.327 C 59.792 130.972, 66.007 132.700, 65.989 131.329 C 65.952 128.480, 58.067 106.995, 57.063 107.007 C 56.754 107.011, 55.521 108.473, 54.325 110.257 M 195.500 134.036 C 190.550 135.028, 180.225 136.563, 172.555 137.448 C 164.886 138.332, 158.427 139.240, 158.202 139.465 C 157.977 139.690, 159.171 143.286, 160.855 147.457 C 162.539 151.628, 164.217 156.642, 164.585 158.600 C 164.952 160.558, 165.806 162.372, 166.483 162.632 C 167.160 162.892, 172.616 161.551, 178.607 159.653 C 184.598 157.755, 191.479 155.965, 193.897 155.676 C 200.312 154.910, 202.130 152.604, 202.332 144.978 C 202.498 138.741, 202.535 138.666, 205.940 137.520 C 209.727 136.245, 210.996 134.245, 208.872 132.900 C 207.126 131.794, 206.364 131.858, 195.500 134.036 M 189.487 138.021 C 189.140 138.582, 190.463 139.714, 192.428 140.534 C 197.060 142.470, 197.195 145, 192.667 145 C 188.850 145, 187.913 145.610, 188.676 147.598 C 189.482 149.699, 196.331 149.397, 198.345 147.171 C 200.651 144.623, 200.412 142.321, 197.545 139.455 C 195.047 136.956, 190.631 136.171, 189.487 138.021 M 61 144.779 C 55.415 146.648, 51.307 149.459, 50.515 151.953 C 50.183 152.998, 50.584 155.461, 51.405 157.426 C 53.016 161.282, 57.799 168, 58.934 168 C 60.417 168, 67.036 144.566, 65.837 143.558 C 65.652 143.402, 63.475 143.951, 61 144.779 M 75.594 148.250 C 70.904 155.517, 65 176.517, 65 185.932 C 65 191.103, 67.641 198.314, 70.529 201.027 C 74.174 204.452, 80.596 204.308, 85.333 200.695 C 87.356 199.152, 89.386 198.120, 89.843 198.403 C 90.300 198.685, 91.618 198.256, 92.771 197.448 C 94.586 196.177, 94.859 195.003, 94.797 188.739 C 94.737 182.702, 95.261 180.255, 97.950 174 C 103.176 161.849, 103.440 161.106, 102.771 160.438 C 101.477 159.144, 99.659 161.457, 96.362 168.592 C 91.708 178.664, 89.559 187.308, 91.027 190.050 C 92.585 192.961, 91.614 194.973, 88.983 194.285 C 87.431 193.879, 86.057 194.587, 83.978 196.863 C 79.368 201.910, 73.063 200.789, 70.415 194.452 C 66.875 185.978, 70.678 164.829, 78.189 151.220 C 79.185 149.415, 80 147.503, 80 146.970 C 80 145.141, 77.046 146, 75.594 148.250 M 42.921 177.863 C 40.701 179.661, 40.665 179.927, 41.905 185.467 L 43.190 191.208 46.690 187.854 C 48.616 186.009, 51.520 182.588, 53.144 180.250 L 56.096 176 50.659 176 C 46.845 176, 44.535 176.556, 42.921 177.863 M 29.977 192.023 C 28.890 193.110, 28 194.909, 28 196.019 C 28 197.716, 28.438 197.932, 30.750 197.373 C 37.789 195.669, 39.383 194.315, 36.750 192.278 C 34.005 190.154, 31.924 190.076, 29.977 192.023 M 13.667 195.667 C 12.159 197.174, 13.205 198, 16.622 198 C 19.729 198, 20.068 197.786, 19 196.500 C 17.712 194.949, 14.834 194.499, 13.667 195.667 M 154.903 226.827 C 147.901 232.232, 131.939 239, 126.196 239 C 123.785 239, 123.754 239.106, 124.428 245.068 C 124.806 248.405, 125.339 251.719, 125.612 252.432 C 127.382 257.043, 149.377 259.545, 156.173 255.907 C 158.671 254.571, 158.469 253.099, 155.339 249.832 L 152.679 247.055 155.477 236.499 C 157.016 230.692, 158.057 225.724, 157.790 225.457 C 157.524 225.190, 156.224 225.807, 154.903 226.827" stroke="none" fill="black" fill-rule="evenodd"/>
</svg>