<svg xmlns="http://www.w3.org/2000/svg" width="211" height="270" viewBox="0 0 211 270" version="1.1">
	<path d="M 105.237 5.112 C 102.892 6.272, 98.381 10.052, 95.211 13.511 C 89.678 19.549, 89.210 19.828, 83.474 20.512 C 70.967 22.002, 59.907 26.996, 51.662 34.876 C 42.263 43.860, 38.303 51.919, 35.558 67.651 C 34.611 73.084, 33.244 77.465, 32.019 79 C 25.221 87.517, 23.197 99.831, 26.947 109.858 C 29.475 116.618, 36.469 125.073, 42.913 129.160 C 49.463 133.314, 46.574 132.629, 39.021 128.238 C 34.505 125.613, 31.882 123.284, 30.339 120.533 C 27.742 115.904, 25.187 114.671, 21.815 116.421 C 20.261 117.227, 18.557 117.380, 17.107 116.844 C 11.005 114.586, 2.979 121.051, 3.010 128.200 C 3.030 132.855, 7.739 140.508, 14.615 147.061 C 22.782 154.844, 28.402 158.802, 37.374 163.087 C 41.018 164.828, 44 166.609, 44 167.046 C 44 167.482, 43.281 170.646, 42.402 174.078 C 41.225 178.671, 40.908 183.508, 41.200 192.409 C 41.565 203.552, 41.876 205.167, 45.163 213 C 47.125 217.675, 49.045 223.300, 49.430 225.500 C 49.815 227.700, 51 233.048, 52.064 237.384 C 53.988 245.225, 53.987 245.284, 51.999 248.502 C 49.423 252.669, 49.461 256.202, 52.106 258.595 C 53.952 260.264, 55.779 260.493, 66.856 260.443 C 85.360 260.361, 88.989 258.137, 90.765 245.797 L 91.528 240.500 96.002 240.500 L 100.476 240.500 102.377 245.788 L 104.278 251.076 102.139 253.352 C 100.757 254.823, 100 256.926, 100 259.291 C 100 265.264, 102.972 266.515, 116.961 266.431 C 136.470 266.314, 140.560 263.994, 142.041 252.202 C 143.214 242.857, 145.031 235.896, 146.390 235.535 C 147.001 235.373, 151.460 234.720, 156.300 234.084 C 176.165 231.475, 197.373 221.370, 204.957 210.901 C 208.744 205.673, 209.077 200.631, 205.750 198.900 C 204.512 198.256, 202.089 196.216, 200.365 194.365 C 196.490 190.206, 193.638 190.105, 190 194 C 188.459 195.650, 186.984 197, 186.724 197 C 186.463 197, 185.963 195.567, 185.613 193.816 C 184.366 187.578, 179.164 185.096, 174.372 188.452 C 172.335 189.879, 172.316 189.830, 173.290 185.577 C 173.834 183.197, 173.976 180.040, 173.605 178.561 C 172.702 174.966, 166.251 172.051, 159.134 172.022 L 153.767 172 157.327 168.060 C 169.264 154.847, 166.506 145.178, 149.582 140.916 C 145.699 139.939, 144.947 139.380, 145.198 137.659 C 145.417 136.154, 146.535 135.368, 149.254 134.806 C 154.500 133.721, 162.559 129.468, 164.430 126.796 C 165.294 125.563, 166 123.147, 166 121.426 C 166 117.877, 162.023 109.759, 158.416 105.945 C 157.087 104.540, 156 102.946, 156 102.404 C 156 101.861, 158.378 100.250, 161.285 98.825 C 168.630 95.222, 172.978 91.303, 175.199 86.283 C 176.988 82.240, 177.001 81.804, 175.436 78.506 C 173.283 73.970, 168.374 69.723, 160.957 65.978 C 157.681 64.324, 155 62.759, 155 62.501 C 155 62.242, 156.366 59.810, 158.036 57.096 C 161.785 51.002, 163.729 42.532, 162.422 37.976 C 160.411 30.964, 152.987 28.406, 139.699 30.146 C 134.509 30.825, 130.568 30.929, 130.094 30.399 C 129.652 29.905, 128.498 26.125, 127.529 22 C 125.341 12.685, 124.048 10.128, 119.516 6.148 C 115.209 2.367, 111.349 2.086, 105.237 5.112 M 106.500 8.653 C 103.393 10.283, 95 17.902, 95 19.093 C 95 19.465, 98.622 20.299, 103.048 20.947 C 107.475 21.594, 114.269 23.415, 118.146 24.993 L 125.197 27.862 124.512 24.181 C 123.432 18.376, 119.952 11.108, 117.226 8.963 C 114.243 6.617, 110.584 6.511, 106.500 8.653 M 86.500 23.636 C 63.789 26.327, 47.697 38.478, 41.653 57.500 C 40.779 60.250, 39.574 65.650, 38.975 69.500 C 38.376 73.350, 37.015 77.850, 35.950 79.500 C 30.763 87.540, 29.020 92.459, 29.010 99.090 C 28.992 111.197, 36.799 122.318, 50 128.991 C 56.913 132.485, 66.913 135.595, 74.132 136.497 C 80.803 137.331, 82.991 138.409, 81.347 140.053 C 80.226 141.174, 75.645 140.689, 63.144 138.124 L 58.788 137.230 56.478 142.453 C 50.324 156.368, 45.332 174.808, 44.392 187.098 C 43.696 196.205, 45.123 204.028, 48.976 212.225 C 54.950 224.935, 72.718 234.740, 93.250 236.657 L 100 237.287 100 233.144 C 100 227.672, 102.631 227.381, 103.553 232.750 C 103.908 234.813, 104.828 239.040, 105.599 242.144 C 107.494 249.778, 107.364 252.722, 105 255.727 C 102.805 258.517, 102.455 260.545, 104.003 261.502 C 106.565 263.085, 116.107 263.757, 123.395 262.866 C 132.523 261.751, 136.783 259.888, 137.424 256.732 C 137.674 255.504, 139.030 248.650, 140.439 241.500 C 143.771 224.584, 144.812 221.009, 146.605 220.321 C 149.062 219.378, 149.305 220.656, 147.612 225.624 C 146.726 228.227, 146 230.758, 146 231.250 C 146 232.506, 155.797 231.184, 166.632 228.466 C 177.527 225.733, 188.775 220.447, 195.560 214.872 C 200.587 210.741, 205.304 204.301, 204.388 202.818 C 204.110 202.368, 199.296 201.995, 193.691 201.989 C 177.723 201.972, 169.415 198.612, 160.074 188.391 C 151.457 178.963, 144.189 161.728, 141.853 145.184 C 140.425 135.072, 141.450 128.375, 146.320 116 C 152.385 100.588, 154.425 88.498, 153.028 76.247 C 150.643 55.331, 139.385 38.611, 122.195 30.451 C 112.149 25.683, 95.711 22.544, 86.500 23.636 M 137.797 33.631 C 136.417 34.034, 137.181 35.423, 141.827 40.957 C 144.981 44.712, 148.672 50.066, 150.030 52.854 C 151.389 55.641, 152.725 57.936, 153 57.953 C 154.692 58.059, 158.317 48.918, 158.757 43.435 C 159.236 37.474, 159.139 37.137, 156.437 35.367 C 153.662 33.548, 141.848 32.448, 137.797 33.631 M 156.500 82.854 L 156.500 97.684 160 95.725 C 166.155 92.280, 168.806 90.050, 171.035 86.444 C 172.956 83.335, 173.063 82.566, 171.948 79.875 C 170.681 76.815, 162.238 69.753, 158.500 68.626 C 156.563 68.042, 156.500 68.489, 156.500 82.854 M 48.223 73.557 C 43.940 76.557, 46.280 85, 51.394 85 C 56.591 85, 59.537 78.995, 56.565 74.459 C 54.712 71.630, 51.473 71.280, 48.223 73.557 M 96.500 78.195 C 93.714 79.775, 93.033 81.026, 93.015 84.595 C 92.984 90.910, 100.342 93.138, 104.178 87.976 C 105.768 85.836, 105.881 84.958, 104.922 82.205 C 103.892 79.251, 101.402 76.953, 99.316 77.030 C 98.867 77.047, 97.600 77.571, 96.500 78.195 M 63.473 88.044 C 63.148 88.570, 63.160 89.450, 63.500 90 C 64.424 91.495, 67 91.206, 67 89.607 C 67 87.911, 64.296 86.713, 63.473 88.044 M 72.623 89.540 C 71.722 91.888, 71.788 92, 74.073 92 C 75.471 92, 76.041 91.457, 75.823 90.333 C 75.381 88.050, 73.385 87.555, 72.623 89.540 M 83.715 100.300 C 82.652 103.070, 76.056 105.265, 70.865 104.576 C 67.016 104.066, 66 104.229, 66 105.359 C 66 107.219, 68.180 108, 73.370 108 C 78.760 108, 86.500 104.217, 86.500 101.583 C 86.500 99.283, 84.465 98.346, 83.715 100.300 M 150.171 115.757 C 146.475 125.464, 144.835 132, 146.097 132 C 148.262 132, 157.872 127.768, 159.814 125.959 C 163.078 122.918, 162.639 118.422, 158.473 112.237 C 156.534 109.356, 154.621 107.003, 154.223 107.007 C 153.826 107.011, 152.002 110.949, 150.171 115.757 M 22.211 120.587 C 21.399 122.039, 20.782 122.120, 17.981 121.143 C 16.177 120.514, 14.073 120, 13.305 120 C 10.958 120, 7 124.741, 7 127.553 C 7 136.431, 21.556 151.280, 38.663 159.852 L 44.825 162.940 45.841 160.220 C 46.400 158.724, 48.186 153.900, 49.809 149.500 C 51.432 145.100, 53.080 140.731, 53.471 139.792 C 54.017 138.479, 53.525 137.926, 51.341 137.402 C 42.074 135.180, 29.207 127.249, 26.773 122.258 C 25.187 119.005, 23.452 118.370, 22.211 120.587 M 145.579 147.750 C 146.174 151.078, 148.614 158.994, 151.173 165.896 L 152.061 168.291 154.628 165.896 C 159.471 161.376, 161.959 154.663, 160.348 150.466 C 159.584 148.473, 150.526 144.024, 147.205 144.010 C 145.099 144.001, 144.965 144.310, 145.579 147.750 M 131 146.529 C 131 146.819, 132.302 149.635, 133.892 152.787 C 135.483 155.938, 138.002 162.422, 139.491 167.196 C 141.809 174.631, 142.147 177.237, 141.849 185.360 C 141.540 193.758, 141.223 195.137, 139.076 197.421 C 135.619 201.098, 130.957 200.926, 127.653 197 C 126.085 195.137, 124.180 194, 122.624 194 C 119.382 194, 118.694 192.767, 120.150 189.570 C 121.089 187.509, 120.997 185.809, 119.691 181.114 C 117.614 173.643, 111.427 160, 110.116 160 C 107.856 160, 108.262 162.167, 112.194 171.077 C 115.781 179.205, 116.339 181.438, 116.420 187.971 C 116.527 196.693, 117.109 198, 120.885 198 C 122.514 198, 124.580 198.989, 125.910 200.405 C 128.679 203.351, 133.582 204.390, 137.792 202.923 C 145.854 200.112, 148.053 187.403, 143.573 169.516 C 140.408 156.875, 135.419 146, 132.785 146 C 131.803 146, 131 146.238, 131 146.529 M 157.306 178.618 C 158.127 180.203, 160.742 183.705, 163.116 186.400 L 167.434 191.300 168.672 188.400 C 170.400 184.353, 170.291 179.487, 168.439 177.950 C 167.581 177.237, 164.389 176.448, 161.346 176.196 L 155.813 175.737 157.306 178.618 M 174.750 192.056 C 173.787 192.630, 173 193.485, 173 193.956 C 173 194.903, 182.081 198.252, 182.774 197.560 C 183.013 197.321, 182.789 195.859, 182.277 194.313 C 181.259 191.238, 177.842 190.214, 174.750 192.056 M 193.250 195.651 C 190.910 196.616, 191.990 198, 195.083 198 C 197.105 198, 198.023 197.570, 197.750 196.750 C 197.291 195.369, 195.182 194.854, 193.250 195.651 M 53 225.553 C 53 225.922, 54.200 230.855, 55.667 236.516 C 58.161 246.140, 58.226 246.917, 56.661 248.482 C 53.319 251.824, 52.587 254.225, 54.485 255.613 C 58.309 258.409, 70.478 258.564, 80.222 255.940 C 84.691 254.737, 86.740 251.233, 87.220 243.975 L 87.500 239.743 80.500 238.054 C 72.385 236.095, 65.605 233.223, 59.687 229.237 C 53.623 225.152, 53 224.809, 53 225.553" stroke="none" fill="black" fill-rule="evenodd"/>
</svg>