<svg xmlns="http://www.w3.org/2000/svg" width="200" height="258" viewBox="0 0 200 258" version="1.1">
	<path d="M 90.403 4.079 C 86.341 5.258, 79.343 11.490, 75.099 17.710 C 71.894 22.407, 71.312 22.778, 64.657 24.376 C 39.292 30.463, 23 50.330, 23 75.173 C 23 80.026, 22.262 82.883, 19.333 89.369 C 16.210 96.288, 15.667 98.549, 15.667 104.644 C 15.667 110.402, 16.189 112.843, 18.343 117.149 C 23.361 127.181, 30.041 132.661, 44.200 138.365 L 47.899 139.856 44.722 147.006 L 41.545 154.157 38.022 150.109 C 33.769 145.220, 23.639 139, 19.931 139 C 18.454 139, 16.685 139.675, 16 140.500 C 15.315 141.325, 13.896 142, 12.846 142 C 10.030 142, 9.776 143.802, 11.460 151.808 C 12.915 158.728, 12.897 159.103, 11.014 160.986 C 8.473 163.527, 7.632 167.045, 8.252 172.545 C 8.890 178.204, 11.266 181.795, 15.560 183.590 C 17.908 184.571, 19.154 185.864, 19.575 187.756 C 19.911 189.265, 20.380 191.228, 20.618 192.117 C 20.856 193.007, 23.591 195.098, 26.696 196.764 L 32.342 199.793 27.358 202.319 C 24.617 203.708, 21.792 205.546, 21.080 206.404 C 19.931 207.788, 19.548 207.797, 17.670 206.482 C 15.250 204.786, 9.744 204.532, 7.021 205.989 C 4.038 207.585, 1.648 215.166, 2.447 220.496 C 3.385 226.751, 6.477 235.457, 9.038 239.054 C 13.778 245.711, 19.467 246.329, 41.773 242.611 C 54.679 240.460, 56.499 240.366, 60.773 241.621 C 64.524 242.722, 65.913 243.766, 67.500 246.673 C 70.093 251.424, 73.702 254.016, 78.645 254.679 C 84.207 255.425, 109.074 250.680, 121.643 246.475 C 128.396 244.216, 133.923 243, 137.443 243 C 157.255 243, 182.888 234.851, 192.739 225.421 C 198.077 220.312, 198.393 216.860, 193.923 212.501 C 192.230 210.850, 189.853 207.925, 188.641 206 C 185.765 201.434, 181.549 200.826, 177.339 204.368 L 174.398 206.843 174.154 203.213 C 174.019 201.216, 173.358 198.439, 172.685 197.041 C 171.584 194.758, 170.879 194.500, 165.728 194.500 C 162.576 194.500, 159.997 194.145, 159.998 193.710 C 159.999 193.276, 160.900 191.156, 162 189 C 164.762 183.586, 164.539 180.385, 161.165 177.011 C 158.618 174.464, 149.974 171, 146.166 171 C 145.340 171, 147.129 168.449, 150.253 165.174 C 161.082 153.820, 159.705 145.246, 146.289 140.502 C 137.511 137.397, 136.849 137.021, 137.179 135.322 C 137.376 134.306, 139.750 132.916, 143.320 131.726 C 150.914 129.195, 157 123.589, 157 119.123 C 157 114.621, 154.663 109.569, 150.009 104.011 C 147.804 101.377, 146 98.966, 146 98.653 C 146 98.340, 147.986 96.920, 150.414 95.498 C 155.569 92.476, 162.611 85.153, 164.083 81.281 C 166.740 74.294, 160.846 67.348, 147.688 61.960 C 143.470 60.233, 142.012 59.158, 142.373 58.040 C 142.646 57.193, 144.023 53.442, 145.434 49.705 C 148.449 41.721, 148.640 37.788, 146.248 33 C 142.879 26.255, 135.239 24.557, 121.903 27.590 C 118.058 28.465, 114.367 28.971, 113.700 28.715 C 113.034 28.460, 111.686 25.606, 110.705 22.375 C 108.408 14.810, 102.795 6.605, 98.535 4.583 C 94.821 2.821, 94.753 2.817, 90.403 4.079 M 88.984 8.853 C 87.068 9.873, 83.506 13.135, 81.068 16.103 L 76.637 21.500 81.068 21.737 C 88.177 22.118, 99.967 24.077, 104.255 25.590 L 108.213 26.987 107.558 24.243 C 106.333 19.112, 101.648 11.298, 98.507 9.145 C 94.681 6.523, 93.436 6.485, 88.984 8.853 M 70 26.687 C 59.940 28.353, 48.664 33.598, 41.791 39.808 C 32.389 48.302, 28.315 57.587, 26.522 74.611 C 25.451 84.782, 24.787 87.506, 22.374 91.611 C 19.851 95.903, 19.502 97.476, 19.514 104.500 C 19.530 113.576, 20.742 116.595, 27.171 123.570 C 34.348 131.356, 45.146 136.093, 60.905 138.368 C 67.887 139.376, 69.560 139.953, 69.849 141.453 C 70.173 143.139, 69.695 143.240, 64.352 142.617 C 61.133 142.241, 56.887 141.678, 54.917 141.366 C 51.393 140.807, 51.296 140.885, 49.097 145.996 C 47.867 148.855, 47.060 151.394, 47.304 151.638 C 47.548 151.882, 49.381 151.118, 51.377 149.940 C 56.123 147.140, 68.201 144.039, 74.446 144.017 C 78.209 144.004, 80.362 144.657, 83.446 146.747 C 88.724 150.324, 88.572 150.047, 89.952 158.602 C 90.606 162.654, 91.511 166.198, 91.965 166.478 C 93.251 167.273, 104.641 159.259, 107.977 155.212 C 110.322 152.367, 111.238 151.838, 112.185 152.785 C 115.031 155.631, 102.878 166.343, 92.154 170.441 C 78.494 175.661, 75.754 184.449, 86.505 188.555 C 95.077 191.829, 108.190 189.263, 119.997 182.002 C 124.510 179.227, 126.748 178.358, 127.470 179.102 C 130.255 181.974, 111.693 191.660, 101.362 192.726 C 96.755 193.202, 95.998 193.577, 95.985 195.390 C 95.960 198.781, 94.804 199.679, 89.500 200.432 C 82.260 201.461, 69.790 204.720, 62.276 207.548 C 58.693 208.897, 54.128 209.993, 52.131 209.985 C 48.384 209.970, 47.240 209.468, 40.049 204.678 C 37.718 203.126, 35.633 202.034, 35.414 202.252 C 34.673 202.994, 38.052 214.481, 40.488 219.500 C 43.763 226.245, 51.353 233.770, 57.779 236.641 C 60.682 237.939, 63.234 239, 63.451 239 C 63.668 239, 63.594 235.669, 63.286 231.598 C 62.812 225.331, 63.056 223.516, 64.878 219.752 C 67.942 213.422, 74.014 211.239, 80 214.314 C 82.282 215.486, 83.023 215.242, 88.500 211.514 C 95.358 206.846, 105.574 203.174, 107.194 204.794 C 108.784 206.384, 107.389 207.705, 103.308 208.470 C 99.204 209.240, 93.104 212.125, 88.694 215.382 C 86.165 217.250, 85.897 217.942, 86.425 221.250 C 87.182 225.992, 84.805 226.457, 82.509 222.017 C 80.683 218.485, 75.660 215.618, 72.632 216.377 C 64.244 218.483, 64.769 239.179, 73.445 248.393 C 76.128 251.242, 76.292 251.276, 84.334 250.692 C 95.514 249.879, 114.860 245.624, 122.053 242.396 C 127.551 239.928, 133.165 234.993, 137 229.256 C 138.025 227.723, 138.929 227.287, 139.853 227.879 C 141.432 228.890, 140.319 231.557, 136.310 236.376 C 134.994 237.957, 134.137 239.470, 134.404 239.737 C 135.273 240.607, 154.899 237.928, 162.773 235.865 C 177.727 231.949, 193 223.201, 193 218.553 C 193 215.388, 192.778 215.285, 183.352 214.103 C 171.055 212.561, 164.827 209.796, 157.538 202.639 C 148.567 193.831, 146.602 189.411, 137.951 158.587 C 133.876 144.070, 133.778 143.365, 134.263 132.087 C 134.646 123.163, 135.343 118.851, 137.296 113.323 C 144.137 93.957, 143.322 71.526, 135.208 55.851 C 125.254 36.624, 105.890 25.797, 82.062 26.136 C 76.803 26.211, 71.375 26.459, 70 26.687 M 122.171 31.139 L 118.842 32.098 122.941 35.341 C 127.440 38.901, 133.627 46.043, 137.145 51.735 L 139.404 55.390 141.163 51.445 C 144.804 43.278, 144.731 35.731, 140.975 31.975 C 139.376 30.376, 137.715 30.017, 132.250 30.090 C 128.537 30.140, 124.002 30.612, 122.171 31.139 M 143.459 66.250 C 143.839 67.487, 144.401 74.237, 144.708 81.250 C 145.015 88.263, 145.483 94, 145.749 94 C 147.056 94, 156.365 86.388, 158.532 83.547 C 161.892 79.142, 161.677 76.044, 157.750 72.265 C 154.864 69.489, 145.393 64, 143.488 64 C 143.091 64, 143.078 65.013, 143.459 66.250 M 37.017 86.286 C 33.431 88.100, 32.236 92.184, 34.347 95.407 C 35.270 96.816, 37.222 98.269, 38.684 98.636 C 40.806 99.168, 41.813 98.756, 43.671 96.596 C 46.654 93.128, 46.618 90.527, 43.545 87.455 C 40.732 84.641, 40.389 84.580, 37.017 86.286 M 84.400 87.765 C 78.840 91.478, 81.839 101, 88.568 101 C 93.502 101, 96.075 92.188, 92.171 88.655 C 90.276 86.939, 86.316 86.486, 84.400 87.765 M 52.446 101.087 C 51.416 102.755, 53.733 104.667, 55.113 103.287 C 56.267 102.133, 55.545 100, 54 100 C 53.515 100, 52.816 100.489, 52.446 101.087 M 61.688 100.646 C 60.314 102.020, 61.026 104.142, 62.750 103.810 C 63.712 103.624, 64.500 102.841, 64.500 102.070 C 64.500 100.491, 62.736 99.598, 61.688 100.646 M 144 103.335 C 144 103.558, 142.699 108.186, 141.109 113.620 C 138.603 122.182, 136.904 130, 137.547 130 C 139.215 130, 147.161 126.352, 149.681 124.429 C 152.393 122.361, 153 121.217, 153 118.172 C 153 116.122, 152.245 113.332, 151.321 111.973 C 149.336 109.049, 144 102.754, 144 103.335 M 69.580 114.142 C 65.789 116.154, 63.670 116.247, 54.608 114.802 C 51.377 114.287, 51.754 116.655, 55.125 118.052 C 60.052 120.093, 67.207 119.587, 72.174 116.847 C 76.394 114.520, 77.429 112.722, 74.803 112.281 C 74.086 112.161, 71.736 112.998, 69.580 114.142 M 138 143.326 C 138 145.251, 140.439 154.767, 142.617 161.339 L 144.220 166.179 147.571 162.931 C 151.811 158.822, 154.352 153.541, 153.577 150.452 C 152.487 146.110, 138 139.483, 138 143.326 M 18 143.867 C 18 144.481, 18.961 145.549, 20.135 146.242 C 21.309 146.934, 25.911 149.836, 30.361 152.690 C 34.811 155.545, 38.653 157.680, 38.898 157.436 C 39.827 156.506, 33.142 149.449, 28.810 146.787 C 23.714 143.655, 18 142.111, 18 143.867 M 64.709 149.050 C 57.182 151.101, 49.562 154.607, 47.708 156.872 C 46.699 158.104, 46.830 158.241, 48.500 157.704 C 51.632 156.696, 74.166 150.369, 77.448 149.575 C 79.731 149.023, 80.069 148.656, 78.948 147.947 C 76.835 146.610, 72.399 146.954, 64.709 149.050 M 15.406 153.250 C 15.804 156.396, 16.711 158.901, 17.669 159.500 C 22.105 162.275, 24.982 165.415, 26.049 168.649 C 27.520 173.104, 26.738 179.527, 24.413 182.096 C 22.985 183.674, 22.829 184.732, 23.578 187.753 C 24.320 190.745, 25.378 191.933, 29 193.847 C 31.475 195.155, 35.688 197.537, 38.363 199.141 L 43.226 202.058 42.704 198.779 C 40.798 186.806, 34.783 160.355, 33.725 159.297 C 31.893 157.465, 16.759 148, 15.662 148 C 15.135 148, 15.026 150.241, 15.406 153.250 M 80 152.714 C 75.812 153.453, 63.900 156.732, 56.500 159.182 C 51.805 160.737, 49.538 161.994, 49.615 163 C 49.786 165.224, 57.279 204.439, 57.616 204.869 C 57.775 205.072, 61.188 204.046, 65.202 202.589 C 69.216 201.133, 76.739 199.161, 81.921 198.209 C 87.102 197.256, 91.506 195.982, 91.707 195.378 C 91.909 194.774, 90.010 193.703, 87.489 192.997 C 82.100 191.488, 77.403 187.453, 76.404 183.473 C 75.376 179.378, 79.093 172.878, 84.059 170.087 C 86.226 168.869, 88 167.758, 88 167.620 C 88 166.821, 85.805 155.213, 85.377 153.750 C 84.860 151.983, 84.516 151.916, 80 152.714 M 39.349 164.092 C 39.714 165.416, 41.192 172.575, 42.632 180 C 44.072 187.425, 45.778 196.197, 46.425 199.493 C 47.426 204.602, 47.995 205.626, 50.280 206.430 C 51.755 206.948, 53.247 207.086, 53.597 206.736 C 53.947 206.386, 52.813 198.765, 51.077 189.800 C 46.335 165.311, 45.776 163.001, 44.591 162.986 C 43.991 162.979, 42.416 162.683, 41.092 162.328 C 38.930 161.750, 38.752 161.930, 39.349 164.092 M 12.462 165.417 C 10.400 168.565, 11.388 174.120, 14.714 178.071 C 17.494 181.376, 19.147 181.710, 21.429 179.429 C 24.633 176.224, 22.481 166.398, 18.055 164.030 C 15.200 162.501, 14.212 162.747, 12.462 165.417 M 147.023 176.231 C 147.063 178.513, 153.472 193.354, 154.568 193.704 C 156.073 194.185, 160.254 184.840, 159.842 181.919 C 159.614 180.305, 158.335 178.954, 156 177.859 C 150.754 175.399, 146.996 174.718, 147.023 176.231 M 161.186 198.055 C 159.870 198.583, 159.167 199.460, 159.555 200.089 C 160.399 201.455, 169.042 207, 170.327 207 C 171.545 207, 170.443 200.238, 168.926 198.411 C 167.604 196.818, 164.613 196.681, 161.186 198.055 M 24.918 207.969 L 19.636 211.938 16.450 209.969 C 12.216 207.352, 10.551 207.485, 8.073 210.635 C 5.657 213.706, 5.436 218.301, 7.359 225.500 C 9.630 233.999, 12.710 238.981, 16.735 240.663 C 20.572 242.266, 21.068 242.237, 40.250 239.299 L 50.999 237.652 45.452 232.149 C 39.424 226.169, 33.679 215.564, 32.506 208.250 C 32.131 205.912, 31.459 204, 31.013 204 C 30.566 204, 27.824 205.786, 24.918 207.969 M 179.443 207.418 C 176.969 209.227, 177.817 210.032, 182.917 210.716 C 186.048 211.136, 187 210.930, 187 209.832 C 187 206.280, 182.824 204.946, 179.443 207.418" stroke="none" fill="black" fill-rule="evenodd"/>
</svg>