<svg xmlns="http://www.w3.org/2000/svg" width="201" height="270" viewBox="0 0 201 270" version="1.1">
	<path d="M 77.500 3.945 C 72.936 5.813, 68.682 13.825, 67.501 22.776 C 66.520 30.215, 65.541 30.878, 55.575 30.850 C 46.661 30.826, 41.829 32.319, 38.341 36.178 C 35.296 39.547, 35.946 48.161, 39.816 55.721 C 43.684 63.280, 43.733 64.290, 40.336 66.515 C 34.696 70.211, 29.003 76.331, 28.073 79.698 C 26.890 83.981, 28.038 87.375, 32.089 91.577 L 35.056 94.653 32.686 95.733 C 31.251 96.387, 29.760 96.462, 28.908 95.922 C 28.134 95.432, 25.767 95.024, 23.650 95.015 C 20.594 95.003, 19.099 95.701, 16.400 98.400 C 13.458 101.342, 13.003 102.453, 13.022 106.650 C 13.034 109.318, 13.928 113.447, 15.008 115.828 C 17.428 121.161, 26.474 133.954, 32.101 140 C 45.603 154.510, 44.942 153.580, 44.348 157.242 C 43.748 160.941, 46.463 167.576, 50.283 171.746 C 52.976 174.685, 51.964 175.550, 48.143 173.574 C 40.576 169.661, 34.202 173.028, 33.254 181.438 C 32.651 186.789, 31.735 187.188, 29.950 182.879 C 26.833 175.354, 21.600 174.024, 16.478 179.455 C 13.690 182.411, 12.734 182.834, 9.860 182.384 C 2.072 181.164, 0.524 187.574, 6.086 198.010 C 12.439 209.929, 30.049 223.120, 45.500 227.532 C 48.800 228.474, 51.609 229.337, 51.743 229.449 C 51.877 229.561, 52.929 234.274, 54.081 239.923 L 56.175 250.193 53.838 254.603 C 51.661 258.709, 51.606 259.202, 53.036 261.756 C 55.323 265.843, 60.710 267.262, 72 266.752 C 84.937 266.167, 90.146 263.889, 92.330 257.862 C 93.199 255.463, 94.392 251.025, 94.981 248 C 95.571 244.975, 96.379 242.050, 96.777 241.500 C 97.206 240.907, 101.798 240.626, 108.066 240.811 L 118.632 241.121 120.893 250.311 C 122.137 255.365, 123.760 260.444, 124.501 261.599 C 126.540 264.777, 134.162 266.500, 146.177 266.500 C 155.458 266.500, 157.222 266.226, 159.677 264.401 C 163.214 261.771, 163.741 257.936, 161.143 253.729 L 159.149 250.500 161.743 237.500 C 164.051 225.936, 164.342 222.070, 164.379 202.500 C 164.419 181.713, 164.268 179.884, 161.641 169.322 L 158.860 158.144 166.979 149.837 C 184.244 132.173, 197.728 112.120, 198.685 102.684 C 199.261 97.003, 196.590 92.032, 191.670 89.630 C 188.163 87.917, 187.522 87.884, 184.057 89.246 C 181.547 90.232, 179.715 90.420, 178.616 89.805 C 177.705 89.295, 176.084 89.156, 175.013 89.496 C 173.470 89.986, 172.945 89.533, 172.481 87.307 C 171.832 84.202, 168.083 76.278, 164.883 71.248 C 163.745 69.460, 162.148 64.735, 161.333 60.748 C 157.890 43.893, 148.061 30.554, 134 23.654 C 126.246 19.850, 115.477 17.048, 108.490 17.017 C 105.079 17.003, 103.685 16.260, 99.145 12.043 C 90.770 4.262, 83.433 1.517, 77.500 3.945 M 78.756 7.569 C 75.400 9.389, 72.174 15.454, 71.345 21.497 C 70.751 25.830, 71.466 27.014, 73.550 25.151 C 75.200 23.676, 88.441 19.206, 93.331 18.473 C 95.912 18.086, 98.246 17.411, 98.517 16.973 C 99.148 15.952, 90.309 9.445, 85.640 7.494 C 81.427 5.734, 82.153 5.726, 78.756 7.569 M 89.216 23.019 C 66.987 28.843, 51.057 44.973, 46.958 65.809 C 45.070 75.404, 46.192 92.720, 49.311 102.134 C 52.508 111.780, 55.398 117.465, 58.050 119.323 C 61.763 121.923, 71 130.962, 71 131.995 C 71 134.360, 67.462 132.636, 62.176 127.694 C 59.054 124.775, 53.813 120.163, 50.529 117.444 C 39.851 108.604, 39.081 107.778, 37.394 103.361 C 35.799 99.184, 33 97.362, 33 100.500 C 33 102.495, 32.252 102.404, 27.362 99.814 C 23.380 97.705, 23.125 97.688, 20.568 99.364 C 17.330 101.485, 15.777 105.226, 16.642 108.819 C 18.942 118.370, 32.517 136.669, 48.575 151.866 C 55.715 158.623, 58.048 161.431, 57.567 162.687 C 55.954 166.889, 53.012 191.481, 53.007 200.808 C 52.999 212.283, 53.867 219.332, 57.668 238.678 L 60.258 251.857 58.129 254.563 C 55.264 258.206, 55.417 260.828, 58.565 262.025 C 61.908 263.296, 77.481 263.272, 82.100 261.989 C 87.154 260.585, 88.722 258.419, 90.451 250.453 C 91.282 246.629, 92.239 242.517, 92.580 241.315 C 93.111 239.443, 92.649 238.978, 89.350 238.066 C 83.977 236.579, 82.247 235.353, 83.605 233.995 C 84.388 233.212, 86.756 233.480, 92.076 234.954 C 102.063 237.721, 116.439 237.747, 125.161 235.013 C 132.887 232.591, 133.229 232.575, 132.823 234.664 C 132.633 235.645, 130.446 237.023, 127.500 238.018 C 123.688 239.307, 122.545 240.159, 122.691 241.604 C 123.111 245.763, 126.587 257.798, 127.786 259.242 C 129.693 261.541, 136.876 263.002, 146.193 262.986 C 159.778 262.964, 161.641 261.697, 157.361 255.391 C 155.594 252.786, 155.005 250.885, 155.408 249.081 C 161.015 223.972, 162.997 202.599, 161.125 187.442 C 160.210 180.040, 155.757 160.922, 152.462 150.250 C 151.359 146.679, 154.755 147.414, 156.247 151.069 L 157.500 154.138 164.696 146.819 C 173.671 137.690, 182.009 127.522, 187.701 118.764 C 195.396 106.925, 196.994 98.903, 192.545 94.455 C 189.517 91.426, 187.862 91.387, 182.805 94.230 C 179.108 96.308, 178.771 96.342, 177.869 94.730 C 176.464 92.220, 175.137 92.605, 174.353 95.750 C 172.491 103.221, 165.596 114.755, 160.011 119.742 C 152.735 126.239, 135.794 134, 128.888 134 C 123.582 134, 126.205 131.864, 135.050 128.981 C 165.104 119.185, 177.293 96.188, 163.251 75.774 C 160.711 72.081, 159.209 68.253, 157.876 62.075 C 153.235 40.553, 140.721 27.212, 120.760 22.506 C 112.070 20.457, 98.129 20.683, 89.216 23.019 M 46.741 35.429 C 40.860 37.528, 39.999 38.671, 40.005 44.372 C 40.009 48.008, 40.708 50.652, 42.407 53.460 L 44.804 57.420 47.915 50.836 C 49.625 47.216, 52.820 42.214, 55.013 39.723 C 57.206 37.232, 59 34.925, 59 34.597 C 59 33.498, 50.543 34.072, 46.741 35.429 M 132.589 65.077 C 129.548 68.691, 129.037 73.332, 131.739 72.812 C 132.695 72.628, 133.643 71.582, 133.846 70.489 C 134.428 67.356, 136.014 66, 139.097 66 C 141.267 66, 142.327 66.732, 143.533 69.064 C 145.342 72.562, 147.625 72.455, 147.246 68.890 C 146.878 65.434, 142.536 62, 138.533 62 C 136.014 62, 134.533 62.767, 132.589 65.077 M 80.750 68.080 C 78.459 69.414, 75.707 74.794, 76.396 76.590 C 77.279 78.890, 79.033 78.203, 80.102 75.138 C 81.141 72.157, 85.019 69.686, 87.291 70.558 C 88.014 70.836, 89.400 72.407, 90.370 74.049 C 91.340 75.691, 92.554 76.776, 93.067 76.459 C 94.793 75.392, 94.019 72.292, 91.364 69.636 C 88.576 66.849, 84.012 66.180, 80.750 68.080 M 36.832 74.023 C 31.332 79.298, 30.058 82.913, 32.426 86.527 C 33.967 88.880, 41.985 95.348, 42.599 94.735 C 42.752 94.581, 42.568 88.851, 42.189 82.001 L 41.500 69.546 36.832 74.023 M 117.639 73.694 C 116.444 74.889, 116.994 77, 118.500 77 C 119.325 77, 120 76.352, 120 75.559 C 120 73.888, 118.573 72.761, 117.639 73.694 M 107.658 74.675 C 107.296 75.037, 107 75.933, 107 76.667 C 107 78.156, 109.578 78.492, 110.430 77.113 C 111.111 76.012, 108.562 73.771, 107.658 74.675 M 122 84 C 120.625 84.440, 114.528 84.845, 108.450 84.900 C 96.207 85.011, 95 85.536, 95 90.750 C 95 99.659, 103.805 107, 114.490 107 C 124.997 107, 132.865 100.458, 133.778 90.963 C 134.080 87.818, 133.797 85.461, 133.004 84.505 C 131.669 82.896, 126.226 82.646, 122 84 M 121 87.635 C 117.202 88.698, 113.172 89.008, 107.980 88.636 C 103.844 88.340, 99.854 88.473, 99.113 88.930 C 96.940 90.273, 99.564 96.495, 103.761 99.955 C 113.501 107.983, 129.547 102.191, 130.264 90.387 C 130.549 85.700, 129.269 85.320, 121 87.635 M 40.588 100.845 C 41.817 106.480, 42.014 106.665, 44.089 104.121 C 46.222 101.506, 45.485 99.622, 41.972 98.703 C 40.294 98.264, 40.093 98.575, 40.588 100.845 M 48.031 159.182 C 48.072 162.186, 52.981 170.391, 53.009 167.500 C 53.019 166.400, 53.284 164.545, 53.597 163.377 C 54.024 161.787, 53.393 160.704, 51.083 159.059 L 48 156.864 48.031 159.182 M 38.684 176.796 C 36.332 179.395, 35.209 186, 37.119 185.999 C 39.428 185.998, 47.963 182.466, 49.591 180.838 C 50.963 179.466, 50.857 179.136, 48.556 177.628 C 44.351 174.873, 40.703 174.566, 38.684 176.796 M 20.223 180.557 C 16.101 183.444, 17.913 186, 24.082 186 C 27.538 186, 27.851 184.290, 24.961 181.189 C 22.534 178.583, 22.959 178.640, 20.223 180.557 M 6.355 187.518 C 4.866 191.398, 12.908 203.349, 22.234 211.113 C 28.561 216.380, 42.449 223.584, 48.165 224.563 L 51.830 225.191 50.727 220.845 C 50.120 218.455, 49.610 209.637, 49.593 201.250 C 49.576 192.863, 49.506 186, 49.438 186 C 49.369 186, 46.697 186.900, 43.500 188 C 35.844 190.634, 25.217 190.639, 16.839 188.013 C 9.200 185.618, 7.121 185.520, 6.355 187.518" stroke="none" fill="black" fill-rule="evenodd"/>
</svg>