<svg xmlns="http://www.w3.org/2000/svg" width="366" height="255" viewBox="0 0 366 255" version="1.1">
	<path d="M 158.206 10.418 C 155.095 13.962, 152.464 20.085, 149.509 30.659 C 147.876 36.503, 147.603 36.852, 144.168 37.496 C 137.064 38.829, 124.390 43.260, 117.709 46.747 C 108.970 51.307, 99.742 61.174, 92.261 73.953 C 89.188 79.204, 86.099 84.454, 85.398 85.621 C 84.244 87.541, 83.469 87.695, 77.215 87.248 C 70.675 86.780, 70.135 86.908, 67.056 89.659 C 63.018 93.267, 61.852 99.879, 64.389 104.785 C 65.275 106.498, 66 108.082, 66 108.304 C 66 108.526, 61.613 110.862, 56.250 113.495 C 27.801 127.463, 16.912 137.643, 14.001 152.994 C 13.451 155.897, 13 161.445, 13 165.322 C 13 170.989, 12.609 172.787, 11.005 174.495 C 7.978 177.716, 6.442 186.929, 7.869 193.303 C 9.857 202.190, 15.968 207.044, 30.093 210.959 C 36.522 212.740, 37.908 213.572, 41.735 217.947 C 44.556 221.172, 48.397 224.055, 52.688 226.167 C 58.347 228.953, 60.612 229.478, 68.451 229.821 C 76.517 230.174, 78.373 229.914, 84.060 227.639 L 90.515 225.057 99.868 226.973 C 113.854 229.838, 130.219 231.166, 139.806 230.214 L 148.113 229.389 150.806 233.050 C 156.567 240.879, 163.971 245.066, 175.654 247.100 C 198.086 251.007, 213.465 241.703, 220.189 220.159 C 221.560 215.765, 221.169 215.914, 246.500 210.133 C 268.194 205.183, 273.305 204.411, 273.819 206.009 C 274.909 209.395, 282.734 215.793, 288.500 218.013 C 293.314 219.867, 296.575 220.341, 305 220.412 C 314.877 220.495, 315.822 220.322, 320.922 217.500 C 327.938 213.619, 333.231 206.858, 335.892 198.378 C 337.052 194.685, 338 191.135, 338 190.490 C 338 189.845, 339.913 188.760, 342.250 188.079 C 351.627 185.348, 356.433 180.111, 359.032 169.788 C 360.396 164.369, 359.007 158.007, 355.747 154.747 C 353.859 152.859, 353.503 150.963, 352.797 139.057 C 351.809 122.374, 350.485 117.886, 344.565 111.150 C 342.166 108.420, 333.772 104.022, 326.270 101.565 C 319.270 99.273, 317.726 97.796, 313.134 89 C 305.472 74.322, 304.436 72.691, 298.047 65.232 C 287.698 53.152, 274.691 45.823, 253.098 39.905 L 245.141 37.725 242.937 31.831 C 240.178 24.453, 235.137 17.761, 230.815 15.738 C 226.891 13.901, 177.035 7, 167.689 7 C 161.563 7, 161.043 7.188, 158.206 10.418 M 161.796 18.620 C 159.982 23.234, 156.222 35.681, 155.799 38.472 C 155.525 40.282, 156.739 40.626, 170.500 42.638 C 201.850 47.220, 219.121 49.957, 219.957 50.473 C 221.007 51.122, 221.699 46.651, 222.546 33.750 C 223.132 24.836, 223.360 24, 225.212 24 C 227.162 24, 227.208 24.366, 226.449 33.750 C 225.255 48.518, 225.282 51.106, 226.622 50.592 C 227.268 50.344, 230.543 49.600, 233.899 48.940 C 237.254 48.280, 240 47.585, 240 47.396 C 240 47.207, 238.653 43.661, 237.007 39.517 C 233.153 29.817, 229.551 24.160, 226.484 22.994 C 223.695 21.934, 183.580 16.406, 171.411 15.405 L 163.321 14.739 161.796 18.620 M 163.607 19.726 C 162.006 21.328, 163.190 23.788, 165.815 24.313 L 168.631 24.876 167.646 31.468 C 166.611 38.392, 167.402 40.827, 170.324 39.706 C 171.309 39.328, 172.015 36.833, 172.498 32.016 C 173.198 25.047, 173.275 24.892, 175.857 25.192 C 177.940 25.435, 178.567 25.031, 178.815 23.285 C 179.162 20.844, 178.268 20.498, 169.357 19.624 C 166.528 19.347, 163.941 19.393, 163.607 19.726 M 179.148 28.830 C 175.772 36.153, 175.163 40, 177.378 40 C 178.136 40, 179.393 39.040, 180.172 37.867 C 181.955 35.182, 185.729 36.079, 186.187 39.297 C 186.409 40.858, 187.301 41.592, 189.250 41.816 C 192.349 42.173, 192.393 42.034, 190.935 36.500 C 187.259 22.543, 187.023 22, 184.620 22 C 182.722 22, 181.719 23.252, 179.148 28.830 M 195.602 24.836 C 195.317 25.295, 195.443 26.983, 195.881 28.586 C 196.446 30.653, 196.131 32.786, 194.799 35.925 C 193.766 38.359, 193.149 40.947, 193.429 41.675 C 194.328 44.019, 197.059 43.088, 198.360 39.994 L 199.624 36.989 201.296 40.494 C 202.391 42.790, 203.664 44, 204.984 44 C 207.292 44, 207.641 41.501, 205.874 37.624 C 205.232 36.214, 205.037 33.618, 205.420 31.577 C 205.967 28.656, 206.530 28, 208.486 28 C 209.804 28, 211.088 28.337, 211.339 28.750 C 211.590 29.163, 211.214 32.875, 210.502 37 C 209.535 42.608, 209.498 44.685, 210.354 45.235 C 211.446 45.935, 213.926 46.279, 214.066 45.750 C 215.184 41.506, 216.503 27.204, 215.852 26.378 C 214.675 24.885, 205.956 23.953, 203.826 25.093 C 202.898 25.590, 201.962 27.009, 201.746 28.248 C 201.339 30.575, 200.977 30.126, 199.531 25.500 C 199.029 23.892, 196.454 23.457, 195.602 24.836 M 182.605 30.588 C 181.750 32.816, 181.818 33, 183.500 33 C 184.325 33, 185 32.352, 185 31.559 C 185 29.443, 183.307 28.757, 182.605 30.588 M 143.500 46.139 C 126.926 49.983, 121.590 52.495, 113.158 60.419 C 106.921 66.282, 101.363 74.427, 91.950 91.500 C 87.402 99.750, 82.740 107.572, 81.590 108.882 C 80.441 110.191, 72.975 114.491, 65 118.436 C 43.554 129.045, 35.860 133.509, 31.982 137.591 C 30.067 139.606, 29.175 141.035, 30 140.765 C 34.348 139.343, 40.864 147.428, 42.531 156.312 C 43.545 161.721, 42.222 168.716, 39.747 171.021 C 35.914 174.592, 25.794 172.909, 23.080 168.250 C 22.268 166.855, 22.055 167.338, 22.030 170.628 C 22.014 172.921, 22.604 175.256, 23.359 175.883 C 27.955 179.697, 69.142 189.407, 106.987 195.597 C 119.125 197.582, 125.929 198.122, 138.262 198.079 C 152.782 198.027, 154.182 198.182, 156.043 200.043 C 157.154 201.154, 158.332 203.408, 158.660 205.052 C 159.610 209.801, 160.678 209.363, 161.318 203.964 C 162.709 192.214, 172.940 177.836, 183.446 172.866 C 193.692 168.018, 203.471 169.085, 211.228 175.895 C 214.547 178.810, 220.980 190.175, 221.015 193.187 C 221.054 196.501, 222.353 196.827, 230 195.447 C 238.763 193.866, 246.679 192.182, 265.104 187.978 C 272.472 186.297, 279.727 184.660, 281.227 184.340 C 283.427 183.871, 284.072 183.057, 284.560 180.130 C 285.736 173.085, 288.141 167.129, 291.965 161.789 C 302.889 146.533, 321.687 143.942, 331.571 156.329 L 334.231 159.663 339.616 157.144 C 344.503 154.857, 345 154.325, 345 151.382 C 345 148.817, 344.545 148.072, 342.825 147.820 C 339.501 147.331, 336 139.879, 336 133.293 C 336 127.902, 337.928 122.524, 340.122 121.793 C 341.006 121.498, 341.007 120.882, 340.130 119.243 C 338.217 115.668, 332.970 112.453, 324.102 109.422 C 319.277 107.772, 314.598 105.439, 313.102 103.936 C 311.671 102.498, 308.059 96.862, 305.075 91.411 C 295.270 73.496, 285.659 62.398, 274.863 56.522 C 270.847 54.336, 250.270 47, 248.155 47 C 247.754 47, 247.354 47.945, 247.267 49.100 C 247.025 52.322, 244.507 53.558, 233.332 55.942 C 223.502 58.040, 222.686 58.070, 215.269 56.595 C 210.996 55.745, 196.343 53.462, 182.708 51.521 C 159.884 48.271, 153.030 47.092, 149 45.721 C 148.175 45.440, 145.700 45.628, 143.500 46.139 M 121 58.307 C 116.271 59.798, 108.437 67.888, 102.900 77 C 83.465 108.982, 82.935 110.642, 91.500 112.686 C 94.250 113.342, 101.675 114.826, 108 115.984 C 125.913 119.264, 143.784 122.731, 152 124.520 C 162.042 126.708, 175.840 128.961, 179.327 128.983 C 183.945 129.011, 187.297 124.630, 190.797 113.989 C 194.974 101.291, 200 81.506, 200 77.760 C 200 69.229, 192.727 64.920, 172.425 61.423 C 147.272 57.090, 128.476 55.951, 121 58.307 M 122.481 63.394 C 120.821 64.117, 117.932 66.452, 116.062 68.582 C 112.896 72.188, 102 88.376, 102 89.473 C 102 89.744, 100.300 92.785, 98.223 96.232 C 94.286 102.764, 91.731 108, 92.479 108 C 94.548 108, 126.717 114.068, 145.343 117.972 C 176.799 124.564, 178.939 124.792, 181.588 121.833 C 184.083 119.046, 184.997 116.620, 188.494 103.500 C 189.961 98, 191.768 91.475, 192.511 89 C 194.809 81.346, 195.315 76.085, 193.917 74.399 C 190.491 70.272, 178.513 66.954, 156.141 63.937 C 139.616 61.708, 126.824 61.501, 122.481 63.394 M 253.891 62.442 C 253.648 62.686, 247.789 63.582, 240.871 64.435 C 216.200 67.476, 211.868 70.939, 204.462 93.544 C 202.488 99.570, 200.425 106.586, 199.878 109.136 C 199.331 111.685, 196.871 116.835, 194.412 120.579 C 189.256 128.430, 188.394 130.999, 189.944 133.895 C 191.524 136.848, 195.088 137.420, 199.608 135.446 C 202.391 134.230, 205.825 133.800, 211.662 133.938 C 218.191 134.092, 220.630 133.719, 223.858 132.073 C 226.077 130.940, 228.254 129.407, 228.696 128.666 C 229.156 127.896, 234.934 126.268, 242.184 124.867 L 254.868 122.417 255.875 126.458 C 256.430 128.681, 257.162 132.975, 257.502 136 C 257.842 139.025, 258.327 142.512, 258.579 143.750 C 258.956 145.597, 258.598 146, 256.584 146 C 255.234 146, 252.976 146.439, 251.565 146.975 C 249.293 147.839, 249 148.510, 249 152.859 C 249 157.103, 248.696 157.848, 246.750 158.370 C 242.060 159.627, 241.501 159.222, 241.475 154.555 C 241.462 152.114, 241.132 149.799, 240.743 149.409 C 240.353 149.020, 237.664 149.333, 234.767 150.105 L 229.500 151.509 229.198 156.754 C 228.947 161.100, 228.575 162, 227.030 162 C 226.003 162, 224.452 162.273, 223.582 162.607 C 222.267 163.112, 222 162.353, 222 158.107 C 222 153.178, 221.904 153.003, 219.250 153.100 C 212.739 153.336, 211.541 154.257, 210.876 159.542 C 210.111 165.613, 211.439 167.142, 216.488 166.003 L 219.904 165.232 220.202 170.366 L 220.500 175.500 223.909 175.165 C 230.928 174.474, 232 173.543, 232 168.134 C 232 163.261, 232.030 163.215, 235.500 162.810 C 238.962 162.406, 239 162.443, 239 166.232 C 239 170.784, 240.232 171.492, 246.512 170.550 L 251 169.877 251 165.064 C 251 160.472, 251.144 160.221, 254.125 159.625 C 255.844 159.281, 257.682 159, 258.209 159 C 258.790 159, 259.058 164.521, 258.888 172.970 C 258.733 180.654, 258.957 187.290, 259.385 187.718 C 261.316 189.649, 263 184.371, 263 176.388 L 263 168.159 266.008 167.498 C 269.751 166.676, 271.086 164.307, 270.353 159.787 C 269.817 156.488, 269.966 156.257, 273.018 155.646 C 277.950 154.660, 278 154.698, 278 159.441 C 278 161.884, 278.341 164.093, 278.759 164.351 C 279.856 165.029, 287.990 163.410, 289.109 162.291 C 289.649 161.751, 289.769 158.887, 289.388 155.648 C 288.849 151.057, 288.407 150.046, 287.110 150.430 C 280.180 152.476, 280.330 152.545, 279.587 146.945 L 278.897 141.742 274.366 142.363 C 271.873 142.705, 269.421 143.240, 268.917 143.551 C 268.413 143.863, 268 146.566, 268 149.559 C 268 153.238, 267.595 155.004, 266.750 155.014 C 266.063 155.021, 264.512 155.292, 263.305 155.616 C 261.131 156.199, 261.111 156.088, 261.139 143.852 C 261.155 137.058, 260.842 130.150, 260.442 128.500 C 259.398 124.186, 256.061 117.844, 255.135 118.416 C 254.702 118.684, 253.813 114.763, 253.159 109.702 C 252.505 104.641, 250.800 93.165, 249.370 84.199 C 247.939 75.234, 247.053 67.614, 247.401 67.266 C 249.104 65.563, 250.419 70.712, 254.381 94.591 L 258.680 120.500 262.090 120.446 C 266.268 120.381, 295.218 115.318, 299.862 113.840 L 303.224 112.771 302.809 107.042 C 302.489 102.607, 301.080 98.629, 296.570 89.426 C 291.768 79.626, 289.582 76.385, 284.122 70.972 C 279.579 66.466, 276.208 64.028, 273.384 63.203 C 269.490 62.065, 254.840 61.493, 253.891 62.442 M 255.459 69.750 C 256.009 71.180, 260.081 94.840, 262.600 111.250 C 262.975 113.690, 263.708 115, 264.699 115 C 266.061 115, 291.256 110.645, 296.657 109.475 C 298.313 109.117, 298.690 108.484, 298.278 106.754 C 297.250 102.434, 290.224 88.221, 286.231 82.381 C 278.435 70.979, 273.400 68, 261.925 68 C 255.536 68, 254.857 68.184, 255.459 69.750 M 231 71.387 C 217.933 74.285, 214.156 79.066, 208.633 99.698 L 206.277 108.500 214.562 108.500 C 224.281 108.500, 227.594 110.248, 229.926 116.607 C 230.712 118.748, 231.387 120.561, 231.427 120.635 C 231.578 120.913, 248.281 118.052, 248.648 117.685 C 249.183 117.151, 246.440 96.954, 243.837 82.250 C 241.369 68.311, 242.096 68.927, 231 71.387 M 72.250 95.123 C 70.628 96.780, 70.702 101.024, 72.392 103.250 C 73.123 104.213, 73.976 105, 74.289 105 C 75.120 105, 81.171 95.838, 80.671 95.338 C 79.468 94.134, 73.370 93.979, 72.250 95.123 M 207.500 114.945 C 205.020 115.960, 203.170 118.017, 198.588 124.850 C 194.078 131.576, 194.049 132.827, 198.483 129.445 C 201.853 126.874, 202.171 126.825, 208.338 127.898 C 216.214 129.270, 220.467 128.493, 223.048 125.212 C 226.995 120.194, 222.041 113.957, 214.194 114.063 C 211.612 114.098, 208.600 114.495, 207.500 114.945 M 67.987 120.648 C 64.969 122.654, 60.085 126.334, 57.133 128.825 C 51.760 133.360, 44 142.379, 44 144.090 C 44 145.930, 46.057 144.915, 48.742 141.750 C 53.575 136.054, 62.339 127.999, 67.500 124.509 C 70.250 122.649, 73.625 120.209, 75 119.086 C 79.560 115.362, 74.111 116.576, 67.987 120.648 M 295.500 121.929 C 288.560 123.604, 286.777 125.847, 289.035 130.066 C 290.233 132.304, 291.100 132.386, 297.961 130.915 C 304.115 129.595, 305.964 127.120, 303.548 123.433 C 301.904 120.924, 300.642 120.688, 295.500 121.929 M 295.500 125.713 C 292.807 126.361, 291.141 128, 293.175 128 C 296.320 128, 301 126.729, 301 125.875 C 301 124.960, 298.890 124.898, 295.500 125.713 M 341.667 126.667 C 340.607 127.726, 340.894 138.934, 342.035 141.066 C 344.019 144.773, 344.569 142.945, 343.879 134.926 C 343.172 126.700, 342.847 125.486, 341.667 126.667 M 243.138 131.369 C 240.132 132.457, 237 135.332, 237 137.003 C 237 137.344, 237.950 138.643, 239.112 139.890 C 240.979 141.893, 241.821 142.077, 246.362 141.471 C 252.737 140.619, 255.354 138.548, 254.476 135.049 C 253.167 129.831, 250.120 128.842, 243.138 131.369 M 161 139.640 C 147.682 146.683, 141.614 150.529, 138.685 153.784 C 135.607 157.204, 138.742 157.522, 143.333 154.255 C 145.625 152.625, 150.200 149.813, 153.500 148.007 C 174.883 136.305, 177.087 134.950, 176.441 133.905 C 175.439 132.283, 173.671 132.940, 161 139.640 M 245.823 134.717 C 242.375 135.234, 239.789 138, 242.753 138 C 246.665 138, 251.073 136.718, 250.727 135.680 C 250.297 134.392, 249.298 134.196, 245.823 134.717 M 27.905 147.750 C 23.685 153.007, 23.053 156.798, 25.445 162.522 C 27.302 166.968, 33.031 170.049, 35.551 167.958 C 38.133 165.815, 37.230 153.536, 34.175 149.246 C 31.569 145.587, 29.952 145.201, 27.905 147.750 M 47.557 156.223 C 45.424 159.268, 45.531 168.556, 47.752 173 C 50.120 177.741, 56.408 180.117, 76.560 183.886 C 95.352 187.401, 97.353 187.034, 101.053 179.390 C 106.271 168.613, 104.141 163.216, 93.612 160.536 C 83.918 158.069, 59.268 154, 54.014 154 C 50.083 154, 48.805 154.440, 47.557 156.223 M 51.459 159.067 C 50.559 160.523, 50.530 160.511, 59 161.922 C 67.813 163.391, 94.501 168.675, 97.750 169.596 C 100.186 170.286, 100.781 168.878, 98.750 167.231 C 97.231 166, 87.296 163.822, 68.025 160.497 C 51.253 157.604, 52.307 157.695, 51.459 159.067 M 122.196 160.887 C 116.175 162.978, 111.692 166.798, 108.908 172.210 C 106.461 176.968, 106.380 184.146, 108.750 186.224 C 117.613 193.995, 134.985 192.164, 143.873 182.522 C 146.105 180.100, 148.210 176.854, 148.550 175.309 C 148.889 173.764, 149.327 171.971, 149.524 171.325 C 150.316 168.711, 147.922 163.387, 145.265 161.855 C 140.701 159.225, 128.462 158.711, 122.196 160.887 M 310.500 159.718 C 306.378 160.719, 302.035 165.184, 298.810 171.734 C 295.726 177.999, 295.501 179.141, 295.515 188.479 C 295.532 199.591, 296.747 203.316, 302.165 208.858 C 304.695 211.446, 306.019 212, 309.668 212 C 317.264 212, 323.046 207.542, 327.177 198.500 C 330.416 191.410, 330.492 175.436, 327.315 169.500 C 322.660 160.802, 317.763 157.954, 310.500 159.718 M 348.500 160.564 C 347.950 160.709, 344.943 161.593, 341.819 162.529 C 336.623 164.085, 336.209 164.419, 336.974 166.430 C 337.434 167.640, 338.130 171.188, 338.520 174.315 C 338.911 177.442, 339.651 180, 340.165 180 C 342.493 180, 347.265 176.614, 349.040 173.701 C 351.897 169.016, 351.517 159.768, 348.500 160.564 M 123.754 165.599 C 121.057 166.428, 117.496 168.570, 115.504 170.562 C 112.558 173.509, 112 174.769, 112 178.477 C 112 184.333, 114.337 186, 122.548 186 C 130.647 186, 133.189 183.565, 133.785 175.236 C 134.126 170.474, 133.827 169.033, 132.025 166.750 C 129.548 163.611, 130.009 163.675, 123.754 165.599 M 137.503 165.750 C 138.889 169.130, 139.233 175.892, 138.174 178.930 C 136.779 182.932, 138.268 182.846, 141.318 178.750 C 146.100 172.326, 145.897 166.857, 140.810 165.084 C 136.760 163.672, 136.660 163.692, 137.503 165.750 M 51 165.917 C 51 166.913, 52.959 167.385, 76.079 171.952 C 84.561 173.627, 92.756 175.663, 94.290 176.476 C 96.766 177.786, 97.147 177.782, 97.664 176.434 C 97.985 175.598, 98 174.667, 97.698 174.365 C 97.108 173.774, 54.631 165, 52.363 165 C 51.613 165, 51 165.413, 51 165.917 M 306.978 172.786 C 301.960 177.805, 300.341 183.560, 301.863 190.971 C 303.379 198.348, 306.550 201.500, 312.457 201.500 C 315.926 201.500, 317.493 200.902, 319.791 198.700 C 326.471 192.301, 326.822 179.134, 320.491 172.422 C 315.968 167.626, 312.033 167.732, 306.978 172.786 M 52 172.111 C 52 173.573, 55.560 174.893, 66.126 177.348 C 80.833 180.764, 92.926 182.474, 94.097 181.303 C 94.713 180.687, 89.182 179.197, 78.706 177.160 C 69.712 175.410, 60.023 173.374, 57.176 172.636 C 54.329 171.897, 52 171.661, 52 172.111 M 310.536 176.150 C 305.727 179.933, 304.944 190.416, 309.134 194.913 C 311.457 197.406, 313.302 197.555, 315.435 195.422 C 318.115 192.742, 319.181 189.963, 319.249 185.480 C 319.383 176.616, 315.385 172.336, 310.536 176.150 M 189.479 181.546 C 184.036 183.387, 177.749 190.490, 175.647 197.172 C 169.662 216.200, 172.514 231.465, 183.280 238.029 C 194.858 245.088, 211.302 230.263, 212.722 211.486 C 214.307 190.534, 203.617 176.764, 189.479 181.546 M 16 187.050 C 16 198.644, 19.118 200.397, 55 208.968 C 80.756 215.120, 115.600 221.839, 125.500 222.563 C 135.324 223.282, 144.115 222.090, 149.915 219.253 C 154.056 217.228, 154.801 214.492, 152.795 208.683 L 151.500 204.930 133 204.582 C 116.886 204.279, 112.049 203.771, 95.500 200.646 C 57.770 193.523, 29.971 187.104, 21.474 183.554 C 19.429 182.699, 17.361 182, 16.878 182 C 16.395 182, 16 184.272, 16 187.050 M 275.500 190.249 C 271.100 191.230, 263.450 192.881, 258.500 193.916 C 247.265 196.266, 224.923 201.131, 223.250 201.592 C 222.563 201.782, 222 203.218, 222 204.784 L 222 207.630 232.250 205.446 C 259.355 199.670, 281.296 194.081, 282.846 192.559 C 283.586 191.831, 284.036 190.612, 283.846 189.850 C 283.557 188.691, 282.184 188.757, 275.500 190.249 M 186.615 196.219 C 182.555 200.456, 179.989 206.462, 180.006 211.693 C 180.018 215.597, 182.187 220.989, 184.926 223.921 C 187.254 226.413, 188.602 227, 191.997 227 C 199.774 227, 204.493 222.418, 206.183 213.225 C 208.178 202.379, 203.474 193.409, 195.210 192.301 C 191.135 191.755, 190.704 191.951, 186.615 196.219 M 288.778 198.065 C 287.675 199.986, 285.978 201.254, 283.974 201.655 L 280.874 202.275 284.094 205.597 C 285.865 207.424, 289.348 209.612, 291.835 210.459 C 297.550 212.407, 298.542 212.399, 296.565 210.422 C 294.175 208.032, 292.740 204.988, 291.556 199.797 L 290.483 195.094 288.778 198.065 M 189.241 200.250 C 184.714 205.083, 183.748 212.434, 186.950 217.686 C 189.912 222.543, 192.660 223.642, 195.875 221.256 C 199.652 218.452, 200.969 215.266, 200.985 208.885 C 201.010 199.340, 194.546 194.587, 189.241 200.250 M 168.079 203.583 C 168.127 204.748, 168.364 204.985, 168.683 204.188 C 168.972 203.466, 168.936 202.603, 168.604 202.271 C 168.272 201.939, 168.036 202.529, 168.079 203.583 M 166.040 211.750 C 164.662 219.733, 163.228 222.249, 159.077 223.968 C 157.385 224.669, 156 225.622, 156 226.087 C 156 226.551, 157.370 228.490, 159.044 230.397 C 162.259 234.059, 168.294 237.372, 173.815 238.506 L 177.130 239.187 173.574 234.529 C 168.667 228.101, 166.579 220.441, 167.381 211.811 C 167.729 208.065, 167.832 205, 167.610 205 C 167.387 205, 166.681 208.037, 166.040 211.750 M 51.500 216.755 C 53.411 218.760, 62.541 221.231, 69.500 221.626 L 76.500 222.024 65.500 219.620 C 59.450 218.299, 53.600 216.877, 52.500 216.461 C 51.118 215.939, 50.809 216.030, 51.500 216.755" stroke="none" fill="black" fill-rule="evenodd"/>
</svg>