<svg xmlns="http://www.w3.org/2000/svg" width="371" height="290" viewBox="0 0 371 290" version="1.1">
	<path d="M 68.455 9.455 C 63.576 14.333, 66.085 23.107, 72.778 24.571 C 74.275 24.899, 76.063 25.340, 76.750 25.552 C 78.105 25.970, 78.412 32.875, 77.358 39.250 C 76.783 42.730, 76.493 43, 73.324 43 C 68.515 43, 65 46.697, 65 51.755 C 65 53.870, 65.540 56.140, 66.200 56.800 C 67.133 57.733, 66.941 58, 65.335 58 C 60.122 58, 55.883 64.678, 54.544 75 L 53.830 80.500 48.066 83.244 C 37.383 88.330, 31.064 96.391, 26.506 110.750 L 24.839 116 20.467 116 C 10.624 116, 7.379 120.183, 6.398 134.139 C 6.030 139.370, 6.061 146.744, 6.466 150.526 C 7.095 156.402, 7.662 157.862, 10.361 160.561 L 13.520 163.720 12.789 175.110 C 12.387 181.374, 12.097 191.548, 12.146 197.717 C 12.229 208.352, 12.101 209.091, 9.677 211.972 C 8.256 213.661, 6.834 216.921, 6.475 219.317 C 5.640 224.887, 7.408 234.360, 9.950 237.929 C 12.554 241.587, 19.847 244.646, 31.822 247.103 C 40.384 248.860, 41.788 249.456, 44 252.265 C 53.035 263.740, 61.122 267.445, 75.799 266.832 C 82.847 266.538, 85.640 265.922, 90.500 263.591 C 97.119 260.417, 97.896 260.385, 113 262.665 C 120.180 263.748, 127.415 264.099, 135.882 263.773 L 148.263 263.297 149.882 266.398 C 152.421 271.265, 158.874 277.047, 164.943 279.894 C 170.003 282.267, 171.619 282.500, 183 282.500 C 197.244 282.500, 200.311 281.453, 207.691 274.074 C 212.347 269.418, 214.811 264.895, 216.990 257.006 C 218.322 252.185, 218.985 251.287, 222.411 249.674 C 224.966 248.471, 229.429 247.689, 235.333 247.411 C 240.293 247.177, 248.885 246.309, 254.426 245.482 C 273.259 242.672, 271.216 242.457, 273.905 247.527 C 279.753 258.550, 290.539 264.007, 306.444 263.991 C 314.594 263.982, 316 263.693, 320.500 261.097 C 323.250 259.511, 326.481 257.153, 327.680 255.856 C 331.514 251.711, 336.715 242.184, 337.366 238.114 L 337.996 234.171 345.748 233.460 C 360.113 232.141, 364 228.207, 364 214.982 C 364 207.465, 362.366 202.801, 359.123 201.066 C 357.393 200.140, 357.221 197.762, 356.570 165.786 C 355.729 124.414, 354.627 106.745, 352.583 101.853 C 351.745 99.848, 349.311 96.698, 347.174 94.853 C 344.360 92.425, 343.087 90.397, 342.560 87.500 C 341.667 82.601, 339.819 80.425, 335.276 78.926 C 332.095 77.876, 331.847 77.517, 332.397 74.764 C 332.729 73.106, 333 69.874, 333 67.582 C 333 63.769, 333.270 63.332, 336.169 62.457 C 339.842 61.348, 342.717 57.829, 343.588 53.377 C 344.082 50.851, 343.655 49.652, 341.350 47.102 C 338.929 44.425, 337.295 43.739, 330.500 42.548 C 320.474 40.790, 265.140 31.935, 242.500 28.465 C 225.335 25.834, 192.564 20.581, 146.251 13.037 C 120.481 8.840, 110.908 8.013, 108.727 9.797 C 107.953 10.430, 105.470 10.493, 102 9.966 C 85.181 7.415, 81.617 7, 76.512 7 C 71.897 7, 70.476 7.433, 68.455 9.455 M 74 15.816 C 74 17.369, 75.702 17.884, 85.750 19.373 C 106.843 22.498, 105.226 22.405, 104.843 20.468 C 104.578 19.123, 102.010 18.207, 93.500 16.419 C 79.489 13.477, 74 13.307, 74 15.816 M 113.618 16.715 C 113.278 17.055, 113 18.141, 113 19.128 C 113 21.343, 116.804 22.392, 130.500 23.952 C 136 24.578, 143.875 25.728, 148 26.507 C 152.125 27.286, 162.245 28.881, 170.490 30.051 C 178.734 31.221, 185.758 32.351, 186.099 32.561 C 186.440 32.772, 192.494 33.656, 199.554 34.526 C 206.613 35.396, 215.789 36.767, 219.945 37.573 C 224.100 38.378, 234.412 39.933, 242.861 41.028 C 251.309 42.123, 258.579 43.240, 259.016 43.510 C 259.453 43.780, 267.166 45.094, 276.155 46.431 C 285.145 47.767, 297 49.546, 302.500 50.383 C 329.640 54.514, 334.348 55.052, 335.269 54.131 C 336.681 52.719, 335.215 51, 332.600 51 C 331.345 51, 328.109 50.329, 325.409 49.508 C 322.709 48.688, 315.775 47.557, 310 46.995 C 304.225 46.433, 296.800 45.304, 293.500 44.484 C 290.200 43.665, 281.650 42.317, 274.500 41.488 C 267.350 40.659, 259.250 39.345, 256.500 38.569 C 253.750 37.792, 245.431 36.432, 238.013 35.545 C 230.596 34.658, 222.046 33.305, 219.013 32.539 C 215.981 31.773, 210.350 30.853, 206.500 30.496 C 198.330 29.737, 183.336 27.325, 182.121 26.575 C 181.659 26.289, 175.481 25.354, 168.391 24.496 C 161.301 23.638, 153.250 22.314, 150.500 21.555 C 147.750 20.796, 142.575 19.896, 139 19.556 C 135.425 19.215, 129.575 18.482, 126 17.925 C 122.425 17.369, 118.316 16.730, 116.868 16.506 C 115.420 16.281, 113.958 16.375, 113.618 16.715 M 84 36 C 84 42.203, 84.392 46, 85.031 46 C 86.553 46, 86.858 44.412, 87.195 34.750 C 87.466 26.967, 87.307 26, 85.750 26 C 84.200 26, 84 27.143, 84 36 M 93.005 30.750 L 93.010 34.500 95.410 31.500 C 98.039 28.215, 97.912 27, 94.941 27 C 93.364 27, 93.001 27.703, 93.005 30.750 M 99.839 34.750 C 97.515 37.913, 94.538 41.688, 93.225 43.140 C 91.556 44.985, 91.188 45.998, 92.005 46.503 C 92.648 46.901, 93.517 46.837, 93.935 46.363 C 94.353 45.888, 97.704 41.788, 101.380 37.250 C 106.800 30.561, 107.686 29, 106.065 29 C 104.787 29, 102.540 31.075, 99.839 34.750 M 112 29.937 C 112 31.965, 121.005 49, 122.077 49 C 123.570 49, 122.502 45.713, 118.199 37.067 C 114.853 30.342, 112 27.061, 112 29.937 M 121.035 30.750 C 121.055 31.163, 121.714 32.625, 122.500 34 L 123.929 36.500 123.965 33.250 C 123.989 31.012, 123.533 30, 122.500 30 C 121.675 30, 121.016 30.337, 121.035 30.750 M 129 37.375 C 129 41.431, 128.719 46.156, 128.375 47.875 C 127.899 50.253, 128.105 51, 129.236 51 C 130.861 51, 131.976 44.631, 131.991 35.250 C 131.998 31.246, 131.644 30, 130.500 30 C 129.302 30, 129 31.486, 129 37.375 M 137.238 37.250 L 136.977 42.500 140.959 38 C 143.149 35.525, 144.954 33.163, 144.970 32.750 C 144.987 32.337, 143.313 32, 141.250 32 L 137.500 32 137.238 37.250 M 144.002 42.294 C 137.947 49.209, 136.357 51.587, 137.615 51.851 C 138.682 52.075, 141.873 49.386, 146.395 44.455 C 154.891 35.192, 155.427 34.378, 153.523 33.647 C 152.561 33.278, 149.313 36.228, 144.002 42.294 M 161.135 35.793 C 161.336 36.334, 163.735 41.327, 166.467 46.888 C 169.954 53.988, 171.957 57, 173.192 57 C 175.375 57, 174.890 55.573, 168.738 43.892 C 166.137 38.955, 163.587 35.358, 162.544 35.154 C 161.568 34.964, 160.934 35.252, 161.135 35.793 M 104.490 41.717 C 101.252 45.957, 101.071 46.507, 102.694 47.147 C 105.177 48.126, 114.245 48.183, 113.833 47.217 C 113.650 46.786, 112.600 44.312, 111.500 41.720 C 110.400 39.128, 109.183 37.006, 108.796 37.004 C 108.409 37.002, 106.471 39.123, 104.490 41.717 M 174.728 43.867 L 178.500 50.996 183.650 45.248 C 189.602 38.605, 189.579 38.572, 178.083 37.439 L 170.957 36.737 174.728 43.867 M 151.610 46.140 L 145.854 52.500 150.177 53.248 C 152.555 53.659, 156.705 54.454, 159.400 55.015 C 162.095 55.575, 164.486 55.848, 164.714 55.620 C 164.941 55.392, 163.381 51.735, 161.247 47.493 L 157.366 39.781 151.610 46.140 M 187.475 48.750 C 181.323 55.763, 180.161 57.573, 181.622 57.866 C 182.873 58.117, 185.877 55.604, 191.188 49.866 C 195.446 45.265, 198.946 41.163, 198.965 40.750 C 198.984 40.337, 198.134 40, 197.075 40 C 195.907 40, 192.134 43.439, 187.475 48.750 M 205.253 43.149 C 209.161 52.845, 214.598 62.923, 216.138 63.326 C 218.797 64.021, 218.446 62.676, 213.183 52 C 210.073 45.692, 207.863 42.382, 206.604 42.149 C 205.330 41.912, 204.887 42.240, 205.253 43.149 M 217.726 49.750 C 219.590 53.462, 221.427 56.585, 221.808 56.689 C 222.189 56.793, 224.596 54.298, 227.158 51.145 L 231.816 45.413 224.150 44.206 C 219.933 43.543, 216 43, 215.410 43 C 214.819 43, 215.861 46.038, 217.726 49.750 M 194.750 52.961 C 192.137 56.177, 190 59.004, 190 59.243 C 190 59.858, 207.015 62.318, 207.552 61.781 C 208.294 61.040, 201.570 47.007, 200.500 47.062 C 199.950 47.090, 197.363 49.745, 194.750 52.961 M 233.752 51.250 C 231.833 53.587, 228.666 57.291, 226.714 59.480 C 224.763 61.668, 223.380 63.806, 223.642 64.230 C 224.644 65.850, 226.858 64.876, 229.281 61.750 C 230.666 59.962, 233.854 56.250, 236.366 53.500 C 241.456 47.927, 241.849 47, 239.120 47 C 238.087 47, 235.671 48.913, 233.752 51.250 M 247 48.343 C 247 49.709, 257.905 69.468, 258.829 69.776 C 260.779 70.426, 260.206 68.551, 255.250 58.063 C 251.902 50.978, 249.983 48.010, 248.750 48.006 C 247.787 48.003, 247 48.154, 247 48.343 M 257 49.389 C 257 50.439, 263.092 62.939, 263.825 63.392 C 264.209 63.629, 266.643 61.169, 269.234 57.924 C 274.482 51.350, 274.779 51.941, 265.500 50.489 C 263.300 50.145, 260.488 49.620, 259.250 49.323 C 258.012 49.026, 257 49.056, 257 49.389 M 73 51.953 C 73 53.523, 79.781 55.041, 92.685 56.359 C 104.045 57.520, 104.901 57.486, 105.327 55.858 C 105.851 53.853, 104.845 53.562, 92.026 52.020 C 81.388 50.740, 73 50.710, 73 51.953 M 238.115 59.141 L 232.961 65.500 241.512 66.886 C 246.214 67.648, 250.262 68.071, 250.507 67.827 C 250.751 67.582, 249.222 64.097, 247.109 60.082 L 243.268 52.781 238.115 59.141 M 273 61.098 C 265.743 70.033, 265.188 71, 267.324 71 C 268.771 71, 274.841 64.776, 281.098 56.877 C 284.142 53.033, 284.148 53, 281.834 53.048 C 280.152 53.082, 277.683 55.332, 273 61.098 M 113.153 54.782 C 111.847 55.218, 111.597 57.633, 112.782 58.365 C 113.510 58.815, 118.737 59.609, 157 65.078 C 164.975 66.218, 175.775 67.807, 181 68.610 C 186.225 69.412, 193.425 70.516, 197 71.062 C 200.575 71.608, 210.025 72.952, 218 74.047 C 225.975 75.143, 236.775 76.683, 242 77.470 C 247.225 78.257, 258.475 79.848, 267 81.006 C 275.525 82.164, 283.738 83.347, 285.250 83.635 C 287.622 84.087, 288 83.834, 288 81.794 C 288 79.140, 290.637 79.704, 254.083 74.537 C 243.954 73.105, 233.829 71.523, 231.583 71.020 C 229.337 70.518, 221.566 69.416, 214.314 68.572 C 207.061 67.728, 199.186 66.604, 196.814 66.074 C 194.441 65.545, 185.075 64.174, 176 63.027 C 166.925 61.880, 157.887 60.508, 155.917 59.977 C 153.946 59.447, 146.071 58.310, 138.417 57.452 C 130.762 56.593, 122.206 55.555, 119.403 55.144 C 116.600 54.734, 113.787 54.571, 113.153 54.782 M 292.238 60.623 C 294.623 65.027, 295.473 65.907, 296.157 64.684 C 297.375 62.507, 293.373 55, 290.995 55 C 289.405 55, 289.552 55.664, 292.238 60.623 M 299.889 57.793 C 301.319 60.465, 302.690 61.311, 303.490 60.016 C 303.835 59.457, 305.216 59, 306.559 59 C 307.902 59, 309 58.550, 309 58 C 309 57.450, 307.462 57, 305.582 57 C 303.702 57, 301.399 56.707, 300.465 56.348 C 299.010 55.790, 298.928 55.996, 299.889 57.793 M 280.186 65.551 C 274.285 72.723, 274.034 72.242, 284.287 73.421 C 288.120 73.862, 289.198 73.648, 289.697 72.348 C 290.290 70.801, 287.298 60.302, 286.043 59.527 C 285.715 59.324, 283.079 62.035, 280.186 65.551 M 323.158 63 C 324.378 64.650, 325.448 66, 325.536 66 C 325.624 66, 325.734 64.650, 325.781 63 C 325.853 60.456, 325.492 60, 323.403 60 L 320.940 60 323.158 63 M 86.498 65.422 C 86.851 66.565, 87.671 69.300, 88.320 71.500 L 89.500 75.500 102.500 75.500 C 109.650 75.500, 119.888 75.825, 125.250 76.223 C 133.128 76.808, 135 76.687, 135 75.596 C 135 74.853, 135.694 73.669, 136.542 72.965 C 139.058 70.877, 137.011 70.080, 124.948 68.449 C 118.652 67.597, 111.475 66.272, 109 65.503 C 106.525 64.735, 100.305 63.935, 95.178 63.725 C 86.121 63.355, 85.875 63.403, 86.498 65.422 M 67.465 65.952 C 64.317 67.228, 63.232 69.116, 62.851 73.982 C 62.516 78.259, 62.638 78.495, 65.500 79.114 C 70.051 80.099, 78.324 80.081, 79.901 79.082 C 81.872 77.835, 80.660 67.957, 78.327 66.250 C 76.416 64.852, 70.573 64.692, 67.465 65.952 M 302.706 68.777 C 298.488 71.378, 295.255 79.143, 294.489 88.505 L 293.835 96.510 309.042 95.045 L 324.248 93.579 323.607 86.687 C 322.881 78.875, 319.725 70.621, 316.636 68.458 C 313.820 66.485, 306.136 66.661, 302.706 68.777 M 305 73 C 300.480 77.520, 303.597 85, 310 85 C 311.405 85, 313.555 84.299, 314.777 83.443 C 317.637 81.440, 317.869 75.096, 315.171 72.655 C 312.655 70.378, 307.445 70.555, 305 73 M 145.894 74.114 C 142.746 75.270, 141 78.768, 141 83.922 C 141 87.409, 141.278 87.806, 144.125 88.375 C 148.111 89.172, 156.360 89.183, 158.418 88.393 C 159.533 87.965, 160 86.471, 160 83.327 C 160 77.618, 158.810 75.478, 154.872 74.105 C 151.158 72.810, 149.442 72.812, 145.894 74.114 M 166.473 77.748 C 166.852 79.259, 167.238 80.572, 167.331 80.664 C 167.424 80.757, 175.825 82.023, 186 83.478 C 202.049 85.774, 206.272 86.031, 217.873 85.421 C 232.360 84.658, 233.082 83.718, 220.436 82.083 C 199.649 79.396, 182.082 76.891, 178 76.033 C 175.525 75.513, 171.764 75.068, 169.642 75.044 C 165.926 75.002, 165.809 75.102, 166.473 77.748 M 308.170 76.750 C 306.951 79.121, 307.771 81, 310.024 81 C 312.392 81, 313.301 79.525, 312.497 76.991 C 311.717 74.532, 309.378 74.402, 308.170 76.750 M 90.813 86.201 C 90.575 88.639, 89.665 89.892, 87 91.451 C 84.074 93.164, 81.777 93.500, 73 93.500 C 63.952 93.500, 61.903 93.181, 58.182 91.195 L 53.864 88.890 49.396 91.508 C 42.720 95.421, 38.603 101.830, 34.629 114.500 C 26.447 140.579, 22.810 159.287, 21.505 182 C 20.937 191.872, 20.995 192.337, 22.469 189.775 C 24.503 186.242, 26.942 185, 31.845 185 C 35.045 185, 36.320 185.592, 38.371 188.029 C 41.561 191.821, 42.597 197.065, 41.125 201.978 C 39.709 206.704, 38.125 208.039, 33.143 208.708 C 28.389 209.345, 23.487 206.832, 22.093 203.043 C 21.241 200.726, 21.151 200.860, 21.079 204.559 C 21.036 206.791, 21.586 209.420, 22.303 210.400 C 23.681 212.284, 40.357 216.819, 56 219.564 C 60.675 220.384, 65.850 221.490, 67.500 222.022 C 69.150 222.554, 77.250 224.116, 85.500 225.493 C 93.750 226.869, 104.100 228.663, 108.500 229.478 C 112.900 230.294, 122.800 231.218, 130.500 231.533 C 138.200 231.849, 145.984 232.332, 147.798 232.607 C 152.448 233.314, 154.991 237.780, 154.996 245.250 C 154.998 248.412, 155.380 251, 155.844 251 C 156.309 251, 157.195 247.421, 157.813 243.046 C 159.880 228.435, 167.626 216.264, 178.082 211.203 C 181.532 209.532, 184.445 209, 190.136 209 C 203.773 209, 212.389 215.701, 216.951 229.855 C 218.078 233.351, 219 237.321, 219 238.679 C 219 242.079, 222.119 241.386, 223.086 237.771 C 225.582 228.437, 224.614 115.414, 221.974 108 C 219.605 101.346, 214.079 96.919, 205.852 95.083 C 199.974 93.772, 174.131 90.012, 170.951 90.005 C 168.619 90, 168.437 90.303, 168.815 93.545 C 169.364 98.242, 167.135 100.591, 160.852 101.938 C 148.988 104.483, 134.062 101.994, 132.066 97.139 C 131.315 95.313, 131.292 93.425, 131.990 91.007 C 132.546 89.085, 133 87.016, 133 86.408 C 133 84.735, 118.122 82.997, 103.813 82.999 L 91.127 83 90.813 86.201 M 60 85.587 C 60 87.176, 71.137 89.230, 75.737 88.490 C 82.837 87.348, 84 86.960, 83.999 85.731 C 83.998 84.827, 80.815 84.491, 71.999 84.468 C 63.590 84.445, 60 84.780, 60 85.587 M 331 88.531 C 331 90.885, 331.463 92, 332.441 92 C 335.515 92, 335.532 86.802, 332.462 85.624 C 331.353 85.198, 331 85.899, 331 88.531 M 248 89.533 C 247.175 89.699, 240.507 90.381, 233.182 91.049 L 219.864 92.263 223.453 95.222 C 225.427 96.849, 227.682 99.418, 228.464 100.930 C 229.828 103.568, 230.105 103.651, 235.193 102.969 C 238.112 102.577, 249.500 101.418, 260.500 100.394 L 280.500 98.531 272 97.700 C 262.677 96.789, 259.357 95.272, 258.407 91.487 C 257.861 89.312, 257.264 89.015, 253.642 89.116 C 251.364 89.180, 248.825 89.368, 248 89.533 M 264 89.893 C 264 91.327, 266.670 91.981, 276.827 93.034 C 283.058 93.680, 286.716 93.684, 287.355 93.045 C 288.564 91.836, 287.546 91.477, 278.918 90.072 C 270.907 88.767, 264 88.685, 264 89.893 M 159.500 93.213 C 157.850 93.698, 152.113 93.813, 146.751 93.468 C 138.216 92.918, 137.075 93.032, 137.593 94.382 C 138.245 96.082, 139.418 96.530, 145.843 97.531 C 150.522 98.260, 159.678 97.435, 161.857 96.088 C 162.594 95.633, 163.040 94.601, 162.848 93.795 C 162.578 92.658, 161.829 92.527, 159.500 93.213 M 299 102.553 C 282.225 104.387, 260.175 106.619, 250 107.514 C 239.825 108.408, 231.118 109.513, 230.651 109.969 C 229.199 111.387, 230.974 115.140, 232.831 114.580 C 233.749 114.303, 238.792 113.946, 244.038 113.788 C 258.048 113.365, 258.461 113.746, 259.601 128.177 C 260.466 139.131, 260.673 176.817, 260.046 209.287 C 259.878 217.970, 259.919 225.252, 260.137 225.470 C 260.355 225.688, 265.426 225.034, 271.407 224.016 C 282.019 222.209, 283.952 221.269, 283.985 217.899 C 284.031 213.073, 292.972 201.066, 299.574 196.964 C 308.704 191.292, 321.305 192.748, 328.258 200.279 C 332.996 205.411, 336.573 212.961, 337.483 219.750 C 338.584 227.953, 340 225.918, 340 216.135 C 340 206.492, 341.582 202.870, 346.631 200.950 L 349 200.050 348.947 179.775 C 348.884 155.880, 347.396 114.115, 346.413 108.708 C 346.035 106.623, 344.481 103.586, 342.961 101.958 C 339.443 98.192, 338.807 98.201, 299 102.553 M 41.561 103.367 C 38.040 107.099, 36.259 112.426, 29.888 138.268 C 25.516 155.998, 25.258 158.862, 27.750 161.938 C 29.823 164.497, 40.193 167.440, 52.832 169.055 C 57.599 169.665, 63.975 170.807, 67 171.594 C 74.598 173.570, 119.745 179.977, 126.173 179.992 C 130.678 180.002, 135.430 176.328, 136.875 171.717 C 137.430 169.948, 138.622 163.100, 139.525 156.500 C 140.429 149.900, 141.805 140.729, 142.584 136.119 C 146.513 112.868, 145.384 112.102, 97.500 105.520 C 80.634 103.202, 51.185 100, 46.728 100 C 45.632 100, 43.307 101.515, 41.561 103.367 M 44.686 107.356 C 41.938 111.550, 39.670 119.431, 31.774 152.221 C 30.166 158.897, 31.724 160.332, 42.802 162.380 C 76.509 168.610, 120.780 175.234, 125.810 174.801 C 131.285 174.329, 132.597 171.506, 135.010 155 C 139.146 126.716, 139.480 122.382, 137.728 119.708 C 136.009 117.084, 128.573 114.623, 119 113.511 C 115.975 113.159, 111.025 112.467, 108 111.971 C 93.940 109.670, 54.042 105.007, 48.365 105.002 C 47.191 105.001, 45.535 106.060, 44.686 107.356 M 202.308 109.987 C 197.228 112.086, 196.960 113.755, 197.669 138.904 C 198.448 166.554, 198.469 166.615, 207.347 166.311 C 214.182 166.076, 218.750 163.842, 219.639 160.301 C 220.007 158.836, 220.016 147.932, 219.660 136.069 C 218.886 110.268, 218.653 109.630, 209.898 109.291 C 206.929 109.176, 203.514 109.489, 202.308 109.987 M 296.332 109.897 C 287.720 112.118, 277.652 121.150, 273.376 130.490 C 269.587 138.767, 268.037 148.111, 268.017 162.790 C 268.002 174.717, 267.784 176.373, 265.896 178.927 C 263.274 182.473, 264.039 187.324, 267.587 189.649 C 269.774 191.082, 270 191.916, 270 198.544 C 270 207.113, 271.242 209, 276.880 209 C 283.143 209, 284.394 207.327, 284.847 198.351 C 285.136 192.635, 285.753 189.858, 287.122 188.118 C 289.609 184.956, 289.550 179.807, 287 177.500 C 285.818 176.431, 285.002 174.424, 285.004 172.595 L 285.007 169.500 286.891 172.589 C 292.879 182.408, 311.439 187.348, 322.121 181.965 C 328.542 178.730, 334.878 173.261, 338.108 168.168 C 346.145 155.495, 345.962 136.607, 337.683 124.289 C 334.027 118.851, 326.523 112.843, 321.174 111.073 C 316.597 109.558, 300.584 108.800, 296.332 109.897 M 169.500 113.652 C 158.762 115.577, 156.284 117.948, 154.767 127.753 C 153.864 133.581, 153.268 135.012, 151.384 135.871 C 146.711 138, 145.791 141.914, 146.093 158.378 C 146.351 172.447, 146.219 173.744, 144.189 177 C 141.647 181.078, 141.437 183.288, 143.432 184.943 C 145.097 186.325, 151.187 185.006, 153.868 182.682 C 154.766 181.904, 157.919 180.997, 160.876 180.666 C 167.516 179.923, 170.487 178.060, 172.087 173.636 C 173.260 170.392, 173.623 170.188, 179.368 169.538 C 188.262 168.532, 191.680 166.817, 192.788 162.807 C 193.963 158.551, 193.194 120.376, 191.862 116.880 C 189.938 111.826, 184.258 111.007, 169.500 113.652 M 205 114.306 L 202.500 115.582 202.694 137.513 C 202.870 157.365, 203.060 159.572, 204.694 160.785 C 206.641 162.229, 211.398 161.744, 213.655 159.872 C 215.292 158.512, 215.596 123.566, 214.018 118.064 C 212.550 112.943, 209.862 111.824, 205 114.306 M 306.890 116.470 C 298.028 119.731, 291.818 125.374, 287.821 133.795 C 285.986 137.661, 285.580 140.283, 285.544 148.500 C 285.504 157.567, 285.769 159.040, 288.386 164.289 C 298.466 184.504, 323.949 183.822, 334.472 163.054 C 340.997 150.179, 338.631 132.406, 329.041 122.245 C 325.901 118.918, 317.546 114.990, 313.783 115.070 C 311.977 115.109, 308.875 115.739, 306.890 116.470 M 177 117.081 C 165.280 118.572, 162.084 119.863, 160.454 123.765 C 159.654 125.679, 159 128.989, 159 131.122 C 159 134.685, 159.223 135, 161.750 135.004 C 163.262 135.006, 165.897 135.860, 167.605 136.901 C 171.533 139.296, 173 144.648, 173 156.585 L 173 165.285 179.222 164.635 C 182.644 164.277, 186.049 163.380, 186.788 162.641 C 188.324 161.104, 188.589 155.956, 188.243 134.321 C 188.047 122.087, 187.695 118.838, 186.429 117.571 C 185.564 116.707, 184.552 116.057, 184.179 116.127 C 183.805 116.197, 180.575 116.626, 177 117.081 M 287.728 120.482 C 277.779 128.078, 274 139.479, 274 161.894 L 274 177 276.750 177.001 L 279.500 177.003 279.203 160.420 C 278.806 138.290, 281.296 129.636, 290.686 120.517 C 295.335 116.001, 293.622 115.981, 287.728 120.482 M 234 118.692 L 231.500 119.084 231.837 173.792 C 232.023 203.881, 232.327 228.654, 232.513 228.842 C 232.698 229.030, 237.834 228.615, 243.925 227.919 L 255 226.655 255.054 212.077 C 255.083 204.060, 255.196 180.625, 255.304 160 C 255.456 130.992, 255.209 121.990, 254.215 120.250 C 253.033 118.182, 252.266 118.012, 244.715 118.150 C 240.197 118.232, 235.375 118.476, 234 118.692 M 307.994 122.934 C 300.780 125.129, 296.677 128.683, 292.908 136 C 289.707 142.215, 289.603 154.632, 292.704 160.500 C 297.121 168.862, 303.992 172.580, 313.560 171.787 C 326.856 170.684, 335.594 156.618, 332.809 140.804 C 330.542 127.934, 318.964 119.597, 307.994 122.934 M 16.030 125.464 C 14.414 127.411, 13.450 149.657, 14.836 153 C 15.725 155.144, 15.884 155.215, 15.946 153.500 C 15.986 152.400, 17.157 146.550, 18.549 140.500 C 22.706 122.429, 22.592 124, 19.747 124 C 18.371 124, 16.698 124.659, 16.030 125.464 M 309 128.133 C 304.721 129.386, 300.453 133.263, 297.908 138.210 C 295.063 143.742, 295.253 154.596, 298.274 159.078 C 305.450 169.727, 317.588 169.627, 324.710 158.860 C 327.165 155.149, 327.493 153.734, 327.444 147.071 C 327.383 138.783, 326.070 135.297, 321.303 130.768 C 317.938 127.570, 313.886 126.702, 309 128.133 M 241.578 129.383 C 237.002 130.028, 233.482 131.028, 233.245 131.749 C 232.586 133.751, 235.094 134.124, 243.564 133.286 C 250.445 132.604, 251.500 132.245, 251.500 130.583 C 251.500 128.111, 251.012 128.052, 241.578 129.383 M 306.353 135.465 C 301.170 139.096, 299.370 149.815, 302.956 155.696 C 307.005 162.336, 318.012 162.308, 322.074 155.647 C 325.756 149.609, 324.060 139.257, 318.783 135.561 C 315.974 133.593, 309.102 133.540, 306.353 135.465 M 308.073 141.635 C 301.901 149.481, 310.131 160.812, 316.826 153.686 C 321.151 149.081, 318.182 139, 312.500 139 C 311.147 139, 309.263 140.121, 308.073 141.635 M 152.547 143.250 C 150.592 149.513, 151.777 171.610, 154.148 173.113 C 156.456 174.575, 163.645 174.133, 165.048 172.442 C 166.604 170.567, 166.502 146.807, 164.925 143.860 C 164.140 142.393, 162.769 142, 158.433 142 C 154.911 142, 152.797 142.449, 152.547 143.250 M 238.078 143.900 C 233.429 144.531, 231.615 146.426, 234.718 147.410 C 235.723 147.730, 238.108 147.543, 240.016 146.995 C 241.925 146.448, 245.402 146, 247.743 146 C 250.860 146, 252 145.598, 252 144.500 C 252 142.897, 247.046 142.684, 238.078 143.900 M 310.476 145.667 C 308.505 147.638, 308.916 150.940, 311.313 152.398 C 313.808 153.915, 317.464 149.736, 316.013 147.025 C 314.621 144.424, 312.290 143.853, 310.476 145.667 M 243.217 157.076 C 235.148 158.116, 232.791 158.891, 233.302 160.335 C 233.565 161.081, 235.832 161.416, 239.607 161.266 C 248.995 160.893, 252.169 160.116, 251.812 158.276 C 251.409 156.199, 250.747 156.106, 243.217 157.076 M 242.235 170.970 C 235.697 171.564, 231.756 173.089, 233.151 174.484 C 233.436 174.769, 237.813 174.708, 242.878 174.348 C 250.344 173.818, 252.032 173.408, 251.794 172.180 C 251.417 170.239, 250.936 170.178, 242.235 170.970 M 49.750 179.080 C 46.163 181.170, 45 185.453, 45 196.582 C 45 205.605, 45.318 207.779, 47.050 210.580 C 48.177 212.404, 49.864 214.122, 50.800 214.398 C 57.722 216.437, 70.971 219.096, 78.500 219.956 C 92.276 221.529, 95.507 221.334, 98.459 218.750 C 100.938 216.580, 101.038 216.050, 101.265 203.831 C 101.493 191.551, 101.423 191.078, 99 188.452 C 95.428 184.580, 91.844 183.335, 79.186 181.570 C 73.030 180.711, 66.083 179.568, 63.747 179.029 C 58.264 177.764, 51.970 177.787, 49.750 179.080 M 147.232 180 C 146.545 181.100, 146.241 182, 146.557 182 C 147.866 182, 151 179.859, 151 178.965 C 151 177.256, 148.520 177.938, 147.232 180 M 53 182.754 C 50.380 183.707, 50.031 185.262, 50.015 196.027 C 49.998 207.972, 50.948 210.329, 56.214 211.410 C 58.021 211.782, 67.137 213.413, 76.471 215.035 C 97.618 218.712, 96.500 219.356, 96.500 203.495 C 96.500 189.065, 95.932 188.285, 84.392 186.873 C 77.854 186.074, 67.735 184.507, 56.500 182.555 C 55.400 182.364, 53.825 182.453, 53 182.754 M 270.431 183.112 C 269.277 184.978, 272.258 186.027, 277 185.424 C 282.837 184.680, 284 184.283, 284 183.031 C 284 181.617, 271.308 181.692, 270.431 183.112 M 240.500 184.909 C 234.898 185.611, 232.667 186.653, 233.585 188.138 C 233.961 188.746, 236.808 188.895, 240.851 188.518 C 250.243 187.642, 252 187.163, 252 185.481 C 252 183.888, 249.594 183.768, 240.500 184.909 M 28.039 191.189 C 25.317 194.110, 25.297 200.297, 28 203 C 30.639 205.639, 32.568 205.523, 35.545 202.545 C 38.417 199.674, 38.675 196.431, 36.308 192.973 C 33.139 188.342, 31.101 187.902, 28.039 191.189 M 53 190.408 C 53 191.307, 54.013 192.463, 55.250 192.976 C 58.365 194.268, 71.184 196.714, 79 197.509 C 82.575 197.872, 86.894 198.593, 88.597 199.112 C 91.756 200.073, 95 199.474, 95 197.928 C 95 196.149, 90.801 194.999, 74.887 192.420 C 65.874 190.960, 57.263 189.542, 55.750 189.269 C 53.669 188.894, 53 189.171, 53 190.408 M 275 197.031 C 275 202.556, 275.343 204.194, 276.601 204.677 C 279.001 205.598, 279.968 203.190, 279.985 196.250 C 279.999 190.246, 279.902 190, 277.500 190 C 275.070 190, 275 190.198, 275 197.031 M 236.074 198.857 C 233.301 199.655, 232.186 201.769, 234.167 202.473 C 236.267 203.219, 252.227 200.613, 252.371 199.500 C 252.522 198.330, 239.671 197.823, 236.074 198.857 M 111.117 200.631 C 108.427 202.515, 106 207.731, 106 211.630 C 106 215.639, 110.446 222.528, 113.978 223.991 C 117.635 225.506, 123.522 224.742, 126.088 222.420 C 127.100 221.504, 128.666 218.822, 129.569 216.459 C 131.532 211.318, 130.361 206.217, 126.192 201.750 C 124.042 199.446, 122.800 199, 118.535 199 C 115.448 199, 112.529 199.642, 111.117 200.631 M 52.496 201.006 C 52.099 201.649, 52.210 202.610, 52.742 203.142 C 53.942 204.342, 63.710 206.659, 73.282 208.013 C 77.252 208.575, 83.111 209.543, 86.302 210.165 C 90.652 211.012, 92.392 211.008, 93.252 210.148 C 95.514 207.886, 92.102 206.711, 75.307 203.966 C 66.063 202.455, 57.312 200.908, 55.859 200.529 C 54.225 200.101, 52.943 200.283, 52.496 201.006 M 113.455 205.455 C 108.357 210.552, 111.682 220, 118.573 220 C 126.005 220, 128.708 211.554, 123.077 205.923 C 119.509 202.356, 116.691 202.218, 113.455 205.455 M 309.256 205.117 C 300.812 207.556, 295.612 217.749, 295.542 232 C 295.493 241.942, 297.470 248.161, 302.085 252.580 C 304.696 255.080, 305.902 255.493, 310.462 255.449 C 317.468 255.382, 321.766 252.157, 325.915 243.854 C 328.737 238.207, 329 236.838, 329 227.800 C 329 216.484, 327.532 212.430, 321.524 207.155 C 317.759 203.850, 315.148 203.416, 309.256 205.117 M 347.667 208.667 C 347.300 209.033, 347 212.858, 347 217.167 C 347 224.651, 347.101 225, 349.277 225 C 350.530 225, 352.555 224.299, 353.777 223.443 C 355.604 222.164, 356 220.932, 356 216.525 C 356 209.169, 355.391 208, 351.560 208 C 349.785 208, 348.033 208.300, 347.667 208.667 M 244 211.670 C 236.235 212.446, 234 213.109, 234 214.635 C 234 215.963, 235.225 216.082, 242.750 215.481 C 251.640 214.770, 253.759 214.037, 252.554 212.087 C 251.893 211.018, 250.973 210.973, 244 211.670 M 308.192 216.024 C 295.881 223.530, 301.090 248.082, 314.462 245.573 C 325.557 243.492, 328.584 221.986, 318.635 215.919 C 314.644 213.486, 312.317 213.509, 308.192 216.024 M 291.684 216.382 C 291.308 217.362, 291.029 218.914, 291.063 219.832 C 291.105 220.937, 291.453 220.685, 292.092 219.086 C 292.623 217.758, 292.902 216.206, 292.712 215.636 C 292.522 215.067, 292.059 215.403, 291.684 216.382 M 14.629 221.104 C 12.304 232.732, 16.620 236.139, 39.270 240.550 C 43.796 241.431, 55.118 243.702, 64.428 245.596 C 104.653 253.779, 118.799 255.959, 131.800 255.982 C 139.170 255.995, 142.951 255.560, 145.093 254.452 C 148.045 252.925, 148.082 252.807, 147.793 245.702 L 147.500 238.500 131.500 237.827 C 122.700 237.457, 112.575 236.728, 109 236.208 C 98.025 234.611, 66.817 228.988, 61 227.559 C 57.975 226.816, 53.568 225.928, 51.207 225.585 C 48.845 225.243, 41.420 223.664, 34.707 222.076 C 14.875 217.386, 15.368 217.410, 14.629 221.104 M 177.500 220 C 177.160 220.550, 177.332 221, 177.882 221 C 178.432 221, 179.160 220.550, 179.500 220 C 179.840 219.450, 179.668 219, 179.118 219 C 178.568 219, 177.840 219.450, 177.500 220 M 187.625 220.469 C 182.888 222.158, 177.510 227.171, 174.807 232.416 C 170.152 241.454, 170.408 257.744, 175.345 266.546 C 181.089 276.786, 193.160 277.834, 201.630 268.828 C 205.483 264.731, 206.904 262.036, 208.632 255.546 C 212.645 240.478, 207.942 224.381, 198.357 220.376 C 194.314 218.687, 192.583 218.702, 187.625 220.469 M 309.521 221.388 C 302.702 228.208, 307.339 244.100, 314.958 240.022 C 319.426 237.631, 321.351 228.514, 318.537 223.072 C 316.136 218.429, 313.055 217.854, 309.521 221.388 M 173.980 222.524 C 172.048 224.853, 173.426 225.291, 175.494 223.006 C 176.493 221.903, 176.845 221, 176.277 221 C 175.710 221, 174.676 221.686, 173.980 222.524 M 289.510 226.750 C 288.221 238.429, 287.860 239.161, 282.777 240.374 C 280.232 240.982, 280.132 241.204, 281.243 243.762 C 283.579 249.145, 288.925 253.125, 297 255.494 L 299.500 256.227 297.125 253.958 C 292.230 249.281, 290.507 243.456, 290.557 231.750 C 290.582 225.838, 290.499 221, 290.373 221 C 290.247 221, 289.858 223.588, 289.510 226.750 M 170.510 227.344 C 167.706 231.623, 165.030 239.740, 163.979 247.149 C 162.774 255.646, 162.681 255.818, 158.295 257.650 L 154.833 259.097 156.546 261.798 C 159.696 266.766, 163.387 270.038, 168.653 272.529 C 175.506 275.771, 176.722 275.647, 173.667 272.016 C 166.822 263.882, 164.620 246.622, 168.894 234.609 C 170.046 231.369, 171.506 228.095, 172.137 227.335 C 172.768 226.574, 173.032 225.698, 172.722 225.389 C 172.413 225.080, 171.417 225.960, 170.510 227.344 M 273.917 228.402 C 273.688 228.622, 267.200 229.532, 259.500 230.422 C 241.307 232.526, 232.003 234.020, 231.986 234.840 C 231.979 235.203, 231.701 236.512, 231.370 237.750 C 230.833 239.754, 231.131 240, 234.104 240 C 238.828 240, 266.103 236.213, 274.750 234.356 C 281.303 232.949, 282 232.569, 282 230.400 C 282 228.284, 281.546 228, 278.167 228 C 276.058 228, 274.146 228.181, 273.917 228.402 M 188.500 231.373 C 175.580 237.283, 175.654 258.760, 188.609 263.036 C 198.656 266.352, 207.785 249.877, 202.638 237.718 C 199.952 231.372, 194.172 228.778, 188.500 231.373 M 190.219 236.115 C 184.072 238.389, 181.884 250.331, 186.589 255.923 C 190.343 260.384, 193.516 259.780, 197.359 253.874 C 200.794 248.595, 198.797 236.965, 194.253 235.776 C 193.248 235.514, 191.433 235.666, 190.219 236.115 M 55 252.486 C 55 252.753, 56.771 254.144, 58.935 255.576 C 62.056 257.641, 64.514 258.293, 70.812 258.725 C 75.180 259.024, 80.496 258.910, 82.627 258.472 L 86.500 257.674 83 256.923 C 76.164 255.455, 57.480 252.026, 56.250 252.013 C 55.563 252.006, 55 252.219, 55 252.486" stroke="none" fill="black" fill-rule="evenodd"/>
</svg>