<svg xmlns="http://www.w3.org/2000/svg" width="379" height="252" viewBox="0 0 379 252" version="1.1">
	<path d="M 227.500 8.579 C 220.900 9.329, 206.500 10.866, 195.500 11.995 C 160.514 15.584, 146.823 17.041, 134 18.538 C 127.125 19.341, 114.750 20.680, 106.500 21.515 C 77.201 24.480, 59.483 28.279, 50.383 33.546 C 45.158 36.570, 36.489 46.004, 34.902 50.395 C 33.795 53.455, 33.240 53.811, 28.746 54.344 C 22.087 55.132, 17.902 57.736, 15.500 62.586 C 14.400 64.807, 12.493 67.687, 11.262 68.987 C 8.262 72.157, 7.500 76.376, 7.500 89.832 L 7.500 101.165 10.753 104.071 C 12.680 105.793, 15.689 107.246, 18.135 107.638 L 22.264 108.298 21.556 117.399 C 21.166 122.405, 20.650 137.277, 20.411 150.449 C 19.990 173.568, 19.897 174.481, 17.737 176.780 C 15.773 178.870, 15.500 180.228, 15.500 187.904 C 15.500 195.714, 15.786 197.078, 18.183 200.700 C 21.589 205.847, 28.219 209.213, 40.566 212.067 C 47.482 213.665, 50.088 214.702, 50.508 216.024 C 51.740 219.908, 59.690 225.824, 66.506 227.929 C 76.332 230.964, 84.043 230.688, 91.790 227.023 C 98.019 224.076, 98.140 224.061, 104.290 225.456 C 122.590 229.608, 147.043 230.835, 154.557 227.978 C 156.488 227.244, 157.183 227.678, 159.375 230.990 C 162.377 235.527, 168.488 239.925, 175.500 242.596 C 179.265 244.030, 183.093 244.500, 191 244.500 C 200.444 244.500, 202.003 244.233, 206.500 241.843 C 214.968 237.344, 219.680 231.077, 223.035 219.853 L 225.321 212.205 230.911 211.127 C 233.985 210.534, 246.376 208.183, 258.447 205.903 L 280.395 201.758 282.768 204.629 C 289.236 212.453, 291.408 214.067, 298.410 216.254 C 316.658 221.952, 331.507 217.109, 339.047 203 C 339.781 201.625, 341.126 197.800, 342.035 194.500 C 343.890 187.766, 343.236 188.123, 357.714 185.926 C 363.674 185.022, 365.451 184.296, 367.941 181.749 C 371.956 177.642, 373.305 173.123, 372.814 165.418 C 372.479 160.160, 371.931 158.537, 369.704 156.213 L 367 153.391 367 130.945 C 367.001 85.800, 363.943 46.758, 359.759 38.500 C 352.275 23.730, 344.165 18.644, 319.945 13.528 C 292.292 7.687, 253.593 5.615, 227.500 8.579 M 230.500 16.542 C 223.350 17.240, 208.500 18.769, 197.500 19.940 C 186.500 21.111, 168.725 22.933, 158 23.989 C 147.275 25.045, 132.650 26.626, 125.500 27.503 C 118.350 28.379, 106.875 29.720, 100 30.483 C 83.169 32.350, 64.193 36.307, 57.603 39.324 C 54.634 40.684, 50.471 43.545, 48.352 45.682 C 39.386 54.727, 32.873 82.897, 30.014 125 C 28.737 143.804, 28.723 172.615, 29.990 174.981 C 31.215 177.270, 39.793 180.136, 55.500 183.505 C 62.100 184.920, 73.350 187.385, 80.500 188.984 C 87.650 190.582, 95.975 192.166, 99 192.503 C 102.025 192.839, 107.875 193.768, 112 194.566 C 123.884 196.865, 137.832 197.858, 146.390 197.015 C 159.950 195.680, 163.755 198.201, 164.750 209.183 C 165.046 212.444, 165.661 214.739, 166.117 214.283 C 166.574 213.826, 167.627 209.901, 168.457 205.560 C 172.409 184.905, 185.044 171.037, 199.934 171.010 C 206.839 170.997, 212.835 173.828, 217.576 179.338 C 221.934 184.403, 223.630 188.261, 225.169 196.612 C 226.566 204.197, 226.154 204.091, 242.111 200.964 C 247.825 199.844, 257.225 198.022, 263 196.913 C 268.775 195.805, 277.427 193.971, 282.226 192.838 L 290.951 190.777 291.504 187.139 C 293.889 171.457, 296.777 164.564, 303.998 157.325 C 309.409 151.901, 313.584 150, 320.085 150 C 332.280 150, 342.249 160.325, 343.709 174.467 C 344.592 183.025, 346.419 180.778, 347 170.421 C 347.641 158.993, 349.921 155, 355.809 155 C 357.183 155, 357.933 154.087, 358.375 151.875 C 360.212 142.690, 358.037 72.319, 355.411 56 C 353.279 42.743, 348.467 33.749, 341.155 29.349 C 334.662 25.441, 324.279 22.592, 305.220 19.489 C 277.379 14.955, 255.555 14.094, 230.500 16.542 M 324.500 28.678 C 307.345 30.842, 280.184 34.069, 275 34.559 C 271.425 34.898, 261.750 36.058, 253.500 37.139 C 245.250 38.219, 233.325 39.763, 227 40.569 C 217.617 41.765, 189.258 45.596, 167.250 48.639 C 164.576 49.009, 163 49.741, 163 50.614 C 163 52.418, 167.194 52.402, 180.818 50.542 C 195.672 48.515, 222.595 45.011, 228 44.402 C 230.475 44.124, 236.550 43.264, 241.500 42.492 C 246.450 41.720, 257.025 40.367, 265 39.486 C 272.975 38.605, 283.325 37.255, 288 36.486 C 292.675 35.716, 302.125 34.601, 309 34.009 C 324.033 32.713, 332.786 31.548, 333.599 30.734 C 333.930 30.403, 333.904 29.653, 333.541 29.067 C 332.896 28.022, 330.513 27.920, 324.500 28.678 M 68.923 39.923 C 66.691 42.155, 66 43.769, 66 46.749 C 66 53.724, 69.773 55.642, 88 57.935 C 92.675 58.523, 101.228 59.754, 107.007 60.671 C 119.187 62.604, 122.367 62.124, 124.482 58.035 C 127.712 51.788, 125.510 44.953, 119.668 43.092 C 115.263 41.690, 81.962 37, 76.406 37 C 72.699 37, 71.299 37.547, 68.923 39.923 M 72.200 43.200 C 71.540 43.860, 71 45.458, 71 46.751 C 71 49.924, 75.035 51.488, 87 52.952 C 92.225 53.591, 100.367 54.797, 105.093 55.632 C 109.819 56.467, 115.219 57.004, 117.093 56.825 C 120.240 56.525, 120.524 56.213, 120.810 52.748 C 121.184 48.239, 120.463 47.868, 108 46.159 C 72.659 41.313, 73.978 41.422, 72.200 43.200 M 332.500 49.982 C 329.750 50.433, 323.450 51.299, 318.500 51.909 C 307.408 53.273, 286.543 55.994, 257 59.929 C 244.625 61.577, 231.800 63.192, 228.500 63.518 C 217.528 64.602, 213.197 65.978, 210.439 69.255 L 207.866 72.313 208.183 94.454 C 208.642 126.490, 207.805 125.731, 237.500 121.057 C 248.500 119.325, 261.550 117.259, 266.500 116.466 C 271.450 115.673, 281.575 114.113, 289 113.001 C 296.425 111.888, 306.100 110.330, 310.500 109.538 C 314.900 108.746, 320.750 107.825, 323.500 107.492 C 326.250 107.158, 330.525 106.488, 333 106.003 C 335.475 105.518, 339.174 104.851, 341.221 104.520 C 346.183 103.720, 350.619 99.847, 351.411 95.622 C 352.215 91.338, 350.266 60.552, 348.927 56.371 C 346.942 50.173, 342.316 48.374, 332.500 49.982 M 322.228 56.253 L 318.956 57.302 319.494 67.401 C 319.790 72.955, 320.233 83.125, 320.479 90 C 320.725 96.875, 320.943 102.542, 320.963 102.593 C 320.983 102.644, 326.034 101.914, 332.187 100.971 C 345.834 98.880, 347.004 97.905, 346.991 88.639 C 346.978 79.586, 344.248 58.004, 342.912 56.394 C 341.520 54.716, 327.324 54.619, 322.228 56.253 M 47.038 57.752 C 44.798 58.882, 42.776 61.090, 41.313 64 C 37.273 72.038, 32 106.307, 32 124.529 C 32 137.685, 33.765 139.021, 57.500 143.843 C 89.672 150.378, 118.603 155.018, 126.924 154.978 C 129.441 154.966, 133.432 154.079, 135.793 153.008 C 143.291 149.605, 144.113 145.659, 147.074 98.869 C 148.213 80.860, 147.669 77.470, 142.804 72.292 C 139.134 68.385, 137.479 68.061, 64.500 56.953 C 55.560 55.593, 50.890 55.806, 47.038 57.752 M 301 59.103 C 296.875 59.563, 291.477 60.302, 289.005 60.746 L 284.511 61.554 284.816 83.527 C 284.985 95.612, 285.320 106.192, 285.562 107.039 C 285.949 108.395, 287.708 108.288, 300.412 106.131 C 312.783 104.030, 314.953 103.387, 315.743 101.592 C 316.278 100.376, 316.334 95.313, 315.878 89.500 C 315.446 84, 314.803 74.662, 314.450 68.750 L 313.808 58 311.154 58.133 C 309.694 58.206, 305.125 58.642, 301 59.103 M 24.988 62.083 C 22.263 63.086, 19.602 66.548, 20.473 67.957 C 20.771 68.438, 22.326 67.520, 23.930 65.916 C 25.534 64.312, 27.781 63, 28.923 63 C 30.065 63, 31 62.550, 31 62 C 31 60.791, 28.400 60.826, 24.988 62.083 M 48.212 63.250 C 44.513 67.725, 41.005 85.890, 37.931 116.500 C 36.714 128.612, 37.312 131.871, 41.205 134.366 C 45.124 136.876, 102.265 147.486, 123.218 149.594 C 130.676 150.344, 134.751 149.230, 136.852 145.866 C 138.311 143.529, 139.334 133.154, 141.152 102.257 C 142.377 81.414, 142.362 80.962, 140.353 78.257 C 139.227 76.741, 137.224 74.976, 135.903 74.337 C 133.435 73.142, 118.306 70.400, 98 67.469 C 91.675 66.556, 81.100 64.952, 74.500 63.904 C 60.543 61.690, 49.724 61.421, 48.212 63.250 M 273.500 62.704 C 267.008 63.301, 248.601 66.066, 248.157 66.510 C 247.931 66.735, 247.880 72.450, 248.044 79.210 C 248.207 85.969, 248.258 96, 248.157 101.500 C 248.056 107, 248.357 112.083, 248.824 112.795 C 249.512 113.844, 252.291 113.702, 263.436 112.045 C 271.006 110.920, 277.829 110, 278.599 110 C 279.737 110, 280 107.215, 280 95.154 C 280 78.737, 279.031 61.908, 278.100 62.168 C 277.770 62.261, 275.700 62.502, 273.500 62.704 M 233.500 67.677 C 223.116 68.195, 216.129 70.020, 213.958 72.780 C 212.301 74.887, 212.005 76.824, 212.034 85.385 C 212.080 99.381, 213.687 115.918, 215.174 117.710 C 216.581 119.405, 220.728 119.111, 235.171 116.294 C 242.774 114.812, 243.897 114.321, 244.280 112.314 C 244.521 111.054, 244.356 101.131, 243.913 90.262 C 243.470 79.393, 243.083 69.713, 243.054 68.750 C 243.021 67.694, 242.306 67.075, 241.250 67.189 C 240.287 67.293, 236.800 67.513, 233.500 67.677 M 183 69.666 C 177.307 70.561, 166.949 73.273, 166.510 73.984 C 166.251 74.404, 163.928 73.679, 161.350 72.374 C 155.889 69.609, 152.766 69.377, 150.571 71.571 C 147.987 74.156, 148.681 78.267, 152.443 82.663 C 155.423 86.144, 155.695 86.877, 154.461 88.110 C 150.904 91.667, 149.633 115.983, 152.649 122.782 C 153.895 125.590, 154.239 128.976, 154.057 136.622 C 153.683 152.375, 156.250 155.422, 168.045 153.229 C 175.879 151.772, 189.767 144.963, 194.731 140.145 C 200.752 134.302, 201.401 129.945, 200.658 100.382 C 200.324 87.118, 199.598 75.072, 199.044 73.614 C 197.506 69.572, 192.083 68.237, 183 69.666 M 15.642 76.750 C 15.301 78.813, 15.017 84.213, 15.011 88.750 C 15.002 95.676, 15.321 97.321, 17 99 C 18.958 100.958, 23 101.773, 23 100.210 C 23 99.775, 23.699 94.391, 24.554 88.244 C 26.422 74.806, 25.894 73, 20.096 73 C 16.442 73, 16.233 73.177, 15.642 76.750 M 185 74.663 C 183.075 74.852, 178.661 75.737, 175.192 76.630 C 170.087 77.944, 169.009 78.563, 169.544 79.877 C 169.907 80.770, 170.689 82.843, 171.282 84.485 C 171.874 86.126, 173.196 88.367, 174.218 89.465 C 176.036 91.416, 176.341 92.297, 177.373 98.570 C 178.113 103.069, 176.385 119.410, 174.922 121.753 C 173.049 124.753, 168.875 126.867, 164.293 127.138 C 160.278 127.375, 160.211 127.441, 159.610 131.829 C 158.736 138.202, 158.885 146.269, 159.905 147.880 C 161.767 150.820, 177.018 146.405, 186.897 140.066 C 195.411 134.603, 195.504 134.216, 195.470 104.500 C 195.448 85.553, 195.099 77.890, 194.185 76.250 C 192.931 74.002, 192.502 73.928, 185 74.663 M 153.547 76.250 C 153.813 76.938, 155.374 78.267, 157.016 79.204 C 158.658 80.141, 160.523 82.053, 161.161 83.454 C 162.398 86.170, 166 86.980, 166 84.542 C 166 81.909, 158.533 75, 155.686 75 C 153.996 75, 153.235 75.445, 153.547 76.250 M 160.703 92.272 C 158.862 93.666, 157.019 103.555, 157.008 112.095 C 156.999 118.604, 158.828 121, 163.806 121 C 168.501 121, 169.853 118.108, 170.608 106.454 C 171.181 97.593, 171.046 96.265, 169.376 94.356 C 167.024 91.667, 162.830 90.659, 160.703 92.272 M 35.143 152.533 C 29.118 157.603, 28.633 166.255, 34.050 172.054 C 36.833 175.032, 37.390 175.217, 42.210 174.754 C 49.068 174.095, 52.006 170.921, 51.985 164.194 C 51.967 158.330, 50.416 155.197, 46.088 152.280 C 41.716 149.334, 38.867 149.400, 35.143 152.533 M 37.073 157.635 C 34.201 161.286, 34.473 164.626, 37.923 168.077 C 41.380 171.534, 42.341 171.659, 45 169 C 48.908 165.092, 46.025 155, 41 155 C 39.980 155, 38.212 156.186, 37.073 157.635 M 313.063 163.069 C 301.591 171.380, 299.327 195.952, 309.089 206.214 C 312.794 210.109, 313.128 210.242, 318.026 209.772 C 324.229 209.175, 328.695 205.339, 332.172 197.618 C 334.054 193.439, 334.480 190.756, 334.489 183 C 334.499 174.423, 334.232 173.045, 331.746 168.815 C 326.363 159.657, 320.333 157.803, 313.063 163.069 M 357.500 161.875 C 354.513 162.511, 354.499 162.548, 354.208 170.257 L 353.916 178 357.003 178 C 363.345 178, 366.807 170.883, 364.025 163.565 C 363.018 160.916, 362.561 160.798, 357.500 161.875 M 58.655 165.829 C 56.100 168.652, 56.577 173.506, 59.750 176.977 C 62.195 179.652, 63.608 180.153, 72.500 181.498 C 78 182.330, 84.300 183.448, 86.500 183.982 C 92.790 185.508, 100.621 185.236, 102.429 183.429 C 104.658 181.200, 104.461 174.727, 102.099 172.589 C 99.959 170.653, 92.645 168.752, 76.500 165.933 C 62.842 163.549, 60.729 163.537, 58.655 165.829 M 117.209 166.566 C 115.979 167.427, 114.031 169.979, 112.879 172.236 C 111.078 175.767, 110.942 176.863, 111.905 180.078 C 112.521 182.133, 114.610 185.206, 116.547 186.907 C 126.666 195.792, 139.439 184.157, 133.442 171.519 C 130.659 165.655, 122.196 163.073, 117.209 166.566 M 63.250 168.718 C 61.069 169.501, 61.785 173.957, 64.250 174.940 C 66.709 175.921, 85.376 179.487, 93.750 180.575 L 99 181.258 99 178.148 C 99 175.559, 98.539 174.943, 96.250 174.473 C 94.737 174.163, 90.800 173.250, 87.500 172.446 C 84.200 171.641, 77.907 170.498, 73.516 169.906 C 69.124 169.313, 65.299 168.703, 65.016 168.549 C 64.732 168.396, 63.938 168.472, 63.250 168.718 M 118.993 171.853 C 117.252 173.594, 116 175.901, 116 177.367 C 116 180.264, 119.514 184.556, 122.611 185.442 C 127.925 186.963, 132.316 176.925, 128.350 172.321 C 125.163 168.622, 122.364 168.482, 118.993 171.853 M 313.490 173.310 C 305.099 181.701, 307.527 197.695, 317.475 199.561 C 324.867 200.948, 330 194.857, 330 184.700 C 330 171.636, 321.220 165.580, 313.490 173.310 M 315.473 177.402 C 311.424 183.580, 313.309 195, 318.376 195 C 323.872 195, 327.097 184.724, 323.712 178 C 321.916 174.431, 317.623 174.119, 315.473 177.402 M 23.849 185.237 C 23.439 194.110, 24.941 197.884, 29.904 200.450 C 32.539 201.813, 43.182 204.551, 61.500 208.580 C 65.350 209.426, 72.325 210.992, 77 212.059 C 90.119 215.054, 117.329 219.784, 129.183 221.131 C 141.579 222.539, 152.813 221.187, 156.111 217.889 C 158.550 215.450, 158.823 205.560, 156.488 204.253 C 155.656 203.787, 151.043 203.813, 146.238 204.310 C 139.582 204.998, 134.402 204.818, 124.500 203.554 C 97.209 200.072, 37.710 187.702, 27.270 183.339 L 24 181.973 23.849 185.237 M 191.372 184.846 C 188.986 186.574, 186.080 190.208, 183.973 194.096 C 180.611 200.299, 180.503 200.845, 180.501 211.500 C 180.500 221.235, 180.787 223.075, 183 227.499 C 186.341 234.179, 191.059 237.334, 196.773 236.709 C 211.443 235.102, 220.139 215.001, 214.907 194.795 C 212.018 183.642, 200.030 178.574, 191.372 184.846 M 195.038 193.752 C 185.604 198.516, 183.796 217.541, 192.217 223.439 C 193.442 224.298, 196.309 225, 198.586 225 C 203.288 225, 207.289 221.844, 209.640 216.282 C 212.872 208.635, 209.946 196.575, 204.128 193.566 C 200.295 191.584, 199.289 191.605, 195.038 193.752 M 297 195.891 C 297 196.382, 295.141 197.527, 292.868 198.436 L 288.736 200.090 290.892 202.385 C 293.249 204.894, 302.665 209.668, 303.537 208.797 C 303.835 208.498, 302.936 206.105, 301.539 203.478 C 300.143 200.851, 299 197.869, 299 196.851 C 299 195.833, 298.550 195, 298 195 C 297.450 195, 297 195.401, 297 195.891 M 196.229 198.669 C 192.101 200.330, 190.466 213.448, 193.840 217.834 C 198.227 223.537, 206 217.243, 206 207.987 C 206 200.597, 201.679 196.477, 196.229 198.669 M 174.722 211.038 C 174.056 216.002, 171.749 219.668, 167.921 221.846 C 164.219 223.952, 164.260 225.039, 168.188 228.880 C 170.764 231.398, 180.115 236, 182.656 236 C 182.976 236, 182.022 234.407, 180.537 232.460 C 176.850 227.626, 175.860 223.839, 175.908 214.750 C 175.930 210.488, 175.794 207, 175.606 207 C 175.417 207, 175.020 208.817, 174.722 211.038 M 61.500 216.809 C 63.486 218.862, 75.026 221.998, 80.218 221.897 L 85.500 221.793 81.500 220.846 C 79.300 220.326, 74.575 219.228, 71 218.406 C 67.425 217.585, 63.600 216.657, 62.500 216.344 C 61.137 215.956, 60.818 216.104, 61.500 216.809" stroke="none" fill="black" fill-rule="evenodd"/>
</svg>