<svg xmlns="http://www.w3.org/2000/svg" width="344" height="251" viewBox="0 0 344 251" version="1.1">
	<path d="M 206 7.613 C 196.807 8.437, 182.253 11.184, 174.338 13.588 C 167.346 15.712, 153.709 17.967, 147.705 17.992 C 146.717 17.997, 144.805 19.105, 143.455 20.455 C 141.034 22.875, 141 23.154, 141 40.535 C 141 57.482, 140.887 58.481, 138.061 66.487 C 136.445 71.066, 134.156 79.693, 132.974 85.657 C 128.117 110.181, 127.964 110.393, 128.604 91.727 C 129.415 68.107, 128.035 15.430, 126.553 13.403 C 125.911 12.525, 123.161 11.252, 120.443 10.574 C 114.272 9.034, 99.568 9.996, 97.511 12.075 C 96.359 13.240, 96.008 21.347, 95.591 56.500 C 95.311 80.150, 95.063 99.838, 95.040 100.250 C 95.018 100.662, 92.931 101, 90.401 101 C 84.809 101, 79.736 103.261, 77.309 106.836 C 75.650 109.279, 75.473 112.909, 75.181 150.500 L 74.862 191.500 50.681 197.390 C 11.586 206.914, 7 208.748, 7 214.865 C 7 217.985, 10.006 221.301, 14.315 222.933 C 19.262 224.808, 37.499 224.154, 52 221.583 C 69.620 218.459, 99.026 212.227, 103.768 210.612 C 105.850 209.903, 107.942 208.352, 108.500 207.102 C 109.572 204.701, 111.535 204.686, 117.500 207.036 C 120.343 208.157, 119.740 208.415, 106 211.975 C 88.676 216.463, 75.481 220.056, 64.141 223.374 C 47.629 228.204, 43.963 237.541, 56.477 242.891 C 64.282 246.228, 85.914 243.588, 117.500 235.443 C 125.200 233.458, 133.975 231.260, 137 230.558 C 147.329 228.163, 150.726 226.996, 154.165 224.663 C 156.056 223.379, 159.038 222.042, 160.790 221.692 C 163.567 221.137, 164.161 221.411, 165.412 223.829 C 167.609 228.079, 175.552 234.906, 181.431 237.597 C 192.503 242.666, 207.567 243.308, 215.877 239.064 C 223.401 235.223, 232 225.233, 232 220.336 C 232 216.419, 234.352 214.136, 239.375 213.176 C 242.194 212.637, 249.225 211.214, 255 210.015 C 260.775 208.815, 268.650 207.257, 272.500 206.552 L 279.500 205.271 282.857 209.170 C 286.970 213.945, 291.864 216.529, 300.729 218.604 C 313.996 221.709, 325.209 218.027, 331.799 208.401 C 337.668 199.830, 339.085 186.422, 335.277 175.500 C 333.542 170.521, 333.096 166.266, 332.657 150.500 C 332.205 134.236, 331.819 130.708, 329.978 126 C 328.795 122.975, 327.469 119.150, 327.032 117.500 C 325.493 111.700, 324.160 109.348, 320.678 106.291 C 317.361 103.378, 307.635 99, 304.482 99 C 302.394 99, 302.156 96.865, 301.533 72.500 C 300.631 37.220, 299.826 28.165, 297.178 23.500 C 292.794 15.778, 290.331 14.933, 259 10.400 C 242.303 7.984, 216.807 6.643, 206 7.613 M 195 16.945 C 180.519 18.949, 175 20.649, 175 23.107 C 175 24.413, 176.229 24.968, 180.250 25.477 C 183.137 25.842, 193.333 27.236, 202.906 28.574 L 220.313 31.008 225.092 27.941 C 227.720 26.255, 231.365 24.462, 233.192 23.957 C 238.511 22.489, 253.202 20.039, 256.809 20.018 C 258.757 20.008, 259.864 19.589, 259.500 19 C 259.160 18.450, 257.407 18, 255.604 18 C 253.801 18, 247.865 17.328, 242.413 16.506 C 229.655 14.583, 210.813 14.758, 195 16.945 M 104 60.930 L 104 104 106.250 104 L 108.500 104 108.388 61.250 L 108.277 18.500 106.138 18.180 L 104 17.861 104 60.930 M 113 61.832 L 113 105.664 116.421 106.714 C 119.526 107.667, 119.886 107.567, 120.311 105.632 C 120.657 104.056, 120.423 23.438, 120.058 18.750 C 120.026 18.337, 118.425 18, 116.500 18 L 113 18 113 61.832 M 263 23.523 C 231.948 26.960, 225.074 30.097, 218.695 43.748 C 210.791 60.659, 197.905 115.556, 193.575 150.762 C 193.219 153.656, 192.671 156.694, 192.357 157.512 C 191.930 158.625, 192.540 159, 194.772 159 C 197.688 159, 197.783 158.841, 198.813 152.250 C 205.511 109.398, 213.946 73.042, 222.086 51.934 C 225.655 42.678, 231.211 35.721, 236.330 34.096 C 240.579 32.748, 270.380 29, 276.849 29 C 282.464 29, 285.555 31.012, 286.412 35.225 C 286.956 37.895, 288.696 75.615, 289.646 105.326 C 290.301 125.827, 290.344 126.143, 292.406 125.590 C 293.558 125.280, 294.900 125.021, 295.388 125.014 C 295.893 125.006, 296.003 118.859, 295.642 110.750 C 295.294 102.912, 294.566 85.475, 294.025 72 C 292.262 28.093, 291.913 26.115, 285.466 23.421 C 281.525 21.775, 278.682 21.788, 263 23.523 M 161.250 25.723 L 158 26.127 158 71.177 L 158 116.228 162.082 119.864 C 164.632 122.136, 166.470 124.813, 166.980 127 C 167.438 128.968, 167.840 107.413, 167.898 77.750 C 168.012 18.964, 168.756 24.792, 161.250 25.723 M 149.240 70.065 L 149.500 114.271 151.760 115.107 L 154.021 115.943 153.760 71.222 L 153.500 26.500 151.240 26.179 L 148.979 25.858 149.240 70.065 M 175 70.019 L 175 109.050 177.417 109.968 C 181.206 111.409, 191.885 113.448, 192.488 112.846 C 193.210 112.123, 195.613 102.630, 196.499 97 C 198.026 87.290, 205.901 57.027, 209.214 48.135 C 210.368 45.036, 212.373 40.813, 213.669 38.750 C 214.965 36.688, 215.585 35, 215.047 35 C 214.509 35, 209.216 34.362, 203.284 33.582 C 197.353 32.802, 188.563 31.899, 183.750 31.576 L 175 30.988 175 70.019 M 263 37.075 C 260.525 37.537, 256.021 38.177, 252.991 38.499 C 244.155 39.437, 244.492 38.604, 245.716 56.479 C 246.305 65.081, 247.013 72.346, 247.289 72.623 C 247.566 72.899, 252.437 73.730, 258.115 74.468 C 267.962 75.748, 268.589 75.975, 271.719 79.390 C 274.652 82.591, 275 83.597, 275 88.872 C 275 94.683, 275.046 94.780, 278.044 95.220 C 279.718 95.465, 281.292 95.337, 281.541 94.934 C 282.091 94.045, 280.201 43.829, 279.446 39.250 C 278.911 36.008, 278.895 36, 273.205 36.118 C 270.067 36.183, 265.475 36.614, 263 37.075 M 234.958 43.042 C 232.845 45.155, 232.753 45.833, 233.353 54.892 C 233.703 60.176, 233.992 67.537, 233.995 71.250 C 233.998 74.963, 234.338 77.986, 234.750 77.968 C 235.162 77.951, 236.699 76.881, 238.165 75.590 L 240.830 73.242 239.820 57.871 C 239.265 49.417, 238.448 42.117, 238.005 41.650 C 237.562 41.182, 236.191 41.809, 234.958 43.042 M 226.191 59.637 C 225.529 61.762, 224.576 65.300, 224.072 67.500 C 223.569 69.700, 221.976 75.550, 220.533 80.500 C 215.807 96.711, 211.934 115.338, 213.185 115.839 C 213.651 116.025, 216.130 115.462, 218.694 114.589 C 221.258 113.715, 224.110 113, 225.032 113 C 227.698 113, 229.009 101.671, 228.930 79.307 C 228.853 57.812, 228.207 53.168, 226.191 59.637 M 140.009 86.250 C 139.287 90.237, 137.907 97.325, 136.942 102 C 135.977 106.675, 135.290 110.608, 135.416 110.740 C 135.543 110.871, 136.963 111.243, 138.573 111.564 L 141.500 112.150 141.777 95.575 C 141.930 86.459, 141.889 79, 141.688 79 C 141.486 79, 140.730 82.263, 140.009 86.250 M 241.353 80.862 C 239.557 81.994, 237.744 84.273, 237.130 86.173 C 235.382 91.574, 232.702 112.112, 233.639 112.919 C 234.112 113.327, 240.800 115.148, 248.500 116.965 C 256.200 118.783, 263.063 120.420, 263.750 120.603 C 265.757 121.139, 265.189 124, 263.076 124 C 260.841 124, 253.808 122.604, 242.468 119.909 C 232.297 117.492, 229.471 117.515, 221.754 120.075 C 211.204 123.576, 210 124.179, 210 125.961 C 210 128.226, 212.792 129.402, 225.690 132.570 C 239.144 135.874, 243.221 135.551, 257.128 130.073 C 269.769 125.094, 268.972 126.948, 268.989 102.473 C 268.998 89.986, 268.676 85.982, 267.532 84.349 C 265.865 81.969, 260.462 80.381, 251 79.490 C 245.555 78.977, 243.989 79.200, 241.353 80.862 M 274.680 115.139 C 274.253 124.085, 273.616 128.813, 272.718 129.711 C 271.987 130.442, 266.542 133.015, 260.619 135.429 C 254.695 137.843, 249.699 139.972, 249.517 140.159 C 248.757 140.939, 246.912 160.147, 247.437 161.802 C 247.952 163.425, 248.603 163.504, 254.048 162.604 L 260.088 161.605 269.554 149.052 C 274.761 142.149, 279.937 135.353, 281.056 133.951 C 282.801 131.764, 283.075 130.055, 282.981 121.951 C 282.920 116.753, 282.562 110.250, 282.185 107.500 C 281.543 102.817, 281.304 102.481, 278.407 102.198 L 275.314 101.897 274.680 115.139 M 302.607 108.582 C 301.815 110.645, 301.833 115.916, 302.646 119.979 C 303.276 123.130, 303.392 123.193, 307.396 122.564 C 315.829 121.239, 319 120.002, 319 118.038 C 319 114.623, 314.152 110.123, 308.743 108.516 C 305.935 107.682, 303.542 107, 303.425 107 C 303.309 107, 302.941 107.712, 302.607 108.582 M 84.605 111.798 C 82.812 115.264, 81.594 161.830, 82.873 178 C 83.637 187.656, 83.718 186.731, 83.884 166.500 C 84.027 148.913, 84.358 144.111, 85.532 142.559 C 86.599 141.148, 87 137.843, 87 130.458 C 87 124.870, 87.494 118.881, 88.098 117.149 C 89.054 114.406, 89.658 114, 92.782 114 C 94.755 114, 98.873 114.668, 101.934 115.484 C 104.995 116.299, 114.925 118.585, 124 120.563 C 146.859 125.544, 151.728 127, 154.378 129.651 C 156.601 131.874, 156.702 132.729, 157.340 154.638 C 157.703 167.115, 158 185.608, 158 195.735 C 158 212.732, 158.134 214.121, 159.750 213.809 C 161.382 213.494, 161.500 210.748, 161.500 172.986 C 161.500 128.792, 161.322 127.252, 155.878 124.437 C 150.423 121.616, 96.525 109, 89.929 109 C 86.694 109, 85.811 109.464, 84.605 111.798 M 175.179 138.963 C 175.407 152.143, 175.841 163.175, 176.145 163.478 C 176.448 163.781, 178.739 162.887, 181.236 161.492 C 185.613 159.045, 185.799 158.750, 186.437 153.227 C 186.801 150.077, 187.944 142.550, 188.977 136.500 C 190.011 130.450, 191.001 123.728, 191.178 121.562 L 191.500 117.623 185 116.373 C 173.575 114.176, 174.706 111.576, 175.179 138.963 M 94 130 C 94 136, 94.400 140, 95 140 C 95.600 140, 96 136, 96 130 C 96 124, 95.600 120, 95 120 C 94.400 120, 94 124, 94 130 M 104.031 132.180 C 104.060 141.670, 104.241 142.629, 106.281 144.109 L 108.500 145.717 108.367 134.109 C 108.241 123.103, 108.124 122.483, 106.117 122.180 C 104.075 121.872, 104.001 122.228, 104.031 132.180 M 113.057 137.430 L 113.204 151.127 115.774 152.104 C 120.655 153.960, 120.906 153.219, 120.294 138.808 C 119.983 131.489, 119.644 125.392, 119.541 125.260 C 119.438 125.129, 117.904 124.731, 116.133 124.377 L 112.911 123.732 113.057 137.430 M 308 126.463 C 290.112 130.100, 288.116 131.655, 269.035 156.838 C 262.587 165.347, 260.310 166.316, 242.618 168.078 C 236.503 168.686, 231.373 169.308, 231.217 169.458 C 231.062 169.609, 232.479 171.581, 234.367 173.841 C 238.584 178.888, 242 188.632, 242 195.612 C 242 205.450, 242.238 205.514, 262.211 200.990 C 281.050 196.723, 283.130 196.217, 283.389 195.837 C 283.515 195.652, 284.110 192.488, 284.710 188.807 C 286.854 175.653, 294.726 163.798, 303.553 160.427 C 308.792 158.426, 316.925 158.818, 321.926 161.313 C 323.786 162.241, 325.435 163, 325.591 163 C 325.747 163, 325.778 156.363, 325.658 148.250 C 325.476 135.885, 325.122 132.853, 323.471 129.500 C 321.772 126.052, 321.017 125.475, 318 125.321 C 316.075 125.223, 311.575 125.737, 308 126.463 M 129 137.767 C 129 143.257, 129.272 149.109, 129.604 150.771 C 130.207 153.786, 130.212 153.788, 132.198 151.802 C 133.739 150.261, 134.955 149.957, 137.594 150.452 L 141 151.091 141 140.657 L 141 130.223 137.250 129.543 C 135.188 129.169, 132.488 128.620, 131.250 128.323 C 129.031 127.791, 129 127.920, 129 137.767 M 168.411 147 C 168.411 156.625, 168.561 160.563, 168.745 155.750 C 168.928 150.937, 168.928 143.062, 168.745 138.250 C 168.561 133.438, 168.411 137.375, 168.411 147 M 148 142.465 C 148 151.906, 148.196 153.034, 150 154 C 151.938 155.037, 152 154.760, 152 145.107 C 152 137.382, 151.647 134.790, 150.429 133.571 C 149.564 132.707, 148.664 132, 148.429 132 C 148.193 132, 148 136.709, 148 142.465 M 208.123 137.699 C 207.583 139.790, 206.997 143.516, 206.821 145.980 L 206.500 150.459 211.500 152.115 C 214.250 153.025, 220.325 154.748, 225 155.944 C 229.675 157.139, 235.637 158.952, 238.250 159.972 L 243 161.828 243.057 159.164 C 243.089 157.699, 243.303 153.076, 243.534 148.891 L 243.954 141.283 237.227 140.651 C 231.563 140.119, 220.267 137.484, 211.302 134.604 C 209.388 133.989, 208.978 134.389, 208.123 137.699 M 89.843 170.894 C 89.640 185.092, 89.091 195.307, 88.500 195.892 C 87.950 196.437, 83.450 197.813, 78.500 198.950 C 47.184 206.145, 16 214.250, 16 215.196 C 16 216.317, 26.386 216.208, 27.550 215.074 C 28.426 214.221, 34.031 212.636, 51 208.441 C 73.586 202.858, 89.940 198.706, 92.767 197.837 L 96.035 196.833 95.767 172.167 L 95.500 147.500 92.843 147.193 L 90.186 146.885 89.843 170.894 M 100.656 154.180 C 100.305 157.106, 100.013 168.597, 100.009 179.715 C 100.001 198.391, 99.859 200.005, 98.141 200.925 C 97.118 201.472, 87.555 203.958, 76.891 206.448 C 54.904 211.583, 46.742 213.781, 49.176 213.911 C 51.977 214.060, 71.766 209.903, 96.643 203.939 C 101.463 202.783, 101.823 202.479, 102.382 199.103 C 103.295 193.581, 103.081 151.677, 102.132 150.180 C 101.593 149.329, 101.068 150.753, 100.656 154.180 M 205 156.376 C 205 157.322, 206.720 157.895, 210.505 158.209 C 214.186 158.514, 218.410 159.884, 223.256 162.343 C 230.140 165.838, 230.827 165.986, 237.001 165.309 C 240.575 164.917, 242.600 164.410, 241.500 164.183 C 240.400 163.956, 232.093 161.797, 223.041 159.385 C 213.988 156.973, 206.226 155, 205.791 155 C 205.356 155, 205 155.619, 205 156.376 M 109 159.803 L 109 163.606 118.250 165.901 C 123.338 167.164, 128.063 168.415, 128.750 168.682 C 129.621 169.020, 130 167.967, 130 165.208 C 130 161.706, 129.683 161.179, 127.250 160.633 C 125.737 160.294, 121.350 159.126, 117.500 158.037 C 113.650 156.949, 110.162 156.045, 109.750 156.029 C 109.338 156.013, 109 157.711, 109 159.803 M 136 184.477 C 136 210.838, 135.990 210.960, 133.750 212.406 C 131.599 213.794, 126.482 215.307, 106.500 220.461 C 70.327 229.792, 58.407 233.314, 59 234.500 C 60.136 236.773, 70.479 235.474, 80.500 231.800 C 89.332 228.563, 109.311 222.705, 134.720 215.903 L 142.939 213.703 143.220 186.362 C 143.520 157.046, 143.682 158, 138.418 158 L 136 158 136 184.477 M 148 176.143 C 148 184.692, 147.705 197.178, 147.344 203.891 C 146.766 214.644, 146.452 216.223, 144.712 217.154 C 143.625 217.736, 135.933 219.930, 127.618 222.031 C 119.303 224.132, 110.590 226.538, 108.256 227.379 C 105.921 228.219, 99.428 230.139, 93.827 231.644 C 88.226 233.149, 84.097 234.532, 84.652 234.717 C 86.172 235.224, 115.792 228.049, 142.188 220.780 L 149.877 218.663 150.512 212.581 C 151.623 201.937, 150.661 163.256, 149.250 161.848 C 148.250 160.850, 148 163.710, 148 176.143 M 188.699 163.914 C 184.114 164.864, 182.239 166.400, 184.163 167.627 C 184.898 168.097, 191.800 168.339, 199.500 168.167 C 213.029 167.863, 213.668 167.942, 218.500 170.510 C 225.430 174.193, 228.193 177.073, 231.926 184.502 C 234.375 189.376, 235.284 192.722, 235.718 198.457 C 236.237 205.315, 237.041 207.361, 238.370 205.210 C 239.261 203.768, 236.963 188.990, 235.116 184.289 C 232.398 177.369, 226.313 170.571, 219.500 166.843 C 213.911 163.784, 212.781 163.544, 203 163.343 C 197.225 163.224, 190.790 163.481, 188.699 163.914 M 168.195 168.500 C 168.215 170.150, 168.439 170.704, 168.693 169.731 C 168.947 168.758, 168.930 167.408, 168.656 166.731 C 168.382 166.054, 168.175 166.850, 168.195 168.500 M 109.208 176.750 L 109.500 184.500 119.750 187.065 L 130 189.630 130 181.815 C 130 177.517, 129.781 174, 129.513 174 C 129.244 174, 124.695 172.875, 119.403 171.500 C 114.111 170.125, 109.586 169, 109.348 169 C 109.111 169, 109.047 172.488, 109.208 176.750 M 176 172.155 C 176 175.245, 176.041 175.273, 177.996 173.503 C 179.520 172.125, 179.728 171.377, 178.874 170.348 C 177.044 168.143, 176 168.799, 176 172.155 M 308.309 170.466 C 303.857 172.402, 299.337 179.077, 297.911 185.823 C 296.903 190.590, 296.970 192.500, 298.325 197.739 C 300.356 205.589, 302.186 208.386, 306.690 210.523 C 313.808 213.901, 322.248 210.156, 326.429 201.766 C 328.488 197.635, 329 195.146, 329 189.270 C 329 173.635, 319.945 165.405, 308.309 170.466 M 188.747 177.203 C 186.683 177.752, 182.770 180.199, 180.053 182.642 C 173.478 188.554, 170.705 195.543, 170.586 206.500 C 170.470 217.246, 173.204 222.947, 181 228.219 C 187.026 232.295, 189.260 233.050, 186.602 230.112 C 180.910 223.823, 179.183 206.768, 183.072 195.253 C 185.545 187.929, 191.702 180.494, 197.461 177.878 L 201.500 176.044 197 176.125 C 194.525 176.170, 190.811 176.655, 188.747 177.203 M 308.615 179.088 C 301.617 184.593, 301.052 193.891, 307.299 200.750 C 309.801 203.497, 316.383 203.821, 319.883 201.369 C 322.682 199.409, 325 194.228, 325 189.933 C 325 180.192, 315.340 173.798, 308.615 179.088 M 202.242 180.448 C 195.971 183.263, 192.049 187.155, 188.767 193.822 C 185.834 199.779, 185.519 201.292, 185.510 209.459 C 185.502 216.690, 185.933 219.401, 187.664 223 C 191.336 230.635, 196.170 234, 203.466 234 C 209.754 234, 213.761 232.100, 218.615 226.816 C 227.206 217.466, 229.731 201.418, 224.250 191.002 C 219.408 181.800, 209.653 177.121, 202.242 180.448 M 311.913 182.282 C 307.474 185.690, 306.630 193.365, 310.314 196.826 C 313.366 199.693, 315.407 199.569, 317.927 196.365 C 320.887 192.603, 320.710 186.619, 317.545 183.455 C 314.779 180.688, 314.158 180.558, 311.913 182.282 M 291.762 189 C 291.358 190.375, 291.021 193.357, 291.014 195.628 C 291.006 198.036, 290.384 200.266, 289.521 200.983 C 287.542 202.625, 288.965 205.197, 293.355 207.911 C 297.982 210.770, 298.271 210.573, 295.741 206.285 C 294.168 203.620, 293.400 200.298, 293.022 194.535 C 292.651 188.866, 292.280 187.236, 291.762 189 M 202.309 190.907 C 196.640 193.534, 193.607 199.293, 193.545 207.544 C 193.478 216.538, 197.555 221.608, 205.712 222.676 C 216.311 224.064, 224.470 208.800, 219.080 197.666 C 215.386 190.034, 209.398 187.621, 202.309 190.907 M 109.171 193.464 C 109.398 196.838, 109.587 196.984, 116.443 199.066 C 120.314 200.242, 124.866 201.428, 126.557 201.703 C 129.486 202.178, 129.628 202.044, 129.566 198.851 C 129.501 195.566, 129.343 195.447, 121.500 192.815 C 117.100 191.339, 112.473 190.101, 111.219 190.065 C 109.227 190.008, 108.967 190.440, 109.171 193.464 M 201.570 197.340 C 196.972 201.937, 197.396 213.063, 202.299 216.497 C 205.386 218.659, 209.325 218.348, 211.759 215.750 C 216.355 210.844, 217.346 202.699, 213.932 197.904 C 211.202 194.070, 205.117 193.792, 201.570 197.340 M 44.750 214.662 C 45.438 214.940, 46.563 214.940, 47.250 214.662 C 47.938 214.385, 47.375 214.158, 46 214.158 C 44.625 214.158, 44.063 214.385, 44.750 214.662 M 40.813 215.683 C 41.534 215.972, 42.397 215.936, 42.729 215.604 C 43.061 215.272, 42.471 215.036, 41.417 215.079 C 40.252 215.127, 40.015 215.364, 40.813 215.683 M 80.813 235.683 C 81.534 235.972, 82.397 235.936, 82.729 235.604 C 83.061 235.272, 82.471 235.036, 81.417 235.079 C 80.252 235.127, 80.015 235.364, 80.813 235.683" stroke="none" fill="black" fill-rule="evenodd"/>
</svg>