<svg xmlns="http://www.w3.org/2000/svg" width="350" height="251" viewBox="0 0 350 251" version="1.1">
	<path d="M 223.500 6.734 C 212.240 7.630, 149.479 14.371, 127.597 17.033 C 113.881 18.702, 110.071 22.416, 109.119 35.050 L 108.500 43.273 97.161 45.557 C 90.924 46.813, 83.460 48.798, 80.574 49.970 C 74.951 52.252, 68.409 58.328, 63.178 66.125 C 60.354 70.335, 50.944 88.924, 43.585 104.830 C 41.583 109.158, 39.125 112.440, 35.732 115.315 C 14.931 132.940, 12.563 137.302, 11.327 160.250 C 10.979 166.713, 10.365 172, 9.961 172 C 8.324 172, 6 179.137, 6.006 184.151 C 6.019 197.201, 11.042 202.934, 26.540 207.590 C 34.617 210.016, 36.422 210.946, 37.993 213.488 C 43.446 222.312, 53.822 227.295, 67 227.420 C 74.452 227.490, 76.230 227.142, 81.419 224.594 L 87.339 221.687 96.419 223.594 C 105.797 225.562, 133.538 226.335, 139.052 224.781 C 141.227 224.168, 141.877 224.538, 143.442 227.281 C 150.032 238.831, 162.972 244.836, 178.917 243.743 C 187.863 243.130, 194.132 240.535, 199.404 235.263 C 203.773 230.894, 208.661 221.441, 209.523 215.696 C 210.081 211.976, 210.684 211.207, 214.826 208.929 C 218.788 206.751, 220.006 206.510, 222.825 207.346 C 226.248 208.361, 228.940 208.041, 249.277 204.199 L 259.054 202.352 260.961 205.426 C 263.967 210.271, 269.070 214.701, 274.500 217.179 C 278.644 219.070, 281.213 219.461, 289.500 219.459 C 298.045 219.456, 300.143 219.117, 303.916 217.123 C 312.290 212.699, 319.393 202.709, 320.641 193.600 L 321.243 189.212 327.371 188.017 C 334.929 186.542, 340.105 183.749, 341.750 180.256 C 344.345 174.744, 342.795 165.970, 338.322 160.858 C 337.120 159.484, 336.787 148.990, 336.283 96.650 C 335.610 26.766, 335.596 26.617, 329.118 22.284 C 324.380 19.114, 321.401 18.440, 297.037 15.023 C 285.192 13.362, 272.575 11.551, 269 10.999 C 252.058 8.385, 229.417 6.262, 223.500 6.734 M 225.500 14.733 C 223.300 14.936, 205.975 16.894, 187 19.083 C 168.025 21.273, 147.550 23.525, 141.500 24.089 C 118.777 26.207, 117 27.160, 117 37.223 L 117 43 122 43 C 126.424 43, 127 42.756, 127 40.885 C 127 37.579, 132.129 28.982, 134.952 27.555 C 140.249 24.878, 144.785 24.950, 166.142 28.051 C 207.324 34.029, 225 37.811, 225 40.645 C 225 41.832, 224.432 42.057, 222.750 41.535 C 216.594 39.624, 158.978 30.689, 158.150 31.516 C 157.956 31.711, 158.514 32.896, 159.392 34.149 C 160.270 35.402, 161.271 38.561, 161.617 41.168 L 162.246 45.909 167.873 46.964 C 186.380 50.434, 191.284 51.521, 198.417 53.735 C 215.799 59.131, 218.602 63.773, 220.915 91 C 221.453 97.325, 222.202 109.588, 222.580 118.250 C 223.208 132.614, 223.430 134, 225.104 134 C 226.853 134, 226.953 131.924, 227.220 90.171 L 227.500 46.342 230.277 42.702 C 232.111 40.299, 234.375 38.707, 236.942 38.016 C 241.741 36.723, 292.192 29.413, 307.607 27.776 C 313.823 27.116, 318.806 26.473, 318.681 26.347 C 318.555 26.222, 314.863 25.657, 310.476 25.093 C 306.089 24.529, 289.450 22.281, 273.500 20.099 C 257.550 17.916, 241.800 15.839, 238.500 15.483 C 235.200 15.127, 231.825 14.730, 231 14.600 C 230.175 14.470, 227.700 14.530, 225.500 14.733 M 312 31.136 C 285.745 34.369, 238.041 41.291, 235.666 42.213 C 234.107 42.818, 232.420 44.396, 231.916 45.721 C 230.911 48.364, 230.653 128.104, 231.638 131.778 C 232.043 133.289, 232.795 133.891, 233.874 133.565 C 235.515 133.069, 264.407 128.096, 304 121.494 C 315.825 119.522, 326.318 117.664, 327.318 117.366 C 329.051 116.848, 329.104 114.959, 328.455 77.161 C 328.081 55.347, 327.470 35.925, 327.098 34 C 326.488 30.844, 326.081 30.486, 322.961 30.356 C 321.057 30.277, 316.125 30.628, 312 31.136 M 137.521 34.388 C 134.564 37.346, 133.110 43.822, 135.118 45.094 C 135.878 45.576, 140.662 45.976, 145.750 45.985 C 154.387 45.999, 155 45.865, 155 43.968 C 155 40.665, 152.386 35.384, 149.883 33.631 C 146.353 31.158, 140.386 31.524, 137.521 34.388 M 309.800 39.046 C 307.163 41.683, 306.834 42.590, 307.354 45.793 C 308.175 50.852, 310.362 52.248, 316.689 51.752 C 323.447 51.223, 325 49.844, 325 44.378 C 325 38.612, 322.482 36, 316.923 36 C 313.713 36, 312.199 36.648, 309.800 39.046 M 314.250 41.031 C 311.651 42.076, 311.100 46.717, 313.467 47.626 C 316.100 48.636, 320.477 46.503, 320.837 44.035 C 321.356 40.485, 318.663 39.257, 314.250 41.031 M 242.049 46.017 C 237.627 47.058, 236 49.350, 236 54.536 C 236 60.611, 238.357 62.384, 245.635 61.780 C 249.991 61.419, 251.764 60.775, 253.166 59.043 C 255.599 56.039, 255.491 50.894, 252.927 47.635 C 250.740 44.853, 248.443 44.512, 242.049 46.017 M 111 51.078 C 99.839 52.493, 85.681 56.087, 81.275 58.623 C 74.811 62.344, 70.712 68.564, 58.841 92.663 C 52.837 104.853, 47.038 115.953, 45.954 117.331 C 44.871 118.709, 41.108 121.888, 37.593 124.396 C 34.078 126.905, 29.174 131.654, 26.696 134.951 C 23.011 139.853, 21.945 142.271, 20.845 148.223 C 19.158 157.352, 19.359 172.820, 21.187 174.532 C 22.810 176.053, 32.596 179.158, 44.500 181.930 C 49.450 183.083, 58.225 185.119, 64 186.456 C 78.649 189.847, 105.891 194.805, 115.823 195.887 C 120.653 196.414, 127.058 196.429, 131.083 195.923 C 135.956 195.312, 138.786 195.401, 140.590 196.223 C 144.045 197.797, 147 203.900, 147 209.460 C 147 211.957, 147.364 214, 147.809 214 C 150.229 214, 152.357 210.610, 154.113 203.961 C 155.196 199.858, 157.273 194.025, 158.727 191 C 162.209 183.760, 171.221 174.798, 176.616 173.211 C 185.443 170.614, 195.202 172.648, 201.007 178.295 C 204.981 182.161, 209.686 191.722, 210.594 197.776 L 211.255 202.189 213.301 200.144 C 214.967 198.477, 215.489 196.190, 216.117 187.799 C 216.541 182.135, 216.913 173.092, 216.944 167.705 L 217 157.909 213.750 158.481 C 211.963 158.795, 199.475 161.015, 186 163.414 C 127.811 173.774, 127.742 173.778, 127.209 166.481 C 126.988 163.450, 127.632 161.378, 129.906 157.800 C 135.484 149.023, 139.530 147.575, 174 142.019 C 197.521 138.227, 215.253 135.080, 215.720 134.613 C 216.326 134.008, 214.205 94.945, 212.917 83 C 210.825 63.581, 209.926 62.880, 179.500 56.937 C 171.250 55.326, 164.215 54.006, 163.867 54.004 C 163.518 54.002, 163.010 54.854, 162.737 55.898 C 161.656 60.031, 157.295 61.508, 146.544 61.383 C 131.065 61.203, 125 58.571, 125 52.035 C 125 49.737, 122.774 49.585, 111 51.078 M 241.596 51.306 C 240.498 52.109, 239.943 53.554, 240.155 55.056 C 240.467 57.264, 240.926 57.480, 244.905 57.295 C 250.190 57.050, 251.466 55.993, 250.608 52.573 C 250.078 50.461, 249.372 50, 246.672 50 C 244.863 50, 242.579 50.588, 241.596 51.306 M 130.818 52.281 C 133.832 55.912, 154.297 56.757, 157.110 53.367 C 158.102 52.173, 157.225 51.998, 151.390 52.228 C 147.601 52.378, 141.136 52.107, 137.025 51.626 C 130.370 50.848, 129.688 50.920, 130.818 52.281 M 278.337 55.931 C 271.674 57.020, 271 58.081, 271 67.484 L 271 75.722 264.869 76.278 C 256.132 77.070, 255.442 78.050, 255.759 89.204 C 255.906 94.367, 256.531 98.935, 257.202 99.743 C 258.331 101.104, 262.805 100.970, 269.536 99.374 C 271.459 98.917, 271.550 99.269, 271.186 105.712 C 270.873 111.245, 271.150 112.963, 272.650 114.815 C 274.446 117.030, 274.720 117.063, 282 115.940 C 293.146 114.221, 293 114.372, 293 104.572 C 293 95.621, 293.364 95, 298.614 95 C 299.962 95, 302.625 94.348, 304.532 93.551 L 308 92.102 308 83.485 C 308 78.746, 307.508 73.950, 306.908 72.828 C 305.918 70.978, 305.216 70.851, 299.408 71.473 L 293 72.159 293 65.802 C 293 55.335, 290.848 53.886, 278.337 55.931 M 284 59.549 C 283.175 59.724, 280.813 60.142, 278.750 60.479 L 275 61.091 275 69.937 C 275 79.925, 275.649 79.217, 265.250 80.573 L 260 81.258 260 89.104 L 260 96.950 263.250 96.362 C 265.038 96.038, 268.153 95.430, 270.173 95.010 C 272.475 94.532, 274.249 94.649, 274.923 95.323 C 275.516 95.916, 276 99.961, 276 104.314 L 276 112.227 280.750 111.557 C 289.286 110.352, 288.892 110.830, 289.212 101.275 C 289.536 91.579, 289.273 91.862, 299.250 90.517 L 304 89.877 304 82.427 L 304 74.976 299.750 75.700 C 297.413 76.098, 294.150 76.441, 292.500 76.462 L 289.500 76.500 288.598 67.750 C 288.054 62.469, 287.261 59.046, 286.598 59.116 C 285.994 59.180, 284.825 59.375, 284 59.549 M 81.500 63.206 C 77.054 64.760, 74.269 67.681, 69.504 75.792 C 64.811 83.779, 53.481 107.951, 52.481 112.109 C 52.022 114.021, 52.475 115.429, 54.177 117.378 C 56.658 120.218, 54.517 119.662, 96.500 128.365 C 122.854 133.829, 137.630 135.339, 141.976 133.013 C 144.912 131.441, 147.521 126.406, 152.456 112.787 C 159.155 94.300, 161.229 85.565, 160.002 81.007 C 158.187 74.266, 154.252 72.436, 134 68.910 C 123.328 67.052, 86.451 61.901, 85.099 62.079 C 84.770 62.122, 83.150 62.630, 81.500 63.206 M 79.118 71.755 C 75.084 75.996, 61.538 102.211, 59.463 109.792 C 58.426 113.579, 58.492 114.193, 60.026 115.014 C 62.015 116.078, 95.001 123.256, 105.500 124.908 C 109.350 125.514, 116.100 126.667, 120.500 127.470 C 124.900 128.273, 131.078 128.946, 134.230 128.965 C 139.927 129, 139.971 128.977, 142.017 124.967 C 143.149 122.748, 146.533 113.673, 149.537 104.800 C 156.492 84.259, 156.670 80.025, 150.662 78.066 C 141.203 74.981, 105.929 69.122, 91.713 68.275 L 82.926 67.752 79.118 71.755 M 187.619 74.601 C 179.505 76.214, 175.277 78.465, 172.431 82.688 C 168.196 88.973, 156.335 126.331, 157.455 129.860 C 158.118 131.947, 162.024 134.005, 165.297 133.990 C 168.218 133.978, 192.548 129.440, 199.784 127.558 C 209.250 125.096, 209.331 124.865, 208.766 102 C 208.033 72.410, 206.784 70.792, 187.619 74.601 M 189.708 79.515 C 179.926 81.159, 177.416 82.811, 174.427 89.570 C 171.554 96.065, 164.258 119.535, 163.354 125.187 C 162.710 129.212, 162.716 129.221, 165.604 128.636 C 167.197 128.313, 176.126 126.659, 185.446 124.962 C 194.767 123.264, 202.819 121.612, 203.340 121.290 C 203.912 120.936, 204.076 113.249, 203.753 101.844 C 203.325 86.734, 202.894 82.487, 201.586 80.491 C 199.753 77.693, 200.284 77.737, 189.708 79.515 M 293 127.507 C 276.225 130.434, 255.787 133.993, 247.581 135.416 C 239.376 136.839, 232.531 138.135, 232.370 138.296 C 232.209 138.457, 231.948 141.719, 231.789 145.545 C 231.551 151.269, 231.766 152.459, 233 152.270 C 233.825 152.143, 245.750 149.978, 259.500 147.458 C 273.250 144.938, 289.450 142.003, 295.500 140.936 C 301.550 139.869, 311.563 138.048, 317.750 136.890 L 329 134.783 329 128.392 C 329 122.063, 328.973 122.001, 326.250 122.093 C 324.738 122.144, 309.775 124.581, 293 127.507 M 223 145 C 223 151.593, 223.131 152, 225.250 151.998 C 227.369 151.995, 227.500 151.587, 227.500 144.997 C 227.500 138.406, 227.369 137.999, 225.250 137.999 C 223.131 138, 223 138.408, 223 145 M 281.500 147.669 C 256.200 152.301, 234.574 156.282, 233.443 156.516 C 231.451 156.928, 231.377 157.645, 231.130 178.753 L 230.875 200.564 244.688 197.326 C 252.284 195.545, 261.200 193.506, 264.500 192.794 L 270.500 191.500 271.273 185.226 C 272.812 172.736, 278.354 162.509, 286.802 156.572 C 292.559 152.526, 301.708 151.790, 307.774 154.885 C 314.393 158.262, 319.683 166.531, 320.696 175.083 C 321.020 177.819, 321.559 180.204, 321.893 180.382 C 322.227 180.561, 323.962 180.310, 325.750 179.825 L 329 178.943 329 158.971 C 329 147.987, 328.663 139.056, 328.250 139.124 C 327.837 139.191, 306.800 143.037, 281.500 147.669 M 205.500 141.612 C 201.650 142.376, 186.203 145.020, 171.174 147.489 C 156.145 149.958, 142.268 152.728, 140.335 153.645 C 136.860 155.294, 132.817 160.393, 131.530 164.750 C 130.476 168.319, 129.631 168.419, 195 157.185 L 216.500 153.490 216.827 150.062 C 217.007 148.177, 216.874 145.142, 216.532 143.317 C 215.827 139.560, 215.838 139.561, 205.500 141.612 M 23.997 151.850 C 18.168 157.678, 19.320 168.798, 26.131 172.444 C 29.352 174.169, 30.235 174.246, 33.958 173.131 C 37.253 172.144, 38.461 171.141, 39.578 168.469 C 42.863 160.606, 40.353 153.299, 33.364 150.379 C 28.652 148.410, 27.210 148.636, 23.997 151.850 M 25.994 156.734 C 22.252 161.493, 25.389 169, 31.120 169 C 34.457 169, 36 166.650, 36 161.566 C 36 157.588, 33.189 154, 30.073 154 C 29.012 154, 27.177 155.230, 25.994 156.734 M 48.315 158.023 C 44.993 159.337, 43.724 162.652, 44.225 168.703 C 44.542 172.523, 45.320 174.764, 46.864 176.308 C 49.313 178.757, 57.313 181.092, 73.185 183.990 C 89.080 186.893, 92 185.376, 92 174.221 C 92 169.608, 91.567 167.918, 90.028 166.525 C 88.834 165.445, 82.226 163.457, 73.278 161.486 C 55.044 157.471, 51.094 156.923, 48.315 158.023 M 224 173.360 C 224 182.359, 223.738 191.696, 223.418 194.110 C 222.925 197.824, 223.150 198.690, 224.880 199.735 C 226.913 200.963, 226.928 200.834, 227.213 178.984 C 227.479 158.602, 227.372 156.998, 225.750 156.999 C 224.155 157, 224 158.446, 224 173.360 M 49.667 162.667 C 48.376 163.958, 48.973 172.733, 50.435 173.946 C 52.211 175.420, 74.915 180.852, 80.513 181.141 C 86.249 181.438, 87 180.671, 87 174.508 C 87 170.249, 86.637 169.030, 85.250 168.632 C 80.453 167.252, 54.610 162, 52.620 162 C 51.362 162, 50.033 162.300, 49.667 162.667 M 293.500 163.370 C 289.306 165.308, 285.500 169.637, 282.833 175.500 C 279.651 182.499, 279.573 196.629, 282.685 202.500 C 286.106 208.954, 289.476 211.515, 294.409 211.408 C 305.807 211.162, 313.812 198.554, 312.780 182.475 C 311.821 167.532, 303.129 158.919, 293.500 163.370 M 102.567 165.946 C 98.643 168.533, 97.078 171.617, 97.035 176.846 C 96.956 186.628, 105.849 192.760, 114.439 188.846 C 119.983 186.320, 122.433 177.823, 119.437 171.509 C 116.160 164.602, 108.459 162.063, 102.567 165.946 M 103.557 171.223 C 98.320 178.698, 106.468 188.765, 113.559 183.581 C 116.543 181.399, 116.280 173.455, 113.139 170.912 C 109.911 168.298, 105.505 168.440, 103.557 171.223 M 336.158 173 C 336.158 174.375, 336.385 174.938, 336.662 174.250 C 336.940 173.563, 336.940 172.438, 336.662 171.750 C 336.385 171.063, 336.158 171.625, 336.158 173 M 292.743 173.084 C 289.515 174.964, 286.674 182.075, 286.584 188.500 C 286.443 198.595, 291.468 203.297, 299.956 201.012 C 303.115 200.161, 304.225 199.166, 305.919 195.668 C 309.643 187.975, 307.602 175.998, 302.062 173.033 C 299.621 171.727, 295.031 171.752, 292.743 173.084 M 293.273 179.710 C 291.126 182.991, 290.892 192.961, 292.906 195.386 C 294.743 197.600, 298.318 197.411, 300.514 194.985 C 303.111 192.114, 303.764 182.815, 301.600 179.512 C 299.367 176.105, 295.573 176.195, 293.273 179.710 M 14.388 182.590 C 13.419 186.450, 14.679 192.030, 17.103 194.609 C 20.774 198.517, 37.634 203.131, 81 212.094 C 113.218 218.752, 118.276 219.416, 128.222 218.284 C 133.018 217.739, 137.631 216.721, 138.472 216.024 C 140.251 214.547, 140.614 205.014, 138.954 203.354 C 138.302 202.702, 134.244 202.485, 128.169 202.778 C 118.416 203.247, 101.274 201.386, 88.500 198.470 C 85.200 197.717, 78.450 196.370, 73.500 195.476 C 68.550 194.582, 62.025 193.229, 59 192.469 C 55.975 191.709, 46.075 189.229, 37 186.958 C 27.925 184.687, 20.050 182.487, 19.500 182.070 C 16.698 179.943, 15.009 180.115, 14.388 182.590 M 178.436 183.413 C 174.250 185.236, 168.435 192.274, 166.554 197.795 C 165.595 200.609, 165 205.852, 165 211.482 C 165 219.302, 165.371 221.353, 167.597 225.818 C 170.922 232.491, 177.026 236.461, 182.407 235.451 C 192.320 233.592, 198.886 225.188, 200.999 211.659 C 204.127 191.630, 192.626 177.233, 178.436 183.413 M 178.196 194.488 C 174.139 197.903, 172 202.855, 172 208.836 C 172 218.345, 175.813 224, 182.224 224 C 190.205 224, 194.567 219.450, 195.692 209.953 C 197.259 196.723, 186.667 187.361, 178.196 194.488 M 274.655 197.456 C 274.321 198.327, 272.687 199.313, 271.024 199.645 C 269.361 199.978, 268 200.583, 268 200.990 C 268 202.829, 272.392 207.011, 276.320 208.913 C 282.196 211.757, 283.929 211.618, 281.032 208.534 C 279.758 207.178, 277.939 203.774, 276.990 200.970 C 275.841 197.577, 275.060 196.401, 274.655 197.456 M 180.182 199.307 C 177.833 201.806, 176.346 209.256, 177.375 213.359 C 178.276 216.947, 180.703 219, 184.046 219 C 187.816 219, 190.336 214.446, 190.431 207.459 C 190.555 198.359, 185.128 194.042, 180.182 199.307 M 158.345 214.848 C 157.688 216.617, 155.648 218.865, 153.609 220.068 C 150.697 221.786, 150.204 222.513, 150.975 223.954 C 153.182 228.077, 163.186 235, 166.938 235 C 167.489 235, 166.818 233.348, 165.448 231.328 C 162.942 227.636, 160.351 219.974, 159.798 214.620 L 159.500 211.741 158.345 214.848 M 49.830 214.922 C 53.006 217.687, 57.977 219.012, 67.750 219.701 C 73.602 220.113, 76 219.950, 76 219.141 C 76 218.475, 74.321 218, 71.968 218 C 69.750 218, 66.480 217.392, 64.701 216.649 C 62.922 215.905, 59.224 214.980, 56.483 214.592 C 53.743 214.204, 50.600 213.663, 49.500 213.390 C 47.689 212.941, 47.721 213.086, 49.830 214.922" stroke="none" fill="black" fill-rule="evenodd"/>
</svg>