<svg xmlns="http://www.w3.org/2000/svg" width="358" height="251" viewBox="0 0 358 251" version="1.1">
	<path d="M 152.500 7.491 C 151.950 7.675, 150.322 8.083, 148.883 8.398 C 147.443 8.714, 144.873 10.396, 143.171 12.136 L 140.077 15.301 128.289 14.103 C 85.998 9.808, 60.995 8.622, 42.141 10.016 C 18.263 11.782, 10.237 14.105, 7.329 20.090 C 4.556 25.797, 9.106 30.949, 19.170 33.498 C 26.664 35.396, 51.046 38, 61.323 38 C 75.982 38, 118.076 34.916, 137.500 32.419 L 141.500 31.904 137.728 33.988 C 135.248 35.357, 133.445 37.343, 132.466 39.785 C 131.004 43.430, 130.773 43.554, 120.238 46.372 C 98.881 52.084, 84.688 60.174, 71.584 74.104 C 60.616 85.763, 52.474 100.498, 47.405 117.861 C 45.334 124.953, 44.858 128.828, 44.747 139.500 C 44.622 151.396, 44.856 153.222, 47.495 161 C 49.081 165.675, 51.489 171.300, 52.845 173.500 C 57.372 180.842, 67.088 189.356, 76.323 194.073 C 85.617 198.820, 86.218 199.743, 83.474 205.050 C 81.592 208.690, 77.478 208.991, 70.500 206 C 60.198 201.584, 54.334 205.179, 54.889 215.570 C 55.034 218.277, 59.591 223.261, 64 225.534 C 68.532 227.870, 80.330 228.567, 90.008 227.071 C 97.873 225.855, 137.568 217.088, 147 214.485 C 150.025 213.650, 153.126 213.086, 153.891 213.233 C 154.656 213.380, 155.846 215.412, 156.536 217.750 L 157.789 222 154.644 221.988 C 152.915 221.982, 149.025 221.312, 146 220.500 C 138.195 218.405, 135.300 218.609, 132.455 221.455 C 130.481 223.428, 130 224.923, 130 229.086 C 130 233.695, 130.379 234.622, 133.455 237.523 C 140.178 243.863, 150.828 245.468, 166.402 242.487 C 184.915 238.945, 228.747 227.275, 242.023 222.354 C 253.139 218.234, 256.175 211.852, 250.535 204.457 L 247.737 200.789 241.119 201.241 C 237.478 201.490, 233.758 202.018, 232.850 202.415 C 231.564 202.978, 230.934 202.296, 229.989 199.319 C 229.322 197.218, 227.222 192.672, 225.320 189.215 L 221.863 182.931 226.209 178.715 C 235.151 170.042, 239.937 161.201, 246.464 141.297 C 248.485 135.136, 251.003 128.995, 252.060 127.651 C 253.117 126.307, 258.149 123.191, 263.241 120.726 C 274.621 115.219, 307.407 101, 308.726 101 C 309.254 101, 311.573 103.237, 313.878 105.970 C 321.016 114.436, 329.876 115.057, 337.320 107.613 C 339.136 105.797, 341.870 103.998, 343.396 103.615 C 347.725 102.529, 351 98.345, 351 93.901 C 351 88.539, 349.365 85.323, 343.373 78.903 C 337.386 72.487, 337.405 72.690, 341.212 55 C 346.721 29.400, 346.735 29.189, 343.288 25.124 C 340.891 22.296, 339.588 21.667, 335.269 21.252 C 322.063 19.983, 318.834 22.720, 307.853 44.493 C 302.999 54.117, 298.743 61.317, 297.543 61.935 C 296.420 62.514, 291.450 63.449, 286.500 64.014 C 259.262 67.120, 249.706 67.980, 242.316 67.989 L 234.131 68 225.316 62.116 C 211.300 52.761, 197.630 46.793, 182.920 43.606 C 181.318 43.259, 179.626 41.720, 178.454 39.544 C 177.416 37.617, 175.202 35.330, 173.533 34.463 C 170.501 32.886, 170.502 32.885, 176 33.462 C 179.025 33.779, 187.800 34.462, 195.500 34.979 C 203.200 35.496, 217.545 36.465, 227.378 37.133 C 241.560 38.096, 248.888 38.087, 262.820 37.090 C 295.337 34.763, 303.063 32.393, 304.622 24.271 C 305.151 21.515, 304.745 20.545, 301.854 17.654 C 297.395 13.195, 289.564 11.420, 267.577 9.887 C 250.101 8.667, 232.050 9.335, 195.500 12.551 C 172.842 14.545, 170.485 14.467, 166.683 11.598 C 162.548 8.478, 155.586 6.462, 152.500 7.491 M 151.308 15.972 C 150.103 16.478, 148.346 18.069, 147.404 19.506 C 145.900 21.802, 145.870 22.298, 147.156 23.585 C 150.528 26.956, 164 26.153, 164 22.581 C 164 18.078, 156.094 13.961, 151.308 15.972 M 47.500 17.638 C 43.650 17.802, 35.775 18.457, 30 19.093 C 13.816 20.875, 10.869 22.786, 20.250 25.417 C 36.901 30.086, 75.571 30.795, 112.500 27.107 C 124.600 25.899, 135.625 24.648, 137 24.327 C 141.093 23.371, 130.194 21.250, 117.500 20.532 C 111.450 20.189, 101.775 19.503, 96 19.005 C 83.713 17.948, 57.529 17.209, 47.500 17.638 M 235 17.646 C 216.952 18.602, 175.345 21.927, 173.750 22.540 C 172.787 22.911, 172 23.528, 172 23.911 C 172 24.731, 203.844 27.655, 229.430 29.185 C 255.447 30.741, 292.536 27.864, 296.411 23.989 C 297.716 22.684, 291.752 20.329, 283.887 19.044 C 276.812 17.888, 246.699 17.027, 235 17.646 M 325.146 30.750 C 324.004 31.712, 319.654 39.215, 315.480 47.423 C 306.742 64.603, 304.851 67.509, 301.171 69.411 C 299.702 70.171, 291.525 71.530, 283 72.433 C 274.475 73.335, 263.941 74.507, 259.591 75.037 C 248.044 76.443, 235.894 76.227, 231.080 74.528 C 228.786 73.719, 223.667 70.822, 219.704 68.090 C 209.626 61.143, 196.794 55.237, 187.786 53.400 C 180.271 51.867, 180.083 51.878, 177.180 54.025 C 168.657 60.327, 142.701 60.496, 133.111 54.312 C 129.536 52.007, 123.088 53.072, 110.500 58.047 L 99.500 62.395 110 63.598 C 136.952 66.687, 149.453 73.199, 154.274 86.662 C 159.512 101.290, 158.366 131.333, 152.029 145.500 C 144.910 161.418, 126.196 167.841, 95 165.074 C 82.582 163.972, 68.085 160.369, 58.250 155.940 C 55.913 154.887, 54 154.228, 54 154.475 C 54 155.955, 58.668 167.063, 60.525 170 C 67.122 180.438, 82.383 189.895, 99.500 194.153 C 107.599 196.167, 111.052 196.397, 134 196.446 C 155.054 196.491, 161.244 196.168, 169.500 194.598 C 199.392 188.913, 222.969 175.003, 230.918 158.363 C 232.660 154.716, 235.837 146.651, 237.979 140.440 C 244.183 122.446, 245.766 120.386, 257.948 114.458 C 277.856 104.769, 308.220 92, 311.351 92 C 312.626 92, 315.035 94.425, 321.674 102.391 C 324.373 105.629, 327.949 105.748, 330.817 102.695 L 332.983 100.389 327.940 92.195 C 325.167 87.688, 322.718 84, 322.499 84 C 322.280 84, 320.165 85.302, 317.800 86.893 C 308.170 93.373, 297.724 94.079, 295.147 88.424 C 291.835 81.154, 296.464 76.590, 314.264 69.574 C 316.334 68.758, 318.195 67.507, 318.399 66.795 C 318.603 66.083, 319.253 60.162, 319.844 53.637 C 320.967 41.235, 322.025 38.340, 326.507 35.404 C 329.739 33.286, 333.546 34.256, 335.325 37.651 L 336.700 40.276 337.380 36.026 C 337.812 33.324, 337.640 31.271, 336.907 30.388 C 335.247 28.387, 327.672 28.620, 325.146 30.750 M 152.316 32.084 C 151.719 32.681, 151.463 34.054, 151.746 35.137 C 152.460 37.869, 159.307 37.431, 159.840 34.620 C 160.437 31.475, 154.818 29.582, 152.316 32.084 M 142.229 40.635 C 140.577 41.344, 138 46.352, 138 48.853 C 138 51.818, 142.898 53, 155.181 53 C 165.139 53, 173 51.464, 173 49.519 C 173 47.910, 170.106 42.331, 168.642 41.117 C 167.215 39.933, 166.177 39.985, 161.437 41.476 C 156.796 42.936, 155.220 43.026, 151.700 42.036 C 145.562 40.308, 143.650 40.025, 142.229 40.635 M 328.218 42.238 C 326.957 43.757, 325.052 55.079, 325.020 61.250 C 325.004 64.297, 325.363 65, 326.933 65 C 329.132 65, 329.523 64.028, 330.955 55 C 332.300 46.514, 332.263 44.742, 330.697 42.601 C 329.586 41.082, 329.222 41.028, 328.218 42.238 M 86.487 71.415 C 81.717 74.680, 72.733 84.135, 68.349 90.500 C 59.725 103.023, 53.556 120.977, 52.306 137.192 C 51.781 143.992, 51.951 145.288, 53.601 147.115 C 57.564 151.500, 69.264 156.082, 85.315 159.534 C 94.432 161.495, 118.663 161.499, 126.180 159.541 C 145.991 154.381, 152.500 142.624, 152.500 112 C 152.500 93.023, 150.229 85.112, 142.815 78.259 C 136.719 72.624, 117.212 68.067, 98.987 68.020 C 92.061 68.002, 91.084 68.267, 86.487 71.415 M 323.200 71.200 C 320.755 73.645, 322.423 79, 325.629 79 C 327.627 79, 330 76.034, 330 73.536 C 330 70.251, 325.645 68.755, 323.200 71.200 M 184.732 71.980 C 176.866 73.398, 171.280 76.665, 168.443 81.508 C 166.019 85.643, 165.874 86.820, 164.967 109.662 C 164.447 122.773, 163.454 140.025, 162.760 148 C 162.067 155.975, 161.500 165.952, 161.500 170.171 C 161.500 176.820, 161.809 178.172, 163.820 180.310 C 165.096 181.668, 167.459 183.042, 169.072 183.364 C 173.675 184.285, 191.947 181.321, 200.645 178.243 C 215.952 172.827, 219.979 167.175, 221.116 149.514 C 221.506 143.456, 222.145 136.602, 222.535 134.281 C 223.362 129.374, 221.587 109.806, 219.344 99.092 C 216.557 85.779, 211.757 77.447, 204.843 73.920 C 200.351 71.628, 191.444 70.769, 184.732 71.980 M 186.831 76.055 C 179.840 77.107, 174.248 79.704, 171.878 83 C 170.307 85.185, 169.948 89.282, 169.028 115.500 C 168.450 132, 167.540 149.550, 167.006 154.500 C 165.533 168.166, 165.715 176.519, 167.521 178.017 C 170.759 180.705, 194.721 177.074, 204.560 172.404 C 215.658 167.138, 217.515 161.248, 217.457 131.500 C 217.419 112.635, 217.108 108.196, 215.272 100.345 C 210.432 79.656, 203.313 73.575, 186.831 76.055 M 306.687 79.076 C 301.958 81.532, 300.932 82.507, 301.187 84.298 C 301.441 86.088, 302.061 86.446, 304.500 86.210 C 306.150 86.051, 309.525 84.899, 312 83.651 C 315.484 81.894, 316.500 80.830, 316.500 78.941 C 316.500 75.442, 313.606 75.482, 306.687 79.076 M 186.500 81.883 C 181.777 82.741, 179.159 84.062, 176.617 86.871 C 174.992 88.667, 174.632 91.737, 173.772 111.129 C 172.658 136.265, 173.157 139.181, 178.769 140.304 C 182.718 141.094, 192.862 139.512, 201.937 136.691 C 212.435 133.427, 213.551 131.710, 213.327 119.169 C 213.013 101.632, 209.104 88.274, 203 83.876 C 200.099 81.786, 192.254 80.838, 186.500 81.883 M 331.478 82.036 C 330.725 83.254, 335.872 91.591, 339.455 94.957 C 341.647 97.017, 342.024 97.100, 342.582 95.648 C 343.631 92.912, 342.152 89.174, 338.358 84.975 C 334.759 80.991, 332.674 80.100, 331.478 82.036 M 187.500 86.491 C 186.950 86.675, 185.233 87.105, 183.684 87.448 C 178.786 88.532, 178 92.335, 178 114.933 C 178 133.206, 178.156 135.013, 179.810 135.898 C 182.549 137.364, 203.803 132.645, 206.451 129.982 C 208.255 128.169, 208.480 126.792, 208.332 118.468 C 208.063 103.367, 204.630 90.956, 199.783 87.561 C 197.811 86.179, 190.376 85.532, 187.500 86.491 M 212.567 187.892 C 212.133 188.594, 212.890 190.746, 214.344 192.943 C 217.102 197.111, 221 208.003, 221 211.543 C 221 214.524, 219.629 215.414, 212 217.386 C 183.150 224.842, 174.354 227, 172.814 227 C 171.683 227, 170.829 226.002, 170.463 224.250 C 168.660 215.636, 167.626 212.018, 165.748 207.750 C 163.964 203.695, 163.244 203, 160.829 203 C 157.863 203, 157.002 204.403, 159.402 205.324 C 161.296 206.051, 164.841 215.798, 165.619 222.418 C 166.181 227.197, 166.019 227.919, 164.166 228.911 C 159.172 231.584, 147.850 230.927, 139.662 227.490 C 136.316 226.085, 138.152 231.197, 141.898 233.716 C 146.356 236.713, 156.293 236.790, 169.174 233.928 C 196.629 227.829, 231.888 218.135, 241.250 214.112 C 249.770 210.451, 246.482 207.802, 236.725 210.467 C 224.693 213.752, 225.354 213.880, 224.099 208.026 C 222.086 198.641, 214.312 185.068, 212.567 187.892 M 197 195.649 C 193.425 196.970, 186.900 198.999, 182.500 200.159 C 178.100 201.319, 174.199 202.546, 173.831 202.884 C 173.463 203.223, 174.199 206.650, 175.466 210.500 C 177.328 216.157, 178.128 217.440, 179.635 217.186 C 186.264 216.068, 210.716 209.537, 211.714 208.618 C 212.654 207.753, 212.080 205.932, 209.179 200.571 C 207.116 196.761, 204.995 193.554, 204.464 193.445 C 203.934 193.337, 200.575 194.328, 197 195.649 M 92.243 204.984 C 91.560 207.176, 91 209.651, 91 210.484 C 91 211.318, 90.100 212.900, 89 214 C 86.186 216.814, 75.033 216.800, 68.441 213.975 C 65.843 212.861, 63.459 212.208, 63.144 212.523 C 62.111 213.556, 64.583 216.464, 68.075 218.324 C 71.014 219.889, 73.062 220.068, 82.500 219.583 C 88.550 219.273, 95.975 218.315, 99 217.456 C 102.025 216.596, 107.425 215.269, 111 214.507 C 114.575 213.744, 123.575 211.568, 131 209.671 L 144.500 206.221 135.254 206.111 C 128.488 206.030, 124.464 206.523, 120.254 207.949 C 117.089 209.021, 111.575 210.393, 108 210.998 C 104.425 211.603, 99.996 212.574, 98.158 213.157 C 93.425 214.657, 92.688 213.325, 94.902 207.269 C 95.937 204.436, 96.533 201.866, 96.226 201.559 C 94.791 200.124, 93.382 201.336, 92.243 204.984" stroke="none" fill="black" fill-rule="evenodd"/>
</svg>