<svg xmlns="http://www.w3.org/2000/svg" width="368" height="259" viewBox="0 0 368 259" version="1.1">
	<path d="M 219 8.555 C 210.195 10.446, 196.023 15.455, 188.056 19.492 C 177.452 24.865, 164.776 36.887, 155.584 50.290 C 153.430 53.431, 151.180 55.991, 150.584 55.980 C 149.988 55.969, 146.575 55.511, 143 54.962 C 115.407 50.726, 100.981 50.148, 81 52.477 C 46.757 56.468, 37.348 62.407, 28.425 85.662 C 16.421 116.948, 12.003 139.813, 12.001 170.667 C 12 178.170, 11.603 182.966, 10.964 183.179 C 9.423 183.692, 7.094 190.945, 7.044 195.384 C 6.915 206.782, 11.893 212.053, 27.780 217.340 C 36.114 220.114, 38.874 221.503, 40.410 223.695 C 46.729 232.710, 55.492 237, 67.587 237 C 75.049 237, 79.266 235.717, 83.235 232.238 C 84.710 230.945, 85.830 230.895, 90.735 231.903 C 99.178 233.638, 115.932 234.412, 120.070 233.257 C 123.625 232.265, 123.652 232.281, 126.371 237.118 C 131.622 246.458, 140.672 251.092, 155 251.775 C 168.294 252.409, 172.181 251.177, 179.028 244.163 C 185.023 238.020, 187.736 231.999, 190.462 218.779 C 190.980 216.268, 191.234 216.141, 193.762 217.124 C 196.983 218.379, 209.768 217.566, 221.358 215.371 C 225.679 214.552, 229.297 214.021, 229.397 214.191 C 229.497 214.361, 230.649 216.858, 231.956 219.741 C 234.844 226.107, 239.280 230.309, 246.819 233.819 C 251.693 236.088, 253.849 236.466, 262 236.482 C 272.925 236.503, 276.752 235.009, 283.413 228.126 C 285.564 225.902, 287.753 224.347, 288.275 224.670 C 290.559 226.082, 303.916 228.967, 308.239 228.983 C 314.949 229.007, 322.874 225.737, 326.647 221.388 C 331.354 215.961, 335.195 207.631, 335.885 201.346 C 336.469 196.035, 336.674 195.699, 340 194.618 L 343.500 193.479 343.403 185.489 C 343.262 173.781, 338.109 163.120, 329.813 157.371 C 325.977 154.712, 325.816 154.390, 326.395 150.540 C 326.729 148.318, 327.394 143.769, 327.871 140.432 C 328.585 135.439, 330.632 127.741, 331.674 126.126 C 331.807 125.920, 333.274 126.894, 334.934 128.291 C 338.969 131.686, 343.119 132.507, 346.752 130.628 C 352.838 127.481, 361 116.007, 361 110.599 C 361 108.925, 358.805 105.742, 354.249 100.809 C 350.535 96.789, 345.850 91.475, 343.836 89 L 340.176 84.500 342.122 75.500 C 344.444 64.762, 344.020 58.112, 340.275 46.500 C 334.542 28.722, 323.745 13.412, 315.285 11.062 C 313.203 10.484, 304.750 10.002, 296.500 9.991 C 288.250 9.980, 272.950 9.312, 262.500 8.507 C 239.244 6.714, 227.510 6.727, 219 8.555 M 220.500 16.030 C 218.300 16.476, 212.740 18.284, 208.145 20.048 L 199.790 23.255 205.082 25.119 C 226.628 32.707, 247.105 57.436, 257.342 88.233 C 261.539 100.860, 263.002 109.945, 262.974 123.208 C 262.953 133.366, 262.549 136.672, 260.648 142.250 C 259.383 145.963, 258.561 149, 258.822 149 C 259.578 149, 276.238 139.878, 279.035 137.933 C 280.645 136.813, 282.470 133.675, 284.035 129.335 C 286.227 123.256, 286.500 120.896, 286.500 108 C 286.500 92.523, 285.258 85.234, 280.279 71.500 C 271.042 46.019, 249.068 21.030, 231.874 16.454 C 225.945 14.876, 226.155 14.884, 220.500 16.030 M 244.918 18.448 C 252.241 23.188, 261.443 32.143, 268.751 41.641 C 274.787 49.486, 284.379 67.734, 286.169 74.778 C 290.930 93.507, 291.162 95.323, 290.829 111.250 C 290.648 119.913, 290.571 127, 290.658 127 C 291.215 127, 313.014 92.347, 315.804 87.028 C 319.120 80.706, 319.210 80.235, 318.654 72.121 C 317.869 60.679, 313.191 46.948, 306.842 37.456 C 301.967 30.167, 294 22.195, 288.866 19.468 C 286.349 18.131, 273.045 16.778, 250 15.516 L 239.500 14.940 244.918 18.448 M 313.966 22.350 C 325.634 34.593, 332.928 53.490, 331.536 67.870 C 330.914 74.298, 318.097 114.640, 312.273 128.500 C 310.655 132.350, 308.545 138.200, 307.583 141.500 C 304.360 152.563, 303.448 154, 299.653 154 C 297.794 154, 293.849 153.524, 290.886 152.943 C 275.214 149.866, 275.329 149.866, 269.195 152.952 C 254.454 160.369, 250.453 161.393, 227.009 163.748 C 220.857 164.365, 219.454 164.831, 219.166 166.350 C 218.872 167.901, 219.273 168.103, 221.657 167.603 C 223.221 167.276, 231.475 166.123, 240 165.042 C 268.936 161.373, 292.472 158.120, 301.381 156.558 C 306.266 155.701, 312.003 155, 314.131 155 C 316.259 155, 318.003 154.887, 318.007 154.750 C 318.046 153.279, 322.196 130.732, 323.322 125.872 C 324.134 122.367, 325.501 115.900, 326.358 111.500 C 327.216 107.100, 329.540 95.953, 331.522 86.728 C 336.280 64.579, 336.235 57.729, 331.241 44 C 327.406 33.457, 319.481 21.930, 314.413 19.526 C 309.525 17.206, 309.459 17.622, 313.966 22.350 M 302.553 21.917 C 312.461 29.239, 321.220 46.155, 324.521 64.342 L 325.820 71.500 325.910 64.302 C 326.082 50.552, 319.030 34.744, 307.879 23.882 C 305.059 21.136, 301.935 19, 300.736 19 C 298.978 19, 299.295 19.509, 302.553 21.917 M 185.468 30.371 C 182.714 32.225, 176.689 37.728, 172.078 42.599 L 163.693 51.457 169.097 52.553 C 181.304 55.031, 189.369 59.502, 198.140 68.657 C 205.018 75.835, 213.970 90.810, 216.877 100 C 217.486 101.925, 218.697 105.750, 219.568 108.500 C 221.801 115.549, 223.311 130.350, 222.561 137.836 C 222.212 141.320, 221.043 146.495, 219.964 149.336 C 218.884 152.176, 218.001 154.674, 218.001 154.886 C 218 155.098, 224.828 155.053, 233.172 154.785 L 248.345 154.298 251.059 151.260 C 252.552 149.589, 254.810 145.585, 256.077 142.361 C 258.102 137.210, 258.384 134.744, 258.403 122 C 258.421 110.047, 258.028 106.025, 256.167 99.101 C 252.717 86.268, 249.408 77.422, 245.330 70.130 C 243.291 66.484, 241.145 62.584, 240.561 61.464 C 239.978 60.344, 236.639 55.971, 233.142 51.746 C 223.587 40.201, 214.411 33.168, 203.654 29.144 C 195.434 26.068, 191.459 26.336, 185.468 30.371 M 161.577 57.875 C 161.280 58.356, 162.766 59.027, 164.879 59.365 C 172.243 60.542, 181.700 64, 185.922 67.058 C 191.994 71.457, 193.893 76.466, 195.096 91.258 C 196.952 114.056, 196.947 114.029, 199.329 114.940 C 203.114 116.388, 204.940 119.411, 209.088 131.103 C 211.312 137.371, 213.658 143.850, 214.300 145.500 L 215.469 148.500 216.638 143.500 C 222.899 116.738, 207.423 77.683, 184.913 63.438 C 177.313 58.628, 163.192 55.262, 161.577 57.875 M 79.478 60.533 C 65.802 62.531, 57.212 64.760, 51.764 67.725 C 43.339 72.310, 40.194 77.308, 32.685 98.037 C 24.577 120.418, 21.345 136.993, 20.757 159.220 L 20.500 168.939 22.822 165.970 C 25.921 162.008, 31.524 161.800, 35.016 165.517 C 38 168.693, 38.252 176.959, 35.460 180.044 C 32.675 183.122, 25.728 182.741, 23.073 179.365 C 21.069 176.817, 21 176.803, 21 178.931 C 21 184.500, 24.590 186.549, 41 190.347 C 88.769 201.402, 97.320 203, 108.720 203 L 116.767 203 117.248 173.250 C 117.692 145.828, 117.941 142.483, 120.441 130.500 C 128.595 91.408, 131.563 83.346, 139.262 79.364 C 145.937 75.913, 173.441 71.053, 178.040 72.513 C 182.310 73.868, 179.186 75.514, 170.919 76.265 C 162.385 77.041, 143.435 81.162, 140.035 82.981 C 135.240 85.548, 132.027 95.189, 125.367 127 C 121.737 144.338, 121.699 144.769, 121.253 173.562 L 120.804 202.625 124.886 203.848 C 129.840 205.332, 131.326 207.807, 131.425 214.744 C 131.522 221.494, 132.551 221.497, 133.315 214.750 C 135.162 198.456, 144.119 186.856, 156.984 184.097 C 162.846 182.840, 170.670 184.108, 175.638 187.121 C 179.924 189.721, 186.533 198.578, 188.072 203.786 C 188.923 206.666, 189.605 207.650, 190.154 206.786 C 192.105 203.709, 190.499 119.813, 187.970 92.771 C 186.367 75.633, 184.799 73.268, 172.585 69.577 C 142.286 60.419, 105.030 56.800, 79.478 60.533 M 48.309 73.435 C 46.553 74.215, 44.052 76.575, 42.749 78.677 C 37.707 86.818, 26 122.539, 26 129.784 C 26 138.106, 29.790 139.589, 71.500 147.585 C 79.636 149.145, 88.735 150.156, 95.820 150.289 L 107.141 150.500 109.943 147.377 C 112.147 144.920, 113.315 141.718, 115.412 132.377 C 116.878 125.844, 118.998 116.525, 120.123 111.667 C 121.247 106.809, 122.412 99.585, 122.713 95.615 C 123.254 88.463, 123.229 88.371, 120.089 85.728 C 116.454 82.670, 106.875 79.628, 96 78.079 C 91.875 77.492, 82.425 76.131, 75 75.056 C 53.835 71.990, 51.831 71.868, 48.309 73.435 M 47.982 80.750 C 45.099 84.414, 43.704 87.789, 37.749 105.500 C 32.400 121.409, 30.703 129.442, 32.116 132.166 C 33.226 134.305, 39.566 136.386, 54.524 139.520 C 83.907 145.676, 100.262 147.749, 104.436 145.847 C 108.140 144.160, 108.953 141.372, 117.077 102.500 C 118.394 96.196, 118.154 90.297, 116.514 88.657 C 114.718 86.861, 100.665 83.668, 85 81.495 C 78.675 80.618, 70.763 79.473, 67.418 78.950 C 64.073 78.428, 58.818 78, 55.741 78 C 50.828 78, 49.881 78.335, 47.982 80.750 M 159 84.008 C 149.723 85.600, 142.551 88.269, 139.887 91.121 C 136.951 94.264, 134.389 102.643, 130.515 121.771 C 126.765 140.288, 126.372 145.648, 128.587 148.096 C 130.941 150.697, 131.342 150.621, 157.617 142.525 C 173.217 137.719, 178.977 135.511, 180.385 133.796 C 182.151 131.645, 182.228 130.146, 181.601 110.120 C 180.964 89.778, 180.327 85.586, 177.600 83.765 C 176.214 82.840, 164.948 82.987, 159 84.008 M 158 89.443 C 154.975 90.168, 150.804 91.062, 148.732 91.429 C 145.828 91.944, 144.430 92.947, 142.638 95.799 C 141.359 97.834, 140.072 100.625, 139.779 102 C 132.806 134.661, 131.066 145, 132.540 145 C 133.508 145, 160.646 136.809, 169.500 133.844 L 176.500 131.500 176.760 116 C 176.903 107.475, 176.677 97.800, 176.259 94.500 L 175.499 88.500 169.499 88.312 C 166.200 88.209, 161.025 88.718, 158 89.443 M 335.760 102.250 C 334.147 110.456, 334.150 110.510, 336.319 112.361 C 337.519 113.384, 339.234 115.339, 340.132 116.705 L 341.764 119.189 343.632 116.512 C 344.659 115.039, 346.699 112.394, 348.164 110.633 L 350.829 107.431 344.308 100.716 C 340.721 97.022, 337.696 94, 337.585 94 C 337.473 94, 336.652 97.713, 335.760 102.250 M 306.939 116.716 C 301.968 124.713, 296.846 131.322, 291.002 137.280 C 281.398 147.072, 281.260 146.409, 293.141 147.517 L 299.783 148.136 301.336 143.818 C 302.191 141.443, 305.654 131.927, 309.032 122.670 C 312.410 113.414, 314.969 105.636, 314.719 105.386 C 314.469 105.136, 310.968 110.234, 306.939 116.716 M 348.250 116.972 C 345.913 120.161, 344 123.117, 344 123.540 C 344 124.909, 348.190 120.609, 350.689 116.677 C 354.634 110.467, 352.861 110.682, 348.250 116.972 M 333 116.275 C 333 117.593, 336.118 120.920, 338.750 122.410 C 341.604 124.026, 339.757 120.052, 336.500 117.568 C 334.155 115.779, 333 115.352, 333 116.275 M 197.802 144.267 C 197.968 157.561, 198.193 168.527, 198.303 168.636 C 198.412 168.745, 201.908 168.344, 206.071 167.744 L 213.642 166.653 211.902 161.577 C 210.945 158.784, 207.599 148.625, 204.466 139 C 201.334 129.375, 198.485 121.184, 198.136 120.798 C 197.786 120.412, 197.636 130.973, 197.802 144.267 M 170.345 147.451 C 166.789 148.998, 165.223 152.359, 167.040 154.548 C 168.542 156.358, 176.534 156.458, 180 154.710 C 181.375 154.017, 182.636 152.505, 182.803 151.350 C 183.493 146.572, 177.021 144.546, 170.345 147.451 M 172.250 150.662 C 171.563 150.940, 171 151.615, 171 152.163 C 171 153.305, 176.969 152.289, 178.450 150.895 C 179.454 149.949, 174.480 149.762, 172.250 150.662 M 42.027 162.468 C 41.138 163.539, 41.004 166.549, 41.533 173.596 C 42.350 184.500, 43.391 186.308, 49.697 187.786 C 51.789 188.276, 57.573 189.680, 62.551 190.906 C 74.092 193.748, 80.029 193.467, 81.666 190 C 83.151 186.854, 84.998 173.708, 84.319 171.111 C 83.629 168.473, 80.975 167.575, 63.428 164.038 C 46.344 160.595, 43.740 160.404, 42.027 162.468 M 305 162.651 C 290.054 164.916, 275.058 167.063, 268.645 167.856 C 263.452 168.499, 258.694 169.861, 254.603 171.875 C 249.256 174.507, 247.918 175.761, 244.762 181.095 C 242.209 185.410, 240.932 188.958, 240.518 192.884 C 240.192 195.973, 239.723 199.767, 239.475 201.315 C 239.064 203.880, 239.267 204.102, 241.752 203.815 C 244.168 203.536, 244.666 202.812, 246.097 197.491 C 248.097 190.057, 251.069 184.130, 255.100 179.539 C 258.809 175.315, 266.286 172.729, 279.529 171.092 C 284.463 170.483, 292.775 169.093, 298 168.005 C 303.225 166.917, 310.524 166.020, 314.221 166.013 C 320.168 166.002, 321.460 166.365, 325.441 169.172 C 329.944 172.345, 333.453 178.015, 334.665 184.074 C 334.987 185.683, 335.596 187, 336.020 187 C 336.831 187, 336.129 183.288, 333.997 176.306 C 332.363 170.952, 327.581 165.141, 323.357 163.376 C 320.326 162.109, 311.004 161.741, 305 162.651 M 45.418 166.354 C 44.207 169.509, 45.502 171.496, 49.509 172.627 C 54.198 173.952, 70.835 177.654, 76.318 178.594 L 80.136 179.248 79.818 175.374 C 79.528 171.837, 79.195 171.438, 76 170.784 C 74.075 170.390, 68.450 169.192, 63.500 168.121 C 48.351 164.845, 46.082 164.623, 45.418 166.354 M 25.839 169.455 C 24.994 171.308, 25.029 172.657, 25.981 174.955 C 27.947 179.700, 33 178.461, 33 173.234 C 33 167.349, 28 164.711, 25.839 169.455 M 242.954 169.042 C 241.004 169.505, 234.704 170.354, 228.954 170.928 C 223.204 171.502, 213.887 172.745, 208.250 173.689 C 198.234 175.366, 198 175.466, 198 178.079 L 198 180.752 204.250 179.413 C 207.688 178.676, 214.569 177.772, 219.542 177.404 C 229.470 176.668, 234.243 178.040, 235.497 181.989 C 236.456 185.011, 237.496 184.447, 239.598 179.763 C 240.644 177.432, 243.242 173.832, 245.371 171.763 C 249.345 167.899, 249.071 167.591, 242.954 169.042 M 308.071 176.752 C 306.185 177.713, 303.392 180.075, 301.864 182 C 298.994 185.615, 296 195.076, 296 200.529 C 296 206.188, 299.051 214.251, 302.497 217.697 C 305.390 220.590, 306.447 221, 311.018 221 C 315.717 221, 316.605 220.628, 319.964 217.250 C 322.129 215.073, 324.638 210.982, 325.945 207.500 C 330.452 195.493, 326.915 180.560, 318.633 176.630 C 314.269 174.559, 312.327 174.582, 308.071 176.752 M 46 178.477 C 46 181.900, 47.887 182.914, 60.183 186.091 C 72.519 189.278, 75.985 189.615, 77.800 187.800 C 78.810 186.790, 79.540 183.075, 78.750 182.965 C 75.974 182.578, 61.361 179.657, 54.750 178.168 L 46 176.198 46 178.477 M 91.923 178.923 C 89.587 181.259, 89 182.721, 89 186.201 C 89 191.709, 91.041 194.632, 95.903 196.089 C 98.940 196.999, 100.325 196.953, 102.588 195.868 C 108.859 192.861, 109.636 183.745, 104.046 178.750 C 99.902 175.047, 95.740 175.106, 91.923 178.923 M 291 177 C 289.625 177.440, 287.082 177.845, 285.349 177.900 L 282.198 178 285.033 181.035 C 286.592 182.704, 288.402 185.742, 289.055 187.785 C 290.600 192.621, 291.994 194.108, 292.022 190.950 C 292.048 188.090, 295.400 180.321, 297.710 177.768 C 299.206 176.115, 299.121 176.006, 296.405 176.100 C 294.807 176.155, 292.375 176.560, 291 177 M 95.250 181.534 C 90.755 184.689, 93.741 192.605, 99.134 191.830 C 100.399 191.649, 102.114 190.283, 102.946 188.796 C 104.343 186.300, 104.299 185.877, 102.373 183.296 C 99.826 179.881, 98.183 179.475, 95.250 181.534 M 263.262 183.486 C 256.462 186.442, 251.324 198.987, 252.240 210.396 C 253.412 225, 261.904 232.129, 272.194 227.148 C 285.353 220.778, 288.156 194.608, 276.811 184.038 C 274.212 181.617, 268.131 181.369, 263.262 183.486 M 214.500 183.658 C 202.652 185.071, 202.735 185.046, 204.286 186.824 C 206.959 189.889, 208.266 196.035, 207.758 203.141 L 207.267 210 209.934 210 C 212.917 210, 229.254 206.579, 230.782 205.635 C 231.322 205.301, 232.075 202.123, 232.455 198.574 C 233.025 193.252, 232.793 191.319, 231.129 187.560 L 229.112 183 223.306 183.150 C 220.113 183.232, 216.150 183.461, 214.500 183.658 M 310.388 183.959 C 307.413 185.191, 304.186 189.596, 302.982 194.068 C 300.501 203.279, 305.239 212.030, 312.673 211.968 C 318.472 211.920, 322.146 208.089, 323.433 200.750 C 325.245 190.419, 317.831 180.876, 310.388 183.959 M 198 198.415 C 198 210.970, 198.029 211.135, 200.209 210.820 C 205.393 210.070, 205.116 192.130, 199.847 187.361 C 198.060 185.745, 198 186.106, 198 198.415 M 310.625 189.862 C 307.950 192.818, 306.891 197.880, 308.048 202.178 C 309.476 207.481, 312.100 208.678, 315.635 205.638 C 318.005 203.599, 318.397 202.497, 318.445 197.741 C 318.486 193.654, 318.004 191.665, 316.595 190.107 C 314.248 187.512, 312.806 187.452, 310.625 189.862 M 15.624 193.948 C 14.579 200.486, 16.889 204.605, 23.215 207.482 C 28.864 210.051, 71.240 220.807, 87 223.672 C 92.239 224.625, 101.677 225.422, 108.042 225.450 C 122.507 225.513, 125 224.351, 125 217.548 C 125 210.768, 123.647 210.001, 111.679 209.994 C 106.080 209.991, 99.025 209.561, 96 209.038 C 70.943 204.706, 69.592 204.429, 45 198.565 C 32.484 195.581, 24.305 193.163, 17.887 190.548 C 16.609 190.028, 16.138 190.735, 15.624 193.948 M 263.514 192.168 C 259.839 195.059, 258 199.778, 258 206.320 C 258 215.281, 263.648 221.309, 270.446 219.603 C 279.975 217.211, 283.114 200.914, 275.510 193.310 C 271.560 189.360, 267.566 188.980, 263.514 192.168 M 158.500 195.164 C 150.936 199.338, 146.951 207.011, 146.244 218.764 C 145.654 228.579, 147.023 234.359, 151.112 239.320 C 156.715 246.117, 165.175 246.547, 172.001 240.380 C 187.720 226.179, 182.498 193.914, 164.500 194.034 C 162.300 194.049, 159.600 194.557, 158.500 195.164 M 267.442 195.751 C 264.792 197.627, 263 201.762, 263 206 C 263 217.852, 273.200 218.105, 274.642 206.288 C 275.417 199.944, 270.886 193.314, 267.442 195.751 M 146.667 197.667 C 146.300 198.033, 146 198.798, 146 199.367 C 146 199.993, 146.466 199.934, 147.183 199.217 C 147.834 198.566, 148.134 197.801, 147.850 197.517 C 147.566 197.232, 147.033 197.300, 146.667 197.667 M 142.640 205.096 C 141.328 208.068, 139.918 212.525, 139.507 215 C 138.409 221.619, 136.074 226.842, 133.907 227.530 C 131.630 228.252, 131.539 229.217, 133.411 232.800 C 135.421 236.647, 139.895 240.641, 144.218 242.447 C 149.424 244.622, 149.495 244.517, 146.059 239.731 C 142.190 234.344, 140.989 230.205, 140.896 221.937 C 140.819 215.084, 142.184 208.484, 144.679 203.657 C 145.486 202.093, 145.895 200.562, 145.587 200.253 C 145.278 199.945, 143.952 202.124, 142.640 205.096 M 160.192 204.676 C 151.310 209.053, 150.053 226.721, 158.217 232.439 C 162.847 235.682, 170.708 233.399, 173.500 228 C 177.666 219.944, 175.777 208.664, 169.635 204.919 C 165.836 202.602, 164.471 202.567, 160.192 204.676 M 291.079 212.224 C 291.008 216.497, 291.287 217.097, 294 218.500 C 297.480 220.300, 297.711 219.825, 295.143 216.154 C 294.121 214.694, 292.807 212.150, 292.222 210.500 C 291.190 207.590, 291.156 207.641, 291.079 212.224 M 160.452 211.646 C 158.437 213.820, 158 215.323, 158 220.073 C 158 225.056, 158.347 226.128, 160.512 227.831 C 163.492 230.175, 166.319 229.688, 168.430 226.466 C 172.554 220.173, 170.681 209, 165.503 209 C 163.978 209, 161.892 210.093, 160.452 211.646 M 240.334 210.882 L 237.168 211.500 238.489 215.316 C 240.195 220.245, 242.356 222.574, 248.500 226.107 C 254.788 229.722, 256.088 229.765, 252.809 226.250 C 249.379 222.572, 248.385 220.392, 247.567 214.750 C 246.832 209.687, 246.731 209.632, 240.334 210.882 M 50 223.474 C 50 223.747, 52.687 225.328, 55.971 226.986 C 60.256 229.148, 63.293 229.980, 66.721 229.930 C 71.810 229.855, 77.672 228.212, 73.355 228.070 C 72.176 228.032, 68.351 227.147, 64.855 226.105 C 58.075 224.082, 50 222.652, 50 223.474" stroke="none" fill="black" fill-rule="evenodd"/>
</svg>