<svg xmlns="http://www.w3.org/2000/svg" width="310" height="254" viewBox="0 0 310 254" version="1.1">
	<path d="M 75.173 8.840 C 69.417 10.898, 63.297 16.177, 60.374 21.604 L 58.545 25 49.350 25 C 40.414 25, 40.067 25.087, 37.077 28.077 C 33.757 31.397, 33.143 35.025, 35.154 39.439 C 36.948 43.376, 40.384 45.007, 49.436 46.218 C 57.425 47.287, 57.857 47.476, 59.323 50.551 C 60.167 52.320, 62.239 55.341, 63.928 57.266 C 67.321 61.130, 67.643 62, 65.680 62 C 63.475 62, 56.435 68.648, 53.044 73.932 C 48.699 80.702, 40.582 103.330, 38.062 115.694 C 36.890 121.447, 36 129.662, 36 134.733 L 36 143.651 28.555 148.367 C 15.790 156.453, 7.032 168.369, 7.010 177.677 C 7.001 181.250, 7.513 182.277, 10.540 184.772 C 14.007 187.630, 14.059 187.780, 13.064 192.095 C 12.506 194.518, 12.043 199.650, 12.036 203.500 C 12.013 216.355, 16.313 227.440, 24.451 235.504 C 37.678 248.611, 58.334 251.501, 74.514 242.509 C 85.747 236.265, 91.190 228.620, 96.057 212.250 C 97.544 207.247, 98.568 207.047, 108.145 209.881 C 122.976 214.270, 124.547 214.500, 139.500 214.466 C 154.561 214.431, 165.348 213.218, 193.475 208.396 C 201.161 207.078, 207.912 206, 208.476 206 C 209.041 206, 210.531 207.912, 211.787 210.250 C 218.825 223.348, 234.411 231.926, 248.956 230.707 C 267.689 229.136, 281.035 217.436, 286.440 197.846 C 287.298 194.736, 288 191.255, 288 190.110 C 288 188.576, 289.535 187.254, 293.842 185.080 C 301.416 181.257, 303.009 178.761, 302.967 170.785 C 302.943 166.182, 302.069 162.226, 299.703 156 C 296.519 147.624, 296.497 147.449, 298.188 144 C 300.366 139.557, 300.459 131.702, 298.404 125.672 C 296.385 119.746, 291.368 115.500, 284.599 113.988 C 281.795 113.362, 278.317 112.401, 276.872 111.854 C 274.371 110.907, 274.291 110.657, 275.210 106.679 C 276.662 100.388, 275.367 90.542, 272.487 85.979 C 265.515 74.935, 247.350 72.377, 220.500 78.658 C 214.450 80.074, 205.900 82.076, 201.500 83.109 C 197.100 84.141, 190.125 85.627, 186 86.410 C 164.065 90.577, 158.698 93.310, 155.633 101.875 C 152.844 109.668, 153.667 117.990, 157.649 122.261 C 165.190 130.350, 169.072 148.244, 165.573 158.781 C 162.255 168.770, 151.987 174.401, 138.197 173.794 L 131.508 173.500 129.599 169.500 C 126.581 163.177, 125.733 158.383, 125.265 145 C 124.841 132.915, 125.599 125.512, 128.540 113 C 130.686 103.872, 132.093 90.442, 131.385 85.837 C 130.526 80.245, 127.631 74.530, 123.390 70.058 C 121.535 68.101, 120.013 65.683, 120.009 64.684 C 119.998 62.552, 121.831 58.813, 123.400 57.765 C 125.099 56.630, 145.334 56.868, 155.246 58.139 C 161.781 58.977, 165.107 58.985, 167.831 58.169 C 177.081 55.398, 177.526 41.005, 168.495 36.699 C 166.729 35.857, 160.843 34.638, 155.413 33.990 C 143.422 32.558, 130.080 27.549, 123.790 22.118 C 111.608 11.601, 103.382 8.115, 89 7.373 C 82.344 7.030, 79.345 7.348, 75.173 8.840 M 78.500 16.351 C 73.449 18.285, 69.971 21.135, 68.062 24.903 C 60.684 39.465, 69.060 58, 83.018 58 C 98.136 58, 105.115 33.778, 93.633 21.155 C 89.448 16.554, 83.171 14.562, 78.500 16.351 M 98.740 19.639 C 102.713 24.731, 104 28.925, 104 36.783 C 104 45.267, 102.462 50.104, 98.332 54.613 C 96.478 56.638, 95.082 58.398, 95.230 58.525 C 95.860 59.063, 114.343 51.063, 115.027 49.956 C 115.534 49.135, 118.497 48.794, 124.139 48.905 L 132.500 49.069 132.528 44.285 C 132.544 41.653, 132.769 38.909, 133.028 38.186 C 133.645 36.468, 124.769 33.002, 119.750 33.001 C 117.084 33, 116 32.567, 116 31.500 C 116 30.675, 116.675 30, 117.500 30 C 123.554 30, 108.644 19.606, 98.114 16.486 C 95.782 15.795, 95.796 15.866, 98.740 19.639 M 75.329 19.941 C 70.253 23.036, 67 29.574, 67 36.681 C 67 45.006, 70.055 50.638, 76.319 53.861 C 80.952 56.246, 81.050 56.253, 85.586 54.520 C 98.513 49.583, 98.790 26.114, 85.998 19.499 C 82.118 17.493, 79.142 17.616, 75.329 19.941 M 77.893 24.497 C 73.564 26.850, 72 30.263, 72 37.359 C 72 43.074, 72.322 44.134, 74.901 46.894 C 78.452 50.695, 82.720 51.005, 86.517 47.739 C 88.652 45.903, 89.250 44.335, 89.697 39.401 C 90.357 32.128, 88.257 26.702, 83.915 24.456 C 80.593 22.738, 81.136 22.734, 77.893 24.497 M 42.754 33.792 C 41.004 35.908, 43.126 36.994, 50.321 37.666 C 56.982 38.288, 57 38.282, 57 35.730 C 57 33.277, 56.726 33.157, 50.412 32.835 C 45.892 32.605, 43.488 32.906, 42.754 33.792 M 138.667 40.667 C 138.300 41.033, 138 42.772, 138 44.529 L 138 47.726 145.750 48.957 C 150.012 49.634, 154.850 50.436, 156.500 50.738 C 158.150 51.040, 159.215 50.975, 158.867 50.594 C 158.518 50.212, 158.584 48.344, 159.013 46.443 C 159.896 42.527, 160.331 42.763, 149 41.017 C 141.317 39.833, 139.560 39.773, 138.667 40.667 M 163.607 45.582 C 162.459 48.573, 162.949 52, 164.525 52 C 166.314 52, 168.201 47.687, 167.365 45.509 C 166.606 43.532, 164.377 43.575, 163.607 45.582 M 107.281 59.884 L 103.063 61.560 107.531 62.597 C 110.970 63.394, 112 63.349, 112 62.398 C 112 61.719, 112.273 60.452, 112.607 59.582 C 113.337 57.679, 112.745 57.713, 107.281 59.884 M 70.759 69.327 C 62.438 71.937, 57.322 79.983, 50.621 101 C 48.605 107.325, 46.499 113.850, 45.941 115.500 C 45.383 117.150, 44.646 123.858, 44.303 130.407 L 43.679 142.314 47.589 141.668 C 49.740 141.313, 52.226 141.017, 53.112 141.011 C 54.310 141.003, 54.884 139.650, 55.343 135.750 C 55.948 130.614, 58.659 122.024, 66.893 99.148 C 76.096 73.582, 80.723 67.818, 86.826 74.314 C 89.830 77.512, 89.625 82.831, 85.936 97.500 C 81.900 113.543, 80 126.378, 80 137.596 L 80 146.866 84.750 150.680 C 90.776 155.518, 93.188 158.164, 97.799 165 C 102.622 172.150, 107 186.341, 107 194.823 C 107 196.910, 107.563 199.350, 108.250 200.246 C 111.330 204.257, 134.965 208.832, 145.869 207.527 C 158.718 205.990, 193.827 200.824, 198 199.856 C 200.475 199.282, 205.377 197.897, 208.894 196.777 L 215.289 194.741 212.394 193.498 C 210.802 192.814, 208.390 191.052, 207.034 189.583 C 204.837 187.203, 204.524 185.842, 204.175 177.152 C 203.745 166.445, 205.260 158.487, 209.488 149.247 C 212.289 143.127, 220.730 133.813, 226.486 130.492 C 232.466 127.041, 243.456 124, 249.945 124 C 257.698 124, 270.451 127.381, 276.250 130.974 C 278.863 132.593, 281 133.535, 281 133.069 C 281 131.770, 272.665 120.870, 269.167 117.593 L 266.063 114.686 258.282 116.441 C 254.002 117.406, 247.350 119.038, 243.500 120.067 C 232.612 122.978, 211.681 126.092, 198.766 126.721 L 187.032 127.293 190.457 131.084 C 194.664 135.741, 198.534 143.730, 200.084 150.958 C 202.550 162.455, 198.751 177.903, 192.188 183.068 L 189.500 185.183 193.135 184.502 C 196.946 183.788, 198.896 185.024, 196.739 186.785 C 194.636 188.503, 174.929 193.861, 166.678 194.959 C 154.567 196.571, 144.156 196.255, 139.500 194.134 C 127.022 188.451, 117 165.399, 117 142.381 C 117 134.676, 118.297 125.352, 123.686 94.327 C 124.688 88.554, 122.133 81.080, 117.609 76.556 C 111.255 70.202, 103.293 67.980, 87.229 68.077 C 80.228 68.119, 72.817 68.682, 70.759 69.327 M 80.533 77.964 C 79.623 78.969, 75.743 88.052, 71.912 98.146 C 68.081 108.241, 63.552 119.991, 61.849 124.257 C 60.146 128.523, 58.533 133.967, 58.264 136.355 L 57.774 140.695 64.124 141.945 C 67.617 142.632, 71.695 143.825, 73.188 144.597 C 74.680 145.369, 76.036 146, 76.200 146 C 76.365 145.999, 76.518 140.937, 76.540 134.750 C 76.583 122.818, 77.522 116.600, 82.130 97.766 C 85.308 84.774, 85.811 77.525, 83.594 76.674 C 82.821 76.378, 81.443 76.958, 80.533 77.964 M 228 84.999 C 222.775 86.064, 214.900 87.874, 210.500 89.020 C 201.605 91.339, 199.119 91.894, 180.660 95.683 C 173.161 97.223, 168.380 98.633, 169.168 99.074 C 171.752 100.520, 190.925 101.546, 201.673 100.813 C 218.237 99.683, 237.260 96.008, 260.791 89.390 C 267.089 87.618, 258.037 83.978, 246 83.441 C 240.192 83.182, 234.492 83.676, 228 84.999 M 256.931 94.513 C 253.319 95.812, 245.894 97.787, 240.431 98.902 C 234.969 100.017, 227.350 101.587, 223.500 102.390 C 219.650 103.192, 209.975 104.370, 202 105.006 C 188.848 106.056, 186.431 105.980, 176 104.188 C 169.675 103.102, 164.099 102.589, 163.609 103.048 C 163.119 103.507, 162.504 106.107, 162.243 108.825 C 161.646 115.037, 163.623 117.324, 170.944 118.895 C 186.447 122.219, 227.003 117.699, 255.593 109.459 C 267.195 106.116, 268.259 105.054, 267.394 97.691 C 266.616 91.072, 266.555 91.054, 256.931 94.513 M 285.399 125.278 C 286.774 127.082, 288.812 130.569, 289.928 133.028 C 291.751 137.049, 291.958 137.219, 291.978 134.718 C 292.009 130.764, 289.609 125.540, 286.883 123.631 C 283.237 121.077, 282.672 121.704, 285.399 125.278 M 170.487 128.296 C 175.079 142.833, 175.811 150.218, 173.525 158.961 C 171.088 168.284, 166.684 174.045, 158.968 178.005 C 154.982 180.051, 145.656 181.985, 139.566 182.029 L 135.500 182.059 138.711 184.980 C 143.982 189.776, 148.601 190.477, 162.651 188.611 C 187.066 185.367, 191.943 182.400, 195.632 168.546 C 197.468 161.655, 197.337 156.673, 195.113 148.651 C 191.529 135.728, 184.172 128.189, 173.645 126.654 C 170.028 126.126, 169.834 126.227, 170.487 128.296 M 241.982 129.973 C 233.948 132.027, 228.590 135.205, 222.100 141.765 C 216.227 147.704, 215.126 149.446, 212.795 156.500 C 209.825 165.485, 208.868 173.318, 209.724 181.614 C 210.260 186.811, 210.550 187.332, 213.620 188.614 C 219.500 191.072, 219.495 191.080, 219.550 178.250 C 219.609 164.713, 221.007 159.394, 226.907 150.265 C 231.020 143.902, 237.417 139.099, 245.407 136.377 C 248.989 135.156, 252.521 134.897, 260.301 135.281 C 265.911 135.559, 271.625 136.120, 273 136.529 C 278.403 138.135, 273.130 134.799, 266.369 132.333 C 258.865 129.597, 247.686 128.515, 241.982 129.973 M 247.500 139.331 C 241.122 141.456, 237.406 143.704, 233.599 147.737 C 225.968 155.823, 223.268 164.138, 222.720 181.250 L 222.408 191 225.153 191 C 237.890 191, 278.854 182.690, 290.250 177.794 C 294.869 175.810, 295 175.634, 295 171.434 C 295 164.448, 290.278 153.196, 285.327 148.384 C 277.047 140.336, 258.095 135.800, 247.500 139.331 M 44.401 150.486 C 36.352 152.237, 27.924 157.105, 22.996 162.850 C 18.485 168.107, 14.624 175.577, 15.387 177.567 C 16.064 179.331, 23.105 181.158, 29.417 181.207 C 32.213 181.229, 38.325 180.457, 43 179.491 C 55.476 176.915, 68.978 177.092, 76.500 179.929 C 81.476 181.806, 84.019 183.755, 91.393 191.346 L 100.287 200.500 99.584 194.163 C 98.095 180.742, 91.737 166.488, 84.342 159.996 C 82.519 158.394, 79.108 156.566, 76.763 155.932 C 70.400 154.212, 58.399 155.218, 53 157.923 C 47.891 160.483, 34.227 174.249, 33.358 177.712 C 32.745 180.151, 31.532 180.670, 30.468 178.948 C 30.111 178.370, 31.322 175.385, 33.159 172.315 C 40.465 160.108, 51.361 152.694, 64.033 151.307 C 70.442 150.605, 70.464 150.592, 66.500 149.857 C 60.469 148.739, 51.223 149.002, 44.401 150.486 M 274.500 160.549 C 273.950 160.764, 268.100 161.870, 261.500 163.006 C 246.815 165.534, 246 165.773, 246 167.567 C 246 169.516, 249.433 169.395, 261.677 167.018 C 272.375 164.941, 280 162.391, 280 160.891 C 280 160.011, 276.441 159.790, 274.500 160.549 M 265 170.656 C 258.125 172.014, 251.488 173.330, 250.250 173.581 C 249.012 173.833, 248 174.705, 248 175.519 C 248 177.848, 255.847 177.354, 269.754 174.150 C 282.616 171.186, 283.607 170.792, 282.541 169.067 C 281.639 167.606, 279.435 167.806, 265 170.656 M 59.185 185.053 C 51.992 186.617, 47 194.999, 47 205.509 C 47 210.742, 47.494 212.822, 49.485 215.977 C 52.841 221.293, 55.394 222.477, 62.715 222.111 C 65.976 221.948, 71.983 216.205, 74.128 211.201 C 76.717 205.161, 76.469 203.846, 73.550 208.142 C 70.936 211.987, 69.251 213, 65.465 213 C 60.089 213, 56 209.086, 56 203.938 C 56 202.856, 57.571 198.074, 59.492 193.311 C 61.413 188.548, 62.875 184.579, 62.742 184.491 C 62.609 184.404, 61.008 184.656, 59.185 185.053 M 68.215 187.750 C 66.220 193.089, 65.770 194.554, 64.457 200 C 63.706 203.112, 63.507 205.883, 63.998 206.383 C 66.506 208.934, 70.358 203.168, 73.171 192.652 C 74.363 188.193, 74.314 187.703, 72.541 186.407 C 69.875 184.457, 69.389 184.608, 68.215 187.750 M 41.500 187.622 C 38.200 188.332, 32.676 188.932, 29.225 188.956 C 23.339 188.997, 22.881 189.170, 21.820 191.750 C 21.197 193.262, 20.646 198.325, 20.594 203 C 20.463 214.871, 22.811 221.602, 29.670 229.010 C 36.557 236.449, 42.714 239.208, 53.500 239.689 C 60.561 240.003, 62.263 239.710, 68 237.193 C 79.182 232.285, 87.612 219.366, 88.680 205.500 C 89.134 199.617, 89.063 199.412, 85.034 195 L 80.926 190.500 81.545 197.560 C 82.188 204.887, 80.689 211.779, 76.989 218.500 C 74.887 222.318, 67.369 227.007, 62.248 227.694 C 53.813 228.825, 44.563 221.511, 41.890 211.596 C 39.947 204.389, 42.170 194.002, 46.781 188.744 C 47.628 187.778, 48.136 186.840, 47.911 186.660 C 47.685 186.480, 44.800 186.913, 41.500 187.622 M 276.468 190.249 C 274.081 190.970, 273.163 192.051, 272.157 195.332 C 269.058 205.431, 262.334 211, 253.240 211 C 247.187 211, 241.411 207.506, 238.178 201.888 L 235.898 197.926 226.699 198.213 L 217.500 198.500 217.637 201.656 C 217.801 205.427, 222.792 213.013, 227.277 216.307 C 232.280 219.982, 240.421 223, 245.330 223 C 257.322 223, 268.760 216.369, 274.287 206.214 C 276.538 202.078, 280.485 189.977, 279.741 189.492 C 279.608 189.405, 278.136 189.746, 276.468 190.249 M 262.346 192.996 C 261.161 193.474, 256.099 194.617, 251.096 195.536 C 246.093 196.456, 242 197.646, 242 198.181 C 242 198.716, 243.315 200.469, 244.923 202.077 C 249.166 206.320, 255.531 206.228, 260.516 201.852 C 263.619 199.128, 267 194.277, 267 192.550 C 267 191.772, 264.874 191.976, 262.346 192.996" stroke="none" fill="black" fill-rule="evenodd"/>
</svg>