<svg xmlns="http://www.w3.org/2000/svg" width="366" height="253" viewBox="0 0 366 253" version="1.1">
	<path d="M 230.500 7.007 C 211.279 8.170, 183.187 11.001, 130.500 17.085 C 101.686 20.412, 91.575 23.105, 80.644 30.361 C 66.912 39.478, 57.063 54.467, 39.487 93 C 36.351 99.875, 33.159 106.855, 32.392 108.511 C 31.626 110.166, 29.982 112.641, 28.739 114.011 C 16.280 127.735, 13.175 135.682, 12.335 156 C 11.877 167.059, 11.364 170.925, 10.174 172.293 C 8.207 174.551, 6.035 180.702, 6.015 184.068 C 5.990 188.267, 8.852 196.307, 11.385 199.159 C 14.432 202.589, 18.103 204.446, 28.602 207.868 C 36.402 210.410, 37.460 211.075, 40.854 215.575 C 47.454 224.324, 57.945 229, 70.977 229 C 75.731 229, 78.118 228.341, 83.463 225.556 L 90.070 222.111 103.285 224.127 C 115.421 225.977, 129.794 226.125, 134.319 224.446 C 134.968 224.205, 137.166 226.702, 139.201 229.995 C 145.607 240.357, 156.252 245.290, 172.500 245.425 C 180.132 245.489, 182.217 245.134, 186.218 243.089 C 196.484 237.842, 201.449 231.353, 205.030 218.500 L 206.702 212.500 220.101 210.342 C 235.106 207.926, 256.393 204.172, 259.612 203.375 C 261.341 202.947, 262.018 203.588, 263.349 206.915 C 267.488 217.260, 278.273 223.049, 294.757 223.775 C 304.364 224.199, 305.367 224.055, 310.564 221.512 C 314.239 219.714, 317.463 217.090, 320.108 213.744 C 324.784 207.829, 326.377 204.327, 328.026 196.345 C 328.690 193.130, 329.743 190.169, 330.367 189.765 C 330.990 189.361, 334.875 189.014, 339 188.993 C 349.169 188.943, 353.982 186.733, 356.856 180.798 C 360.425 173.424, 359.535 163.348, 354.873 158.372 C 352.956 156.325, 352.861 154.456, 352.392 109.372 C 352.123 83.592, 351.475 60.055, 350.952 57.066 C 350.428 54.078, 350 48.951, 350 45.674 C 350 37.639, 346.801 27.311, 343.038 23.197 C 337.391 17.025, 330.458 15.148, 296.500 10.597 C 279.907 8.373, 271.116 7.600, 251 6.595 C 246.875 6.389, 237.650 6.574, 230.500 7.007 M 218 15.495 C 210.575 16.252, 196.850 17.600, 187.500 18.491 C 166.113 20.528, 132.484 24.490, 115.438 26.980 C 97.344 29.623, 88.748 33.136, 78.619 42.030 C 71.705 48.100, 60.122 67.542, 50.040 90 C 40.769 110.651, 38.039 115.646, 33.101 121 C 27.330 127.255, 22 136.945, 22 141.179 C 22 143.683, 22.292 143.965, 24.358 143.446 C 31.569 141.636, 38.878 150.660, 37.522 159.701 C 36.714 165.092, 32.515 170, 28.712 170 C 27.369 170, 25.084 169.067, 23.635 167.927 L 21 165.855 21 169.478 C 21 173.819, 21.815 174.247, 39 178.919 C 58.967 184.348, 65.007 185.731, 85 189.452 C 101.808 192.580, 106.812 193.110, 121.251 193.290 L 138.002 193.500 138.001 167.815 C 138 148.775, 138.391 140.238, 139.513 134.815 C 141.837 123.577, 156.652 79.627, 161.605 69.277 C 166.696 58.638, 175.074 48.902, 182.681 44.785 C 191.527 39.997, 193.982 39.549, 241.750 34.003 C 251.238 32.901, 266.538 31.102, 275.750 30.004 C 300.301 27.078, 321.211 25.012, 327.222 24.917 L 332.500 24.833 326.500 23.382 C 297.416 16.345, 246.204 12.622, 218 15.495 M 331.211 26.605 C 330.501 27.372, 328.447 28, 326.644 28 C 324.842 28, 320.922 28.437, 317.934 28.972 C 314.945 29.507, 307.550 30.412, 301.500 30.983 C 290.156 32.054, 283.441 32.820, 240 37.997 C 225.975 39.669, 212.250 41.273, 209.500 41.561 C 187.488 43.869, 174.682 51.753, 166.475 68.050 C 163.148 74.656, 153.523 101.865, 145.799 126.500 L 141.723 139.500 141.259 167.129 C 140.835 192.378, 140.948 194.992, 142.571 197.467 C 143.681 199.162, 144.375 202.201, 144.423 205.582 C 144.465 208.555, 144.726 210.991, 145.002 210.994 C 145.279 210.997, 146.256 207.695, 147.174 203.656 C 148.092 199.617, 149.871 194.105, 151.127 191.406 C 154.387 184.405, 163.316 175.754, 169.428 173.676 C 176.198 171.374, 186.069 171.484, 190.835 173.916 C 194.244 175.655, 200.133 181.468, 204 186.911 C 205.416 188.905, 205.842 188.957, 211.635 187.856 L 217.771 186.690 218.385 182.205 C 219.850 171.521, 218.619 92.363, 216.451 57.750 C 215.919 49.272, 216.046 48, 217.420 48 C 218.289 48, 219.030 48.788, 219.067 49.750 C 219.105 50.712, 219.722 57.800, 220.440 65.500 C 221.306 74.785, 221.772 97.304, 221.824 132.368 C 221.867 161.446, 222.081 185.415, 222.299 185.633 C 222.791 186.124, 261.489 179.863, 272.523 177.508 C 273.759 177.244, 275.568 175.017, 277.170 171.788 C 283.180 159.677, 292.479 153.032, 303.635 152.875 C 312.796 152.746, 320.292 157.494, 325.599 166.788 C 328.111 171.188, 331.155 170.832, 332.133 166.024 C 332.929 162.111, 336.018 159.146, 340.166 158.317 C 341.700 158.010, 343.482 157.125, 344.125 156.349 C 344.999 155.297, 345.147 143.874, 344.710 111.220 C 343.888 49.734, 342.306 33.320, 336.717 28.292 C 333.407 25.314, 332.625 25.075, 331.211 26.605 M 70.355 59.033 C 69.175 59.487, 67.086 61.352, 65.713 63.179 C 60.603 69.973, 43 108.102, 43 112.376 C 43 117.932, 49.393 120.885, 71.642 125.609 C 95.132 130.596, 104.705 132.068, 117 132.585 C 134.130 133.306, 133.325 134.147, 142.963 105.443 C 152.700 76.448, 152.661 72.201, 142.628 68.584 C 135.341 65.958, 100.827 60.308, 87 59.479 C 81.775 59.165, 76.375 58.751, 75 58.558 C 73.625 58.365, 71.535 58.579, 70.355 59.033 M 74.248 63.732 C 71.138 64.295, 68.057 68.717, 62.216 81 C 50.680 105.258, 48.389 110.965, 49.267 113.253 C 50.329 116.022, 77.155 122.703, 105 127.133 C 119.601 129.457, 126.615 129.193, 129.014 126.231 C 129.916 125.117, 132.943 117.746, 135.741 109.852 C 145.184 83.204, 146.445 77.588, 143.619 74.762 C 141.286 72.429, 106.123 65.932, 88 64.485 C 83.875 64.156, 79.600 63.760, 78.500 63.605 C 77.400 63.450, 75.486 63.507, 74.248 63.732 M 183.074 70.105 C 172.185 72.066, 169.314 73.611, 166.496 79.024 C 163.996 83.828, 150.794 124.513, 150.700 127.704 C 150.594 131.340, 153.349 135, 156.193 135 C 158.326 135, 192.450 126.944, 201.309 124.349 C 205.135 123.228, 207.952 121.657, 209.559 119.747 C 211.868 117.003, 212 116.156, 212 104.077 C 212 97.054, 211.707 87.182, 211.349 82.139 C 210.785 74.185, 210.369 72.642, 208.213 70.486 C 206.073 68.346, 204.876 68.016, 199.614 68.113 C 196.251 68.176, 188.808 69.072, 183.074 70.105 M 192 73.648 C 177.298 75.856, 173.446 77.237, 171.503 80.994 C 169.919 84.058, 157.565 121.016, 156.543 125.750 C 155.685 129.724, 155.762 129.732, 169.502 127.045 C 185.365 123.944, 203.365 119.064, 205 117.421 C 206.255 116.160, 206.443 112.779, 206.150 96.758 C 205.957 86.222, 205.406 76.567, 204.924 75.301 C 204.168 73.312, 203.401 73.018, 199.275 73.136 C 196.649 73.211, 193.375 73.441, 192 73.648 M 198 135.752 C 195.264 137.118, 194.433 138.191, 194.193 140.665 C 193.951 143.158, 194.334 143.971, 196.001 144.500 C 198.411 145.265, 207.657 144.213, 210.182 142.886 C 212.482 141.678, 213.336 138.497, 212.020 136.038 C 210.608 133.398, 203.021 133.244, 198 135.752 M 203.112 138.173 C 198.161 139.042, 197.220 139.620, 198.568 140.968 C 199.455 141.855, 206.496 140.838, 207.683 139.650 C 209.154 138.179, 207.016 137.488, 203.112 138.173 M 23.479 151.396 C 21.521 156.081, 21.615 157.857, 24.029 161.816 C 26.863 166.464, 30.015 165.904, 31.912 160.416 C 33.194 156.707, 33.149 155.974, 31.412 152.416 C 28.765 146.995, 25.494 146.574, 23.479 151.396 M 42.250 152.130 C 41.444 152.949, 41 156.473, 41 162.045 C 41 169.439, 41.291 170.954, 43.013 172.512 C 45.442 174.710, 67.934 180.728, 77 181.606 C 86.156 182.492, 87.802 181.020, 89.303 170.604 C 90.906 159.477, 92.033 160.171, 63 154.402 C 44.802 150.786, 43.692 150.665, 42.250 152.130 M 46.170 157.509 C 46.576 160.936, 49.283 161.886, 70 165.870 C 84.354 168.631, 84.503 168.639, 84.845 166.636 C 85.341 163.728, 82.801 162.313, 74.662 160.963 C 67.347 159.750, 52.363 156.601, 48.170 155.395 C 46.084 154.795, 45.875 155.016, 46.170 157.509 M 99.514 160.168 C 94.060 164.458, 92.452 172.949, 95.995 178.759 C 100.096 185.486, 107.633 187.740, 113.686 184.050 C 120.998 179.591, 121.914 168.233, 115.510 161.442 C 112.652 158.412, 111.666 158, 107.267 158 C 103.655 158, 101.506 158.601, 99.514 160.168 M 104.357 162.992 C 98.548 165.336, 97.292 172.960, 101.901 177.894 C 105.455 181.698, 109.714 182.036, 112.688 178.750 C 116.961 174.028, 116.089 166.132, 111.003 163.502 C 107.734 161.811, 107.354 161.782, 104.357 162.992 M 296.366 165.919 C 292.741 168.129, 289.041 172.795, 286.396 178.493 C 283.936 183.790, 283.856 199.783, 286.262 205.085 C 291.917 217.547, 304.019 219.465, 312.952 209.317 C 323.117 197.769, 322.804 176.182, 312.339 166.993 C 309.582 164.572, 308.029 164.001, 304.215 164.004 C 301.339 164.006, 298.278 164.753, 296.366 165.919 M 346.500 164.723 C 339.609 165.944, 340 165.416, 340 173.519 C 340 180.794, 340.068 181, 342.453 181 C 346.447 181, 350.004 178.855, 350.617 176.079 C 350.930 174.660, 351.387 172.751, 351.633 171.835 C 352.255 169.521, 351.057 165.224, 349.660 164.757 C 349.022 164.544, 347.600 164.529, 346.500 164.723 M 45.557 167.250 C 46.486 170.273, 45.847 169.922, 55.189 172.541 C 68.696 176.328, 82.140 178.379, 83.154 176.808 C 85.251 173.557, 83.560 172.513, 73.489 170.845 C 67.995 169.935, 60.134 168.247, 56.020 167.095 C 46.158 164.333, 44.667 164.355, 45.557 167.250 M 329.372 176.934 C 331.074 182.698, 332 182.956, 332 177.667 C 332 173.753, 331.694 173, 330.106 173 C 328.370 173, 328.309 173.331, 329.372 176.934 M 298.182 176.030 C 286.418 183.202, 290.783 207.952, 303.394 205.586 C 310.565 204.241, 315 198.094, 315 189.500 C 315 183.734, 313.021 178.948, 309.486 176.168 C 306.047 173.462, 302.466 173.419, 298.182 176.030 M 14.423 181.450 C 13.476 185.224, 15.865 192.748, 18.724 194.997 C 22.263 197.781, 30.209 200.537, 44.729 204.016 C 51.753 205.700, 59.093 207.499, 61.040 208.016 C 78.192 212.565, 106.836 216.948, 119.601 216.977 C 135.053 217.012, 138 215.364, 138 206.688 C 138 200.872, 136.388 199.559, 130.243 200.370 C 125.097 201.050, 102.169 199.583, 92.500 197.957 C 61.134 192.679, 28.598 184.778, 16.792 179.571 C 15.483 178.994, 14.929 179.433, 14.423 181.450 M 299.625 180.862 C 295.473 185.449, 295.424 195.171, 299.533 199.031 C 302.817 202.116, 305.737 200.848, 308.208 195.262 C 312.526 185.500, 305.736 174.109, 299.625 180.862 M 269.500 181.636 C 263.816 182.786, 244.228 186.142, 235 187.548 C 221.435 189.615, 221.183 189.699, 220.813 192.287 C 220.641 193.493, 219.771 194.618, 218.879 194.788 C 217.620 195.028, 217.372 194.505, 217.767 192.439 C 218.247 189.927, 218.102 189.814, 215.138 190.390 C 213.412 190.726, 210.730 191.243, 209.178 191.540 L 206.356 192.081 207.306 197.978 L 208.256 203.875 213.378 203.389 C 218.845 202.870, 226.451 201.545, 248 197.359 C 274.580 192.196, 271.714 193.166, 272.395 189.102 C 272.727 187.121, 273.277 184.488, 273.616 183.250 C 274.250 180.939, 273.808 180.765, 269.500 181.636 M 174.500 184.503 C 164.819 187.927, 158.287 201.108, 159.216 215.343 C 159.773 223.868, 162.341 229.487, 167.699 233.903 C 176.332 241.019, 189.172 235.691, 195.178 222.500 C 197.036 218.417, 197.439 215.850, 197.372 208.500 C 197.254 195.506, 194.155 189.193, 185.790 184.903 C 181.424 182.664, 179.856 182.608, 174.500 184.503 M 174.784 194.554 C 170.267 197.006, 166.667 204.298, 166.667 210.994 C 166.667 217.984, 169.096 222.691, 174.104 225.406 C 178.563 227.824, 182.182 227.018, 186.569 222.631 C 194.172 215.028, 193.413 200.882, 185.102 195.287 C 181.194 192.656, 178.618 192.473, 174.784 194.554 M 277.222 197.997 C 276.520 199.132, 274.607 200.329, 272.972 200.656 C 271.338 200.982, 270 201.577, 270 201.977 C 270 204.238, 275.238 209.870, 279.532 212.227 C 285.807 215.670, 286.609 215.674, 284.209 212.250 C 282.436 209.721, 279.567 201.991, 278.814 197.716 C 278.529 196.099, 278.381 196.125, 277.222 197.997 M 174.923 201.923 C 172.386 204.461, 172 205.588, 172 210.469 C 172 215.105, 172.431 216.521, 174.455 218.545 C 177.652 221.743, 179.512 221.642, 183.077 218.077 C 185.646 215.508, 186 214.440, 186 209.265 C 186 199.544, 180.770 196.077, 174.923 201.923 M 154.158 204 C 154.158 205.375, 154.385 205.938, 154.662 205.250 C 154.940 204.563, 154.940 203.438, 154.662 202.750 C 154.385 202.063, 154.158 202.625, 154.158 204 M 152.677 210.155 C 151.871 215.023, 148.267 220, 145.548 220 C 140.312 220, 148.556 230.735, 156.632 234.432 C 163.492 237.573, 163.913 237.601, 161.223 234.738 C 157.345 230.610, 154.709 222.976, 154.061 214 C 153.470 205.817, 153.419 205.674, 152.677 210.155 M 50.414 213.861 C 51.816 216.130, 61.324 220.178, 66.387 220.662 C 69.199 220.931, 73.300 220.760, 75.500 220.280 C 79.352 219.442, 79.037 219.309, 67 216.692 C 60.125 215.197, 53.417 213.684, 52.094 213.330 C 50.387 212.872, 49.899 213.027, 50.414 213.861" stroke="none" fill="black" fill-rule="evenodd"/>
</svg>