<svg xmlns="http://www.w3.org/2000/svg" width="287" height="268" viewBox="0 0 287 268" version="1.1">
	<path d="M 30.085 8.148 C 17.377 11.127, 7.857 23.011, 7.151 36.776 C 6.616 47.228, 10.643 55.861, 19.144 62.485 L 23.760 66.081 19.419 76.790 C 11.620 96.032, 11.072 110.202, 17.602 123.779 C 24.891 138.936, 42.443 153.450, 60.718 159.431 C 65.539 161.010, 65.979 161.419, 66.514 164.820 C 66.832 166.844, 67.518 171.200, 68.039 174.500 C 69.235 182.084, 69.618 185.926, 71.055 204.805 L 72.221 220.109 68.272 224.805 C 63.068 230.992, 62 233.151, 62 237.484 C 62 243.350, 64.319 246.504, 71.140 249.912 C 76.331 252.506, 78.473 253, 84.534 253 C 88.502 253, 93.712 252.307, 96.111 251.461 C 99.574 250.239, 100.562 250.185, 100.900 251.201 C 101.918 254.255, 107.109 257.976, 112.562 259.561 C 116.972 260.843, 120.380 261.113, 126.352 260.652 C 136.482 259.871, 141.877 257.313, 146.335 251.176 C 150.238 245.803, 151.793 241.542, 153.021 232.851 C 153.992 225.980, 154.855 225.037, 160.194 225.015 L 163.888 225 161.878 229.543 C 159.951 233.900, 159.937 234.293, 161.531 239.093 C 163.616 245.371, 168.307 248.782, 176.092 249.682 C 179.303 250.052, 183.709 251.544, 186.937 253.354 C 196.547 258.741, 215.061 258.231, 222.759 252.367 C 229.497 247.234, 230.353 243.944, 231.175 220 C 231.581 208.175, 232.214 194.557, 232.583 189.737 C 233.224 181.338, 233.361 180.949, 235.876 180.344 C 244.492 178.274, 253.054 171.157, 257.342 162.500 C 261.710 153.682, 262.251 149.858, 261.474 133.289 C 260.597 114.567, 261.039 113.073, 268.507 109.540 C 277.586 105.245, 281.537 98.187, 279.061 90.686 C 276.915 84.183, 269.745 80.378, 261.659 81.451 C 250.599 82.918, 240.506 90.681, 235.220 101.786 C 232.311 107.897, 232.037 112.575, 233.101 138.037 C 233.562 149.053, 232.303 152.140, 226.337 154.632 C 222.843 156.093, 222.813 156.083, 218.325 151.945 C 210.330 144.576, 194.887 139.072, 181.184 138.709 L 173.291 138.500 176.561 134.500 C 184.200 125.156, 188.732 110.673, 187.512 99.500 C 186.790 92.887, 182.125 78.153, 178.468 70.937 L 176.123 66.309 181.537 61.904 C 189.154 55.709, 192.400 48.976, 192.822 38.500 C 193.121 31.089, 192.900 30.022, 189.822 24 C 182.318 9.317, 164.525 3.070, 149.657 9.898 C 145.557 11.781, 139.908 16.555, 138.227 19.558 C 137.469 20.913, 136.408 20.787, 129.435 18.510 C 119.636 15.312, 111.184 14.045, 99.500 14.023 C 89.506 14.005, 75.302 16.181, 68.196 18.819 L 63.557 20.542 59.028 16.142 C 56.538 13.722, 52.700 10.932, 50.500 9.943 C 45.419 7.657, 35.792 6.810, 30.085 8.148 M 29.500 17.879 C 19.112 22.644, 14.014 33.311, 16.995 44.042 C 18.289 48.698, 25.125 55.500, 30.619 57.599 C 35.431 59.436, 36.028 61.112, 33.566 65.872 C 32.157 68.598, 32.245 68.763, 38.709 75.453 C 44.035 80.965, 44.993 82.424, 43.744 83.123 C 42.366 83.894, 34.636 82.953, 29.764 81.420 C 28.498 81.022, 27.566 81.842, 26.324 84.447 C 24.223 88.852, 24.444 89.098, 34.445 93.445 C 38.726 95.306, 42.679 97.279, 43.229 97.829 C 44.993 99.593, 38.671 101.897, 30.113 102.611 L 22 103.288 22 106.562 C 22 112.995, 22.030 113.009, 34.233 112.310 C 43.478 111.781, 45.202 111.908, 44.833 113.089 C 44.459 114.290, 36.742 119.918, 30.460 123.572 C 28.688 124.603, 28.700 124.778, 30.776 128.137 C 36.365 137.181, 57.360 149.904, 73.500 154.028 C 90.180 158.291, 117.889 157.640, 132.590 152.639 C 145.779 148.154, 149 145.837, 149 140.835 C 149 138.204, 151.290 138.999, 151.972 141.867 L 152.500 144.085 156 141.475 C 157.925 140.039, 160.154 138.489, 160.953 138.029 C 162.183 137.322, 162.197 136.943, 161.045 135.554 C 159.267 133.412, 161.265 130.865, 163.204 132.804 C 164.142 133.742, 165.245 133.191, 168.204 130.301 C 171.771 126.818, 173.083 124, 171.139 124 C 169.628 124, 155 113.968, 155 112.932 C 155 112.291, 158.773 112.181, 165.596 112.622 C 177.506 113.392, 177.958 113.178, 177.985 106.750 L 178 103 172.750 102.956 C 167.041 102.909, 157.850 100.184, 157.272 98.368 C 157.071 97.734, 160.216 96.030, 164.405 94.502 C 168.527 92.999, 172.616 90.977, 173.492 90.008 C 174.951 88.397, 174.946 87.954, 173.431 84.779 C 171.821 81.400, 171.668 81.330, 167.639 82.111 C 162.385 83.129, 156 83.220, 156 82.277 C 156 81.879, 158.742 78.788, 162.093 75.406 L 168.185 69.259 166.593 66.179 C 165.717 64.485, 165 61.918, 165 60.474 C 165 57.639, 158.919 49.076, 150.646 40.260 L 145.729 35.020 148.069 31.605 C 151.280 26.917, 154.936 25, 160.654 25.002 C 167.108 25.004, 171.958 27.589, 174.718 32.500 C 178.841 39.833, 177.185 48.229, 170.535 53.711 C 166.050 57.408, 167.371 58.876, 172.716 56.135 C 182.572 51.081, 186.153 41.675, 182.407 30.681 C 179.107 20.996, 166.477 14.033, 157.252 16.813 C 152.272 18.314, 146.319 23.353, 144.205 27.858 C 142.241 32.045, 138.783 33.036, 134.169 30.734 L 131.361 29.333 127.731 37.029 C 123.710 45.556, 119.636 51, 117.276 51 C 115.924 51, 115.820 49.408, 116.449 38.361 C 117.232 24.623, 117.046 24.045, 111.822 24.015 C 109.309 24.001, 109.100 24.355, 108.426 29.750 C 106.788 42.861, 102.226 57, 99.634 57 C 97.074 57, 92.535 40.243, 91.778 28 C 91.527 23.937, 91.238 23.470, 88.799 23.188 C 85.920 22.856, 81.645 24.617, 82.393 25.827 C 82.640 26.226, 83.162 31.829, 83.552 38.277 C 84.249 49.776, 84.222 50, 82.144 50 C 79.823 50, 77.604 46.864, 72.085 35.791 L 68.742 29.081 65.249 30.541 C 59.837 32.802, 58.418 32.388, 55.690 27.750 C 52.334 22.044, 49.298 19.369, 44.096 17.534 C 38.420 15.531, 34.411 15.626, 29.500 17.879 M 33.001 25.123 C 29.774 26.410, 26.182 29.786, 24.405 33.200 C 22.374 37.103, 22.633 44.886, 24.919 48.634 C 27.096 52.205, 32.966 57, 35.160 57 C 35.970 57, 37.698 55.087, 39.001 52.750 C 40.304 50.412, 43.987 45.762, 47.185 42.415 C 50.383 39.068, 53 35.444, 53 34.361 C 53 31.784, 47.407 26.571, 43.101 25.134 C 39.047 23.782, 36.372 23.779, 33.001 25.123 M 33.346 31.601 C 29.982 33.261, 29.035 35.338, 29.014 41.115 C 29.001 44.421, 32.053 50.043, 33.823 49.973 C 34.195 49.958, 35.625 48.114, 37 45.875 C 38.375 43.635, 41.205 40.258, 43.289 38.369 C 47.483 34.568, 47.343 33.459, 42.410 31.398 C 38.225 29.649, 37.259 29.671, 33.346 31.601 M 154.526 32.224 L 151.691 34.663 155.327 37.436 C 157.326 38.961, 160.607 42.498, 162.617 45.296 L 166.273 50.384 168.629 47.645 C 174.992 40.248, 171.383 31.666, 161.344 30.319 C 158.097 29.884, 156.838 30.235, 154.526 32.224 M 93.528 78.149 C 89.579 82.842, 85.499 91.614, 83.594 99.508 L 81.903 106.516 74.142 109.265 C 69.873 110.777, 63.596 114.040, 60.193 116.516 C 54.311 120.797, 47.078 129.131, 47.025 131.691 C 46.955 135.036, 49.769 133.579, 55.498 127.302 C 60.341 121.995, 63.728 119.397, 69.987 116.188 C 78.130 112.013, 82 111.017, 82 113.096 C 82 115.734, 86.742 120.450, 91.659 122.702 C 95.829 124.610, 97 125.645, 97 127.418 C 97 132.603, 90.021 134.735, 85.273 131 C 80.230 127.033, 78.231 129.277, 82.289 134.349 C 85.399 138.234, 92.415 139.133, 97.272 136.267 C 100.553 134.331, 100.687 134.328, 102.927 136.142 C 108.217 140.425, 120 137.212, 120 131.486 C 120 128.015, 118.628 127.728, 115.380 130.520 C 113.796 131.883, 111.263 132.998, 109.750 132.999 C 103.777 133.001, 100.251 124.802, 105.750 123.697 C 110.917 122.659, 117.401 116.877, 118.556 112.277 C 118.587 112.155, 121.630 113.036, 125.319 114.236 C 133.099 116.765, 141.649 123.025, 146.262 129.569 C 151.274 136.680, 154.017 134.875, 150.042 127.082 C 146.342 119.830, 134.371 111.283, 123.254 107.956 C 119.637 106.874, 118.859 106.152, 118.009 103.093 C 117.460 101.117, 117.009 98.891, 117.006 98.147 C 116.993 94.986, 109.145 80.300, 106.099 77.737 C 101.512 73.877, 96.998 74.025, 93.528 78.149 M 97.091 81.133 C 93.538 84.947, 87.994 98.357, 88.003 103.116 C 88.005 104.221, 90.534 104.500, 100.549 104.500 L 113.093 104.500 112.455 100.500 C 111.223 92.780, 103.240 79, 99.998 79 C 99.492 79, 98.184 79.960, 97.091 81.133 M 58.198 84.673 C 51.574 87.937, 49.922 96.564, 54.901 101.894 C 60.528 107.917, 70.724 105.086, 72.498 97.008 C 73.351 93.126, 69.899 85.730, 66.514 84.188 C 63.145 82.653, 62.182 82.709, 58.198 84.673 M 133.353 84.884 C 129.631 87.204, 127.520 92.630, 128.438 97.522 C 129.842 105.004, 139.505 107.649, 145.077 102.077 C 153.462 93.692, 143.249 78.716, 133.353 84.884 M 63.658 88.675 C 62.173 90.160, 63.054 93, 65 93 C 66.100 93, 67 92.380, 67 91.622 C 67 89.926, 64.559 87.774, 63.658 88.675 M 138.247 89.153 C 136.832 90.568, 138.393 94, 140.452 94 C 142.279 94, 142.950 91.929, 141.830 89.750 C 140.780 87.709, 139.847 87.553, 138.247 89.153 M 245.313 102.250 C 244.193 103.487, 242.782 105.980, 242.177 107.789 C 241.143 110.880, 241.240 111.142, 243.788 112.127 C 245.280 112.704, 247.850 113.399, 249.500 113.672 C 252.255 114.128, 252.597 113.855, 253.688 110.334 C 254.822 106.676, 254.732 106.351, 251.742 103.250 C 250.018 101.463, 248.324 100, 247.978 100 C 247.632 100, 246.433 101.013, 245.313 102.250 M 242 127.955 C 242 132.634, 242.177 133, 244.435 133 C 245.774 133, 248.087 133.463, 249.575 134.028 L 252.280 135.057 251.630 130.319 C 250.863 124.719, 250.621 124.442, 245.750 123.576 L 242 122.909 242 127.955 M 39.583 131.866 C 39.152 132.563, 39.070 133.403, 39.400 133.733 C 40.295 134.628, 41.271 133.312, 40.787 131.862 C 40.449 130.846, 40.213 130.846, 39.583 131.866 M 47.500 139 C 47.101 139.646, 47.224 140.624, 47.774 141.174 C 48.441 141.841, 49.016 141.783, 49.500 141 C 49.899 140.354, 49.776 139.376, 49.226 138.826 C 48.559 138.159, 47.984 138.217, 47.500 139 M 242.711 148.118 C 242.251 151.550, 242.623 152.877, 244.946 156.085 C 246.479 158.201, 248.058 159.610, 248.455 159.216 C 249.900 157.781, 252 151.685, 252 148.925 C 252 146.505, 251.455 145.943, 248.250 145.053 C 243.117 143.627, 243.329 143.510, 242.711 148.118 M 163.383 148.688 C 161.674 149.024, 161.154 150.056, 160.682 154.040 C 159.997 159.817, 154.882 170.610, 150.280 175.987 C 147.001 179.817, 138.284 186, 136.162 186 C 134.180 186, 134.867 183.346, 138.250 177.928 C 140.770 173.892, 147.266 157.149, 146.625 156.343 C 146.556 156.257, 142.665 157.430, 137.978 158.950 C 124.481 163.328, 108.080 165.415, 93.126 164.658 C 86.182 164.306, 79.473 163.733, 78.218 163.384 C 76.033 162.777, 75.963 162.935, 76.558 167.125 C 78.922 183.772, 87.930 196.447, 103.088 204.457 L 109.676 207.939 110.588 203.219 C 111.304 199.513, 111.920 198.500, 113.456 198.500 C 116.619 198.500, 118.209 205.637, 118.364 220.533 L 118.500 233.566 114.250 238.914 C 110.258 243.936, 109.151 246.818, 110.640 248.307 C 110.992 248.659, 112.057 247.496, 113.007 245.723 C 113.956 243.951, 115.509 242.347, 116.458 242.159 C 117.936 241.867, 118.134 242.509, 117.842 246.631 C 117.567 250.494, 117.829 251.510, 119.165 251.779 C 120.202 251.988, 121.094 251.245, 121.533 249.807 C 122.326 247.206, 124.878 244, 126.155 244 C 126.620 244, 127 245.800, 127 248 C 127 252.780, 128.464 253.120, 134.444 249.733 C 139.013 247.145, 141.524 243.251, 142.491 237.250 C 143.110 233.409, 142.978 233, 141.125 233 C 139.998 233, 136.592 232.071, 133.557 230.935 C 124.511 227.551, 124.976 225.706, 135.141 224.643 C 142.274 223.898, 145 222.604, 145 219.965 C 145 218.262, 144.300 217.999, 139.750 217.994 C 133.730 217.988, 127 216.368, 127 214.925 C 127 214.386, 130.929 212.069, 135.730 209.776 C 140.673 207.417, 145.833 204.110, 147.623 202.156 C 152.962 196.329, 155.007 199.399, 154.117 211.902 C 153.984 213.774, 154.342 215.593, 154.912 215.946 C 156.500 216.927, 172.569 215.267, 178.678 213.491 C 182.942 212.252, 184.004 211.547, 183.628 210.206 C 181.427 202.364, 181.903 198, 184.959 198 C 186.114 198, 187.036 199.007, 187.473 200.747 C 187.852 202.257, 190.375 208.257, 193.081 214.079 C 199.340 227.548, 199.389 230.562, 193.449 237 C 190.728 239.949, 189.368 244.491, 190.919 245.450 C 191.547 245.838, 192 245.333, 192 244.248 C 192 242.179, 195.457 238, 197.168 238 C 197.895 238, 198.041 239.635, 197.606 242.909 C 196.835 248.722, 198.836 250.585, 200.567 245.666 C 201.711 242.415, 204.427 240.094, 205.654 241.321 C 206.067 241.733, 206.299 243.630, 206.171 245.535 C 205.885 249.783, 207.522 250.036, 214.038 246.750 C 217.941 244.782, 218.728 243.814, 220.318 239.017 C 222.762 231.643, 221.959 227, 218.238 227 C 214.553 227, 207 223.991, 207 222.523 C 207 221.861, 209.588 220.765, 212.750 220.088 C 222.147 218.077, 222 218.165, 222 214.579 L 222 211.294 217.056 211.769 C 210.982 212.352, 204.990 211.324, 205.030 209.705 C 205.046 209.042, 207.779 206.942, 211.103 205.038 C 218.210 200.968, 222.967 196.680, 223.082 194.241 C 223.343 188.682, 222.754 179.989, 221.894 176.707 L 220.900 172.914 217.731 179.058 C 215.987 182.438, 212.807 186.958, 210.663 189.102 C 205.126 194.639, 200.567 194.316, 203.534 188.598 C 207.192 181.546, 210.012 171.538, 210.250 164.759 L 210.500 157.637 207 155.250 L 203.500 152.863 202.287 160.111 C 200.275 172.129, 194.907 183, 190.986 183 C 188.694 183, 188.746 183.436, 190.028 175 C 191.286 166.720, 190.247 151.389, 188.295 149.438 C 187.504 148.647, 185.829 148, 184.571 148 C 182.434 148, 182.251 148.501, 181.746 155.750 C 181.145 164.388, 177.588 175.691, 173.251 182.748 C 170.410 187.372, 167.587 189.920, 166.505 188.838 C 166.179 188.513, 166.389 184.418, 166.970 179.738 C 168.819 164.862, 168.379 147.680, 166.162 148.136 C 165.798 148.211, 164.547 148.460, 163.383 148.688 M 230.500 162.672 C 228.850 163.548, 227.368 164.374, 227.207 164.508 C 226.661 164.964, 230.365 172, 231.151 172 C 232.397 172, 239 168.687, 238.996 168.065 C 238.989 166.918, 235.004 161.001, 234.265 161.040 C 233.844 161.062, 232.150 161.796, 230.500 162.672 M 80.529 199.134 C 81.324 202.750, 82.537 203.998, 88.182 207.008 C 95.040 210.665, 94.526 212.247, 86.236 212.994 C 80.884 213.477, 80.708 213.581, 82.390 215.255 C 83.359 216.220, 86.130 217.507, 88.546 218.116 C 92.782 219.182, 95.889 221.444, 94.722 222.612 C 93.905 223.429, 86.996 224.935, 83.500 225.058 C 81.183 225.140, 79.419 226.400, 75.750 230.593 C 73.138 233.580, 71 236.918, 71 238.012 C 71 240.933, 72.282 240.399, 74.085 236.727 C 75.055 234.753, 76.562 233.369, 77.968 233.163 C 80.032 232.860, 80.196 233.115, 79.573 235.663 C 77.290 244.995, 78.132 246.878, 81.623 240.250 C 82.875 237.873, 84.312 236.500, 85.549 236.500 C 87.227 236.500, 87.454 237.088, 87.169 240.704 L 86.837 244.907 90.041 243.988 C 95.044 242.553, 97.733 240.355, 98.849 236.785 C 100.026 233.021, 103.287 213.916, 102.814 213.555 C 102.641 213.423, 99.263 211.245, 95.307 208.715 C 91.351 206.184, 86.243 202.243, 83.955 199.955 L 79.796 195.796 80.529 199.134 M 179.750 221.305 C 177.137 221.872, 175 222.767, 175 223.294 C 175 223.821, 173.626 226.957, 171.946 230.263 C 170.223 233.654, 169.165 236.977, 169.520 237.887 C 170.001 239.119, 170.474 238.733, 171.526 236.250 C 172.468 234.027, 173.579 233, 175.040 233 C 176.978 233, 177.113 233.371, 176.500 237 C 175.857 240.804, 175.950 241, 178.393 241 C 180.325 241, 181.124 240.356, 181.614 238.403 C 181.972 236.974, 183.821 233.768, 185.721 231.279 C 188.628 227.470, 189.076 226.216, 188.543 223.376 C 187.848 219.674, 187.573 219.609, 179.750 221.305 M 110.158 228 C 110.158 229.375, 110.385 229.938, 110.662 229.250 C 110.940 228.563, 110.940 227.438, 110.662 226.750 C 110.385 226.063, 110.158 226.625, 110.158 228" stroke="none" fill="black" fill-rule="evenodd"/>
</svg>