<svg xmlns="http://www.w3.org/2000/svg" width="290" height="292" viewBox="0 0 290 292" version="1.1">
	<path d="M 49.500 8.402 C 45.846 10.014, 40.168 16.927, 38.918 21.287 C 37.423 26.500, 37.883 35.151, 39.887 39.500 C 41.960 44, 47.458 49.976, 51.984 52.650 C 53.643 53.630, 55 54.847, 55 55.355 C 55 55.863, 53.650 58.473, 52 61.154 C 50.350 63.836, 49 66.389, 49 66.828 C 49 67.267, 47.956 69.847, 46.680 72.563 C 45.403 75.278, 43.532 80.313, 42.521 83.750 C 41.510 87.188, 40.381 90, 40.011 90 C 39.248 90, 38.487 88.544, 33.738 78 C 29.665 68.959, 27.863 67, 23.617 67 C 19.487 67, 16.538 69.741, 13.570 76.340 C 10.397 83.393, 9.327 87.177, 7.902 96.383 C 6.668 104.363, 7.418 113.820, 10.142 124.604 C 10.969 127.880, 10.836 129.697, 9.483 133.604 C 5.776 144.314, 6.457 154.801, 11.718 168 C 16.306 179.512, 24.083 187.911, 37 195.306 C 43.349 198.941, 58.072 203.631, 67.500 205.021 C 83.171 207.332, 82.286 206.909, 84.279 213.034 C 87.333 222.417, 88.265 232.512, 87.556 248.521 C 86.911 263.099, 86.959 263.644, 89.196 266.962 C 93.062 272.699, 99.418 275.233, 111.287 275.770 C 118.947 276.117, 122 276.657, 123.500 277.932 C 129.913 283.380, 139.531 285.641, 152.156 284.667 C 167.962 283.449, 175 276, 175 260.491 C 175 253.608, 175.582 253.044, 182.716 253.014 C 185.834 253, 185.952 253.155, 186.614 258.151 C 187.570 265.358, 190.825 268.752, 198.513 270.560 C 201.806 271.335, 205.907 271.976, 207.628 271.984 C 209.348 271.993, 211.283 272.636, 211.928 273.414 C 216.100 278.440, 231.799 281.273, 243.191 279.055 C 251.937 277.352, 255.373 275.511, 258.665 270.765 L 261.500 266.678 262.085 243.589 C 262.444 229.439, 263.129 219.391, 263.855 217.635 C 264.506 216.059, 265.320 210.793, 265.665 205.933 L 266.293 197.096 269.874 200.048 C 273.381 202.938, 278.065 203.883, 280.671 202.225 C 282.827 200.853, 283.151 196.370, 281.541 190.159 C 278.697 179.184, 272.875 170.762, 262 161.895 C 258.975 159.428, 252.450 153.381, 247.500 148.455 C 241.067 142.055, 236.646 138.598, 232 136.339 C 224.832 132.854, 212.245 128.585, 204.500 127.013 C 191.615 124.398, 192.717 125.155, 191.315 117.967 C 190.622 114.410, 189.596 109.925, 189.036 108 C 188.476 106.075, 186.649 98.650, 184.976 91.500 C 183.303 84.350, 180.572 75.204, 178.907 71.175 C 177.242 67.146, 175.656 63.267, 175.382 62.554 C 175.088 61.786, 176.703 60.192, 179.344 58.645 C 185.522 55.024, 191.462 47.957, 193.117 42.260 C 198.322 24.335, 186.134 6.925, 171.196 10.947 C 165.305 12.534, 159.737 18.575, 154.979 28.544 C 151.765 35.278, 150.479 37.075, 149.175 36.655 C 148.254 36.358, 142.775 34.423, 137 32.354 C 126.673 28.654, 126.269 28.594, 112.500 28.689 C 100.858 28.769, 96.828 29.222, 88.571 31.380 C 83.110 32.808, 78.535 33.869, 78.404 33.738 C 78.274 33.607, 76.132 29.225, 73.645 24 C 68.422 13.027, 67.682 11.995, 62.982 9.130 C 59.041 6.728, 53.922 6.451, 49.500 8.402 M 51.750 17.080 C 46.497 20.140, 45.344 31.281, 49.628 37.594 C 52.867 42.367, 54.307 43.553, 59.938 46.091 L 64.376 48.090 67.754 44.713 L 71.131 41.336 68.099 34.716 C 66.432 31.076, 64.356 26.394, 63.486 24.312 C 60.464 17.078, 56.231 14.470, 51.750 17.080 M 169.240 22.250 C 168.081 23.488, 165.438 28.100, 163.368 32.500 C 155.628 48.948, 152.334 52.545, 148.872 48.328 C 146.981 46.025, 134.570 40.450, 128.500 39.177 C 111.983 35.713, 96.264 37.277, 83.574 43.646 C 66.725 52.101, 60.379 61.172, 50.469 90.959 L 46.686 102.332 54.343 109.509 C 60.249 115.045, 62.033 117.350, 62.145 119.593 C 62.617 129.022, 60.492 134.516, 54.161 140.236 C 49.014 144.886, 47.171 145.826, 40.777 147.061 C 32.588 148.644, 26.317 147.404, 22.176 143.383 C 20.261 141.522, 18.312 140, 17.847 140 C 17.381 140, 17.005 143.262, 17.011 147.250 C 17.030 159.792, 21.303 170.129, 29.820 178.234 C 38.845 186.823, 49.737 192.167, 65.385 195.683 C 76.182 198.109, 111.618 198.108, 123 195.681 C 141.529 191.731, 154.096 185.998, 164.466 176.766 C 171.585 170.429, 176.164 163.251, 179.628 153 C 182.202 145.381, 182.488 143.257, 182.381 132.500 C 182.297 124.073, 181.593 117.523, 180.017 110.500 C 178.783 105, 177.430 98.700, 177.010 96.500 C 174.893 85.408, 168.071 68.615, 163.452 63.125 C 162.010 61.412, 161.007 59.480, 161.223 58.832 C 161.438 58.185, 165.396 55.556, 170.018 52.990 C 179.909 47.499, 184.024 42.971, 184.717 36.814 C 185.338 31.308, 183.549 24.590, 180.774 22.004 C 177.771 19.206, 171.976 19.330, 169.240 22.250 M 169.597 25.250 C 168.799 26.488, 167.403 30.405, 166.493 33.956 C 164.674 41.054, 162.915 44.906, 159.352 49.594 C 156.530 53.307, 156.309 56, 158.826 56 C 161.618 56, 168.609 47.127, 170.251 41.500 C 175.397 23.864, 175.500 23, 172.464 23 C 171.684 23, 170.394 24.012, 169.597 25.250 M 59.725 77.752 C 56.973 80.793, 55.835 85.212, 55.276 95.041 C 54.500 108.650, 57.030 113.012, 65.684 112.990 C 69.882 112.979, 78.696 109.291, 80.905 106.620 C 81.678 105.686, 82.353 102.933, 82.405 100.504 C 82.488 96.624, 81.996 95.563, 78.365 91.793 C 76.091 89.432, 73.004 85.475, 71.506 83 C 70.008 80.525, 68.071 77.938, 67.200 77.250 C 64.954 75.476, 61.579 75.702, 59.725 77.752 M 20.095 84.250 C 16.984 92.693, 16.236 106.012, 18.310 116.040 C 20.442 126.349, 23.810 134.964, 26.929 138.083 C 34.731 145.885, 50.473 140.126, 54.502 127.994 C 56.577 121.747, 55.804 120.190, 46.609 112.086 C 38.248 104.718, 32.638 97.179, 27.427 86.311 C 25.267 81.806, 23.252 78.094, 22.949 78.061 C 22.647 78.027, 21.362 80.813, 20.095 84.250 M 62.642 87.750 C 61.443 95.003, 61.902 104.674, 63.508 106.007 C 65.242 107.446, 71.374 106.764, 73.644 104.881 C 77.558 101.632, 77.257 100.324, 71.015 93.436 C 67.707 89.785, 65 86.169, 65 85.399 C 65 82.425, 63.230 84.189, 62.642 87.750 M 123.400 105.400 C 120.626 108.174, 120 109.564, 120 112.950 C 120 118.391, 122.177 122.416, 125.969 123.987 C 136.077 128.174, 145.549 117.764, 140.506 108.011 C 138.413 103.963, 135.203 102, 130.677 102 C 127.601 102, 126.098 102.702, 123.400 105.400 M 130.649 108.471 C 130.072 109.977, 132.377 113, 134.103 113 C 135.720 113, 136.297 110.062, 134.989 108.487 C 133.413 106.588, 131.375 106.580, 130.649 108.471 M 190.977 140.943 C 188.111 156.921, 184.067 166.318, 175.878 176.029 C 163.620 190.567, 143.707 199.996, 116.808 204.001 C 109.827 205.041, 101.370 205.990, 98.015 206.111 C 91.058 206.362, 91.098 206.156, 96.299 214.857 C 100.345 221.627, 107.915 228.610, 115.718 232.769 C 119.052 234.546, 122.054 236, 122.390 236 C 122.725 236, 123 234.861, 123 233.469 C 123 230.304, 125.613 229.184, 127.828 231.399 C 129.242 232.813, 129.500 235.381, 129.500 248.031 L 129.500 262.991 131.936 262.996 C 133.275 262.998, 135.380 263.948, 136.614 265.107 C 138.655 267.024, 139.049 267.079, 140.993 265.717 C 145.045 262.879, 152 266.959, 152 272.174 C 152 274.348, 152.469 275, 154.032 275 C 157.465 275, 162.774 272.291, 164.063 269.882 C 164.789 268.526, 165.465 261.872, 165.724 253.547 C 166.221 237.581, 167.197 233, 170.102 233 C 172.323 233, 174 236.531, 174 241.205 L 174 244.280 187.750 243.725 C 196.166 243.386, 203.562 242.533, 206.816 241.527 C 209.740 240.623, 213.565 240.022, 215.316 240.192 L 218.500 240.500 218.186 249.882 C 217.901 258.368, 218.033 259.201, 219.569 258.612 C 220.541 258.239, 222.770 258.847, 224.781 260.033 C 227.241 261.485, 228.610 261.790, 229.347 261.053 C 232.492 257.908, 240.617 261.833, 241.186 266.772 C 241.445 269.019, 241.940 269.453, 244 269.234 C 247.673 268.843, 251.410 265.699, 252.132 262.394 C 252.479 260.802, 252.817 252.691, 252.882 244.369 C 252.956 234.912, 253.750 224.274, 255 216 C 257.348 200.457, 257.447 195.142, 255.579 185 C 252.139 166.332, 242.774 152.636, 228 144.666 C 220.513 140.627, 206.077 136.029, 197.827 135.055 L 192.154 134.385 190.977 140.943 M 105.593 171.170 C 104.717 172.421, 104 173.941, 104 174.548 C 104 175.155, 102.837 176.742, 101.417 178.076 C 99.118 180.233, 97.933 180.500, 90.667 180.500 C 83.167 180.500, 82.500 180.663, 82.500 182.500 C 82.500 184.884, 88.095 187.996, 92.384 187.998 C 97.819 188.001, 103.020 185.720, 106.591 181.768 C 109.600 178.437, 110.065 177.279, 109.804 173.765 C 109.448 168.960, 107.837 167.967, 105.593 171.170 M 263 176.473 C 263 177.993, 266.154 183.801, 268.444 186.500 C 271.846 190.509, 271.657 188.677, 268.011 182.322 C 265.328 177.644, 263 174.926, 263 176.473 M 97.006 234.250 C 97.009 237.137, 97.293 243.100, 97.636 247.500 L 98.260 255.500 101.260 255.720 C 105.760 256.050, 108.779 258.530, 110.117 262.996 C 111.273 266.856, 111.471 267, 115.586 267 L 119.856 267 120.403 261.750 C 120.704 258.863, 121.088 253.575, 121.256 250 L 121.561 243.500 114.060 240 C 109.934 238.075, 104.606 234.813, 102.219 232.750 C 99.832 230.688, 97.681 229, 97.439 229 C 97.198 229, 97.003 231.363, 97.006 234.250 M 208.973 249.348 C 208.683 249.645, 205.764 250.177, 202.486 250.531 C 199.208 250.885, 196.183 251.387, 195.763 251.646 C 195.343 251.906, 195 253.656, 195 255.536 C 195 259.724, 198.006 262.021, 204.435 262.746 L 208.841 263.242 209.505 258.812 C 210.201 254.174, 209.877 248.422, 208.973 249.348 M 99.667 261.667 C 98.196 263.137, 99.157 264.859, 102 265.850 C 105.160 266.952, 105.757 266.136, 104.393 262.582 C 103.781 260.988, 100.903 260.431, 99.667 261.667 M 219.952 265.038 C 218.855 265.722, 218.762 266.364, 219.571 267.662 C 221.298 270.432, 223 270.422, 223 267.642 C 223 264.668, 221.965 263.783, 219.952 265.038 M 231.011 266.487 C 229.246 268.614, 230.514 271, 233.410 271 C 236.730 271, 237.581 269.299, 235.443 266.937 C 233.337 264.610, 232.628 264.538, 231.011 266.487 M 130.177 270.643 C 130.550 272.539, 133.598 274.736, 134.543 273.790 C 134.895 273.438, 134.886 272.217, 134.524 271.075 C 133.724 268.555, 129.687 268.153, 130.177 270.643 M 141.572 272.201 C 139.755 274.795, 140.887 275.960, 145.250 275.985 C 148.367 276.002, 148.892 274.035, 146.429 271.571 C 144.326 269.468, 143.402 269.588, 141.572 272.201" stroke="none" fill="black" fill-rule="evenodd"/>
</svg>