<svg xmlns="http://www.w3.org/2000/svg" width="344" height="297" viewBox="0 0 344 297" version="1.1">
	<path d="M 159.501 8.576 C 157.851 9.436, 156.141 10.784, 155.701 11.570 C 155.150 12.554, 153.088 13, 149.085 13 C 141.825 13, 138.281 15.390, 137.403 20.878 C 136.830 24.466, 136.514 24.723, 129.282 27.485 C 125.143 29.065, 119.051 32.106, 115.744 34.244 L 109.731 38.130 106.663 34.315 C 91.836 15.881, 70.759 8.378, 49.153 13.842 C 23.567 20.312, 7 42.594, 7 70.537 C 7 85.786, 10.271 95.883, 19.948 110.500 C 25.634 119.089, 27.409 122.911, 29.002 130 C 34.688 155.300, 41.857 165.469, 57.314 170.164 C 66.733 173.025, 73.575 172.331, 83.949 167.463 L 91.889 163.737 99.121 170.337 C 106.174 176.775, 115.688 182.538, 123.250 184.956 C 125.313 185.616, 126.998 186.458, 126.996 186.828 C 126.994 187.197, 126.108 188.950, 125.027 190.723 C 122 195.689, 118.848 195.928, 113.311 191.615 C 109.331 188.513, 107.928 188, 103.439 188 C 98.702 188, 97.914 188.334, 95.104 191.535 C 91.906 195.177, 91.112 199.960, 92.951 204.500 C 93.489 205.829, 93.258 207.074, 92.262 208.209 C 91.438 209.150, 90.540 211.898, 90.268 214.316 C 89.839 218.125, 90.155 219.136, 92.636 221.868 C 94.845 224.301, 96.758 225.230, 101 225.932 C 113.828 228.055, 125.886 229.226, 131.323 228.875 L 137.145 228.500 136.823 249 C 136.446 272.959, 136.699 273.857, 145.171 278.545 C 149.932 281.180, 151.542 281.517, 160.283 281.709 C 167.945 281.877, 170.435 282.292, 171.762 283.619 C 176.030 287.888, 182.028 289.469, 194 289.485 C 203.884 289.498, 206.062 289.197, 209.500 287.348 C 218.828 282.328, 221.006 278.321, 221.751 264.804 L 222.296 254.906 227.398 255.203 L 232.500 255.500 232.208 259.238 C 231.279 271.148, 238.957 278.490, 253 279.116 C 255.617 279.232, 258.337 280.051, 259.500 281.072 C 266.122 286.886, 286.545 287.595, 296.769 282.366 C 306.136 277.576, 306.396 276.722, 307.090 248.500 C 307.414 235.300, 308.284 219.663, 309.022 213.750 C 310.065 205.398, 310.122 200.714, 309.276 192.750 C 308.677 187.113, 307.869 181.600, 307.480 180.500 C 306.468 177.639, 311.522 183.534, 313.915 188.006 C 316.364 192.581, 316.683 195.005, 315.191 197.710 C 312.710 202.210, 312.597 208.536, 314.914 213.322 C 317.342 218.337, 324.581 224.529, 329.204 225.545 C 340.512 228.028, 340.445 200.418, 329.128 194.566 C 327.344 193.644, 325.612 191.487, 324.577 188.900 C 320.950 179.835, 312.716 170.532, 304.851 166.613 C 299.134 163.764, 292.572 156.478, 293.579 154.097 C 296.712 146.699, 298.245 141.701, 300.039 133.043 C 302.368 121.807, 302.308 121.941, 310.446 109.606 C 313.925 104.332, 317.539 97.208, 319.322 92.106 C 322.012 84.407, 322.331 82.236, 322.350 71.500 C 322.373 58.098, 321.776 55.613, 314.908 40.500 C 313.569 37.555, 309.731 32.582, 305.568 28.400 C 288.220 10.973, 262.942 6.975, 241.581 18.281 C 238.062 20.144, 231.988 24.937, 227.165 29.659 L 218.830 37.817 214.503 34.898 C 208.079 30.562, 198.361 26.257, 190.772 24.384 C 185.660 23.122, 183.645 22.099, 182.361 20.112 C 179.389 15.516, 171.707 9.013, 168.047 7.996 C 163.413 6.709, 163.032 6.735, 159.501 8.576 M 163 17.550 C 163 17.852, 163.672 19.398, 164.493 20.986 C 166.108 24.109, 165.696 26.519, 163.398 27.401 C 162.601 27.707, 159.091 26.547, 155.598 24.824 C 151.644 22.875, 148.573 21.950, 147.464 22.375 C 145.850 22.995, 145.933 23.320, 148.341 25.834 C 152.788 30.475, 151.306 32.921, 144 33 C 138.640 33.058, 124.912 38.818, 117.844 43.976 C 113.931 46.831, 110.125 49.399, 109.386 49.682 C 107.897 50.254, 104.067 46.525, 99.500 40.056 C 95.624 34.566, 85.007 26.576, 78 23.877 C 61.178 17.395, 42.819 21.739, 29.619 35.323 C 24.525 40.565, 22.870 43.202, 19.741 51.060 C 16.309 59.678, 15.983 61.335, 15.991 70.085 C 15.998 77.094, 16.562 81.383, 18.092 86.043 C 20.611 93.715, 25.988 104.606, 29.228 108.596 C 33.833 114.268, 34.997 117.020, 38.467 130.444 C 40.398 137.913, 43.089 146.215, 44.446 148.894 C 50.956 161.739, 66.158 166.585, 79.500 160.067 C 88.627 155.609, 88.462 155.802, 86.467 151.883 C 85.520 150.022, 84.664 148.398, 84.563 148.274 C 84.463 148.149, 82.040 148.937, 79.180 150.024 C 70.577 153.292, 63.381 152.146, 57.146 146.513 C 52.065 141.923, 49.173 135.665, 47.578 125.809 C 45.960 115.815, 44.901 113.170, 37.848 101.500 C 30.624 89.547, 29.064 86.038, 27.961 79.260 C 26.642 71.154, 28.332 61.894, 32.480 54.500 C 36.582 47.188, 40.764 43.107, 48 39.353 C 52.860 36.832, 54.547 36.501, 62.500 36.507 C 70.046 36.513, 72.223 36.898, 75.973 38.891 C 85.856 44.143, 98 57.615, 98 63.327 C 98 64.696, 96.895 67.994, 95.545 70.658 C 84.463 92.514, 83.014 119.353, 91.557 144.517 C 95.387 155.796, 110.023 170.356, 122.173 174.974 C 125.103 176.088, 127.612 176.999, 127.750 176.999 C 128.687 177.001, 127.711 166.510, 126.424 162.730 C 124.284 156.451, 124.786 153.500, 127.992 153.500 C 130.142 153.500, 130.820 154.393, 132.929 160 C 134.985 165.468, 135.383 168.338, 135.437 178.076 C 135.498 189.274, 135.401 189.812, 132.465 194.564 C 129.096 200.015, 123.219 203.970, 118.500 203.962 C 114.712 203.955, 107.159 200.578, 106.378 198.542 C 105.638 196.615, 102.123 196.517, 101.399 198.403 C 101.103 199.175, 101.793 201.633, 102.932 203.866 L 105.003 207.927 102.004 211.343 C 98.123 215.763, 98.807 216.257, 111.705 218.347 C 128.978 221.145, 138.820 220.278, 149.592 215.010 C 164.826 207.559, 173.717 194.553, 180.021 170.500 C 183.178 158.453, 183.946 156.850, 186.392 157.199 C 189.188 157.598, 189.592 161.452, 187.568 168.416 C 186.705 171.381, 186 175.251, 186 177.015 C 186 180.175, 186.056 180.213, 189.750 179.548 C 213.693 175.244, 230.284 162.687, 237.620 143.319 C 245.975 121.263, 244.094 88.357, 233.411 69.674 C 232.098 67.378, 231.019 64.661, 231.012 63.634 C 230.995 60.942, 239.485 48.573, 243.813 44.985 C 256.463 34.498, 272.372 33.203, 285.632 41.581 C 291.316 45.173, 294.364 48.787, 298.638 57 C 301.260 62.038, 301.499 63.381, 301.488 73 C 301.476 83.079, 301.323 83.818, 297.684 91.439 C 295.599 95.805, 292.391 101.430, 290.556 103.939 C 286.235 109.844, 284.413 114.343, 282.513 123.800 C 281.661 128.035, 280.577 132.400, 280.102 133.500 C 279.628 134.600, 278.429 137.441, 277.440 139.813 C 275.300 144.939, 271.710 148.181, 265.585 150.521 C 261.438 152.104, 260.564 152.118, 254.295 150.693 C 250.558 149.844, 246.802 148.877, 245.950 148.544 C 244.865 148.121, 243.901 148.985, 242.741 151.416 C 241.086 154.887, 241.088 154.896, 244.089 157.422 C 250.889 163.143, 264.875 164.668, 273.541 160.633 C 282.555 156.436, 287 149.226, 290.134 133.724 C 292.689 121.086, 295.023 115.341, 300.990 107 C 308.746 96.159, 313.965 81.478, 313.965 70.500 C 313.966 65.286, 310.922 53.677, 307.774 46.882 C 302.852 36.260, 291.468 26.492, 279.765 22.850 C 272.483 20.583, 261.685 20.454, 254.486 22.547 C 244.327 25.501, 229.662 36.848, 225.692 44.828 C 224.253 47.719, 222.603 49.613, 221.363 49.796 C 220.172 49.972, 216.953 48.202, 213.430 45.433 C 204.766 38.626, 196.663 35.192, 180.762 31.588 C 178.911 31.169, 177.392 29.728, 176.071 27.139 C 173.711 22.514, 167.672 17, 164.965 17 C 163.884 17, 163 17.247, 163 17.550 M 51 43.449 C 44.696 46.165, 38.964 52.034, 35.386 59.437 C 33.405 63.536, 33.002 65.912, 33.015 73.437 C 33.031 83.466, 33.469 84.626, 44.834 104.733 C 48.791 111.732, 50.444 115.965, 51.671 122.233 C 53.916 133.703, 55.793 138.561, 59.311 142 C 64.697 147.266, 72.755 148.247, 79.970 144.516 L 82.730 143.088 81.301 137.794 C 79.542 131.273, 79.291 99.883, 80.939 92.500 C 82.964 83.434, 86.232 73.588, 89.158 67.739 C 91.933 62.193, 91.980 61.862, 90.430 58.864 C 87.859 53.893, 80.002 46.922, 73.500 43.843 C 65.840 40.215, 58.794 40.092, 51 43.449 M 255.410 43.973 C 249.228 47.083, 245.958 49.896, 240.981 56.388 C 237.364 61.105, 237.337 61.758, 240.502 68.003 C 243.269 73.465, 244.980 78.264, 247.632 88 C 250.285 97.743, 250.259 127.271, 247.590 135.112 C 246.539 138.198, 245.956 141.442, 246.293 142.320 C 247.196 144.674, 257.217 147.308, 262.118 146.480 C 270.344 145.090, 273.617 140, 277.538 122.500 C 279.682 112.929, 281.167 109.355, 286.317 101.365 C 295.422 87.238, 296.422 84.541, 296.463 74 C 296.496 65.563, 296.185 63.858, 293.681 58.758 C 290.127 51.518, 286.303 47.687, 278.902 43.951 C 270.803 39.862, 263.568 39.869, 255.410 43.973 M 107.564 120.250 C 105.632 121.957, 104.867 123.837, 104.396 128.039 C 103.836 133.029, 104.033 133.886, 106.384 136.680 C 109.570 140.466, 112.828 141.393, 118.031 139.992 C 124.169 138.339, 126.590 131.859, 123.925 124.215 C 121.750 117.976, 112.639 115.768, 107.564 120.250 M 197.367 119.772 C 194.255 122.293, 192.997 125.308, 193.022 130.184 C 193.077 140.818, 205.243 144.896, 212.175 136.603 C 214.162 134.226, 214.638 126.060, 212.970 122.945 C 210.522 118.369, 201.391 116.513, 197.367 119.772 M 114.332 124.578 C 113.999 125.445, 114.463 126.892, 115.363 127.792 C 116.836 129.264, 117.154 129.274, 118.537 127.892 C 119.406 127.022, 119.794 125.627, 119.430 124.678 C 118.616 122.556, 115.134 122.488, 114.332 124.578 M 203.667 123.667 C 202.443 124.890, 202.981 128.055, 204.513 128.643 C 206.936 129.573, 209.152 127.152, 207.944 124.895 C 206.927 122.996, 204.915 122.418, 203.667 123.667 M 147.733 150.166 C 143.147 151.152, 139 153.739, 139 155.615 C 139 157.409, 140.180 157.361, 146.707 155.303 C 152.272 153.549, 152.101 153.536, 165.750 156.710 C 169.447 157.570, 168.438 154.609, 164.250 152.307 C 159.872 149.900, 153.068 149.018, 147.733 150.166 M 229.287 169.063 C 220.806 177.150, 211.464 181.983, 197.425 185.544 C 192.100 186.895, 186.890 188, 185.847 188 C 184.653 188, 182.942 189.709, 181.225 192.615 C 172.641 207.152, 165.464 215.624, 158.818 219.065 C 154.005 221.557, 153.416 222.694, 155.652 225.185 C 157.394 227.125, 168.373 235, 169.337 235 C 169.582 235, 170.073 233.846, 170.427 232.435 C 170.907 230.522, 171.618 229.950, 173.224 230.185 C 176.908 230.724, 178.203 238.123, 177.520 254.732 L 176.935 268.963 179.863 268.377 C 182.001 267.950, 183.328 268.328, 184.778 269.778 C 186.091 271.091, 187.227 271.470, 188.132 270.897 C 192.457 268.157, 198.271 271.151, 200.335 277.181 L 201.594 280.861 205.623 279.057 C 208.259 277.877, 210.030 276.258, 210.744 274.377 C 211.345 272.795, 212.096 264.612, 212.414 256.192 C 213.013 240.303, 213.790 237, 216.928 237 C 219.069 237, 220 238.882, 220 243.210 L 220 246.256 233.750 245.705 C 241.313 245.402, 249.412 244.614, 251.750 243.955 C 255.634 242.860, 256 242.477, 256 239.501 C 256 237.710, 256.675 235.685, 257.500 235 C 261.338 231.815, 264 240.230, 264 255.549 L 264 265 267 265 C 268.650 265, 270.870 265.870, 271.933 266.933 C 273.590 268.590, 274.036 268.661, 275.056 267.433 C 276.605 265.566, 280.986 265.601, 283.701 267.503 C 284.881 268.330, 286.366 270.580, 287.001 272.503 C 287.636 274.426, 288.360 276, 288.610 276 C 290.535 276, 296.045 272.784, 296.920 271.150 C 297.587 269.903, 298.017 261.370, 298.044 248.816 C 298.068 237.642, 298.539 225.125, 299.090 221 C 302.493 195.542, 300.833 183.468, 292.080 170 C 290.114 166.975, 288.240 164.142, 287.915 163.704 C 287.590 163.266, 283.989 164.699, 279.912 166.889 C 267.216 173.709, 255.196 173.313, 242.112 165.645 L 236.389 162.291 229.287 169.063 M 141.792 167.057 C 138.356 169.060, 140.876 170.775, 147.314 170.814 C 150.884 170.836, 154.763 171.509, 156.486 172.405 C 159.162 173.797, 159.628 173.799, 160.986 172.431 C 162.339 171.067, 162.238 170.706, 160.032 169.034 C 156.059 166.021, 145.526 164.880, 141.792 167.057 M 140.122 181.867 C 138.353 183.034, 139.548 185, 142.025 185 C 143.074 185, 145.482 185.739, 147.375 186.642 C 153.061 189.353, 156.726 186.461, 151.215 183.611 C 147.417 181.647, 141.795 180.763, 140.122 181.867 M 323.299 204.664 C 322.606 206.469, 325.794 213.139, 327.629 213.725 C 328.439 213.984, 328.515 212.786, 327.897 209.476 C 327.423 206.941, 326.776 204.446, 326.459 203.933 C 325.557 202.475, 324.001 202.835, 323.299 204.664 M 146 241.918 C 146 250.123, 145.727 257.548, 145.393 258.418 C 145.006 259.426, 145.329 260, 146.282 260 C 147.105 260, 148.822 260.845, 150.096 261.877 C 151.760 263.224, 153.440 263.617, 156.048 263.267 C 159.124 262.854, 160.013 263.201, 161.841 265.525 C 163.028 267.034, 164 269.334, 164 270.635 C 164 272.276, 164.571 273, 165.864 273 C 168.024 273, 168.680 269.600, 169.630 253.500 L 170.220 243.500 164.860 240.736 C 161.912 239.216, 157.925 236.593, 156 234.907 C 154.075 233.222, 151.266 230.753, 149.759 229.421 C 148.251 228.089, 146.788 227, 146.509 227 C 146.229 227, 146 233.713, 146 241.918 M 249 252.200 C 245.425 253.307, 242.169 254.727, 241.765 255.356 C 240.332 257.588, 241.034 259, 243.577 259 C 247.248 259, 252 264.035, 252 267.923 C 252 270.333, 252.433 271, 254 271 C 255.873 271, 256 270.333, 256 260.500 C 256 254.725, 255.887 250.042, 255.750 250.094 C 255.613 250.145, 252.575 251.093, 249 252.200 M 243 265.294 C 243 266.098, 243.718 267.351, 244.596 268.080 C 245.990 269.236, 246.148 269.103, 245.846 267.030 C 245.468 264.436, 243 262.931, 243 265.294 M 145.032 266.750 C 145.049 267.163, 145.724 268.374, 146.532 269.441 C 147.940 271.303, 148 271.272, 148 268.691 C 148 266.966, 147.462 266, 146.500 266 C 145.675 266, 145.014 266.337, 145.032 266.750 M 154.021 268.960 C 152.700 271.429, 153.229 272.565, 156.042 273.301 C 157.851 273.774, 158.076 273.449, 157.807 270.748 C 157.435 267.005, 155.546 266.112, 154.021 268.960 M 264.461 271.063 C 263.667 272.347, 266.770 276, 268.655 276 C 270.265 276, 270.374 274.567, 268.965 271.934 C 267.836 269.826, 265.504 269.375, 264.461 271.063 M 277.040 271.452 C 275.099 273.790, 276.205 276.464, 279.259 276.816 C 282.257 277.163, 282.852 275.461, 280.965 271.934 C 279.729 269.625, 278.665 269.494, 277.040 271.452 M 178.347 274.537 C 177.765 276.055, 180.515 280, 182.155 280 C 183.137 280, 183.274 276.878, 182.393 274.582 C 181.617 272.561, 179.116 272.533, 178.347 274.537 M 190.035 275.934 C 188.174 279.411, 188.772 281, 191.941 281 C 195.730 281, 196.578 279.531, 194.563 276.456 C 192.624 273.496, 191.415 273.357, 190.035 275.934" stroke="none" fill="black" fill-rule="evenodd"/>
</svg>