<svg xmlns="http://www.w3.org/2000/svg" width="287" height="310" viewBox="0 0 287 310" version="1.1">
	<path d="M 121 7.658 C 118.669 8.577, 114 13.231, 114 14.635 C 114 15.607, 113.300 15.652, 110.948 14.832 C 108.544 13.994, 106.943 14.132, 103.406 15.483 C 97.739 17.647, 95.574 20.784, 96.252 25.845 C 96.754 29.585, 96.693 29.668, 92.631 30.779 C 82.206 33.631, 66.897 45.701, 59.500 56.899 C 56.758 61.051, 55.028 62.779, 54 62.396 C 50.370 61.045, 40.158 59.913, 36.493 60.456 C 27.042 61.857, 16.325 69.522, 12.020 77.960 C 8.662 84.543, 6.756 93.543, 7.493 99.341 C 9.709 116.797, 20.197 129.017, 35.500 131.977 C 44.114 133.643, 45 133.975, 45 135.532 C 45 138.952, 48.537 146.947, 52.234 151.882 C 58.065 159.669, 61.408 162.400, 71.500 167.623 C 76.450 170.184, 80.681 172.436, 80.903 172.626 C 81.124 172.816, 80.049 173.960, 78.514 175.168 C 73.630 179.009, 63.853 193.160, 58.937 203.500 C 50.694 220.840, 46.886 242.177, 50.395 251.365 C 52.594 257.122, 55.620 260.538, 60.218 262.452 C 67.442 265.460, 73.588 263.877, 78.401 257.770 L 80.978 254.500 80.989 258.095 C 80.995 260.072, 81.890 264.347, 82.978 267.595 L 84.956 273.500 82.728 274.973 C 81.503 275.783, 78.813 278.092, 76.750 280.105 C 73.691 283.090, 73.001 284.478, 73.004 287.632 C 73.009 293.014, 75.934 297.279, 81.375 299.836 C 86.772 302.373, 96.139 302.707, 100 300.500 C 101.375 299.714, 104.652 299.055, 107.282 299.035 C 113.623 298.988, 118.160 296.968, 121.368 292.762 C 124.774 288.297, 124.813 282.961, 121.500 274.808 C 118.828 268.231, 118.239 261.161, 120.200 259.200 C 121.945 257.455, 136.104 257.624, 138.559 259.420 C 141.203 261.354, 140.983 268.128, 138.085 274 C 134.866 280.525, 134.263 287.934, 136.622 291.975 C 139.049 296.130, 144.715 299, 150.492 299 C 153.006 299, 157.792 299.919, 161.128 301.043 C 166.927 302.997, 167.439 303.015, 172.846 301.454 C 180.331 299.293, 184.649 295.904, 186.104 291.047 C 187.972 284.814, 184.905 280.025, 175.485 274.463 C 173.818 273.479, 173.817 273.255, 175.448 270.101 C 176.394 268.271, 177.418 264.351, 177.724 261.387 C 178.030 258.424, 178.397 256, 178.540 256 C 178.683 256, 180.340 257.540, 182.221 259.421 C 185.975 263.175, 190.903 264.616, 196.438 263.578 C 198.853 263.125, 201.232 261.424, 204.438 257.858 C 206.947 255.067, 209 252.184, 209 251.451 C 209 249.466, 209.860 249.176, 220.622 247.528 C 235.706 245.219, 241.625 243.053, 253.347 235.555 C 263.583 229.007, 275.203 213.672, 278.412 202.475 C 280.058 196.731, 280.806 184.897, 279.951 178.112 C 276.595 151.472, 251.804 133.524, 228.089 140.566 C 216.137 144.116, 206.510 153.536, 203.957 164.180 C 202.147 171.722, 203.355 183.223, 206.523 188.630 C 212.047 198.055, 222.823 203.002, 234.620 201.528 C 242.478 200.547, 246.859 196.479, 247.577 189.500 C 248.450 181.010, 244.404 176.761, 234.023 175.267 C 231.076 174.843, 228.490 173.970, 228.276 173.328 C 228.062 172.685, 229.225 170.661, 230.861 168.829 C 233.455 165.927, 234.455 165.500, 238.668 165.500 C 244.117 165.500, 247.371 167.436, 251.145 172.924 C 253.084 175.743, 253.561 177.900, 253.848 185.121 C 254.152 192.819, 253.885 194.571, 251.667 199.415 C 245.166 213.617, 229.579 223, 212.489 223 L 208.251 223 205.028 213.771 C 200.060 199.545, 192.155 186.336, 183.622 178 C 181.088 175.525, 179.012 173.157, 179.008 172.737 C 179.003 172.318, 182.094 170.469, 185.875 168.628 C 201.973 160.794, 211.601 149.757, 214.434 135.892 C 214.911 133.558, 215.541 133.224, 220.408 132.722 C 238.140 130.892, 251.327 115.300, 251.269 96.233 C 251.224 81.189, 243.818 69.017, 231.185 63.222 C 224.515 60.163, 214.998 59.712, 208.413 62.144 L 204.326 63.654 200.706 58.077 C 191.109 43.288, 175.181 32.812, 152.792 26.562 C 147.842 25.180, 146.466 24.207, 142.426 19.234 C 135.267 10.422, 126.289 5.571, 121 7.658 M 123 17.966 C 123 18.570, 123.685 20.704, 124.523 22.709 C 125.740 25.622, 125.790 26.516, 124.773 27.162 C 122.878 28.364, 121.512 28.198, 115.260 26 C 105.400 22.535, 103.865 23.516, 109 30 C 113.970 36.275, 112.965 37.821, 103.913 37.817 C 95.468 37.813, 80.367 45.890, 72.726 54.500 C 60.079 68.749, 55.224 83.384, 56.376 103.787 C 56.901 113.087, 56.730 115.621, 55.407 118.180 C 53.084 122.672, 53.874 134.857, 56.937 141.780 C 59.702 148.032, 60.535 148.010, 58.953 141.726 C 57.420 135.640, 59.148 127.477, 63.132 121.976 C 66.065 117.927, 66.118 117.659, 64.943 112.763 C 63.405 106.353, 64.250 94.064, 66.670 87.644 C 69.562 79.972, 76.535 72.096, 83.456 68.687 C 96.273 62.373, 113.092 64.337, 124.285 73.454 L 129.541 77.736 133.520 74.266 C 143.487 65.574, 159.122 62.587, 171.242 67.059 C 185.377 72.274, 193.770 83.768, 194.735 99.228 C 195.024 103.865, 194.752 109.927, 194.124 112.855 C 193.042 117.903, 193.116 118.310, 195.852 122.315 C 199.963 128.334, 201.344 133.355, 200.685 139.894 C 200.171 144.992, 200.253 145.320, 201.590 143.517 C 203.530 140.903, 206 132.458, 206 128.444 C 206 126.688, 205.252 123.282, 204.337 120.876 C 202.982 117.310, 202.723 113.414, 202.936 99.825 L 203.198 83.149 198.584 73.410 C 188.957 53.086, 177.360 43.383, 154.492 36.515 C 140.565 32.333, 140.281 32.167, 134.164 24.613 C 129.992 19.460, 127.660 17.413, 125.702 17.184 C 124.214 17.009, 123 17.361, 123 17.966 M 32.462 71.366 C 13.589 80.154, 11.429 107.255, 28.656 119.107 C 33.973 122.766, 43.738 125.025, 45.079 122.907 C 46.800 120.187, 46.126 118, 43.565 118 C 37.429 118, 30.175 112.559, 26.900 105.500 C 23.623 98.437, 24.947 90.301, 30.289 84.683 C 34.784 79.954, 37.525 78.746, 44.151 78.570 C 50.631 78.398, 50.486 78.473, 51.352 74.856 C 51.919 72.486, 51.567 72.044, 47.972 70.606 C 42.471 68.404, 38.392 68.604, 32.462 71.366 M 150.947 71.013 C 143.165 72.993, 142.338 73.422, 137.281 78.111 C 130.216 84.663, 129.609 84.733, 123.941 79.636 C 116.935 73.338, 111.115 70.771, 102.605 70.226 C 94.713 69.721, 86.873 71.530, 82.040 74.972 C 77.651 78.097, 72.121 86.231, 70.365 92.144 C 68.822 97.340, 68.859 101.414, 70.572 114.677 C 71.124 118.953, 70.891 120.345, 69.235 122.677 C 61.357 133.764, 62.612 144.769, 72.926 155.063 C 83.698 165.813, 102.668 171.267, 129.500 171.328 C 147.133 171.369, 157.954 169.777, 170.280 165.331 C 179.252 162.094, 183.388 159.490, 188.674 153.745 C 196.713 145.010, 197.202 131.855, 189.801 123.426 C 186.926 120.151, 186.787 119.650, 187.798 116.204 C 189.993 108.728, 190.284 100.659, 188.597 94.073 C 186.157 84.549, 184.284 81.387, 178.239 76.592 C 172.956 72.401, 170.824 71.626, 159 69.602 C 158.175 69.461, 154.551 70.096, 150.947 71.013 M 212.649 70.669 C 208.408 71.937, 207.872 72.395, 208.385 74.310 C 208.708 75.514, 208.979 76.838, 208.986 77.250 C 208.994 77.662, 210.958 78, 213.351 78 C 222.704 78, 229.934 82.422, 232.396 89.650 C 234.416 95.578, 234.420 99.410, 232.413 105.300 C 230.382 111.263, 223.408 116.708, 216.611 117.640 C 213.137 118.116, 212 118.701, 212 120.013 C 212 123.026, 214.547 124.251, 219.215 123.482 C 228.235 121.996, 233.656 118.413, 238.854 110.500 C 241.250 106.854, 241.482 105.615, 241.482 96.500 C 241.482 87.377, 241.251 86.149, 238.849 82.500 C 234.925 76.541, 232.142 73.944, 227.595 71.998 C 221.459 69.373, 218.009 69.066, 212.649 70.669 M 37.900 84.991 C 32.761 87.707, 31 90.915, 31 97.560 C 31 101.664, 31.565 103.985, 33.084 106.118 C 35.560 109.595, 41.808 113, 45.710 112.999 L 48.500 112.998 48.500 97.999 L 48.500 83 45 83.044 C 43.075 83.068, 39.880 83.945, 37.900 84.991 M 211.462 83.541 C 210.757 83.870, 210.722 86.586, 211.352 91.998 C 211.944 97.076, 211.923 102.193, 211.294 106.096 L 210.308 112.222 215.473 111.794 C 223.351 111.140, 227.020 107.739, 228.530 99.691 C 229.353 95.303, 226.268 87.877, 222.632 85.494 C 220.058 83.808, 213.389 82.642, 211.462 83.541 M 88.299 105.503 C 85.055 107.776, 83.512 113.427, 84.885 118.010 C 86.290 122.701, 87.539 123.743, 92.756 124.577 C 96.478 125.172, 97.225 124.929, 99.905 122.249 C 104.979 117.175, 105.208 111.117, 100.505 106.414 C 97.672 103.581, 91.681 103.134, 88.299 105.503 M 158.687 106.805 C 156.432 109.159, 156 110.500, 156 115.150 C 156 121.577, 157.624 123.675, 163.654 125.035 C 166.924 125.772, 167.909 125.544, 170.727 123.395 C 173.762 121.080, 174 120.476, 174 115.095 C 174 110.321, 173.565 108.823, 171.548 106.646 C 168.066 102.889, 162.371 102.960, 158.687 106.805 M 93.503 109.991 C 92.687 112.562, 93.615 114, 96.090 114 C 98.558 114, 99.627 111.460, 97.989 109.487 C 96.264 107.409, 94.251 107.635, 93.503 109.991 M 165.250 108.684 C 163.511 109.356, 163.687 112.495, 165.550 114.042 C 166.824 115.099, 167.367 115.062, 168.596 113.832 C 169.925 112.504, 169.891 112.104, 168.296 110.268 C 167.308 109.131, 165.938 108.418, 165.250 108.684 M 133.715 123.546 L 129.930 126.120 126.597 124.060 C 122.836 121.735, 120.911 121.489, 119.278 123.122 C 117.553 124.847, 118.867 126.891, 123.083 129.043 C 127.799 131.448, 132.752 131.550, 136.027 129.308 C 140.186 126.462, 140.666 125.291, 138.750 122.677 C 137.592 121.097, 137.222 121.161, 133.715 123.546 M 106.342 142.551 C 105.998 143.448, 106.749 145.192, 108.123 146.687 C 116.852 156.180, 141.378 156.193, 151.750 146.709 C 152.988 145.577, 154 144.103, 154 143.433 C 154 141.182, 150.759 140.878, 148.581 142.924 C 145.280 146.025, 139.336 148.088, 131.907 148.711 C 123.653 149.403, 117.326 147.836, 112.322 143.859 C 108.216 140.595, 107.179 140.369, 106.342 142.551 M 227 151.079 C 220.683 153.935, 216.327 158.510, 213.998 164.736 C 209.659 176.332, 213.057 185.871, 223.426 191.202 C 229.917 194.539, 240.175 192.227, 238.480 187.809 C 238.094 186.803, 235.995 186.040, 232.481 185.627 C 225.399 184.794, 222.848 183.543, 220.739 179.867 C 218.339 175.687, 218.542 169.587, 221.239 164.788 C 227.740 153.222, 245.451 152.386, 255.663 163.162 C 261.944 169.791, 263.500 174.329, 263.500 186.021 C 263.500 195.964, 263.313 196.925, 260.087 203.521 C 255.949 211.981, 246.284 221.818, 238.002 225.999 C 231.760 229.150, 223.467 231.471, 214.930 232.456 C 209.444 233.089, 209.367 233.143, 209.794 236.049 C 210.187 238.727, 210.581 239, 214.048 239 C 232.906 239, 256.628 225.568, 264.766 210.281 C 269.879 200.677, 270.970 196.350, 270.985 185.605 C 270.999 176.337, 270.778 175.249, 267.506 168.445 C 263.708 160.549, 257.917 154.591, 250.597 151.047 C 244.776 148.229, 233.268 148.245, 227 151.079 M 158.259 176.014 C 149.559 177.284, 149.699 177.059, 153.035 184.418 C 154.659 187.999, 156.682 194.949, 157.530 199.862 C 160.425 216.641, 156.401 228.965, 145.565 236.500 C 139.815 240.499, 139.810 240.500, 130.081 240.500 C 120.997 240.500, 120.022 240.299, 115.459 237.479 C 106.078 231.682, 101 221.684, 101 209.013 C 101 202.091, 104.118 188.648, 107.063 182.877 C 108.128 180.788, 109 178.890, 109 178.659 C 109 177.846, 100.074 176, 96.147 176 C 87.214 176, 73.949 191.028, 65.254 211 C 62.027 218.411, 61.743 219.303, 61.038 224.239 C 60.286 229.507, 60.036 229.343, 70.221 230.258 L 73.943 230.592 75.094 225.047 C 76.753 217.057, 79.719 210.929, 88.075 198.227 C 92.871 190.935, 96.081 187, 97.230 187 C 99.464 187, 99.436 188.027, 96.987 195.839 C 94.442 203.958, 94.241 223.317, 96.638 229.500 C 99.427 236.693, 99.466 238.887, 96.858 241.817 C 90.680 248.758, 89.136 258.365, 92.890 266.500 C 95.789 272.782, 98.665 274.846, 105.008 275.197 L 110.500 275.500 110.500 266.331 C 110.500 258.589, 110.826 256.722, 112.596 254.331 C 115.892 249.880, 118.597 249.030, 129.500 249.018 C 137.665 249.009, 140.086 249.365, 142.696 250.956 C 148.292 254.368, 149.306 256.949, 148.805 266.503 L 148.360 274.977 151.776 275.618 C 153.655 275.970, 156.939 275.736, 159.074 275.096 C 169.287 272.036, 171.658 253.404, 163.264 242.170 C 160.814 238.891, 160.800 238.762, 162.332 233.670 C 166.718 219.094, 166.893 208.341, 162.952 195.580 C 161.685 191.477, 161.207 188.393, 161.755 187.845 C 163.536 186.064, 166.104 188.322, 169.052 194.263 C 170.696 197.577, 173.529 202.361, 175.347 204.894 C 179.764 211.046, 181.521 215.063, 184.802 226.500 C 185.638 229.413, 185.855 229.507, 192.331 229.731 C 198.635 229.950, 199 229.840, 198.992 227.731 C 198.973 222.114, 192.640 205.735, 187.110 197 C 181.271 187.777, 167.870 174.754, 164.600 175.125 C 163.995 175.193, 161.141 175.594, 158.259 176.014 M 113.786 180.224 C 111.314 184.031, 108.247 194.050, 106.941 202.586 C 105.861 209.649, 105.922 211.561, 107.426 217.698 C 109.548 226.356, 113.103 230.925, 120.557 234.571 C 125.169 236.828, 126.904 237.172, 131.151 236.668 C 145.392 234.982, 153.043 225.253, 152.964 208.929 C 152.921 199.851, 151.029 191.550, 147.309 184.114 L 144.500 178.500 129.882 178.224 C 115.628 177.955, 115.227 178.005, 113.786 180.224 M 83.559 227.865 C 82.818 232.047, 84.175 237, 86.062 237 C 87.617 237, 87.596 234.267, 85.999 229 L 84.332 223.500 83.559 227.865 M 172.093 228.544 C 171.046 232.701, 171.114 233.365, 172.708 234.548 C 174.200 235.655, 174.728 235.654, 175.861 234.542 C 176.976 233.448, 177 232.508, 175.991 229.353 C 174.139 223.563, 173.387 223.407, 172.093 228.544 M 58.863 237.817 C 55.875 245.551, 61.948 256.421, 68.156 254.450 C 69.964 253.877, 70.171 253.205, 69.733 249.320 C 69.155 244.195, 70.502 242.997, 74.693 244.906 C 78.237 246.521, 78.471 245.843, 76.025 241.048 C 73.634 236.362, 73.620 236.354, 65.700 235.650 C 60.129 235.155, 59.858 235.240, 58.863 237.817 M 189.882 235.730 C 185.533 236.077, 185.159 236.343, 183.454 240.299 C 182.458 242.610, 181.465 244.826, 181.247 245.224 C 181.029 245.622, 182.244 245.462, 183.946 244.869 C 188.113 243.416, 190 245.063, 190 250.154 C 190 254.721, 191.850 255.953, 195.653 253.918 C 199.133 252.056, 201 247.981, 201 242.250 C 201 236.950, 199.711 234.902, 196.550 235.180 C 195.422 235.279, 192.422 235.527, 189.882 235.730 M 162 281.052 C 161.175 281.615, 156.900 281.945, 152.500 281.787 C 144.810 281.511, 144.487 281.589, 144.173 283.805 C 143.643 287.546, 145.623 289.012, 150.346 288.374 C 153.588 287.936, 155.629 288.382, 159.645 290.406 C 165.503 293.359, 171.091 294.020, 169.011 291.513 C 166.151 288.067, 170.597 285.420, 174.028 288.525 C 175.506 289.863, 175.863 289.870, 176.930 288.584 C 177.937 287.371, 177.488 286.714, 174.324 284.774 C 170.280 282.295, 165.378 279.990, 164.203 280.015 C 163.816 280.024, 162.825 280.490, 162 281.052 M 88.311 283.058 C 83.531 285.444, 81.541 287.448, 82.467 288.946 C 82.861 289.584, 83.940 289.202, 85.283 287.951 C 87.735 285.666, 91.709 285.716, 91.128 288.024 C 90.924 288.836, 90.515 290.358, 90.221 291.406 C 89.743 293.107, 90.089 293.247, 93.424 292.706 C 95.481 292.372, 99.122 291.151, 101.516 289.992 C 104.635 288.483, 106.837 288.066, 109.281 288.525 C 113.604 289.336, 116.334 287.080, 115.095 283.721 C 114.325 281.637, 113.605 281.484, 103.387 281.234 C 94.009 281.005, 91.919 281.258, 88.311 283.058" stroke="none" fill="black" fill-rule="evenodd"/>
</svg>