<svg xmlns="http://www.w3.org/2000/svg" width="269" height="278" viewBox="0 0 269 278" version="1.1">
	<path d="M 91.442 9.467 C 89.269 11.640, 88.469 11.842, 84.737 11.160 C 75.113 9.399, 68.389 13.886, 69.247 21.497 L 69.712 25.627 63.106 29.033 C 58.884 31.210, 53.740 35.188, 48.851 40.058 C 42.614 46.270, 40.368 49.415, 36.685 57.089 C 34.201 62.265, 31.678 68.897, 31.078 71.827 C 29.561 79.242, 28.594 80.664, 23.214 83.397 C 12.457 88.861, 5.185 97.840, 6.375 104.186 C 7.439 109.858, 18.613 117.428, 30.265 120.371 C 34.956 121.555, 35.884 122.267, 39.193 127.219 C 42.867 132.716, 51 140.609, 56.250 143.774 C 58.908 145.376, 59 145.719, 59 154.016 C 59 165.961, 62.382 180.779, 67.489 191.208 C 76.211 209.022, 91.215 221.750, 113.296 230.066 L 122.091 233.378 121.796 238.439 L 121.500 243.500 114.399 244 C 110.494 244.275, 106.556 245.118, 105.649 245.872 C 101.680 249.176, 105.497 253.751, 111.260 252.598 L 114.276 251.995 111.583 254.113 C 109.648 255.635, 108.976 256.974, 109.195 258.866 C 109.692 263.154, 113.896 262.903, 120.998 258.160 C 126.004 254.818, 127.554 254.261, 130.726 254.668 C 135.696 255.306, 138.540 253.289, 137.653 249.756 C 137.241 248.110, 135.941 246.827, 134.006 246.152 C 131.207 245.176, 131 244.761, 131 240.117 L 131 235.130 140.250 235.691 C 145.338 236, 149.936 236.654, 150.468 237.144 C 151.001 237.635, 151.611 241.120, 151.824 244.889 L 152.211 251.741 147.356 252.415 C 139.438 253.514, 137 254.832, 137 258.014 C 137 261.268, 138.767 262.196, 143.261 261.301 L 146.500 260.656 143.536 263.210 C 140.854 265.522, 140.685 266.014, 141.765 268.382 C 142.420 269.822, 143.674 271, 144.549 271 C 145.425 271, 149.136 268.863, 152.797 266.250 C 158.295 262.326, 160.412 261.413, 164.976 261 C 169.680 260.574, 170.546 260.181, 170.807 258.347 C 171.157 255.891, 167.736 253, 164.481 253 C 162.649 253, 162.268 252.047, 161.215 244.822 C 160.560 240.324, 160.138 236.528, 160.279 236.387 C 160.420 236.246, 164.802 235.237, 170.018 234.143 C 187.819 230.411, 200.808 224.623, 214.799 214.192 C 236.989 197.646, 256.529 165.275, 261.544 136.749 C 262.737 129.965, 262.739 128.310, 261.556 125.479 C 260.279 122.423, 256.865 119.468, 255.819 120.514 C 255.575 120.758, 255.563 118.365, 255.792 115.197 C 256.363 107.309, 254.254 102.422, 249.406 100.396 C 245.255 98.662, 241.312 99.676, 237.879 103.360 C 236.205 105.157, 236 105.188, 236 103.643 C 236 100.830, 231.438 97, 228.086 97 C 225.742 97, 224.028 98.148, 220.291 102.221 C 210.021 113.415, 207.158 115.797, 201.344 117.988 C 196.808 119.697, 194.313 120.053, 190.194 119.579 C 180.086 118.417, 166.984 110.736, 163.449 103.901 C 162.553 102.169, 161.993 98.122, 161.983 93.300 C 161.963 84.407, 159.871 70.555, 157.584 64.171 C 152.201 49.145, 139.607 34.697, 125.420 27.271 C 120.289 24.585, 116.929 22.141, 116.216 20.574 C 114.610 17.051, 108.138 10.123, 104.875 8.435 C 100.396 6.119, 94.324 6.585, 91.442 9.467 M 99.563 19 C 101.113 27.267, 99.988 27.706, 89.414 22.961 C 81.035 19.202, 77.642 19.428, 84.257 23.305 C 87.301 25.089, 89 26.772, 89 28.004 C 89 29.939, 88.876 29.990, 76.500 33.159 C 60.505 37.255, 44.805 54.310, 40.328 72.455 C 38.694 79.075, 38.699 79.404, 40.446 80.430 C 47.165 84.376, 50.338 88.811, 52.616 97.444 C 54.309 103.858, 52.978 110.152, 48.831 115.340 C 45.269 119.796, 45.502 120.857, 51.591 127.888 C 56.579 133.647, 64.037 138.323, 74.717 142.389 C 79.492 144.207, 83.553 146.159, 83.743 146.728 C 84.173 148.019, 79.759 149.191, 76.750 148.585 C 75.513 148.336, 72.973 147.875, 71.107 147.562 L 67.714 146.993 68.401 156.978 C 70.406 186.081, 82.468 205.006, 106.594 216.900 C 121.977 224.484, 137.461 227.578, 155.500 226.672 C 197.160 224.580, 229.316 198.731, 247.769 152.500 C 250.925 144.593, 253.871 131, 252.429 131 C 252.220 131, 250.575 131.898, 248.774 132.996 C 244.690 135.487, 240 135.675, 240 133.350 C 240 132.442, 241.152 129.345, 242.560 126.466 C 245.322 120.821, 247.056 110, 245.199 110 C 244.604 110, 243.861 110.416, 243.547 110.925 C 242.194 113.113, 230.622 121, 228.764 121 C 226.866 121, 226.762 120.548, 227.257 114.389 L 227.788 107.777 223.283 112.927 C 206.344 132.290, 183.374 133.875, 163.185 117.074 C 154.380 109.747, 152.773 105.737, 151.948 89.038 C 151.079 71.447, 148.797 63.903, 140.825 52.265 C 137.308 47.130, 127.181 38.766, 121.013 35.901 C 118.531 34.749, 115.078 33.142, 113.341 32.332 C 111.554 31.498, 109.924 29.832, 109.588 28.496 C 109.262 27.198, 106.726 23.742, 103.951 20.817 L 98.907 15.500 99.563 19 M 73.353 76.884 C 64.343 82.500, 67.914 99, 78.140 99 C 83.129 99, 86.306 97.445, 88.335 94.010 C 94.236 84.021, 82.827 70.979, 73.353 76.884 M 78.910 82.608 C 77.776 83.975, 77.862 84.426, 79.479 85.608 C 81.921 87.394, 82.923 87.365, 83.643 85.487 C 84.218 83.990, 82.457 81, 81 81 C 80.585 81, 79.644 81.724, 78.910 82.608 M 29.043 90.208 C 24.510 92.451, 17 99.182, 17 101 C 17 101.550, 17.337 101.920, 17.750 101.823 C 18.479 101.651, 31.503 102.566, 41.377 103.483 L 46.255 103.936 45.713 99.896 C 45.415 97.675, 44.001 94.089, 42.571 91.928 C 39.448 87.209, 35.991 86.769, 29.043 90.208 M 29.500 111.077 C 35.318 113.134, 39.348 113.419, 42.066 111.965 C 45.663 110.040, 44.015 109.500, 34.242 109.404 L 24.500 109.309 29.500 111.077 M 144.670 127.546 C 129.217 130.617, 119.237 140.471, 115.922 155.928 C 113.826 165.704, 118.523 178.169, 128.219 188.560 C 134.547 195.341, 141.874 199.695, 152.355 202.902 C 161.037 205.559, 178.997 205.864, 184.768 203.452 C 190.349 201.121, 193 198.181, 193 194.326 C 193 191.777, 193.425 191, 194.818 191 C 195.819 191, 199.074 190.276, 202.052 189.392 C 211.263 186.657, 217.109 177.923, 214.120 171.364 C 213.086 169.094, 213.404 168.477, 217.843 164.153 C 225.229 156.959, 225.665 149.693, 219 144.871 C 217.625 143.876, 212.143 142.131, 206.819 140.992 C 201.494 139.853, 191.144 136.653, 183.819 133.881 C 172.202 129.486, 157.646 125.809, 153 126.095 C 152.175 126.146, 148.427 126.799, 144.670 127.546 M 141.882 135.317 C 129.263 140.047, 122.067 150.667, 123.311 162.721 C 125.352 182.503, 148.979 199.217, 172.816 197.744 C 183.546 197.081, 189.789 191.812, 183.119 189.049 C 179.499 187.550, 176.646 184.562, 177.212 182.864 C 177.517 181.948, 180.320 181.684, 187.666 181.882 C 198.179 182.164, 203.095 181.004, 205.942 177.571 C 208.097 174.972, 206.164 172.771, 200.127 170.952 C 197.290 170.096, 194.222 168.651, 193.311 167.739 C 191.768 166.196, 191.842 166.010, 194.392 165.041 C 195.898 164.468, 198.113 163.997, 199.315 163.994 C 205.830 163.978, 214.137 158.997, 215.474 154.306 C 216.349 151.236, 213.265 149.474, 203.500 147.466 C 199.100 146.561, 188.750 143.345, 180.500 140.319 C 166.866 135.319, 164.589 134.779, 155.500 134.390 C 148.584 134.093, 144.384 134.380, 141.882 135.317" stroke="none" fill="black" fill-rule="evenodd"/>
</svg>