<svg xmlns="http://www.w3.org/2000/svg" width="295" height="295" viewBox="0 0 295 295" version="1.1">
	<path d="M 31.885 8.380 C 20.533 12.436, 14.624 22.341, 16.418 34.305 C 17.276 40.026, 22.155 45.789, 29.314 49.537 L 34.726 52.371 32.514 57.435 C 28.877 65.763, 25.816 79.693, 24.589 93.500 C 23.453 106.276, 23.363 106.603, 19.355 112.500 C 10.317 125.797, 7 135.440, 7 148.417 C 7 171.769, 18.806 189.824, 41.562 201.277 C 49.594 205.320, 59.236 208.454, 66.801 209.482 C 71.491 210.119, 72.363 210.623, 74.359 213.851 C 79.719 222.521, 80.424 226.220, 80.591 246.566 C 80.760 267.022, 81.077 269.232, 84.365 272.847 C 89.188 278.150, 93.565 279.471, 106.668 279.582 C 118.278 279.680, 118.980 279.805, 121.964 282.316 C 126.601 286.218, 132.185 287.466, 145 287.466 C 159.094 287.466, 164.272 286.082, 169.086 281.027 C 172.843 277.081, 175 270.065, 175 261.788 L 175 257.909 181.741 258.204 L 188.482 258.500 189.189 263.500 C 190.346 271.680, 197.540 276, 210.005 276 C 212.522 276, 215.221 276.889, 217.593 278.498 C 223.213 282.312, 228.317 283.267, 240.599 282.803 C 250.065 282.445, 252.492 281.993, 257.099 279.732 C 260.069 278.273, 263.125 276.068, 263.889 274.832 C 266.491 270.618, 267.929 261.519, 267.970 249 C 267.993 242.125, 268.483 233.800, 269.060 230.500 C 269.637 227.200, 270.551 222.025, 271.091 219 C 271.631 215.975, 272.339 209.525, 272.663 204.666 C 273.226 196.225, 273.347 195.863, 275.376 196.521 C 284.739 199.553, 288.448 197.417, 287.781 189.376 C 286.866 178.342, 282.830 173.042, 255.403 146.862 C 238.643 130.863, 226.653 125.136, 200.557 120.666 L 187.500 118.429 182.777 111.465 C 178.073 104.529, 178.054 104.465, 178.024 96 C 177.983 84.611, 175.591 71.588, 171.580 60.933 L 168.281 52.165 173.179 49.499 C 182.821 44.251, 186 39.419, 186 30.010 C 186 22.579, 183.698 17.609, 177.993 12.726 C 166.622 2.993, 153.405 6.496, 145.450 21.352 C 143.934 24.183, 142.637 26.588, 142.568 26.695 C 142.499 26.803, 139.306 25.790, 135.471 24.444 C 119.075 18.689, 99.441 17.248, 82 20.517 C 73.575 22.097, 63.564 25.287, 61.401 27.082 C 60.625 27.727, 59.763 26.668, 58.613 23.658 C 55.173 14.650, 45.914 7.012, 38.500 7.066 C 36.850 7.078, 33.873 7.669, 31.885 8.380 M 160.301 17.963 C 156.404 20.333, 154.766 22.751, 151.421 31.069 C 147.621 40.520, 147.794 40.457, 138.239 35.905 C 126.217 30.177, 120.352 28.853, 104.500 28.285 C 87.815 27.688, 78.517 29.468, 64.506 35.941 C 56.097 39.826, 54 40.186, 54 37.748 C 54 35.077, 46.680 21.909, 43.892 19.562 C 36.640 13.460, 26 19.108, 26 29.061 C 26 34.333, 28.334 38.258, 33.046 40.906 C 38.187 43.795, 40.266 43.545, 35.880 40.565 C 29.267 36.070, 28.514 28.945, 34.204 24.697 C 36.442 23.026, 37.249 22.927, 40.341 23.947 C 44.738 25.399, 49.204 30.349, 51.471 36.286 C 53.702 42.126, 53.233 44.413, 49.724 44.818 C 48.088 45.007, 47.233 45.568, 47.622 46.197 C 47.983 46.781, 46.334 51.138, 43.957 55.879 C 41.581 60.621, 39.284 65.400, 38.853 66.500 C 36.740 71.892, 35.018 81.770, 34.058 94 L 33 107.500 28.492 114.105 C 18.616 128.579, 15.418 138.322, 16.255 151.386 C 16.939 162.050, 19.779 169.729, 26.039 177.837 C 38.640 194.160, 60.339 202.230, 95.490 203.667 C 120.593 204.694, 140.752 201.406, 155.879 193.820 C 175.379 184.040, 185.194 169.049, 185.226 149 C 185.245 137.328, 182.546 128.847, 175.041 117 L 169.022 107.500 168.980 99.500 C 168.894 83.376, 163.855 63.144, 157.342 52.770 C 154.725 48.602, 154.389 46.413, 156.250 45.662 C 156.938 45.385, 156.498 45.122, 155.273 45.079 C 154.048 45.036, 152.303 43.866, 151.395 42.480 C 149.858 40.134, 149.861 39.654, 151.432 35.538 C 153.714 29.562, 156.649 26.045, 160.798 24.311 C 166.894 21.764, 172 25.661, 172 32.860 C 172 35.857, 168.586 39.665, 163.500 42.341 C 161.850 43.209, 161.175 43.934, 162 43.951 C 164.307 43.998, 173.665 38.316, 175.429 35.798 C 181.555 27.052, 169.236 12.530, 160.301 17.963 M 36.265 30.135 C 34.599 31.801, 37.468 35.688, 42.113 38.058 C 46.839 40.469, 46.935 40.466, 46.271 37.927 C 45.666 35.615, 39.783 29, 38.332 29 C 37.819 29, 36.889 29.511, 36.265 30.135 M 161.217 30.561 C 159.029 32.093, 156 36.934, 156 38.898 C 156 40.727, 161.883 37.928, 164.449 34.878 C 168.322 30.275, 166.019 27.197, 161.217 30.561 M 39.750 43.662 C 40.438 43.940, 41.563 43.940, 42.250 43.662 C 42.938 43.385, 42.375 43.158, 41 43.158 C 39.625 43.158, 39.063 43.385, 39.750 43.662 M 43.813 44.683 C 44.534 44.972, 45.397 44.936, 45.729 44.604 C 46.061 44.272, 45.471 44.036, 44.417 44.079 C 43.252 44.127, 43.015 44.364, 43.813 44.683 M 158.813 44.683 C 159.534 44.972, 160.397 44.936, 160.729 44.604 C 161.061 44.272, 160.471 44.036, 159.417 44.079 C 158.252 44.127, 158.015 44.364, 158.813 44.683 M 55.997 70.850 C 49.916 76.930, 51.505 86.547, 59.211 90.314 C 62.823 92.079, 63.043 92.075, 67.390 90.152 C 71.100 88.511, 72.038 87.524, 72.923 84.338 C 74.761 77.721, 74.288 75.088, 70.600 71.400 C 66.022 66.822, 60.242 66.604, 55.997 70.850 M 133.217 69.561 C 128.559 72.823, 126.857 79.421, 129.050 85.713 C 131.111 91.626, 139.838 92.903, 145.234 88.082 C 148.194 85.437, 148.500 84.633, 148.500 79.500 C 148.500 74.367, 148.194 73.563, 145.234 70.918 C 141.519 67.598, 136.782 67.063, 133.217 69.561 M 63.357 74.513 C 62.670 76.302, 64.652 79, 66.654 79 C 68.645 79, 69.457 76.256, 67.989 74.487 C 66.398 72.569, 64.098 72.582, 63.357 74.513 M 139 74.500 C 138.007 75.697, 138.007 76.303, 139 77.500 C 140.601 79.429, 142.900 79.423, 143.643 77.487 C 144.218 75.990, 142.457 73, 141 73 C 140.585 73, 139.685 73.675, 139 74.500 M 84.310 88.959 C 67.549 90.884, 49.461 95.933, 50.327 98.444 C 50.777 99.752, 54.096 99.559, 65 97.590 C 89.184 93.222, 111.200 93.035, 131.500 97.023 C 137.550 98.211, 143.732 99.418, 145.238 99.704 C 149.250 100.465, 151.566 99.388, 149.993 97.491 C 145.546 92.133, 103.839 86.715, 84.310 88.959 M 47.150 114.527 C 41.981 118.877, 42.099 127.554, 47.318 126.811 C 49.110 126.556, 49.444 125.943, 49.189 123.383 C 48.856 120.054, 51.008 117, 53.687 117 C 54.536 117, 56.652 118.552, 58.389 120.449 C 62.071 124.468, 64.718 123.997, 63.595 119.522 C 61.790 112.333, 52.949 109.647, 47.150 114.527 M 142.512 113.213 C 139.664 114.864, 137.072 118.208, 137.033 120.281 C 136.973 123.502, 139.952 123.428, 143.178 120.130 C 144.860 118.408, 146.773 117, 147.428 117 C 149.836 117, 151.896 119.593, 152.194 123 C 152.455 125.985, 152.868 126.500, 155 126.500 C 157.015 126.500, 157.564 125.938, 157.830 123.607 C 158.247 119.956, 155.355 114.483, 152.266 113.075 C 149.228 111.691, 145.036 111.750, 142.512 113.213 M 191.519 130.750 C 193.327 135.063, 194.177 143.174, 193.643 151 C 192.549 167.023, 188.057 176.838, 176.500 188.457 C 163.428 201.599, 149.181 207.345, 121.793 210.520 C 114.046 211.418, 102.997 211.955, 96.100 211.768 C 89.445 211.587, 84 211.701, 84 212.020 C 84 213.378, 93.007 224.797, 96.704 228.126 C 100.760 231.778, 111.578 238.218, 115.750 239.463 C 117.566 240.005, 118 239.742, 118 238.103 C 118 236.985, 118.885 235.597, 119.966 235.018 C 121.599 234.144, 122.224 234.412, 123.659 236.603 C 125.032 238.697, 125.476 242.209, 125.821 253.691 C 126.131 263.972, 126.566 267.834, 127.328 267.072 C 129.062 265.338, 131.642 265.828, 134.808 268.492 C 137.388 270.663, 137.928 270.791, 139.007 269.492 C 141.979 265.911, 150.974 269.815, 151.015 274.705 C 151.050 278.802, 152.413 279.356, 157.946 277.518 C 161.737 276.259, 163.387 275.113, 164.097 273.245 C 164.631 271.841, 165.493 264.125, 166.013 256.096 C 166.533 248.068, 166.968 241.358, 166.979 241.184 C 166.991 241.010, 168.223 241.010, 169.718 241.184 C 171.941 241.442, 172.596 242.183, 173.317 245.250 L 174.199 249 183.849 248.965 C 195.310 248.924, 206.020 247.157, 217.027 243.491 C 223.567 241.313, 225.350 241.046, 226.574 242.061 C 227.888 243.152, 227.754 243.647, 225.517 245.982 C 223.490 248.097, 222.827 250.045, 222.334 255.327 L 221.711 262 224.700 262 C 226.404 262, 228.456 262.847, 229.471 263.968 C 231.075 265.741, 231.461 265.790, 233.349 264.468 C 237.836 261.325, 242.919 263.827, 244.936 270.172 L 246.103 273.843 250.451 272.362 C 257.591 269.929, 257.690 269.652, 258.889 248.793 C 259.481 238.504, 260.745 226.579, 261.698 222.293 C 264.240 210.858, 264.199 184.553, 261.627 177 C 254.756 156.825, 242.325 143.474, 223.330 135.868 C 215.564 132.759, 199.733 129.042, 194.143 129.016 C 191.330 129.003, 190.905 129.284, 191.519 130.750 M 159.500 161.405 C 153.392 167.774, 146.668 171.075, 131.207 175.294 C 119.933 178.369, 118.797 178.487, 100.500 178.463 C 83.143 178.440, 80.549 178.200, 70.500 175.684 C 56.997 172.304, 46.062 167.115, 40.301 161.354 C 35.600 156.652, 32 155.638, 32 159.014 C 32 160.192, 34.748 163.656, 38.618 167.359 C 44.504 172.990, 45.112 173.922, 44.118 175.780 C 42.224 179.319, 42.860 182.771, 46.082 186.441 C 53.264 194.621, 68.175 193.409, 70.420 184.462 C 70.771 183.063, 71.486 182.182, 72.009 182.505 C 72.532 182.828, 79.451 183.528, 87.386 184.059 C 100.875 184.963, 119.352 184.205, 126.289 182.464 C 128.478 181.914, 129.059 182.321, 130.542 185.448 C 131.488 187.440, 133.202 189.729, 134.353 190.535 C 137.573 192.790, 145.795 192.366, 150.500 189.702 C 155.849 186.674, 157.239 183.600, 156.074 177.377 C 155.302 173.258, 155.418 172.355, 156.819 171.567 C 157.731 171.053, 160.642 168.609, 163.288 166.134 C 166.984 162.677, 168.028 161.042, 167.799 159.076 C 167.332 155.075, 164.922 155.751, 159.500 161.405 M 270.533 176.250 C 271.518 179.572, 276.365 186.405, 276.803 185.090 C 277.161 184.018, 271.312 174, 270.328 174 C 270.074 174, 270.166 175.012, 270.533 176.250 M 49.416 177.358 C 47.880 181.361, 51.848 185.623, 58.023 186.605 C 60.695 187.029, 62.021 186.667, 63.750 185.040 C 64.987 183.875, 66 182.533, 66 182.058 C 66 181.583, 62.962 180.224, 59.250 179.039 C 55.538 177.853, 51.938 176.646, 51.251 176.358 C 50.563 176.070, 49.738 176.520, 49.416 177.358 M 141.293 178.676 C 134.248 181.042, 134.112 181.152, 135.215 183.572 C 136.638 186.696, 139.599 187.454, 144.849 186.041 C 149.209 184.867, 151.330 182.283, 150.813 178.777 C 150.388 175.895, 149.597 175.887, 141.293 178.676 M 90 247.464 L 90 263.310 92.050 261.455 C 97.271 256.730, 106 260.963, 106 268.220 L 106 272.091 109.750 271.458 C 117.741 270.110, 117.801 269.989, 117.576 255.706 L 117.454 247.911 108.847 244.098 C 100.550 240.422, 93.865 236.250, 91.250 233.116 C 90.240 231.905, 90 234.655, 90 247.464 M 206.409 254.451 C 203.059 255.118, 199.657 255.918, 198.848 256.228 C 196.644 257.074, 197.700 263.676, 200.334 265.522 C 202.940 267.347, 211.899 267.516, 212.460 265.750 C 213.164 263.530, 213.684 252.996, 213.082 253.119 C 212.762 253.185, 209.759 253.784, 206.409 254.451 M 94.479 266.024 C 92.492 268.218, 92.916 268.947, 97.250 270.789 C 99.871 271.902, 100 271.826, 100 269.179 C 100 266.604, 98.469 264, 96.955 264 C 96.600 264, 95.486 264.911, 94.479 266.024 M 223 268.500 C 221.442 270.377, 223.263 273, 226.122 273 C 228.260 273, 228.673 270.073, 226.800 268.200 C 225.229 266.629, 224.505 266.686, 223 268.500 M 235.690 269.154 C 234.760 269.674, 234 270.977, 234 272.050 C 234 273.550, 234.692 274, 237 274 C 239.498 274, 240 273.599, 240 271.607 C 240 268.850, 238.132 267.787, 235.690 269.154 M 128.126 273.348 C 126.698 275.069, 130.177 278.530, 132.457 277.655 C 133.715 277.172, 133.782 276.616, 132.833 274.534 C 131.555 271.729, 129.831 271.294, 128.126 273.348 M 140.655 274.829 C 137.973 277.792, 138.652 279, 143 279 C 147.149 279, 147.721 278.216, 145.965 274.934 C 144.666 272.507, 142.790 272.469, 140.655 274.829" stroke="none" fill="black" fill-rule="evenodd"/>
</svg>