<svg xmlns="http://www.w3.org/2000/svg" width="249" height="372" viewBox="0 0 249 372" version="1.1">
	<path d="M 62.053 9.220 C 51.698 14.774, 49.951 29.043, 58.491 38.306 C 61.333 41.388, 62.002 42.908, 62.011 46.306 C 62.017 48.613, 62.312 52.300, 62.666 54.500 L 63.310 58.500 58.282 53.828 C 47.999 44.275, 32.887 39.574, 19.840 41.870 C 9.177 43.747, 5.527 47.882, 6.492 56.991 C 7.281 64.437, 10.674 71.410, 16.723 78.016 C 22.033 83.816, 27.415 87.059, 35.156 89.123 C 39.438 90.265, 39.742 90.549, 38.937 92.667 C 35.447 101.846, 31.191 121.336, 29.964 133.755 C 27.100 162.766, 39.152 182.650, 65.352 192.140 L 74.204 195.347 73.527 208.423 C 73.155 215.615, 72.226 227.800, 71.463 235.500 C 68.912 261.240, 68.765 267.941, 70.358 286 C 71.207 295.625, 72.176 308, 72.512 313.500 C 74.927 353.128, 76.258 357.744, 86.188 360.931 C 92.616 362.994, 102.083 360.107, 104.212 355.434 L 105.337 352.965 107.434 356.703 C 110.580 362.312, 115.207 365, 121.714 365 C 129.769 365, 133.171 362.767, 136.185 355.500 C 138.068 350.958, 139.605 342.842, 140.587 332.250 L 141.258 325 147.070 325 C 150.267 325, 153.178 325.479, 153.540 326.065 C 153.902 326.650, 154.426 330.813, 154.704 335.315 C 155.400 346.583, 157.442 353.352, 161.064 356.401 C 164.528 359.315, 171.681 360.655, 175.907 359.182 C 178.251 358.365, 179.138 358.462, 180.116 359.639 C 184.058 364.389, 194.563 365.498, 201.056 361.848 C 208.234 357.814, 209.659 351.742, 212.051 315 C 213.272 296.246, 212.429 281.538, 209.858 276.734 C 207.639 272.588, 210.054 274.088, 212.940 278.648 C 216.817 284.775, 217.545 287.509, 216.127 290.621 C 214.548 294.087, 214.723 302.564, 216.442 305.889 C 217.236 307.423, 220.662 311.249, 224.057 314.392 C 229.469 319.403, 230.665 320.070, 233.765 319.804 C 238.595 319.389, 241.018 315.903, 241.692 308.403 C 242.440 300.082, 240.633 294.300, 235.866 289.762 C 233.707 287.705, 230.829 285.744, 229.471 285.403 C 227.764 284.975, 226.037 282.974, 223.877 278.921 C 219.994 271.634, 212.636 264.251, 208.004 262.993 C 205.968 262.439, 203.369 260.614, 201.800 258.636 C 198.015 253.864, 188.200 247.563, 180.629 245.043 C 177.107 243.871, 167.502 241.405, 159.284 239.564 C 139.332 235.092, 134.868 232.735, 131.636 224.963 C 129.752 220.434, 127.764 204.102, 128.175 196.544 L 128.500 190.589 134.771 187.044 C 147.868 179.642, 155.781 168.610, 158.602 153.820 C 161.105 140.693, 159.905 127.686, 154.084 104.866 C 152.490 98.615, 151.031 92.881, 150.843 92.124 C 150.614 91.207, 152.683 90.027, 157.055 88.581 C 164.768 86.031, 168.417 83.605, 173.886 77.392 C 179.230 71.321, 181.944 65.460, 183.060 57.580 C 184.626 46.526, 182.048 43.507, 169.545 41.753 C 155.517 39.785, 141.604 44.188, 131.868 53.677 C 129.321 56.160, 127.019 57.811, 126.754 57.346 C 126.488 56.881, 126.639 53.171, 127.090 49.102 C 127.728 43.341, 128.450 41.128, 130.353 39.102 C 138.977 29.918, 139.281 18.622, 131.091 11.730 C 121.053 3.283, 106.555 7.804, 103.003 20.488 C 101.929 24.326, 101.993 25.641, 103.451 29.731 C 105.535 35.577, 105.543 36.324, 103.578 43.091 L 102.008 48.500 95.004 48.168 C 91.152 47.985, 88 47.745, 88 47.633 C 88 47.522, 87.109 44.896, 86.020 41.797 L 84.040 36.164 86.112 31.480 C 92.572 16.877, 76.133 1.667, 62.053 9.220 M 116.500 17.131 C 111.308 20.033, 110.442 25.840, 114.540 30.260 C 120.141 36.300, 128.898 31.150, 127.294 22.759 C 126.373 17.942, 120.514 14.887, 116.500 17.131 M 64.189 19.039 C 61.025 21.986, 61.324 26.478, 64.923 30.077 C 70.560 35.714, 77.455 32.818, 77.455 24.813 C 77.455 21.799, 76.867 20.310, 75.116 18.893 C 72.037 16.400, 66.949 16.467, 64.189 19.039 M 71.299 39.750 C 71.600 41.263, 72.160 45.270, 72.542 48.657 L 73.237 54.813 76.180 53.787 C 77.798 53.223, 78.936 52.253, 78.708 51.631 C 78.479 51.009, 77.290 47.462, 76.065 43.750 C 74.594 39.294, 73.312 37, 72.293 37 C 71.143 37, 70.890 37.701, 71.299 39.750 M 115.698 37.750 C 114.886 39.200, 110.882 53.215, 111.191 53.524 C 112.040 54.373, 117.046 55.122, 116.833 54.368 C 116.537 53.323, 117.834 42.511, 118.642 39.292 C 119.056 37.641, 118.783 37, 117.667 37 C 116.815 37, 115.929 37.337, 115.698 37.750 M 153.680 51.937 C 146.219 54.360, 141.176 57.728, 136.542 63.383 C 133.683 66.873, 133.061 68.286, 133.803 69.612 C 134.671 71.163, 134.827 71.122, 135.443 69.179 C 136.195 66.811, 142.812 61.090, 147.500 58.754 C 151.702 56.661, 159.181 55.738, 162.310 56.928 C 172.769 60.904, 158.455 78.901, 144.730 79.030 C 142.232 79.054, 141.865 79.274, 143.109 80.001 C 145.840 81.597, 155.746 79.371, 161.045 75.971 C 167.343 71.929, 172.459 63.842, 174.418 54.829 C 174.920 52.518, 174.629 52.088, 172.249 51.632 C 163.976 50.048, 159.258 50.126, 153.680 51.937 M 17.835 51.673 C 15.128 52.390, 14.922 54.717, 17.060 60.430 C 19.774 67.686, 22.746 71.881, 27.515 75.193 C 32.465 78.631, 43.403 81.572, 46.350 80.257 C 48.065 79.492, 47.525 79.222, 43.268 78.718 C 37.377 78.020, 32.757 75.938, 28.661 72.136 C 19.809 63.919, 21.742 56.305, 32.581 56.691 C 39.420 56.935, 45.465 59.620, 50.976 64.862 C 55.702 69.358, 57.355 69.508, 54.810 65.210 C 52.151 60.718, 43.417 54.201, 37.834 52.543 C 33.044 51.121, 21.772 50.630, 17.835 51.673 M 90.397 59.593 C 92.775 65.789, 90.927 71.952, 85.915 74.544 C 79.465 77.880, 70.558 75.175, 68.049 69.118 C 66.884 66.306, 65.010 64.854, 64.993 66.750 C 64.989 67.162, 63.389 68.588, 61.437 69.917 C 59.485 71.247, 56.824 74.172, 55.523 76.417 C 50.602 84.911, 42.439 112.018, 40.082 127.692 C 38.999 134.887, 38.576 152, 39.480 152 C 39.744 152, 42.331 150.199, 45.230 147.999 C 56.641 139.335, 75.370 134.036, 94.662 134.013 C 113.541 133.991, 129.607 138.322, 142.668 146.955 L 149.835 151.693 150.473 148.293 C 152.310 138.499, 145.931 105.746, 137.816 83.309 C 135.224 76.142, 134.169 74.533, 129.379 70.440 C 126.367 67.868, 123.748 65.929, 123.557 66.132 C 123.366 66.334, 122.523 68.158, 121.684 70.184 C 118.543 77.764, 108.284 79.240, 102.640 72.923 C 100.036 70.009, 99.818 69.196, 100.204 63.861 L 100.628 58 95.207 58 C 90.659 58, 89.884 58.256, 90.397 59.593 M 77.504 60.794 C 71.698 62.776, 70.719 65.008, 74.084 68.589 C 78.239 73.013, 86 70.691, 86 65.025 C 86 61.323, 85.080 58.989, 83.643 59.044 C 83.014 59.068, 80.252 59.855, 77.504 60.794 M 105.375 62.640 C 103.686 69.371, 109.564 74.201, 114.752 70.345 C 116.263 69.221, 117.640 67.135, 117.811 65.708 C 118.092 63.364, 117.616 62.963, 112.879 61.557 C 106.110 59.547, 106.153 59.540, 105.375 62.640 M 29 63.124 C 29 65.226, 33.585 69.748, 38.001 72.001 C 41.588 73.830, 50 74.814, 50 73.404 C 50 71.593, 45.304 66.686, 41.919 64.959 C 36.702 62.297, 29 61.204, 29 63.124 M 149.421 64.384 C 144.666 66.599, 140 71, 140 73.271 C 140 74.782, 148.397 73.349, 152.850 71.076 C 156.502 69.213, 160 65.279, 160 63.035 C 160 61.248, 154.707 61.923, 149.421 64.384 M 90.923 77.923 C 87.316 81.530, 87.152 85.243, 90.455 88.545 C 95.293 93.384, 104.044 89.984, 103.968 83.295 C 103.932 80.097, 102.457 77.836, 99.316 76.163 C 95.939 74.365, 94.094 74.752, 90.923 77.923 M 94.011 81.487 C 92.349 83.489, 93.456 86, 96 86 C 97.135 86, 98.324 85.319, 98.643 84.487 C 99.218 82.990, 97.457 80, 96 80 C 95.585 80, 94.689 80.669, 94.011 81.487 M 58.974 110.872 C 53.720 116.126, 53.781 123.955, 59.111 128.440 C 62.603 131.378, 64.897 131.622, 69.020 129.490 C 72.899 127.484, 74 125.162, 74 118.989 C 74 114.638, 73.550 113.396, 71.077 110.923 C 67.167 107.013, 62.851 106.995, 58.974 110.872 M 119.514 110.168 C 113.128 115.191, 112.964 123.268, 119.143 128.467 C 123.279 131.947, 126.497 131.703, 130.600 127.600 C 133.348 124.852, 134 123.423, 134 120.147 C 134 114.825, 132.251 111.181, 128.855 109.425 C 125.043 107.454, 122.730 107.638, 119.514 110.168 M 65 115.368 C 65 118.259, 66.029 119.218, 67.896 118.064 C 69.675 116.965, 68.876 113.600, 66.739 113.188 C 65.459 112.942, 65 113.518, 65 115.368 M 124.015 114.750 C 124.039 117.501, 125.505 119.127, 127.330 118.427 C 129.136 117.734, 129.331 117.027, 128.393 114.582 C 127.556 112.400, 123.996 112.537, 124.015 114.750 M 74.624 140.638 C 61.342 143.486, 48.739 149.391, 43.074 155.421 L 40.764 157.880 42.933 162.361 C 45.641 167.956, 54.546 176.891, 60.812 180.301 C 70.107 185.360, 80.068 187.404, 95.500 187.419 C 106.303 187.429, 110.870 187.011, 115.500 185.587 C 128.117 181.707, 137.989 175.321, 143.626 167.394 C 148.134 161.053, 148.630 158.299, 145.804 155.292 C 139.979 149.091, 126.833 143.108, 113.162 140.435 C 103.816 138.607, 83.595 138.714, 74.624 140.638 M 76.667 147.667 C 75.362 148.971, 76.031 152.031, 78.067 154.067 C 79.710 155.710, 80.428 155.890, 81.567 154.944 C 83.532 153.313, 83.364 150.639, 81.171 148.655 C 79.230 146.898, 77.758 146.575, 76.667 147.667 M 107.557 149.223 C 105.488 152.176, 105.594 153.712, 107.952 154.974 C 109.512 155.809, 110.316 155.577, 111.952 153.821 C 114.176 151.434, 114.306 150.961, 113.393 148.582 C 112.515 146.294, 109.365 146.640, 107.557 149.223 M 107.805 168.665 C 107.087 170.131, 104.770 172.222, 102.656 173.312 C 99.385 174.998, 98.143 175.141, 94.328 174.268 C 90.589 173.412, 89.747 173.495, 89.260 174.766 C 87.397 179.619, 102.584 180.606, 107.563 175.955 C 110.741 172.986, 113.305 168.302, 112.482 166.971 C 111.368 165.168, 109.117 165.984, 107.805 168.665 M 114.500 194.097 C 112.850 194.606, 105.088 195.313, 97.250 195.667 L 83 196.311 83.041 205.906 L 83.082 215.500 87.791 217.725 C 93.446 220.396, 96.514 224.630, 98.077 231.924 C 100.863 244.917, 92.598 258, 81.604 258 C 79.385 258, 79.079 258.517, 78.486 263.265 C 77.485 271.274, 79.528 283.296, 83.134 290.620 C 86.381 297.215, 94.104 305.451, 99.808 308.401 L 103 310.051 103 304.648 C 103 298.477, 104.767 295.910, 107.283 298.426 C 109.106 300.249, 111.762 314.299, 112.589 326.500 C 112.925 331.450, 113.606 337.126, 114.102 339.113 L 115.003 342.726 121.752 343.283 C 125.463 343.589, 128.792 343.539, 129.148 343.170 C 129.504 342.802, 130.553 337.100, 131.478 330.500 C 132.980 319.784, 133.943 314.245, 135.499 307.360 C 135.765 306.183, 136.719 304.938, 137.618 304.593 C 140.292 303.567, 142 305.917, 142 310.622 L 142 315 149.057 315 C 157.432 315, 170 313.082, 170 311.804 C 170 311.307, 169.311 309.569, 168.470 307.941 C 167.355 305.786, 167.216 304.465, 167.957 303.081 C 169.917 299.417, 172.486 301.863, 177.656 312.317 C 182.275 321.656, 184.223 328.498, 185.254 339 C 185.492 341.423, 185.732 341.500, 193 341.500 L 200.500 341.500 201.154 336.500 C 201.514 333.750, 202.147 322.387, 202.561 311.250 L 203.313 291 197.891 291 C 191.370 291, 186.740 288.759, 182.542 283.573 C 176.755 276.423, 179.253 263.899, 187.127 260.589 L 189.960 259.397 184.615 256.776 L 179.270 254.154 178.094 258.081 C 176.679 262.802, 174.015 264.708, 166.309 266.514 C 159.526 268.103, 153.340 267.149, 148.345 263.743 C 143.631 260.528, 141.580 256.364, 141.537 249.918 C 141.501 244.543, 141.383 244.298, 138.349 243.348 C 135.237 242.373, 135.190 242.409, 134.576 246.248 C 133.791 251.161, 130.451 254.530, 124.865 256.045 C 121.069 257.074, 120.048 256.985, 117.031 255.364 C 105.849 249.355, 106.623 234.585, 118.305 231.063 C 121.635 230.060, 122.909 229.206, 122.535 228.232 C 122.241 227.464, 122 226.198, 122 225.418 C 122 224.363, 120.568 224, 116.400 224 C 111.391 224, 110.450 223.650, 107.479 220.679 C 99.319 212.519, 103.372 199.255, 114.932 196.289 C 116.820 195.804, 118.545 194.866, 118.765 194.204 C 119.225 192.826, 118.667 192.812, 114.500 194.097 M 113.500 202.161 C 108.304 205.018, 106.799 209.777, 109.463 214.928 C 111.082 218.060, 112.803 219, 116.916 219 L 119.669 219 119.202 210.750 C 118.668 201.318, 117.695 199.854, 113.500 202.161 M 82.686 223.819 C 81.575 229.377, 79.689 252.023, 80.288 252.622 C 81.360 253.693, 85.730 252.098, 88.797 249.517 C 92.536 246.371, 93.996 240.862, 92.910 233.994 C 91.931 227.800, 90.013 224.575, 86.109 222.556 C 83.308 221.108, 83.222 221.140, 82.686 223.819 M 116 238 C 111.498 242.502, 115.315 251.029, 121.917 251.217 C 128.702 251.410, 132.539 242.734, 127.686 238.174 C 124.661 235.333, 118.755 235.245, 116 238 M 146.761 248.180 C 146.170 249.901, 147.528 254.630, 149.456 257.573 C 151.124 260.118, 156.464 261.986, 162.102 261.994 C 166.849 262.002, 172.401 258.278, 172.807 254.814 C 173.103 252.288, 172.796 252.120, 164.307 250.177 C 150.580 247.034, 147.282 246.659, 146.761 248.180 M 117.445 263.068 C 112.305 264.562, 109.500 268.424, 109.500 274.007 C 109.500 282.690, 116.340 288.776, 124.692 287.524 C 131.369 286.522, 135 282.649, 135 276.527 C 135 270.150, 132.721 266.231, 127.684 263.943 C 123.083 261.855, 121.953 261.758, 117.445 263.068 M 187 267 C 185.520 268.480, 185 270.333, 185 274.132 C 185 278.687, 185.388 279.629, 188.449 282.517 C 191.794 285.671, 197.597 287.395, 200.854 286.202 C 202.871 285.463, 201.542 278.704, 197.915 271.250 C 195.211 265.692, 194.549 265, 191.937 265 C 190.322 265, 188.100 265.900, 187 267 M 115.655 269.829 C 111.728 274.168, 115.480 281.587, 122.137 282.646 C 129.209 283.772, 132.790 275.699, 127.545 270.455 C 124.480 267.390, 118.163 267.057, 115.655 269.829 M 151.003 272.192 C 145.407 275.065, 143.792 278.028, 144.329 284.441 C 144.664 288.437, 145.344 289.918, 147.887 292.191 C 150.559 294.578, 151.892 295, 156.766 294.998 C 164.663 294.996, 169.130 292.634, 170.778 287.587 C 171.934 284.046, 171.839 283.243, 169.778 279.139 C 165.545 270.712, 158.771 268.205, 151.003 272.192 M 151.635 278.073 C 148.603 280.458, 148.168 284.368, 150.557 287.777 C 151.829 289.593, 153.064 289.997, 157.307 289.985 C 162.955 289.968, 164.128 289.493, 165.723 286.576 C 168.125 282.181, 162.842 276, 156.685 276 C 155.356 276, 153.084 276.933, 151.635 278.073 M 226.176 295.224 C 225.529 295.871, 225 297.367, 225 298.550 C 225 300.746, 230.373 309, 231.802 309 C 233.234 309, 233.089 302.073, 231.597 299.187 C 229.489 295.110, 227.641 293.759, 226.176 295.224 M 81.366 304.500 C 81.683 307.800, 82.227 316.399, 82.575 323.609 C 82.923 330.819, 83.584 337.327, 84.045 338.073 C 84.575 338.931, 87.417 339.571, 91.788 339.818 L 98.694 340.208 99.844 330.354 C 100.477 324.934, 101.213 319.600, 101.480 318.500 C 101.869 316.894, 100.500 315.576, 94.531 311.808 C 90.253 309.108, 85.758 305.288, 83.943 302.808 L 80.789 298.500 81.366 304.500 M 166.739 321.959 C 164.670 322.361, 162.811 322.871, 162.608 323.094 C 161.795 323.986, 164.225 337.523, 165.323 338.221 C 166.937 339.247, 173.192 339.165, 174.880 338.095 C 177.188 336.633, 174.089 320.837, 171.549 321.115 C 170.972 321.178, 168.808 321.558, 166.739 321.959 M 165.393 345.582 C 165.727 346.452, 166 347.533, 166 347.984 C 166 348.435, 167.272 349.248, 168.826 349.789 C 172.452 351.054, 175 349.675, 175 346.450 C 175 344.170, 174.646 344, 169.893 344 C 165.647 344, 164.888 344.267, 165.393 345.582 M 85 347.045 C 85 348.803, 89.792 353, 91.800 353 C 94.068 353, 97 349.996, 97 347.671 C 97 346.295, 95.940 346, 91 346 C 87.493 346, 85 346.434, 85 347.045 M 186 348.647 C 186 356.430, 196.635 357.312, 199.317 349.750 C 199.824 348.318, 199.352 347.998, 196.719 347.989 C 194.948 347.983, 191.813 347.699, 189.750 347.358 C 186.510 346.823, 186 346.998, 186 348.647 M 115 351.454 C 115 354.550, 117.923 356.216, 122.634 355.808 C 125.518 355.558, 126.425 354.923, 127.470 352.424 L 128.757 349.348 121.878 349.164 C 115.177 348.984, 115 349.043, 115 351.454" stroke="none" fill="black" fill-rule="evenodd"/>
</svg>