<svg xmlns="http://www.w3.org/2000/svg" width="281" height="306" viewBox="0 0 281 306" version="1.1">
	<path d="M 46.445 7.023 C 33.449 8.851, 15.995 21.250, 10.071 32.861 C 7.954 37.011, 7.295 43.446, 8.887 44.430 C 9.376 44.732, 9.140 46.816, 8.363 49.073 C 4.638 59.883, 5.805 71.318, 11.026 75.178 C 12.945 76.596, 14.203 78.608, 14.624 80.929 C 16.390 90.678, 24.302 100, 30.810 100 C 31.860 100, 35.428 101.397, 38.740 103.105 C 43.372 105.494, 46.179 106.243, 50.915 106.355 C 56.608 106.489, 57.113 106.688, 57.645 109 C 60.043 119.431, 64.007 126.857, 71.034 134.082 L 76.569 139.772 73.202 143.636 C 67.860 149.768, 58.990 163.776, 54.807 172.686 C 50.696 181.443, 49.596 185.542, 47.703 199.154 L 46.500 207.808 41.647 211.154 C 38.787 213.126, 35.781 216.348, 34.328 219 C 32.219 222.848, 31.924 224.469, 32.293 230.188 C 33.116 242.958, 41.776 250.736, 56.513 251.941 C 63.098 252.480, 64.114 252.870, 67.950 256.336 C 74.442 262.201, 81.073 264.563, 99.250 267.487 C 103.122 268.110, 103.845 269.468, 102.059 272.764 C 100.316 275.980, 93.227 291.710, 92.528 293.913 C 90.991 298.756, 92.306 299, 119.931 299 C 138.947 299, 146.040 298.675, 147.243 297.750 C 148.869 296.500, 151.551 291.040, 157.407 277.057 C 160.372 269.977, 160.767 269.513, 165.512 267.557 C 173.711 264.176, 176.941 261.767, 180.305 256.525 C 182.786 252.658, 183.509 250.423, 183.540 246.523 C 183.570 242.727, 184.288 240.400, 186.479 237 C 192.314 227.942, 193.472 219.839, 190.018 212.229 C 188.951 209.880, 188.297 207.389, 188.564 206.694 C 188.831 205.999, 192.191 204.621, 196.031 203.632 C 200.774 202.410, 203.926 200.920, 205.859 198.987 C 212.214 192.632, 214.528 182.569, 211.474 174.571 C 210.504 172.032, 209.889 169.818, 210.106 169.651 C 214.213 166.482, 232.644 155, 233.624 155 C 233.854 155, 235.721 156.094, 237.771 157.430 C 242.340 160.408, 251.788 162.230, 258.228 161.375 C 260.867 161.025, 265.382 159.334, 268.263 157.616 C 272.686 154.979, 273.549 153.979, 273.818 151.182 C 273.993 149.360, 273.543 147.152, 272.818 146.276 C 271 144.079, 260.605 139.278, 255.972 138.495 L 252.156 137.851 254.042 134.654 C 256.791 129.993, 258.709 117.851, 257.213 114.569 C 256.237 112.425, 255.372 112, 251.988 112 C 242.787 112, 231.136 122.308, 228.470 132.808 C 227.460 136.786, 226.809 137.623, 224.124 138.393 C 222.387 138.892, 220.689 139.022, 220.351 138.684 C 220.013 138.346, 221.735 133.891, 224.178 128.785 C 226.621 123.678, 230.618 115.133, 233.060 109.795 C 236.239 102.845, 238.011 100.077, 239.300 100.045 C 245.479 99.891, 254.561 89.826, 256.505 80.979 C 256.899 79.182, 258.679 76.254, 260.460 74.474 C 263.026 71.907, 263.828 70.117, 264.332 65.836 C 264.999 60.161, 263.832 50.423, 262.096 47.180 C 261.385 45.851, 261.421 44.345, 262.214 42.244 C 264.713 35.623, 257.027 24.294, 243.670 14.907 C 233.902 8.043, 229.150 6.705, 216.129 7.151 C 206.470 7.481, 204.778 7.835, 198.829 10.764 C 194.752 12.771, 189.980 16.292, 186.331 19.987 L 180.428 25.964 172.964 22.071 C 159.503 15.050, 152.644 13.492, 135.500 13.557 C 121.883 13.609, 119.716 13.871, 112 16.399 C 107.325 17.930, 100.618 20.777, 97.095 22.727 L 90.690 26.271 86.569 21.886 C 74.956 9.525, 62.212 4.805, 46.445 7.023 M 45.344 16.383 C 38.946 17.981, 31.263 22.782, 23.750 29.876 C 18.129 35.183, 16.613 38, 19.378 38 C 20.135 38, 21.302 38.659, 21.971 39.465 C 22.948 40.642, 22.760 41.529, 21.010 43.986 C 17.999 48.214, 15 57.162, 15 61.916 C 15 65.852, 16.284 67.967, 17.490 66.016 C 17.835 65.457, 18.933 65, 19.930 65 C 21.442 65, 21.857 66.168, 22.439 72.076 C 23.173 79.528, 25.662 86.645, 28.299 88.834 C 29.525 89.851, 30.353 89.881, 32.055 88.971 C 33.976 87.942, 34.655 88.232, 37.725 91.393 C 41.765 95.553, 46.641 97.287, 53 96.826 C 57.473 96.502, 57.503 96.474, 58.067 92.250 C 58.611 88.174, 58.526 88, 55.977 88 C 51.745 88, 41.377 82.273, 38.218 78.190 C 33.478 72.063, 31.713 67.171, 31.647 59.973 C 31.577 52.247, 34.769 44.539, 40.207 39.307 C 44.279 35.390, 52.687 31.997, 58.287 32.010 C 66.435 32.029, 75.321 37.919, 79.556 46.108 C 80.945 48.794, 80.871 49.244, 78.406 53.149 C 70.221 66.116, 66 80.536, 66 95.538 C 66 115.575, 72.036 126.176, 89.500 136.810 C 110.339 149.498, 154.872 150.348, 179.766 138.532 C 193.623 131.955, 201.454 121.920, 204.640 106.657 C 207.474 93.084, 202.957 70.929, 194.442 56.635 C 191.510 51.713, 190.967 49.987, 191.485 47.230 C 192.432 42.180, 200.042 35.337, 206.965 33.310 C 212.100 31.807, 212.970 31.812, 219 33.381 C 227.664 35.636, 234.023 41.650, 236.970 50.377 C 239.437 57.682, 239.488 60.275, 237.318 68.082 C 234.494 78.236, 226.041 86.010, 216.092 87.601 C 211.783 88.290, 211.214 89.465, 212.630 94.750 C 213.160 96.726, 213.882 97, 218.552 97 C 225.169 97, 228.609 95.737, 232.678 91.812 C 235.088 89.488, 236.441 88.894, 238.273 89.354 C 242.987 90.537, 247.827 82.456, 248.710 71.925 C 249.174 66.382, 249.620 65, 250.945 65 C 251.855 65, 253.109 65.509, 253.730 66.130 C 254.571 66.971, 255.032 66.346, 255.529 63.695 C 256.254 59.830, 255.114 55.418, 251.360 47.563 C 248.058 40.654, 248.303 38.258, 252.250 38.882 C 252.662 38.947, 253 38.267, 253 37.372 C 253 34.396, 240.270 23.243, 232.476 19.391 C 225.344 15.866, 224.830 15.764, 216.305 16.198 C 209.375 16.550, 206.435 17.197, 202.500 19.234 C 195.377 22.921, 189.844 28.020, 187.183 33.348 C 185.918 35.882, 184.475 38.207, 183.976 38.515 C 183.478 38.823, 178.990 36.615, 174.004 33.609 C 169.017 30.603, 161.239 26.874, 156.719 25.322 C 149.314 22.780, 147.212 22.504, 135.500 22.539 C 125.965 22.568, 120.917 23.057, 116.560 24.373 C 109.714 26.440, 99.058 31.671, 94.056 35.419 C 88.820 39.342, 86.746 38.847, 82.875 32.750 C 78.746 26.246, 78.683 26.181, 72.158 21.698 C 64.046 16.125, 54.194 14.172, 45.344 16.383 M 46.139 41.493 C 40.605 46.493, 38.260 50.561, 37.467 56.536 C 36.107 66.789, 41.993 77.447, 50.643 80.394 C 58.575 83.097, 59.247 82.807, 61.418 75.741 C 64.155 66.836, 67.903 58.183, 71.190 53.179 C 73.958 48.965, 73.986 48.785, 72.329 45.979 C 69.177 40.644, 65.212 38.573, 57.367 38.165 C 50.337 37.799, 50.176 37.846, 46.139 41.493 M 204.411 39.891 C 201.023 41.957, 197 46.597, 197 48.439 C 197 49.082, 198.395 51.809, 200.101 54.498 C 203.107 59.238, 208.343 71.913, 209.396 77 C 209.680 78.375, 210.495 80.267, 211.207 81.205 C 212.423 82.809, 212.818 82.802, 217.852 81.075 C 224.909 78.653, 227.932 76.273, 230.745 70.922 C 232.734 67.140, 233.016 65.373, 232.698 58.713 C 232.380 52.038, 231.904 50.325, 229.372 46.721 C 227.746 44.409, 224.636 41.508, 222.458 40.275 C 217.339 37.375, 208.833 37.195, 204.411 39.891 M 129.379 79.390 C 126.359 80.750, 122.521 85.041, 120.055 89.817 C 119.397 91.091, 118.307 95.907, 117.634 100.520 C 115.652 114.092, 119.214 121.766, 128.593 124.128 C 131.600 124.885, 132.700 125.617, 132.320 126.610 C 131.346 129.147, 127.289 129.342, 123.549 127.030 C 117.690 123.409, 115.719 126.903, 121.077 131.411 C 124.238 134.071, 130.920 134.971, 133.827 133.128 C 134.597 132.640, 136.827 132.863, 139.143 133.661 C 142.730 134.897, 143.569 134.842, 147.480 133.112 C 151.813 131.195, 154.638 127.841, 153.487 125.979 C 152.609 124.558, 149.903 124.779, 148.079 126.422 C 145.267 128.954, 141.585 129.304, 139.697 127.218 C 138.047 125.394, 138.143 125.275, 142.241 124.066 C 150.586 121.605, 154 116.384, 154 106.085 C 154 97.952, 151.979 91.205, 147.798 85.374 C 143.327 79.139, 135.550 76.613, 129.379 79.390 M 93.500 82.161 C 87.415 85.507, 85.955 94.416, 90.589 99.923 C 92.767 102.511, 93.886 103, 97.634 103 C 105.536 103, 109.861 95.654, 106.574 87.817 C 104.022 81.733, 98.568 79.374, 93.500 82.161 M 169.500 81.954 C 162.619 84.800, 160.112 94.297, 164.897 99.390 C 166.215 100.794, 168.775 102.431, 170.586 103.028 C 176.794 105.077, 183 99.450, 183 91.772 C 183 87.766, 180.892 84.513, 176.989 82.494 C 173.778 80.834, 172.441 80.738, 169.500 81.954 M 97.667 86.667 C 95.833 88.501, 97.976 92.330, 100.330 91.427 C 102.447 90.614, 102.506 87.408, 100.418 86.607 C 98.460 85.855, 98.478 85.855, 97.667 86.667 M 172.676 87.403 C 172.380 88.174, 172.754 89.637, 173.508 90.653 C 174.797 92.392, 174.979 92.400, 176.603 90.800 C 178.031 89.394, 178.106 88.833, 177.042 87.550 C 175.440 85.620, 173.386 85.551, 172.676 87.403 M 211.990 110.250 C 209.689 119.250, 206.483 125.453, 200.682 132.127 C 194.347 139.415, 189.009 143.207, 179.981 146.830 C 174.884 148.876, 174.257 149.494, 171.772 154.936 C 167.425 164.454, 167.337 165.606, 170.821 167.408 C 183.082 173.748, 179.980 190.418, 165.496 196.022 C 163.848 196.659, 159.450 197.703, 155.722 198.340 L 148.944 199.500 145.360 207.500 C 136.163 228.028, 134.878 232, 137.431 232 C 140.164 232, 146.855 235.861, 148.077 238.143 C 149.777 241.321, 148.759 251.515, 146.435 254.575 C 144.483 257.145, 140.134 259.312, 125.500 265.007 C 121.100 266.720, 116.580 268.718, 115.456 269.448 C 113.673 270.607, 103.454 289.788, 104.215 290.549 C 104.768 291.101, 117.608 291.441, 129.645 291.221 L 141.790 291 145.387 282.012 C 147.366 277.069, 150.939 268.857, 153.328 263.762 C 155.717 258.668, 158.487 252.250, 159.483 249.500 C 161.014 245.275, 165.960 233.793, 171.544 221.500 C 180.818 201.085, 181.249 199.743, 181.058 191.875 C 180.911 185.846, 181.330 183.276, 183.060 179.596 C 185.611 174.168, 190.933 169.416, 196.258 167.811 C 198.324 167.188, 201.777 165.053, 203.930 163.065 C 206.083 161.077, 212.390 156.765, 217.945 153.483 C 223.500 150.201, 227.555 147.352, 226.955 147.152 C 226.356 146.952, 222.562 147.961, 218.525 149.394 C 209.003 152.775, 206 152.821, 206 149.589 C 206 147.354, 211.168 134.217, 214.440 128.136 C 215.220 126.686, 216.452 123.939, 217.179 122.031 C 217.905 120.124, 219.738 116.141, 221.250 113.180 C 222.762 110.219, 224 107.393, 224 106.898 C 224 106.404, 221.542 106, 218.539 106 L 213.077 106 211.990 110.250 M 243.720 124.868 C 239.718 129.147, 237.024 134.717, 237.006 138.750 C 236.985 143.430, 245.265 133.632, 247.883 125.880 C 248.975 122.646, 249.510 120, 249.071 120 C 248.633 120, 246.225 122.191, 243.720 124.868 M 81.829 147.750 C 75.691 154.186, 69.118 164.098, 63.934 174.736 C 57.898 187.120, 56.904 191.172, 56.293 205.900 C 55.635 221.775, 58.103 230.238, 66.822 242 C 74.640 252.547, 83.951 257.225, 98.320 257.827 C 107.563 258.214, 108.193 258.378, 109.044 260.615 C 109.912 262.899, 110.077 262.935, 113.224 261.530 C 115.026 260.725, 121.341 258.217, 127.257 255.955 C 133.597 253.531, 138.421 251.081, 139.007 249.987 C 140.347 247.484, 140.258 246.964, 138.601 247.600 C 137.832 247.895, 136.887 247.625, 136.501 247.001 C 136.086 246.329, 136.657 245.641, 137.899 245.316 C 140.618 244.605, 140.619 241.331, 137.901 240.469 C 136.747 240.102, 133.819 240.100, 131.394 240.464 C 126.224 241.239, 125.025 239.767, 126.981 235.045 C 127.646 233.440, 128.210 229, 128.234 225.179 C 128.285 216.961, 125.772 211.505, 119.677 206.605 C 116.347 203.929, 114.913 203.484, 108.580 203.164 C 102.395 202.852, 100.348 203.204, 94.903 205.515 C 87.208 208.781, 83.689 209.169, 83.214 206.802 C 82.793 204.705, 89.201 200.485, 96.976 197.738 C 104.365 195.128, 114.669 195.696, 121.461 199.088 C 126.331 201.520, 133 208.892, 133 211.844 C 133 212.766, 133.339 213.013, 133.832 212.450 C 134.782 211.365, 139.155 200.775, 138.760 200.516 C 138.617 200.422, 135.350 199.801, 131.500 199.135 C 121.562 197.416, 115.356 195.258, 108.750 191.226 C 102.887 187.647, 101.945 186.121, 104.360 184.117 C 105.399 183.254, 107.723 183.796, 114.231 186.420 C 124.787 190.675, 131.754 192, 143.578 192 C 158.802 192, 170 187.301, 170 180.912 C 170 177.678, 167.806 174.161, 165.120 173.091 C 163.679 172.516, 157.968 171.385, 152.430 170.576 C 146.891 169.768, 139.870 168.175, 136.827 167.036 C 129.924 164.454, 123.384 159.049, 124.293 156.679 C 125.211 154.287, 127.741 154.618, 133.710 157.909 C 136.575 159.489, 142.200 161.471, 146.210 162.314 C 159.473 165.103, 158.218 165.443, 161.191 158.257 L 163.831 151.877 158.166 152.689 C 155.050 153.135, 144.400 153.489, 134.500 153.475 C 114.719 153.448, 106.837 152.194, 93.023 146.878 C 88.910 145.295, 85.514 144, 85.476 144 C 85.437 144, 83.797 145.688, 81.829 147.750 M 243.750 147.155 C 241.688 147.729, 240 148.536, 240 148.947 C 240 150.001, 246.819 152.826, 251 153.506 C 254.781 154.120, 263.134 152.098, 263.689 150.434 C 264.558 147.826, 249.963 145.426, 243.750 147.155 M 192.721 179.614 C 189.460 182.781, 189 183.813, 189 187.959 C 189 191.356, 189.542 193.180, 190.922 194.429 C 192.742 196.077, 193.034 196.078, 196.472 194.446 C 201.006 192.295, 204.469 186.094, 203.590 181.698 C 202.243 174.967, 198.287 174.208, 192.721 179.614 M 180.199 222.296 C 178.986 225.484, 177.086 229.872, 175.976 232.046 C 173.173 237.542, 175.403 237.010, 179.010 231.323 C 182.053 226.525, 183.484 221.619, 182.795 218.350 C 182.543 217.156, 181.623 218.555, 180.199 222.296 M 44.854 219.672 C 40.477 224.682, 39.827 230.366, 43.038 235.561 C 44.914 238.596, 51.926 243, 54.883 243 C 56.420 243, 55.498 239.587, 52.990 236 C 52.029 234.625, 50.461 230.800, 49.505 227.500 C 46.533 217.240, 46.713 217.544, 44.854 219.672 M 167.987 250.529 C 166.319 254.247, 165.159 257.492, 165.409 257.742 C 166.171 258.504, 170.733 254.664, 172.416 251.846 C 174.395 248.529, 174.422 246.595, 172.510 245.008 C 171.244 243.958, 170.561 244.792, 167.987 250.529" stroke="none" fill="black" fill-rule="evenodd"/>
</svg>