<svg xmlns="http://www.w3.org/2000/svg" width="377" height="177" viewBox="0 0 377 177" version="1.1">
	<path d="M 121 8.530 C 113.917 11.719, 108.020 19.497, 104.982 29.657 C 103.718 33.883, 103.186 34.267, 93.324 38.054 C 89.242 39.622, 73.514 43.081, 67.708 43.688 C 62.459 44.237, 61.662 44.057, 59.208 41.769 C 57.719 40.380, 55.517 38.739, 54.316 38.122 C 51.191 36.517, 42.409 36.737, 38.986 38.507 C 36.306 39.893, 35.808 39.853, 32.786 38.011 C 25.829 33.769, 15.795 36.834, 11.537 44.500 C 5.954 54.553, 5.674 67.610, 10.813 78.266 C 12.489 81.742, 14.455 86.503, 15.180 88.848 C 17.211 95.406, 22.733 101.906, 29.392 105.577 C 37.479 110.036, 48.295 112.540, 70.029 114.987 C 80.188 116.130, 91.650 117.710, 95.500 118.497 C 109.582 121.377, 124.727 123.938, 133.982 125.005 C 139.459 125.636, 144.599 126.816, 146.152 127.799 L 148.840 129.501 145.340 135.140 C 140.500 142.935, 139.982 147.637, 143.501 151.818 C 148.197 157.399, 154.013 160.139, 160.682 159.910 C 166.052 159.726, 167.116 160.088, 174.500 164.605 C 181.662 168.987, 183.079 169.489, 188.025 169.396 C 198.007 169.209, 207.444 163.062, 212.704 153.322 C 214.242 150.474, 215.838 148.112, 216.250 148.072 C 216.662 148.032, 221.432 148, 226.848 148 L 236.696 148 238.491 151.980 C 240.709 156.899, 245.788 159.535, 254.988 160.542 C 259.306 161.014, 263.205 162.228, 266.646 164.169 C 274.126 168.391, 277.482 169.127, 284.264 168.035 C 300.696 165.389, 308.783 156.280, 309.355 139.777 L 309.572 133.500 318.190 128.916 C 335.260 119.836, 346.198 110.106, 354.631 96.500 C 363.701 81.866, 368.013 68.874, 368.737 54 C 369.364 41.126, 367.977 36.724, 362.584 34.471 C 358.004 32.557, 354.599 33.802, 350 39.071 C 346.624 42.939, 346.382 43.040, 343.157 41.910 C 338.302 40.210, 332.493 42.144, 329.956 46.304 C 328.884 48.062, 328.006 50.261, 328.004 51.191 C 327.998 53.662, 326.765 54.048, 322.779 52.824 C 317.575 51.227, 312.209 52.591, 308.294 56.506 L 304.946 59.854 302.459 57.549 C 297.915 53.339, 289.554 52.849, 283.296 56.428 L 279.091 58.832 276.796 55.857 C 275.533 54.221, 273.285 52.234, 271.800 51.441 C 268.010 49.418, 260.143 49.633, 255.738 51.879 L 252.053 53.758 249.553 50.481 C 248.179 48.679, 245.047 46.233, 242.594 45.046 C 238.680 43.151, 237.617 43.026, 233.908 44.025 C 231.583 44.651, 228.561 45.897, 227.193 46.793 C 224.772 48.380, 224.622 48.328, 221.602 44.855 C 215.360 37.676, 206.903 36.085, 200.233 40.834 L 197.282 42.935 194.641 38.082 C 193.189 35.413, 192 32.493, 192 31.593 C 192 30.693, 190.722 27.153, 189.161 23.728 C 185.687 16.109, 178.962 9.608, 172.841 7.952 C 165.938 6.084, 155.764 7.229, 150.950 10.415 L 146.897 13.097 141.505 10.459 C 134.720 7.139, 125.926 6.312, 121 8.530 M 124.262 17.486 C 120.358 19.183, 115.657 26.228, 113.517 33.589 C 112.619 36.677, 110.967 39.668, 109.536 40.793 C 104.390 44.841, 70.769 54, 61.057 54 C 57.701 54, 56.503 53.376, 53.380 50 C 48.775 45.023, 46.203 44.918, 41.132 49.500 C 39.001 51.425, 36.624 53, 35.849 53 C 35.074 53, 32.980 51.452, 31.195 49.559 C 26.810 44.910, 24.405 44.271, 21.513 46.988 C 17.317 50.930, 15.539 64.568, 18.346 71.286 C 19.506 74.061, 20.647 74.809, 26.596 76.692 C 35.304 79.448, 54.518 82.570, 72 84.069 C 96.862 86.202, 123.175 82.935, 137.679 75.913 C 141.460 74.083, 141.852 73.592, 140.921 71.852 C 139.837 69.828, 141.144 67, 143.163 67 C 144.489 67, 151.973 75.268, 151.988 76.750 C 151.995 77.486, 150.714 78, 148.870 78 C 147.148 78, 142.648 79.670, 138.870 81.710 C 132.521 85.139, 132 85.670, 132 88.710 C 132 96.134, 125.255 97.915, 119.748 91.946 C 116.109 88.003, 113.207 88.737, 110.380 94.317 C 107.347 100.301, 104.114 100.497, 98.898 95.013 C 94.393 90.278, 92.590 90.329, 89.479 95.282 C 87.756 98.026, 86.874 98.500, 83.488 98.500 C 79.999 98.500, 79.225 98.046, 77.092 94.750 C 74.867 91.313, 74.282 91.001, 70.082 91.006 C 66.072 91.012, 65.293 91.376, 63.846 93.921 C 62.936 95.520, 61.023 97.594, 59.596 98.529 C 57.189 100.106, 56.819 100.111, 54.513 98.600 C 53.145 97.704, 51.127 95.210, 50.030 93.058 C 47.145 87.404, 44.507 86.929, 40.822 91.399 C 36.188 97.022, 31.573 95.811, 28.950 88.285 C 28.358 86.589, 27.003 84.972, 25.937 84.694 C 23.589 84.080, 23.573 84.255, 25.617 88.300 C 30.619 98.200, 40.718 102.330, 67.754 105.531 C 75.314 106.426, 87.575 108.279, 95 109.649 C 102.425 111.018, 113.189 113.008, 118.919 114.070 C 135.393 117.122, 148.944 116.168, 161.906 111.043 C 167.452 108.851, 170 108.922, 170 111.270 C 170 112.003, 172.250 113.554, 175 114.716 C 177.750 115.877, 180 116.465, 180 116.021 C 180 114.704, 183.255 113.855, 184.300 114.900 C 185.846 116.446, 185.192 135.350, 183.407 140.731 C 182.536 143.354, 180.514 147.161, 178.912 149.191 C 175.429 153.607, 175.212 154.665, 178.223 152.557 C 179.445 151.701, 181.245 151, 182.223 151 C 184.429 151, 184.593 154.263, 182.476 156.020 C 179.811 158.232, 181.778 158.320, 184.582 156.114 C 189.220 152.466, 193.141 153.609, 190.391 157.807 C 188.784 160.260, 188.790 160.270, 191.637 159.576 C 202.128 157.019, 208.965 145.093, 208.989 129.309 C 208.995 125.354, 209.420 121.858, 209.934 121.541 C 210.448 121.223, 212.707 121.922, 214.954 123.093 C 218.839 125.118, 220.082 125.201, 240.270 124.771 C 251.946 124.523, 262.246 123.991, 263.158 123.588 C 264.071 123.186, 265.379 121.500, 266.065 119.843 C 267.690 115.920, 269.714 113.953, 271.444 114.617 C 272.547 115.040, 272.716 117.073, 272.270 124.555 C 271.735 133.516, 271.834 134.150, 274.354 137.959 C 277.543 142.778, 277.589 143.459, 274.918 146.292 C 273.773 147.506, 272.412 149.278, 271.894 150.230 C 271.069 151.743, 271.330 151.884, 273.976 151.355 C 277.452 150.660, 278.011 152.225, 275.339 155.177 C 272.570 158.238, 274.811 158.555, 277.951 155.547 C 279.724 153.849, 281.497 152.977, 282.440 153.339 C 284.189 154.010, 284.531 156.554, 283 157.500 C 282.450 157.840, 282 158.522, 282 159.015 C 282 160.149, 289.263 157.619, 293.469 155.019 C 298.905 151.659, 299.500 149.300, 299.500 131.084 L 299.500 114.668 306.500 112.502 C 327.227 106.089, 346.064 90.773, 353.950 73.921 C 358.219 64.798, 360.707 52.580, 359.550 46.416 L 358.854 42.706 354.933 48.233 C 352.777 51.273, 348.197 56.082, 344.756 58.921 C 326.992 73.575, 303.479 77.573, 270 71.632 C 262.025 70.216, 246.500 67.477, 235.500 65.545 C 208.665 60.830, 201.406 59.287, 197.618 57.489 C 193.872 55.712, 185.250 41.946, 182.042 32.622 C 179.185 24.319, 176.363 20.226, 171.939 17.969 C 165.350 14.607, 156.877 15.998, 151 21.406 C 146.830 25.243, 145.307 25.272, 141.228 21.591 C 138.004 18.682, 131.705 15.937, 128.500 16.045 C 127.950 16.063, 126.043 16.712, 124.262 17.486 M 120.924 26.581 C 117.632 30.086, 117.680 36.966, 121.021 40.522 C 124.329 44.044, 130.093 43.968, 132.927 40.365 C 139.912 31.486, 128.561 18.451, 120.924 26.581 M 158.406 28.428 C 157.285 29.213, 155.792 31.600, 155.088 33.732 C 152.548 41.430, 157.947 47.983, 165.642 46.539 C 169.835 45.753, 172 42.235, 172 36.209 C 172 32.421, 171.489 30.869, 169.686 29.174 C 166.987 26.639, 161.481 26.274, 158.406 28.428 M 126 30.309 C 126 31.029, 126.666 32.491, 127.481 33.559 C 128.678 35.128, 129.134 35.239, 129.858 34.139 C 131.207 32.092, 130.019 29, 127.883 29 C 126.848 29, 126 29.589, 126 30.309 M 164.250 31.718 C 162.452 32.364, 162.711 34.429, 164.831 36.347 C 166.826 38.152, 168 37.637, 168 34.956 C 168 32.871, 165.955 31.105, 164.250 31.718 M 204.558 48.935 C 202.859 50.813, 202.936 50.904, 207.153 51.995 C 209.544 52.613, 212.287 53.348, 213.250 53.627 C 215.577 54.302, 215.460 52.855, 212.927 49.635 C 210.476 46.519, 207.008 46.229, 204.558 48.935 M 21.474 51.050 C 19.598 54.679, 20.292 57.641, 23.239 58.576 C 24.783 59.066, 25.879 58.633, 27.188 57.016 C 29.253 54.466, 29.446 52.702, 27.965 49.934 C 26.403 47.017, 23.282 47.553, 21.474 51.050 M 45.313 49.787 C 43.381 51.013, 42.185 55.311, 43.095 57.750 C 44.283 60.929, 48.266 60.741, 50.042 57.421 C 51.224 55.212, 51.213 54.471, 49.961 52.252 C 48.323 49.346, 47.061 48.676, 45.313 49.787 M 337.607 51.582 C 336.687 53.980, 336.837 54.119, 338.935 52.808 C 340 52.144, 340.648 51.240, 340.376 50.800 C 339.577 49.507, 338.260 49.879, 337.607 51.582 M 230.923 54.861 L 228.624 56.723 234.469 57.453 C 237.683 57.854, 240.963 58.432, 241.758 58.737 C 242.950 59.195, 242.918 58.743, 241.575 56.146 C 240.240 53.564, 239.346 53, 236.585 53 C 234.735 53, 232.187 53.838, 230.923 54.861 M 259.547 60.342 C 257.904 61.543, 258.364 61.811, 263.954 62.911 C 267.386 63.586, 270.371 63.962, 270.587 63.747 C 270.802 63.531, 270.066 62.375, 268.950 61.177 C 266.655 58.713, 262.303 58.327, 259.547 60.342 M 315.250 62.674 C 311.584 65.232, 312.673 65.990, 317.601 64.311 C 320.863 63.199, 321.809 62.494, 320.851 61.887 C 318.978 60.700, 317.855 60.858, 315.250 62.674 M 288 64.500 L 285.500 65.929 288.625 65.965 C 290.344 65.984, 293.269 66.258, 295.125 66.573 L 298.500 67.147 296.139 65.073 C 293.389 62.658, 291.460 62.522, 288 64.500 M 211.250 68.989 C 207.781 71.104, 206.875 74.631, 209.537 75.653 C 210.383 75.977, 211.881 75.513, 212.866 74.621 C 215.410 72.319, 216.635 72.587, 219.158 76 C 222.956 81.137, 226.452 78.918, 223.976 72.942 C 221.528 67.032, 216.845 65.578, 211.250 68.989 M 238.250 74.989 C 236.314 76.169, 235 77.785, 235 78.985 C 235 81.437, 237.182 81.582, 240.580 79.356 C 242.987 77.778, 243.202 77.819, 245.849 80.356 C 249.601 83.950, 252 83.840, 252 80.073 C 252 76.566, 248.021 72.998, 244.115 73.004 C 242.677 73.006, 240.037 73.899, 238.250 74.989 M 265.775 77.559 C 262.759 79.196, 260.576 82.505, 261.513 84.021 C 262.284 85.268, 266 85.307, 266 84.067 C 266 81.942, 270.196 81.836, 272.400 83.906 C 275.662 86.970, 278.212 86.677, 277.816 83.282 C 277.610 81.514, 276.314 79.768, 274.102 78.282 C 270.156 75.632, 269.441 75.569, 265.775 77.559 M 292 78.719 C 289.642 79.571, 287 82.179, 287 83.655 C 287 85.312, 291.167 85.433, 292.776 83.824 C 293.678 82.922, 294.410 83.061, 295.913 84.422 C 298.120 86.418, 300 85.793, 300 83.063 C 300 80.087, 295.293 77.531, 292 78.719 M 34.500 88 C 34.840 88.550, 35.541 89, 36.059 89 C 36.577 89, 37 88.550, 37 88 C 37 87.450, 36.298 87, 35.441 87 C 34.584 87, 34.160 87.450, 34.500 88 M 124 88.002 L 121.500 88.623 123.836 89.892 C 126.389 91.280, 127.362 90.917, 126.838 88.769 C 126.608 87.826, 125.700 87.580, 124 88.002 M 55 90.878 C 55 92.189, 57.585 94.082, 58.342 93.325 C 59.711 91.956, 58.922 90, 57 90 C 55.900 90, 55 90.395, 55 90.878 M 102 91.893 C 102 93.017, 104.601 94.066, 105.402 93.264 C 106.606 92.061, 105.949 91, 104 91 C 102.900 91, 102 91.402, 102 91.893 M 81.951 93.441 C 82.608 94.233, 83.788 94.635, 84.573 94.334 C 86.922 93.432, 86.188 92, 83.378 92 C 81.208 92, 80.962 92.249, 81.951 93.441 M 334.500 105 C 334.160 105.550, 334.359 106, 334.941 106 C 335.523 106, 336 105.550, 336 105 C 336 104.450, 335.802 104, 335.559 104 C 335.316 104, 334.840 104.450, 334.500 105 M 328.500 108.745 C 324.046 111.671, 309.631 118, 307.421 118 C 306.007 118, 305.395 122.062, 306.624 123.290 C 307.854 124.521, 328.686 112.214, 332.493 108.007 C 334.966 105.275, 333.319 105.579, 328.500 108.745 M 159.750 118.413 C 156.588 119.539, 154 120.719, 154 121.037 C 154 122.833, 175.386 130.948, 176.688 129.645 C 176.956 129.377, 177.541 127.535, 177.988 125.551 C 178.764 122.111, 178.645 121.876, 175.401 120.472 C 165.456 116.168, 165.898 116.226, 159.750 118.413 M 251 130.166 C 246.325 130.657, 236.762 130.808, 229.750 130.502 L 217 129.946 217 133.893 L 217 137.841 223.520 138.539 C 231.044 139.345, 250.822 138.385, 259.303 136.802 C 263.685 135.984, 264.971 135.366, 264.553 134.278 C 264.249 133.485, 264 131.973, 264 130.918 C 264 128.774, 264.155 128.783, 251 130.166 M 156.030 135.928 C 155.363 137.538, 153.958 139.633, 152.909 140.583 C 151.859 141.533, 151 142.760, 151 143.310 C 151 143.860, 151.823 143.565, 152.829 142.655 C 157.219 138.682, 159.929 142.318, 155.829 146.682 C 154.636 147.952, 153.997 149.331, 154.411 149.744 C 154.825 150.158, 156.064 149.260, 157.165 147.748 C 160.237 143.531, 164.366 144.580, 162.011 148.979 C 160.509 151.787, 162.004 151.504, 166.719 148.089 C 170.471 145.371, 175.666 139.290, 174.859 138.560 C 174.101 137.874, 159.814 133, 158.562 133 C 157.836 133, 156.697 134.317, 156.030 135.928 M 256.279 146.412 C 252.308 147.070, 248.782 147.885, 248.444 148.223 C 247.365 149.302, 251.745 151.004, 256.034 151.172 C 259.510 151.309, 260.660 150.823, 263.141 148.167 C 264.769 146.425, 265.516 145.048, 264.801 145.108 C 264.085 145.167, 260.251 145.754, 256.279 146.412" stroke="none" fill="black" fill-rule="evenodd"/>
</svg>