<svg xmlns="http://www.w3.org/2000/svg" width="306" height="330" viewBox="0 0 306 330" version="1.1">
	<path d="M 107.021 8.063 C 103.278 9.636, 101.183 11.891, 100.477 15.104 L 99.841 18 88.602 18 C 75.822 18, 70.216 19.312, 62 24.227 C 55.130 28.337, 51.976 33.449, 53.622 37.809 C 54.666 40.577, 54.558 40.757, 51.107 41.972 C 41.118 45.489, 28.319 56.266, 24.102 64.710 C 21.645 69.630, 21.314 77.575, 23.439 80.609 C 24.764 82.502, 24.523 83.090, 20.374 88.082 C 12.122 98.009, 7.900 108.798, 7.781 120.264 C 7.700 128.141, 8.779 131.308, 12.663 134.592 L 15.137 136.684 13.476 143.091 C 11.133 152.135, 11.134 167.708, 13.480 176.325 C 15.770 184.739, 18.994 188.485, 24.785 189.464 C 28.001 190.007, 29 190.624, 29 192.067 C 29 194.749, 33.776 208.641, 36.539 213.993 C 37.818 216.472, 41.302 221.026, 44.280 224.114 C 48.593 228.585, 50.700 229.968, 54.631 230.912 C 57.601 231.624, 60.479 231.758, 61.856 231.249 C 63.847 230.512, 65.209 231.460, 72.323 238.529 C 81.203 247.355, 89.140 252.057, 98.405 253.980 L 103.750 255.090 104.875 263.863 C 105.494 268.688, 106 275.108, 106 278.131 C 106 282.912, 105.616 283.993, 103.046 286.456 C 97.084 292.168, 95.212 301.165, 98.742 307.141 C 102.478 313.465, 116.745 317.364, 126.559 314.743 C 131.442 313.439, 131.678 313.473, 133.364 315.707 C 134.324 316.980, 137.320 319.142, 140.022 320.511 C 144.132 322.594, 146.348 323, 153.601 323 C 158.368 323, 164.109 322.448, 166.360 321.774 C 174.632 319.296, 181.097 309.316, 182.515 296.835 C 183.560 287.634, 183.624 287.500, 186.956 287.500 C 188.630 287.500, 190 287.558, 190 287.628 C 190 287.698, 189.325 289.371, 188.500 291.346 C 186.467 296.212, 186.620 299.864, 189.022 303.805 C 191.502 307.872, 199.829 311.977, 205.628 311.990 C 208.249 311.996, 210.256 312.607, 211.128 313.663 C 214.073 317.230, 220.717 319.143, 230.165 319.143 C 238.099 319.143, 239.918 318.794, 244.860 316.321 C 248.665 314.418, 251.476 312.090, 253.499 309.166 L 256.497 304.832 256.309 288.666 C 256.162 275.956, 256.536 270.526, 258.061 263.267 C 259.127 258.190, 260 251.102, 260 247.517 C 260 241.004, 260.002 241, 262.878 241 C 271.850 241, 280.763 232.206, 284.372 219.794 C 285.468 216.022, 286.656 213.927, 287.927 213.523 C 291.247 212.469, 294.988 208.943, 297.028 204.945 C 299.824 199.465, 299.578 192.466, 296.303 184.284 C 290.560 169.937, 286.591 165.498, 281.557 167.792 C 278.363 169.248, 270.477 179.124, 267.418 185.500 C 262.932 194.852, 264.698 205.379, 271.641 210.675 C 275.444 213.576, 275.896 216.324, 273.386 221.300 C 270.988 226.054, 267.100 229.812, 263.272 231.075 C 259.295 232.388, 257.195 231.038, 254.553 225.470 C 253.679 223.628, 250.722 219.669, 247.982 216.671 C 245.242 213.673, 243 210.901, 243 210.511 C 243 210.121, 243.619 208.384, 244.375 206.651 C 246.134 202.623, 249 193.181, 249 191.417 C 249 190.617, 249.621 190.301, 250.518 190.645 C 253.455 191.772, 257.607 188.951, 260.734 183.705 C 266.101 174.698, 267.403 156.315, 263.672 142.213 L 262.274 136.926 265.513 133.687 C 268.197 131.003, 268.874 129.393, 269.468 124.280 C 270.824 112.592, 266.068 99.242, 256.303 87.325 C 252.892 83.163, 252.823 82.919, 254.383 80.539 C 260.327 71.466, 247.943 51.874, 231.250 43.944 L 224 40.500 224 36.079 C 224 32.158, 223.501 31.179, 219.594 27.436 C 212.103 20.258, 197.869 16.261, 184.242 17.508 L 176.984 18.172 176.363 15.066 C 176.022 13.358, 174.416 10.845, 172.794 9.480 C 167.365 4.912, 155.056 6.584, 143.677 13.436 C 138.051 16.823, 137.789 16.881, 135.931 15.150 C 130.563 10.149, 112.558 5.736, 107.021 8.063 M 152.472 19.376 C 148.637 21.232, 144.178 24.157, 142.563 25.876 C 140.948 27.594, 139.303 29, 138.908 29 C 138.512 29, 136.234 27.358, 133.845 25.352 C 127.714 20.203, 120.431 17.021, 114.750 17.010 C 109.478 16.999, 109.353 17.208, 111.523 22.401 C 113.681 27.567, 112.097 30.490, 107.658 29.531 C 93.935 26.569, 88.510 26.040, 82.202 27.048 C 74.749 28.238, 66.929 31.316, 64.480 34.022 C 62.906 35.761, 63.031 35.995, 66.825 38.389 C 69.029 39.781, 71.148 41.430, 71.534 42.055 C 72.724 43.981, 69.686 45.961, 62.947 47.651 C 54.089 49.873, 45.697 54.273, 39.723 59.828 C 31.722 67.269, 28.995 76, 34.672 76 C 37.233 76, 42.132 79.082, 41.812 80.492 C 41.640 81.249, 38.350 84.499, 34.500 87.715 C 30.650 90.931, 25.897 95.948, 23.938 98.862 C 18.562 106.859, 15.265 121.710, 17.930 125.921 C 18.696 127.132, 19.206 127.095, 21.379 125.671 C 24.505 123.623, 27.366 123.531, 28.941 125.429 C 29.877 126.557, 29.570 128.032, 27.477 132.458 C 20.143 147.961, 18.153 162.476, 21.942 172.842 C 24.904 180.945, 25.569 181.430, 29.553 178.392 C 34.773 174.410, 36.359 175.357, 37.290 183.009 C 39.180 198.546, 42.492 207.752, 49.193 216.091 C 51.957 219.531, 56.556 223, 58.352 223 C 58.600 223, 59.732 221.425, 60.867 219.500 C 63.962 214.255, 66.187 214.883, 70.598 222.250 C 77.797 234.271, 92.759 245.474, 100.727 244.810 C 104.127 244.527, 104.543 244.155, 105.563 240.500 C 106.177 238.300, 107.383 236.363, 108.244 236.195 C 109.105 236.027, 112.086 237.912, 114.868 240.383 C 121.144 245.957, 130.929 252.655, 135.722 254.657 C 139.251 256.132, 139.515 256.078, 146.689 252.437 C 150.732 250.385, 157.430 245.813, 161.575 242.276 C 167.726 237.028, 169.376 236.067, 170.555 237.046 C 171.350 237.705, 172 239.225, 172 240.422 C 172 248.076, 183.845 245.740, 196.175 235.654 C 199.665 232.799, 203.652 228.122, 206.529 223.506 C 209.102 219.378, 211.723 216, 212.354 216 C 212.984 216, 214.872 217.634, 216.548 219.630 L 219.596 223.260 222.751 221.629 C 230.671 217.533, 240 196.930, 240 183.533 C 240 181.130, 240.273 178.452, 240.607 177.582 C 241.518 175.207, 245.052 175.676, 248.076 178.572 L 250.761 181.145 253.130 177.822 C 255.352 174.707, 255.500 173.627, 255.500 160.500 C 255.500 145.796, 254.688 141.519, 250.295 133.101 C 249.033 130.682, 248 127.855, 248 126.819 C 248 123.352, 254.499 122.486, 257.090 125.608 C 259.284 128.252, 260 126.976, 260 120.421 C 260 108.570, 252.454 94.476, 241.570 86 C 234.929 80.828, 235.891 76, 243.562 76 C 246.155 76, 246.231 75.846, 245.601 71.908 C 244.831 67.092, 240.876 61.842, 234.158 56.719 C 228.428 52.348, 224.656 50.676, 215.398 48.402 C 204.397 45.700, 203.416 43.780, 210.488 38.795 C 214.527 35.948, 214.829 35.468, 213.498 33.998 C 210.875 31.099, 203.688 28.198, 196 26.935 C 189.476 25.862, 187.459 25.931, 180.500 27.461 C 167.327 30.357, 166.105 30.438, 165.348 28.464 C 164.978 27.500, 165.420 24.703, 166.330 22.248 C 167.240 19.793, 167.736 17.382, 167.433 16.892 C 166.232 14.948, 159.208 16.114, 152.472 19.376 M 196 60.945 C 189.317 62.252, 181.006 68.157, 178.986 73.034 C 178.074 75.236, 177.260 75.924, 176.107 75.465 C 156.192 67.549, 156.617 67.639, 139 67.606 C 123.519 67.577, 121.975 67.750, 114 70.401 C 109.325 71.956, 104.297 73.845, 102.827 74.600 C 100.303 75.895, 100.010 75.791, 97.571 72.736 C 90.120 63.401, 85.685 61.049, 75.500 61.032 C 63.279 61.010, 54.735 66.785, 49.245 78.775 C 47.185 83.275, 46.848 85.317, 47.156 91.418 C 47.602 100.242, 50.819 106.194, 58.550 112.496 L 63.577 116.594 61.705 125.047 C 60.675 129.696, 58.926 136.875, 57.818 141 C 54.759 152.387, 53.812 159.821, 54.488 167.154 C 55.129 174.096, 57.811 182.722, 60.464 186.370 C 61.317 187.541, 62.769 189.625, 63.693 191 C 66.700 195.478, 76.354 203.885, 83 207.814 C 91.521 212.852, 100.886 216.493, 112.260 219.192 C 125.956 222.442, 152.556 222.391, 165.900 219.089 C 197.461 211.279, 217.928 193.871, 221.921 171.440 C 223.809 160.838, 223.411 156.810, 218.524 137 C 216.101 127.176, 214 117.446, 214 116.045 C 214 115.604, 215.359 114.680, 217.020 113.992 C 218.681 113.304, 221.181 111.385, 222.576 109.728 C 232.566 97.855, 232.640 83.476, 222.775 70.785 C 217.594 64.119, 204.458 59.292, 196 60.945 M 193.919 69.728 C 188.555 72.400, 184.578 76.809, 183.449 81.331 C 182.626 84.630, 180.407 85.806, 178.114 84.158 C 174.053 81.238, 164.727 77.694, 156.500 75.945 C 138.462 72.110, 120.702 73.987, 106 81.282 C 101.325 83.602, 97.172 85.647, 96.771 85.826 C 96.370 86.006, 94.973 83.756, 93.666 80.826 C 90.874 74.571, 89.092 72.813, 82.659 69.967 C 78.456 68.108, 77.280 67.989, 72.748 68.961 C 65.742 70.463, 57.998 76.369, 55.894 81.815 C 54.503 85.417, 54.841 94.683, 56.509 98.676 C 58.393 103.184, 61.740 106.328, 68.074 109.537 C 73.415 112.244, 73.664 112.746, 71.675 116.800 C 70.946 118.285, 69.762 122.650, 69.043 126.500 C 68.324 130.350, 66.858 136.875, 65.784 141 C 61.258 158.385, 60.729 162.159, 62.002 168 C 64.903 181.312, 71.973 191.344, 84.345 199.702 C 123.928 226.443, 194.546 215.673, 211.252 180.347 C 213.985 174.569, 214.546 172.111, 214.850 164.603 C 215.213 155.623, 214.041 148.980, 207.775 124.500 C 204.262 110.772, 204.236 111.217, 208.636 109.382 C 218.613 105.223, 222.449 99.390, 221.810 89.353 C 221.331 81.832, 217.928 76.207, 211.071 71.602 C 204.531 67.210, 199.972 66.712, 193.919 69.728 M 72.500 75.697 C 68.927 76.603, 63.823 81.179, 62.288 84.853 C 59.160 92.340, 62.455 102.289, 68.955 104.981 C 73.274 106.770, 76.500 105.576, 79.030 101.252 C 80.237 99.188, 83.726 95.200, 86.782 92.389 L 92.340 87.277 90.322 83.389 C 89.213 81.250, 86.999 78.756, 85.402 77.847 C 82.183 76.014, 75.586 74.914, 72.500 75.697 M 193.500 76.816 C 188.987 78.923, 187.579 80.348, 186.056 84.352 C 185.057 86.980, 185.366 87.494, 191.498 93.389 C 195.074 96.827, 198 100.086, 198 100.632 C 198 102.490, 202.072 106, 204.227 106 C 207.444 106, 212.778 101.946, 214.609 98.109 C 216.677 93.777, 216.017 85.841, 213.285 82.176 C 208.724 76.056, 200.122 73.726, 193.500 76.816 M 72.349 82.698 C 66.664 85.532, 65.240 92.860, 69.435 97.694 L 71.870 100.500 78.387 93.500 C 81.972 89.650, 84.926 86.180, 84.952 85.789 C 84.979 85.398, 84.015 84.160, 82.811 83.039 C 80.233 80.637, 76.715 80.522, 72.349 82.698 M 193.424 83.312 L 190.737 85.623 195.020 89.016 C 197.375 90.881, 200.560 94.391, 202.097 96.814 L 204.891 101.220 207.446 98.464 C 212.021 93.527, 210.435 85.247, 204.316 82.117 C 200.798 80.318, 196.335 80.807, 193.424 83.312 M 92.817 144.718 C 89.275 146.915, 87.518 150.385, 87.637 154.947 C 87.896 164.816, 97.823 169.407, 105.017 162.985 C 108.073 160.256, 108.400 159.437, 108.447 154.377 C 108.496 149.193, 108.247 148.573, 105.038 145.892 C 101.076 142.583, 96.905 142.182, 92.817 144.718 M 171.400 146.400 C 167.550 150.250, 166.891 154.954, 169.494 159.989 C 174.368 169.414, 187.322 167.476, 188.712 157.114 C 189.427 151.782, 188.575 148.847, 185.384 145.657 C 181.377 141.650, 175.857 141.943, 171.400 146.400 M 98.362 149.500 C 97.542 151.636, 98.665 154, 100.500 154 C 102.620 154, 103.506 151.315, 101.989 149.487 C 100.415 147.590, 99.093 147.594, 98.362 149.500 M 178.362 149.500 C 177.469 151.827, 178.727 154, 180.969 154 C 183.254 154, 183.748 151.148, 181.800 149.200 C 180.190 147.590, 179.057 147.688, 178.362 149.500 M 130 160.116 C 120.385 163.013, 120.866 170.424, 131.040 176.143 C 136.156 179.018, 136.603 183.120, 132.056 185.471 C 128.529 187.295, 125.539 186.421, 122.257 182.607 C 121.023 181.173, 119.546 180, 118.975 180 C 117.073 180, 116.760 182.985, 118.399 185.487 C 121.971 190.938, 130.954 192.881, 135.869 189.264 C 138.453 187.363, 138.553 187.363, 141.500 189.219 C 143.741 190.630, 145.831 191.010, 149.758 190.721 C 156.046 190.258, 160 187.211, 160 182.826 C 160 179.155, 158.132 179.217, 154.813 183 C 150.285 188.160, 142 186.330, 142 180.171 C 142 178.977, 142.584 178, 143.299 178 C 144.013 178, 146.513 176.159, 148.855 173.909 C 152.326 170.574, 153.056 169.251, 152.807 166.757 C 152.337 162.070, 148.511 159.813, 140.341 159.403 C 136.579 159.215, 131.925 159.536, 130 160.116 M 279.693 182.250 C 275.792 187.515, 274 192.025, 274 196.581 C 274 200.007, 274.523 201.266, 276.635 202.927 C 279.926 205.517, 284.062 205.580, 287.139 203.088 C 290.538 200.336, 290.324 193.418, 286.587 185.250 C 285.014 181.813, 283.361 179, 282.914 179 C 282.467 179, 281.018 180.463, 279.693 182.250 M 233 224.700 C 227.076 230.755, 218.709 233.520, 213.976 230.987 C 212.364 230.124, 211.479 230.776, 207.988 235.400 C 203.510 241.331, 191.608 250.169, 184.920 252.528 C 178.797 254.688, 171.824 254.436, 168.650 251.939 L 166.029 249.878 159.642 254.436 C 156.128 256.943, 150.678 260.174, 147.530 261.615 C 138.701 265.657, 134.616 264.863, 122.129 256.682 C 116.558 253.032, 112 250.463, 112 250.974 C 112 251.484, 115.037 254.962, 118.750 258.701 C 123.304 263.288, 127.689 266.557, 132.229 268.750 C 135.930 270.538, 139.140 272, 139.362 272 C 139.585 272, 140.001 271.102, 140.288 270.005 C 141.094 266.924, 143.858 266.414, 146.333 268.889 C 148.321 270.876, 148.500 272.073, 148.500 283.361 L 148.500 295.667 145.172 299.456 C 141.064 304.135, 139.539 307.355, 140.385 309.560 C 140.918 310.950, 141.434 310.652, 143.306 307.874 C 147.252 302.018, 149.287 303.681, 147.438 311.250 C 146.457 315.267, 148.972 314.790, 151.802 310.422 C 154.578 306.138, 156.631 306.406, 156.167 310.992 L 155.834 314.286 159.955 313.733 C 165.388 313.004, 168.841 310.624, 170.611 306.389 C 172.395 302.119, 174.618 289.970, 175.441 280 C 176.144 271.472, 177.661 265, 178.957 265 C 182.284 265, 183 266.354, 183 272.641 L 183 279.069 188.250 278.491 C 191.137 278.173, 195.525 277.692, 198 277.420 C 200.475 277.149, 204.666 276.401, 207.313 275.758 C 211.478 274.747, 212.043 274.315, 211.511 272.545 C 210.170 268.088, 209.820 263.229, 210.795 262.626 C 213.445 260.989, 215.430 263.978, 222.378 280.063 C 224.988 286.108, 225.401 291.324, 223.551 294.901 C 222.641 296.662, 221.285 298.337, 220.539 298.623 C 218.413 299.439, 216.651 304.554, 217.793 306.594 C 218.628 308.087, 218.864 307.898, 219.440 305.272 C 220.310 301.313, 223.589 298.189, 225.192 299.792 C 226.051 300.651, 226.024 301.976, 225.086 305.108 C 224.068 308.506, 224.079 309.431, 225.145 310.090 C 226.083 310.669, 226.893 309.708, 228.002 306.699 C 229.135 303.624, 230.178 302.410, 231.901 302.164 C 234.156 301.842, 234.225 302.015, 233.570 306.383 L 232.887 310.938 237.628 309.511 C 240.236 308.726, 243.524 306.930, 244.935 305.520 C 247.477 302.978, 247.506 302.771, 248.120 282.228 C 248.461 270.828, 249.295 258.800, 249.973 255.500 C 251.302 249.028, 250.810 241.835, 248.609 235.560 C 246.971 230.890, 239.548 220.974, 237.755 221.061 C 237.065 221.095, 234.925 222.732, 233 224.700 M 115.225 276.701 L 115.059 288.389 110.530 292.729 C 106.959 296.151, 106.008 297.750, 106.039 300.285 L 106.078 303.500 107.497 300.235 C 109.019 296.734, 111.537 295.137, 113.090 296.690 C 113.698 297.298, 113.464 299.038, 112.449 301.468 C 111.145 304.588, 111.094 305.440, 112.170 306.105 C 113.083 306.669, 113.950 305.961, 114.994 303.801 C 117.896 297.791, 122.463 297.285, 120.222 303.222 C 119.569 304.952, 119.222 306.555, 119.450 306.784 C 120.041 307.375, 127.077 305.043, 129.737 303.374 C 133.157 301.229, 136.064 294.539, 136.875 286.951 L 137.607 280.104 132.553 277.410 C 127.827 274.891, 117.185 267.425, 115.945 265.759 C 115.640 265.349, 115.316 270.273, 115.225 276.701 M 207.250 283.965 C 202.151 285.213, 201 285.867, 201 287.515 C 201 288.627, 199.875 291.191, 198.500 293.215 C 195.670 297.379, 195.474 298.514, 197.250 300.441 C 198.283 301.562, 198.762 301.251, 200.009 298.649 C 202.148 294.187, 204.579 294.462, 204.222 299.126 C 203.998 302.057, 204.333 302.854, 205.972 303.282 C 207.569 303.700, 208 303.331, 208 301.547 C 208 300.301, 209.824 297.210, 212.052 294.678 C 215.668 290.570, 216.033 289.692, 215.439 286.526 C 215.073 284.575, 214.487 282.856, 214.137 282.706 C 213.786 282.557, 210.688 283.123, 207.250 283.965" stroke="none" fill="black" fill-rule="evenodd"/>
</svg>