<svg xmlns="http://www.w3.org/2000/svg" width="323" height="273" viewBox="0 0 323 273" version="1.1">
	<path d="M 50.929 8.358 C 39.409 11.487, 29.373 21.435, 21.568 37.464 C 16.256 48.372, 13.793 55.739, 11.122 68.700 C 8.211 82.830, 7 93.912, 6.997 106.474 C 6.993 122.657, 17.865 242.839, 20.001 250.219 C 21.488 255.357, 25.335 259.610, 31.380 262.799 L 36.500 265.500 162.473 265.249 L 288.446 264.997 292.926 262.749 C 295.723 261.345, 298.575 258.775, 300.518 255.909 C 304.126 250.587, 305.119 244.979, 307.496 216.500 C 308.323 206.600, 309.428 194.900, 309.953 190.500 C 310.478 186.100, 311.611 173.725, 312.472 163 C 313.333 152.275, 314.480 138.775, 315.020 133 C 318.665 94.059, 313.520 59.593, 300.177 33.550 C 294.210 21.905, 285.948 13.289, 277.500 9.904 L 271.500 7.500 163.500 7.309 C 80.127 7.161, 54.458 7.400, 50.929 8.358 M 50.601 21.473 C 47.357 22.806, 44.382 24.258, 43.991 24.699 C 32.992 37.093, 27.150 49.253, 22.190 70.079 C 20.605 76.733, 17.604 106.524, 18.328 108.412 C 18.885 109.863, 24.332 109.992, 75.222 109.758 L 131.500 109.500 132.136 103 C 132.486 99.425, 132.693 96.407, 132.597 96.294 C 132.500 96.181, 111.017 96.022, 84.855 95.942 C 58.694 95.862, 36.686 95.424, 35.948 94.968 C 33.163 93.246, 39.090 60.288, 45.115 44 C 47.527 37.479, 54.006 26.804, 58.316 22.250 L 61.392 19 58.946 19.024 C 57.601 19.037, 53.846 20.139, 50.601 21.473 M 66.394 23.756 C 63.586 26.365, 60.758 29.512, 60.109 30.750 L 58.930 33 106.715 33.185 C 147.421 33.343, 226.275 33.278, 256.276 33.063 L 265.051 33 263.565 30.126 C 262.748 28.546, 259.861 25.396, 257.151 23.126 L 252.222 19 161.861 19.006 L 71.500 19.012 66.394 23.756 M 265.681 22.287 C 274.858 32.111, 280.600 46.459, 286.975 75.500 C 287.578 78.250, 288.169 83.875, 288.286 88 L 288.500 95.500 239.690 95.760 L 190.880 96.019 191.609 100.760 C 192.009 103.367, 192.411 106.400, 192.501 107.500 C 192.663 109.471, 193.480 109.504, 248.833 109.758 L 305 110.017 304.997 105.258 C 304.991 97.734, 303.128 78.033, 301.851 72 C 299.310 59.996, 292.736 42.512, 288.209 35.718 C 281.160 25.138, 275.661 21.056, 266.590 19.671 L 262.679 19.074 265.681 22.287 M 81.777 39.766 C 55.043 40.022, 54.015 40.104, 52.963 42.070 C 51.057 45.631, 45.859 63.193, 46.517 63.850 C 46.711 64.044, 98.868 64.270, 162.422 64.351 C 277.556 64.499, 277.973 64.493, 277.333 62.500 C 276.980 61.400, 276.341 59.150, 275.914 57.500 C 274.824 53.293, 272.201 46.289, 270.438 42.880 C 269.162 40.412, 268.344 39.993, 264.724 39.951 C 243.155 39.701, 103.326 39.559, 81.777 39.766 M 44.661 71.482 C 43.913 72.230, 43.014 75.588, 42.663 78.946 C 42.312 82.304, 41.746 86.164, 41.404 87.525 L 40.783 90 87.814 90 L 134.844 90 138.172 86.113 C 140.002 83.975, 143.300 81.163, 145.500 79.863 C 149.107 77.732, 150.680 77.500, 161.500 77.500 C 175.246 77.500, 177.110 78.157, 184.069 85.459 L 188.397 90 235.314 90 L 282.230 90 281.545 84.250 C 281.168 81.088, 280.386 76.867, 279.808 74.870 L 278.755 71.240 269.128 70.632 C 263.832 70.297, 211.467 70.046, 152.760 70.073 C 64.183 70.115, 45.788 70.355, 44.661 71.482 M 155.500 83.935 C 145.429 86.387, 139.023 95.442, 139.006 107.250 C 139 110.751, 139.199 111, 142 111 C 144.964 111, 145 110.936, 145 105.578 C 145 92.599, 158.743 85.162, 171.007 91.504 C 175.044 93.591, 178 99.703, 178 105.960 C 178 110.893, 178.064 111, 181 111 C 183.877 111, 184 110.821, 184 106.615 C 184 90.209, 171.286 80.092, 155.500 83.935 M 154.678 98.803 C 152.985 100.674, 152.572 102.572, 152.842 107.250 L 153 110 161.500 110 L 170 110 170 105.057 C 170 101.082, 169.564 99.808, 167.777 98.557 C 164.643 96.362, 156.753 96.510, 154.678 98.803 M 133.326 122.583 C 131.077 124.832, 131 125.463, 131 141.589 C 131 160.120, 131.845 164.518, 136.207 168.700 L 139.127 171.500 159.765 171.809 C 183.290 172.161, 187.622 171.307, 191.081 165.635 C 192.778 162.852, 192.993 160.455, 192.996 144.297 C 192.999 132.605, 192.585 125.183, 191.839 123.547 C 190.483 120.570, 192.798 120.790, 159.576 120.480 C 135.728 120.257, 135.645 120.264, 133.326 122.583 M 19.679 124.750 C 20.420 136.737, 23.221 169.618, 24.045 176 C 24.577 180.125, 25.010 185.699, 25.007 188.387 C 25.003 191.074, 25.523 197.201, 26.162 202.002 L 27.324 210.731 32.238 211.866 C 34.941 212.490, 38.243 213, 39.576 213 C 41.797 213, 42 212.607, 42 208.310 C 42 205.731, 41.549 201.118, 40.998 198.060 C 39.446 189.443, 34.745 137.106, 35.376 135.462 C 35.857 134.210, 42.194 134, 79.469 134 L 123 134 123 127.500 L 123 121 71.224 121 L 19.447 121 19.679 124.750 M 200.364 125.640 C 200.714 128.191, 201 131.116, 201 132.140 C 201 133.925, 202.752 134, 244.393 134 C 281.638 134, 287.866 134.208, 288.350 135.469 C 288.660 136.277, 287.998 145.840, 286.879 156.719 C 285.759 167.599, 284.474 181.225, 284.023 187 C 283.571 192.775, 282.866 200.988, 282.454 205.250 L 281.707 213 284.603 212.976 C 287.532 212.952, 294.839 211.495, 295.538 210.795 C 296.775 209.559, 302.069 156.746, 303.511 131.250 L 304.092 121 251.910 121 L 199.728 121 200.364 125.640 M 155.672 130.043 C 151.540 133.293, 150.941 140.798, 154.527 144.384 C 155.588 145.445, 155.692 146.586, 154.962 149.134 C 153.561 154.016, 153.784 158.575, 155.491 159.992 C 156.578 160.895, 158.540 160.996, 162.741 160.365 L 168.500 159.500 168.623 152.922 C 168.690 149.304, 169.325 145.262, 170.032 143.940 C 170.740 142.617, 171.360 139.576, 171.410 137.181 C 171.484 133.590, 171.009 132.405, 168.694 130.414 C 165.119 127.338, 159.321 127.173, 155.672 130.043 M 203.379 140.803 C 201.423 141.082, 201.210 141.900, 200.650 151.303 C 200.315 156.911, 199.756 162.963, 199.407 164.750 L 198.773 168 238.819 168 C 276.317 168, 278.901 167.887, 279.429 166.222 C 279.967 164.530, 282.022 141.688, 281.669 141.336 C 281.348 141.018, 205.495 140.501, 203.379 140.803 M 42.465 149.250 C 42.797 153.787, 43.310 159.863, 43.606 162.750 L 44.144 168 83.322 167.985 C 104.870 167.976, 123.123 167.575, 123.885 167.092 C 124.997 166.388, 125.046 165.572, 124.135 162.958 C 123.511 161.167, 123 155.494, 123 150.351 L 123 141 82.431 141 L 41.863 141 42.465 149.250 M 45.030 175.250 C 45.143 180.051, 48.013 204.347, 48.528 204.861 C 49.375 205.708, 234.395 206.114, 257.640 205.320 L 275.779 204.700 276.944 191.600 C 277.584 184.395, 278.317 177.488, 278.573 176.250 L 279.038 174 236.387 174 C 193.895 174, 193.723 174.008, 190.118 176.250 C 186.683 178.386, 185.322 178.517, 163.176 178.831 L 139.853 179.163 134.577 176.581 L 129.301 174 87.150 174 C 54.081 174, 45.006 174.269, 45.030 175.250 M 49.857 211.640 C 47.072 212.429, 48.859 215.548, 54.396 219.560 C 57.267 221.641, 61.390 225.723, 63.558 228.630 L 67.500 233.916 162.097 233.958 C 254.555 233.999, 256.715 233.956, 257.597 232.072 C 259.425 228.169, 266.220 221.061, 270.547 218.525 C 273.748 216.649, 275 215.276, 275 213.641 L 275 211.365 163.250 211.270 C 101.787 211.218, 50.761 211.384, 49.857 211.640 M 28.384 225.750 C 28.737 230.012, 29.374 236.425, 29.799 240 C 31.300 252.610, 33.532 254, 52.271 254 L 65.641 254 64.931 249.250 C 63.072 236.828, 57.841 228.936, 47.609 223.115 C 43.425 220.734, 34.097 218, 30.161 218 C 27.756 218, 27.747 218.043, 28.384 225.750 M 285 219.428 C 276.950 221.740, 273.523 223.754, 268.375 229.197 C 263.206 234.663, 259.653 242.062, 258.382 250.010 L 257.744 254 270.971 254 C 285.919 254, 290 252.828, 292.019 247.953 C 292.682 246.355, 293.757 238.961, 294.410 231.523 L 295.597 218 292.549 218.067 C 290.872 218.105, 287.475 218.717, 285 219.428 M 70.504 241.846 C 70.859 242.756, 71.628 245.863, 72.213 248.750 L 73.276 254 162.138 254 L 251 254 251 251.934 C 251 250.798, 251.387 249.111, 251.859 248.184 C 252.332 247.258, 252.986 245.083, 253.314 243.352 L 253.909 240.204 161.884 240.198 C 76.677 240.192, 69.907 240.314, 70.504 241.846" stroke="none" fill="black" fill-rule="evenodd"/>
</svg>