<svg xmlns="http://www.w3.org/2000/svg" width="367" height="376" viewBox="0 0 367 376" version="1.1">
	<path d="M 174 7.993 C 145.563 10.927, 120.702 25.946, 105.552 49.344 C 99.610 58.519, 97.953 61.890, 95.151 70.500 C 90.618 84.428, 89.461 97.040, 91.386 111.563 C 93.337 126.281, 96.838 136.715, 104.766 151.436 C 115.283 170.966, 117.365 177.291, 115.087 182.791 C 113.266 187.187, 108.585 189.390, 101.013 189.414 C 87.423 189.458, 78.798 180.587, 78.736 166.500 C 78.727 164.300, 78.833 157.049, 78.973 150.387 C 79.187 140.138, 78.880 137.177, 76.977 131.146 C 75.740 127.226, 74.114 123.509, 73.364 122.887 C 72.614 122.264, 72 121.322, 72 120.794 C 72 118.313, 61.473 109.035, 55.682 106.413 C 47.414 102.668, 35.169 102.429, 27.500 105.861 C 12.588 112.535, 6.701 129.308, 17.476 134.421 C 20.147 135.689, 21.691 135.750, 26.846 134.791 C 32.520 133.736, 33.132 133.798, 34.418 135.558 C 35.451 136.969, 35.544 137.983, 34.776 139.419 C 34.132 140.622, 33.980 144.573, 34.378 149.751 C 35.012 158.004, 34.967 158.234, 31.511 164.414 C 28.641 169.547, 28 171.733, 28 176.396 C 28 179.580, 28.681 183.417, 29.543 185.083 C 31.391 188.657, 34.497 198.522, 36.030 205.688 C 37.418 212.179, 42.818 218.598, 49.623 221.847 C 64.205 228.809, 65.472 229.992, 58.372 230.017 C 51.346 230.042, 41.388 232.369, 34.648 235.560 C 18.883 243.025, 7 261.050, 7 277.500 C 7 288.637, 12.911 302.203, 20.771 309.104 C 31.786 318.775, 47.970 319.759, 52.483 311.033 C 55.231 305.718, 54.471 301.746, 49.675 296.358 C 43.657 289.597, 43.429 288.535, 47.482 286.143 C 49.335 285.050, 51.897 282.324, 53.175 280.085 C 54.454 277.847, 55.966 276.012, 56.535 276.008 C 57.104 276.003, 60.219 276.931, 63.459 278.070 C 70.239 280.453, 76.981 280.040, 83.260 276.856 C 86.839 275.041, 87.289 275.028, 92.651 276.587 C 96.112 277.593, 100.356 278.052, 103.660 277.778 L 109.036 277.332 107.098 279.416 C 103.817 282.944, 97.184 296.180, 95.550 302.460 C 93.554 310.135, 93.545 325.834, 95.533 333.465 C 102.418 359.897, 131.789 376.026, 154.283 365.728 C 160.811 362.739, 164.528 359.375, 166.491 354.676 C 168.403 350.101, 168.384 348.613, 166.365 344.357 C 164.405 340.226, 160.779 338.185, 153.216 336.954 C 149.587 336.363, 146.780 335.230, 145.327 333.768 C 143.285 331.714, 143.173 331.102, 144.147 327.290 C 145.175 323.268, 144.976 321.854, 142.541 315.869 C 142.058 314.682, 142.646 313.970, 144.702 313.254 C 150.721 311.156, 158 302.100, 158 296.710 C 158 294.924, 160.442 292.786, 165.500 290.142 C 167.700 288.992, 170.665 286.999, 172.089 285.712 C 175.371 282.747, 179.406 274.196, 181.060 266.704 C 182.294 261.113, 184 258.120, 184 261.546 C 184 262.462, 185.129 266.912, 186.509 271.436 C 189.549 281.404, 193.470 286.373, 201.797 290.811 C 206.701 293.425, 207.859 294.543, 208.384 297.172 C 209.484 302.668, 213.759 308.701, 218.929 312.051 C 223.390 314.942, 223.770 315.476, 222.929 317.687 C 221.712 320.888, 221.747 326.205, 223.007 329.519 C 223.857 331.754, 223.662 332.463, 221.757 334.056 C 219.148 336.238, 218.524 336.461, 210.610 338.031 C 201.556 339.828, 197.845 345.231, 200.087 353.352 C 203.310 365.024, 219.315 371.460, 236.201 367.875 C 252.767 364.357, 266.448 351.324, 271.953 333.817 C 273.733 328.156, 273.434 307.383, 271.488 301.449 C 268.460 292.216, 264.510 284.818, 259.648 279.273 L 257.695 277.047 264.098 277.608 C 268.614 278.004, 271.774 277.708, 274.825 276.603 C 278.954 275.107, 279.339 275.136, 283.325 277.245 C 289.033 280.265, 299.700 280.220, 305.710 277.150 C 308.026 275.968, 310.299 275, 310.761 275 C 311.223 275, 312.580 277.013, 313.775 279.474 C 315 281.995, 317.482 284.941, 319.462 286.224 C 321.394 287.476, 322.981 288.936, 322.988 289.469 C 322.994 290.001, 320.689 292.778, 317.864 295.638 C 313.453 300.104, 312.727 301.389, 312.727 304.730 C 312.727 312.635, 317.827 316.990, 327.090 316.996 C 342.111 317.006, 356.792 302.337, 360.060 284.053 C 361.189 277.733, 361.128 275.985, 359.542 269.195 C 357.188 259.123, 353.157 251.513, 346.723 244.994 C 340.074 238.258, 328.719 232.602, 318.734 231.053 C 314.755 230.436, 309.942 229.683, 308.037 229.380 L 304.575 228.830 307.037 226.964 C 308.392 225.937, 311.975 224.184, 315 223.067 C 324.099 219.708, 330.829 211.492, 331.465 202.969 C 331.619 200.909, 331.974 198.835, 332.255 198.361 C 332.535 197.888, 333.077 195.925, 333.458 194 C 333.839 192.075, 335.017 188.592, 336.076 186.261 C 339.230 179.312, 338.682 171.849, 334.407 163.517 C 331.148 157.166, 330.922 156.204, 331.912 152.901 C 333.284 148.319, 333.303 142.928, 331.959 139.392 C 331.146 137.254, 331.246 136.325, 332.416 135.156 C 333.661 133.911, 334.574 133.855, 337.823 134.829 C 348.266 137.958, 355.059 133.709, 354.978 124.101 C 354.923 117.541, 348.640 109.431, 341.195 106.312 C 324.316 99.240, 304.999 105.418, 294.929 121.110 C 289.483 129.597, 288 137.072, 288 156.032 C 288 171.915, 287.890 172.827, 285.377 177.871 C 283.668 181.301, 281.342 184.069, 278.700 185.817 C 275.124 188.184, 273.673 188.500, 266.389 188.500 C 258.584 188.500, 257.958 188.336, 254.965 185.500 C 251.940 182.633, 251.821 182.228, 252.277 176.349 C 252.682 171.128, 253.999 167.734, 260.997 153.884 C 270.166 135.738, 271.787 131.773, 273.006 124.500 C 273.468 121.750, 274.372 117.475, 275.017 115 C 276.385 109.749, 275.768 82.218, 274.177 77.500 C 273.620 75.850, 272.392 72.025, 271.448 69 C 259.034 29.237, 217.870 3.467, 174 7.993 M 165.500 20.450 C 157.330 22.157, 147.174 26.059, 140.325 30.123 C 134.771 33.418, 122.212 44.989, 116.580 52 C 112.961 56.505, 106.446 69.936, 104.453 77 C 101.952 85.863, 101.428 106.054, 103.437 116.073 C 106.226 129.979, 110.006 139.821, 117.428 152.500 C 129.192 172.600, 130.038 183.895, 120.493 193.440 C 115.654 198.279, 107.990 200.422, 97.977 199.736 C 88.845 199.110, 82.099 196.066, 76.769 190.166 C 69.247 181.840, 67.812 176.431, 67.927 156.842 C 68.031 138.963, 67.069 133.077, 62.986 126.640 C 54.979 114.013, 37.317 110.344, 26.693 119.101 C 22.143 122.852, 21.536 125.645, 25.750 123.447 C 27.318 122.629, 31.318 122.010, 35.054 122.006 C 43.752 121.998, 50.116 125.748, 53.187 132.691 C 55.056 136.916, 55.188 138.591, 54.624 150.922 C 54.283 158.390, 53.721 167.604, 53.376 171.398 C 52.153 184.844, 56.885 196.975, 67.011 206.349 C 74.032 212.850, 79.991 216.165, 88.716 218.426 C 101.217 221.666, 106.931 219.672, 115.160 209.201 C 120.162 202.837, 122.273 201.892, 124.300 205.110 C 126.675 208.882, 116.930 221.958, 106.762 228.642 C 98.182 234.282, 81.976 238.208, 57.500 240.574 C 38.442 242.416, 26.004 250.773, 20.402 265.500 C 17.776 272.403, 17.898 283.915, 20.661 290.051 C 24.790 299.215, 33.192 305.953, 40.500 305.958 L 43.500 305.961 39.220 302.372 C 34.411 298.341, 32.301 294.799, 30.357 287.500 C 28.704 281.290, 29.407 276.979, 33.163 270.302 C 36.815 263.811, 40.379 260.777, 47.734 257.900 C 52.929 255.868, 55.928 255.575, 78 254.944 C 105.527 254.157, 109.475 253.431, 122.237 246.807 C 135.058 240.152, 138.302 235.910, 141.448 221.687 C 141.968 219.334, 142.514 218.925, 144.785 219.187 C 147.080 219.452, 147.551 220.038, 147.830 222.976 C 148.183 226.687, 145.903 237.601, 143.230 245 C 140.564 252.380, 136.138 259.910, 130.298 267 C 116.893 283.276, 110.903 292.449, 106.545 303.372 C 104.393 308.766, 104.462 325.450, 106.666 332.312 C 109.778 342.006, 117.285 350.489, 126.864 355.136 C 133.549 358.379, 145.984 358.428, 151.138 355.232 C 153.138 353.991, 155.388 352.222, 156.138 351.301 C 157.348 349.812, 157.277 349.720, 155.500 350.475 C 151.584 352.137, 146.096 352.170, 140.572 350.564 C 126.862 346.578, 119.354 331.317, 123.075 315 C 125.564 304.090, 129.588 298.267, 145.575 282.448 C 166.459 261.784, 173.044 251.453, 178.322 231.080 C 179.630 226.031, 181.172 221.428, 181.749 220.851 C 183.784 218.816, 186.898 220.927, 187.584 224.806 C 191.803 248.660, 199.217 260.942, 223.074 283.604 C 231.861 291.950, 237.776 299.190, 240.828 305.335 C 243.155 310.022, 243.391 311.612, 243.378 322.500 C 243.361 335.937, 242.157 339.641, 235.838 345.699 C 229.878 351.412, 220.431 353.635, 213.426 350.972 C 209.102 349.328, 209.499 350.559, 214.374 353.913 C 227.235 362.762, 248.732 355.932, 257.244 340.292 C 260.492 334.326, 263 325.150, 263 319.237 C 263 306.551, 257.574 293.716, 246.312 279.767 C 232.085 262.145, 227.906 255.291, 222.066 240 C 219.224 232.561, 218.202 220.907, 220.243 219.213 C 222.678 217.193, 225.531 220.657, 227.068 227.500 C 228.198 232.532, 229.229 234.311, 233.458 238.530 C 239.596 244.652, 250.460 250.187, 261.951 253.047 C 268.935 254.786, 273.922 255.171, 291.915 255.365 C 316.974 255.636, 320.899 256.399, 327.607 262.303 C 333.929 267.868, 336 273.085, 336 283.443 C 336 290.644, 335.667 292.227, 333.441 295.610 C 332.033 297.750, 329.220 300.956, 327.191 302.735 L 323.500 305.970 327.909 305.985 C 333.840 306.005, 341.340 300.429, 345.510 292.899 C 348.273 287.910, 348.499 286.740, 348.493 277.500 C 348.486 268.291, 348.249 267.066, 345.493 262.008 C 341.521 254.720, 335.592 248.898, 328.938 245.752 C 323.128 243.006, 310.376 240, 304.531 240 C 299.610 240, 282.640 237.213, 276 235.315 C 262.541 231.467, 249.724 221.795, 244.378 211.454 C 241.560 206.001, 241.540 205.855, 243.441 204.443 C 246.626 202.076, 246.863 202.227, 254.307 211.351 C 261.289 219.910, 268.618 221.774, 280.762 218.080 C 289.033 215.565, 294.852 212.051, 301.246 205.710 C 311.038 196, 315.005 183.076, 312.975 167.500 C 311.004 152.375, 310.646 140.610, 312.027 136.362 C 313.651 131.368, 318.387 125.368, 322.304 123.343 C 326.555 121.145, 337.011 121.122, 340.340 123.303 C 343.409 125.314, 344.504 124.165, 342.392 121.150 C 337.752 114.525, 323.627 112.838, 313.929 117.750 C 310.062 119.709, 307.562 121.903, 305.241 125.376 C 299.929 133.324, 298.822 138.942, 298.643 158.847 C 298.527 171.862, 298.118 177.157, 297.087 179 C 296.318 180.375, 295.308 182.175, 294.842 183 C 294.376 183.825, 293.590 185.428, 293.094 186.562 C 291.867 189.368, 285.839 194.531, 280.770 197.117 C 274.954 200.085, 262.074 200.852, 255.404 198.628 C 243.326 194.602, 237.740 183.285, 241.480 170.419 C 242.421 167.183, 246.875 157.327, 251.377 148.517 C 262.326 127.094, 264.503 118.876, 264.493 99 C 264.487 86.933, 264.103 83.158, 262.208 76.500 C 253.718 46.683, 230.182 25.474, 199.566 20.051 C 191.717 18.661, 173.014 18.880, 165.500 20.450 M 144 122.592 C 139.046 124.698, 136.652 128.405, 136.569 134.096 C 136.515 137.781, 137.033 139.404, 138.897 141.389 C 144.072 146.901, 151.753 147.093, 157.003 141.843 C 159.419 139.427, 160 137.998, 160 134.470 C 160 128.434, 158.263 125.175, 153.843 122.920 C 149.407 120.657, 148.612 120.630, 144 122.592 M 211.381 122.910 C 209.665 123.956, 207.753 126.271, 207.131 128.055 C 203.958 137.157, 207.774 144.244, 216.558 145.561 C 224.386 146.735, 230 141.454, 230 132.918 C 230 123.347, 219.723 117.823, 211.381 122.910 M 218.392 128.422 C 217.580 130.536, 219.887 134.168, 221.806 133.799 C 222.725 133.622, 223.632 132.673, 223.821 131.690 C 224.504 128.143, 219.626 125.206, 218.392 128.422 M 147.553 129.724 C 147.138 130.804, 147.543 131.924, 148.637 132.724 C 150.876 134.361, 151.481 134.330, 153 132.500 C 153.993 131.303, 153.993 130.697, 153 129.500 C 151.323 127.480, 148.367 127.601, 147.553 129.724 M 321.710 130.932 C 317.505 135.930, 316.624 140.181, 317.567 150.928 C 318.029 156.193, 318.428 166.575, 318.453 174 C 318.501 187.658, 317.329 193.468, 313.318 199.473 C 311.103 202.788, 311.847 203.514, 314.750 200.869 C 316.262 199.492, 318.698 197.623, 320.163 196.716 C 323.600 194.589, 324.497 190.434, 322.534 185.737 C 320.557 181.005, 320.552 170.383, 322.525 166.599 C 323.833 164.091, 323.846 163.483, 322.618 162.099 C 321.838 161.220, 320.753 158.857, 320.207 156.849 C 319.391 153.842, 319.573 152.496, 321.239 149.215 C 323.150 145.452, 323.172 145.050, 321.631 141.962 C 319.431 137.553, 319.560 136.265, 322.601 132.279 C 325.873 127.989, 325.131 126.867, 321.710 130.932 M 45.032 132.203 C 45.014 132.590, 45.522 134.051, 46.159 135.450 C 47.115 137.548, 46.984 138.615, 45.412 141.534 C 43.585 144.926, 43.578 145.200, 45.253 148.118 C 47.564 152.146, 47.456 156.739, 44.953 160.845 C 43.337 163.496, 43.162 164.490, 44.109 165.632 C 46.207 168.160, 46.487 181.172, 44.531 185.293 C 42.238 190.126, 43.232 194.342, 47.326 197.145 C 49.072 198.340, 51.962 200.684, 53.750 202.355 C 55.538 204.025, 57 204.909, 57 204.319 C 57 203.728, 56.369 202.721, 55.597 202.081 C 54.826 201.441, 52.989 198.370, 51.515 195.257 C 47.491 186.757, 46.648 175.910, 48.620 158 C 49.837 146.953, 49.958 142.540, 49.129 139.469 C 48.151 135.846, 45.111 130.454, 45.032 132.203 M 167.631 154.702 C 166.319 156.014, 167.079 160.302, 169.134 163.189 C 171.673 166.755, 178.703 170, 183.887 170 C 188.421 170, 197.546 165.622, 199.625 162.449 C 201.326 159.853, 201.136 154.863, 199.313 154.265 C 198.660 154.051, 196.860 155.314, 195.313 157.073 C 190.344 162.719, 182.850 164.525, 176.980 161.490 C 175.374 160.659, 173.586 159.094, 173.007 158.013 C 171.800 155.758, 168.567 153.766, 167.631 154.702 M 325.596 173.341 C 324.843 177.352, 325.761 182.266, 327.107 181.434 C 328.242 180.732, 328.248 172.940, 327.115 171.151 C 326.514 170.203, 326.062 170.854, 325.596 173.341 M 38.311 173.217 C 37.644 174.706, 37.620 176.457, 38.242 178.250 C 39.972 183.239, 41.678 180.944, 41.029 174.500 C 40.710 171.336, 39.427 170.730, 38.311 173.217 M 45.499 204.131 C 46.555 207.658, 48.748 210.795, 51 212 C 55.463 214.388, 52.393 206.254, 47.810 203.547 L 44.790 201.763 45.499 204.131 M 304.562 210.264 C 297.906 217.010, 290.003 221.804, 282.997 223.346 C 281.623 223.648, 282.823 223.719, 285.663 223.505 C 288.786 223.269, 293.980 221.673, 298.806 219.467 C 305.716 216.309, 306.866 215.418, 307.385 212.826 C 307.714 211.179, 308.936 208.494, 310.101 206.858 C 313.739 201.749, 311.766 202.962, 304.562 210.264 M 316.640 206.976 C 313.113 210.881, 312.123 213, 313.826 213 C 315.679 213, 321.800 204.467, 320.721 203.388 C 320.479 203.145, 318.642 204.760, 316.640 206.976 M 57.342 206.448 C 57.643 207.233, 58.362 209.631, 58.940 211.778 C 59.908 215.374, 60.602 215.967, 67.763 219.327 C 72.037 221.333, 77.777 223.205, 80.517 223.488 C 83.976 223.844, 84.736 223.742, 83 223.154 C 76.053 220.799, 68.167 215.978, 62.786 210.794 C 59.491 207.619, 57.041 205.663, 57.342 206.448 M 129.085 249.397 C 127.548 251.249, 111.789 257.985, 108.827 258.056 C 107.119 258.097, 107.690 258.594, 110.974 259.926 C 117.405 262.532, 119.586 261.566, 128.453 252.183 C 130.627 249.882, 131.920 248, 131.325 248 C 130.731 248, 129.723 248.629, 129.085 249.397 M 236 248.860 C 236 249.347, 237.995 251.584, 240.433 253.831 C 245.155 258.184, 251.526 261.411, 253.269 260.334 C 253.850 259.975, 255.715 259.349, 257.413 258.943 L 260.500 258.205 257.500 258.093 C 254.200 257.969, 246.714 254.738, 240.199 250.626 C 237.890 249.168, 236 248.373, 236 248.860 M 83.500 260.933 L 75.500 261.500 80.033 263.250 C 86.201 265.631, 90.744 265.403, 95.500 262.474 L 99.500 260.010 95.500 260.189 C 93.300 260.287, 87.900 260.622, 83.500 260.933 M 51.683 262.430 C 46.337 263.867, 40.055 269.258, 37.533 274.572 C 35.526 278.801, 35.543 280.599, 37.571 278.571 C 38.436 277.707, 40.236 277, 41.571 277 C 43.685 277, 44 276.541, 44 273.465 C 44 271.520, 44.762 268.767, 45.693 267.346 C 47.294 264.902, 47.712 264.797, 53.464 265.386 C 58.185 265.870, 60.055 265.649, 61.840 264.400 C 63.104 263.514, 65.344 262.426, 66.819 261.981 C 71.515 260.564, 57.027 260.993, 51.683 262.430 M 270 261.474 C 270 261.735, 271.407 262.676, 273.126 263.565 C 276.716 265.422, 282.358 265.092, 288.500 262.667 L 292.500 261.088 281.250 261.044 C 275.063 261.020, 270 261.213, 270 261.474 M 302 263.521 C 306.112 265.484, 308.762 266.078, 312.500 265.873 C 315.250 265.723, 318.513 265.945, 319.751 266.368 C 322.786 267.403, 324.512 270.678, 322.990 272.512 C 321.379 274.453, 323.014 276.966, 326.972 278.630 L 330.215 279.994 329.566 277.247 C 328.408 272.355, 323.686 266.715, 318.520 264.055 C 314.569 262.021, 311.820 261.438, 305.029 261.198 L 296.500 260.896 302 263.521 M 194.995 262.673 C 194.992 263.128, 195.651 265.525, 196.459 268 C 197.267 270.475, 198.182 273.753, 198.492 275.284 C 199.054 278.061, 200.923 279.313, 206.181 280.433 C 207.656 280.747, 211.642 283.649, 215.039 286.881 C 221.087 292.636, 221.202 292.844, 220.533 296.804 C 219.953 300.236, 220.154 301.012, 221.859 301.925 C 224.635 303.410, 226 303.270, 226 301.500 C 226 300.675, 226.380 300, 226.845 300 C 228.186 300, 231 303.508, 231 305.180 C 231 306.017, 232.125 308.818, 233.500 311.404 C 236.371 316.803, 236.624 319.237, 234.500 321 C 232.544 322.624, 232.588 325.413, 234.598 327.081 C 238.258 330.119, 234.302 338.584, 227.083 343.162 C 222.433 346.111, 223.005 347.083, 227.901 344.551 C 236.147 340.287, 240.197 329.927, 238.216 318.163 C 236.300 306.780, 233.105 301.935, 217.004 286 C 208.947 278.025, 200.699 269.328, 198.677 266.673 C 196.655 264.019, 194.998 262.219, 194.995 262.673 M 99.861 264.967 L 97.500 266.933 101.500 266.951 C 106.015 266.972, 108.592 265.766, 107.569 264.112 C 106.488 262.362, 102.449 262.810, 99.861 264.967 M 259.522 263.913 C 257.589 264.668, 257.594 264.712, 259.707 265.843 C 260.896 266.479, 263.318 267, 265.089 267 C 268.247 267, 268.274 266.961, 266.500 265 C 264.602 262.903, 262.819 262.625, 259.522 263.913 M 67.345 266.543 C 66.475 268.810, 67.266 269.152, 72.580 268.809 C 77.151 268.514, 77.293 268.418, 75.616 266.750 C 73.422 264.567, 68.154 264.436, 67.345 266.543 M 167.553 267.613 C 166.532 269.201, 158.835 277.329, 150.447 285.677 C 137.912 298.152, 134.602 302.064, 131.849 307.655 C 128.801 313.847, 128.500 315.267, 128.500 323.479 C 128.500 330.183, 128.949 333.322, 130.249 335.698 C 132.562 339.928, 137.847 343.859, 142.084 344.502 C 143.963 344.786, 144.825 344.736, 144 344.388 C 135.903 340.981, 133.014 338.022, 131.031 331.108 C 130.355 328.752, 130.572 327.792, 132.091 326.418 C 134.389 324.338, 134.515 322.672, 132.500 321 C 130.175 319.070, 130.719 315.090, 134.278 308 C 137.404 301.775, 137.696 301.500, 141.209 301.500 C 145.969 301.500, 147.928 299.716, 146.202 296.952 C 144.560 294.322, 145.389 292.945, 153.311 285.145 C 158.571 279.966, 160.170 278.919, 161.954 279.485 C 164.916 280.426, 168 277.515, 168 273.779 C 168 272.178, 168.479 269.973, 169.065 268.879 C 170.830 265.581, 169.549 264.509, 167.553 267.613 M 290.131 266.342 C 288.476 268.336, 289.772 269, 295.322 269 C 300.247 269, 300.287 268.975, 298.500 267 C 296.433 264.716, 291.784 264.351, 290.131 266.342" stroke="none" fill="black" fill-rule="evenodd"/>
</svg>