<svg xmlns="http://www.w3.org/2000/svg" width="506" height="395" viewBox="0 0 506 395" version="1.1">
	<path d="M 362.286 7.630 C 357.287 10.095, 354 17.611, 354 26.574 C 354 40.117, 358.476 44.959, 363.556 36.911 C 364.976 34.663, 368.581 30.455, 371.568 27.562 C 376.697 22.594, 377 22.027, 377 17.373 C 377 11.294, 375.100 8.400, 370.221 7.044 C 365.627 5.769, 366.138 5.731, 362.286 7.630 M 363.593 14.897 C 362.620 15.973, 361.626 19.220, 361.298 22.399 L 360.720 28.004 365.860 23.341 C 371.040 18.642, 372.005 16.405, 369.800 14.200 C 368.050 12.450, 365.554 12.730, 363.593 14.897 M 316.143 28.493 C 308.118 30.997, 304 36.671, 304 45.228 C 304 50.819, 305.342 53.623, 309.977 57.713 C 313.111 60.478, 316.440 61.572, 326 62.978 C 334.011 64.156, 340.617 66.814, 343.527 70.030 C 344.512 71.118, 346.715 74.144, 348.423 76.754 C 350.750 80.310, 352.152 81.500, 354.014 81.500 C 356.322 81.500, 356.523 81.106, 356.821 76 C 357.628 62.150, 350.608 42.181, 342.650 35.694 C 337.333 31.359, 334.758 30.022, 328.546 28.368 C 322.469 26.749, 321.709 26.757, 316.143 28.493 M 382.105 35.635 C 378.988 37.188, 375.665 39.860, 374.012 42.142 C 368.371 49.929, 363.372 66.675, 364.175 75.092 C 364.696 80.560, 367.888 80.196, 371.755 74.228 C 373.487 71.555, 376.113 68.160, 377.591 66.682 C 380.183 64.090, 388.162 61.023, 392.432 60.978 C 393.569 60.966, 396.403 60.092, 398.729 59.036 C 409.647 54.080, 409.647 39.920, 398.729 34.964 C 392.943 32.337, 388.350 32.523, 382.105 35.635 M 316.452 35.406 C 312.044 37.326, 309.650 41.439, 310.356 45.882 C 311.058 50.302, 315.587 54.684, 320.206 55.412 C 322.018 55.698, 326.783 56.441, 330.795 57.064 C 336.178 57.899, 339.389 59.070, 343.045 61.530 C 347.992 64.859, 348 64.861, 348 62.490 C 348 58.586, 343.099 46.576, 339.945 42.749 C 336.333 38.368, 327.836 33.986, 323.054 34.039 C 321.099 34.061, 318.129 34.676, 316.452 35.406 M 385.500 41.417 C 381.042 43.407, 377.506 47.793, 375.123 54.288 C 372.319 61.932, 372.436 62.653, 375.994 59.658 C 377.952 58.011, 381.672 56.572, 386.744 55.499 C 396.221 53.496, 398.968 52.215, 400.084 49.280 C 401.042 46.758, 400.443 44.369, 398.193 41.750 C 396.374 39.632, 389.880 39.462, 385.500 41.417 M 336.572 89.030 C 323.945 90.474, 309.652 93.689, 296.902 97.952 C 255.963 111.640, 227.040 136.654, 208.006 174.835 C 202.726 185.426, 196 199.871, 196 200.620 C 196 202.418, 185.115 222.325, 181.976 226.268 C 177.094 232.399, 174.543 234.396, 167.302 237.753 C 159.651 241.301, 147.982 241.541, 140.824 238.297 C 135.032 235.672, 127.448 228.798, 124.956 223.914 C 122.835 219.757, 122.982 219.504, 130 215.167 C 140.145 208.899, 150.266 195.464, 154.398 182.780 C 161.232 161.803, 158.958 136.532, 149.442 127.709 C 143.187 121.909, 137.019 123.655, 132.548 132.492 C 129.265 138.982, 125.190 142.110, 114.388 146.434 C 110.835 147.857, 106.257 150.078, 104.214 151.370 C 98.939 154.707, 92.163 162.377, 89.829 167.655 C 88.048 171.680, 87.657 172.013, 86.168 170.776 C 85.250 170.015, 81.372 167.905, 77.549 166.088 C 68.802 161.930, 59.079 161.011, 48 163.297 C 38.470 165.263, 31.087 164.158, 24.835 159.830 C 23.369 158.815, 20.219 157.720, 17.835 157.395 C 9.685 156.286, 5.567 162.342, 7.048 173.259 C 9.847 193.883, 23.316 212.520, 42.128 221.797 C 51.796 226.566, 58.097 228.356, 71.584 230.166 C 79.668 231.251, 81.385 231.795, 82.053 233.482 C 82.493 234.592, 84.952 242.146, 87.518 250.268 C 95.920 276.859, 106.524 294.526, 125.491 313.533 C 144.745 332.828, 170.327 347.258, 200.724 355.972 C 210.080 358.654, 226.459 362.227, 229.750 362.304 C 231.309 362.341, 231.363 361.981, 229.022 367.141 C 226.568 372.549, 226.490 376.498, 228.752 380.915 C 231.340 385.970, 235.996 388, 245.004 388 C 257.887 388, 275.723 381.542, 287.349 372.667 L 292.153 369 307.327 368.996 C 353.168 368.984, 393.708 361.498, 423.614 347.523 C 450.622 334.902, 475.119 311.928, 486.340 288.695 C 496.927 266.777, 500.745 242.616, 498.114 214.188 C 497.062 202.827, 493.208 183.224, 491.096 178.500 C 490.604 177.400, 489.638 174.925, 488.948 173 C 488.258 171.075, 485.684 165.450, 483.229 160.500 C 465.203 124.165, 431.365 99.318, 388.696 91.084 C 376.599 88.749, 348.652 87.648, 336.572 89.030 M 338 101.115 C 318.958 102.798, 297.021 108.935, 280.665 117.155 C 271.637 121.693, 257.520 131.374, 249.399 138.597 C 235.387 151.060, 224.397 166.931, 213.997 189.719 C 197.108 226.728, 194.223 231.794, 185.285 240.143 C 176.644 248.214, 166.505 252, 153.526 252 C 136.131 252, 121.894 243.309, 113.772 227.732 C 109.051 218.679, 110.335 214.563, 119.913 208.059 C 131.816 199.976, 139.208 190.382, 143.589 177.328 C 146.012 170.113, 146.185 168.484, 145.811 156.500 C 145.374 142.521, 143.797 136.544, 141.594 140.524 C 139.054 145.113, 130.193 152.757, 125.426 154.473 C 108.397 160.600, 101.034 167.603, 97.489 181.042 C 94.911 190.815, 91.731 191.454, 83.369 183.881 C 74.396 175.755, 70.609 174.433, 57.500 174.849 C 31.703 175.668, 29.703 175.585, 24.754 173.500 C 22.143 172.400, 20.006 171.162, 20.004 170.750 C 20.002 170.338, 19.593 170, 19.095 170 C 16.738 170, 23.040 187.292, 28.052 194.576 C 37.983 209.009, 52.247 216.662, 73.500 218.958 C 90.461 220.791, 91.544 221.562, 94.852 234.156 C 99.651 252.431, 107.072 270.658, 113.102 278.982 C 119.573 287.915, 130.877 297.064, 144.954 304.762 C 171.616 319.341, 203.067 326.615, 237.098 326.073 C 241.513 326.003, 241.772 325.832, 243.598 321.773 C 246.783 314.696, 252.584 306.419, 256.400 303.508 C 261.896 299.317, 266.938 300.103, 266.985 305.158 C 266.993 306.070, 265.056 309.220, 262.680 312.158 C 255.229 321.371, 253.442 325.603, 249.445 343.500 C 246.998 354.454, 241.972 369.106, 239.857 371.450 C 238.027 373.478, 238.981 375.865, 241.750 376.184 C 252.844 377.460, 268.874 372.016, 281.060 362.834 C 297.169 350.695, 309.924 332.230, 315.986 312.271 C 319.210 301.659, 323.724 298.956, 327.066 305.636 C 328.534 308.570, 328.785 308.682, 331.066 307.419 C 332.405 306.678, 334.179 306.055, 335.008 306.035 C 337.503 305.977, 354.016 294.649, 361.509 287.856 C 371.642 278.669, 374.547 275.147, 373.146 273.746 C 371.358 271.958, 371.799 268.178, 373.928 267.039 C 376.298 265.770, 378.189 266.449, 384.133 270.703 C 394.244 277.940, 410.467 283.437, 425.088 284.578 C 440.039 285.746, 461.737 282.095, 475.646 276.072 L 480.793 273.843 483.573 263.171 C 488.510 244.227, 488.026 212.288, 482.489 191.500 C 472.417 153.691, 446.905 124.396, 411.500 109.986 C 390.657 101.503, 366.538 98.592, 338 101.115 M 341.309 110.636 C 339.453 115.474, 347.402 119.447, 359 119.478 C 368.503 119.503, 373.596 117.458, 374.668 113.187 C 375.624 109.379, 373.598 108.343, 369.260 110.421 C 363.168 113.339, 355.197 113.623, 349.546 111.123 C 343.778 108.572, 342.139 108.475, 341.309 110.636 M 370.148 215.156 C 366.798 216.814, 365.359 218.329, 363.898 221.738 C 361.631 227.027, 361.529 229.631, 363.413 234.128 C 366.512 241.525, 374.196 244.740, 382.349 242.050 C 398.012 236.881, 392.894 212.993, 376.125 213.001 C 375.231 213.001, 372.542 213.971, 370.148 215.156 M 375.750 221.079 C 371.866 223.344, 374.975 229.154, 378.936 227.034 C 381.455 225.686, 381.510 224.828, 379.250 222.140 C 377.897 220.530, 377.103 220.290, 375.750 221.079 M 367.987 289.307 C 357.212 299.802, 349.495 305.098, 334.397 312.360 C 326.677 316.072, 326.321 316.396, 325.033 320.860 C 324.296 323.412, 321.299 330.139, 318.372 335.809 C 314.414 343.477, 313.492 345.993, 314.775 345.627 C 315.724 345.357, 319.200 344.431, 322.500 343.569 C 350.239 336.329, 363.867 329.769, 383.287 314.311 C 388.299 310.322, 399.470 298.362, 402.356 293.896 L 404.038 291.292 398.269 289.086 C 395.096 287.873, 389.423 285.107, 385.662 282.940 C 381.901 280.773, 378.751 279.015, 378.662 279.034 C 378.573 279.052, 373.769 283.675, 367.987 289.307 M 470 289.030 C 468.625 289.446, 463.647 290.776, 458.937 291.985 C 450.606 294.124, 450.299 294.309, 447.569 298.842 C 442.205 307.747, 436.471 314.551, 427.013 323.234 C 416.457 332.926, 413.224 335.369, 404.622 340.148 C 390.725 347.872, 407.664 342.202, 426.044 332.978 C 437.338 327.311, 448.452 318.940, 457.741 309.107 C 463.713 302.785, 473.679 289.287, 472.881 288.601 C 472.671 288.421, 471.375 288.614, 470 289.030 M 405.818 298.746 C 399.833 306.849, 389.919 316.513, 380.136 323.780 C 367.177 333.406, 343.076 344.575, 326.500 348.636 C 310.757 352.494, 308.347 353.248, 306.250 354.971 C 305.012 355.988, 304 357.155, 304 357.564 C 304 358.709, 335.226 357.227, 346.858 355.530 C 360.176 353.587, 363.300 352.758, 376 347.796 C 395.592 340.140, 412.590 329.497, 425.097 317.053 C 432.720 309.469, 443 296.887, 443 295.140 C 443 294.788, 438.837 294.500, 433.750 294.500 C 428.663 294.500, 421.253 294.161, 417.284 293.746 L 410.069 292.992 405.818 298.746 M 139.054 310.556 C 148.677 320.485, 177.776 336.629, 197.492 342.978 C 207.930 346.338, 228.581 350.978, 233.160 350.992 C 235.693 351, 235.921 350.565, 237.910 341.924 C 239.060 336.933, 240 332.658, 240 332.424 C 240 332.191, 235.375 332, 229.721 332 C 214.919 332, 189.545 328.162, 173.500 323.497 C 165.060 321.043, 150.003 315.020, 146.846 312.836 C 145.386 311.826, 143.811 310.990, 143.346 310.978 C 142.881 310.966, 141.375 310.076, 140 309 C 135.913 305.803, 135.348 306.732, 139.054 310.556" stroke="none" fill="black" fill-rule="evenodd"/>
</svg>