<svg xmlns="http://www.w3.org/2000/svg" width="244" height="385" viewBox="0 0 244 385" version="1.1">
	<path d="M 102.783 8.525 C 91.753 10.720, 76.510 16.422, 67.776 21.620 C 57.141 27.950, 42.073 42.758, 35.576 53.265 C 26.617 67.753, 21.057 86.528, 20.995 102.500 C 20.978 106.900, 20.540 114.533, 20.022 119.461 C 19.060 128.603, 18.912 128.990, 10.044 145.500 C 7.138 150.911, 6.869 152.121, 7.302 157.832 C 7.894 165.630, 11.117 170.135, 19.108 174.333 C 23.992 176.899, 25.278 177.134, 32.752 176.833 L 41.003 176.500 41.640 179.894 C 42.585 184.933, 41.330 198.815, 39.432 204.312 C 38.518 206.958, 35.501 213.258, 32.728 218.312 C 23.771 234.634, 22.120 238.372, 20.049 247.009 C 16.602 261.391, 17.920 277.777, 23.648 291.726 C 28.770 304.198, 38.708 308.807, 46.147 302.160 C 49.061 299.556, 49.320 298.829, 49.256 293.410 C 49.212 289.746, 48.145 284.460, 46.447 279.500 C 41.431 264.847, 42.783 253.367, 51.308 238.203 L 55.411 230.905 57.639 239.203 C 58.864 243.766, 61.521 252.450, 63.543 258.500 C 68.899 274.528, 69.076 279.966, 64.699 294.074 C 59.354 311.307, 58.542 315.602, 58.572 326.500 C 58.620 343.896, 63.706 354.480, 72.588 355.672 C 81.168 356.822, 86.749 350.767, 85.570 341.584 C 85.211 338.788, 84.658 332.598, 84.340 327.830 C 83.797 319.665, 83.999 318.411, 87.811 306.330 C 93.313 288.894, 94.568 280.369, 93.027 270.892 C 91.504 261.522, 87.841 247.523, 84.557 238.519 C 80.688 227.912, 79.450 216.868, 80.851 205.465 C 82.217 194.351, 85.424 183.841, 87.925 182.279 C 89.574 181.249, 89.630 181.526, 88.736 186.337 C 86.393 198.949, 89.504 215.135, 98.187 235.500 C 100.736 241.480, 101.248 244.175, 101.698 254 C 102.247 265.994, 102.343 265.417, 95.864 289 C 91.493 304.906, 93.786 322.263, 101.313 330.250 C 103.581 332.656, 104.654 333, 109.901 333 C 115.527 333, 116.056 332.793, 118.449 329.656 C 121.423 325.757, 121.570 323.200, 119.410 313 C 117.381 303.422, 118.114 295.637, 122.119 284.216 C 123.800 279.422, 125.411 274.825, 125.698 274 C 126.376 272.054, 129.507 281.050, 131.582 290.903 C 135.061 307.426, 133.339 324.531, 126.236 344 C 123.727 350.875, 121.327 358.331, 120.902 360.568 C 119.311 368.935, 123.133 376.372, 129.653 377.595 C 138.014 379.163, 143.800 373.615, 149.708 358.364 C 155.618 343.109, 158.808 328.727, 159.704 313.295 C 160.393 301.431, 158.834 288.076, 155.471 277.034 C 152.758 268.127, 146.922 252.030, 144.172 245.869 C 138.037 232.127, 135.016 219.533, 135.007 207.654 C 134.998 195.824, 137.134 188.648, 142.164 183.608 C 144.301 181.467, 146.257 179.924, 146.511 180.177 C 146.765 180.431, 146.304 184.135, 145.486 188.408 C 143.748 197.494, 143.539 214.631, 145.075 222.201 C 146.633 229.880, 150.545 239.864, 154.433 246.085 C 159.114 253.574, 162.743 261.311, 164.671 267.914 C 166.193 273.125, 166.181 274.488, 164.500 288.211 C 163.312 297.904, 162.910 305.673, 163.319 310.985 C 165.101 334.084, 181.881 350.067, 193.573 339.801 C 196.972 336.817, 197.186 336.291, 196.768 331.942 C 196.463 328.765, 195.363 326.043, 193.310 323.391 C 187.561 315.960, 185.993 308.583, 187.959 298.219 C 190.361 285.550, 190.945 276.614, 189.979 267.299 C 188.932 257.202, 186.522 251.064, 176.995 234.234 C 170.274 222.360, 168.478 210.924, 171.056 196.434 C 172.564 187.956, 172.843 187.274, 175.033 186.702 C 176.770 186.247, 177 186.704, 177 190.603 C 177 199.979, 181.111 212.898, 188.900 228 C 201.962 253.325, 201.115 251.010, 201.136 261.429 C 201.155 270.718, 200.555 273.495, 196.090 284.787 C 192.871 292.930, 193.262 296.497, 197.882 301.118 C 201.056 304.292, 202.470 304.999, 205.632 304.996 C 213.638 304.989, 218.646 299.269, 223.620 284.456 C 225.732 278.167, 226.389 273.985, 226.756 264.500 C 227.184 253.472, 227.006 251.859, 224.564 244.590 C 221.978 236.892, 217.086 226.188, 211.040 215 C 206.286 206.202, 203.662 196.533, 203.576 187.500 C 203.472 176.582, 203.824 175.914, 208.985 177.224 C 212.276 178.059, 214.445 177.906, 219.793 176.458 C 225.407 174.938, 227.329 173.801, 231.742 169.389 L 237 164.130 237 157.016 C 237 149.533, 236.123 147.014, 230.812 139.251 C 226.692 133.229, 225.075 127.053, 224.461 115 C 222.840 83.170, 219.004 68.548, 207.595 50.717 C 193.910 29.329, 166.792 12.460, 139 8.047 C 130.154 6.643, 110.969 6.896, 102.783 8.525 M 105 19.563 C 88.260 23.179, 76.473 28.220, 67 35.815 C 51.239 48.453, 42.360 60.693, 36.763 77.500 C 33.896 86.112, 32.458 96.519, 31.514 115.500 C 30.752 130.806, 28.569 138.233, 22.177 147.252 C 18.017 153.122, 17.049 158.631, 19.657 161.593 C 23.792 166.288, 30.897 167.732, 39 165.523 C 45.588 163.727, 51.336 163.584, 54.316 165.142 C 55.517 165.770, 58.416 168.032, 60.758 170.170 C 68.388 177.133, 71.920 177.503, 83 172.500 C 93.745 167.648, 97.601 167.781, 108.207 173.369 C 112.768 175.772, 117.925 178.050, 119.666 178.430 C 124.055 179.389, 129.371 177.729, 137 173.016 C 145.394 167.831, 151.417 167.543, 160.601 171.888 C 172.403 177.471, 176.214 177.037, 185.433 169.058 C 190.929 164.301, 195.438 163.235, 202.989 164.909 C 216.251 167.848, 220.233 167.290, 224.026 161.964 C 226.959 157.845, 226.503 153.944, 222.376 147.850 C 215.019 136.987, 213.905 132.281, 212.004 104 C 210.803 86.140, 209.645 80.596, 204.761 69.326 C 196.124 49.395, 180.554 34.601, 158.691 25.551 C 141.850 18.579, 120.551 16.204, 105 19.563 M 80.890 34.470 C 65.880 39.994, 54.783 56.535, 60.557 64.777 C 63.443 68.898, 71.302 66.918, 77.834 60.424 C 79.118 59.148, 82.229 56.618, 84.747 54.802 C 93.366 48.585, 97 44.513, 97 41.072 C 97 34.160, 89.776 31.199, 80.890 34.470 M 81.244 39.976 C 74.606 42.989, 70.087 46.920, 66.925 52.433 C 62.392 60.336, 63.354 64.955, 68.794 61.408 C 71.757 59.475, 83.178 50.169, 89.500 44.536 C 93.359 41.097, 93.432 40.919, 91.559 39.486 C 88.987 37.518, 86.387 37.641, 81.244 39.976 M 51.421 70.427 C 46.059 72.748, 42.995 82.852, 46.570 86.427 C 52.654 92.511, 60.988 86.991, 60.996 76.872 C 61.001 70.423, 57.257 67.902, 51.421 70.427 M 52.203 76.256 C 50.395 78.434, 49.736 82.719, 51.081 83.550 C 52.735 84.572, 56 80.483, 56 77.389 C 56 74.810, 53.919 74.188, 52.203 76.256 M 76.849 97.844 C 74.134 100.270, 73.667 101.372, 73.667 105.352 C 73.667 113.372, 80.298 117.707, 88.452 115.016 C 93.222 113.442, 95.415 109.253, 94.537 103.396 C 93.691 97.756, 90.357 95, 84.381 95 C 81.014 95, 79.312 95.642, 76.849 97.844 M 153.282 96.952 C 152.130 98.025, 150.669 100.473, 150.036 102.391 C 149.079 105.290, 149.174 106.435, 150.596 109.189 C 153.028 113.894, 154.824 114.936, 160.500 114.936 C 163.250 114.936, 166.214 114.388, 167.087 113.718 C 171.629 110.231, 172.242 103.317, 168.449 98.344 C 166.126 95.299, 165.428 95, 160.638 95 C 156.803 95, 154.809 95.529, 153.282 96.952 M 160.558 99.775 C 159.359 100.974, 160.091 103.978, 161.804 104.895 C 164.273 106.217, 166.369 104.737, 165.574 102.233 C 164.950 100.266, 161.673 98.661, 160.558 99.775 M 84.306 101.645 C 83.560 103.589, 86.516 106.123, 88.597 105.324 C 90.317 104.664, 90.408 102.808, 88.800 101.200 C 87.107 99.507, 85.048 99.711, 84.306 101.645 M 134 116.894 C 134 117.386, 132.694 119.186, 131.099 120.894 C 128.658 123.507, 127.460 124, 123.549 124 C 118.307 124, 113.579 121.950, 111.994 118.990 C 111.374 117.830, 109.902 117, 108.465 117 C 103.458 117, 106.323 123.996, 113.074 128.253 C 114.408 129.095, 117.627 130.083, 120.226 130.449 C 126.250 131.298, 132.635 128.657, 136.358 123.774 C 139.366 119.831, 139.713 117.487, 137.418 116.607 C 135.191 115.752, 134 115.852, 134 116.894 M 25.359 146.508 C 24.529 148.670, 27.589 152.859, 30.538 153.599 C 32.974 154.210, 40.099 153.797, 50.591 152.436 C 55.563 151.791, 55.798 151.879, 60.701 156.234 C 68.228 162.920, 72.512 163.683, 83.664 160.324 C 97.580 156.132, 99.337 156.174, 108.340 160.916 C 114.870 164.355, 117.026 165, 121.985 165 C 126.964 165, 129.007 164.383, 135.188 161.014 C 144.246 156.076, 147.954 155.927, 159.142 160.052 C 170.879 164.380, 174.821 163.652, 184.049 155.456 C 189.570 150.553, 190.940 150.241, 196.587 152.601 C 199.266 153.720, 202.500 154.084, 207.330 153.812 C 213.442 153.466, 214.524 153.092, 216.687 150.577 C 219.923 146.816, 218.283 144.845, 214.436 147.871 C 211.027 150.553, 207.614 150.556, 199.892 147.883 C 192.476 145.317, 186.879 145.765, 183.696 149.180 C 182.488 150.476, 179.771 152.851, 177.657 154.458 C 172.571 158.324, 166.664 158.308, 157.964 154.403 C 148.463 150.140, 143.172 150.458, 134.282 155.830 C 124.074 161.997, 122.310 162.053, 111.295 156.558 C 100.026 150.936, 95.480 150.549, 86.014 154.408 C 82.446 155.862, 77.946 157.301, 76.014 157.606 C 72.350 158.184, 72.114 158.060, 61.936 150.250 C 57.008 146.469, 51.890 146.012, 42.339 148.500 C 34.654 150.502, 33.652 150.419, 30.182 147.500 C 26.723 144.589, 26.141 144.469, 25.359 146.508 M 49.800 184.290 C 50.411 198.765, 48.153 206.443, 37.974 224.500 C 28.512 241.284, 26 249.436, 26 263.356 C 26 282.569, 32.171 298.852, 39.065 297.830 C 43.342 297.197, 43.626 294.835, 40.572 285.319 C 39.015 280.469, 37.349 275.466, 36.871 274.203 C 36.392 272.940, 36 268.463, 36 264.255 C 36 254.174, 39.472 242.856, 45.750 232.475 C 53.052 220.399, 54 217.916, 54.001 210.849 C 54.002 207.357, 54.735 200.675, 55.629 196 C 58.152 182.817, 58.086 182.280, 53.456 178.437 L 49.411 175.080 49.800 184.290 M 189.605 179.584 L 184.709 184.088 185.302 192.490 C 186 202.377, 190.460 216.672, 195.428 224.946 C 206.341 243.118, 209.006 250.387, 208.988 261.932 C 208.975 270.155, 207.358 277.563, 204.112 284.268 C 201.006 290.684, 200.508 294.365, 202.479 296.336 C 204.643 298.500, 208.288 298.460, 210.222 296.250 C 212.374 293.791, 215.738 285.778, 217.635 278.593 C 219.985 269.694, 219.751 252.160, 217.187 245 C 214.559 237.659, 208.374 224.659, 204.914 219.203 C 203.376 216.778, 200.641 210.452, 198.838 205.146 C 195.957 196.672, 195.563 194.255, 195.591 185.250 C 195.609 179.613, 195.371 175.018, 195.062 175.040 C 194.753 175.062, 192.297 177.106, 189.605 179.584 M 97.114 184.462 C 96.501 186.895, 96 192.460, 96 196.830 C 96 205.429, 97.474 211.171, 105.156 232.500 C 109.447 244.413, 109.478 244.594, 109.392 257.500 C 109.310 269.909, 109.131 271, 105.451 281.500 C 101.859 291.748, 101.592 293.287, 101.548 304 C 101.521 310.325, 101.837 316.703, 102.250 318.173 C 103.405 322.293, 107.842 327, 110.570 327 C 113.974 327, 114.586 323.343, 112.481 315.566 C 109.933 306.156, 110.840 295.420, 115.400 281 C 120.578 264.628, 120.906 260.090, 117.496 251.997 C 110.141 234.541, 108.186 224.996, 107.317 202.311 L 106.697 186.122 102.463 183.080 L 98.228 180.039 97.114 184.462 M 154.544 183.251 C 154.328 183.938, 153.564 186.300, 152.845 188.500 C 152.001 191.085, 151.570 197.453, 151.627 206.500 C 151.710 219.637, 151.910 221.024, 154.872 229 C 156.609 233.675, 159.608 240.200, 161.536 243.500 C 163.465 246.800, 166.622 252.764, 168.553 256.753 C 173.043 266.029, 173.902 275.200, 171.598 289.239 C 168.567 307.707, 169.930 318.803, 176.433 328.597 C 180.482 334.695, 184.974 337.620, 187.891 336.058 C 191.213 334.280, 190.948 332.327, 186.455 325.487 C 184.032 321.797, 181.749 317.179, 181.383 315.226 C 181.016 313.272, 181.088 305.334, 181.543 297.587 C 183.492 264.399, 182.779 259.089, 174.550 245.526 C 168.920 236.246, 164.485 225.895, 162.971 218.500 C 161.700 212.288, 162.205 197.058, 163.928 189.684 C 164.670 186.505, 164.542 185.783, 163.160 185.361 C 162.247 185.082, 160.023 184.212, 158.218 183.428 C 155.651 182.313, 154.851 182.274, 154.544 183.251 M 65.555 186.912 C 63.971 189.473, 62 202.732, 62.001 210.812 C 62.003 221.799, 63.702 232.410, 67.554 245.500 C 74.639 269.570, 75.151 272.128, 74.665 281 C 74.409 285.675, 73.517 291.086, 72.681 293.023 C 71.846 294.961, 70.001 301.016, 68.581 306.478 C 64.210 323.297, 65.522 343.451, 71.250 347.463 C 76.871 351.400, 79.710 347.876, 77.884 339.228 C 75.641 328.606, 75.670 321.734, 77.992 313.834 C 86.352 285.385, 86.229 285.978, 85.703 276.500 C 85.339 269.920, 84.080 263.735, 81.023 253.500 C 78.724 245.800, 75.916 236.350, 74.784 232.500 C 72.112 223.414, 71.828 203.661, 74.229 194.006 C 75.118 190.434, 75.767 187.456, 75.673 187.389 C 74.871 186.819, 65.874 186.394, 65.555 186.912 M 125.055 189.230 C 123.160 189.741, 120.595 189.965, 119.356 189.728 C 117.367 189.347, 116.979 189.873, 116.051 194.198 C 112.668 209.972, 116.757 230.994, 128.585 258.627 C 132.146 266.947, 135.928 276.891, 136.991 280.723 C 143.586 304.525, 141.292 331.356, 130.967 351.152 C 129.248 354.448, 126.924 365.186, 127.522 367.070 C 128.928 371.498, 133.350 371.586, 137.262 367.263 C 139.550 364.735, 145.361 349.911, 148.734 338 C 151.242 329.143, 151.423 327.180, 151.404 309 C 151.380 285.763, 150.843 283.344, 139.364 254.769 C 135.225 244.468, 130.940 232.543, 129.841 228.269 C 127.208 218.029, 126.322 201.495, 128.026 194.394 C 128.739 191.421, 129.137 188.834, 128.911 188.645 C 128.685 188.456, 126.950 188.719, 125.055 189.230" stroke="none" fill="black" fill-rule="evenodd"/>
</svg>