<svg xmlns="http://www.w3.org/2000/svg" width="254" height="310" viewBox="0 0 254 310" version="1.1">
	<path d="M 114.115 9.264 C 95.568 18.723, 101.350 46.906, 122.562 50.436 C 128.142 51.365, 136.884 48.035, 140.913 43.446 C 150.338 32.711, 147.321 15.286, 134.943 8.971 C 129.460 6.174, 119.912 6.308, 114.115 9.264 M 119.035 16.306 C 109.067 19.739, 108.331 35.500, 117.906 40.451 C 124.346 43.782, 133.479 41.520, 136.647 35.810 C 138.564 32.357, 138.291 24.989, 136.114 21.420 C 134.071 18.068, 128.580 14.967, 124.849 15.056 C 123.557 15.087, 120.941 15.650, 119.035 16.306 M 193 62.883 C 182.065 65.257, 172.713 75.183, 170.369 86.905 C 169.625 90.626, 171.509 99.821, 174.088 105.053 C 181.207 119.495, 201.143 124.138, 215.552 114.710 C 219.373 112.209, 221.226 110.019, 223.773 104.991 C 227.928 96.789, 228.742 90.322, 226.560 82.840 C 222.543 69.059, 207.033 59.836, 193 62.883 M 192.885 71.327 C 186.907 73.550, 182.864 77.057, 180.686 81.908 C 174.592 95.476, 182.786 110.194, 197.266 111.688 C 202.093 112.186, 203.729 111.878, 208.410 109.588 C 219.797 104.017, 222.920 90.293, 215.424 78.770 C 211.092 72.109, 200.333 68.557, 192.885 71.327 M 63 72.649 C 53.513 74.494, 40.810 80.580, 33.161 86.945 C 14.295 102.646, 3.650 130.333, 8.072 152.201 C 9.384 158.691, 11.701 166.439, 13.588 170.651 C 14.365 172.384, 15 174.134, 15 174.539 C 15 174.944, 17.550 178.817, 20.666 183.145 C 30.026 196.145, 42.805 205.379, 58.041 210.152 C 64.337 212.125, 67.526 212.477, 78.500 212.411 C 89.596 212.345, 92.623 211.962, 99.167 209.799 C 113.680 205.002, 125.483 196.729, 134.428 185.083 C 139.916 177.939, 142.131 173.509, 145.470 163 C 147.820 155.605, 148.176 152.810, 148.201 141.500 C 148.227 130.331, 147.882 127.420, 145.748 120.833 C 141.947 109.094, 136.619 100.486, 127.565 91.453 C 110.606 74.533, 87.669 67.852, 63 72.649 M 188.769 78.255 C 185.854 80.652, 182.547 87.458, 183.527 89.044 C 184.496 90.612, 187.017 90.129, 187.679 88.250 C 188.914 84.744, 192.983 80.221, 195.461 79.599 C 196.857 79.249, 198 78.295, 198 77.481 C 198 75.137, 191.944 75.645, 188.769 78.255 M 68 79.936 C 55.600 82.229, 47.082 86.166, 38.247 93.688 C 22.862 106.786, 15.144 124.748, 16.253 144.877 C 17.539 168.210, 29.104 186.594, 49 196.931 C 58.847 202.047, 66.793 204, 77.758 204 C 90.066 204, 96.109 202.696, 105.740 197.963 C 141.105 180.582, 151.617 134.882, 127.513 103.313 C 120.534 94.173, 106.766 85.063, 94.656 81.574 C 87.757 79.586, 74.350 78.762, 68 79.936 M 60.081 93.588 C 43.911 97.937, 29.759 115.255, 29.687 130.780 C 29.670 134.299, 30.265 135.678, 33.030 138.530 C 39.277 144.976, 45.068 142.338, 50.428 130.606 C 54.236 122.271, 59.891 116.645, 66.157 114.958 C 72.339 113.293, 78 107.357, 78 102.541 C 78 98.340, 73.611 93, 70.159 93 C 69.061 93, 67.564 92.804, 66.832 92.565 C 66.099 92.326, 63.062 92.786, 60.081 93.588 M 59.232 99.348 C 56.884 99.982, 52.277 102.676, 48.994 105.337 C 44.351 109.098, 42.226 111.786, 39.438 117.429 C 34.819 126.775, 34.095 131.671, 36.837 135.015 C 39.613 138.400, 41.555 137.044, 44.578 129.613 C 48.384 120.259, 52.921 115.562, 63.081 110.459 C 70.135 106.917, 72.099 105.453, 72.629 103.344 C 73.870 98.397, 68.590 96.823, 59.232 99.348 M 192.253 152.570 C 182.338 154.742, 175.818 158.369, 169.334 165.317 C 158.905 176.493, 153.822 191.574, 156.092 204.608 C 158.778 220.030, 169.053 233.668, 183 240.321 C 189.179 243.269, 190.119 243.423, 202.052 243.461 C 214.576 243.500, 214.621 243.492, 222.197 239.747 C 230.367 235.709, 239.162 227.393, 242.336 220.704 C 244.727 215.666, 247.973 202.247, 247.950 197.500 C 247.891 185.607, 242.562 172.945, 234.143 164.696 C 226.704 157.408, 221.140 154.483, 211.081 152.575 C 201.444 150.747, 200.573 150.747, 192.253 152.570 M 189.300 161.816 C 181.859 164.453, 176.269 168.651, 171.396 175.258 C 165.580 183.145, 164.500 186.785, 164.500 198.500 C 164.500 207.983, 164.676 208.825, 167.912 214.792 C 180.417 237.854, 209.143 243.111, 228.138 225.813 C 233.280 221.131, 236.684 214.624, 238.521 205.966 C 239.844 199.731, 239.908 197.428, 238.911 192 C 236.479 178.754, 228.935 168.080, 218.683 163.377 C 210.593 159.665, 197.352 158.962, 189.300 161.816 M 186.432 169.015 C 175.106 174.621, 168.021 190.215, 174.189 195.961 C 178.602 200.072, 182.747 197.801, 188.023 188.383 C 190.506 183.949, 191.472 183.118, 195.261 182.165 C 200.326 180.889, 202.726 178.620, 203.592 174.289 C 204.952 167.488, 195.429 164.562, 186.432 169.015 M 188.347 174.033 C 181.669 177.378, 174.902 189.423, 178.045 192.370 C 178.809 193.087, 179.391 193.134, 179.635 192.500 C 179.847 191.950, 181.360 189.163, 182.998 186.307 C 185.536 181.880, 186.945 180.651, 192.545 177.979 C 196.158 176.254, 198.942 174.316, 198.730 173.672 C 198.073 171.668, 192.693 171.856, 188.347 174.033 M 121.746 231.025 C 111.320 233.651, 102.952 240.240, 97.467 250.143 C 94.677 255.181, 94.501 256.155, 94.522 266.500 C 94.547 279.411, 95.997 283.546, 103.321 291.594 C 109.917 298.841, 117.227 302.152, 127.969 302.756 C 135.453 303.176, 137.261 302.925, 142.696 300.710 C 158.178 294.399, 165.454 283.071, 165.310 265.500 C 165.257 259.091, 164.713 256.307, 162.575 251.500 C 157.167 239.344, 145.875 231.502, 132.427 230.563 C 128.617 230.297, 123.811 230.505, 121.746 231.025 M 120.500 240.328 C 111.982 243.668, 106.058 249.383, 103.400 256.825 C 101.789 261.336, 101.636 271.150, 103.095 276.405 C 104.704 282.198, 112.976 290.473, 119.657 292.973 C 133.403 298.116, 148.066 292.541, 154.735 279.638 C 158.544 272.270, 158.523 261.792, 154.684 254 C 151.800 248.145, 145.540 242.388, 139.795 240.306 C 135.593 238.784, 124.405 238.797, 120.500 240.328 M 119 245.121 C 115.806 246.391, 111.225 250.728, 109.411 254.200 C 104.512 263.578, 112.438 269.286, 118.946 261.068 C 120.659 258.905, 123.734 256.318, 125.780 255.318 C 128.944 253.772, 129.546 252.948, 129.807 249.813 C 130.098 246.307, 129.925 246.073, 126.307 245.068 C 121.885 243.840, 122.226 243.838, 119 245.121 M 116.882 252.882 C 114.665 255.100, 113 257.733, 113 259.023 C 113 260.988, 113.518 260.693, 116.987 256.753 C 119.179 254.262, 122.104 251.940, 123.487 251.593 C 126.789 250.764, 126.718 249, 123.382 249 C 121.675 249, 119.415 250.350, 116.882 252.882" stroke="none" fill="black" fill-rule="evenodd"/>
</svg>