<svg xmlns="http://www.w3.org/2000/svg" width="332" height="319" viewBox="0 0 332 319" version="1.1">
	<path d="M 160.637 7.465 C 149.259 11.521, 143.201 23.313, 128.509 70 C 124.268 83.475, 119.832 96.255, 118.649 98.401 C 114.751 105.475, 114.138 105.592, 77.320 106.341 C 30.014 107.303, 20.575 108.718, 12.898 116 C 3.539 124.877, 6.146 137.275, 20.176 150.610 C 25.245 155.428, 44.605 170.169, 61.180 181.831 C 67.604 186.351, 75.029 192.013, 77.680 194.415 C 82.490 198.772, 82.500 198.794, 82.461 205.140 C 82.423 211.513, 81.353 215.463, 71.880 244.198 C 64.258 267.319, 61.878 277.075, 61.291 287.614 C 60.746 297.382, 60.825 297.908, 63.613 303.030 C 67.339 309.877, 72.564 312.503, 80.923 311.732 C 91.102 310.792, 102.735 303.994, 135.607 279.777 C 162.793 259.747, 164.353 259.028, 172.217 262.897 C 176.021 264.768, 201.175 282.627, 217.512 295.056 C 226.041 301.544, 236.140 307.689, 242.246 310.105 C 249.736 313.068, 259.360 312.489, 264.220 308.782 C 272.974 302.104, 273.974 290.785, 267.777 268.500 C 266.707 264.650, 265.478 260.150, 265.046 258.500 C 264.614 256.850, 262.232 249.425, 259.752 242 C 252.141 219.210, 250.224 212.706, 249.499 207.207 C 248.498 199.618, 250.410 197.387, 270.831 182.331 C 304.319 157.641, 307.895 154.881, 313.752 149.212 C 333.128 130.454, 326.522 111.426, 299.442 107.993 C 295.207 107.456, 276.242 106.714, 257.297 106.345 C 228.788 105.790, 222.308 105.401, 219.696 104.087 C 213.931 101.188, 213.517 100.209, 200.025 57.500 C 194.503 40.019, 193.434 37.152, 188.283 26 C 183.908 16.527, 179.215 10.766, 173.694 8.094 C 168.700 5.676, 166.017 5.547, 160.637 7.465 M 160.110 21.528 C 155.076 27.261, 152.269 33.762, 144.793 57 C 135.357 86.332, 129.603 102.870, 127.825 105.764 C 125.199 110.039, 118.329 114.696, 112.863 115.908 C 110.463 116.440, 98.825 117.132, 87 117.445 C 31.571 118.914, 26.343 119.369, 21.541 123.147 C 18.418 125.603, 18.175 130.135, 20.925 134.644 C 23.919 139.554, 38.564 151.802, 58.379 165.967 C 84.464 184.615, 87.988 187.626, 91.210 194.025 C 96.289 204.112, 95.656 207.994, 82.002 250.500 C 74.513 273.816, 72.078 283.779, 72.034 291.295 C 72.006 296.157, 72.400 297.490, 74.479 299.570 C 76.395 301.486, 77.586 301.905, 79.729 301.414 C 88.145 299.486, 99.766 292.358, 125.676 273.228 C 155.377 251.299, 157.634 249.996, 165.864 250.010 C 173.424 250.023, 178.752 252.649, 193.500 263.628 C 219.676 283.116, 236.856 295.017, 243.026 297.936 C 262.316 307.061, 264.582 297.449, 252.561 257.500 C 250.575 250.900, 247.868 242.350, 246.546 238.500 C 235.667 206.826, 235.434 197.786, 245.255 188.311 C 247.590 186.058, 254.279 180.679, 260.120 176.358 C 265.961 172.036, 276.524 164.229, 283.592 159.008 C 299.024 147.611, 308.214 139.197, 311.666 133.307 C 313.896 129.502, 314.071 128.585, 313.041 126.098 C 310.466 119.882, 299.453 118.190, 260 117.953 C 220.916 117.718, 214.159 116.500, 207.057 108.412 C 203.085 103.889, 201.291 99.803, 196.522 84.422 C 189.150 60.649, 180.841 36.544, 177.959 30.568 C 171.771 17.738, 166.002 14.816, 160.110 21.528 M 160.455 43.455 C 154.571 49.338, 161.142 59.994, 169.096 57.470 C 171.510 56.703, 174 52.008, 174 48.224 C 174 41.680, 165.294 38.615, 160.455 43.455 M 163.687 48.374 C 162.956 50.278, 165.500 52.406, 167.561 51.615 C 168.434 51.280, 168.997 50.217, 168.814 49.253 C 168.395 47.055, 164.452 46.379, 163.687 48.374 M 163.500 70.697 C 159.510 71.700, 157 75.100, 157 79.500 C 157 84.697, 160.106 87.936, 165.826 88.703 C 169.218 89.158, 170.251 88.840, 172.424 86.667 C 175.892 83.199, 176.059 76.337, 172.750 73.248 C 170.274 70.937, 166.588 69.920, 163.500 70.697 M 162.930 77.584 C 161.176 79.697, 162.926 82.500, 166 82.500 C 169.074 82.500, 170.824 79.697, 169.070 77.584 C 168.347 76.713, 166.965 76, 166 76 C 165.035 76, 163.653 76.713, 162.930 77.584 M 165.500 100.501 C 164.950 100.679, 163.275 101.095, 161.778 101.425 C 158.443 102.159, 154 108.361, 154 112.282 C 154 122.202, 165.885 127.551, 173.355 120.993 C 180.733 114.516, 178.013 103.143, 168.500 100.693 C 167.400 100.410, 166.050 100.324, 165.500 100.501 M 162 108 C 159.597 110.403, 159.462 112.786, 161.557 115.777 C 164.646 120.187, 172 117.398, 172 111.816 C 172 109.596, 168.174 106, 165.811 106 C 164.815 106, 163.100 106.900, 162 108 M 40.974 129.527 C 37.858 132.844, 37.780 138.225, 40.805 141.249 C 43.938 144.383, 50.520 144.311, 53.107 141.116 C 59.764 132.895, 48.194 121.843, 40.974 129.527 M 279.455 129.455 C 276.584 132.325, 276.183 137.388, 278.557 140.777 C 279.774 142.515, 281.097 143, 284.622 143 C 290.597 143, 292.783 141.676, 293.549 137.593 C 295.163 128.989, 285.500 123.409, 279.455 129.455 M 45.169 135.161 C 45.351 136.447, 46.175 137.500, 47 137.500 C 49.169 137.500, 48.870 133.599, 46.669 133.175 C 45.249 132.901, 44.912 133.347, 45.169 135.161 M 283.364 134.493 C 283.018 135.396, 283.214 136.614, 283.800 137.200 C 285.324 138.724, 288.210 137.331, 287.812 135.265 C 287.369 132.963, 284.165 132.407, 283.364 134.493 M 66.127 136.365 C 64.640 137.947, 63.849 140.136, 63.735 142.977 C 63.589 146.637, 64.029 147.637, 66.920 150.220 C 69.720 152.721, 70.854 153.123, 73.781 152.648 C 79.062 151.791, 82 148.511, 82 143.472 C 82 137.471, 78.600 134, 72.722 134 C 69.417 134, 67.806 134.578, 66.127 136.365 M 252.522 136.250 C 251.002 137.570, 249.695 139.993, 249.358 142.113 C 248.873 145.159, 249.255 146.253, 251.789 149.090 C 254.264 151.860, 255.511 152.455, 258.841 152.455 C 267.795 152.455, 271.206 142.349, 264.512 135.655 C 262.053 133.196, 255.672 133.513, 252.522 136.250 M 70.954 141.046 C 69.368 142.632, 69.173 143.455, 70.012 145.023 C 72.073 148.874, 77.870 146.316, 76.545 142.140 C 75.627 139.248, 73.223 138.777, 70.954 141.046 M 256.468 141.035 C 254.675 143.017, 254.682 143.126, 256.730 145.174 C 260.427 148.871, 264.969 144.833, 261.466 140.963 C 259.244 138.507, 258.749 138.515, 256.468 141.035 M 96.881 141.503 C 93.256 143.473, 90.635 149.338, 91.351 153.882 C 93.001 164.368, 109.286 166.394, 112.844 156.556 C 114.469 152.060, 114.304 150.314, 111.839 145.928 C 108.716 140.370, 102.403 138.503, 96.881 141.503 M 224.207 141.509 C 220.537 143.103, 216.544 150.429, 217.586 153.655 C 219.464 159.473, 224.905 164, 230.018 164 C 233.547 164, 238.717 160.250, 239.912 156.824 C 242.353 149.819, 240.269 144.779, 233.626 141.627 C 229.502 139.670, 228.470 139.657, 224.207 141.509 M 98.655 147.829 C 96.469 150.244, 96.552 154.284, 98.829 156.345 C 102.692 159.841, 108 157.327, 108 152 C 108 146.592, 102.141 143.977, 98.655 147.829 M 225.174 148.314 C 223.978 149.587, 223 151.587, 223 152.758 C 223 155.220, 226.482 158, 229.568 158 C 234.591 158, 236.911 150.452, 232.777 147.557 C 229.709 145.407, 227.719 145.605, 225.174 148.314 M 129.881 148.446 C 126.982 150.085, 123.998 155.519, 124.004 159.151 C 124.019 168.500, 137.729 174.361, 144.563 167.941 C 149.959 162.871, 149.953 155.123, 144.549 150.046 C 141.431 147.117, 133.720 146.275, 129.881 148.446 M 190.388 147.927 C 186.480 149.604, 184 153.904, 184 159 C 184 164.984, 186.649 168.559, 192.188 170.051 C 197.452 171.468, 200.622 170.617, 204.152 166.837 C 206.477 164.349, 207 162.892, 207 158.910 C 207 152.171, 203.335 147.970, 196.968 147.412 C 194.510 147.196, 191.550 147.428, 190.388 147.927 M 137.373 153.470 C 136.678 155.283, 138.626 158, 140.622 158 C 142.739 158, 142.256 154.207, 139.985 152.992 C 138.397 152.142, 137.844 152.243, 137.373 153.470 M 195.707 153.627 C 194.766 154.567, 197.920 158, 199.725 158 C 202.010 158, 200.834 153.548, 198.459 153.208 C 197.336 153.047, 196.098 153.236, 195.707 153.627 M 145.750 183.080 C 140.868 185.924, 146.118 195.092, 154.743 198.784 C 166.515 203.823, 175.834 202.261, 184.256 193.839 C 188.093 190.002, 189.063 188.384, 188.815 186.233 C 188.369 182.359, 184.836 182.073, 181.286 185.623 C 179.770 187.139, 176.998 189.419, 175.125 190.690 C 168.196 195.392, 155.391 192.605, 150.956 185.429 C 148.651 181.699, 148.352 181.564, 145.750 183.080 M 125.190 208.353 C 117.081 212.852, 117.210 223.877, 125.431 228.957 C 132.733 233.470, 142 228.102, 142 219.359 C 142 213.972, 139.707 210.193, 135.328 208.364 C 131.303 206.682, 128.206 206.679, 125.190 208.353 M 195.314 208.900 C 191.297 211.412, 189.754 214.275, 189.821 219.089 C 189.885 223.743, 192.012 227.153, 196.284 229.454 C 202.285 232.685, 211.053 228.589, 212.530 221.865 C 214.721 211.886, 203.750 203.623, 195.314 208.900 M 126.073 215.635 C 123.493 218.914, 123.473 220.213, 125.967 222.470 C 128.253 224.539, 132.338 224.794, 134.497 223.003 C 136.778 221.109, 136.375 216.376, 133.777 214.557 C 130.591 212.325, 128.439 212.626, 126.073 215.635 M 196.939 215.061 C 194.281 217.719, 194.778 220.762, 198.296 223.379 C 200.875 225.298, 201.301 225.342, 203.796 223.948 C 207.488 221.886, 208.047 216.847, 204.834 214.596 C 201.767 212.448, 199.413 212.587, 196.939 215.061 M 105.798 239.048 C 103.096 241.750, 102.814 242.573, 103.313 246.297 C 104.443 254.718, 113.218 257.936, 119.077 252.077 C 123.850 247.304, 122.559 240.310, 116.316 237.117 C 112.518 235.175, 109.031 235.815, 105.798 239.048 M 212.923 238.923 C 210.825 241.022, 210 242.817, 210 245.288 C 210 252.547, 217.916 257.237, 223.754 253.437 C 229.212 249.885, 230.270 246.356, 227.490 240.980 C 224.474 235.148, 217.660 234.186, 212.923 238.923 M 109.309 243.636 C 107.836 247.475, 113.149 250.296, 115.333 246.834 C 116.096 245.625, 116.023 244.733, 115.070 243.584 C 113.359 241.523, 110.109 241.552, 109.309 243.636 M 216.970 243.536 C 215.154 245.725, 216.908 248.500, 220.109 248.500 C 222.099 248.500, 222.500 247.997, 222.500 245.500 C 222.500 243.220, 221.999 242.428, 220.412 242.202 C 219.264 242.038, 217.715 242.638, 216.970 243.536 M 91.974 263.381 C 82.696 266.390, 86.349 279, 96.498 279 C 99.718 279, 104 274.598, 104 271.288 C 104 269.333, 102.722 265.720, 101.500 264.219 C 100.454 262.935, 94.866 262.443, 91.974 263.381 M 232.235 263.037 C 229.900 263.975, 228 267.611, 228 271.142 C 228 272.249, 229.315 274.469, 230.923 276.077 C 234.439 279.593, 238.585 279.901, 242.365 276.927 C 244.554 275.206, 245 274.047, 245 270.082 C 245 266.729, 244.456 264.818, 243.171 263.655 C 241.199 261.870, 235.887 261.570, 232.235 263.037 M 93.364 269.493 C 93.018 270.396, 93.214 271.614, 93.800 272.200 C 95.324 273.724, 98.210 272.331, 97.812 270.265 C 97.369 267.963, 94.165 267.407, 93.364 269.493 M 234.476 269.039 C 233.466 270.674, 236.511 273.402, 238.496 272.640 C 239.405 272.291, 239.997 271.217, 239.814 270.253 C 239.427 268.223, 235.528 267.336, 234.476 269.039" stroke="none" fill="black" fill-rule="evenodd"/>
</svg>