<svg xmlns="http://www.w3.org/2000/svg" width="304" height="377" viewBox="0 0 304 377" version="1.1">
	<path d="M 175.339 8.454 C 169.868 10.833, 162.186 17.197, 157.219 23.461 C 148.931 33.916, 147 39.619, 147 53.651 C 147 61.795, 147.461 65.291, 149.127 69.775 C 151.785 76.930, 152.408 81.013, 151.545 85.614 L 150.869 89.216 147.883 85.155 C 141.035 75.844, 127.828 68.952, 115.463 68.236 C 107.540 67.778, 107.408 67.809, 106.213 70.433 C 103.443 76.511, 105.545 87.430, 111.413 97.441 C 117.281 107.456, 130.793 115.658, 148.537 119.979 L 152.575 120.963 153.918 129.731 C 154.656 134.554, 155.511 139.157, 155.818 139.961 C 156.125 140.764, 154.662 139.525, 152.567 137.206 C 150.298 134.694, 145.775 131.515, 141.379 129.343 C 134.769 126.076, 132.984 125.650, 124.250 125.257 C 117.570 124.957, 113.241 125.250, 110.500 126.188 L 106.500 127.557 106.793 132.910 C 107.746 150.343, 124.455 163.327, 149.659 166.219 L 159.818 167.385 160.460 172.942 C 160.813 175.999, 161.362 180.637, 161.680 183.250 C 161.998 185.862, 161.862 187.990, 161.379 187.978 C 160.895 187.966, 159.197 186.053, 157.605 183.728 C 150.713 173.663, 140.878 168.866, 125.769 168.199 L 116.038 167.769 114.932 170.634 C 113.392 174.625, 114.431 180.789, 117.954 188.559 C 123.466 200.714, 133.185 207.665, 150.750 212.014 C 158.752 213.995, 160 214.587, 159.997 216.402 C 159.994 218.695, 156.138 239.195, 155.611 239.722 C 155.432 239.901, 154.310 237.374, 153.119 234.105 C 149.359 223.794, 137.413 213.228, 126.824 210.849 C 119.937 209.302, 118.380 210.188, 116.457 216.751 C 115.025 221.637, 114.947 223.459, 115.936 228.889 C 118.480 242.843, 125.762 251.083, 146.607 263.594 C 148.959 265.006, 149.093 263.791, 143.918 288 C 142.124 296.393, 141.656 301.911, 141.587 315.500 L 141.500 332.500 133.202 323.885 L 124.903 315.271 126.368 311.885 C 127.174 310.023, 128.509 306.925, 129.335 305 C 133.525 295.239, 133.413 285.219, 128.988 273.948 C 125.211 264.325, 121.513 262.075, 115.966 266.024 C 111.034 269.536, 107.662 278.033, 107.178 288.168 L 106.755 296.998 104.017 294.249 C 99.013 289.226, 90.235 278.355, 88.546 275.089 L 86.881 271.869 93.438 264.918 C 101.252 256.635, 104.063 252.361, 106.539 245 C 109.956 234.840, 108.144 218.155, 103.132 213.619 C 101.511 212.153, 100.933 212.144, 96.878 213.526 C 91.393 215.395, 82.818 222.732, 79.572 228.333 C 78.245 230.625, 76.362 234.966, 75.389 237.979 L 73.620 243.458 72.227 238.479 C 70.441 232.093, 68.730 222.462, 68.601 218.066 C 68.509 214.945, 69.048 214.262, 74.500 210.581 C 84.134 204.075, 92.425 195.113, 95.061 188.355 C 98.090 180.589, 98.749 169.090, 96.592 161.668 C 94.629 154.917, 93.090 154.246, 85.814 156.968 C 77.718 159.997, 68.160 168.360, 64.369 175.731 L 61.239 181.818 60.715 177.908 C 60.426 175.758, 60.871 171.412, 61.703 168.249 C 62.772 164.187, 63.086 159.419, 62.773 152 C 62.376 142.574, 61.995 140.839, 59.043 135.036 C 54.365 125.839, 45.593 117.083, 36.368 112.400 C 29.259 108.792, 28.692 108.663, 26.170 110.075 C 22.522 112.119, 20.802 117.620, 20.252 129 C 19.914 135.999, 20.227 139.992, 21.443 144.168 C 24.647 155.167, 35.129 168.124, 46.019 174.547 C 49.378 176.528, 51.192 178.323, 51.529 180 C 51.806 181.375, 52.410 184.177, 52.871 186.226 L 53.709 189.952 50.318 186.974 C 40.905 178.710, 22.645 174.629, 10.866 178.158 C 7.146 179.273, 7 179.481, 7 183.680 C 7 190.071, 11.711 199.735, 17.090 204.375 C 25.231 211.399, 38.599 216.948, 47.500 216.999 C 49.700 217.012, 53.164 217.297, 55.197 217.633 C 58.356 218.156, 58.983 218.700, 59.501 221.372 C 60.593 227.003, 62.006 233.370, 63.895 241.167 L 65.753 248.834 61.803 245.973 C 57.200 242.638, 49.934 240.907, 40.331 240.856 C 33.472 240.820, 25.308 242.230, 21.941 244.032 C 17.267 246.533, 19.666 254.522, 27.659 263.067 C 36.380 272.390, 47.015 275.961, 66.130 275.985 L 77.760 276 81.754 281.250 C 83.950 284.137, 87.646 288.867, 89.967 291.761 C 93.912 296.679, 94.014 296.956, 91.529 296.011 C 87.132 294.339, 74.106 294.834, 67.500 296.924 C 61.885 298.700, 52 303.612, 52 304.625 C 52 304.875, 52.926 306.895, 54.058 309.114 C 60.502 321.744, 78.009 329.459, 94.674 327.012 C 98.428 326.461, 104.950 324.929, 109.166 323.609 L 116.831 321.207 122.250 325.853 C 132.457 334.605, 139.642 344.158, 145.853 357.230 C 148.134 362.031, 150 366.343, 150 366.811 C 150 367.279, 151.110 368.256, 152.466 368.982 C 156.120 370.937, 157.696 369.028, 158.472 361.705 C 160.145 345.921, 163.919 333.357, 169.574 324.740 L 172.041 320.980 175.771 322.849 C 182.740 326.342, 193.367 328.266, 203.293 327.832 C 211.474 327.474, 213.148 327.062, 218.230 324.155 C 224.667 320.472, 230 314.658, 230 311.323 C 230 308.614, 225.599 305.097, 217.458 301.302 C 212.323 298.909, 210.239 298.524, 202.373 298.513 L 193.245 298.500 196.228 295 C 197.869 293.075, 201.514 289.428, 204.327 286.896 L 209.442 282.291 216.829 284.570 C 236.319 290.584, 252.792 288.050, 263.440 277.402 C 268.943 271.900, 270.079 267.778, 266.999 264.499 C 261.895 259.066, 244.293 254.681, 235.586 256.673 L 231.116 257.696 235.736 251.098 C 243.336 240.243, 241.985 241, 253.761 241 C 265.394 241, 274.208 239.182, 280.617 235.462 C 286.230 232.203, 294.707 222.709, 296.073 218.152 C 298.873 208.804, 295.630 206.525, 279.500 206.510 C 268.124 206.500, 260.896 208.199, 256.637 211.887 C 254.828 213.453, 254.820 213.387, 256.387 209.628 C 257.274 207.498, 258 204.691, 258 203.390 C 258 201.695, 259.204 200.265, 262.250 198.342 C 273.287 191.375, 281.943 179.074, 284.135 167.240 C 285.961 157.382, 282.962 142.517, 278.183 137.738 C 276.313 135.869, 275.698 135.774, 272.213 136.818 C 266.812 138.436, 255.137 148.515, 251.347 154.832 C 244.924 165.537, 243.511 180.257, 247.590 193.991 C 248.627 197.483, 248.876 200.589, 248.376 203.800 L 247.645 208.500 246.434 204.416 C 243.302 193.851, 237.410 186.454, 228.483 181.879 C 222.048 178.582, 221.854 178.547, 220.445 180.440 C 219.651 181.507, 218.101 184.787, 217.001 187.728 C 211.729 201.818, 216.611 218.773, 230.205 233.588 L 233.955 237.675 227.228 246.793 L 220.500 255.910 219.869 248.205 C 219.139 239.293, 218.063 235.489, 214.595 229.572 C 212.010 225.162, 206.164 220, 203.754 220 C 201.500 220, 197.295 225.102, 194.485 231.247 C 189.274 242.639, 190.117 252.731, 197.518 267.578 L 201.965 276.500 193.233 285.247 L 184.500 293.995 184.837 287.460 C 185.070 282.941, 184.614 279.367, 183.358 275.875 C 181.315 270.194, 175.667 263, 173.251 263 C 170.980 263, 163.710 270.900, 161.198 276.097 C 156.750 285.301, 157.429 299.204, 162.857 310.066 L 165.547 315.450 161.805 321.054 C 159.747 324.137, 157.098 329.323, 155.920 332.579 C 154.741 335.836, 153.520 339.175, 153.208 340 C 152.432 342.043, 151.146 332.783, 150.370 319.579 C 149.551 305.623, 150.441 299.107, 157.500 267.384 C 157.844 265.838, 159.255 264.934, 162.735 264.030 C 172.336 261.536, 173.983 260.805, 178.982 256.825 C 184.381 252.527, 187.300 247.869, 188.401 241.797 C 188.990 238.553, 188.756 237.886, 186.519 236.420 C 184.280 234.954, 183.194 234.896, 177.732 235.951 C 174.305 236.613, 169.980 238.039, 168.123 239.119 L 164.745 241.083 165.393 238.791 C 165.749 237.531, 166.744 232, 167.604 226.500 C 168.464 221, 169.483 215.877, 169.870 215.115 C 170.257 214.353, 174.382 212.737, 179.036 211.523 C 195.641 207.194, 206.686 199.250, 212.440 187.500 C 215.769 180.703, 217.015 170.765, 215.008 167.016 C 213.870 164.888, 213.320 164.785, 205.368 165.202 C 197.815 165.599, 196.031 166.106, 188.255 170.072 C 181.634 173.450, 178.585 175.721, 175.401 179.647 L 171.228 184.795 170.625 181.147 C 170.293 179.141, 170.017 174.783, 170.011 171.463 L 170 165.425 179.968 162.158 C 196.001 156.903, 204.275 150.368, 210.487 138.051 C 212.586 133.889, 213.266 131.035, 213.367 125.963 C 213.553 116.678, 212.556 115.689, 203.545 116.209 C 189.796 117.002, 174.718 125.820, 168.224 136.866 C 165.738 141.095, 165.475 141.281, 165.209 139 C 165.050 137.625, 164.262 133.486, 163.459 129.803 C 161.359 120.165, 161.307 120.312, 167.250 119.060 C 181.738 116.008, 191.863 111.283, 198.687 104.389 C 206.532 96.465, 210 88.733, 210 79.169 C 210 72.771, 208.228 71.594, 198.784 71.723 C 186.553 71.890, 171.653 78.741, 163.966 87.731 L 160.500 91.786 160.839 85.880 C 161.118 81.040, 161.569 79.770, 163.339 78.843 C 167.543 76.640, 175.199 70.028, 178.329 65.897 C 185.321 56.667, 186.127 55.254, 188.027 48.892 C 190.847 39.450, 190.679 28.199, 187.583 19.046 C 183.493 6.959, 181.914 5.593, 175.339 8.454 M 173.979 17.903 C 169.113 20.934, 159.786 30.580, 157.560 34.884 C 156.808 36.337, 155.425 40.169, 154.486 43.400 C 152.969 48.618, 152.920 50.342, 154.048 58.864 C 155.454 69.487, 155.235 69.651, 159.889 54.500 C 163.300 43.394, 166.146 38, 168.595 38 C 170.551 38, 170.250 41.022, 167.248 51.500 C 162.970 66.436, 162.626 67.960, 163.367 68.701 C 163.788 69.121, 167.184 66.323, 170.915 62.483 C 179.872 53.260, 182.376 47.127, 182.338 34.500 C 182.319 28.194, 181.740 23.941, 180.405 20.294 L 178.500 15.087 173.979 17.903 M 112.481 79.142 C 113.801 87.435, 118.908 96.815, 124.650 101.492 C 130.126 105.953, 143.915 112.358, 146.823 111.792 C 149.156 111.337, 140.209 101.796, 133.250 97.317 C 127.772 93.792, 126.399 90.652, 129.932 89.728 C 132.269 89.117, 137.728 92.581, 144.359 98.883 C 148.526 102.843, 149.112 103.144, 148.480 101 C 144.857 88.708, 130.670 77.142, 117.144 75.452 L 111.788 74.783 112.481 79.142 M 186.831 81.379 C 179.148 84.539, 171.848 90.076, 167.429 96.096 C 165.412 98.845, 163.942 101.275, 164.164 101.497 C 164.385 101.719, 167.368 99.951, 170.792 97.568 C 174.216 95.185, 178.355 92.681, 179.990 92.004 C 186.390 89.353, 188.627 94.526, 182.366 97.497 C 175.948 100.542, 160.172 113.543, 165.026 111.787 C 165.865 111.483, 169.240 110.679, 172.526 110.001 C 179.441 108.572, 186.808 105.072, 192.273 100.622 C 196.460 97.211, 201.439 88.506, 202.531 82.688 L 203.223 79 197.861 79.024 C 194.582 79.038, 190.299 79.953, 186.831 81.379 M 28.269 119.750 C 27.846 121.263, 27.513 126.775, 27.528 132 C 27.565 144.610, 29.987 149.978, 40.426 160.587 C 44.605 164.834, 48.229 168.104, 48.480 167.853 C 49.172 167.162, 45.660 156.256, 42.604 149.607 C 41.115 146.365, 40.130 143.103, 40.417 142.357 C 41.138 140.478, 43.383 140.661, 45.276 142.752 C 47.080 144.746, 52.331 156.116, 53.356 160.250 C 53.731 161.762, 54.542 163, 55.158 163 C 55.938 163, 56.124 160.310, 55.772 154.130 C 55.228 144.596, 52.681 137.382, 47.427 130.493 C 44.488 126.640, 32.253 117.025, 30.269 117.010 C 29.592 117.004, 28.692 118.237, 28.269 119.750 M 195 125.152 C 185.510 128.131, 179.357 133.198, 173.934 142.500 C 172.331 145.250, 171.015 147.903, 171.009 148.395 C 171.004 148.887, 173.389 147.031, 176.308 144.270 C 184.323 136.690, 191 133.801, 191 137.914 C 191 139.062, 188.498 141.828, 184.750 144.826 C 177.579 150.562, 171.147 157, 172.588 157 C 174.609 157, 184.695 153.015, 190 150.120 C 196.848 146.384, 202.543 139.143, 205.103 130.917 C 206.146 127.565, 207 124.412, 207 123.911 C 207 122.441, 201.985 122.960, 195 125.152 M 114.212 135.250 C 116.128 140.867, 121.504 148.392, 125.654 151.264 C 127.850 152.784, 132.160 154.911, 135.232 155.990 C 141.106 158.055, 154.803 160.530, 155.652 159.681 C 156.303 159.030, 145.358 152.636, 137.474 149.061 C 130.374 145.842, 129.146 144.528, 131.872 143.068 C 134.289 141.775, 143.175 144.527, 148.974 148.364 C 155.509 152.689, 155.813 151.546, 149.928 144.776 C 142.836 136.615, 131.977 132, 119.871 132 L 113.104 132 114.212 135.250 M 269.390 146.602 C 256.672 155.109, 250.721 168.302, 252.745 183.500 L 253.545 189.500 256.924 179.174 C 258.782 173.494, 261.106 167.869, 262.087 166.674 C 263.723 164.681, 264.006 164.633, 265.496 166.096 C 266.995 167.569, 266.868 168.519, 263.868 178.321 C 262.079 184.166, 260.929 189.262, 261.312 189.645 C 262.222 190.555, 266.315 186.678, 270.617 180.830 C 275.687 173.939, 278.256 165.823, 277.687 158.500 C 277.212 152.398, 275.017 144, 273.896 144 C 273.557 144, 271.529 145.171, 269.390 146.602 M 83.280 166.012 C 74.640 170.968, 67.922 181.633, 66.572 192.537 L 65.958 197.500 68.643 192.148 C 70.119 189.204, 72.845 185.186, 74.700 183.219 C 77.742 179.994, 78.224 179.795, 79.618 181.189 C 81.012 182.583, 80.628 183.661, 75.706 192.187 C 72.705 197.385, 69.903 202.729, 69.480 204.061 C 68.762 206.326, 68.835 206.387, 70.606 204.997 C 84.452 194.123, 89.199 187.522, 90.562 177.241 C 91.266 171.938, 90.402 162.993, 89.189 163.009 C 88.810 163.015, 86.151 164.366, 83.280 166.012 M 196.465 173.886 C 189.465 176.407, 188.014 177.302, 183.847 181.671 C 179.953 185.753, 175 192.725, 175 194.124 C 175 194.589, 178.037 192.790, 181.750 190.126 C 189.804 184.348, 191.278 183.751, 193.497 185.374 C 195.005 186.477, 194.607 187.062, 189.844 190.750 C 184.201 195.122, 173.084 206, 174.261 206 C 175.636 206, 187.684 201.194, 192.769 198.617 C 201.120 194.385, 209 182.346, 209 173.818 C 209 171.388, 203.314 171.419, 196.465 173.886 M 121 175.052 C 121 175.399, 121.655 177.858, 122.455 180.517 C 124.651 187.813, 130.129 195.055, 136.209 198.699 C 141.814 202.058, 154.181 206.440, 156.178 205.774 C 157.666 205.278, 146.220 195.663, 140.929 192.964 C 136.911 190.914, 135.818 188.391, 138.502 187.361 C 141.083 186.370, 144.603 187.832, 150.656 192.410 C 153.870 194.841, 156.646 196.685, 156.824 196.508 C 157.002 196.331, 156.431 194.800, 155.555 193.106 C 150.674 183.668, 139.032 176.075, 127.870 175.052 C 124.091 174.706, 121 174.706, 121 175.052 M 14 184.885 C 14 189.429, 23.072 201.168, 29.337 204.730 C 36.497 208.802, 55.886 211.977, 53.101 208.622 C 52.472 207.864, 47.242 204.900, 41.479 202.036 C 35.715 199.172, 31 196.448, 31 195.982 C 31 192.728, 40.768 194.509, 48.359 199.147 C 51.031 200.780, 53.426 201.907, 53.681 201.652 C 54.779 200.555, 42.271 189.556, 37.379 187.316 C 31.240 184.505, 14 182.713, 14 184.885 M 223.281 190.750 C 222.865 192.262, 222.531 196.875, 222.538 201 C 222.552 207.875, 222.897 209.138, 226.686 216.160 C 228.960 220.373, 231.822 224.822, 233.047 226.047 L 235.274 228.274 234.551 224.387 C 234.153 222.249, 232.967 218.041, 231.914 215.035 C 229.732 208.805, 229.528 206.410, 231.096 205.441 C 233.030 204.246, 235.397 207.829, 238.249 216.270 L 241.030 224.500 240.475 216 C 240.170 211.325, 239.395 205.737, 238.752 203.582 C 237.502 199.393, 227.748 188, 225.411 188 C 224.656 188, 223.697 189.238, 223.281 190.750 M 266.822 215.333 C 261.273 217.664, 252.460 223.793, 253.361 224.694 C 253.610 224.944, 255.249 224.405, 257.003 223.498 C 260.959 221.453, 269.445 220.036, 271.196 221.129 C 273.777 222.740, 270.414 225.352, 262.433 227.934 C 258.070 229.345, 253.387 231.287, 252.027 232.250 C 249.562 233.995, 249.574 234, 255.728 234 C 262.820 234, 271.208 232.417, 275.364 230.294 C 281.784 227.014, 291.382 216.050, 289.491 214.157 C 289.130 213.796, 285.159 213.376, 280.667 213.224 C 273.905 212.996, 271.523 213.359, 266.822 215.333 M 123 222.987 C 123 231.045, 126.058 238.819, 131.294 244.073 C 135.616 248.408, 145.711 255.623, 146.438 254.896 C 146.662 254.671, 143.691 250.080, 139.835 244.693 C 133.194 235.414, 131.983 232, 135.332 232 C 137.217 232, 141.429 236.339, 145.216 242.183 C 146.932 244.831, 148.515 246.819, 148.733 246.600 C 149.284 246.049, 147.176 238.141, 145.508 234.500 C 143.112 229.271, 136.825 222.855, 132.079 220.795 C 122.172 216.495, 123 216.295, 123 222.987 M 93.245 223.994 C 85.396 230.244, 79.180 244.681, 80.230 254.223 L 80.591 257.500 81.435 254.500 C 83.094 248.602, 87.911 238.971, 89.509 238.358 C 92.675 237.143, 93.168 239.502, 90.919 245.096 C 88.662 250.709, 85.021 261.914, 85.008 263.288 C 84.991 265.046, 96.041 251.553, 98.189 247.193 C 100.112 243.287, 100.500 240.907, 100.500 233 C 100.500 227.775, 100.021 222.693, 99.436 221.706 C 98.461 220.063, 97.940 220.256, 93.245 223.994 M 202.677 230.371 C 201.733 231.810, 200.261 235.723, 199.405 239.065 C 197.988 244.597, 197.993 245.859, 199.462 253.110 C 200.350 257.492, 201.984 262.523, 203.094 264.289 L 205.112 267.500 204.806 256.099 C 204.588 247.986, 204.841 244.580, 205.682 244.288 C 207.755 243.570, 209.225 248.069, 209.807 256.910 L 210.372 265.500 211.609 261.500 C 214.635 251.716, 212.411 237.722, 206.703 230.627 L 204.392 227.753 202.677 230.371 M 174.552 244.550 C 170.326 246.753, 162.170 253.116, 161.571 254.675 C 160.727 256.875, 164.263 256.208, 170.822 252.931 C 176.421 250.133, 181 246.054, 181 243.865 C 181 242.517, 177.798 242.857, 174.552 244.550 M 29.264 248.704 L 27.028 249.135 28.927 252.818 C 31.662 258.124, 36.628 262.493, 43.500 265.638 C 48.672 268.005, 51.086 268.438, 61 268.780 L 72.500 269.176 65.500 265.591 C 61.650 263.619, 57.600 262.002, 56.500 261.998 C 51.988 261.978, 47 259.911, 47 258.061 C 47 254.435, 55.470 254.662, 64.745 258.538 C 66.704 259.356, 68.453 259.880, 68.632 259.702 C 69.541 258.792, 58.504 251.722, 53.472 249.990 C 47.972 248.098, 35.765 247.449, 29.264 248.704 M 234 264.413 C 227.670 266.811, 222.777 269.111, 223.170 269.503 C 223.382 269.716, 225.344 269.475, 227.528 268.969 C 235.789 267.053, 243 268.250, 243 271.535 C 243 272.341, 242.887 273.031, 242.750 273.070 C 242.613 273.108, 238.580 273.348, 233.788 273.602 C 228.421 273.886, 223.512 274.764, 221.002 275.888 L 216.928 277.712 223.214 279.106 C 226.671 279.873, 232.875 280.500, 237 280.500 C 243.135 280.500, 245.507 280.006, 250.030 277.784 C 255.580 275.058, 261.882 269.549, 260.748 268.415 C 259.590 267.256, 243.585 263, 240.551 263.044 C 238.873 263.068, 235.925 263.684, 234 264.413 M 170.466 275.239 C 167.043 280.879, 166.154 284.297, 166.102 292 C 166.067 297.366, 166.591 300.638, 167.945 303.500 L 169.838 307.500 169.919 297.180 C 169.998 287.071, 170.046 286.867, 172.250 287.180 C 174.281 287.469, 174.549 288.181, 175 294.500 L 175.500 301.500 176.873 295.314 C 178.459 288.169, 177.774 281.437, 174.884 275.773 C 173.826 273.698, 172.841 272, 172.695 272 C 172.550 272, 171.547 273.458, 170.466 275.239 M 116.503 278.165 C 114.816 281.789, 114.015 285.263, 114.007 289 C 113.994 294.463, 117.632 309, 119.012 309 C 120.706 309, 124.253 298.058, 124.684 291.500 C 125.166 284.173, 122.666 274.055, 120.168 273.223 C 119.519 273.006, 117.869 275.230, 116.503 278.165 M 68.500 304.165 C 65.200 305.310, 62.137 306.576, 61.693 306.980 C 60.242 308.300, 70.842 316.787, 76.140 318.547 C 81.916 320.465, 94.538 320.192, 104 317.944 L 109.500 316.637 104 315.360 C 100.975 314.658, 94.832 313.781, 90.350 313.412 C 81.149 312.655, 79.415 311.967, 80.378 309.458 C 80.974 307.904, 82.190 307.774, 91.621 308.255 C 97.436 308.552, 101.813 308.447, 101.347 308.022 C 100.881 307.598, 97.498 306.069, 93.829 304.625 C 85.501 301.348, 77.063 301.194, 68.500 304.165 M 195.458 305.985 C 193.234 306.447, 189.859 307.470, 187.958 308.258 C 184.571 309.663, 184.683 309.695, 193.452 309.833 C 199.685 309.932, 202.834 310.405, 203.820 311.391 C 206.583 314.155, 204.105 315, 193.191 315.015 C 177.008 315.038, 176.634 316.740, 191.964 320.598 C 202.504 323.251, 214.183 320.692, 220.054 314.442 C 222.319 312.032, 222.326 311.957, 220.431 310.500 C 215.932 307.039, 202.272 304.569, 195.458 305.985" stroke="none" fill="black" fill-rule="evenodd"/>
</svg>