<svg xmlns="http://www.w3.org/2000/svg" width="365" height="316" viewBox="0 0 365 316" version="1.1">
	<path d="M 53.227 8.551 C 14.882 18.874, -3.444 59.952, 13.098 98.500 C 15.507 104.113, 23.141 114.065, 27.960 117.874 C 30.603 119.963, 35.210 122.665, 38.198 123.878 L 43.632 126.083 45.877 133.291 C 50.395 147.795, 58.087 158.430, 69.889 166.494 L 76.822 171.231 74.519 177.366 L 72.217 183.500 64.335 184.098 C 39.821 185.956, 22.931 200.942, 17.417 225.727 C 14.431 239.152, 17.771 245.740, 27.247 245.115 C 29.871 244.942, 36.875 238.203, 40.816 232.059 C 47.287 221.970, 53.558 217.578, 63.012 216.514 L 68.500 215.897 63.474 218.419 C 53.313 223.516, 42.567 236.024, 39.477 246.348 C 38.629 249.182, 37.662 255.587, 37.328 260.583 C 36.267 276.446, 40.228 286, 47.866 286 C 54.405 286, 56.700 283.071, 61.575 268.500 C 64.415 260.013, 67.604 254.851, 72.500 250.818 C 75.899 248.018, 82.988 245, 86.165 245 C 87.959 245, 87.480 245.857, 83.091 250.497 C 80.231 253.521, 76.684 258.583, 75.207 261.747 C 67.318 278.650, 74.740 309, 86.762 309 C 93.943 309, 96.046 305.909, 97.992 292.500 C 98.710 287.550, 100.123 281.630, 101.131 279.345 C 103.200 274.654, 110.304 267.213, 113.473 266.417 C 114.675 266.116, 118.544 267.227, 122.535 269.020 C 150.822 281.728, 193.947 284.684, 224.762 276.026 C 228.757 274.904, 236.533 272.002, 242.044 269.577 L 252.064 265.167 256.282 268.334 C 262.040 272.656, 265.648 280.223, 267.545 291.953 C 269.061 301.324, 271.603 307.250, 274.602 308.401 C 284.092 312.042, 292.416 300.965, 293.691 283 C 294.691 268.900, 291.447 258.899, 282.929 249.826 C 280.218 246.939, 278 244.468, 278 244.336 C 278 243.281, 288.311 247.587, 292.591 250.429 C 299.281 254.871, 300.056 256.089, 304.403 269 C 307.189 277.274, 308.683 280.189, 311.454 282.750 C 313.388 284.537, 315.900 286, 317.035 286 C 320.688 286, 324.682 283.189, 326.562 279.294 C 329.328 273.566, 329.145 255.892, 326.223 246.500 C 322.448 234.370, 313.683 223.967, 302.633 218.504 L 297.500 215.966 302.500 216.616 C 311.929 217.841, 317.021 221.399, 325.253 232.514 C 329.332 238.022, 333.890 243.084, 335.382 243.764 C 342.107 246.828, 348.211 243.721, 349.557 236.548 C 350.904 229.366, 347.170 216.538, 340.740 206.264 C 332.517 193.123, 320.348 185.828, 303.333 183.840 C 294.356 182.791, 293.113 182.409, 292.707 180.576 C 292.455 179.434, 291.525 176.846, 290.642 174.825 L 289.036 171.150 295.362 166.636 C 302.699 161.400, 310.585 153.091, 314.408 146.567 C 317.005 142.136, 321 131.119, 321 128.389 C 321 127.647, 323.853 125.705, 327.341 124.075 C 336.424 119.828, 343.083 114.164, 348.207 106.329 C 355.880 94.593, 358 86.582, 358 69.318 C 358 58.280, 357.642 55.349, 355.489 48.758 C 348.073 26.051, 330.533 10.902, 307.694 7.477 C 301.698 6.578, 298.415 7.436, 296.464 10.415 C 295.024 12.613, 295.100 13.557, 297.451 22.604 C 299.984 32.350, 300.714 45.257, 299.132 52.318 L 298.500 55.137 294.753 50.213 C 290.600 44.757, 285 33.163, 285 30.022 C 285 27.214, 281.506 24, 278.452 24 C 274.931 24, 266.925 32.210, 263.217 39.625 C 257.808 50.439, 256.616 55.535, 256.580 68 C 256.549 78.521, 256.836 80.343, 259.949 89.399 C 264.005 101.198, 269.530 109.876, 276.158 114.855 C 280.768 118.318, 280.984 118.691, 280.480 122.333 C 279.788 127.333, 275.592 135.656, 271.699 139.750 C 269.999 141.537, 268.346 143, 268.027 143 C 267.708 143, 265.129 141.259, 262.296 139.130 C 256.253 134.590, 239.343 125.748, 233.250 123.943 C 228.656 122.582, 228.576 122.374, 229.636 114.637 C 230.159 110.820, 230.845 109.641, 233.493 108.004 C 244.479 101.215, 250.051 88.097, 246.450 77.500 C 242.287 65.247, 233.656 58.580, 222 58.614 C 202.175 58.671, 189.697 78.005, 197.759 96.175 C 198.815 98.554, 200.822 101.596, 202.219 102.936 C 204.360 104.988, 204.679 106.011, 204.244 109.436 C 203.303 116.849, 204.342 116.511, 182.849 116.397 L 163.500 116.293 162.396 110.897 C 161.371 105.887, 161.453 105.321, 163.536 103 C 168.106 97.908, 170 92.534, 170 84.654 C 170 74.893, 166.656 68.001, 159.621 63.264 C 150.302 56.988, 140.919 56.611, 131.281 62.125 C 122.818 66.967, 118.714 74.461, 118.752 85 C 118.791 95.589, 123.672 103.676, 132.909 108.453 C 135.335 109.708, 135.952 110.858, 136.807 115.722 C 137.365 118.900, 137.525 121.767, 137.161 122.094 C 136.798 122.421, 133.800 123.734, 130.500 125.011 C 121.422 128.527, 112.242 133.272, 104.576 138.413 L 97.673 143.042 95.249 140.771 C 92.714 138.397, 85 123.429, 85 120.885 C 85 120.077, 87.072 117.410, 89.605 114.958 C 103.894 101.126, 110.776 84.045, 109.715 65.042 C 109.422 59.794, 108.629 53.925, 107.954 52 C 107.279 50.075, 106.116 46.700, 105.370 44.500 C 103.717 39.623, 94.476 27.324, 90.894 25.233 C 87.575 23.295, 83.249 24.291, 82.010 27.278 C 81.504 28.500, 79.677 32.987, 77.952 37.249 C 76.226 41.511, 73.169 47.222, 71.157 49.940 C 67.727 54.577, 67.448 54.747, 66.641 52.691 C 65.223 49.079, 65.795 36.222, 67.909 24.178 C 69.974 12.410, 69.670 8.855, 66.495 7.636 C 63.933 6.653, 59.018 6.992, 53.227 8.551 M 53.500 20.017 C 47.992 21.273, 43.174 23.805, 37.027 28.674 C 29.663 34.506, 25.157 41.001, 21.537 51 C 19.262 57.286, 18.811 60.199, 18.752 69 C 18.615 89.594, 26.017 104.458, 40.174 112.019 C 45.617 114.926, 47.698 115.455, 55.079 115.813 C 68.013 116.439, 71.636 113.942, 74.681 102.301 C 77.335 92.154, 74.967 84.207, 66.477 74.763 C 60.253 67.841, 57.035 61.557, 55.416 53.162 C 53.654 44.029, 53.672 37.735, 55.489 27.537 C 56.269 23.157, 56.816 19.519, 56.704 19.453 C 56.592 19.386, 55.150 19.640, 53.500 20.017 M 308.519 20.699 C 310.067 24.310, 311.142 37.721, 310.586 46.500 C 309.763 59.501, 307.017 65.994, 298.111 76 C 292.324 82.501, 289.998 88.521, 290.016 96.946 C 290.046 110.636, 295.794 116.363, 309.361 116.223 C 332.334 115.985, 347.315 97.427, 347.176 69.379 C 347.052 44.244, 332.967 25.064, 310.624 19.602 C 308.112 18.988, 307.845 19.127, 308.519 20.699 M 85.122 48.269 C 82.364 53.454, 78.776 58.362, 75.423 61.533 L 70.103 66.565 73.686 71.033 C 79.875 78.750, 82.118 84.840, 82.229 94.233 C 82.283 98.780, 81.986 103.551, 81.569 104.836 C 80.165 109.162, 84.387 105.592, 89.319 98.284 C 100.006 82.448, 101.649 65.040, 94.084 47.798 C 90.261 39.084, 90 39.098, 85.122 48.269 M 273.308 43.750 C 266.790 55.611, 265.644 72.374, 270.394 86.366 C 273.190 94.603, 276.895 100.790, 281.554 105 C 283.958 107.173, 284.217 107.238, 283.530 105.500 C 280.068 96.744, 283.096 83.275, 290.816 73.092 L 295.674 66.685 290.449 61.592 C 285.886 57.146, 277 43.480, 277 40.910 C 277 38.873, 275.247 40.221, 273.308 43.750 M 137.500 68.881 C 132.694 71.087, 130.611 73.294, 128.451 78.463 C 125.043 86.620, 128.728 95.158, 138 100.585 C 143.464 103.783, 143.514 103.857, 145.560 111.652 C 147.477 118.956, 147.789 119.476, 150.060 119.152 C 151.402 118.961, 152.649 118.662, 152.831 118.488 C 153.014 118.313, 152.637 114.702, 151.994 110.462 L 150.826 102.753 154.855 98.627 C 157.071 96.357, 159.360 93.233, 159.942 91.685 C 162.942 83.702, 159.585 73.599, 152.566 69.486 C 147.548 66.545, 142.985 66.362, 137.500 68.881 M 212.960 69.303 C 205.310 73.348, 201.973 83.213, 205.444 91.521 C 206.239 93.422, 208.786 96.730, 211.106 98.871 L 215.323 102.765 213.753 110.633 C 212.890 114.960, 212.255 118.548, 212.342 118.606 C 212.429 118.665, 213.889 118.977, 215.588 119.299 L 218.675 119.885 219.899 113.193 C 221.190 106.135, 223.195 102, 225.326 102 C 227.719 102, 234.770 96.005, 236.388 92.595 C 239.900 85.194, 237.802 76.764, 230.894 70.523 C 227.564 67.515, 226.287 67, 222.154 67 C 219.030 67, 215.771 67.816, 212.960 69.303 M 135.891 76.117 C 130.790 81.577, 130.842 87.182, 136.039 92.036 C 145.362 100.745, 160.450 91.194, 155.623 79.639 C 153.599 74.797, 150.502 73, 144.179 73 C 139.450 73, 138.452 73.375, 135.891 76.117 M 212.104 76.535 C 201.946 88.104, 219.233 102.921, 230.150 92.003 C 233.520 88.634, 234.033 82.558, 231.335 77.990 C 229.196 74.369, 226.102 73, 220.057 73 C 215.757 73, 214.855 73.401, 212.104 76.535 M 146 79.878 C 146 80.910, 146.694 82.331, 147.542 83.035 C 149.591 84.735, 151.430 82.930, 150.532 80.101 C 149.685 77.433, 146 77.252, 146 79.878 M 222.637 78.778 C 222.373 79.206, 222.997 80.668, 224.024 82.028 C 225.432 83.892, 226.176 84.217, 227.045 83.351 C 228.671 81.730, 227.239 78, 224.992 78 C 223.961 78, 222.902 78.350, 222.637 78.778 M 69 125.613 C 66.525 126.287, 62.579 126.875, 60.231 126.920 C 56.104 126.997, 55.982 127.092, 56.577 129.750 C 58.776 139.580, 68.114 151.946, 77.482 157.437 L 82.370 160.301 85.670 156.401 C 87.485 154.255, 88.977 152.122, 88.985 151.659 C 88.993 151.196, 87.512 149.080, 85.694 146.956 C 82.171 142.840, 76.554 132.307, 75.447 127.741 C 74.593 124.216, 74.383 124.147, 69 125.613 M 291.365 126.636 C 288.118 135.810, 284.321 142.994, 280.374 147.429 L 277.019 151.199 280.179 155.600 C 281.917 158.020, 283.877 160, 284.535 160 C 286.092 160, 290.324 156.796, 296.307 151.087 C 301.366 146.260, 306.033 138.992, 308.422 132.222 L 309.848 128.179 303.674 127.051 C 300.278 126.431, 296.268 125.664, 294.762 125.348 C 292.672 124.908, 291.869 125.212, 291.365 126.636 M 163.500 128.587 C 162.400 128.849, 157.675 129.780, 153 130.655 C 142.183 132.679, 129.696 137.039, 119.523 142.342 C 108.828 147.917, 93.927 162.528, 89.276 172 C 80.790 189.283, 80.204 205.098, 87.444 221.469 C 97.564 244.351, 122.098 260.738, 155.598 266.989 C 200.538 275.375, 243.640 264.103, 267.513 237.722 C 286.344 216.913, 288.116 183.843, 271.490 163.500 C 257.972 146.962, 243.383 138.307, 218 131.767 C 207.437 129.046, 204.830 128.776, 186 128.457 C 174.725 128.267, 164.600 128.325, 163.500 128.587 M 154.667 150.667 C 152.892 152.441, 154.201 157.216, 157.446 160.809 C 167.221 171.628, 188.045 174.828, 200.666 167.450 C 206.912 163.798, 212.160 157.228, 211.796 153.516 C 211.561 151.125, 210.973 150.439, 208.953 150.203 C 206.911 149.965, 205.742 150.831, 203.053 154.576 C 198.617 160.753, 193.019 163.260, 183.855 163.174 C 175.463 163.095, 170.340 160.965, 163.353 154.651 C 158.462 150.231, 156.159 149.175, 154.667 150.667 M 57.383 195.949 C 51.737 197.297, 45.011 201.138, 39.539 206.138 C 35.066 210.227, 33.623 212.446, 31.038 219.216 C 29.325 223.700, 28.054 228.020, 28.212 228.816 C 28.370 229.612, 31.313 226.439, 34.752 221.764 C 40.806 213.532, 45.191 209.718, 51.553 207.152 C 54.794 205.845, 68.985 203.979, 70.250 204.694 C 70.662 204.927, 71 202.841, 71 200.059 L 71 195 65.750 195.102 C 62.862 195.159, 59.097 195.540, 57.383 195.949 M 294.625 198.125 C 293.509 203.704, 293.565 203.758, 301.250 204.452 C 315.987 205.784, 324.567 211.329, 334.380 225.862 C 336.371 228.811, 338 230.744, 338 230.158 C 338 228.023, 333.274 216.144, 330.630 211.631 C 325.379 202.672, 311.322 195, 300.157 195 C 295.461 195, 295.223 195.135, 294.625 198.125 M 69 228.484 C 60.338 233.086, 53.272 241.203, 50.703 249.500 C 48.709 255.942, 47.701 264.961, 48.583 268.473 C 49.206 270.956, 49.491 270.550, 51.468 264.364 C 55.732 251.018, 64.757 240.614, 75.591 236.553 C 78.291 235.541, 80.644 234.596, 80.820 234.453 C 80.996 234.311, 80.199 232.350, 79.049 230.097 C 76.625 225.344, 75.308 225.133, 69 228.484 M 287.107 229.791 L 285.173 233.582 292.336 237.016 C 296.351 238.942, 301.347 242.349, 303.702 244.768 C 308.227 249.417, 314.534 260.997, 315.581 266.581 C 315.936 268.474, 316.671 270.296, 317.213 270.632 C 317.853 271.027, 317.951 268.128, 317.492 262.371 C 316.481 249.687, 311.578 239.212, 303.877 233.282 C 298.777 229.356, 292.407 226, 290.052 226 C 289.496 226, 288.170 227.706, 287.107 229.791 M 90.142 259.213 C 86.260 263.953, 84.781 266.739, 83.905 270.958 C 82.661 276.952, 83.211 286.137, 85.196 292.500 L 86.444 296.500 86.724 293 C 87.821 279.275, 91.200 271.072, 98.820 263.634 L 103.805 258.767 100.520 255.884 C 98.714 254.298, 96.785 253, 96.233 253 C 95.681 253, 92.940 255.796, 90.142 259.213 M 265.037 255.460 L 262.726 257.920 267.731 263.396 C 273.854 270.096, 277.731 279.253, 278.655 289.201 L 279.326 296.420 280.783 292.460 C 281.649 290.104, 282.270 284.650, 282.315 278.995 C 282.384 270.398, 282.126 269.012, 279.619 264.495 C 277.176 260.094, 270.047 253, 268.066 253 C 267.672 253, 266.309 254.107, 265.037 255.460" stroke="none" fill="black" fill-rule="evenodd"/>
</svg>