<svg xmlns="http://www.w3.org/2000/svg" width="314" height="270" viewBox="0 0 314 270" version="1.1">
	<path d="M 150 7.677 C 136.622 9.841, 126.582 13.439, 118.598 18.932 C 114.370 21.841, 113.632 22.001, 104.320 22.015 C 98.919 22.023, 91.575 22.717, 88 23.556 C 72.670 27.157, 57.320 37.629, 49.236 50.001 C 45.799 55.261, 44.409 56.412, 37.036 60.102 C 15.261 71.001, 3.170 93.095, 8.361 112.500 C 11.457 124.073, 17.799 132.685, 29.987 141.869 L 37.633 147.631 30.242 151.537 C 10.074 162.196, 3.229 173.635, 7.363 189.771 C 12.854 211.203, 30.746 229.161, 54.384 236.962 C 56.466 237.649, 62.519 240.781, 67.835 243.921 C 79.791 250.985, 83.902 252.627, 95.966 255.153 C 102.744 256.573, 108.535 257.078, 116 256.902 C 125.327 256.681, 127.393 256.968, 134.500 259.470 C 148.370 264.354, 169.951 263.837, 183 258.308 C 185.412 257.286, 190.853 256.748, 200.500 256.577 C 220.561 256.223, 234.202 252.231, 247.500 242.821 C 250.250 240.874, 255.875 238.039, 260 236.518 C 271.540 232.266, 279.843 227.282, 287.394 220.078 C 298.566 209.419, 304.340 199.230, 307.011 185.466 C 309.563 172.313, 302.584 161.572, 285.166 151.843 L 276.832 147.188 282.166 143.222 C 299.888 130.046, 306.604 117.951, 305.809 100.638 C 305.451 92.835, 304.900 90.478, 302.038 84.500 C 297.355 74.716, 288.146 65.737, 276.942 60.029 C 270.610 56.804, 267.630 54.606, 265.491 51.585 C 256.521 38.916, 249.719 33.053, 237.373 27.347 C 228.440 23.219, 214.799 20.686, 206.286 21.576 C 200.251 22.207, 199.886 22.107, 193.540 18.099 C 185.160 12.807, 179.224 10.499, 169.007 8.561 C 161.134 7.067, 155.413 6.801, 150 7.677 M 144.500 19.673 C 135.296 21.704, 116.093 32.322, 115.979 35.444 C 114.843 66.591, 114.873 69.383, 116.431 76.318 C 117.319 80.268, 118.516 85.750, 119.093 88.500 C 121.073 97.949, 125.111 109.503, 130.801 122 C 133.888 128.782, 133.616 131.935, 130.104 130.056 C 125.936 127.825, 113.402 95.448, 112.054 83.431 C 111.608 79.455, 110.925 75.687, 110.535 75.057 C 110.146 74.427, 109.850 67.519, 109.878 59.706 C 109.918 48.548, 110.336 44.270, 111.824 39.769 L 113.719 34.038 110.240 33.385 C 104.647 32.336, 91.471 33.862, 84.606 36.354 C 78.180 38.687, 71.193 42.506, 67.446 45.733 C 64.190 48.539, 55 60.274, 55 61.627 C 55 62.302, 53.814 63.788, 52.365 64.927 C 50.474 66.415, 50.186 67, 51.346 67 C 52.966 67, 53.361 68.067, 54.495 75.500 C 55.325 80.943, 59.806 92.730, 62.661 96.982 C 63.948 98.897, 65 100.840, 65 101.299 C 65 102.262, 68.166 106.588, 76.165 116.553 C 81.873 123.664, 95.422 136.551, 101.642 140.786 C 104.998 143.071, 105.911 145.319, 103.970 146.518 C 102.734 147.282, 96.027 143.460, 90.500 138.842 C 82.062 131.792, 62 109.333, 62 106.936 C 62 106.543, 60.211 103.161, 58.025 99.419 C 53.147 91.072, 49.908 81.545, 49.106 73.188 L 48.500 66.877 42.067 70.188 C 33.256 74.724, 26.093 81.528, 22.218 89.042 C 19.417 94.473, 19 96.274, 19 102.944 C 19 109.190, 19.480 111.571, 21.596 115.818 C 30.040 132.761, 61.332 150.612, 98.038 159.424 C 120.277 164.763, 134.429 166.422, 157.500 166.394 C 173.036 166.376, 180.625 165.882, 191.500 164.185 C 241.686 156.350, 281.836 137.010, 292.306 115.627 C 299.680 100.569, 291.834 81.063, 274.580 71.558 C 264.591 66.055, 264.504 66.066, 264.478 72.765 C 264.420 87.404, 253.534 107.976, 236.784 125.098 C 226.712 135.395, 214.477 145, 211.434 145 C 207.208 145, 208.723 142.387, 216.250 136.691 C 226.380 129.025, 238.583 116.119, 245.739 105.500 C 252.186 95.935, 258.829 81.159, 260.859 71.870 L 262.090 66.240 254.942 56.628 C 243.615 41.398, 231.478 34.500, 213.988 33.354 C 203.257 32.651, 198.245 33.333, 199.757 35.291 C 204.112 40.934, 204.976 69.861, 201.271 86 C 196.606 106.321, 186.592 130.466, 183.116 129.773 C 180.872 129.325, 181.450 126.337, 185.976 115 C 190.873 102.730, 190.959 102.487, 192.653 96 C 193.443 92.975, 194.516 88.925, 195.039 87 C 196.773 80.609, 199 64.105, 199 57.638 C 199 47.045, 196.297 33.797, 193.713 31.727 C 189.339 28.221, 178.734 22.707, 172.835 20.872 C 167.130 19.096, 150.335 18.386, 144.500 19.673 M 46.781 156.507 C 38.289 159.627, 24.916 167.350, 21.547 171.080 C 16.967 176.150, 16.888 179.531, 21.250 183.753 C 25.504 187.870, 29.758 189.550, 39.500 190.958 C 51.247 192.657, 53.295 193.544, 60.456 200.034 C 72.290 210.758, 78.556 212.627, 93.529 209.901 C 111.452 206.638, 117.344 207.421, 134.607 215.356 C 142.698 219.075, 146.226 220.129, 152.298 220.642 C 161.733 221.440, 170.466 219.824, 178.500 215.795 C 195.198 207.419, 202.743 206.361, 219.261 210.080 C 233.659 213.322, 238.667 211.994, 251.389 201.558 C 260.628 193.980, 262.678 193.051, 273.852 191.372 C 287.554 189.314, 295 184.427, 295 177.492 C 295 172.966, 286.799 165.417, 276.531 160.491 C 263.609 154.293, 263.465 154.279, 254.316 158.301 C 241.215 164.061, 218.117 170.807, 202.500 173.434 C 196.437 174.454, 195 175.018, 195 176.380 C 195 178.813, 189.702 188.569, 185.936 193.072 C 175.632 205.392, 152.642 209.373, 137.958 201.381 C 131.289 197.751, 124.427 190.237, 121.370 183.218 C 120 180.073, 118.524 176.825, 118.089 176 C 117.630 175.127, 114.623 174.029, 110.900 173.373 C 93.622 170.330, 78.249 165.852, 61.042 158.849 C 55.840 156.732, 51.340 155.032, 51.042 155.070 C 50.744 155.109, 48.826 155.756, 46.781 156.507 M 129.009 176.996 C 129.045 178.927, 135.592 188.343, 138.654 190.866 C 146.048 196.961, 159.230 198.896, 167.565 195.110 C 174.648 191.893, 181.514 184.677, 183.375 178.495 C 183.967 176.531, 183.709 176.507, 170.595 177.313 C 163.234 177.765, 150.864 177.765, 143.106 177.313 C 135.348 176.862, 129.004 176.719, 129.009 176.996 M 24.671 200.639 C 25.881 203.887, 33.113 211.845, 38.662 216.034 C 43.237 219.489, 53 224.634, 53 223.590 C 53 223.404, 51.818 221.137, 50.373 218.553 C 48.343 214.919, 48.018 213.586, 48.940 212.677 C 49.859 211.771, 50.833 212.307, 53.168 215 C 67.954 232.057, 78.075 239.055, 93.756 243.065 C 101.398 245.020, 117 245.751, 117 244.155 C 117 243.690, 116.036 242.453, 114.859 241.405 C 112.450 239.262, 108.875 232.011, 109.627 230.794 C 110.602 229.217, 113.955 230.047, 115.077 232.144 C 117.138 235.995, 124.329 243.127, 128.080 245.041 C 137.080 249.632, 142.630 251.135, 152.695 251.705 C 165.414 252.424, 173.160 251.013, 182.817 246.214 C 189.532 242.877, 192.627 240.219, 199.801 231.624 C 204.786 225.653, 205.957 231.647, 201.144 238.500 C 196.002 245.823, 195.521 245.358, 207.599 244.734 C 219.447 244.121, 225.741 242.377, 236.260 236.795 C 243.578 232.911, 253.433 223.593, 257.886 216.347 C 261.205 210.946, 263.620 209.220, 265.387 210.987 C 266.124 211.724, 265.454 213.834, 263.152 218.020 C 261.344 221.309, 260.135 224, 260.466 224 C 261.384 224, 270.130 219.353, 273.442 217.105 C 280.762 212.136, 293.337 197.505, 288.787 199.252 C 288.008 199.550, 283.800 200.317, 279.436 200.954 C 275.071 201.592, 270.054 202.331, 268.287 202.595 C 266.115 202.921, 262.752 205.208, 257.911 209.650 C 249.809 217.085, 245.392 219.361, 235.849 221.017 C 230.029 222.027, 227.784 221.897, 217.889 219.978 C 211.632 218.765, 204.524 217.983, 201.977 218.228 C 199.359 218.480, 192.654 220.841, 186.437 223.700 C 163.541 234.229, 149.811 234.309, 128.086 224.041 C 114.305 217.527, 110.470 217.058, 95.331 220.033 C 85.233 222.018, 82.727 222.188, 77.303 221.259 C 68.584 219.766, 63.076 216.843, 54.984 209.417 C 47.589 202.631, 47.711 202.682, 35.500 201.197 C 31.100 200.662, 26.707 199.898, 25.739 199.501 C 24.323 198.919, 24.113 199.143, 24.671 200.639" stroke="none" fill="black" fill-rule="evenodd"/>
</svg>