<svg xmlns="http://www.w3.org/2000/svg" width="496" height="393" viewBox="0 0 496 393" version="1.1">
	<path d="M 191.009 8.099 C 183.841 9.502, 177.932 13.045, 175.751 17.247 C 172.767 22.999, 173.983 27.351, 180.732 35.074 C 192.345 48.362, 198 60.441, 198 71.958 C 198 77.854, 197.112 78.984, 185 88.500 C 152.257 114.224, 127.070 145.290, 110.507 180.382 C 101.686 199.071, 100.899 201.005, 95.811 216.500 C 90.198 233.595, 86.024 249.870, 83.431 264.776 C 81.898 273.585, 81.347 275.118, 79.571 275.519 C 78.432 275.776, 73.450 276.871, 68.500 277.950 C 41.156 283.916, 23.012 295.487, 11.974 314 C 4.940 325.796, 4.234 337.343, 10.320 341.053 C 14.590 343.657, 19.433 343.500, 27.404 340.500 C 35.432 337.478, 39.354 337.384, 48.486 339.996 C 59.273 343.081, 66.616 343.509, 75.364 341.562 C 79.542 340.633, 83.221 339.451, 83.539 338.936 C 84.575 337.261, 85.600 337.938, 87.243 341.384 C 91.173 349.624, 98.689 355.671, 112.208 361.468 C 121.709 365.541, 125.835 369.050, 130.053 376.643 C 135.533 386.507, 144.677 388.895, 151.007 382.114 C 157.058 375.633, 159.983 351.661, 156.534 336.812 C 153.365 323.167, 145.556 309.177, 134.422 297.198 C 132.021 294.614, 130.044 291.740, 130.028 290.812 C 129.942 285.671, 154.318 259.457, 168.873 249.039 C 189.143 234.529, 221.761 221.855, 247.500 218.486 C 250.250 218.126, 253.306 217.609, 254.291 217.336 C 255.643 216.961, 254.604 219.653, 250.041 228.342 C 242.929 241.884, 242.470 245.188, 246.986 250.331 C 251.312 255.259, 257.155 256.676, 267.141 255.221 C 284.964 252.623, 305.394 240.254, 319.136 223.741 C 322.882 219.239, 324.159 218.252, 324.634 219.489 C 325.237 221.059, 324.622 235.688, 323.386 249.213 C 322.791 255.715, 322.867 256.021, 325.809 258.963 C 328.436 261.590, 329.570 262, 334.201 262 C 349.129 262, 371.917 243.464, 380.039 224.715 C 382.239 219.636, 382.818 219.031, 385.500 219.001 C 389.166 218.960, 403.956 222.244, 417.731 226.158 C 430.498 229.784, 447.770 233, 454.483 233 C 470.468 233, 484.721 224.375, 488.479 212.427 C 491.272 203.546, 489.148 195.190, 481.631 185.500 C 477.867 180.647, 478.202 180.982, 469.250 173.096 L 462 166.709 462 156.802 C 462 140.123, 457.143 122.923, 447.939 107.012 C 440.936 94.903, 424.987 79.111, 410 69.444 C 394.408 59.387, 375.785 52.019, 355.810 48.005 C 346.137 46.061, 315.711 43.442, 314.132 44.418 C 313.737 44.663, 308.181 44.967, 301.786 45.095 L 290.158 45.327 284.894 40.595 C 272.923 29.831, 251.098 17.395, 235 12.164 C 221.048 7.631, 202.264 5.895, 191.009 8.099 M 193.500 19.860 C 191.850 20.296, 189.445 21.219, 188.156 21.912 C 185.838 23.157, 185.833 23.195, 187.719 25.335 C 188.767 26.526, 192.105 30.302, 195.137 33.727 C 204.260 44.032, 208.929 55.349, 209.690 69 C 210.427 82.225, 209.630 83.657, 194.933 95.500 C 182.200 105.761, 160.899 126.203, 152.708 136.022 C 148.452 141.124, 134.930 160.148, 132.409 164.581 C 123.776 179.760, 116.685 194.015, 113.298 203 C 107.763 217.686, 101.089 239.229, 98.585 250.500 C 97.118 257.100, 95.260 265.425, 94.456 269 C 93.652 272.575, 92.994 276.625, 92.992 278 C 92.987 283.248, 89.415 285.535, 77.500 287.922 C 51.688 293.091, 37.390 300.170, 27.619 312.619 C 23.417 317.972, 18 327.706, 18 329.902 C 18 330.467, 20.138 330.007, 22.750 328.880 C 30.551 325.514, 39.807 325.360, 51.681 328.396 C 67.621 332.473, 73.300 331.866, 84.105 324.932 C 86.918 323.128, 89.391 322.213, 90.405 322.602 C 92.359 323.352, 94.473 327.171, 95.453 331.724 C 95.835 333.497, 98.210 337.242, 100.731 340.046 C 104.370 344.093, 107.631 346.258, 116.547 350.544 C 129.589 356.813, 132.497 359.040, 138.126 367.064 C 140.400 370.306, 142.591 372.753, 142.995 372.503 C 144.177 371.772, 146.062 360.692, 146.172 353.825 C 146.394 340.004, 142.806 328.378, 134.655 316.500 C 132.650 313.578, 125.053 304, 123.947 303 C 123.643 302.725, 122.133 300.820, 120.591 298.766 C 117.103 294.121, 117.349 291.103, 122.240 278.500 C 131.782 253.914, 142.319 238.264, 162.893 218.118 C 189.961 191.615, 221.217 176.020, 262.444 168.449 C 268.471 167.342, 272.415 166.023, 274.538 164.403 C 276.271 163.081, 278.569 162, 279.644 162 C 284.678 162, 285.503 168.207, 281.135 173.215 C 277.173 177.756, 274.164 184.004, 273.457 189.158 C 270.215 212.778, 268.444 219.035, 260.913 233.473 C 258.211 238.653, 256 243.141, 256 243.445 C 256 244.635, 266.920 243.916, 272.067 242.388 C 298.586 234.512, 320.030 210.966, 330.996 177.681 C 333.583 169.829, 334.706 167.682, 336.607 166.959 C 339.553 165.839, 341.741 166.610, 342.513 169.041 C 343.445 171.978, 340.298 185.257, 336.487 194.462 C 334.569 199.096, 333 203.097, 333 203.355 C 333 203.612, 338.288 203.869, 344.750 203.925 C 370.369 204.149, 387.530 206.671, 420.500 215.059 C 444.589 221.187, 456.114 222.314, 465.535 219.460 L 471.500 217.654 464 216.335 C 449.344 213.758, 446.386 212.920, 439.484 209.386 C 422.414 200.649, 406.926 186.960, 408.500 182.001 C 409.558 178.666, 412.184 179.752, 419.088 186.381 C 429.727 196.595, 439.854 202.816, 452 206.598 C 459.320 208.878, 469.187 210.181, 473.871 209.488 L 478.242 208.841 477.748 204.456 C 477.073 198.468, 472.261 191.333, 464.191 184.353 C 450.811 172.781, 449.641 170.830, 450.702 161.864 C 451.391 156.054, 449.570 142.252, 446.940 133.343 C 438.344 104.221, 410.302 77.685, 374.943 65.211 C 354.606 58.037, 335.700 55.514, 308.718 56.374 C 285.556 57.112, 286.631 57.335, 278 50.014 C 262.442 36.819, 244.042 26.751, 226.500 21.835 C 218.897 19.705, 198.667 18.494, 193.500 19.860 M 393.030 138.279 C 389.693 139.968, 386 145.659, 386 149.114 C 386 153.578, 389.008 158.776, 392.570 160.466 C 401.954 164.919, 411 159.336, 411 149.092 C 411 145.811, 410.303 144.352, 407.155 141.042 C 403.934 137.656, 402.676 137.002, 399.405 137.015 C 397.257 137.023, 394.389 137.592, 393.030 138.279 M 394.011 144.487 C 392.376 146.457, 393.441 149, 395.901 149 C 397.931 149, 399.606 145.790, 398.506 144.009 C 397.599 142.543, 395.433 142.773, 394.011 144.487 M 261.500 174.716 C 259.850 174.944, 253.100 176.468, 246.500 178.101 C 207.649 187.714, 176.418 207.939, 150.891 240.018 C 145.634 246.625, 139 256.338, 139 257.429 C 139 257.860, 142.488 255.070, 146.750 251.230 C 172.188 228.312, 206.062 213.357, 248.161 206.459 C 253.848 205.527, 258.821 204.475, 259.212 204.120 C 259.604 203.766, 260.370 199.552, 260.915 194.756 C 261.460 189.960, 263 183.328, 264.337 180.018 C 265.780 176.445, 266.307 174.061, 265.634 174.150 C 265.010 174.232, 263.150 174.487, 261.500 174.716 M 336.483 228.715 C 336.492 236.297, 336.161 244.392, 335.746 246.703 L 334.991 250.907 339.367 249.590 C 350.242 246.317, 366.258 230.201, 369.451 219.318 C 370.025 217.362, 369.647 217.082, 365.796 216.611 C 363.433 216.322, 355.867 215.826, 348.983 215.508 L 336.465 214.929 336.483 228.715" stroke="none" fill="black" fill-rule="evenodd"/>
</svg>