<svg xmlns="http://www.w3.org/2000/svg" width="308" height="276" viewBox="0 0 308 276" version="1.1">
	<path d="M 141.046 8.598 C 133.390 10.655, 127.442 13.812, 121.979 18.716 L 117.283 22.931 111.223 21.804 C 93.408 18.491, 72.861 29.631, 64.264 47.265 C 61.501 52.931, 60.551 53.988, 57.283 55.032 C 49.541 57.506, 41.771 62.439, 36.580 68.175 C 27.739 77.944, 24 87.177, 24 99.236 L 24 107.220 19.072 112.612 C 6.067 126.841, 3.476 145.708, 11.947 164.500 C 17.769 177.416, 34.190 193.402, 58.640 209.954 L 66.697 215.409 66.598 226.454 C 66.436 244.668, 71.043 253.202, 83.635 258.010 C 90.940 260.799, 105.594 261.728, 116.692 260.105 L 124.576 258.953 132.353 263.385 C 147.722 272.143, 161.919 271.826, 177.299 262.379 L 183.098 258.817 191.208 259.909 C 202.527 261.432, 211.918 261.270, 220.092 259.411 C 229.324 257.311, 234.580 253.339, 238.500 245.500 C 241.286 239.928, 241.509 238.670, 241.619 227.866 C 241.685 221.467, 242.052 215.724, 242.436 215.104 C 242.819 214.484, 245.690 212.344, 248.816 210.348 C 265.650 199.601, 283.865 183.283, 291.473 172.133 C 297.332 163.547, 299.988 156.300, 300.686 147 C 301.687 133.652, 298.017 122.622, 289.398 113.075 C 284.729 107.902, 284.514 107.412, 284.800 102.575 C 285.212 95.621, 281.768 83.019, 277.581 76.160 C 271.483 66.171, 261.209 57.843, 251.464 54.993 C 247.824 53.928, 247.054 53.085, 243.612 46.397 C 234.625 28.940, 214.721 18.467, 196.849 21.791 L 190.546 22.963 187.023 19.647 C 180.749 13.743, 177.872 12.047, 169.815 9.502 C 160.619 6.596, 149.761 6.255, 141.046 8.598 M 145 19.337 C 137.573 21.052, 133.392 23.350, 127.750 28.820 L 123 33.425 123 43.212 C 123 48.596, 123.255 53, 123.567 53 C 123.878 53, 125.566 51.913, 127.317 50.585 C 133.037 46.245, 143.376 43.500, 154 43.500 C 162.079 43.500, 164.592 43.928, 170.800 46.357 C 174.815 47.928, 179.363 50.276, 180.908 51.576 L 183.716 53.939 184.351 47.220 C 185.476 35.305, 185.240 33.331, 182.339 30.430 C 178.753 26.844, 170.297 21.544, 166 20.190 C 160.221 18.368, 150.845 17.987, 145 19.337 M 95.995 33.292 C 84.435 36.561, 74.213 47.649, 71.540 59.818 C 70.754 63.396, 72.829 77, 74.160 77 C 74.622 77, 75 76.531, 75 75.957 C 75 74.378, 83.962 65.125, 88.550 61.967 C 94.189 58.085, 104.220 55, 111.201 55 L 117.072 55 116.786 45.261 C 116.505 35.699, 116.449 35.498, 113.703 34.184 C 109.653 32.246, 101.199 31.821, 95.995 33.292 M 194.305 33.952 C 192.045 34.923, 191.215 37.691, 190.841 45.500 C 190.381 55.122, 190.301 55, 197.032 55 C 204.180 55, 213.609 57.947, 219.559 62.040 C 223.852 64.994, 232 73.574, 232 75.141 C 232 75.613, 232.391 76, 232.868 76 C 233.930 76, 237 65.383, 237 61.713 C 237 57.375, 232.206 47.813, 227.701 43.166 C 221.042 36.296, 215.062 33.704, 205 33.328 C 200.325 33.153, 195.512 33.434, 194.305 33.952 M 145.780 48.986 C 139.807 50.049, 131.475 53.856, 127.186 57.483 C 123.902 60.260, 123.877 60.347, 124.475 66.893 C 124.807 70.527, 125.579 77.183, 126.190 81.685 L 127.303 89.871 130.401 87.586 C 132.106 86.330, 136.778 84.272, 140.785 83.014 C 150.679 79.908, 162.969 80.466, 171.593 84.414 C 174.812 85.888, 178.245 87.817, 179.223 88.702 C 180.735 90.071, 181 90.089, 181 88.829 C 181 86.491, 182.976 65.800, 183.494 62.725 C 183.909 60.254, 183.331 59.547, 178.230 56.284 C 175.079 54.268, 170.475 51.850, 168 50.912 C 162.382 48.782, 151.991 47.881, 145.780 48.986 M 101.683 61.099 C 97.978 61.970, 90.094 66.689, 86.955 69.913 C 86.105 70.786, 83.290 74.109, 80.698 77.298 C 75.799 83.325, 75.670 83.976, 77.987 91 C 78.441 92.375, 80.069 97.509, 81.605 102.409 C 83.923 109.806, 84.576 111.007, 85.449 109.488 C 90.440 100.803, 103.260 93.150, 114.302 92.264 L 120.783 91.744 120.532 88.622 C 119.314 73.407, 117.649 61.397, 116.672 60.776 C 115.118 59.788, 106.464 59.974, 101.683 61.099 M 191.945 60.652 C 190.732 60.979, 190.115 63.847, 189.137 73.699 C 188.448 80.644, 187.642 87.538, 187.346 89.019 C 186.813 91.683, 186.875 91.716, 193.350 92.236 C 204.011 93.092, 215.778 99.759, 221.172 108 L 222.808 110.500 223.925 107.500 C 224.539 105.850, 225.458 103.600, 225.967 102.500 C 226.476 101.400, 227.648 97.800, 228.571 94.500 C 229.494 91.200, 230.703 87.518, 231.257 86.318 C 232.039 84.625, 231.843 83.591, 230.383 81.707 C 229.347 80.372, 226.925 77.236, 225 74.738 C 219.411 67.485, 210.875 62.344, 202.308 61.070 C 194.874 59.964, 194.543 59.951, 191.945 60.652 M 55.168 67.804 C 38.574 74.300, 29.632 101.059, 38.439 117.868 C 39.617 120.116, 39.760 119.898, 40.893 114.140 C 41.760 109.730, 43.485 105.947, 47.077 100.576 C 52.683 92.195, 56.065 89.014, 63.235 85.381 C 68.755 82.584, 68.630 83.437, 65.230 71.750 C 63.339 65.251, 62.516 64.928, 55.168 67.804 M 241.275 74.250 L 239.238 82.500 244.369 85.141 C 247.191 86.593, 251.750 90.036, 254.500 92.792 C 259.838 98.141, 266.344 109.894, 267.546 116.357 L 268.263 120.213 270.381 116.867 C 272.209 113.981, 272.500 112.007, 272.500 102.510 C 272.500 95.366, 272.006 90.271, 271.092 88 C 269.580 84.241, 262.605 74.296, 260.054 72.260 C 257.138 69.934, 248.129 66, 245.718 66 C 243.536 66, 243.123 66.767, 241.275 74.250 M 146.344 86.989 C 140.269 88.267, 132.516 91.822, 130.030 94.469 C 127.978 96.652, 127.919 97.185, 128.931 104.460 C 129.519 108.687, 130 112.260, 130 112.402 C 130 112.543, 132.588 111.396, 135.750 109.853 C 147.492 104.122, 162.719 104.319, 173.494 110.341 L 177.806 112.751 178.991 104.651 L 180.175 96.551 177.338 94.184 C 169.953 88.022, 156.394 84.874, 146.344 86.989 M 64.439 90.399 C 60.629 92.074, 52.916 100.782, 49.626 107.124 C 48.262 109.751, 46.576 115.301, 45.877 119.457 C 44.669 126.648, 44.718 127.242, 46.888 131.757 C 50.406 139.075, 55.105 146.053, 56.102 145.437 C 56.596 145.132, 57 143.994, 57 142.908 C 57 136.548, 67.693 123.365, 75.750 119.791 C 78.088 118.755, 79.997 117.815, 79.994 117.703 C 79.990 117.591, 77.810 111.200, 75.150 103.500 C 72.247 95.100, 69.750 89.411, 68.906 89.277 C 68.133 89.154, 66.123 89.659, 64.439 90.399 M 233.265 101.744 C 230.998 108.760, 228.867 115.211, 228.530 116.079 C 228.082 117.233, 229.062 118.175, 232.164 119.574 C 238.813 122.572, 246.310 130.539, 248.836 137.291 C 250.026 140.472, 251 144.253, 251 145.693 C 251 147.915, 251.634 147.344, 255.203 141.905 C 263.095 129.877, 263.248 129.451, 262.468 121.685 C 262.082 117.833, 261.100 113.091, 260.288 111.147 C 257.397 104.227, 251.143 96.260, 246.231 93.237 C 237.309 87.748, 237.916 87.350, 233.265 101.744 M 106.006 99.372 C 99.876 101.746, 91.206 109.675, 89.050 114.878 C 87.899 117.659, 88.011 118.771, 89.995 124.266 C 91.232 127.695, 92.331 130.604, 92.436 130.730 C 92.541 130.857, 95.321 128.341, 98.613 125.140 C 103.249 120.631, 106.039 118.833, 110.993 117.160 C 114.511 115.972, 118.924 115, 120.801 115 C 123.437 115, 124.082 114.655, 123.634 113.487 C 123.314 112.656, 122.752 109.037, 122.384 105.446 C 121.642 98.197, 120.474 96.914, 114.816 97.122 C 112.992 97.190, 109.028 98.202, 106.006 99.372 M 190.272 97.704 C 187.512 98.063, 186.910 98.658, 186.117 101.812 C 185.608 103.840, 184.984 107.581, 184.732 110.124 L 184.274 114.748 189.605 115.299 C 196.569 116.017, 206.028 121.089, 211.054 126.799 L 214.967 131.244 217.057 126.372 C 220.446 118.471, 220.478 116.893, 217.328 112.770 C 215.773 110.734, 213.765 108.025, 212.866 106.750 C 211.171 104.345, 200.029 98.406, 195.874 97.693 C 194.568 97.469, 192.047 97.474, 190.272 97.704 M 146.267 111.994 C 141.511 113.001, 136.629 115.176, 133.191 117.821 L 130.882 119.598 133.444 136.549 C 134.853 145.872, 136.691 157.100, 137.530 161.500 C 138.368 165.900, 139.478 171.750, 139.997 174.500 C 140.517 177.250, 141.646 182.650, 142.507 186.500 C 146.942 206.320, 146.943 206.332, 144.644 206.805 C 141.915 207.367, 141.194 206.180, 139.581 198.469 C 138.779 194.636, 137.254 187.900, 136.192 183.500 C 135.131 179.100, 133.045 168.975, 131.557 161 C 130.069 153.025, 128.476 144.700, 128.017 142.500 C 127.558 140.300, 126.597 134.563, 125.882 129.750 L 124.581 121 120.415 121 C 112.564 121, 109.949 122.116, 103.364 128.276 C 99.850 131.564, 96.724 135.253, 96.417 136.476 C 95.549 139.932, 100.803 152.298, 116.052 182.691 C 123.726 197.986, 129.780 211.094, 129.507 211.820 C 129.233 212.546, 128.050 212.996, 126.877 212.820 C 125.341 212.590, 123.409 209.984, 119.965 203.500 C 114.319 192.868, 103.480 171.204, 95.575 154.750 C 92.470 148.287, 89.608 143.011, 89.215 143.025 C 88.822 143.038, 86.472 144.538, 83.993 146.358 C 78.912 150.088, 75.447 156.066, 74.058 163.500 C 72.982 169.254, 73.821 170.950, 82.953 181.500 C 85.810 184.800, 90.476 190.184, 93.324 193.464 C 96.171 196.745, 102.713 203.827, 107.861 209.203 C 117.158 218.909, 118.276 221.189, 114.457 222.655 C 112.748 223.311, 109.681 220.358, 93 202.003 C 87.775 196.253, 83.050 191.027, 82.500 190.388 C 74.974 181.652, 69.624 176, 68.878 176 C 68.371 176, 66.616 178.113, 64.978 180.696 C 62.451 184.681, 62 186.389, 62 191.977 L 62 198.562 70.250 203.840 C 74.787 206.743, 83.900 212.539, 90.500 216.720 C 106.227 226.684, 115.433 233.642, 125.528 243.198 C 140.346 257.224, 149.682 261.006, 161.144 257.623 C 167.994 255.601, 173.153 252.113, 183.729 242.354 C 192.825 233.959, 205.243 224.681, 219 215.999 C 236.517 204.946, 242.555 201.082, 244.459 199.708 C 248.543 196.761, 245.698 181.657, 240.105 176.595 C 238.354 175.011, 237.992 175.244, 232.906 181.213 C 227.378 187.703, 204.956 212.624, 198.684 219.250 C 196.732 221.313, 194.744 223, 194.267 223 C 193.187 223, 191 220.870, 191 219.817 C 191 219.387, 196.138 213.406, 202.417 206.527 C 218.351 189.071, 231.481 173.827, 233.068 170.941 C 233.806 169.598, 234.307 167.600, 234.180 166.500 C 233.585 161.313, 231.478 155.195, 229.249 152.182 C 226.982 149.117, 219.532 143, 218.066 143 C 217.718 143, 215.477 147.162, 213.086 152.250 C 210.695 157.338, 206.732 165.775, 204.278 171 C 196.339 187.907, 185.923 208.095, 183.769 210.750 C 182.169 212.722, 179 212.280, 179 210.085 C 179 209.032, 183.416 199.469, 188.813 188.835 C 194.210 178.201, 200.342 165.450, 202.439 160.500 C 204.537 155.550, 207.546 148.925, 209.126 145.779 C 210.707 142.632, 212 139.180, 212 138.109 C 212 137.038, 209.759 133.709, 207.020 130.712 C 201.657 124.845, 195.651 121.646, 187.815 120.486 L 183.130 119.792 182.510 123.646 C 182.169 125.766, 181.663 128.400, 181.385 129.500 C 181.107 130.600, 180.481 134.425, 179.993 138 C 178.798 146.756, 176.469 159.905, 173.438 175 C 172.058 181.875, 170.549 189.975, 170.087 193 C 169.624 196.025, 168.715 200.441, 168.067 202.812 C 167.086 206.406, 166.524 207.073, 164.695 206.812 C 162.826 206.546, 162.519 205.905, 162.631 202.500 C 162.703 200.300, 163.950 192.650, 165.402 185.500 C 168.747 169.029, 171.309 154.570, 174.318 135.184 L 176.694 119.869 173.543 117.465 C 166.697 112.244, 155.601 110.018, 146.267 111.994 M 25.715 122.873 C 23.161 125.605, 20.694 129.437, 20.089 131.618 C 18.349 137.884, 18.779 149.073, 21.040 156.395 C 22.162 160.028, 23.191 163, 23.326 163 C 23.462 163, 23.650 160.199, 23.745 156.776 C 23.945 149.571, 28.764 138.530, 33.917 133.472 C 35.582 131.837, 36.945 130.050, 36.947 129.500 C 36.948 128.950, 35.445 126.140, 33.606 123.255 L 30.264 118.011 25.715 122.873 M 273.533 124.091 C 270.827 129.639, 270.715 130.261, 272.260 131.126 C 274.640 132.458, 279.323 139.660, 281.281 145 C 282.189 147.475, 283.245 152.642, 283.627 156.482 L 284.324 163.463 286.214 159.012 C 289.257 151.848, 290.208 141.220, 288.422 134.361 C 286.880 128.443, 280.045 117.998, 277.718 118.002 C 277.048 118.004, 275.165 120.743, 273.533 124.091 M 76.500 125.400 C 69.485 128.492, 62.998 138.990, 62.206 148.534 C 61.857 152.739, 62.257 154.344, 64.637 158.284 C 66.204 160.878, 67.769 163, 68.115 163 C 68.461 163, 69.015 161.307, 69.346 159.237 C 70.226 153.736, 74.976 146.915, 81.420 141.900 C 87.639 137.061, 87.649 137.012, 84.040 128.593 C 81.932 123.675, 81.159 123.347, 76.500 125.400 M 224.313 126.759 C 221.436 133.514, 219.994 137.324, 220.237 137.526 C 220.382 137.647, 221.882 138.448, 223.571 139.306 C 230.356 142.753, 237.130 151.818, 238.836 159.734 L 239.648 163.500 242.850 158.514 C 245.665 154.129, 245.973 152.983, 245.401 149.014 C 243.798 137.896, 240.217 131.354, 233.685 127.608 C 226.943 123.741, 225.648 123.624, 224.313 126.759 M 37.688 137.824 C 36.288 139.296, 33.899 142.975, 32.378 146 C 30.154 150.423, 29.622 152.811, 29.662 158.198 C 29.738 168.585, 31.397 172.973, 37.545 179.044 L 42.897 184.330 42.869 178.325 C 42.833 170.882, 44.633 166.438, 50.074 160.536 L 54.300 155.951 47.266 145.549 L 40.232 135.148 37.688 137.824 M 260.628 145.954 L 254.009 155.991 256.947 158.799 C 261.951 163.581, 265 170.902, 265 178.135 L 265 184.480 271.190 178.290 L 277.379 172.101 277.798 163.300 C 278.028 158.460, 277.712 152.629, 277.095 150.343 C 275.910 145.952, 270.280 136.868, 268.374 136.269 C 267.754 136.075, 264.269 140.433, 260.628 145.954 M 54.218 163.796 C 50.087 167.655, 48.835 171.127, 48.883 178.584 C 48.926 185.104, 50.146 189.399, 52.784 192.313 C 54.372 194.069, 54.452 194.069, 55.144 192.315 C 55.537 191.317, 55.891 189.189, 55.930 187.588 C 55.996 184.827, 60.315 176.846, 64.093 172.500 C 65.771 170.571, 65.683 170.329, 61.614 165.663 L 57.397 160.827 54.218 163.796 M 246.268 165.548 L 242.163 170.350 245.070 173.066 C 248.368 176.147, 251.992 183.852, 252.015 187.833 C 252.061 195.714, 256.316 193.200, 258.582 183.954 C 260.627 175.612, 259.426 170.452, 254.118 164.760 L 250.373 160.746 246.268 165.548 M 217.364 230.333 C 210.690 234.825, 202.422 240.750, 198.990 243.500 L 192.752 248.500 198.626 249.235 C 207.030 250.287, 217.253 249.168, 222.243 246.649 C 228.251 243.616, 230.171 239.299, 229.794 229.664 L 229.500 222.165 217.364 230.333 M 77.797 228.854 C 77.444 235.557, 79.257 241.966, 82.301 244.780 C 86.880 249.013, 99.909 251.060, 110.384 249.192 L 114.267 248.500 109.820 244.401 C 104.975 239.935, 89.609 229.331, 82.530 225.567 L 78.094 223.208 77.797 228.854" stroke="none" fill="black" fill-rule="evenodd"/>
</svg>