<svg xmlns="http://www.w3.org/2000/svg" width="389" height="268" viewBox="0 0 389 268" version="1.1">
	<path d="M 199.840 8.543 C 178.162 11.920, 158.113 20.511, 139.901 34.227 C 128.588 42.747, 113.229 59.242, 105.028 71.679 C 95.939 85.464, 83.967 109.223, 76.145 129 C 67.576 150.666, 58.011 167.792, 49.226 177.197 C 39.841 187.243, 25.030 194.932, 14.973 194.979 C 9.976 195.002, 6 197.164, 6 199.857 C 6 203.043, 8.200 204, 15.525 204 C 23.423 204, 34.044 200.922, 41.770 196.395 C 45.949 193.945, 61 180.076, 61 178.673 C 61 178.326, 63.250 174.959, 66 171.190 C 68.750 167.421, 71 163.613, 71 162.727 C 71 161.842, 71.401 160.870, 71.891 160.568 C 73.201 159.758, 77.292 151.622, 80.977 142.500 C 82.754 138.100, 85.128 132.475, 86.252 130 C 87.376 127.525, 90.193 121.225, 92.511 116 C 100.111 98.871, 104.257 90.569, 107.495 86 C 109.249 83.525, 110.948 80.825, 111.270 80 C 112.294 77.384, 123.285 63.408, 129.090 57.342 C 149.689 35.815, 174.442 22.598, 201.916 18.457 C 213.999 16.635, 221.775 16.649, 234.914 18.517 C 270.970 23.641, 299.792 45.528, 304.499 71.357 C 307.301 86.732, 299.746 98.676, 288.547 96.575 C 283.870 95.697, 280.401 91.796, 275.841 82.286 C 270.800 71.775, 262.899 65, 255.682 65 C 252.495 65, 251.958 66.609, 253.867 70.435 C 254.695 72.096, 255.564 75.757, 255.797 78.571 C 256.370 85.474, 252.835 91.301, 246.331 94.178 C 237.740 97.978, 230.636 94.443, 225.087 83.607 C 218.513 70.771, 208.521 63.513, 195.848 62.371 C 177.906 60.752, 155.375 73.410, 147.132 89.739 L 144.193 95.560 134.573 97.879 C 127.008 99.703, 123.356 101.241, 117.477 105.079 C 106.218 112.428, 107.893 115.928, 119.833 110.004 C 132.325 103.806, 144.722 102.429, 156.145 105.970 C 167.220 109.404, 174 117.425, 174 127.093 C 174 134.619, 169.956 138.920, 162.832 138.968 C 158.743 138.996, 157.526 138.456, 153.025 134.614 C 144.386 127.239, 135.737 126.326, 124.150 131.563 C 113.167 136.527, 104.503 145.951, 92.030 166.500 C 82.752 181.787, 78.896 187.210, 72.585 193.852 C 62.918 204.026, 52.845 210.158, 41.221 212.947 C 38.122 213.690, 36 214.748, 36 215.550 C 36 222.591, 61.439 214.012, 72.500 203.242 C 81.652 194.329, 87.039 187.273, 97.439 170.573 C 114.479 143.211, 122.732 136.023, 137.125 136.006 L 141.749 136 139.907 139.750 C 132.612 154.599, 133.923 175.505, 143.404 195.500 C 150.051 209.518, 161.603 223.728, 174.053 233.199 C 193.146 247.724, 217.904 257.931, 241.406 260.966 C 249.161 261.967, 250.514 261.915, 251.871 260.558 C 254.376 258.053, 251.596 256.423, 242.500 255.063 C 226.735 252.706, 213.236 248.243, 197.636 240.232 C 186.460 234.492, 178.320 228.517, 166.640 217.478 C 161.514 212.633, 154.429 202.408, 149.333 192.500 C 142.227 178.684, 139.700 156.872, 144.116 147.476 C 146.669 142.045, 147.610 141.352, 149.813 143.281 C 152.376 145.526, 157.206 147.767, 160 148.007 C 168.075 148.700, 170.722 148.007, 175.809 143.869 C 187.470 134.383, 186.815 119.128, 174.202 106.436 C 169.997 102.204, 160.966 97.025, 157.721 96.985 C 157.050 96.976, 155.895 96.586, 155.156 96.117 C 151.534 93.822, 163.738 80.787, 174.500 75.455 C 187.451 69.038, 201.515 69.747, 209.628 77.225 C 212.033 79.441, 214 81.652, 214 82.137 C 214 82.622, 211.591 86.277, 208.648 90.260 C 201.355 100.124, 197.647 106.956, 194.133 117 C 190.307 127.933, 189 135.301, 189 145.934 C 189.001 169.174, 198.874 192.842, 215.174 208.674 C 236.592 229.477, 269.461 240.605, 301.507 237.901 C 310.736 237.122, 329.527 233.084, 334.531 230.804 C 339.717 228.441, 336.127 223.861, 330.705 225.922 C 329.297 226.457, 322.705 228.044, 316.057 229.448 C 279.769 237.109, 241.917 227.213, 219.918 204.311 C 208.958 192.902, 204.101 184.960, 199.240 170.500 C 196.743 163.074, 196.549 161.274, 196.525 145.407 C 196.509 134.346, 196.913 127.465, 197.670 125.907 C 198.313 124.583, 200.079 120.125, 201.594 116 C 204.637 107.712, 208.524 100.768, 213.840 94.123 C 217.136 90.004, 217.421 89.857, 218.698 91.623 C 221.746 95.840, 228.206 101.843, 230.897 102.957 L 233.767 104.146 230.400 109.148 C 224.133 118.461, 220.363 135.450, 222.001 147 C 226.751 180.502, 252.696 204.455, 292.498 212.084 C 305.142 214.507, 328.068 214.686, 340.140 212.455 C 354.597 209.783, 374.652 202.173, 380.250 197.234 C 382.768 195.012, 382.500 191.121, 379.759 190.107 C 377.090 189.119, 374.199 189.857, 367.491 193.237 C 348.558 202.776, 314.915 207.079, 294 202.636 C 284.147 200.543, 269.831 195.093, 262.559 190.668 C 250.428 183.286, 239.442 170.700, 235.789 160 C 232.389 150.040, 232 148.061, 232 140.728 C 232 122.404, 239.532 108.421, 253.762 100.326 C 267.096 92.740, 270.802 92.399, 274.915 98.377 C 278.543 103.649, 283.693 106, 291.619 106 C 298.276 106, 302.920 103.994, 306.988 99.361 C 312.227 93.394, 314.202 88.312, 314.760 79.360 C 316.818 46.373, 282.189 15.132, 236.318 8.594 C 223.085 6.708, 211.723 6.692, 199.840 8.543 M 262.854 80.740 C 262.561 85.911, 262.757 86.910, 264 86.569 C 269.488 85.067, 269.780 84.874, 269.308 83.071 C 269.041 82.048, 267.559 79.701, 266.015 77.856 L 263.209 74.500 262.854 80.740 M 320.557 99.223 C 318.326 102.407, 318.543 111.184, 320.969 115.939 C 323.395 120.695, 328.520 124, 333.468 124 C 338.955 124, 344 118.768, 344 113.079 C 344 104.687, 335.715 97, 326.671 97 C 323.095 97, 321.778 97.479, 320.557 99.223 M 326 106.376 C 326 115.072, 331.220 120.637, 335.429 116.429 C 338.898 112.959, 335.471 106.627, 328.750 104.088 C 326.093 103.085, 326 103.162, 326 106.376 M 109.667 189.667 C 109.300 190.033, 109.005 192.396, 109.012 194.917 C 109.051 209.867, 120.518 230, 135.179 240.858 C 144.653 247.875, 158.190 254.085, 164.498 254.308 C 173.472 254.626, 171.589 252.239, 159 247.338 C 153.527 245.208, 143.920 239.719, 138.500 235.625 C 126.303 226.412, 116.725 209.953, 114.278 194 C 113.649 189.897, 111.477 187.856, 109.667 189.667" stroke="none" fill="black" fill-rule="evenodd"/>
</svg>