<svg xmlns="http://www.w3.org/2000/svg" width="310" height="307" viewBox="0 0 310 307" version="1.1">
	<path d="M 244.500 6.893 C 237.879 8.076, 206.620 20.741, 201.674 24.243 C 200.120 25.344, 197.645 28.734, 196.174 31.777 C 193.187 37.957, 194.265 37.360, 164.818 49.158 C 151.365 54.547, 146.579 57.987, 145.218 63.240 C 144.509 65.973, 143.121 66.807, 129.470 72.692 C 121.237 76.243, 111.584 80.258, 108.020 81.615 C 100.236 84.580, 97.729 86.762, 95.964 92.108 C 94.494 96.563, 91.943 98.257, 80.067 102.665 C 54.136 112.289, 50.759 114.455, 49.597 122.205 L 48.926 126.677 39.788 130.316 C 33.091 132.982, 30.306 133.669, 29.364 132.887 C 28.657 132.301, 26.102 131.791, 23.687 131.754 C 17.814 131.665, 11.056 135.399, 8.752 140.005 C 6.837 143.831, 6.443 152.004, 7.951 156.601 C 8.474 158.195, 9.363 161.300, 9.926 163.500 C 11.148 168.276, 19.739 180.529, 23.692 183.135 C 29.762 187.137, 42.256 184.273, 45.420 178.155 C 46.531 176.005, 48.796 174.573, 54.890 172.165 C 59.295 170.424, 63.326 169, 63.847 169 C 64.369 169, 66.754 170.120, 69.148 171.488 C 74.114 174.327, 78.802 174.671, 82.993 172.503 C 86.342 170.772, 108.396 162.445, 114.943 160.440 C 119.169 159.146, 119.633 159.212, 124.433 161.790 C 127.426 163.396, 129.628 165.314, 129.844 166.500 C 130.043 167.600, 130.905 169.287, 131.758 170.250 C 133.200 171.876, 133.081 172, 130.078 172 C 123.073 172, 118.439 181.182, 121.236 189.521 C 122.691 193.858, 123.252 192.158, 112.890 214.820 C 111.300 218.296, 110 221.369, 110 221.650 C 110 222.347, 97.504 249.408, 94.600 255 C 93.314 257.475, 91.005 262.650, 89.468 266.500 C 87.931 270.350, 85.847 274.976, 84.837 276.780 C 82.248 281.404, 82.498 285.180, 85.583 288.076 C 87.757 290.115, 89.163 290.497, 94.450 290.483 C 98.395 290.472, 101.373 289.935, 102.450 289.041 C 103.394 288.258, 106.424 282.866, 109.183 277.058 C 111.942 271.251, 116.630 261.470, 119.600 255.322 C 122.570 249.174, 125.002 243.774, 125.004 243.322 C 125.006 242.870, 126.192 240.250, 127.638 237.500 C 129.085 234.750, 132.408 228.255, 135.022 223.067 L 139.775 213.633 140.372 227.067 C 140.700 234.455, 141.154 252.425, 141.380 267 C 141.606 281.575, 142.118 294.304, 142.517 295.287 C 144.359 299.825, 156.600 301.764, 160.984 298.214 C 164.202 295.608, 164.908 290.051, 164.956 266.910 C 164.980 255.585, 165.292 238.919, 165.649 229.875 L 166.297 213.430 171.510 223.965 C 174.377 229.759, 179.979 241.250, 183.960 249.500 C 187.941 257.750, 192.142 266.300, 193.296 268.500 C 196.529 274.662, 197.712 277.109, 199.933 282.222 C 202.585 288.328, 205.834 290.429, 212.626 290.429 C 216.491 290.429, 218.709 289.852, 220.725 288.324 C 224.219 285.676, 224.178 282.607, 220.542 274.500 C 219.062 271.200, 217.157 266.925, 216.308 265 C 215.460 263.075, 213.519 258.800, 211.996 255.500 C 206.193 242.933, 203 235.849, 203 235.543 C 203 235.368, 200.750 230.443, 198 224.598 C 195.250 218.753, 193 213.761, 193 213.506 C 193 213.251, 191.041 209.010, 188.646 204.083 C 184.432 195.410, 184.308 194.881, 184.776 187.583 C 185.496 176.372, 182.836 172, 175.298 172 C 172.908 172, 172.816 171.854, 174.193 170.250 C 176.602 167.445, 178.323 159.416, 177.735 153.724 L 177.196 148.500 184.348 148.493 C 190.734 148.487, 193.054 147.862, 206 142.655 C 228.530 133.595, 231.098 132.920, 236.232 134.709 C 242.622 136.937, 248.594 135.820, 266.367 129.075 C 289.247 120.391, 293.760 117.324, 298.101 107.505 C 301.769 99.212, 302.977 92.998, 302.964 82.500 C 302.947 69.361, 301.325 61.681, 295.678 48 C 289.502 33.035, 280.652 21.344, 269.944 14 C 260.396 7.451, 252.972 5.378, 244.500 6.893 M 244.994 15.885 C 237.109 18.439, 232.736 23.120, 229.596 32.368 C 227.280 39.192, 227.452 56.537, 229.933 66.236 C 235.335 87.361, 247.174 104.959, 261.007 112.430 C 267.538 115.957, 276.466 116.511, 281.698 113.713 C 296.134 105.992, 298.669 75.821, 287.015 50.450 C 282.044 39.627, 277.365 32.572, 270.893 26.138 C 262.703 17.995, 251.801 13.679, 244.994 15.885 M 217.686 25.936 C 212.838 27.896, 207.810 30.527, 206.512 31.782 C 203.572 34.625, 201.990 41.689, 202.031 51.799 C 202.127 75.881, 209.719 96.323, 226 116.337 C 226.825 117.352, 230.383 120.256, 233.907 122.791 C 241.737 128.423, 243.705 128.537, 255.722 124.049 L 264.695 120.698 258.877 117.697 C 250.259 113.252, 243.184 106.374, 236.959 96.389 C 225.230 77.572, 219.306 54.799, 221.922 38.582 C 222.585 34.474, 224.030 29.244, 225.134 26.960 C 226.237 24.675, 226.996 22.709, 226.820 22.589 C 226.644 22.470, 222.534 23.976, 217.686 25.936 M 243.396 23.374 C 239.193 25.279, 236.473 29.385, 234.582 36.684 C 232.492 44.751, 232.616 52.565, 235.005 63.374 C 240.835 89.744, 258.590 110.255, 274.282 108.747 C 278.633 108.329, 279.911 107.677, 283.116 104.242 C 288.169 98.824, 289.518 93.736, 289.410 80.500 C 289.303 67.355, 287.527 59.849, 281.723 48.020 C 277.028 38.453, 267.320 27.699, 260.500 24.513 C 255.328 22.096, 247.383 21.567, 243.396 23.374 M 244.997 29.802 L 242.772 31.603 249.348 34.398 C 262.412 39.950, 271.350 52.724, 276.093 72.623 C 278.204 81.475, 278.321 92.399, 276.392 100.500 C 275.734 103.262, 275.815 103.386, 277.412 102.067 C 283.317 97.187, 285.593 82.266, 282.607 68 C 277.512 43.648, 255.502 21.295, 244.997 29.802 M 239.630 39.250 C 237.439 47.426, 241.064 68.364, 246.567 79.320 C 250.934 88.014, 257.991 97.038, 262.817 100.099 C 265.333 101.694, 267.934 103, 268.596 103 C 270.204 103, 272.388 93.787, 272.326 87.258 C 272.299 84.376, 271.704 79.320, 271.005 76.023 C 269.841 70.538, 269.541 70.077, 267.471 70.597 C 265.625 71.060, 264.629 70.321, 262.053 66.577 C 260.317 64.053, 255.995 58.575, 252.448 54.401 C 245.751 46.521, 244.835 44.384, 247.686 43.290 C 250.075 42.374, 260.210 53.813, 263.967 61.666 C 267.421 68.882, 269.650 71, 268.678 66.140 C 267.746 61.481, 263.516 53.040, 259.964 48.753 C 256.848 44.992, 244.423 37, 241.692 37 C 240.890 37, 239.962 38.013, 239.630 39.250 M 184.500 49.971 C 169.026 56.095, 156.406 62.088, 154.750 64.098 C 152.367 66.990, 152.268 86.599, 154.595 94.846 C 158.244 107.779, 159.231 110.054, 167.036 123.500 C 170.711 129.832, 177.474 137.402, 181.294 139.459 C 184.757 141.324, 184.881 141.321, 191.337 139.201 C 202.389 135.573, 224 127.069, 224 126.348 C 224 126.157, 223.213 125.177, 222.250 124.171 C 219.950 121.768, 217.097 118.329, 213.733 113.905 C 210.373 109.486, 200 89.515, 200 87.464 C 200 86.644, 199.599 85.191, 199.109 84.236 C 196.411 78.979, 192.608 55.608, 193.594 50.351 C 194.362 46.258, 193.926 46.240, 184.500 49.971 M 140 77.676 C 138.075 78.504, 134.700 79.774, 132.500 80.496 C 128.331 81.865, 107.852 90.355, 106.087 91.446 C 104.615 92.356, 103.012 98.818, 103.006 103.864 C 102.998 110.183, 107.631 128.079, 110.728 133.688 C 114.804 141.072, 120.366 148.279, 124.310 151.287 C 128.151 154.217, 128.418 154.117, 129.436 149.367 C 130.239 145.620, 136.077 138.529, 140.050 136.474 C 145.315 133.752, 152.550 132.738, 158.146 133.938 C 160.976 134.545, 163.500 134.833, 163.755 134.578 C 164.010 134.324, 163.382 132.850, 162.359 131.303 C 151.647 115.101, 145.677 98.868, 144.679 83.222 C 144.459 79.770, 144.103 76.770, 143.889 76.557 C 143.675 76.344, 141.925 76.847, 140 77.676 M 90.450 106.831 C 89.927 107.289, 84.550 109.579, 78.500 111.920 C 72.450 114.262, 65.362 117.118, 62.750 118.267 L 58 120.357 58 128.064 C 58 145.068, 69.748 166.610, 78.237 165.173 C 80.087 164.860, 101.428 156.704, 109.223 153.331 L 112.947 151.720 110.102 148.110 C 103.797 140.107, 98.899 128.172, 96.413 114.750 C 95.131 107.826, 94.438 106, 93.096 106 C 92.163 106, 90.973 106.374, 90.450 106.831 M 44.456 137.248 C 35.214 140.563, 30.033 143.321, 29.420 145.251 C 27.396 151.630, 36.016 168.056, 41.339 167.961 C 42.528 167.940, 47.165 166.478, 51.644 164.711 L 59.788 161.500 57.327 156.500 C 55.973 153.750, 53.639 147.893, 52.139 143.485 L 49.413 135.470 44.456 137.248 M 17.635 142.073 C 15.606 143.668, 15 145.028, 15 147.983 C 15 157.187, 22.812 173.227, 28.574 175.852 C 29.971 176.488, 32.202 176.736, 33.532 176.403 C 35.925 175.802, 35.911 175.760, 32.017 172.129 C 29.774 170.038, 26.692 165.462, 24.844 161.481 C 22.159 155.699, 21.594 153.256, 21.551 147.251 C 21.523 143.265, 21.223 140.002, 20.885 140.001 C 20.547 140.001, 19.084 140.933, 17.635 142.073 M 147.660 142.342 C 139.835 144.701, 136.005 151.374, 137.415 160.192 C 138.326 165.894, 141.253 169.549, 146.513 171.558 C 161.386 177.238, 173.917 163.788, 167.021 149.544 C 163.810 142.911, 155.736 139.908, 147.660 142.342 M 146.750 148.080 C 143.851 149.769, 141.753 154.869, 142.443 158.550 C 143.364 163.457, 148.034 168.001, 152.151 167.996 C 162.458 167.985, 167.319 157.117, 160.295 149.786 C 158.125 147.521, 156.772 147.006, 153.063 147.030 C 150.553 147.047, 147.712 147.519, 146.750 148.080 M 149.750 153.080 C 147.740 154.251, 147.401 159.001, 149.200 160.800 C 149.860 161.460, 151.570 162, 153 162 C 158.086 162, 159.911 156.452, 155.777 153.557 C 153.206 151.756, 152.165 151.673, 149.750 153.080 M 129.384 182.442 C 128.099 185.791, 129.471 187.492, 134.013 188.176 C 139.822 189.051, 166.174 189.051, 172 188.176 C 176.181 187.548, 176.522 187.270, 176.813 184.250 L 177.127 181 153.532 181 C 133.906 181, 129.844 181.242, 129.384 182.442 M 129.252 199.250 C 125.974 206.039, 118 223.952, 118 224.525 C 118 224.894, 116.241 228.864, 114.090 233.348 C 111.024 239.740, 95.037 274.571, 92.333 280.750 C 91.964 281.593, 92.759 282, 94.778 282 C 97.637 282, 98.018 281.454, 103.309 269.750 C 106.355 263.012, 113.417 248.050, 119.001 236.500 C 124.586 224.950, 130.759 212.125, 132.720 208 C 134.680 203.875, 136.686 199.713, 137.177 198.750 C 137.952 197.231, 137.560 197, 134.204 197 C 131.183 197, 130.100 197.492, 129.252 199.250 M 148.737 198.250 C 148.474 198.938, 148.627 208.500, 149.076 219.500 C 149.525 230.500, 149.920 247.600, 149.952 257.500 C 149.985 267.400, 150.301 279.212, 150.654 283.750 C 151.262 291.563, 151.421 292, 153.648 292 L 156 292 156.095 272.750 C 156.147 262.163, 156.507 241.350, 156.895 226.500 C 157.283 211.650, 157.417 198.938, 157.193 198.250 C 156.962 197.542, 155.145 197, 153 197 C 150.892 197, 149.002 197.554, 148.737 198.250 M 169 197.629 C 169 198.516, 177.235 215.874, 182.459 226 C 184.872 230.675, 187.838 237.200, 189.052 240.500 C 190.265 243.800, 191.862 247.196, 192.599 248.046 C 193.337 248.896, 195.337 252.721, 197.044 256.546 C 203.845 271.787, 208.995 281.784, 210.304 282.286 C 215.228 284.176, 213.404 278.472, 200.398 251.318 C 197.979 246.268, 196 241.786, 196 241.357 C 196 240.579, 190.288 228.016, 180.719 207.750 C 175.765 197.260, 175.562 197, 172.321 197 C 170.495 197, 169 197.283, 169 197.629" stroke="none" fill="black" fill-rule="evenodd"/>
</svg>