<svg xmlns="http://www.w3.org/2000/svg" width="238" height="345" viewBox="0 0 238 345" version="1.1">
	<path d="M 110.500 6.674 C 95.842 8.503, 81.225 13.960, 69.771 21.878 C 56.148 31.295, 42.654 48.785, 37.657 63.500 C 36.910 65.700, 35.782 67.556, 35.149 67.625 C 34.517 67.694, 32.891 67.806, 31.535 67.875 C 27.901 68.059, 22.387 73.426, 20.315 78.797 C 18.051 84.663, 17.732 106.331, 19.822 112.234 C 21.761 117.708, 28.211 122.826, 34.165 123.616 C 36.824 123.969, 39 124.611, 39 125.042 C 39 125.474, 40.755 128.903, 42.900 132.663 C 46.246 138.529, 46.606 139.718, 45.438 141.037 C 41.876 145.056, 40.712 150.469, 40.394 164.500 L 40.076 178.500 35.201 185 C 28.269 194.242, 23.585 202.384, 19.928 211.546 C 18.182 215.921, 15.007 222.693, 12.872 226.595 C 10.736 230.497, 8.523 236.215, 7.952 239.301 C 6.068 249.496, 10.265 259.444, 18.200 263.589 C 23.547 266.382, 31.957 264.870, 37.334 260.149 C 38.394 259.218, 40.434 258.672, 42.172 258.854 C 49.839 259.658, 54.050 254.704, 54.598 244.234 C 54.853 239.359, 55.685 236.508, 58.173 231.982 C 59.957 228.737, 61.536 226.203, 61.683 226.350 C 61.830 226.497, 61.450 229.516, 60.838 233.059 C 59.192 242.586, 59.442 276.296, 61.271 291.492 C 62.453 301.308, 62.550 304.650, 61.668 305.162 C 57.444 307.616, 52.548 311.996, 50.717 314.959 C 47.977 319.392, 47.802 327.523, 50.363 331.432 C 53.716 336.548, 57.771 337.511, 75.500 337.400 C 94.970 337.279, 101.959 335.990, 106.653 331.654 C 109.878 328.676, 110.125 327.969, 111.081 319 C 114.015 291.454, 116.313 281, 119.436 281 C 122.645 281, 127 298.238, 127 310.944 C 127 318.536, 128.746 328.792, 130.399 330.913 C 131.005 331.689, 133.525 333.241, 136 334.360 C 139.792 336.075, 143.134 336.461, 157.239 336.813 C 177.999 337.331, 182.041 336.781, 186.542 332.829 C 189.754 330.009, 190 329.372, 190 323.877 C 190 316.582, 187.184 311.598, 180.440 306.958 C 175.865 303.811, 175.822 303.729, 176.339 299.139 C 177.888 285.396, 179.020 247.186, 178.157 237.776 C 177.639 232.124, 177.298 227.406, 177.399 227.291 C 177.501 227.177, 179.075 229.795, 180.897 233.109 C 183.536 237.910, 184.350 240.767, 184.899 247.158 C 185.756 257.123, 187.712 259.312, 195.207 258.691 C 199.322 258.351, 200.253 258.654, 202.598 261.102 C 208.310 267.064, 218.655 266.437, 225.095 259.739 C 232.567 251.968, 232.730 241.227, 225.598 226.621 C 223.148 221.604, 220.247 215.211, 219.151 212.413 C 215.084 202.035, 207.117 188.349, 201.561 182.199 L 198.193 178.471 197.824 163.486 C 197.502 150.372, 197.174 147.938, 195.199 144.002 L 192.941 139.503 196.721 131.760 C 200.087 124.863, 200.805 124.016, 203.290 124.008 C 207.485 123.996, 213.552 120.476, 215.749 116.781 C 220.021 109.597, 221.180 89.506, 217.957 78.547 C 216.362 73.126, 211.247 68.223, 206.372 67.443 C 202.598 66.840, 202.369 66.568, 198.989 58.672 C 192.858 44.353, 181.169 29.988, 168.558 21.274 C 152.955 10.493, 128.725 4.400, 110.500 6.674 M 102.066 16.593 C 93.108 19, 85.251 22.939, 84.605 25.345 C 83.677 28.806, 83.911 37.827, 85.108 44.701 C 86.009 49.870, 86.525 50.971, 87.858 50.559 C 102.064 46.169, 127.504 45.386, 142.923 48.862 C 148.106 50.031, 152.440 50.877, 152.555 50.743 C 152.670 50.610, 153.267 48.115, 153.882 45.201 C 155.253 38.700, 155.332 29.003, 154.040 25.606 C 152.835 22.435, 147.493 19.680, 137.449 17.050 C 127.975 14.568, 110.439 14.342, 102.066 16.593 M 73 30.117 C 60.400 39.157, 50.153 53.473, 45.491 68.548 C 40.355 85.155, 40.330 99.522, 45.407 115.500 C 55.217 146.374, 82.302 163.905, 120.308 163.982 C 157.324 164.057, 183.961 146.257, 194.109 114.666 C 200.193 95.724, 198.310 77.849, 187.982 56.500 C 185.853 52.100, 182.169 46.159, 179.794 43.298 C 175.788 38.470, 162.452 27, 160.845 27 C 160.456 27, 159.923 31.163, 159.660 36.250 C 159.398 41.337, 158.871 47.157, 158.490 49.182 C 157.807 52.813, 157.867 52.899, 162.836 55.417 C 168.770 58.424, 177.223 66.557, 179.931 71.866 C 183.673 79.199, 185.152 87.729, 185.236 102.446 C 185.322 117.590, 184.127 123.869, 179.377 133.243 C 173.849 144.151, 166.874 149.033, 149.333 154.267 C 138.749 157.426, 138.063 157.499, 119.500 157.466 C 101.959 157.434, 99.694 157.217, 90 154.647 C 69.872 149.311, 61.116 141.179, 55.382 122.500 C 52.751 113.926, 52.759 90.026, 55.397 81.500 C 59.340 68.757, 65.532 60.780, 75.313 55.842 C 80.389 53.280, 81.113 52.570, 80.569 50.685 C 79.384 46.579, 77.999 30.851, 78.609 28.423 C 78.943 27.090, 79.056 26.038, 78.858 26.086 C 78.661 26.133, 76.025 27.947, 73 30.117 M 104.500 53.609 C 98.464 54.491, 87.968 57.243, 87.450 58.081 C 86.005 60.419, 95.208 71.459, 101.624 75.081 C 104.667 76.799, 118.216 82, 119.649 82 C 119.814 82, 118.610 79.730, 116.974 76.956 C 115.338 74.182, 114 71.032, 114 69.956 C 114 67.350, 117.330 67.387, 121.047 70.034 C 125.332 73.084, 134.471 76.900, 141.323 78.498 C 144.673 79.280, 147.580 79.754, 147.782 79.551 C 147.984 79.349, 146.939 77.353, 145.458 75.117 C 142.809 71.114, 142.704 67.991, 145.219 68.010 C 145.923 68.015, 148.975 69.173, 152 70.582 C 157.347 73.074, 172.983 77.350, 173.791 76.543 C 174.534 75.800, 168.024 67.153, 165.248 65.195 C 159.850 61.387, 151.382 57.637, 144 55.784 C 136.687 53.949, 111.626 52.569, 104.500 53.609 M 75.444 64.107 C 69.893 67.521, 66.424 71.914, 63.751 78.918 C 61.436 84.981, 61.518 85.344, 64.750 83.346 C 69.337 80.511, 76.059 73.709, 77.941 70 C 79.583 66.762, 81.393 61, 80.767 61 C 80.618 61, 78.223 62.398, 75.444 64.107 M 83.566 73.508 C 80.811 78.622, 72.044 86.510, 65.600 89.670 L 60 92.417 60 100.620 C 60 122.701, 66.525 136.671, 80.033 143.517 C 90.445 148.793, 99.685 150.387, 120 150.410 C 136.203 150.429, 139.555 150.147, 147 148.136 C 157.243 145.369, 164.078 141.814, 168.218 137.099 C 176.934 127.172, 180.856 108.126, 177.888 90.149 L 176.775 83.412 168.638 82.242 C 164.162 81.598, 159.543 80.792, 158.373 80.451 C 156.542 79.917, 156.310 80.172, 156.712 82.275 C 157.072 84.157, 156.678 84.851, 155.002 85.289 C 151.814 86.123, 137.198 84.383, 132.124 82.567 C 126.666 80.613, 126.737 80.606, 128.181 82.919 C 129.134 84.445, 129.090 85.187, 127.965 86.542 C 126.807 87.937, 125.454 88.142, 120.525 87.671 C 109.393 86.606, 94.156 79.539, 88.501 72.818 C 87.196 71.268, 85.977 70, 85.792 70 C 85.607 70, 84.605 71.579, 83.566 73.508 M 31.201 78.028 C 30.004 79.143, 28.681 81.280, 28.262 82.778 C 26.984 87.343, 27.388 108.239, 28.803 110.750 C 30.070 113, 34.734 116.613, 35.432 115.885 C 35.636 115.673, 35.134 112.125, 34.317 108 C 33.265 102.685, 32.985 96.931, 33.355 88.250 C 33.642 81.513, 33.765 76, 33.627 76 C 33.490 76, 32.398 76.912, 31.201 78.028 M 205.091 80.250 C 206.365 86.839, 206.078 101.809, 204.539 108.990 C 203.774 112.560, 203.325 115.659, 203.543 115.876 C 203.760 116.093, 205.042 115.548, 206.391 114.664 C 209.845 112.400, 211.331 104.802, 210.851 91.853 C 210.561 84.025, 210.016 80.674, 208.708 78.677 C 205.901 74.392, 204.108 75.171, 205.091 80.250 M 86.354 99.692 C 81.138 100.712, 78.855 107.973, 82.488 111.987 C 85.163 114.943, 91.376 114.715, 94.545 111.545 C 97.782 108.309, 97.644 105.491, 94.077 101.923 C 91.193 99.039, 90.587 98.864, 86.354 99.692 M 147.357 99.992 C 144.605 101.102, 142 104.826, 142 107.650 C 142 112.897, 152.650 116.254, 156.345 112.171 C 158.992 109.246, 158.487 103.529, 155.365 101.073 C 152.547 98.856, 150.766 98.616, 147.357 99.992 M 101.584 125.641 C 99.813 130.256, 110.301 137.007, 119.217 136.990 C 128.871 136.972, 140.358 129.546, 136.996 125.495 C 135.297 123.449, 133.379 123.620, 131.736 125.966 C 129.593 129.027, 124.944 130.987, 119.815 130.994 C 114.014 131.001, 110.186 129.620, 107.210 126.444 C 104.551 123.607, 102.478 123.312, 101.584 125.641 M 50.949 149.095 C 50.333 150.247, 49.577 155.534, 49.270 160.845 L 48.712 170.500 51.059 168.500 C 59.200 161.565, 60 160.601, 60 157.733 C 60 154.863, 54.836 147, 52.951 147 C 52.467 147, 51.566 147.943, 50.949 149.095 M 183.335 149.741 C 176.759 155.696, 177.238 160.355, 185.034 166.265 L 190 170.030 189.980 165.765 C 189.952 159.811, 188.285 148.885, 187.246 147.846 C 186.760 147.360, 185.048 148.188, 183.335 149.741 M 68 160.826 C 68 162.501, 72.938 166.211, 78.954 169.056 C 86.805 172.769, 94.594 174.781, 107.924 176.541 C 128.133 179.209, 153.779 174.330, 167.250 165.254 C 170.699 162.931, 172.638 159.097, 169.750 160.312 C 151.861 167.836, 148.028 169.058, 137.860 170.476 C 115.203 173.636, 94.276 171.392, 78.610 164.124 C 69.427 159.864, 68 159.420, 68 160.826 M 58.530 173.424 C 54.333 177.066, 53.913 177.771, 55.182 179.044 C 55.980 179.845, 57.382 181.646, 58.298 183.046 C 59.893 185.485, 59.853 185.756, 57.344 189.546 C 53.294 195.662, 48.815 200, 46.554 199.996 C 45.424 199.994, 43.050 199.108, 41.277 198.027 L 38.054 196.062 35.596 199.286 C 33.354 202.225, 30.997 207.113, 31.002 208.815 C 31.003 209.192, 33.140 210.804, 35.752 212.399 C 38.363 213.993, 43.352 217.109, 46.837 219.323 L 53.174 223.348 58.140 217.924 C 71.156 203.706, 70.867 203.930, 72.955 206.446 C 73.898 207.582, 73.697 210.199, 72.014 218.663 C 69.105 233.291, 68.215 246.008, 70.101 245.978 C 72.442 245.941, 79.311 242.469, 82.694 239.613 L 85.888 236.916 86.194 215.868 C 86.496 195.126, 86.534 194.792, 88.861 192.910 C 91.053 191.136, 93.135 191, 118.064 191 C 135.018 191, 145.772 191.395, 147.257 192.071 C 152.025 194.244, 152.478 196.231, 152.828 216.500 C 153.141 234.687, 153.257 235.633, 155.523 238.612 C 157.871 241.698, 168.421 246.912, 169.709 245.624 C 170.299 245.035, 169.889 240.783, 166.918 216.622 C 165.979 208.985, 166.041 207.530, 167.361 206.210 C 168.741 204.831, 169.179 205.016, 171.698 208.041 C 173.239 209.892, 177.033 214.097, 180.129 217.385 L 185.758 223.364 190.629 220.342 C 193.308 218.680, 198.456 215.587, 202.068 213.469 L 208.636 209.619 206.403 205.060 C 205.174 202.552, 203.542 199.667, 202.775 198.649 C 201.423 196.856, 201.272 196.864, 197.940 198.896 C 196.048 200.049, 193.579 200.994, 192.453 200.996 C 189.090 201.002, 180 190.299, 180 186.333 C 180 185.377, 181.376 183.175, 183.058 181.440 L 186.117 178.284 181.170 174.142 C 178.449 171.864, 175.738 170, 175.146 170 C 174.553 170, 171.241 171.547, 167.784 173.438 C 139.841 188.722, 99.245 188.569, 70.415 173.070 L 63.330 169.261 58.530 173.424 M 45.498 186.697 L 41.651 191.299 43.930 193.144 C 46.668 195.361, 47.130 195.125, 50.964 189.552 C 53.960 185.198, 53.919 184.677, 50.422 182.703 C 49.829 182.369, 47.613 184.166, 45.498 186.697 M 186.982 184.813 L 184.651 186.701 186.718 189.601 C 187.854 191.195, 189.668 193.299, 190.749 194.276 C 192.633 195.978, 192.809 195.975, 194.990 194.209 C 197.632 192.070, 197.058 190.294, 192.243 185.713 C 189.337 182.949, 189.294 182.941, 186.982 184.813 M 93 196.980 C 91.763 197.763, 91.500 200.902, 91.500 214.882 C 91.500 224.206, 91.725 232.051, 92 232.316 C 92.611 232.903, 122.664 233.506, 136.750 233.213 L 147 233 147 216.071 C 147 202.015, 146.733 198.876, 145.429 197.571 C 144.084 196.227, 140.294 196.002, 119.179 196.015 C 105.351 196.024, 93.840 196.448, 93 196.980 M 96.684 201.196 C 95.087 202.183, 95.437 225.617, 97.078 227.594 C 98.696 229.543, 118.810 229.590, 121.463 227.651 C 123.092 226.460, 123.285 224.964, 123.112 214.901 C 122.985 207.538, 122.487 203.090, 121.708 202.341 C 120.340 201.029, 98.566 200.032, 96.684 201.196 M 131.695 201.111 C 129.175 202.577, 127.861 206.504, 128.941 209.344 C 130.855 214.380, 139.386 214.885, 141.939 210.114 C 143.573 207.061, 143.221 205.131, 140.545 202.455 C 137.953 199.862, 134.692 199.367, 131.695 201.111 M 106.750 205.719 L 101 206.100 101 215.050 L 101 224 109.538 224 L 118.075 224 117.788 214.750 C 117.460 204.221, 118.351 204.950, 106.750 205.719 M 134 207 C 134 208.506, 134.522 209.046, 135.750 208.810 C 136.713 208.624, 137.500 207.810, 137.500 207 C 137.500 206.190, 136.713 205.376, 135.750 205.190 C 134.522 204.954, 134 205.494, 134 207 M 27.007 216.986 C 26.141 218.606, 26.149 219.474, 27.040 220.548 C 28.218 221.967, 46.254 231, 47.910 231 C 48.392 231, 49.067 230.268, 49.410 229.373 C 50.131 227.495, 49.384 226.865, 39 220.605 C 29.042 214.601, 28.389 214.404, 27.007 216.986 M 204.494 218.398 C 194.508 223.877, 189.041 227.124, 188.597 227.843 C 188.365 228.218, 188.698 229.487, 189.338 230.663 C 190.481 232.766, 190.654 232.712, 199.856 227.383 C 213.316 219.588, 213.021 219.841, 211.649 217.278 L 210.488 215.110 204.494 218.398 M 131.455 218.455 C 130.105 219.805, 129 222.022, 129 223.382 C 129 226.161, 133.165 230, 136.180 230 C 138.729 230, 143 225.616, 143 223 C 143 221.850, 141.895 219.805, 140.545 218.455 C 139.195 217.105, 137.150 216, 136 216 C 134.850 216, 132.805 217.105, 131.455 218.455 M 134.688 221.646 C 133.314 223.020, 134.026 225.142, 135.750 224.810 C 136.713 224.624, 137.500 223.841, 137.500 223.070 C 137.500 221.491, 135.736 220.598, 134.688 221.646 M 19.987 231.176 C 17.259 235.609, 16.781 237.367, 16.657 243.426 C 16.495 251.346, 18.401 255.560, 22.623 256.620 C 26.976 257.713, 29.539 256.263, 32.333 251.129 C 33.806 248.424, 35.716 245.939, 36.578 245.609 C 38.489 244.875, 41.572 246.413, 42.882 248.754 C 44.332 251.345, 45.122 249.803, 45.659 243.329 L 46.143 237.500 41.322 234.723 C 36.930 232.193, 24.274 226, 23.496 226 C 23.318 226, 21.738 228.329, 19.987 231.176 M 203.958 231.194 C 192.527 238.214, 192.726 237.960, 193.543 244.500 C 193.921 247.525, 194.451 250, 194.721 250 C 194.991 250, 196.116 248.851, 197.221 247.446 C 200.081 243.810, 203.057 244.562, 205.350 249.500 C 207.997 255.201, 209.894 257, 213.254 257 C 215.258 257, 217.124 256.008, 219.099 253.894 C 221.968 250.823, 222.512 248.663, 222.057 242.161 C 221.640 236.202, 216.326 226, 213.640 226 C 212.967 226, 208.610 228.337, 203.958 231.194 M 89.393 239.419 C 89.093 240.200, 89.636 242.042, 90.600 243.512 L 92.352 246.186 94.081 242.843 C 95.341 240.407, 95.497 239.301, 94.655 238.766 C 92.756 237.557, 89.975 237.902, 89.393 239.419 M 99.194 244.310 C 94.084 253.365, 85.312 259.380, 72.997 262.273 L 67.772 263.500 68.451 272 C 68.824 276.675, 69.486 280.863, 69.921 281.306 C 71.083 282.490, 85.057 284.750, 96.246 285.564 L 105.992 286.273 107.935 281.887 C 110.586 275.900, 113.326 273.217, 117.607 272.414 C 122.697 271.459, 126.988 273.773, 129.750 278.962 C 130.988 281.287, 132 283.821, 132 284.595 C 132 286.531, 142.282 286.457, 156.485 284.420 C 163.974 283.345, 167.900 282.324, 168.750 281.229 C 169.520 280.236, 170 276.430, 170 271.309 C 170 263.623, 169.848 263, 167.968 263 C 166.850 263, 162.409 261.640, 158.099 259.978 C 151.700 257.510, 149.263 255.905, 144.815 251.228 C 141.819 248.078, 138.726 244.037, 137.940 242.250 L 136.512 239 119.351 239 L 102.191 239 99.194 244.310 M 142.892 240.750 C 143.421 241.713, 144.465 243.317, 145.212 244.316 C 146.516 246.061, 146.643 246.052, 148.406 244.104 C 151.043 241.189, 149.795 239, 145.496 239 C 142.400 239, 142.056 239.231, 142.892 240.750 M 80 247.567 C 77.525 248.930, 73.790 250.563, 71.700 251.196 C 68.440 252.183, 67.943 252.712, 68.200 254.923 C 68.462 257.174, 68.917 257.467, 71.795 257.240 C 73.606 257.097, 78.269 255.379, 82.155 253.422 L 89.221 249.864 86.936 247.432 C 85.679 246.094, 84.617 245.020, 84.576 245.044 C 84.534 245.069, 82.475 246.204, 80 247.567 M 151.988 247.513 L 149.833 249.806 155.781 253.292 C 159.053 255.210, 163.590 257.093, 165.865 257.477 C 169.951 258.167, 170 258.140, 170 255.165 C 170 252.565, 169.490 251.993, 166.250 250.966 C 164.188 250.312, 160.619 248.752, 158.321 247.498 L 154.142 245.220 151.988 247.513 M 70.015 289.750 C 70.024 290.712, 70.379 292.049, 70.806 292.720 C 72.061 294.695, 85.391 297, 95.565 297 L 105 297 105 294 L 105 291 98.750 290.996 C 95.313 290.994, 88.450 290.327, 83.500 289.514 C 71.632 287.564, 69.996 287.592, 70.015 289.750 M 156.500 289.089 C 154.850 289.594, 148.975 290.293, 143.444 290.643 L 133.388 291.280 133.807 294.140 C 134.224 296.981, 134.274 297, 141.363 296.992 C 147.647 296.986, 153.291 296.376, 164.640 294.476 C 167.201 294.048, 167.861 293.402, 168.217 290.975 C 168.648 288.035, 168.600 288.001, 164.077 288.086 C 161.560 288.133, 158.150 288.585, 156.500 289.089 M 157 300.573 C 153.425 301.306, 147.575 301.935, 144 301.969 C 140.425 302.003, 136.930 302.392, 136.233 302.835 C 135.242 303.464, 135.171 305.991, 135.904 314.441 C 136.420 320.381, 137.293 325.693, 137.845 326.245 C 138.397 326.797, 144.165 327.924, 150.664 328.750 C 159.731 329.903, 164.400 330.020, 170.736 329.252 C 179.617 328.175, 182 326.980, 182 323.605 C 182 320.667, 176.515 314.242, 172.616 312.613 C 167.109 310.312, 165.825 308.352, 166.570 303.385 C 167.328 298.327, 167.580 298.401, 157 300.573 M 71.833 304.694 L 72.166 309.592 66.870 312.474 C 59.887 316.275, 57 319.496, 57 323.486 C 57 327.414, 59.315 328.669, 68.245 329.584 C 74.924 330.268, 93.971 328.603, 98.826 326.911 C 101.694 325.911, 101.743 325.764, 102.428 316.199 C 102.811 310.864, 103.352 305.558, 103.631 304.406 C 104.118 302.398, 103.657 302.285, 92.319 301.640 C 85.819 301.270, 78.475 300.704, 76 300.382 L 71.500 299.796 71.833 304.694" stroke="none" fill="black" fill-rule="evenodd"/>
</svg>