<svg xmlns="http://www.w3.org/2000/svg" width="316" height="213" viewBox="0 0 316 213" version="1.1">
	<path d="M 135.458 9.314 C 119.139 13.462, 104.005 21.920, 92.663 33.231 C 82.277 43.591, 72.660 61.080, 69.422 75.500 C 68.434 79.900, 67.559 83.614, 67.476 83.753 C 67.394 83.893, 62.641 85.399, 56.913 87.101 C 26.389 96.171, 9.430 107.710, 6.987 121.071 C 5.328 130.145, 10.081 143.513, 17.798 151.478 C 31.186 165.295, 56.163 176.417, 88.415 182.922 C 100.571 185.374, 103.993 186.452, 106.915 188.752 C 122.471 200.994, 137.577 205.981, 159.138 205.993 C 169.741 205.999, 173.197 205.588, 180.601 203.443 C 191.123 200.393, 201.338 195.215, 207.459 189.827 C 211.095 186.627, 213.080 185.715, 218.209 184.891 C 253.152 179.278, 286.040 165.215, 298.431 150.590 C 305.965 141.697, 308.963 134.488, 308.985 125.210 C 309.002 118.145, 306.729 112.548, 302.220 108.550 C 300.724 107.224, 298.150 104.957, 296.500 103.513 C 292.006 99.579, 276.962 92.635, 264 88.511 C 247.561 83.280, 248.190 83.632, 247.531 79.296 C 243.531 52.991, 222.919 26.453, 197.557 14.953 C 185.840 9.640, 176.909 7.848, 160 7.414 C 146.300 7.062, 143.450 7.283, 135.458 9.314 M 138.103 17.483 C 120.824 21.992, 105.035 31.746, 94.500 44.418 C 88.348 51.818, 87.346 53.456, 82.825 63.500 C 78.171 73.838, 76 84.664, 76 97.529 L 76 107.844 80.105 111.358 C 85.424 115.911, 101.782 121.220, 119.500 124.144 C 130.475 125.956, 136.706 126.295, 159.500 126.324 C 188.363 126.360, 201.316 124.923, 217.686 119.872 C 225.570 117.439, 237.014 111.894, 238.940 109.573 C 240.391 107.824, 240.758 91.658, 239.524 83.872 C 236.173 62.735, 226.003 45.159, 209.778 32.464 C 195.413 21.224, 180.276 16.039, 160 15.415 C 149.161 15.082, 146.251 15.357, 138.103 17.483 M 121.029 31.113 C 115.974 33.130, 108.010 39.171, 103.702 44.255 C 95.535 53.892, 93.221 61.469, 96.984 66.253 C 100.731 71.016, 107.869 68.993, 111.426 62.162 C 114.196 56.840, 121.763 50.170, 129.500 46.228 C 133.395 44.244, 137 39.678, 137 36.731 C 137 35.927, 136.067 34.084, 134.927 32.635 C 133.198 30.436, 132.080 30.010, 128.177 30.063 C 125.605 30.098, 122.388 30.571, 121.029 31.113 M 122.374 36.837 C 119.555 37.811, 116.520 39.337, 115.630 40.227 C 114.739 41.118, 112.993 42.668, 111.749 43.673 C 108.337 46.430, 103.163 53.366, 101.436 57.499 C 100.231 60.383, 100.159 61.486, 101.100 62.621 C 102.774 64.638, 103.234 64.301, 108.396 57.267 C 113.074 50.893, 118.399 46.387, 125.500 42.792 C 130.865 40.076, 132.976 38.101, 132.326 36.406 C 131.612 34.548, 128.623 34.677, 122.374 36.837 M 91.221 72.549 C 87.385 74.162, 85.796 77.051, 86.192 81.693 C 86.641 86.957, 90.498 89.651, 95.311 88.062 C 99.934 86.537, 101.235 84.819, 101.359 80.077 C 101.531 73.519, 96.970 70.132, 91.221 72.549 M 91.409 79.508 C 90.562 82.880, 92.334 84.910, 94.778 83.369 C 97.353 81.744, 97.021 77.574, 94.285 77.185 C 92.601 76.946, 91.912 77.502, 91.409 79.508 M 62.658 94.167 C 47.831 97.409, 25.921 108.011, 19.890 114.862 C 16.641 118.554, 16 120, 16 123.641 C 16 128.935, 17.033 129.131, 26.230 125.578 C 39.211 120.563, 52.018 116, 53.111 116 C 53.734 116, 57.335 114.792, 61.113 113.317 L 67.983 110.633 67.353 102.067 C 67.006 97.355, 66.672 93.461, 66.611 93.413 C 66.550 93.366, 64.771 93.705, 62.658 94.167 M 249.231 102.027 L 249.033 110.646 254.266 112.790 C 261.055 115.573, 298.654 129, 299.655 129 C 299.845 129, 300 127.141, 300 124.868 C 300 113.738, 285.905 103.871, 258.964 96.143 L 249.429 93.408 249.231 102.027 M 244.403 116.732 C 241.114 119.203, 230.786 124.199, 223.316 126.933 L 216.133 129.562 223.816 137.690 C 228.042 142.160, 233.534 148.178, 236.021 151.064 L 240.541 156.310 246.021 155.051 C 263.619 151.009, 279.194 144.798, 289.028 137.899 C 292.313 135.595, 295 133.556, 295 133.369 C 295 132.543, 279.534 126.674, 257.403 119.100 C 247.531 115.722, 246.096 115.461, 244.403 116.732 M 44.667 124.011 C 32.109 128.313, 21.574 132.093, 21.256 132.410 C 18.031 135.636, 49.482 150.245, 69.926 155.017 L 75.352 156.284 78.826 152.392 C 80.737 150.251, 86.283 144.149, 91.150 138.832 L 100 129.163 93.250 126.949 C 85.733 124.484, 75.342 119.617, 72.921 117.428 C 72.053 116.642, 70.478 116.043, 69.421 116.094 C 68.365 116.146, 57.225 119.709, 44.667 124.011 M 94.994 142.056 C 89.222 148.249, 83.702 154.156, 82.727 155.181 C 80.600 157.418, 80.350 157.315, 93 159.420 C 108.302 161.966, 131.005 164, 144.124 164 L 156.304 164 155.652 153.344 C 155.293 147.484, 155 140.959, 155 138.844 L 155 135 146.250 134.969 C 138.586 134.941, 124.410 133.568, 109.994 131.455 L 105.489 130.795 94.994 142.056 M 202.500 132.053 C 189.003 134.222, 181.685 134.941, 172.832 134.969 C 167.514 134.986, 162.452 135.273, 161.582 135.607 C 159.826 136.281, 159.465 144.687, 160.652 157.250 L 161.289 164 172.395 163.997 C 178.503 163.995, 188.675 163.538, 195 162.981 C 205.957 162.016, 234.083 158.083, 234.875 157.405 C 235.081 157.229, 234.114 155.828, 232.727 154.292 C 231.340 152.756, 226.050 146.887, 220.971 141.250 C 211.131 130.327, 211.646 130.583, 202.500 132.053 M 33 152.294 C 33 154.045, 52.881 163.806, 63.930 167.481 C 89.892 176.115, 119.153 179.983, 158.500 179.983 C 200.031 179.983, 231.468 175.276, 258.852 164.959 C 268.556 161.302, 282.595 154.262, 281.789 153.456 C 281.590 153.257, 276.943 154.791, 271.463 156.865 C 258.119 161.915, 243.055 165.627, 228.500 167.450 C 221.900 168.277, 213.800 169.411, 210.500 169.971 C 207.200 170.531, 192.601 171.483, 178.057 172.086 C 151.796 173.176, 125.036 172.368, 106.500 169.925 C 102.650 169.418, 95.900 168.543, 91.500 167.981 C 74.878 165.858, 51.905 159.566, 34.250 152.300 C 33.563 152.018, 33 152.015, 33 152.294 M 125.398 190.405 C 129.985 193.222, 145.297 196.960, 155 197.631 C 162.072 198.119, 165.516 197.763, 175.500 195.509 C 182.100 194.019, 189.128 191.832, 191.118 190.650 L 194.737 188.500 158.516 188.500 C 122.478 188.500, 122.311 188.510, 125.398 190.405" stroke="none" fill="black" fill-rule="evenodd"/>
</svg>