<svg xmlns="http://www.w3.org/2000/svg" width="265" height="323" viewBox="0 0 265 323" version="1.1">
	<path d="M 50.333 7.181 C 45.285 8.509, 42 13.214, 42 19.114 C 42 23.679, 42.359 24.424, 46.500 28.448 L 51 32.822 51 60.010 C 51 82.906, 51.254 87.732, 52.606 90.583 C 54.469 94.508, 58.909 97.537, 64.250 98.527 C 67.619 99.152, 68 99.535, 68 102.296 C 68 107.291, 71.515 113.222, 76.232 116.186 C 79.466 118.218, 82.394 119.043, 88.254 119.574 C 95.373 120.219, 96 120.455, 96 122.491 C 96 124.612, 95.501 124.736, 84.355 125.403 C 73.560 126.048, 71.702 126.506, 66 129.925 C 65.175 130.420, 62.265 131.613, 59.534 132.577 C 53.129 134.838, 47.837 140.087, 44.993 147 C 43.748 150.025, 41.933 153.058, 40.960 153.740 C 37.835 155.930, 29.934 167.864, 25.875 176.525 C 21.142 186.625, 18.143 197.745, 17.313 208.269 C 16.763 215.247, 16.371 216.387, 13.460 219.474 C 9.870 223.280, 7 230.523, 7 235.774 C 7 241.865, 9.965 249.898, 13.527 253.461 C 19.547 259.481, 26.391 258.948, 30.349 252.152 C 32.029 249.267, 32.165 248.063, 31.329 243.456 C 30.305 237.805, 31.059 235, 33.601 235 C 34.426 235, 35.756 236.566, 36.556 238.480 C 38.249 242.532, 41.049 244.587, 46.145 245.518 C 49.756 246.177, 53.718 244.905, 55.208 242.609 C 55.598 242.008, 56.202 239.235, 56.550 236.446 C 57.332 230.188, 55.401 225.038, 50.315 219.819 C 46.732 216.141, 46.729 216.130, 47.228 208.819 C 47.802 200.428, 49.737 194.045, 54.298 185.500 C 56.574 181.234, 58.078 179.500, 59.500 179.500 C 61.433 179.500, 61.506 180.225, 61.675 201.144 C 61.835 220.793, 62.040 223.158, 63.903 226.810 C 66.427 231.757, 70.159 234.518, 75.843 235.642 C 78.229 236.114, 80.140 236.838, 80.090 237.250 C 80.041 237.662, 79.983 248.688, 79.962 261.750 L 79.924 285.500 75.996 288.217 C 70.306 292.151, 67.581 296.988, 64.517 308.593 C 64.177 309.882, 64.768 311.706, 66.055 313.343 L 68.145 316 94.958 316 L 121.770 316 123.385 313.535 C 126.156 309.306, 125.608 305.569, 120.670 295 C 118.722 290.832, 118.557 288.657, 118.435 265.500 C 118.362 251.750, 118.658 239.530, 119.091 238.344 C 119.808 236.382, 120.494 236.213, 126.690 236.470 C 130.435 236.626, 136.537 236.809, 140.250 236.877 L 147 237 147 264.520 C 147 291.668, 146.968 292.090, 144.653 295.770 C 143.363 297.821, 141.754 301.818, 141.077 304.652 C 140.024 309.067, 140.077 310.248, 141.449 312.902 L 143.051 316 170.403 316 C 201.463 316, 200.609 316.226, 200.357 308.060 C 200.152 301.444, 196.597 294.692, 190.417 289.184 L 185.084 284.431 184.886 261.374 C 184.776 248.692, 184.977 237.847, 185.331 237.273 C 185.685 236.700, 187.993 235.928, 190.458 235.558 C 194.061 235.018, 195.635 234.076, 198.475 230.758 C 200.418 228.488, 202.454 225.026, 202.998 223.065 C 203.543 221.104, 203.991 210.436, 203.994 199.357 C 203.999 181.915, 204.212 179.133, 205.582 178.607 C 206.452 178.273, 207.307 178, 207.483 178 C 207.659 178, 208.769 179.638, 209.950 181.640 C 214.022 188.542, 217.104 197.526, 218.436 206.381 L 219.772 215.261 216.454 218.175 C 209.365 224.399, 206.626 236.712, 211.073 242.365 C 212.861 244.638, 213.897 245, 218.618 245 C 224.307 245, 225.867 244.038, 230.075 237.936 C 231.162 236.362, 232.202 235.864, 233.426 236.333 C 234.987 236.932, 235.118 237.847, 234.510 243.903 C 233.711 251.859, 234.579 254.214, 239.192 256.599 C 241.816 257.956, 242.967 258.027, 246.280 257.034 C 253.919 254.745, 258 247.770, 258 237 C 258 229.165, 256.495 224.979, 251.552 219.063 C 248.403 215.293, 248 214.169, 247.999 209.155 C 247.997 192.891, 240.025 172.226, 228.532 158.689 C 224.823 154.320, 221.921 149.784, 221.136 147.125 C 219.414 141.291, 211.985 133.886, 206.100 132.137 C 203.680 131.418, 199.934 129.661, 197.776 128.233 C 194.479 126.051, 192.250 125.526, 183.816 124.941 C 178.296 124.558, 172.930 124.467, 171.890 124.739 C 170.413 125.125, 170 124.693, 170 122.762 C 170 120.427, 170.383 120.258, 176.911 119.711 C 183.978 119.118, 190.160 116.694, 193.212 113.320 C 195.512 110.777, 198 104.651, 198 101.532 C 198 100.139, 198.563 98.997, 199.250 98.994 C 202.964 98.978, 208.451 96.483, 211.519 93.414 L 215 89.933 215 60.992 L 215 32.051 218.044 30.477 C 226.836 25.930, 227.159 14.144, 218.643 8.622 C 213.874 5.529, 211.892 5.412, 206.424 7.895 C 202.225 9.802, 199 14.598, 199 18.933 C 199 22.376, 201.556 27.506, 204.379 29.726 C 206.926 31.730, 207 32.100, 207 42.913 L 207 54.038 204.250 53.373 C 198.309 51.935, 197.373 51.187, 196.079 46.846 C 194.352 41.052, 188.807 33.651, 183.410 29.938 C 174.380 23.725, 173.684 23.625, 136.500 23.219 C 100.735 22.827, 94.151 23.352, 86.626 27.191 C 78.686 31.242, 69.083 43.548, 69.022 49.750 C 69.006 51.344, 68.403 52, 66.950 52 C 65.823 52, 63.599 52.673, 62.007 53.496 C 60.101 54.482, 58.895 54.640, 58.474 53.959 C 58.123 53.390, 57.872 48.367, 57.917 42.796 L 57.999 32.668 61.513 29.153 C 66.214 24.453, 67.619 19.640, 65.652 14.980 C 62.902 8.467, 56.954 5.439, 50.333 7.181 M 49.635 14.073 C 46.094 16.857, 46.094 21.143, 49.635 23.927 C 53.095 26.649, 55.547 26.544, 58.545 23.545 C 61.655 20.436, 61.631 18.903, 58.411 15.077 C 55.376 11.469, 53.253 11.227, 49.635 14.073 M 208.302 13.501 C 207.123 14.327, 205.843 16.440, 205.457 18.197 C 204.865 20.892, 205.174 21.753, 207.433 23.696 C 210.983 26.749, 214.358 26.632, 216.927 23.365 C 219.696 19.845, 219.539 17.404, 216.354 14.452 C 213.303 11.625, 211.316 11.390, 208.302 13.501 M 105.500 31.932 C 92.891 32.724, 88.139 34.581, 83.110 40.682 C 76.541 48.653, 76.514 48.807, 76.758 77.910 C 76.997 106.528, 77.268 108.011, 82.617 110.045 C 85.959 111.315, 180.041 111.315, 183.383 110.045 C 188.625 108.052, 188.911 106.516, 189.073 79.484 C 189.253 49.515, 188.742 46.647, 182.017 39.922 C 174.939 32.844, 171.981 32.236, 142 31.699 C 127.975 31.447, 111.550 31.552, 105.500 31.932 M 98.455 59.455 C 92.055 65.854, 98.206 76.153, 106.536 72.986 C 112.399 70.757, 113.857 64.296, 109.548 59.646 C 106.346 56.191, 101.797 56.112, 98.455 59.455 M 156.783 58.750 C 153.514 62.498, 152.764 65.017, 154.017 68.042 C 156.408 73.814, 162.655 75.632, 167.365 71.927 C 170.942 69.114, 171.111 62.393, 167.686 59.174 C 164.812 56.474, 158.967 56.247, 156.783 58.750 M 64.032 61.627 C 62.125 62.430, 60.219 63.630, 59.798 64.293 C 59.376 64.957, 59.024 70.080, 59.015 75.679 C 59.003 83.609, 59.347 86.204, 60.570 87.427 C 62.217 89.074, 66.750 90.583, 67.574 89.759 C 67.839 89.495, 67.930 82.728, 67.778 74.723 L 67.500 60.168 64.032 61.627 M 198 75.500 L 198 90 200.500 90 C 201.875 90, 203.949 89.051, 205.109 87.891 C 207.044 85.956, 207.187 84.913, 206.831 75.312 C 206.471 65.581, 206.270 64.709, 203.972 62.944 C 202.612 61.899, 200.713 61.034, 199.750 61.022 C 198.163 61.002, 198 62.349, 198 75.500 M 112.332 86.578 C 111.400 89.005, 115.155 93.209, 120.970 96.250 C 126.745 99.270, 135.101 99.933, 142.277 97.940 C 147.737 96.424, 153 91.494, 153 87.896 C 153 84.086, 150.897 84.109, 143.500 88 C 139.498 90.105, 136.411 90.993, 133.148 90.978 C 128.522 90.956, 120.865 88.209, 119.564 86.104 C 118.511 84.400, 113.030 84.759, 112.332 86.578 M 106.250 119.662 C 105.563 119.940, 105 121.187, 105 122.435 C 105 124.558, 105.530 124.745, 113.250 125.346 C 123.888 126.174, 150.370 126.185, 156.360 125.364 C 160.286 124.826, 161 124.389, 161 122.522 C 161 120.352, 160.701 120.305, 142.840 119.658 C 122.318 118.914, 108.099 118.916, 106.250 119.662 M 74.097 134.750 C 72.928 135.713, 71.600 137.850, 71.145 139.500 C 70.689 141.150, 70.211 159.841, 70.082 181.035 C 69.902 210.495, 70.146 220.226, 71.118 222.360 C 73.757 228.151, 73.035 228.085, 132.923 228.070 C 171.787 228.060, 188.512 227.724, 190.282 226.918 C 195.418 224.577, 195.500 223.840, 195.500 179.768 L 195.500 138.837 192.234 135.918 L 188.968 133 132.595 133 C 80.382 133, 76.065 133.129, 74.097 134.750 M 57.640 143.304 C 55.713 145.121, 53.825 147.847, 53.445 149.363 C 52.240 154.166, 53.607 160.981, 56.640 165.284 C 61.662 172.410, 62 171.768, 62 155.083 C 62 146.787, 61.807 140, 61.571 140 C 61.335 140, 59.566 141.487, 57.640 143.304 M 204 155.037 C 204 171.667, 204.202 172.067, 209.379 165.671 C 211.770 162.716, 212.462 160.760, 212.808 155.973 C 213.278 149.486, 211.502 145.534, 206.395 141.703 L 204 139.907 204 155.037 M 90.228 151.202 C 88.979 151.820, 87.727 153.264, 87.447 154.413 C 87.166 155.561, 87.063 167.252, 87.218 180.393 L 87.500 204.286 90.329 206.393 C 93.099 208.457, 93.974 208.498, 133.089 208.414 L 173.022 208.328 175.511 205.990 L 178 203.651 178 178.981 C 178 155.175, 177.926 154.243, 175.896 152.405 C 173.909 150.605, 171.550 150.488, 133.146 150.290 C 104.713 150.143, 91.817 150.417, 90.228 151.202 M 96 154.835 L 92.500 155.500 92.231 178.431 C 92.083 191.043, 92.308 201.702, 92.731 202.118 C 93.154 202.534, 111.196 202.987, 132.825 203.124 C 166.118 203.335, 172.290 203.153, 173.060 201.937 C 174.537 199.603, 174.251 157.446, 172.750 156.244 C 171.304 155.086, 101.435 153.804, 96 154.835 M 152.455 162.455 C 147.144 167.765, 151.001 177, 158.529 177 C 167.363 177, 171.413 165.333, 163.923 161.460 C 159.644 159.247, 155.284 159.626, 152.455 162.455 M 42.868 164.360 C 39.225 169.278, 36 174.328, 36 175.114 C 36 175.970, 40.074 178.317, 44.440 179.977 C 46.604 180.800, 47.149 180.495, 49.069 177.388 L 51.245 173.867 48.483 168.683 C 44.846 161.861, 44.766 161.799, 42.868 164.360 M 101.019 164.783 C 98.696 166.664, 98.635 167.086, 98.869 179.585 C 99.032 188.232, 99.503 192.700, 100.305 193.210 C 102.016 194.297, 139.212 194.152, 140.952 193.051 C 142.057 192.352, 142.496 189.181, 142.787 179.816 C 143.325 162.528, 144.651 163.580, 121.788 163.173 C 104.824 162.872, 103.227 162.996, 101.019 164.783 M 219.998 164.250 C 219.996 164.938, 218.676 167.043, 217.065 168.929 C 214.326 172.133, 214.227 172.537, 215.544 175.084 C 218.545 180.888, 219.570 181.252, 225.068 178.466 L 230.019 175.957 228.035 172.228 C 226.056 168.509, 221.587 163, 220.548 163 C 220.247 163, 219.999 163.563, 219.998 164.250 M 156.571 165.571 C 153.859 168.284, 155.358 172, 159.165 172 C 160.652 172, 163 169.329, 163 167.637 C 163 166.807, 159.913 164, 159 164 C 158.529 164, 157.436 164.707, 156.571 165.571 M 103.438 169.301 C 103.153 170.043, 103.051 174.891, 103.210 180.075 L 103.500 189.500 120.225 189.774 C 139.758 190.094, 138.287 191.164, 137.795 177 L 137.500 168.500 120.728 168.226 C 107.382 168.007, 103.850 168.227, 103.438 169.301 M 33 181.064 C 33 181.649, 31.875 184.588, 30.500 187.594 C 29.125 190.600, 28 193.466, 28 193.962 C 28 195.031, 29.888 195.614, 36.035 196.445 L 40.570 197.058 41.717 192.779 C 42.348 190.426, 43.158 187.739, 43.516 186.809 C 44.017 185.510, 42.999 184.526, 39.117 182.559 C 33.429 179.677, 33 179.572, 33 181.064 M 226.409 182.797 L 221.317 185.500 223.551 191 C 226.038 197.122, 227.381 197.782, 233.815 196.050 C 237.646 195.018, 237.759 194.867, 237.048 191.740 C 236.395 188.870, 232.327 179.925, 231.730 180.047 C 231.603 180.073, 229.209 181.311, 226.409 182.797 M 152.452 183.646 C 148.915 187.462, 149.144 192.298, 153.046 196.200 C 155.679 198.832, 156.596 199.166, 159.796 198.657 C 167.612 197.413, 170.502 189.348, 165.077 183.923 C 161.156 180.002, 155.936 179.887, 152.452 183.646 M 155.407 188.513 C 154.273 193.032, 159.142 195.944, 162.025 192.470 C 163.969 190.128, 161.746 186, 158.540 186 C 156.702 186, 155.871 186.667, 155.407 188.513 M 26.393 203.602 C 25.565 205.584, 25.025 208.171, 25.194 209.352 C 25.464 211.249, 26.230 211.535, 31.750 211.798 C 37.996 212.095, 38 212.093, 38.014 209.298 C 38.021 207.759, 38.272 205.588, 38.572 204.473 C 39.032 202.760, 38.408 202.256, 34.544 201.223 C 28.198 199.526, 28.082 199.560, 26.393 203.602 M 230.039 201.275 C 227.255 202.684, 225.465 208.651, 227.200 210.740 C 227.828 211.497, 230.642 212, 234.253 212 L 240.262 212 239.642 208.250 C 239.301 206.188, 239.017 203.488, 239.011 202.250 C 239.002 200.377, 238.455 200.002, 235.750 200.015 C 233.963 200.023, 231.393 200.590, 230.039 201.275 M 25.008 222.186 C 18.326 225.628, 15.725 230.095, 16.226 237.263 C 16.485 240.955, 17.347 243.988, 18.626 245.700 C 22.112 250.370, 23.048 249.784, 22.406 243.331 C 21.794 237.188, 23.372 231.596, 26.434 229.055 C 27.286 228.348, 30.229 227.735, 32.974 227.694 C 38.410 227.612, 41.787 229.803, 44.621 235.250 C 46.503 238.868, 48 238.744, 48 234.968 C 48 227.261, 42.436 221.534, 33.880 220.434 C 30.489 219.998, 28.486 220.394, 25.008 222.186 M 226.401 221.846 C 221.338 224.219, 218.027 228.696, 217.728 233.577 C 217.442 238.231, 219.319 239.059, 220.993 235.017 C 223.751 228.358, 231.027 225.230, 237.203 228.048 C 242.526 230.478, 245.437 239.090, 243.054 245.357 C 242.357 247.191, 242.478 248.152, 243.514 249.012 C 246.460 251.457, 250.868 240.417, 249.608 233.750 C 248.809 229.519, 245.720 224.518, 242.674 222.522 C 238.727 219.936, 231.149 219.621, 226.401 221.846 M 93.750 236.735 L 89 237.110 89 241.916 L 89 246.722 94.750 247.241 C 97.912 247.526, 102.750 247.542, 105.500 247.277 L 110.500 246.794 110.135 242.147 C 109.934 239.591, 109.259 237.169, 108.635 236.765 C 107.504 236.033, 102.772 236.024, 93.750 236.735 M 162.750 236.743 C 155.109 237.079, 154.998 237.122, 154.885 239.792 C 154.696 244.222, 155.137 246.456, 156.353 247.235 C 157.774 248.145, 166.167 248.213, 172.360 247.364 L 177 246.728 177 241.971 C 177 237.089, 175.881 235.753, 172.168 236.201 C 171.251 236.312, 167.012 236.556, 162.750 236.743 M 95 252.994 L 89.500 253.500 89.273 260.250 L 89.046 267 99.820 267 L 110.595 267 110.181 260.250 C 109.954 256.538, 109.708 253.447, 109.634 253.383 C 109.017 252.845, 99.405 252.589, 95 252.994 M 156.525 253.618 C 155.334 254.809, 154.985 256.711, 155.204 260.831 C 155.486 266.162, 155.641 266.454, 158.500 267.015 C 160.150 267.339, 164.988 267.419, 169.250 267.193 L 177 266.781 177 259.998 C 177 251.964, 177.049 252, 165.990 252 C 160.094 252, 157.741 252.402, 156.525 253.618 M 89.500 277.456 C 89.500 282.503, 89.658 282.873, 91.604 282.385 C 93.649 281.871, 105.552 283.997, 109.424 285.567 C 110.988 286.201, 111.221 286.019, 110.674 284.592 C 110.303 283.626, 110 280.398, 110 277.418 L 110 272 99.750 272 L 89.500 272 89.500 277.456 M 155 279.407 L 155 286.881 157.652 285.505 C 160.529 284.013, 172.749 281.687, 175.070 282.190 C 176.161 282.426, 176.500 281.313, 176.500 277.500 L 176.500 272.500 165.750 272.216 L 155 271.932 155 279.407 M 88.764 290.996 C 81.719 293.117, 75.862 298.799, 74.546 304.790 L 73.841 308 95.029 308 L 116.217 308 115.566 305.250 C 114.472 300.624, 109.733 294.776, 105.093 292.327 C 100.523 289.914, 94.096 289.390, 88.764 290.996 M 165.138 291.153 C 157.874 292.453, 150.013 300.035, 150.004 305.750 L 150 308 171 308 C 187.138 308, 191.998 307.711, 191.991 306.750 C 191.985 306.063, 190.630 303.144, 188.978 300.264 C 184.443 292.357, 176.142 289.184, 165.138 291.153" stroke="none" fill="black" fill-rule="evenodd"/>
</svg>