<svg xmlns="http://www.w3.org/2000/svg" width="287" height="312" viewBox="0 0 287 312" version="1.1">
	<path d="M 244.500 7.666 C 196.875 13.487, 152.660 35.334, 121.181 68.598 C 113.267 76.961, 103.164 89.408, 98.126 97 L 95.804 100.500 83.652 100.590 C 72.671 100.671, 70.552 100.999, 61.667 103.994 C 51.128 107.546, 43.440 111.992, 35.595 119.073 C 21.279 131.994, 7.029 159.232, 7.008 173.715 C 6.995 182.029, 10.918 182.985, 24.137 177.887 C 28.577 176.175, 34.975 174.123, 38.355 173.328 C 44.801 171.812, 57.331 171.336, 60.907 172.470 C 63.319 173.236, 63.218 174.144, 59.415 185.819 C 57.245 192.480, 57.157 193.440, 58.442 196.515 L 59.853 199.893 56.177 201.058 C 37.684 206.916, 22.276 225.505, 16.438 249 C 13.725 259.916, 15.172 263.223, 21.827 261.324 C 23.847 260.747, 26.343 259.919, 27.374 259.483 C 29.152 258.732, 29.165 258.819, 27.631 261.159 C 24.115 266.526, 20.290 281.373, 19.383 293.181 C 18.522 304.386, 19.435 305.437, 29.441 304.763 C 37.573 304.214, 53.100 299.161, 59.896 294.851 C 62.349 293.295, 64.467 292.134, 64.603 292.270 C 64.740 292.406, 64.330 294.468, 63.694 296.853 C 62.648 300.770, 62.728 301.331, 64.518 302.672 C 70.700 307.303, 93.716 295.971, 105.963 282.268 C 111.346 276.244, 116.602 266.560, 117.591 260.844 C 118.747 254.155, 120.056 252, 122.965 252 C 126.466 252, 136.222 248.644, 140.617 245.928 L 144.032 243.817 146.168 248.646 C 149.146 255.380, 149.716 268.730, 147.528 280.500 C 144.531 296.617, 144.507 297.507, 146.999 299.999 C 149.966 302.966, 154.781 302.321, 163.777 297.750 C 173.726 292.696, 178.021 289.798, 186.420 282.473 C 206.011 265.387, 214.798 245.829, 214.266 220.500 C 214.173 216.100, 213.440 210.037, 212.637 207.026 L 211.177 201.553 220.839 191.514 C 241.325 170.226, 255.073 149.986, 263.979 128 C 265.204 124.975, 266.571 121.600, 267.017 120.500 C 278.069 93.240, 283.870 50.170, 279.448 28.208 C 276.732 14.717, 273.216 9.855, 264.883 8.068 C 260.144 7.052, 251.002 6.872, 244.500 7.666 M 240.500 16.683 C 235.845 17.279, 214.972 21.828, 210.428 23.237 C 208.189 23.932, 205.354 25.175, 204.128 26 L 201.898 27.500 205.132 34 C 211.282 46.361, 224.768 60.957, 238.535 70.153 C 250.730 78.299, 266.210 85.190, 268.090 83.310 C 269.638 81.762, 272 60.218, 272 47.645 C 272 30.275, 269.813 19.846, 265.523 16.765 C 264.495 16.027, 246.102 15.967, 240.500 16.683 M 193.554 29.727 C 192.484 29.999, 186.975 32.391, 181.313 35.042 C 146.867 51.167, 114.835 82.435, 94.277 120 C 86.360 134.468, 85.209 136.936, 80.208 150.165 C 72.255 171.204, 72.393 170.524, 75.313 174.288 C 82.915 184.082, 91.629 194.412, 92.500 194.665 C 93.050 194.824, 94.688 193.277, 96.140 191.227 C 100.087 185.654, 105.689 179.334, 113.500 171.644 C 126.068 159.270, 138.953 152.495, 145.089 155.037 C 149.521 156.873, 152.002 160.597, 151.985 165.385 C 151.970 169.333, 150.119 176.214, 148.685 177.648 C 148.308 178.025, 148 179.079, 148 179.991 C 148 182.957, 136.192 199.665, 127.918 208.405 C 123.476 213.097, 120.113 217.373, 120.442 217.907 C 121.236 219.191, 139.748 231.524, 143.197 233.067 C 145.631 234.155, 146.903 233.780, 156.197 229.230 C 180.967 217.105, 205.684 197.129, 226.207 172.649 C 238.144 158.411, 243.322 150.529, 251.599 134 C 257.342 122.531, 267 96.218, 267 92.042 C 267 90.767, 264.730 89.392, 258.750 87.046 C 233.504 77.143, 208.414 55.079, 198.146 33.750 C 196.889 31.137, 195.779 29.052, 195.680 29.116 C 195.581 29.180, 194.624 29.455, 193.554 29.727 M 176.176 70.070 C 165.140 72.242, 155.166 79.263, 148.458 89.582 C 143.537 97.150, 141.690 104.623, 142.184 114.958 C 142.554 122.707, 143.045 124.517, 146.877 132.252 C 150.138 138.834, 152.429 141.978, 156.502 145.457 C 162.569 150.641, 173.104 155.466, 180.509 156.453 C 192.749 158.086, 207.280 152.718, 216.517 143.153 C 225.445 133.906, 228 127.254, 228 113.260 C 228 101.433, 226.146 95.382, 220.041 87.284 C 214.572 80.029, 212.607 78.371, 204.478 74.157 C 195.345 69.422, 186.189 68.100, 176.176 70.070 M 176.874 75.902 C 170.548 77.971, 159.756 84.525, 157.140 87.887 C 150.709 96.151, 147.994 103.592, 148.015 112.899 C 148.049 128.574, 158.821 143.664, 173.164 148.128 C 190.346 153.476, 208.910 146.869, 216.890 132.567 C 221.030 125.147, 222.326 119.195, 221.796 110.039 C 220.966 95.704, 212.921 84.393, 199.256 78.350 C 193.068 75.613, 181.594 74.358, 176.874 75.902 M 174.159 83.910 C 167.445 86.228, 159.928 93.420, 156.914 100.408 C 154.112 106.903, 153.935 116.438, 156.476 123.994 C 159.119 131.857, 166.563 138.946, 174.793 141.437 C 186.034 144.841, 199.842 142.004, 207.031 134.815 C 212.870 128.977, 215.306 123.432, 215.802 114.851 C 216.224 107.564, 216.022 106.487, 213.129 100.611 C 205.632 85.382, 189.685 78.548, 174.159 83.910 M 176.139 89.140 C 155.703 97.078, 154.505 125.419, 174.176 135.591 C 178.976 138.073, 187.853 138.542, 193.643 136.618 C 204.484 133.018, 210 125.043, 210 112.971 C 210 98.655, 201.395 89.743, 185.500 87.598 C 182.757 87.227, 179.815 87.712, 176.139 89.140 M 70.955 109.875 C 55.318 113.602, 42.712 122.003, 32.818 135.293 C 26.090 144.331, 17.710 161.141, 16.663 167.701 L 15.992 171.901 19.246 170.546 C 21.036 169.801, 27 167.928, 32.500 166.384 C 40.909 164.025, 44.370 163.582, 54.255 163.602 L 66.010 163.625 66.857 160.556 C 68.124 155.968, 75.095 138.641, 76.114 137.550 C 76.601 137.027, 77 136.013, 77 135.295 C 77 133.760, 80.103 127.394, 85.872 117.093 C 88.153 113.020, 89.790 109.457, 89.509 109.176 C 88.195 107.862, 77.751 108.255, 70.955 109.875 M 134.500 165.858 C 125.992 169.909, 113.265 182.541, 100.402 199.702 C 99.249 201.241, 96.832 205.200, 95.033 208.500 C 93.233 211.800, 90.465 216.803, 88.883 219.618 C 85.547 225.549, 82.744 233, 83.849 233 C 86.943 233, 111.761 213.463, 120.154 204.420 C 131.863 191.805, 140.088 179.162, 142.460 170.132 C 144.568 162.109, 143.537 161.556, 134.500 165.858 M 68.613 187.237 C 67.726 189.983, 67 192.900, 67 193.718 C 67 194.537, 70.439 198.995, 74.643 203.625 L 82.286 212.044 84.470 208.772 C 88.477 202.771, 88.410 202.292, 82.715 196.174 C 79.811 193.053, 75.813 188.642, 73.830 186.372 L 70.225 182.243 68.613 187.237 M 55.822 210.383 C 49.577 212.951, 44.364 216.746, 38.978 222.643 C 35.058 226.935, 27.456 241.637, 26.435 246.900 C 25.845 249.941, 25.972 250.219, 27.638 249.534 C 28.662 249.113, 31.165 248.373, 33.201 247.890 C 39.833 246.316, 45.082 250.041, 41.621 253.866 C 40.730 254.851, 40 256.001, 40 256.421 C 40 256.841, 39.120 258.304, 38.044 259.671 C 33.776 265.098, 26.659 293.779, 28.958 296.291 C 29.965 297.391, 44.243 293.343, 51.610 289.869 C 55.406 288.079, 59.952 284.725, 63.610 281.014 C 72.819 271.676, 76.676 273.311, 75.756 286.163 C 75.487 289.924, 75.375 293, 75.506 293 C 75.638 293, 77.776 292.102, 80.257 291.005 C 92.178 285.731, 103.684 273.805, 108.013 262.236 C 110.798 254.793, 111.669 247.512, 110.015 245.518 C 108.395 243.566, 107 243.576, 107 245.540 C 107 250.826, 95.905 264.386, 89.051 267.477 C 83.673 269.902, 82 269.055, 82 263.909 C 82 259.788, 81.983 259.768, 79.750 261.380 C 71.128 267.602, 54.693 272.650, 51.550 270.041 C 48.225 267.282, 50.127 251.523, 54.916 242.155 L 57.137 237.811 54.091 238.480 C 50.304 239.312, 47 238.339, 47 236.393 C 47 231.250, 57.627 217.537, 64.395 213.946 C 68.197 211.930, 68.629 211.380, 67.649 209.810 C 66.141 207.395, 62.680 207.562, 55.822 210.383 M 199.438 211.113 C 198.372 212.315, 194.775 215.144, 191.445 217.400 C 173.052 229.855, 168.863 232.445, 161.296 236.040 C 156.733 238.208, 153 240.323, 153.001 240.741 C 153.001 241.158, 153.989 243.975, 155.197 247 C 157.026 251.582, 157.396 254.503, 157.408 264.500 C 157.417 271.506, 156.769 279.735, 155.852 284.273 L 154.281 292.046 156.390 291.393 C 168.299 287.711, 188.401 271.024, 195.855 258.632 C 203.309 246.242, 207.031 229.488, 205.323 216.014 C 204.406 208.783, 202.736 207.393, 199.438 211.113 M 69.254 217.750 C 64.357 220.416, 57.716 226.370, 55.648 229.948 L 53.797 233.153 58.206 232.492 C 65.275 231.432, 65.767 233.110, 61.169 242.600 C 56.704 251.817, 54.701 258.487, 55.167 262.581 C 55.459 265.143, 55.853 265.462, 58.388 265.191 C 63.526 264.640, 73.476 260.050, 78.461 255.931 C 84.828 250.670, 86.361 251.022, 87 257.894 L 87.500 263.272 91.703 259.182 C 96.505 254.511, 101.977 245.543, 101.991 242.323 C 101.996 241.125, 100.871 239.257, 99.490 238.171 L 96.981 236.197 91.307 239.099 C 82.721 243.490, 77.422 242.848, 75.053 237.129 C 74.029 234.655, 74.160 233.023, 75.874 226.967 L 77.916 219.753 75.708 217.910 C 72.974 215.628, 73.145 215.632, 69.254 217.750 M 108.035 226.624 C 106.320 228.067, 105.047 229.607, 105.208 230.046 C 105.803 231.669, 121.324 243, 122.954 243 C 125.142 243, 133.863 240.031, 134.446 239.088 C 135.159 237.933, 114.986 224, 112.601 224 C 111.805 224, 109.750 225.181, 108.035 226.624" stroke="none" fill="black" fill-rule="evenodd"/>
</svg>