<svg xmlns="http://www.w3.org/2000/svg" width="174" height="251" viewBox="0 0 174 251" version="1.1">
	<path d="M 82 4.555 C 73.126 6.461, 60.669 12.828, 53.808 18.965 C 50.677 21.766, 46.140 27.081, 43.725 30.778 C 39.436 37.344, 35 46.654, 35 49.089 C 35 49.760, 33.210 51.840, 31.023 53.712 C 26.038 57.979, 24.574 62.886, 25.314 72.845 C 25.959 81.514, 28.824 86.739, 34.378 89.375 C 36.560 90.411, 39.326 93.159, 41.534 96.486 C 43.514 99.468, 47.804 104.380, 51.067 107.401 C 54.715 110.779, 57 113.710, 57 115.013 C 57 116.178, 57.423 117.922, 57.940 118.887 C 58.694 120.296, 57.859 121.617, 53.715 125.571 C 50.875 128.282, 48.156 130.372, 47.673 130.216 C 44.839 129.299, 39.770 129.898, 38.179 131.338 C 37.169 132.252, 35.365 133, 34.171 133 C 31.713 133, 31.287 136.027, 32.936 141.777 C 33.698 144.432, 33.535 145.364, 32.063 146.771 C 27.184 151.435, 25.484 161.436, 28.389 168.389 C 30.153 172.610, 34.591 176.751, 38.202 177.544 C 40.300 178.005, 41 178.748, 41 180.514 C 41 181.810, 41.400 183.922, 41.889 185.208 C 42.715 187.381, 42.193 187.853, 34.470 191.899 L 26.161 196.251 22.989 193.992 C 18.841 191.039, 12.257 190.299, 8.307 192.341 C 4.013 194.562, 2.639 198.624, 3.255 207.271 C 4.028 218.129, 9.623 229.202, 16.002 232.501 C 21.392 235.288, 26.170 234.389, 47.300 226.608 C 52.689 224.624, 57.420 223, 57.812 223 C 58.204 223, 59.367 225.941, 60.397 229.535 C 63.558 240.576, 70.552 247.988, 77.815 247.996 C 81.846 248.001, 87.136 245.775, 103.833 237.050 C 134.790 220.873, 143.829 213.730, 147.309 202.689 C 148.805 197.943, 149.540 196.925, 151.799 196.471 C 157.163 195.395, 163.422 191.516, 165.465 188 C 167.183 185.046, 167.554 182.361, 167.845 170.786 C 168.295 152.920, 166.456 124.695, 164.461 118.841 C 162.241 112.324, 158.528 109.186, 151.289 107.709 L 145.249 106.477 149.234 101.989 C 151.427 99.520, 154.473 95.019, 156.005 91.986 C 158.195 87.651, 159.490 86.262, 162.064 85.486 C 166.355 84.193, 168.742 80.752, 170.031 74 C 172.171 62.793, 169.144 52.862, 162.709 49.981 C 159.424 48.510, 158.490 47.402, 157.116 43.343 C 154.738 36.319, 146.784 24.862, 140.192 18.965 C 133.170 12.684, 120.792 6.444, 111.500 4.499 C 102.841 2.688, 90.587 2.711, 82 4.555 M 92.500 6.666 C 76.413 8.510, 64.118 14.008, 54.275 23.760 C 42.701 35.226, 37 48.836, 37 65 C 37 86.679, 46.792 102.959, 65.763 112.820 C 92.295 126.611, 131.015 119.693, 146.874 98.329 C 152.466 90.796, 155.288 85.296, 153.978 84.487 C 151.860 83.177, 149.111 76.103, 148.450 70.260 C 147.585 62.617, 149.320 54.953, 152.672 51.601 C 154.525 49.748, 154.992 48.511, 154.484 46.802 C 153.407 43.181, 147.067 31.879, 143.787 27.734 C 139.840 22.747, 130.295 15.482, 123.760 12.492 C 114.782 8.383, 100.592 5.739, 92.500 6.666 M 80 27.809 C 70.251 30.447, 64.244 33.838, 57.281 40.634 C 49.989 47.750, 46.638 54.242, 44.838 64.741 C 42.428 78.793, 46.015 91.578, 54.957 100.810 C 60.756 106.796, 67.338 110.296, 78.007 113.064 C 85.217 114.935, 88.162 115.182, 97.500 114.699 C 130.289 113.003, 148.103 93.383, 143.074 64.506 C 140.208 48.046, 128.323 34.878, 111 28.967 C 102.140 25.945, 88.740 25.444, 80 27.809 M 83.035 31.934 C 79.465 38.606, 84.964 47, 92.904 47 C 96.483 47, 96.566 46.794, 94.351 43.413 C 93.149 41.579, 93.002 40.598, 93.806 39.794 C 94.610 38.990, 95.667 39.501, 97.704 41.680 C 99.242 43.325, 101.175 44.917, 102 45.218 C 103.234 45.669, 103.102 46.180, 101.258 48.097 C 99.458 49.968, 97.978 50.423, 93.758 50.402 C 90.778 50.388, 87.096 49.636, 85.260 48.668 C 81.026 46.435, 77.602 39.842, 78.334 35.332 C 78.848 32.160, 78.748 32.025, 76.314 32.636 C 67.758 34.783, 56.470 44.764, 51.500 54.577 C 48.659 60.186, 48.501 61.136, 48.514 72.500 C 48.529 86.317, 49.694 89.551, 57.754 98.168 C 65.878 106.853, 77.735 111.012, 94.299 110.985 C 110.262 110.960, 122.195 106.857, 130.519 98.534 C 138.722 90.330, 141.943 79.705, 139.980 67.323 C 136.417 44.849, 117.698 30, 92.930 30 C 85.194 30, 83.939 30.245, 83.035 31.934 M 155.535 54.374 C 152.430 57.479, 151.369 64.624, 152.782 72.910 C 154.061 80.409, 156.514 83.590, 160.286 82.643 C 164.705 81.534, 166.501 77.436, 166.488 68.500 C 166.471 58.169, 165.644 55.384, 162.035 53.518 C 158.280 51.576, 158.341 51.568, 155.535 54.374 M 31.012 58.474 C 29.104 60.788, 28.397 73.642, 29.924 78.270 C 30.548 80.160, 32.242 82.785, 33.689 84.103 C 36.051 86.254, 36.246 86.295, 35.594 84.500 C 34.784 82.267, 33.160 69.135, 32.760 61.585 C 32.522 57.078, 32.377 56.819, 31.012 58.474 M 109 76 C 107.900 77.100, 107 78.900, 107 80 C 107 82.509, 110.401 86, 112.845 86 C 117.626 86, 119.773 78.355, 115.777 75.557 C 112.840 73.499, 111.407 73.593, 109 76 M 66.625 76.517 C 64.062 79.081, 64.557 83.664, 67.615 85.667 C 69.936 87.188, 70.515 87.219, 72.761 85.941 C 76.032 84.078, 77.154 80.945, 75.641 77.895 C 74.165 74.917, 69.013 74.130, 66.625 76.517 M 83.180 91.225 C 83.908 96.291, 94.322 97.769, 98.668 93.423 C 102.267 89.824, 100.329 87.958, 96.178 91.026 C 92.918 93.437, 89.384 93.241, 86.641 90.498 C 84.461 88.318, 82.813 88.664, 83.180 91.225 M 138.433 111.937 C 136.109 114.188, 122.800 119.911, 116 121.584 C 100.487 125.401, 77.366 123.309, 64.927 116.963 C 61.466 115.197, 61 115.152, 61 116.578 C 61 121.834, 76.410 128.554, 91.051 129.683 C 109.874 131.135, 134.044 123.618, 138.546 114.911 C 140.176 111.759, 140.121 110.303, 138.433 111.937 M 142.975 113.565 C 141.620 117.130, 141.731 117.786, 143.886 118.939 C 147.304 120.768, 156.103 133.818, 159.253 141.730 C 161.825 148.190, 162.358 150.934, 162.410 158 C 162.465 165.288, 162.120 167.123, 159.987 170.868 C 158.619 173.271, 155.775 176.431, 153.667 177.892 C 149.957 180.462, 149.829 180.747, 149.667 186.819 C 149.502 193.030, 149.525 193.086, 152 192.512 C 162.628 190.044, 163.423 188.397, 163.827 168 C 164.212 148.561, 162.716 125.146, 160.729 119.500 C 158.879 114.246, 154.143 111, 148.327 111 C 144.549 111, 143.817 111.351, 142.975 113.565 M 136.500 122.649 C 131.474 126.634, 117.523 131.522, 106 133.334 C 104.179 133.621, 104.462 133.765, 107.044 133.864 C 108.993 133.939, 113.037 135.238, 116.031 136.750 C 121.254 139.389, 121.504 139.697, 122.169 144.348 C 122.550 147.014, 123.006 149.298, 123.181 149.424 C 123.356 149.550, 125.188 150.668, 127.250 151.908 C 130.656 153.956, 131.060 154.008, 131.647 152.476 C 132.004 151.548, 131.771 148.519, 131.130 145.745 C 130.490 142.971, 130.179 140.487, 130.440 140.227 C 131.885 138.781, 133.978 141.542, 135.042 146.298 L 136.257 151.725 140.498 151.247 C 145.219 150.715, 147.224 152.275, 144.022 153.988 C 142.066 155.035, 142.053 155.200, 143.663 158.288 C 144.626 160.136, 145.534 164.803, 145.799 169.276 C 146.236 176.642, 146.372 177.019, 148.380 176.414 C 151.484 175.479, 156.043 170.975, 157.623 167.282 C 162.004 157.043, 155.488 136.343, 144.234 124.750 C 140.184 120.578, 139.386 120.361, 136.500 122.649 M 57.077 127.589 C 55.385 129.013, 54 130.745, 54 131.437 C 54 132.130, 55.913 133.520, 58.250 134.527 C 60.587 135.533, 62.780 136.520, 63.123 136.719 C 63.465 136.919, 63.998 136.116, 64.307 134.936 C 65.054 132.077, 67.500 133.013, 67.500 136.157 C 67.500 137.518, 68.592 140.229, 69.927 142.181 L 72.354 145.731 76.927 142.826 C 82.021 139.589, 95.740 135.068, 101.052 134.875 C 102.948 134.806, 99.138 134.165, 92.584 133.452 C 78.406 131.908, 73.382 130.734, 66.911 127.455 C 60.920 124.419, 60.843 124.420, 57.077 127.589 M 41.581 133.869 C 41.283 134.350, 43.843 135.984, 47.270 137.500 C 50.696 139.015, 56.562 141.772, 60.305 143.627 C 68.273 147.576, 68.392 147.601, 67.017 145.031 C 64.630 140.571, 43.240 131.184, 41.581 133.869 M 36.389 139.762 C 36.687 141.268, 37.215 144.151, 37.562 146.168 C 38.039 148.945, 38.874 150.119, 40.997 150.999 C 49.511 154.525, 52.412 167.592, 46.180 174.347 C 44.610 176.049, 44.331 177.295, 44.847 180.294 C 45.500 184.087, 45.507 184.092, 58.371 189.468 L 71.243 194.848 70.710 191.174 C 70.417 189.153, 69.201 180.075, 68.008 171 C 66.815 161.925, 65.632 153.450, 65.379 152.166 C 64.908 149.774, 60.990 147.648, 43.173 140.120 L 35.846 137.024 36.389 139.762 M 96.500 139.636 C 90.019 140.999, 76.189 146.546, 77.101 147.416 C 77.875 148.155, 112.885 139.624, 112.387 138.817 C 111.634 137.599, 104.411 137.971, 96.500 139.636 M 107.500 144.618 C 104.750 145.371, 97.612 147.092, 91.637 148.440 C 85.662 149.789, 80.568 151.099, 80.316 151.351 C 79.836 151.831, 85.766 196.099, 86.394 196.728 C 86.593 196.927, 90.748 196.154, 95.628 195.011 C 100.508 193.868, 108.325 192.155, 113 191.205 C 120.968 189.586, 121.519 189.310, 121.811 186.796 C 122.086 184.420, 121.706 184.036, 118.489 183.432 C 109.135 181.677, 103.354 171.017, 107.456 163.085 C 108.989 160.121, 114.350 157, 117.910 157 C 119.878 157, 119.978 156.619, 119.425 151.250 C 119.100 148.088, 118.660 144.938, 118.448 144.250 C 117.969 142.697, 114.027 142.830, 107.500 144.618 M 32.159 152.551 C 30.478 156.240, 30.738 164.384, 32.666 168.426 C 36.028 175.475, 44.171 174.936, 45.552 167.573 C 46.760 161.135, 42.703 154, 37.834 154 C 36.888 154, 35.484 153.102, 34.715 152.004 C 33.344 150.047, 33.295 150.057, 32.159 152.551 M 69.376 153.789 C 69.643 154.730, 70.374 159.775, 71 165 C 71.625 170.225, 72.579 177.425, 73.120 181 C 73.660 184.575, 74.365 189.300, 74.686 191.500 C 75.411 196.467, 76.575 198, 79.622 198 C 82.650 198, 82.648 197.623, 79.551 176.333 C 78.205 167.075, 76.967 157.925, 76.801 156 C 76.518 152.710, 76.272 152.487, 72.695 152.289 C 69.530 152.114, 68.972 152.367, 69.376 153.789 M 123.755 157.500 C 124.071 159.151, 123.769 160.039, 122.867 160.115 C 122.115 160.179, 121.050 160.335, 120.500 160.463 C 119.950 160.591, 118.467 160.764, 117.205 160.848 C 115.942 160.931, 113.805 162.105, 112.455 163.455 C 108.954 166.955, 109.137 172.003, 112.918 176.234 L 115.836 179.500 127.983 179.563 C 139.170 179.621, 140.215 179.467, 141.208 177.612 C 142.642 174.932, 142.579 166.283, 141.092 161.778 C 139.341 156.473, 137.964 155.663, 132.977 157.006 C 129.493 157.944, 128.515 157.871, 127.072 156.565 C 124.542 154.275, 123.211 154.651, 123.755 157.500 M 142.463 183.060 C 142.046 183.735, 139.850 183.875, 136.422 183.447 C 127.969 182.391, 126.173 183.205, 125.807 188.255 L 125.500 192.500 112.265 195.155 C 100.687 197.477, 98.617 198.199, 95.731 200.921 L 92.433 204.032 97.992 209.766 C 103.293 215.234, 105.940 220.827, 107.228 229.286 C 107.456 230.784, 109.323 230.024, 118.812 224.571 C 137.253 213.973, 142.072 209.058, 144.613 198.260 C 146.477 190.339, 146.450 182, 144.559 182 C 143.766 182, 142.823 182.477, 142.463 183.060 M 42.750 191.733 C 38.312 193.554, 38.090 194.813, 41.632 198.076 C 45.514 201.651, 48.979 209.710, 48.990 215.191 C 49.002 220.729, 49.890 221.521, 54.411 220.029 C 57.206 219.107, 57.974 218.195, 58.896 214.708 C 59.508 212.394, 60.569 209.786, 61.254 208.913 C 64.590 204.665, 72.190 203.746, 78.042 206.882 L 81.554 208.765 86.527 204.237 C 89.262 201.746, 90.600 200.036, 89.500 200.437 C 88.400 200.837, 85.163 201.413, 82.306 201.716 C 78.020 202.172, 76.272 201.829, 72.306 199.758 C 64.937 195.910, 50.186 189.988, 48.238 190.097 C 47.282 190.151, 44.813 190.887, 42.750 191.733 M 8.543 196.952 C 7.104 198.543, 6.849 200.255, 7.170 206.202 C 7.623 214.592, 11.010 223.073, 15.611 227.341 C 19.528 230.972, 25.049 230.783, 36.500 226.624 L 45.500 223.356 45.407 217.428 C 45.297 210.434, 41.839 202.726, 36.977 198.634 C 33.556 195.755, 31.037 196.193, 28.988 200.023 C 27.670 202.486, 25.519 202.559, 23.807 200.200 C 20.008 194.966, 11.901 193.241, 8.543 196.952 M 85.735 209.750 C 84.335 211.305, 84.321 211.884, 85.613 214.943 C 87.084 218.430, 86.793 221.443, 85.043 220.833 C 84.517 220.650, 83.021 218.475, 81.717 216 C 78.957 210.759, 76.134 209.035, 70.273 209.015 C 66.808 209.003, 65.737 209.472, 64.331 211.618 C 60.494 217.474, 63.668 233.464, 69.986 240.106 C 75.721 246.134, 77.606 246.115, 90.224 239.894 C 96.241 236.927, 101.667 233.896, 102.280 233.159 C 105.248 229.592, 100.584 216.476, 94.425 211.068 C 90.460 207.587, 88.016 207.216, 85.735 209.750" stroke="none" fill="black" fill-rule="evenodd"/>
</svg>