<svg xmlns="http://www.w3.org/2000/svg" width="155" height="257" viewBox="0 0 155 257" version="1.1">
	<path d="M 62.589 4.578 C 42.654 9.044, 26.660 21.936, 17.840 40.647 C 15.728 45.128, 14 49.236, 14 49.776 C 14 50.316, 12.633 51.324, 10.962 52.016 C 9.173 52.757, 6.871 55.071, 5.363 57.644 C 3.038 61.610, 2.834 62.830, 3.151 70.833 C 3.577 81.596, 5.908 85.845, 13.080 88.936 C 16.710 90.500, 18.416 92.134, 21.306 96.817 C 23.311 100.066, 26.802 104.395, 29.063 106.438 C 32.932 109.934, 33.066 110.234, 31.337 111.544 C 30.327 112.310, 29.199 112.951, 28.832 112.968 C 28.464 112.986, 27.192 114.571, 26.005 116.492 C 24.503 118.923, 23.670 122.321, 23.265 127.677 C 22.772 134.196, 22.029 136.599, 18.393 143.435 C 16.034 147.871, 12.962 154.875, 11.567 159 C 10.173 163.125, 8.245 167.076, 7.284 167.779 C 5.990 168.728, 5.488 170.669, 5.347 175.279 C 5.242 178.701, 4.671 183.072, 4.078 184.993 C 2.335 190.639, 2.805 196.216, 5.474 201.573 C 9.753 210.160, 17.555 212.599, 23.077 207.077 C 24.685 205.469, 26 203.444, 26 202.577 C 26 201.710, 26.527 201, 27.171 201 C 27.815 201, 29.105 200.310, 30.036 199.467 C 31.610 198.043, 31.812 198.559, 32.878 206.717 C 33.509 211.548, 34.876 219.550, 35.915 224.500 L 37.806 233.500 34.036 236.723 C 26.740 242.959, 26.197 249.906, 32.786 252.716 C 39.843 255.726, 62.614 254.286, 68.656 250.447 C 69.971 249.611, 71.053 247.601, 71.432 245.289 C 72.076 241.365, 74.967 210.839, 74.988 207.750 C 74.996 206.581, 75.784 206, 77.361 206 C 80.064 206, 80.062 205.990, 82.437 231.148 C 83.198 239.204, 84.324 246.737, 84.940 247.887 C 87.190 252.093, 91.618 253.323, 106 253.739 C 117.609 254.075, 119.980 253.876, 122.925 252.315 C 124.809 251.317, 126.788 249.782, 127.322 248.905 C 128.980 246.184, 127.037 241.683, 122.298 237.265 C 117.764 233.039, 117.757 233.022, 118.808 228.765 C 119.388 226.419, 120.653 218.591, 121.621 211.369 C 123.118 200.199, 123.587 198.444, 124.762 199.619 C 125.521 200.378, 126.702 201, 127.386 201 C 128.070 201, 129.386 202.585, 130.309 204.523 C 133.458 211.125, 141.517 211.592, 146.882 205.482 C 151.200 200.563, 152.538 194.905, 151.014 188 C 150.347 184.975, 149.580 179.364, 149.310 175.531 C 148.944 170.345, 148.359 168.239, 147.024 167.304 C 146.036 166.612, 144.926 164.799, 144.557 163.273 C 143.450 158.707, 139.354 148.936, 135.538 141.762 C 132.980 136.954, 131.688 132.928, 131.026 127.706 C 129.799 118.028, 128.870 115.863, 124.342 112.131 L 120.532 108.990 123.125 106.585 C 127.212 102.795, 132.586 95.824, 134.369 92 C 135.530 89.510, 137.228 87.986, 140.250 86.718 C 142.588 85.738, 145.312 83.821, 146.304 82.458 C 150.267 77.016, 150.616 61.186, 146.907 55.088 C 145.901 53.434, 143.261 51.153, 141.039 50.020 C 138.818 48.887, 137 47.328, 137 46.557 C 137 45.786, 135.122 41.492, 132.826 37.015 C 122.704 17.274, 101.998 4.325, 79.093 3.412 C 72.761 3.159, 67.151 3.556, 62.589 4.578 M 61 8.894 C 54.241 10.739, 45.310 14.886, 41 18.181 C 35.346 22.504, 27.294 31.199, 24.178 36.346 C 19.728 43.699, 16 57.531, 16 66.691 C 16 81.511, 22.972 96.237, 34.500 105.766 C 41.747 111.757, 46.169 114.082, 56.012 117.076 C 65.771 120.044, 85.031 120.306, 95 117.606 C 111.695 113.084, 124.955 102.620, 131.526 88.782 C 136.179 78.986, 138.039 66.091, 136.131 56.856 C 131.245 33.200, 114.956 15.422, 92.205 8.916 C 83.623 6.461, 69.948 6.452, 61 8.894 M 61.651 26.511 C 49.686 29.798, 37.606 38.327, 31.730 47.636 C 20.860 64.854, 23.733 88.663, 38.297 102.058 C 47.179 110.228, 62.246 114.482, 79.500 113.691 C 108.697 112.352, 126.207 97.770, 127.760 73.500 C 129.158 51.663, 114.303 32.481, 91.369 26.508 C 84.295 24.665, 68.363 24.667, 61.651 26.511 M 69.250 28.640 C 65.870 29.390, 66.157 35.025, 69.782 39.083 C 71.927 41.483, 73.646 42.318, 77.282 42.728 C 82.147 43.277, 83.285 42.312, 80.500 40 C 78.680 38.490, 78.522 35.984, 80.250 36.042 C 80.938 36.065, 83.223 37.606, 85.330 39.466 L 89.159 42.850 86.543 44.564 C 82.849 46.984, 74.381 46.942, 70.229 44.482 C 66.842 42.475, 63 35.965, 63 32.232 C 63 30.181, 62.829 30.147, 58.698 31.390 C 53.928 32.826, 45.049 38.309, 40.634 42.546 C 30.797 51.986, 26.525 67.036, 29.929 80.266 C 35.014 100.036, 50.944 110.311, 76.500 110.303 C 99.567 110.297, 117.493 99.547, 122.489 82.725 C 125.597 72.258, 123.301 56.371, 117.461 47.944 C 112.426 40.678, 102.015 33.467, 92.119 30.389 C 87.256 28.877, 73.074 27.792, 69.250 28.640 M 139.500 65.224 C 139.500 71.426, 139.094 78.288, 138.597 80.474 L 137.693 84.447 140.097 82.890 C 143.972 80.377, 145.997 75.268, 145.997 68 C 145.997 61.069, 143.696 54.728, 141 54.227 C 139.739 53.992, 139.500 55.744, 139.500 65.224 M 10.056 57.440 C 4.062 63.820, 6.005 81.256, 13.135 85.072 C 15.140 86.146, 15.226 86.041, 14.530 83.358 C 12.933 77.197, 12.092 67.205, 12.670 61.250 C 13.003 57.813, 13.067 55, 12.812 55 C 12.557 55, 11.317 56.098, 10.056 57.440 M 94.657 69.055 C 91.627 71.439, 91.321 73.586, 93.557 76.777 C 96.595 81.116, 104 78.415, 104 72.969 C 104 68.327, 98.508 66.026, 94.657 69.055 M 51.061 69.939 C 48.593 72.407, 48.489 73.825, 50.557 76.777 C 52.789 79.965, 57.454 79.764, 59.667 76.385 C 61.202 74.042, 61.227 73.495, 59.909 71.135 C 58.001 67.719, 53.843 67.157, 51.061 69.939 M 67.537 82.940 C 66.630 84.408, 71.002 87.910, 74.578 88.581 C 78.169 89.254, 84.475 86.811, 85.406 84.385 C 86.244 82.201, 83.411 81.599, 80.824 83.411 C 77.963 85.415, 73.625 85.458, 72 83.500 C 70.594 81.806, 68.407 81.532, 67.537 82.940 M 107.905 116.640 C 99.002 121.125, 89.314 123, 75.046 123 C 65.382 123, 61.638 122.541, 54.540 120.483 C 49.763 119.099, 44.088 117.065, 41.928 115.963 C 37.418 113.662, 36.936 114.582, 40.458 118.768 C 46.127 125.505, 66.316 130.802, 81.500 129.537 C 90.567 128.782, 99.576 126.694, 105.596 123.955 C 110.544 121.703, 116 116.796, 116 114.599 C 116 112.592, 115.881 112.622, 107.905 116.640 M 119.239 116.374 C 118.248 118.551, 118.601 119.297, 122.682 123.650 L 127.230 128.500 126.587 124 C 125.966 119.650, 123.456 114.985, 121.361 114.287 C 120.802 114.101, 119.847 115.040, 119.239 116.374 M 29.624 118.035 C 27.695 120.327, 27.006 122.259, 27.023 125.327 L 27.046 129.500 31.515 124.816 C 35.230 120.923, 35.843 119.750, 35.147 117.868 C 33.907 114.517, 32.550 114.558, 29.624 118.035 M 114.136 123.337 C 112.230 125.633, 101.870 129.844, 94.112 131.476 C 76.541 135.173, 51.838 131.985, 41.583 124.699 L 38.667 122.627 33.733 127.992 C 28.068 134.153, 25.244 138.410, 20.334 148.194 C 16.993 154.852, 12.541 166.890, 13.191 167.509 C 13.361 167.671, 17.421 169.127, 22.212 170.744 L 30.925 173.683 31.507 169.092 C 32.581 160.615, 36.177 145.522, 37.688 143.143 C 40.494 138.727, 41.099 142.301, 38.942 150.558 C 35.422 164.038, 34.163 178.662, 35.208 193.937 C 36.058 206.356, 38.027 218.360, 39.448 219.782 C 40.436 220.770, 56.552 221.281, 63.445 220.543 C 70.678 219.768, 70.333 220.191, 71.412 210.782 L 71.953 206.064 67.055 204.609 C 60.531 202.672, 58 201.234, 58 199.465 C 58 197.623, 58.309 197.646, 65 200 C 72.390 202.600, 82.342 202.580, 90.148 199.950 C 93.495 198.823, 96.462 198.128, 96.740 198.407 C 98.150 199.817, 95.541 201.989, 90.323 203.748 L 84.500 205.710 84.730 212.502 C 84.856 216.237, 85.230 219.565, 85.560 219.896 C 86.546 220.887, 108.177 221.186, 112.500 220.269 L 116.500 219.420 117.712 212.460 C 118.378 208.632, 119.221 198.075, 119.584 189 C 120.277 171.697, 119.079 160.353, 115.278 148.237 C 114.082 144.426, 113.928 142.672, 114.721 141.879 C 115.513 141.087, 116.114 141.344, 116.899 142.811 C 118.490 145.784, 120.907 155.497, 122.047 163.500 C 123.628 174.595, 123.164 174.121, 129.778 171.400 C 132.925 170.106, 136.959 168.762, 138.742 168.414 C 142.545 167.671, 142.490 166.927, 137.788 155.500 C 132.775 143.316, 124.624 130.584, 117.761 124.217 C 115.689 122.294, 115.116 122.155, 114.136 123.337 M 58 141.291 C 54.535 143.039, 53.122 147.961, 53.060 158.500 C 53.018 165.725, 53.392 168.130, 54.956 170.696 C 57.484 174.842, 59.752 175.225, 79.387 174.823 L 95.178 174.500 97.589 171.694 C 99.806 169.115, 100 168.042, 100 158.395 C 100 146.724, 98.667 142.584, 94.387 140.957 C 90.545 139.496, 61.020 139.767, 58 141.291 M 63.263 143.722 C 58.155 144.357, 57 147.004, 57 158.068 C 57 171.512, 56.922 171.455, 75.333 171.480 C 91.425 171.502, 94.572 170.923, 95.577 167.758 C 96.455 164.992, 96.446 149.982, 95.565 147.205 C 95.209 146.084, 93.520 144.680, 91.810 144.084 C 88.893 143.067, 70.419 142.833, 63.263 143.722 M 83.571 147.571 C 81.758 149.385, 81.550 152.291, 83.035 155.066 C 84.498 157.800, 89.445 157.630, 91.443 154.777 C 93.501 151.840, 93.407 150.407, 91 148 C 88.598 145.598, 85.712 145.431, 83.571 147.571 M 85.598 149.736 C 84.281 151.052, 85.117 153, 87 153 C 88.100 153, 89 152.373, 89 151.607 C 89 150.099, 86.571 148.762, 85.598 149.736 M 83.571 160.571 C 80.338 163.805, 82.789 169, 87.548 169 C 89.011 169, 90.596 168.020, 91.592 166.500 C 93.109 164.184, 93.109 163.816, 91.592 161.500 C 89.709 158.626, 85.952 158.191, 83.571 160.571 M 86.409 163.376 C 85.562 165.584, 86.689 166.711, 88.217 165.183 C 89.119 164.281, 89.122 163.722, 88.233 162.833 C 87.343 161.943, 86.909 162.072, 86.409 163.376 M 139.488 172.017 C 137.282 172.455, 132.875 173.965, 129.694 175.372 L 123.912 177.929 125.567 181.129 C 126.833 183.577, 127.066 185.699, 126.561 190.164 C 125.972 195.371, 126.096 196, 127.710 196 C 128.705 196, 130.081 195.100, 130.768 194 C 133.058 190.333, 134.049 191.732, 133.353 197.650 C 132.788 202.462, 132.963 203.500, 134.536 204.650 C 137.472 206.797, 140.611 206.235, 143.865 202.982 C 147.967 198.879, 148.817 192.923, 146.515 184.417 C 145.436 180.431, 145.026 176.673, 145.434 174.499 C 146.155 170.656, 146.212 170.680, 139.488 172.017 M 9.367 175.891 C 9.766 178.389, 9.454 181.063, 8.494 183.359 C 4.453 193.031, 8.812 206, 16.103 206 C 21.466 206, 22.820 202.673, 20.477 195.250 C 19.559 192.342, 21.960 192.193, 24.500 195 C 27.394 198.197, 28 197.412, 28 190.465 C 28 186.021, 28.539 183.107, 29.685 181.358 C 31.286 178.914, 31.274 178.730, 29.435 177.643 C 25.947 175.583, 14.674 172, 11.677 172 C 8.829 172, 8.762 172.113, 9.367 175.891 M 63.500 224.154 C 60.750 224.659, 54.337 224.804, 49.250 224.476 C 38.848 223.805, 38.939 223.728, 41.197 231.265 C 42.320 235.013, 42.243 235.382, 39.947 237.188 C 30.635 244.515, 29.686 247.135, 35.468 249.551 C 41.459 252.054, 64.138 250.472, 66.967 247.354 C 67.393 246.884, 68.249 241.871, 68.871 236.214 C 70.205 224.065, 70.237 222.963, 69.250 223.118 C 68.838 223.182, 66.250 223.649, 63.500 224.154 M 110.500 224.230 C 107.750 224.702, 101.044 224.837, 95.599 224.529 L 85.697 223.970 86.359 234.071 C 86.723 239.626, 87.452 244.976, 87.978 245.959 C 91.142 251.871, 122.956 252.352, 123.783 246.500 C 124.079 244.401, 120.221 239.616, 116.054 236.914 C 113.654 235.357, 113.632 235.221, 114.893 229.586 C 115.600 226.429, 116.026 223.738, 115.839 223.608 C 115.653 223.478, 113.250 223.757, 110.500 224.230" stroke="none" fill="black" fill-rule="evenodd"/>
</svg>