<svg xmlns="http://www.w3.org/2000/svg" width="198" height="254" viewBox="0 0 198 254" version="1.1">
	<path d="M 61.225 4.458 C 50.156 6.974, 40.789 12.250, 32.196 20.806 C 23.784 29.181, 19.199 36.718, 16.409 46.754 C 15.169 51.213, 14.197 53, 13.010 53 C 11.153 53, 7.918 56.210, 5.958 59.996 C 4.084 63.617, 4.389 75.652, 6.484 80.769 C 8.536 85.779, 12.215 89, 15.887 89 C 17.984 89, 18.998 89.932, 20.994 93.695 C 22.364 96.277, 25.556 100.411, 28.088 102.882 L 32.691 107.374 28.956 110.937 C 24.860 114.845, 23.014 119.855, 23.006 127.090 C 23.001 130.600, 21.851 133.937, 18.112 141.280 C 15.423 146.561, 12.318 153.563, 11.211 156.842 C 10.104 160.120, 8.229 163.771, 7.046 164.954 C 5.269 166.731, 5.001 167.839, 5.507 171.303 C 5.904 174.015, 5.569 177.048, 4.561 179.876 C 2.366 186.029, 2.575 193.490, 5.087 198.680 C 7.941 204.575, 11.281 207, 16.546 207 C 20.093 207, 21.263 206.476, 23.411 203.923 C 24.835 202.231, 26 200.206, 26 199.423 C 26 198.640, 26.527 198, 27.171 198 C 27.815 198, 29.165 197.255, 30.171 196.345 C 31.903 194.778, 32.001 194.844, 32.010 197.595 C 32.018 200.022, 36.202 226.303, 37.089 229.500 C 37.242 230.050, 35.259 232.645, 32.683 235.268 C 29.218 238.795, 28 240.811, 28 243.018 C 28 246.806, 30.877 249.699, 35.509 250.568 C 40.733 251.548, 60.821 250.415, 65.389 248.883 C 70.418 247.197, 71.565 244.351, 72.394 231.500 C 72.748 226, 73.535 217.338, 74.143 212.250 C 75.174 203.607, 75.397 203, 77.530 203 C 80.180 203, 80.251 203.355, 82.440 227.780 C 83.352 237.959, 84.330 243.855, 85.369 245.441 C 87.921 249.335, 93.144 250.500, 108.044 250.500 C 124.446 250.500, 127 249.484, 127 242.960 C 127 239.535, 126.362 238.355, 122.524 234.678 L 118.049 230.390 119.019 224.445 C 122.010 206.111, 123 198.831, 123 195.161 C 123 192.096, 123.716 190.246, 125.853 187.785 C 131.208 181.620, 131.384 180.784, 131.444 161.183 L 131.500 142.867 141.500 139.082 C 147 137.001, 153.270 134.343, 155.434 133.176 C 157.746 131.929, 160.284 131.284, 161.588 131.612 C 163.206 132.018, 164.883 131.197, 167.775 128.584 C 170.886 125.774, 172.580 124.999, 175.621 124.994 C 181.345 124.986, 186.349 123.321, 188.940 120.564 C 191.871 117.444, 192.650 110.842, 190.737 105.331 C 189.303 101.201, 189.316 101.142, 192.145 99.051 C 194.273 97.478, 195 96.107, 195 93.670 C 195 87.254, 191.260 86.522, 179.176 90.574 C 174.954 91.989, 169.195 94.464, 166.378 96.074 C 162.755 98.144, 159.909 99, 156.651 99 C 152.900 99, 151.756 99.443, 150.482 101.388 C 149.298 103.194, 146.893 104.283, 140.592 105.863 C 129.431 108.662, 121.463 109.559, 120.571 108.115 C 120.181 107.484, 122.051 104.460, 124.821 101.244 C 127.542 98.085, 131.216 92.687, 132.986 89.248 C 135.360 84.637, 137.109 82.568, 139.652 81.361 C 145.334 78.665, 147.304 73.491, 146.824 62.524 C 146.382 52.404, 144.491 48.290, 139.276 46.097 C 137.213 45.229, 135.502 42.842, 132.617 36.809 C 126.004 22.981, 112.751 11.360, 97.336 5.874 C 89.662 3.143, 70.340 2.386, 61.225 4.458 M 65.500 7.531 C 61.650 8.253, 56.609 9.527, 54.298 10.361 C 44.556 13.876, 33.140 23.419, 26.672 33.452 C 20.910 42.390, 17.167 54, 20.046 54 C 20.621 54, 22.192 56.362, 23.536 59.250 C 26.824 66.313, 27.028 78.612, 23.951 84.352 L 21.903 88.174 25.057 93.089 C 34.620 107.992, 53.578 116.965, 75.500 116.965 C 110.444 116.965, 134.970 94.915, 134.970 63.500 C 134.970 35.965, 115.579 12.650, 88.345 7.439 C 79.462 5.739, 74.944 5.758, 65.500 7.531 M 67.645 26.584 C 59.427 28.573, 48.924 34.358, 43.074 40.116 C 40.054 43.089, 36.615 48.023, 34.303 52.700 C 30.625 60.141, 30.500 60.742, 30.500 70.947 C 30.500 80.695, 30.737 81.996, 33.610 88 C 40.684 102.786, 53.966 110.673, 73.568 111.727 C 95.747 112.920, 113.166 105.756, 122.585 91.569 C 129.454 81.224, 130.369 63.020, 124.646 50.552 C 115.871 31.432, 90.933 20.947, 67.645 26.584 M 72.750 29.559 C 70.845 31.526, 72.107 36.307, 75.400 39.600 C 78.161 42.361, 79.571 43, 82.900 43 C 87.540 43, 87.622 42.879, 85.351 39.413 C 84.203 37.661, 84.020 36.580, 84.749 35.851 C 85.478 35.122, 87.059 36.030, 89.956 38.841 L 94.116 42.878 91.808 44.320 C 82.950 49.854, 69.920 44.316, 68.430 34.385 L 67.786 30.089 62.898 31.947 C 54.981 34.955, 49.596 38.568, 44.155 44.521 C 36.666 52.715, 34.787 57.473, 34.239 69.632 C 33.814 79.045, 33.976 80.197, 36.520 85.866 C 39.508 92.523, 46.139 99.502, 52.608 102.797 C 75.023 114.214, 107.483 108.056, 118.825 90.234 C 129.674 73.186, 125.345 49.368, 109.244 37.520 C 101.741 31.998, 94.908 29.806, 83.500 29.262 C 78 28.999, 73.162 29.133, 72.750 29.559 M 138.554 59.250 C 138.881 64.338, 138.723 70.638, 138.203 73.250 C 137.198 78.303, 137.728 79.078, 140.252 76.250 C 144.097 71.942, 144.649 61.146, 141.428 53.250 C 138.966 47.215, 137.921 49.397, 138.554 59.250 M 12.053 57.947 C 4.510 65.490, 9.747 89.417, 17.977 85.012 C 21.148 83.315, 22.380 79.950, 22.374 73 C 22.363 59.872, 17.386 52.614, 12.053 57.947 M 101.243 65.106 C 98.748 66.029, 97.237 70.567, 98.670 72.838 C 102.767 79.334, 111.400 74.563, 108.212 67.565 C 106.998 64.902, 104.335 63.962, 101.243 65.106 M 58.571 69.571 C 56.061 72.081, 56.582 76.680, 59.601 78.658 C 62.603 80.625, 64.635 79.825, 66.941 75.766 C 68.219 73.516, 68.188 72.937, 66.667 70.615 C 64.710 67.628, 60.994 67.149, 58.571 69.571 M 75.073 81.412 C 73.230 83.633, 78.307 87, 83.500 87 C 87.987 87, 93 84.059, 93 81.427 C 93 79.437, 91.264 79.648, 88.273 82 C 85.050 84.535, 81.956 84.540, 78.745 82.014 C 76.626 80.347, 76.037 80.251, 75.073 81.412 M 180.500 93.913 C 177.750 94.925, 172.138 97.384, 168.028 99.377 C 163.919 101.369, 159.081 103, 157.278 103 C 154.242 103, 154.002 103.240, 154.021 106.250 C 154.048 110.398, 158.166 122.124, 160.748 125.406 L 162.727 127.922 166.043 124.961 C 168.021 123.196, 170.475 122, 172.121 122 C 173.640 122, 175.122 121.612, 175.415 121.138 C 176.347 119.629, 172.788 112.068, 170.857 111.455 C 168.587 110.734, 168.422 108.436, 170.582 107.607 C 171.452 107.273, 173.702 107, 175.582 107 C 180.200 107, 180.130 104.370, 175.460 102.419 C 173.438 101.574, 172.202 100.482, 172.578 99.874 C 173.235 98.810, 178.144 99.097, 181.023 100.367 C 182.966 101.225, 192 95.592, 192 93.522 C 192 91.417, 186.800 91.594, 180.500 93.913 M 183 105.056 C 183 106.187, 181.605 108.387, 179.900 109.944 L 176.800 112.776 178.514 116.388 C 180.471 120.513, 182.953 121.047, 186 118 C 188.465 115.535, 188.710 108.459, 186.443 105.223 C 184.495 102.441, 183 102.368, 183 105.056 M 140 109.598 C 134.775 110.863, 128.083 112.205, 125.129 112.579 C 121.580 113.029, 119.204 113.937, 118.129 115.252 C 109.878 125.338, 96.309 130, 75.202 130 C 62.466 130, 51.482 127.592, 43.390 123.025 L 38.133 120.058 33.493 125.219 C 27.330 132.073, 20.016 144.625, 15.956 155.312 C 14.143 160.086, 12.848 164.169, 13.080 164.386 C 13.311 164.602, 17.416 166.138, 22.202 167.799 L 30.905 170.819 31.509 166.159 C 32.351 159.662, 35.697 143.928, 36.919 140.712 C 37.606 138.907, 38.434 138.229, 39.468 138.626 C 41.254 139.311, 41.387 140.409, 39.998 143.005 C 37.580 147.522, 34.886 165.847, 34.779 178.500 C 34.668 191.595, 37.301 214.546, 39.135 216.483 C 40.408 217.827, 67.589 217.801, 68.941 216.455 C 69.518 215.881, 70.104 212.535, 70.245 209.022 L 70.500 202.633 66.365 201.413 C 60.497 199.682, 58 198.171, 58 196.348 C 58 194.660, 58.510 194.731, 65.500 197.390 C 71.297 199.596, 83.797 199.440, 90.515 197.079 C 93.817 195.919, 96.216 195.540, 96.576 196.123 C 97.659 197.875, 95.047 199.723, 89.154 201.377 L 83.343 203.007 84.245 209.744 C 84.742 213.450, 85.377 216.711, 85.657 216.991 C 86.443 217.778, 111.172 217.592, 114.064 216.778 C 116.429 216.111, 116.726 215.373, 117.882 207.278 C 118.571 202.450, 119.391 192.378, 119.702 184.895 C 120.280 171.038, 118.970 158.982, 115.394 145.256 C 113.783 139.071, 114.757 136.388, 117.297 140.014 C 118.566 141.825, 119.395 142.075, 122.163 141.479 C 128.758 140.061, 143.632 134.702, 150.336 131.328 C 155.845 128.556, 157.025 127.560, 156.416 126.194 C 156.001 125.262, 154.398 120.900, 152.853 116.500 C 151.309 112.100, 149.922 108.230, 149.772 107.899 C 149.623 107.569, 145.225 108.333, 140 109.598 M 108 113.705 C 99.475 117.908, 91.529 119.918, 80.500 120.661 C 67.415 121.542, 56.307 119.319, 39.750 112.506 C 37.063 111.400, 37.622 113.739, 40.750 116.689 C 49.772 125.196, 72.558 129.174, 90.746 125.417 C 103.695 122.743, 115.869 115.882, 114.841 111.839 C 114.588 110.847, 112.816 111.331, 108 113.705 M 31.144 113.327 C 29.335 115.507, 27 121.760, 27 124.425 C 27 126.732, 27.332 126.560, 31.522 122.080 C 35.567 117.756, 35.939 116.969, 35.047 114.623 C 33.940 111.712, 32.798 111.333, 31.144 113.327 M 58.384 138.434 C 54.264 140.228, 53 144.136, 53 155.084 C 53 171.251, 54.564 172.377, 76.786 172.197 C 98.810 172.020, 99.961 171.152, 99.985 154.700 C 100.002 143.804, 98.789 140.136, 94.528 138.195 C 90.735 136.466, 62.475 136.654, 58.384 138.434 M 62.646 140.975 C 60.526 141.384, 58.395 142.345, 57.911 143.110 C 57.427 143.874, 57.024 149.282, 57.015 155.128 C 57.003 163.827, 57.301 166.004, 58.661 167.128 C 60.985 169.048, 92.093 168.998, 94.416 167.070 C 95.682 166.019, 95.997 163.619, 95.985 155.128 C 95.976 149.282, 95.555 143.845, 95.049 143.045 C 93.499 140.594, 71.793 139.207, 62.646 140.975 M 83.655 144.829 C 79.216 149.734, 84.107 156.128, 89.843 152.920 C 93.296 150.988, 93.721 147.749, 90.869 145.092 C 88.104 142.516, 85.823 142.433, 83.655 144.829 M 123.250 145.175 C 119.512 146.190, 119.534 146.061, 121.438 156.014 C 122.229 160.146, 123.204 168.246, 123.606 174.014 L 124.336 184.500 126.142 180.500 C 127.632 177.200, 127.952 173.754, 127.974 160.809 C 127.988 152.179, 127.662 144.933, 127.250 144.706 C 126.838 144.479, 125.037 144.690, 123.250 145.175 M 85.694 147.639 C 84.761 148.573, 85.888 150, 87.559 150 C 88.352 150, 89 149.325, 89 148.500 C 89 146.994, 86.889 146.444, 85.694 147.639 M 82.950 158.093 C 80.336 162.979, 85.021 167.664, 89.907 165.050 C 92.251 163.795, 92.777 159.177, 90.800 157.200 C 88.823 155.223, 84.205 155.749, 82.950 158.093 M 85.446 160.087 C 84.416 161.755, 86.733 163.667, 88.113 162.287 C 89.267 161.133, 88.545 159, 87 159 C 86.515 159, 85.816 159.489, 85.446 160.087 M 9.653 168.680 C 9.408 168.926, 9.432 170.801, 9.707 172.849 C 10.006 175.085, 9.566 178.103, 8.603 180.408 C 7.721 182.518, 7 186.874, 7 190.087 C 7 195.180, 7.393 196.378, 10.062 199.417 C 13.876 203.762, 16.405 204.620, 19.473 202.610 C 22.682 200.507, 23.480 197.523, 21.564 194.788 C 18.308 190.139, 21.409 187.893, 25.069 192.250 C 27.635 195.304, 28.836 193.352, 28.236 187.104 C 27.927 183.885, 28.305 181.310, 29.399 179.195 C 30.963 176.172, 30.940 176.008, 28.760 174.602 C 24.239 171.688, 10.808 167.525, 9.653 168.680 M 40.504 227 L 41.080 233.500 37.066 236.222 C 32.822 239.100, 31.011 243.104, 32.917 245.400 C 35.584 248.613, 60.322 247.984, 65.533 244.571 C 67.564 243.240, 67.877 241.980, 68.520 232.550 C 68.915 226.756, 69.072 221.762, 68.869 221.452 C 68.666 221.141, 62.071 220.800, 54.214 220.694 L 39.928 220.500 40.504 227 M 86.370 230.187 C 86.718 235.515, 87.414 240.959, 87.918 242.284 C 89.135 245.486, 94.942 247.050, 106.500 247.289 C 117.052 247.508, 122.572 246.559, 123.407 244.383 C 124.265 242.146, 121.427 237.850, 117.306 235.149 C 114.009 232.987, 113.815 232.577, 114.477 229.164 C 114.868 227.149, 115.406 224.375, 115.671 223 L 116.155 220.500 100.947 220.500 L 85.739 220.500 86.370 230.187" stroke="none" fill="black" fill-rule="evenodd"/>
</svg>