<svg xmlns="http://www.w3.org/2000/svg" width="190" height="257" viewBox="0 0 190 257" version="1.1">
	<path d="M 69.500 3.094 C 65.650 3.420, 60.475 4.249, 58 4.936 C 40.047 9.919, 21.624 27.820, 16.032 45.714 C 14.833 49.551, 13.505 51.533, 11.005 53.217 C 5.498 56.929, 3.554 61.285, 3.525 69.977 C 3.486 81.588, 6.950 88.102, 14.199 90.054 C 17.070 90.827, 18.691 92.138, 20.676 95.292 C 22.132 97.607, 26.002 102.126, 29.275 105.336 L 35.226 111.171 32.174 114.336 C 28.229 118.426, 27.005 121.826, 26.800 129.261 C 26.659 134.377, 25.822 136.922, 21.342 145.861 C 18.431 151.668, 15.511 158.825, 14.853 161.766 C 14.124 165.022, 12.941 167.496, 11.828 168.092 C 10.419 168.846, 9.998 170.264, 9.989 174.285 C 9.983 177.153, 9.308 181.709, 8.489 184.409 C 7.670 187.109, 7.003 190.484, 7.006 191.909 C 7.022 199.681, 12.267 207.943, 18.489 209.996 C 22.924 211.460, 27.611 209.176, 29.513 204.624 C 30.258 202.841, 31.981 200.874, 33.341 200.254 C 36.205 198.949, 36.420 199.428, 37.488 209.500 C 37.838 212.800, 39.015 219.584, 40.105 224.576 L 42.085 233.652 37.542 238.194 C 33.895 241.842, 33 243.422, 33 246.213 C 33 248.347, 33.727 250.348, 34.881 251.393 C 40.514 256.490, 73.244 254.018, 75.427 248.330 C 75.746 247.497, 76.457 241.570, 77.005 235.158 C 77.971 223.874, 78.362 220.099, 79.570 210.440 C 80.068 206.463, 80.419 205.919, 82.320 206.190 C 84.404 206.486, 84.577 207.356, 86.252 226 C 87.216 236.725, 88.455 246.536, 89.005 247.802 C 90.627 251.537, 96.317 253.224, 109.136 253.770 C 126.930 254.527, 132 252.764, 132 245.816 C 132 243.312, 130.951 241.621, 127.089 237.899 L 122.178 233.165 124.035 223.578 C 125.056 218.305, 126.320 209.364, 126.844 203.710 C 127.713 194.329, 128.057 193.151, 130.772 190.244 C 135.202 185.501, 136.179 179.889, 135.901 160.780 L 135.657 144.021 141.917 139.975 C 145.360 137.750, 152.262 131.895, 157.254 126.964 C 162.245 122.034, 166.921 118, 167.644 118 C 168.368 118, 169.870 116.216, 170.982 114.035 C 172.095 111.854, 175.541 107.242, 178.640 103.785 C 185.173 96.498, 187.210 92.299, 187.307 85.915 C 187.495 73.568, 174.649 66.115, 165.018 72.983 C 162.570 74.729, 160.206 75.472, 157.058 75.483 C 153.312 75.497, 152.362 75.909, 151.249 78 C 150.480 79.443, 150.097 82.323, 150.343 84.811 C 150.747 88.907, 150.575 89.243, 146.884 91.573 C 144.702 92.951, 143 94.819, 143 95.838 C 143 98.071, 140.478 100.421, 131.687 106.381 C 120.831 113.741, 118.671 111.913, 126.750 102.203 C 129.363 99.063, 132.850 93.908, 134.500 90.749 C 136.265 87.370, 138.165 85.004, 139.115 85.002 C 141.422 84.999, 145.781 81.325, 147.560 77.884 C 149.706 73.735, 150.469 63.392, 149.024 58.060 C 147.785 53.489, 142.356 47, 139.771 47 C 138.985 47, 137.273 44.638, 135.967 41.750 C 123.569 14.344, 99.806 0.524, 69.500 3.094 M 67.500 6.631 C 46.885 9.825, 30.653 22.483, 21.350 42.617 C 18.250 49.327, 17.789 51.408, 17.308 60.846 C 16.653 73.723, 17.927 81.387, 22.099 89.657 C 30.069 105.457, 47.445 116.583, 67.685 118.848 C 95.751 121.988, 119.736 110.694, 130.835 89.113 C 146.485 58.685, 128.939 19.401, 95.021 8.925 C 88.620 6.948, 73.556 5.692, 67.500 6.631 M 60.781 26.392 C 47.437 30.341, 35.516 40.161, 29.696 52 C 26.619 58.259, 26.500 58.964, 26.500 71 C 26.500 83.054, 26.613 83.723, 29.669 89.761 C 35.981 102.228, 46.573 109.347, 63.591 112.556 C 89.554 117.453, 115.897 106.750, 124.571 87.782 C 127.197 82.037, 127.446 80.512, 127.472 69.950 C 127.499 58.624, 127.428 58.255, 123.804 50.919 C 115.181 33.468, 98.682 23.925, 77.356 24.054 C 71.182 24.091, 66.162 24.799, 60.781 26.392 M 70 27.820 C 65.763 28.643, 64.885 31.774, 67.518 36.664 C 69.664 40.648, 73.685 42.433, 79.807 42.118 C 81.987 42.006, 82.028 41.879, 80.557 39.777 C 79.701 38.555, 79 36.980, 79 36.277 C 79 34.493, 81.662 34.676, 82.365 36.509 C 82.683 37.338, 84.081 38.536, 85.472 39.169 C 88.820 40.694, 88.668 42.603, 85.050 44.474 C 77.914 48.164, 67.110 44.654, 63.909 37.606 C 62.883 35.348, 62.034 32.682, 62.022 31.683 C 62.005 30.272, 61.496 30.013, 59.750 30.525 C 53.402 32.387, 47.822 36.034, 41.500 42.454 C 32.191 51.906, 29.479 58.531, 29.548 71.649 C 29.593 80.133, 29.865 81.343, 33.289 88.271 C 37.018 95.815, 42.590 101.316, 50.500 105.260 C 55.521 107.764, 67.455 110.001, 75.697 109.983 C 101.986 109.924, 121.130 96.766, 123.874 76.869 C 126.823 55.484, 115.367 37.179, 94.552 30.018 C 88.288 27.863, 75.621 26.729, 70 27.820 M 139.500 65.957 C 139.500 80.492, 139.554 80.876, 141.424 79.634 C 146.284 76.407, 147.577 59.928, 143.408 54.345 C 142.292 52.850, 140.956 51.486, 140.439 51.314 C 139.882 51.129, 139.500 57.078, 139.500 65.957 M 11.656 57.133 C 5.168 60.904, 5.870 81.248, 12.642 85.685 C 13.973 86.557, 15.253 87.080, 15.487 86.847 C 15.720 86.613, 15.218 82.165, 14.371 76.961 C 13.523 71.757, 13.010 64.912, 13.229 61.750 C 13.448 58.587, 13.599 56.014, 13.564 56.030 C 13.529 56.047, 12.670 56.543, 11.656 57.133 M 94.655 67.829 C 92.469 70.244, 92.552 74.284, 94.829 76.345 C 98.662 79.814, 104 77.333, 104 72.084 C 104 66.831, 98.021 64.109, 94.655 67.829 M 51.655 69.829 C 49.719 71.968, 49.484 76.084, 51.200 77.800 C 51.860 78.460, 53.795 79, 55.500 79 C 59.468 79, 61 77.422, 61 73.335 C 61 68.282, 55.069 66.056, 51.655 69.829 M 166.542 76.549 C 164.500 78.442, 163.961 79.663, 164.448 81.299 C 166.143 86.987, 166.223 90.700, 164.663 91.299 C 163.101 91.898, 162.831 91.421, 161.615 85.912 C 161.301 84.489, 160.088 82.110, 158.920 80.625 C 155.748 76.593, 154 78.658, 154 86.437 C 154 92.562, 153.960 92.648, 150.403 94.345 C 146.290 96.306, 146.232 96.141, 153.943 104.352 C 157.899 108.563, 164.952 114, 166.460 114 C 166.735 114, 167.898 112.161, 169.045 109.912 C 170.192 107.664, 172.693 104.452, 174.603 102.775 C 181.290 96.904, 185.022 87.834, 182.978 82.424 C 179.884 74.238, 172.055 71.439, 166.542 76.549 M 68.399 82.164 C 67.133 84.212, 72.702 88, 76.979 88 C 80.733 88, 87 84.192, 87 81.911 C 87 80.412, 83.790 80.880, 81.816 82.667 C 80.803 83.583, 78.636 84.333, 77 84.333 C 75.364 84.333, 73.197 83.583, 72.184 82.667 C 70.003 80.693, 69.360 80.608, 68.399 82.164 M 139.761 105.075 C 137.155 107.309, 131.985 110.720, 128.272 112.655 C 124.560 114.590, 119.384 118.174, 116.770 120.618 C 114.156 123.063, 109.876 125.995, 107.259 127.134 C 100.645 130.012, 85.791 132.971, 77.881 132.987 C 68.106 133.006, 54.421 130.315, 47.569 127.027 C 40.651 123.706, 40.980 123.579, 34.400 132.131 C 27.154 141.546, 18.811 158.498, 17.816 165.823 C 17.530 167.929, 18.314 168.409, 26.181 170.946 L 34.862 173.744 35.958 166.622 C 37.267 158.112, 39.425 148.543, 40.889 144.750 C 42.213 141.320, 45.558 140.868, 44.588 144.250 C 40.456 158.666, 39.044 168.003, 39.029 181 C 39.019 189.729, 41.353 214.236, 42.570 218.175 C 42.953 219.416, 44.797 220.033, 49.688 220.557 C 57.321 221.374, 72.799 220.610, 74.027 219.355 C 74.487 218.885, 75.173 215.720, 75.553 212.321 L 76.242 206.142 72.029 205.008 C 65.776 203.324, 63 201.853, 63 200.223 C 63 199.207, 63.680 198.943, 65.250 199.349 C 78.099 202.672, 80.654 202.973, 87.401 201.966 C 91.196 201.399, 95.570 200.186, 97.120 199.270 C 98.670 198.354, 100.274 197.941, 100.684 198.351 C 102.223 199.890, 99.108 202.538, 93.577 204.392 L 87.855 206.309 88.500 211.405 C 89.540 219.626, 89.678 219.829, 94.706 220.583 C 100.402 221.437, 118.903 220.497, 120.108 219.292 C 122.324 217.076, 123.457 205.387, 123.478 184.500 C 123.496 166.230, 123.183 161.263, 121.631 155.203 C 120.603 151.189, 119.928 147.802, 120.131 147.676 C 120.334 147.549, 124.370 145.523, 129.101 143.172 C 138.344 138.580, 150.799 129.197, 157.954 121.434 L 162.383 116.629 159.442 114.575 C 157.824 113.446, 153.896 109.929, 150.714 106.761 C 147.532 103.592, 144.832 101.003, 144.714 101.006 C 144.596 101.010, 142.368 102.841, 139.761 105.075 M 116.450 111.929 C 114.989 113.357, 106.022 117.678, 101 119.373 C 84.232 125.033, 58.985 123.732, 44.972 116.485 C 41.424 114.651, 41 114.641, 41 116.396 C 41 119.121, 47.989 123.939, 55.253 126.222 C 64.903 129.255, 88.080 129.478, 97.470 126.628 C 108.462 123.292, 114.746 119.276, 117.621 113.750 C 119.014 111.073, 118.362 110.059, 116.450 111.929 M 33.566 117.927 C 31.956 119.706, 30.080 125.537, 30.024 128.937 C 29.997 130.553, 35.523 125.697, 37.171 122.657 C 38.239 120.687, 37.510 116, 36.136 116 C 35.682 116, 34.525 116.867, 33.566 117.927 M 74 139.933 C 68.225 140.245, 62.507 141.068, 61.294 141.762 C 58.348 143.446, 57.012 148.755, 57.006 158.800 C 56.999 168.562, 58.507 172.284, 63.119 173.892 C 68.144 175.643, 95.447 175.338, 99.020 173.490 C 103.375 171.238, 104 169.184, 104 157.122 C 104 147.143, 103.789 145.867, 101.750 143.503 C 99.341 140.712, 93.697 138.948, 88 139.207 C 86.075 139.295, 79.775 139.621, 74 139.933 M 63.720 145.005 C 61.073 147.088, 61 147.422, 61 157.501 C 61 169.623, 61.457 170.405, 69.128 171.423 C 76.283 172.372, 96.569 171.035, 98.704 169.475 C 100.150 168.417, 100.406 166.539, 100.333 157.519 C 100.216 143.039, 100.923 143.583, 81.687 143.183 C 67.365 142.885, 66.276 142.995, 63.720 145.005 M 87.655 147.829 C 86.745 148.835, 86 150.609, 86 151.772 C 86 153.913, 89.379 157, 91.723 157 C 93.480 157, 97 153.332, 97 151.500 C 97 149.410, 93.376 146, 91.155 146 C 90.140 146, 88.565 146.823, 87.655 147.829 M 127.500 148.216 C 125.850 148.798, 124.378 149.372, 124.228 149.492 C 124.078 149.613, 124.636 152.588, 125.468 156.105 C 126.299 159.622, 127.278 168.239, 127.644 175.252 C 128.248 186.853, 128.441 187.815, 129.777 185.908 C 130.602 184.730, 131.521 180.234, 131.873 175.655 C 132.635 165.742, 132.203 146.970, 131.215 147.079 C 130.822 147.122, 129.150 147.634, 127.500 148.216 M 89.694 150.639 C 88.761 151.573, 89.888 153, 91.559 153 C 92.352 153, 93 152.325, 93 151.500 C 93 149.994, 90.889 149.444, 89.694 150.639 M 88.991 159.311 C 83.049 162.258, 87.561 170.888, 93.604 168.135 C 95.644 167.205, 96.066 166.388, 95.813 163.856 C 95.392 159.642, 92.375 157.632, 88.991 159.311 M 90.639 162.694 C 89.513 163.820, 89.954 165, 91.500 165 C 92.325 165, 93 164.577, 93 164.059 C 93 162.798, 91.438 161.895, 90.639 162.694 M 13.885 173.118 C 13.822 173.878, 13.860 175.350, 13.971 176.390 C 14.082 177.429, 13.394 181.285, 12.441 184.958 C 11.390 189.011, 10.964 192.984, 11.357 195.068 C 12.768 202.535, 18.409 207.957, 23.189 206.440 C 25.817 205.606, 27.196 201.645, 25.975 198.435 C 23.933 193.064, 26.244 190.723, 29.197 195.171 C 31.580 198.759, 33.334 196.577, 32.588 190.955 C 32.121 187.432, 32.412 185.203, 33.690 182.524 C 35.716 178.276, 35.672 178.226, 27 174.899 C 19.595 172.058, 14.036 171.303, 13.885 173.118 M 44.470 226.933 C 46.332 237.579, 46.375 236.907, 43.770 237.898 C 40.604 239.101, 35.815 244.799, 36.216 246.883 C 36.770 249.759, 43.661 251.226, 54 250.670 C 65.702 250.040, 70.819 248.618, 71.914 245.690 C 72.364 244.485, 73.047 238.979, 73.432 233.453 L 74.132 223.406 66.071 224.344 C 60.992 224.936, 55.392 224.928, 50.929 224.324 L 43.846 223.366 44.470 226.933 M 90.495 224.008 C 89.926 224.928, 91.745 245.779, 92.501 247.001 C 94.275 249.872, 116.493 252.063, 123.750 250.083 C 127.456 249.071, 128 248.566, 128 246.136 C 128 243.263, 125.019 239.716, 120.787 237.552 C 118.349 236.306, 118.331 236.191, 119.349 228.461 L 120.013 223.423 111.016 224.312 C 105.499 224.858, 99.876 224.833, 96.478 224.247 C 93.431 223.722, 90.738 223.615, 90.495 224.008" stroke="none" fill="black" fill-rule="evenodd"/>
</svg>