<svg xmlns="http://www.w3.org/2000/svg" width="220" height="265" viewBox="0 0 220 265" version="1.1">
	<path d="M 93.202 5.022 C 82.253 7.890, 74.506 12.427, 65.969 20.966 C 57.876 29.063, 52.949 37.414, 50.759 46.750 C 50.081 49.637, 49.019 52, 48.398 52 C 47.778 52, 46.073 52.942, 44.610 54.092 C 34.476 62.064, 39.230 87.997, 50.827 88.001 C 52.973 88.002, 54.029 88.939, 56.179 92.751 C 57.653 95.363, 60.803 99.486, 63.179 101.912 L 67.500 106.325 60.500 102.584 C 52.543 98.332, 47.512 94.190, 46.524 91.076 C 46.152 89.903, 44.246 88.169, 42.288 87.222 C 39.319 85.786, 38.688 84.919, 38.487 82 C 37.924 73.823, 33.666 70.023, 28.707 73.272 C 26.607 74.649, 26.202 74.570, 23.531 72.273 C 21.073 70.159, 19.898 69.851, 15.784 70.247 C 10.308 70.773, 6.576 73.543, 4.371 78.718 C 1.121 86.345, 3.899 94.196, 12.423 101.478 C 15.554 104.153, 19.258 108.290, 20.653 110.671 C 22.326 113.525, 23.883 115, 25.223 115 C 26.351 115, 30.297 117.868, 34.077 121.434 C 37.829 124.973, 45.196 130.682, 50.449 134.122 C 59.052 139.754, 60.002 140.679, 60.023 143.438 C 60.077 150.804, 62.043 171.299, 63.117 175.692 C 64.869 182.861, 66.625 185.723, 71.079 188.671 C 74.520 190.948, 75.058 191.779, 74.801 194.417 L 74.500 197.500 63.326 198 C 50.405 198.578, 48.845 199.452, 44.846 208.348 C 41.703 215.343, 41.484 229.821, 44.449 234.721 C 48.294 241.078, 56.466 240.898, 61.874 234.337 L 64.835 230.744 71.774 232.445 C 79.967 234.452, 89.853 234.734, 95.657 233.125 C 100.659 231.739, 108.841 224.653, 112.346 218.673 C 113.730 216.310, 115.682 211.574, 116.682 208.148 C 118.492 201.947, 118.516 201.920, 121.973 202.209 C 125.083 202.470, 125.651 202.998, 127.420 207.279 L 129.394 212.057 121.176 220.187 C 116.656 224.659, 112.672 229.457, 112.323 230.850 C 109.955 240.286, 125.543 262, 134.686 262 C 140.601 262, 144.400 256.044, 143.880 247.584 C 143.608 243.167, 143.620 243.150, 150.054 238.815 C 159.296 232.588, 161.702 230.250, 165.815 223.501 C 169.375 217.659, 169.469 217.248, 169.376 208 C 169.306 201.106, 168.586 196.031, 166.749 189.500 C 165.229 184.091, 163.957 176.311, 163.562 170 C 163.200 164.225, 162.006 155.057, 160.908 149.627 C 159.810 144.197, 159.044 139.663, 159.206 139.551 C 159.368 139.439, 161.750 137.813, 164.500 135.938 C 175.834 128.210, 192.625 111.286, 196.817 103.365 C 197.439 102.191, 199.067 100.949, 200.436 100.605 C 202.255 100.149, 203.247 98.907, 204.119 95.998 C 204.775 93.807, 207.286 89.703, 209.698 86.877 C 212.110 84.051, 214.740 80.470, 215.542 78.919 C 217.453 75.223, 217.405 66.683, 215.451 62.906 C 211.864 55.969, 200.976 53.625, 195.141 58.535 C 192.873 60.443, 191.480 60.908, 189.509 60.413 C 185.135 59.315, 182 63.134, 182 69.559 C 182 73.992, 181.632 75.011, 179.539 76.382 C 178.182 77.272, 176.613 79.677, 176.040 81.747 C 175.016 85.449, 174.317 86.161, 162.508 95.537 L 157.516 99.500 160.323 96.096 C 161.867 94.224, 164.681 89.611, 166.577 85.846 C 168.474 82.081, 170.616 79, 171.338 79 C 173.245 79, 176.667 75.040, 178.452 70.768 C 182.569 60.915, 178.120 45.502, 170.615 43.618 C 169.009 43.215, 167.689 41.681, 166.593 38.942 C 161.652 26.592, 148.837 13.439, 136.500 8.056 C 124.220 2.698, 106.746 1.474, 93.202 5.022 M 101.992 6.936 C 89.627 8.617, 77.213 14.785, 68.303 23.674 C 61.736 30.227, 58.052 36.448, 54.903 46.304 C 52.991 52.289, 52.991 52.362, 54.939 54.435 C 60.114 59.944, 62.042 75.146, 58.548 82.894 C 56.801 86.768, 56.806 86.812, 59.489 91.391 C 63.366 98.006, 70.190 103.568, 80.500 108.514 C 91.205 113.649, 97.139 115.006, 108.799 114.983 C 126.187 114.948, 142.706 108.893, 152.881 98.825 C 159.468 92.306, 165.496 80.377, 166.942 71 C 171.159 43.635, 153.437 15.972, 127 8.655 C 120.018 6.722, 109.088 5.971, 101.992 6.936 M 100.191 26.025 C 90.353 28.602, 84.176 32.144, 76.997 39.323 C 63.916 52.404, 60.395 70.562, 67.851 86.494 C 72.763 96.992, 80.100 103.143, 93 107.581 C 101.016 110.339, 121.093 110.182, 129.564 107.297 C 150.811 100.058, 161 87.159, 161 67.500 C 161 50.041, 152.096 36.425, 135.908 29.130 C 123.731 23.642, 112.885 22.700, 100.191 26.025 M 104.118 28.906 C 102.100 30.184, 103.492 36.174, 106.453 38.956 C 107.955 40.367, 110.609 41.427, 113.438 41.746 C 118.496 42.316, 118.732 42.046, 116.351 38.413 C 115.203 36.661, 115.020 35.580, 115.749 34.851 C 116.478 34.122, 118.060 35.031, 120.959 37.845 L 125.123 41.885 121.811 43.618 C 117.458 45.897, 110.279 45.869, 106.365 43.557 C 102.990 41.563, 100.009 37.259, 99.985 34.346 C 99.950 30.115, 98.602 29.759, 92.625 32.402 C 84.631 35.938, 75.810 44.658, 71.487 53.299 C 68.336 59.598, 68 61.076, 68 68.654 C 68 87.101, 78.050 99.998, 96 104.587 C 100.928 105.847, 105.281 106.133, 114 105.768 C 124.028 105.349, 126.474 104.881, 133.112 102.108 C 146.520 96.507, 154.048 88.080, 156.607 75.810 C 159.080 63.949, 155.794 50.729, 148.282 42.317 C 143.927 37.439, 135.460 32.223, 128.319 30.017 C 121.479 27.904, 106.766 27.229, 104.118 28.906 M 170.500 60.941 C 170.500 75.656, 171.074 77.187, 174.248 70.940 C 177.146 65.240, 176.313 54.180, 172.640 49.573 L 170.500 46.889 170.500 60.941 M 46.560 57.350 C 43.609 60.300, 42.549 65.346, 43.318 72.790 C 44.286 82.169, 50.080 86.888, 54.552 81.940 C 57.208 79.002, 57.313 65.095, 54.716 60.280 C 52.037 55.313, 49.506 54.403, 46.560 57.350 M 198.819 60.536 C 195.626 62.269, 194.490 65.179, 195.945 67.896 C 196.525 68.981, 197 71.056, 197 72.508 C 197 76.502, 194.072 75.270, 192.471 70.603 C 190.915 66.067, 188.656 63.476, 187.096 64.441 C 186.493 64.813, 186.004 67.679, 186.009 70.809 C 186.017 75.980, 185.731 76.736, 182.876 79.083 L 179.733 81.666 183.210 85.083 C 188.152 89.939, 191.946 92.857, 196.178 95.056 L 199.856 96.967 201.063 93.234 C 201.726 91.180, 204.392 87.236, 206.985 84.468 C 215.119 75.788, 215.989 67.832, 209.434 62.076 C 205.594 58.705, 202.909 58.315, 198.819 60.536 M 129.635 65.073 C 128.186 66.212, 127 67.787, 127 68.573 C 127 70.471, 130.629 70.410, 131.362 68.500 C 131.678 67.675, 133.090 67, 134.500 67 C 135.910 67, 137.322 67.675, 137.638 68.500 C 138.350 70.353, 141 70.491, 141 68.674 C 141 66.688, 136.659 63, 134.320 63 C 133.193 63, 131.084 63.933, 129.635 65.073 M 88.635 68.073 C 85.811 70.294, 85.120 73, 87.378 73 C 88.135 73, 89.315 72.325, 90 71.500 C 90.685 70.675, 92.267 70, 93.515 70 C 94.764 70, 96.045 70.675, 96.362 71.500 C 97.200 73.684, 100 73.343, 100 71.057 C 100 68.747, 96.422 66, 93.412 66 C 92.234 66, 90.084 66.933, 88.635 68.073 M 11.656 75.133 C 9.465 76.406, 7 81.899, 7 85.508 C 7 89.788, 10.833 95.924, 15.611 99.291 C 18.093 101.041, 21.430 104.444, 23.026 106.853 L 25.927 111.233 33.964 103.336 C 43.016 94.440, 43.781 92.220, 38.635 89.766 C 35.590 88.314, 35.223 87.673, 34.776 83.022 C 33.897 73.872, 30.186 73.889, 27.987 83.053 C 26.675 88.522, 26.069 89.279, 24.017 88.010 C 22.834 87.279, 22.834 86.534, 24.017 82.949 C 25.373 78.839, 25.342 78.691, 22.646 76.372 C 19.694 73.833, 14.835 73.285, 11.656 75.133 M 119 78.500 C 117.502 80.305, 111.728 80.471, 109.032 78.788 C 106.637 77.292, 105.198 78.498, 106.633 80.798 C 107.958 82.920, 113.877 84.499, 117.293 83.641 C 120.324 82.881, 123 80.436, 123 78.429 C 123 76.554, 120.579 76.597, 119 78.500 M 176.235 88.544 C 175.150 90.483, 161.185 102.187, 157.024 104.645 C 155.315 105.654, 153.652 107.609, 153.328 108.990 C 149.752 124.197, 113.441 132.636, 86.412 124.542 C 80.019 122.628, 75.190 119.405, 72.309 115.130 C 70.881 113.012, 67.421 110.453, 62.757 108.069 C 58.735 106.012, 53.207 102.742, 50.472 100.802 L 45.500 97.275 38.250 104.700 C 34.262 108.783, 31 112.293, 31 112.499 C 31 112.705, 33.587 115.407, 36.750 118.503 C 44.412 126.006, 60.322 136.557, 69.154 139.994 C 73.080 141.521, 76.626 143.385, 77.033 144.136 C 79.745 149.135, 80.726 174.440, 78.908 192.503 C 77.593 205.568, 76.621 208.760, 74.493 206.994 C 73.565 206.224, 73.241 204.888, 73.618 203.386 C 74.552 199.663, 72.108 200.498, 70.449 204.468 C 67.808 210.789, 69.492 224.679, 73.394 228.766 C 74.059 229.462, 78.205 230.310, 82.606 230.649 C 89.508 231.181, 91.290 230.965, 95.555 229.080 C 104.396 225.170, 109.438 218.611, 113.525 205.704 L 115.806 198.500 122.299 197.843 C 125.871 197.481, 130.921 196.244, 133.523 195.093 C 143.255 190.788, 143.765 193.850, 134.113 198.627 C 130.638 200.347, 128.224 202.020, 128.749 202.345 C 129.274 202.669, 130.509 205.045, 131.494 207.624 C 132.891 211.282, 133.034 212.716, 132.143 214.143 C 131.514 215.150, 131 216.889, 131 218.009 C 131 221.096, 138.545 228.630, 144.606 231.596 C 150.690 234.572, 151.256 234.413, 157.902 227.856 C 166.271 219.598, 167.917 209.121, 163.399 192.861 C 161.656 186.586, 160.517 179.187, 159.945 170.418 C 159.382 161.797, 158.084 153.273, 156.136 145.418 C 154.511 138.863, 153.028 132.881, 152.841 132.125 C 152.173 129.432, 154.993 129.893, 156.188 132.671 C 156.857 134.227, 157.504 135.653, 157.625 135.839 C 157.908 136.275, 168.082 128.815, 174.337 123.585 C 179.334 119.407, 191.872 105.120, 193.825 101.379 C 194.831 99.452, 194.200 98.696, 186.930 93.129 C 182.528 89.758, 178.516 87, 178.013 87 C 177.511 87, 176.711 87.695, 176.235 88.544 M 141.211 111.569 C 130.384 116.627, 122.384 118.264, 108.500 118.261 C 95.958 118.259, 86.410 116.274, 77.750 111.867 C 73.575 109.743, 73.018 110.482, 75.969 114.233 C 78.541 117.504, 87.245 121.574, 94.553 122.925 C 115.651 126.825, 144.372 120.257, 148.810 110.517 C 150.234 107.392, 150.119 107.408, 141.211 111.569 M 117.388 134.473 C 99.197 136.439, 98.412 137.202, 99.485 151.887 C 100.293 162.935, 102.092 167.734, 105.774 168.658 C 108.985 169.464, 133.261 168.306, 138.255 167.109 C 144.058 165.717, 145.927 162.733, 145.967 154.799 C 146.008 146.533, 144.408 138.726, 142.086 135.858 C 139.821 133.060, 133.661 132.715, 117.388 134.473 M 116 138.088 C 105.386 139.312, 104.042 139.760, 103.036 142.406 C 101.769 145.739, 104.172 163.845, 106.050 165.115 C 107.432 166.050, 117.090 165.762, 131.931 164.343 C 136.904 163.868, 138.916 163.175, 140.803 161.288 C 143.091 159, 143.200 158.406, 142.546 151.772 C 142.163 147.881, 141.320 143.077, 140.673 141.098 L 139.497 137.500 131.498 137.361 C 127.099 137.285, 120.125 137.612, 116 138.088 M 130.099 140.643 C 126.574 143.112, 128.047 150, 132.101 150 C 135.965 150, 138 148.124, 138 144.563 C 138 141.746, 137.526 141.030, 135.099 140.184 C 132.884 139.412, 131.702 139.521, 130.099 140.643 M 64.464 154.802 C 65.440 172.562, 67.197 179.830, 71.531 184.030 C 73.422 185.863, 75.256 187.078, 75.605 186.728 C 76.771 185.562, 76.080 155.640, 74.772 150.639 C 73.586 146.109, 73.169 145.653, 68.633 143.941 L 63.765 142.104 64.464 154.802 M 131.543 143.931 C 130.803 145.128, 132.684 146.313, 134.016 145.490 C 135.135 144.799, 134.400 143, 133 143 C 132.515 143, 131.859 143.419, 131.543 143.931 M 132.250 152.063 C 130.611 152.698, 130 153.750, 130 155.933 C 130 159.791, 133.111 161.726, 136.692 160.094 C 141.715 157.806, 137.428 150.054, 132.250 152.063 M 133.583 155.866 C 133.152 156.563, 133.070 157.403, 133.400 157.733 C 134.295 158.628, 135.271 157.312, 134.787 155.862 C 134.449 154.846, 134.213 154.846, 133.583 155.866 M 56.274 201.722 C 50.400 202.453, 46 211.614, 46 223.116 C 46 230.240, 47.253 233.703, 50.341 235.110 C 53.587 236.588, 58.474 234.006, 61.212 229.365 C 62.948 226.424, 63.686 225.955, 65.768 226.478 C 67.878 227.007, 68.139 226.830, 67.500 225.301 C 65.535 220.601, 64.862 213.311, 65.911 208.091 C 66.510 205.107, 67 202.291, 67 201.833 C 67 201.004, 62.422 200.956, 56.274 201.722 M 121.201 225.297 C 114.956 231.620, 114.650 233.992, 118.968 242.590 C 123.940 252.492, 131.331 258.853, 136.671 257.825 C 139.308 257.317, 141.202 250.852, 140.121 246.045 C 139.144 241.694, 139.373 241.172, 143.379 238.619 L 146.258 236.785 141.021 233.920 C 135.939 231.141, 134.784 230.109, 129.091 223.265 L 126.401 220.031 121.201 225.297" stroke="none" fill="black" fill-rule="evenodd"/>
</svg>