<svg xmlns="http://www.w3.org/2000/svg" width="158" height="257" viewBox="0 0 158 257" version="1.1">
	<path d="M 66.500 3.632 C 60.379 4.578, 52.420 7.267, 45.560 10.705 C 32.646 17.178, 18.460 33.939, 15.053 46.750 C 14.334 49.453, 13.355 51, 12.361 51 C 11.503 51, 9.322 52.478, 7.516 54.284 C -2.121 63.921, 2.897 89, 14.461 89 C 15.213 89, 17.263 91.332, 19.017 94.182 C 20.771 97.032, 24.673 101.950, 27.688 105.112 L 33.171 110.860 30.188 112.403 C 25.892 114.624, 23 121.207, 23 128.762 C 23 133.924, 22.464 135.810, 19.609 140.696 C 16.112 146.681, 12.215 155.500, 9.974 162.500 C 9.270 164.700, 7.912 167.053, 6.957 167.729 C 5.680 168.633, 5.048 171.016, 4.570 176.729 C 4.212 181.003, 3.670 187.136, 3.365 190.359 C 2.969 194.553, 3.290 197.470, 4.495 200.626 C 7.847 209.402, 17.363 212.948, 22.548 207.354 C 23.896 205.899, 25 204.132, 25 203.427 C 25 202.413, 30.129 199, 31.654 199 C 31.844 199, 32.002 200.688, 32.004 202.750 C 32.007 204.813, 33.127 212.753, 34.495 220.397 C 36.847 233.543, 36.887 234.364, 35.241 235.615 C 34.283 236.342, 33.156 236.951, 32.735 236.968 C 31.190 237.032, 28.007 243.596, 28.004 246.727 C 27.997 252.382, 31.125 253.500, 46.958 253.500 C 62.313 253.500, 69.600 251.692, 70.475 247.667 C 71.093 244.822, 72.750 228.713, 73.527 218 C 74.333 206.889, 74.679 205.813, 77.336 206.192 C 79.746 206.535, 79.734 206.471, 82.415 233.875 C 83.294 242.863, 84.323 248.750, 85.161 249.584 C 89.700 254.107, 118.275 255.671, 124.295 251.726 C 129.199 248.513, 127.507 241.010, 120.836 236.386 C 118.356 234.668, 117.123 233.124, 117.411 232.100 C 118.504 228.222, 120.079 218.536, 121.572 206.500 C 123.039 194.681, 123.444 193.227, 126.032 190.500 C 129.897 186.425, 130.809 183.581, 131.597 173.145 L 132.271 164.216 138.625 163.811 C 145.663 163.363, 149 161.520, 152.750 156.010 C 156.840 150.001, 155.192 137.799, 149.327 130.673 C 148.047 129.119, 147 126.785, 147 125.488 C 147 123.843, 145.748 122.279, 142.856 120.315 C 140.577 118.767, 136.605 115.598, 134.028 113.274 C 131.452 110.950, 127.914 108.447, 126.166 107.712 L 122.987 106.375 126.744 102.004 C 128.810 99.600, 131.651 95.637, 133.057 93.198 C 134.820 90.141, 136.976 88.101, 139.997 86.632 C 147.316 83.072, 148.500 80.547, 148.500 68.502 C 148.500 56.821, 147.295 53.996, 140.929 50.754 C 138.607 49.571, 137.241 48.007, 136.697 45.909 C 135.430 41.023, 127.984 28.388, 123.545 23.594 C 115.395 14.793, 105.030 8.594, 93.117 5.399 C 87.322 3.844, 71.793 2.813, 66.500 3.632 M 60.645 8.584 C 41.272 13.274, 22.938 31.241, 17.875 50.500 C 15.628 59.045, 15.492 71.219, 17.546 79.932 C 21.477 96.611, 35.295 110.255, 54.694 116.614 C 62.504 119.174, 64.913 119.499, 76 119.495 C 86.321 119.491, 89.842 119.076, 96.198 117.115 C 104.178 114.652, 108.705 111.279, 107.665 108.570 C 107.152 107.232, 106.471 107.298, 102.297 109.087 C 94.553 112.406, 86.131 113.970, 76 113.970 C 53.142 113.970, 36.576 105.372, 28.425 89.277 C 25.673 83.841, 25.500 82.788, 25.500 71.448 C 25.500 59.532, 25.542 59.311, 29.259 51.790 C 33.784 42.634, 40.483 36.096, 51.002 30.568 C 71.599 19.745, 99.880 24.021, 115.045 40.252 C 120.759 46.367, 128.813 59.611, 130.658 65.925 C 134.112 77.743, 129.018 92.270, 118.948 99.324 C 117.151 100.583, 117.005 101.140, 117.991 102.982 C 119.134 105.118, 119.211 105.090, 122.493 101.328 C 130.907 91.684, 136 78.174, 136 65.500 C 136 57.504, 132.901 45.503, 128.818 37.686 C 121.854 24.353, 106.633 12.551, 91.270 8.570 C 83.806 6.636, 68.665 6.643, 60.645 8.584 M 67.750 29.080 C 62.252 32.283, 70.070 43, 77.904 43 C 81.350 43, 81.501 42.775, 79.842 40.119 C 79.205 39.099, 78.985 37.482, 79.352 36.525 C 79.921 35.041, 80.620 35.385, 84.091 38.856 C 86.331 41.095, 87.863 43.412, 87.498 44.004 C 87.042 44.741, 87.725 44.831, 89.666 44.290 C 93.362 43.260, 107.656 43.280, 111.500 44.321 C 114.363 45.096, 114.281 44.927, 109.715 40.622 C 104.306 35.523, 95.057 30.802, 87.201 29.129 C 80.664 27.736, 70.102 27.710, 67.750 29.080 M 56.500 31.817 C 49.064 34.986, 46 37.043, 40.713 42.415 C 24.907 58.475, 23.922 82.343, 38.456 97.085 C 44.004 102.712, 50.458 106.303, 59 108.517 C 67.922 110.829, 89.042 110.148, 96.984 107.292 L 102.469 105.320 97.051 104.601 C 89.960 103.661, 81.523 99.457, 77.898 95.060 C 75.287 91.892, 75 91.765, 75 93.772 C 75 95.106, 74.386 96, 73.469 96 C 71.166 96, 70.399 92.913, 72.348 91.488 C 73.902 90.351, 73.879 89.953, 72.032 85.882 C 70.589 82.701, 70.038 79.312, 70.022 73.514 C 70.003 66.786, 70.427 64.684, 72.714 60.165 C 74.207 57.214, 77.677 52.779, 80.426 50.307 L 85.423 45.814 80.824 46.504 C 71.902 47.842, 63 41.395, 63 33.596 C 63 29.511, 62.335 29.330, 56.500 31.817 M 91.424 47.997 C 79.974 52.538, 73.628 61.838, 73.681 74 C 73.725 83.992, 78.859 92.514, 88.410 98.448 C 92.175 100.787, 102.379 101.588, 108.796 100.049 C 122.715 96.710, 131.390 79.722, 126.577 65.230 C 121.847 50.992, 104.865 42.667, 91.424 47.997 M 93.764 50.996 C 85.711 53.421, 78.645 61.514, 77.414 69.724 C 75.632 81.609, 82.942 93.183, 94.318 96.490 C 100.604 98.318, 105.240 97.848, 111.500 94.750 C 126.003 87.573, 128.567 66.233, 116.160 55.970 C 110.211 51.049, 100.644 48.924, 93.764 50.996 M 92.757 55.379 C 88.449 57.288, 83.075 63.070, 81.996 66.956 C 78.771 78.564, 83.809 89.115, 94.230 92.576 C 105.746 96.402, 116.761 90.028, 120.107 77.602 C 122.459 68.867, 116.070 57.835, 107.100 55.148 C 102.281 53.704, 96.317 53.800, 92.757 55.379 M 139.551 61.750 C 139.938 66.756, 139.646 72.067, 138.729 76.750 C 137.948 80.737, 137.710 84, 138.200 84 C 140.539 84, 143.884 78.874, 144.975 73.618 C 146.318 67.150, 145.077 58.848, 142.311 55.791 C 139.473 52.655, 138.939 53.810, 139.551 61.750 M 10.364 56.457 C 4.537 60.539, 4.976 77.882, 11.044 83.321 C 12.775 84.873, 14.366 85.967, 14.580 85.754 C 14.794 85.540, 14.257 82.020, 13.386 77.932 C 12.314 72.895, 11.987 68.002, 12.371 62.750 C 12.682 58.487, 12.827 55, 12.691 55 C 12.556 55, 11.509 55.656, 10.364 56.457 M 92.455 68.455 C 87.525 73.385, 90.493 81, 97.345 81 C 101.582 81, 104 78.400, 104 73.846 C 104 69.808, 100.670 66, 97.140 66 C 95.913 66, 93.805 67.105, 92.455 68.455 M 51.834 68.389 C 48.915 69.835, 48.156 75.013, 50.517 77.375 C 54.174 81.031, 61.869 77.401, 60.429 72.699 C 59.007 68.057, 55.774 66.436, 51.834 68.389 M 110.590 103.854 C 109.597 105.461, 111.143 108.119, 112.876 107.785 C 115.006 107.375, 114.980 103.620, 112.843 103.208 C 111.932 103.033, 110.918 103.324, 110.590 103.854 M 114.357 110.992 C 106.836 114.027, 107.337 126.814, 115.157 131.434 C 117.388 132.752, 119.254 132.987, 123.376 132.472 L 128.709 131.806 130.139 135.392 L 131.569 138.977 135.282 136.455 C 138.499 134.268, 143 127.738, 143 125.255 C 143 124.802, 141.537 123.569, 139.750 122.516 C 137.963 121.462, 134.409 118.647, 131.853 116.260 C 125.808 110.613, 119.787 108.800, 114.357 110.992 M 38 114.751 C 38 117.875, 45.346 123.430, 52.532 125.740 C 68.989 131.030, 85.847 130.913, 100.750 125.405 C 104.436 124.043, 105 123.443, 105 120.882 C 105 118.388, 104.728 118.072, 103.250 118.845 C 98.907 121.117, 86.426 123, 75.713 123 C 62.561 123, 51.918 120.731, 43.380 116.106 C 39.088 113.781, 38 113.507, 38 114.751 M 30.608 116.887 C 27.991 119.619, 25.257 127.590, 26.508 128.841 C 27.461 129.794, 34.913 120.658, 34.942 118.500 C 34.998 114.394, 33.523 113.845, 30.608 116.887 M 36.224 124.717 C 29.626 130.376, 18.685 148.640, 14.509 160.966 L 12.296 167.500 19.898 170.118 C 24.079 171.559, 28.248 173.054, 29.163 173.442 C 30.587 174.046, 30.920 173.169, 31.490 167.323 C 32.258 159.446, 35.806 144.106, 37.299 142.208 C 39.895 138.906, 39.922 143.451, 37.369 154.101 C 34.962 164.144, 34.637 167.463, 34.641 182 C 34.646 198.513, 36.873 217.274, 39.091 219.490 C 40.421 220.819, 67.583 220.828, 68.869 219.500 C 69.402 218.950, 69.987 215.643, 70.169 212.150 L 70.500 205.801 64.250 203.864 C 59.363 202.350, 58 201.499, 58 199.964 C 58 197.862, 59.949 197.349, 61.613 199.013 C 62.170 199.570, 65.651 200.659, 69.348 201.433 C 76.850 203.002, 86.887 202.144, 92.008 199.496 C 95.655 197.610, 97 197.604, 97 199.474 C 97 201.204, 93.205 203.332, 87.274 204.927 L 83.047 206.064 83.588 210.782 C 84.617 219.757, 84.561 219.668, 89.624 220.362 C 99.992 221.783, 114.460 220.492, 115.994 218.009 C 116.759 216.771, 117.385 211.656, 119.053 193 C 120.064 181.696, 119.050 166.904, 116.414 154.500 C 115.596 150.650, 114.648 146.192, 114.307 144.592 C 113.744 141.953, 113.895 141.739, 115.942 142.275 C 117.878 142.781, 118.115 142.555, 117.613 140.682 C 117.291 139.482, 117.021 137.986, 117.014 137.358 C 117.006 136.731, 115.925 135.947, 114.611 135.617 C 113.298 135.288, 110.798 133.395, 109.057 131.412 L 105.890 127.806 101.195 129.335 C 92.258 132.248, 82.903 133.301, 71.529 132.677 C 59.595 132.022, 52.326 130.265, 44.500 126.144 C 41.750 124.696, 39.231 123.382, 38.901 123.223 C 38.572 123.064, 37.367 123.737, 36.224 124.717 M 142.869 133.906 C 141.994 135.430, 138.919 138.205, 136.036 140.074 C 130.827 143.449, 130.796 143.499, 131.371 147.692 C 132.049 152.639, 130.509 154.299, 128.113 151.204 C 127.226 150.059, 125.250 148.817, 123.721 148.445 C 122.193 148.073, 120.257 146.583, 119.419 145.134 L 117.896 142.500 118.496 145.367 C 118.827 146.943, 119.352 149.508, 119.663 151.066 C 119.975 152.623, 120.965 154.520, 121.865 155.279 C 127 159.618, 141.387 161.519, 145.783 158.439 C 151.042 154.756, 152.589 145.091, 149.137 137.500 C 146.385 131.451, 144.799 130.542, 142.869 133.906 M 122.250 136.662 C 120.542 137.351, 120.680 140.098, 122.557 142.777 C 124.599 145.693, 126.811 145.603, 127.571 142.572 C 128.818 137.605, 126.445 134.970, 122.250 136.662 M 57.396 141.900 C 53.652 144.183, 53 146.803, 53 159.569 C 53 167.976, 53.236 169.163, 55.411 171.694 L 57.822 174.500 74.835 174.815 C 94.686 175.182, 97.213 174.494, 98.948 168.248 C 100.320 163.307, 100.282 153.006, 98.871 147.402 C 97.167 140.634, 95.230 139.999, 76.300 140.004 C 62.562 140.007, 60.095 140.255, 57.396 141.900 M 61.263 144.061 C 57.246 145.289, 56.539 147.545, 56.517 159.212 C 56.493 171.375, 55.944 171.031, 75.755 171.252 C 96.783 171.486, 96.298 171.835, 95.832 156.818 C 95.615 149.804, 95.055 145.651, 94.213 144.810 C 92.602 143.203, 66.048 142.599, 61.263 144.061 M 83.566 147.328 C 79.803 150.080, 82.272 157, 87.017 157 C 88.778 157, 93 153.020, 93 151.360 C 93 149.855, 88.596 146, 86.877 146 C 86.055 146, 84.565 146.598, 83.566 147.328 M 85 151.500 C 85 152.333, 85.889 153, 87 153 C 88.111 153, 89 152.333, 89 151.500 C 89 150.667, 88.111 150, 87 150 C 85.889 150, 85 150.667, 85 151.500 M 84.149 159.608 C 81.519 161.450, 81.367 165.117, 83.829 167.345 C 86.206 169.496, 88.291 169.440, 90.345 167.171 C 92.894 164.355, 92.407 161.262, 89.149 159.577 C 86.630 158.274, 86.048 158.278, 84.149 159.608 M 121.656 161.791 C 121.913 162.776, 122.442 169.189, 122.830 176.041 L 123.535 188.500 125.428 185 C 126.769 182.520, 127.455 178.722, 127.783 171.967 L 128.247 162.433 125.576 161.217 C 121.943 159.561, 121.105 159.684, 121.656 161.791 M 85.543 162.931 C 84.803 164.128, 86.684 165.313, 88.016 164.490 C 89.135 163.799, 88.400 162, 87 162 C 86.515 162, 85.859 162.419, 85.543 162.931 M 9 175.935 C 9 178.649, 8.510 182.137, 7.910 183.685 C 6.142 188.251, 6.441 197.246, 8.476 200.690 C 12.162 206.930, 18.445 208.273, 21.064 203.380 C 22.139 201.371, 22.143 200.286, 21.087 197.365 C 20.105 194.649, 20.076 193.528, 20.966 192.651 C 21.850 191.780, 22.625 192.169, 24.150 194.250 C 27.288 198.529, 28.355 197.725, 27.718 191.558 C 27.292 187.430, 27.596 185.254, 28.978 182.544 C 30.776 179.017, 30.771 178.953, 28.649 177.458 C 26.639 176.041, 12.041 171, 9.948 171 C 9.427 171, 9 173.221, 9 175.935 M 39.463 226.751 C 39.862 228.813, 40.409 231.652, 40.680 233.059 C 41.084 235.164, 40.356 236.286, 36.586 239.376 C 33.047 242.276, 32 243.799, 32 246.048 C 32 249.839, 34.391 250.517, 47.500 250.445 C 59.393 250.379, 65.736 248.829, 66.921 245.700 C 67.379 244.490, 68.082 238.903, 68.482 233.285 L 69.211 223.069 63.855 223.785 C 56.963 224.705, 49.761 224.693, 43.619 223.751 L 38.739 223.002 39.463 226.751 M 85.625 229.172 C 87.261 246.117, 87.329 246.391, 90.256 247.794 C 94.667 249.908, 104.972 251.231, 112 250.586 C 121.856 249.681, 123 249.203, 123 245.987 C 123 243.361, 121.986 242.197, 114.165 235.846 C 113.398 235.223, 113.079 233.854, 113.415 232.631 C 113.737 231.459, 114.291 228.762, 114.646 226.639 L 115.291 222.777 111.965 223.508 C 107.740 224.436, 92.359 224.457, 88.187 223.541 L 85.014 222.844 85.625 229.172" stroke="none" fill="black" fill-rule="evenodd"/>
</svg>