<svg xmlns="http://www.w3.org/2000/svg" width="188" height="270" viewBox="0 0 188 270" version="1.1">
	<path d="M 68.748 4.427 C 64.016 6.116, 58.170 10.533, 56.858 13.412 C 55.953 15.398, 55.274 15.575, 50.033 15.196 C 42.774 14.671, 38.461 16.058, 33.111 20.637 C 28.198 24.842, 25.524 29.709, 24.585 36.153 C 24.048 39.838, 23.442 40.923, 21.676 41.366 C 17.917 42.310, 11.368 48.687, 8.987 53.723 C 5.976 60.090, 5.865 69.850, 8.739 75.502 L 10.773 79.500 8.352 83 C 4.900 87.992, 2.648 96.413, 3.365 101.646 C 4.198 107.722, 8.220 115.171, 12.810 119.138 C 16.281 122.137, 16.764 123.126, 17.283 128.297 C 17.963 135.068, 21.491 141.747, 26.341 145.446 C 30.019 148.252, 37.046 151, 40.542 151 C 44.372 151, 43.939 153.211, 38.848 159.651 C 33.006 167.041, 25.765 180.457, 23.585 187.932 C 22.713 190.919, 22 196.224, 22 199.721 C 22 211.078, 27.045 217, 36.721 217 L 41.634 217 43.439 224.750 C 44.432 229.012, 46.830 236.550, 48.769 241.500 C 51.275 247.895, 52.325 252.202, 52.398 256.382 C 52.489 261.609, 52.814 262.499, 55.323 264.382 C 59.529 267.538, 73.008 267.975, 79.371 265.160 C 84.862 262.731, 86.478 259.684, 87.676 249.500 L 88.500 242.500 93.608 242.203 L 98.715 241.905 99.358 246.592 C 99.711 249.170, 100 252.626, 100 254.272 C 100 258.777, 103.460 263.567, 108.039 265.399 C 112.821 267.312, 126.672 267.562, 130.528 265.805 C 134.341 264.068, 136.222 259.936, 134.912 256.177 C 134.017 253.610, 134.406 251.802, 137.595 243.716 L 141.326 234.259 147.588 233.674 C 151.033 233.352, 155.432 232.428, 157.365 231.621 C 161.757 229.786, 169.066 223.127, 171.454 218.785 C 172.459 216.957, 175.036 214.610, 177.265 213.492 C 183.178 210.529, 185.192 206.194, 184.791 197.301 C 184.548 191.918, 183.939 189.395, 182.377 187.301 C 178.822 182.534, 178.312 182.758, 165.290 194.782 C 161.739 198.062, 161.736 198.070, 162.240 205.108 C 162.700 211.546, 162.529 212.406, 160.246 215.119 C 157.353 218.557, 151.111 222, 147.770 222 C 145.461 222, 145.460 221.988, 145.480 207.501 L 145.500 193.001 149.290 193.001 C 157.235 192.999, 164.139 186.779, 166.155 177.804 C 167.504 171.802, 165.634 162.116, 161.510 153.745 L 158.157 146.938 162.904 142.192 C 167.842 137.254, 170 131.912, 170 124.630 C 170 121.910, 170.733 120.526, 173.339 118.323 C 178.369 114.070, 180.928 110.004, 182.597 103.610 C 184.483 96.388, 183.273 89.399, 178.958 82.594 L 176.005 77.939 178.176 70.561 C 180.305 63.326, 180.313 63.059, 178.595 56.711 C 176.629 49.449, 171.769 43.453, 165.084 40.043 C 161.952 38.445, 161.109 37.377, 160.544 34.290 C 158.329 22.178, 147.418 13.597, 134.884 14.108 C 129.019 14.347, 128.774 14.252, 125.184 10.344 C 117.976 2.499, 104.717 0.613, 96.235 6.226 L 92.290 8.837 86.504 5.918 C 80.110 2.693, 74.845 2.251, 68.748 4.427 M 67.852 9.016 C 65.846 10.075, 62.567 12.856, 60.565 15.195 L 56.926 19.446 49.713 19.164 C 43.124 18.905, 42.085 19.146, 37.699 21.950 C 32.287 25.411, 28.029 32.903, 28.007 39 C 27.996 42.210, 27.554 42.731, 22.657 45.289 C 16.767 48.367, 13.627 51.971, 11.442 58.163 C 9.308 64.213, 9.663 68.051, 12.963 74.593 L 15.926 80.467 13.577 82.984 C 4.299 92.923, 5.750 109.387, 16.591 117.172 C 20.863 120.240, 21 120.506, 21 125.709 C 21 132.193, 23.437 137.420, 28.552 141.912 C 32.937 145.762, 35.877 146.989, 40.815 147.032 C 44.075 147.060, 44.802 147.561, 47.116 151.379 C 52.712 160.608, 61.453 164.008, 70.600 160.515 L 75.177 158.767 78.839 162.273 C 83.950 167.168, 88.074 169, 93.982 169 C 100.494 169, 105.393 166.924, 109.730 162.325 C 113.001 158.856, 113.352 158.725, 116.412 159.832 C 118.189 160.474, 121.686 161, 124.185 161 L 128.728 161 126.290 156.250 C 124.375 152.520, 123.974 150.562, 124.422 147.134 C 124.966 142.980, 124.884 142.799, 122.747 143.397 C 104.748 148.434, 90.513 149.214, 75 146.014 C 55.803 142.055, 43.017 132.569, 38.121 118.654 C 36.023 112.689, 35.804 110.692, 36.267 101.696 C 36.784 91.670, 39.531 80.391, 42.420 76.440 C 43.561 74.880, 43.254 74.209, 39.972 71.079 C 32.934 64.366, 32.421 54.886, 38.749 48.497 C 46.236 40.939, 56.747 41.456, 63.659 49.723 L 65.819 52.306 71.159 50.186 C 80.442 46.502, 85.512 45.721, 96.783 46.235 C 104.647 46.593, 108.954 47.311, 112.963 48.931 C 118.211 51.052, 118.476 51.067, 119.701 49.319 C 125.947 40.410, 133.270 38.410, 142.307 43.145 C 152.039 48.244, 152.777 63.355, 143.635 70.326 C 142.279 71.359, 142.506 72.346, 145.531 78.564 C 154.694 97.401, 153.435 115.414, 141.941 129.956 L 138.118 134.792 142.359 135.860 C 144.692 136.448, 148.487 138.294, 150.792 139.964 C 153.097 141.634, 155.368 143, 155.838 143 C 156.308 143, 158.316 141.423, 160.301 139.497 C 164.255 135.656, 165.986 130.934, 165.994 123.962 C 166 119.827, 166.390 119.098, 170.391 115.753 C 180.530 107.278, 182.154 93.652, 174.333 82.674 L 170.895 77.849 172.883 73.674 C 177.747 63.460, 176.122 53.918, 168.355 47.081 C 165.805 44.837, 162.914 43, 161.931 43 C 159.308 43, 157 40.250, 157 37.125 C 157 32.508, 152.315 24.489, 147.791 21.363 C 143.965 18.720, 142.971 18.506, 134.824 18.582 C 129.971 18.628, 126 18.306, 126 17.867 C 126 16.399, 119.736 9.915, 116.901 8.449 C 110.724 5.255, 99.946 7.083, 94.250 12.291 L 92 14.349 89.736 12.222 C 84.168 6.991, 74.394 5.559, 67.852 9.016 M 129.415 45.421 C 125.548 47.105, 121.558 51.958, 122.920 53.320 C 123.556 53.956, 125.148 53.199, 127.483 51.149 C 131.457 47.660, 133.728 47.291, 137.909 49.453 C 143.052 52.112, 144.304 59.770, 140.319 64.192 C 137.788 67.001, 139.238 68.387, 142.239 66.026 C 149.429 60.371, 146.859 48.542, 137.685 45.067 C 134.142 43.724, 133.223 43.763, 129.415 45.421 M 42.571 50.368 C 39.291 53.462, 39 54.199, 39 59.414 C 39 64.108, 39.425 65.516, 41.455 67.545 C 43.663 69.754, 46 70.771, 46 69.524 C 46 69.262, 45.102 67.575, 44.004 65.774 C 41.308 61.352, 41.487 57.763, 44.589 54.077 C 48.011 50.009, 53.156 49.817, 57.114 53.609 C 60.321 56.681, 62.468 56.122, 60.877 52.630 C 59.395 49.377, 54.874 47, 50.167 47 C 46.971 47, 45.407 47.693, 42.571 50.368 M 87 49.597 C 63.475 53.831, 47.099 68.544, 41.518 90.460 C 39.274 99.271, 39.515 112.703, 42.022 118.551 C 46.475 128.939, 54.920 135.945, 68.609 140.606 C 80.241 144.567, 98.997 145.166, 112.723 142.014 C 124.475 139.315, 126.005 138.588, 125.985 135.715 C 125.959 132.001, 124.720 131.153, 117.669 130.027 C 111.337 129.015, 110.682 129.090, 107.775 131.160 C 105.344 132.891, 102.863 133.471, 96.434 133.808 C 89.238 134.186, 87.521 133.927, 82.764 131.749 C 66.894 124.484, 70.195 103.887, 87.939 99.456 C 92.131 98.409, 92.624 97.950, 94.037 93.779 C 97.443 83.727, 104.429 76.679, 114.209 73.431 C 122.090 70.813, 127.952 71.798, 140.386 77.828 C 140.874 78.064, 140.199 76.339, 138.886 73.994 C 133.982 65.233, 121.754 55.742, 110.593 52.034 C 104.578 50.036, 91.860 48.722, 87 49.597 M 131.465 50.952 C 130.346 51.405, 128.816 52.517, 128.064 53.423 C 126.880 54.849, 127.019 55.355, 129.099 57.198 C 130.419 58.369, 132.771 60.491, 134.324 61.914 C 137.085 64.442, 137.181 64.456, 138.574 62.559 C 140.938 59.341, 140.372 54.438, 137.365 52.073 C 134.460 49.787, 134.377 49.771, 131.465 50.952 M 46.455 55.455 C 43.617 58.292, 43.363 60.645, 45.557 63.777 C 47.660 66.781, 48.536 66.608, 53.089 62.294 C 57.488 58.126, 57.788 57.023, 55.171 54.655 C 52.574 52.305, 49.305 52.605, 46.455 55.455 M 114.558 77.492 C 92.868 85.219, 91.690 115.741, 112.743 124.537 C 116.888 126.269, 125.891 126.434, 131.500 124.882 C 137.642 123.181, 144.406 115.851, 146.510 108.615 C 152.213 88.997, 133.481 70.751, 114.558 77.492 M 117.836 79.959 C 104.789 82.445, 97.175 97.983, 102.865 110.509 C 107.401 120.494, 120.419 125.785, 130.282 121.652 C 144.760 115.585, 148.545 97.472, 137.699 86.165 C 132.294 80.529, 125.683 78.464, 117.836 79.959 M 118.170 83.992 C 109.506 86.042, 102.720 96.597, 104.912 104.612 C 107.189 112.938, 113.743 119, 120.469 119 C 122.783 119, 122.901 118.811, 121.758 116.937 C 120.653 115.125, 120.842 114.577, 123.306 112.437 C 125.598 110.446, 127.193 110, 132.021 110 C 136.839 110, 138.121 109.643, 138.965 108.066 C 140.154 105.843, 140.311 98.674, 139.251 95 C 138.605 92.760, 138.476 92.915, 138.015 96.500 C 137.299 102.063, 134.108 102.542, 131.151 97.531 C 129.991 95.566, 127.434 93.009, 125.469 91.849 C 120.692 89.031, 120.946 85.735, 126 84.971 L 129.500 84.442 126.125 83.721 C 124.269 83.324, 122.469 83.046, 122.125 83.102 C 121.781 83.159, 120.001 83.559, 118.170 83.992 M 125 87.974 C 125 88.510, 126.385 89.665, 128.079 90.541 C 129.864 91.464, 131.783 93.631, 132.647 95.698 C 134.522 100.185, 136.547 98.866, 134.925 94.214 C 133.474 90.051, 125 84.724, 125 87.974 M 114.881 94.007 C 111.975 95.705, 110.583 100.579, 112.016 104.038 C 113.489 107.594, 115.712 109, 119.862 109 C 123.535 109, 127 105.029, 127 100.820 C 127 95.135, 119.840 91.110, 114.881 94.007 M 62.557 98.223 C 59.336 102.821, 61.992 108, 67.573 108 C 70.514 108, 71.272 107.497, 72.633 104.643 C 74.116 101.534, 74.106 101.092, 72.502 98.643 C 70.226 95.169, 64.854 94.942, 62.557 98.223 M 84.347 103.057 C 78.559 105.922, 75 111.346, 75 117.301 C 75 121.285, 75.544 122.596, 78.598 125.977 C 80.700 128.303, 83.716 130.382, 85.848 130.975 C 91.744 132.612, 100.038 132.166, 104.928 129.947 L 109.357 127.938 106.928 126.316 C 105.593 125.423, 103.263 123.553, 101.750 122.160 L 99 119.626 99 122.090 C 99 125.295, 96.372 129, 94.098 129 C 91.625 129, 89 125.840, 89 122.862 C 89 119.340, 91.224 116.750, 94.250 116.750 C 96.584 116.750, 96.740 116.523, 95.808 114.477 C 95.218 113.184, 93.552 111.960, 91.940 111.638 C 86.585 110.567, 85.881 104, 91.122 104 C 92.155 104, 93 103.325, 93 102.500 C 93 100.377, 89.277 100.617, 84.347 103.057 M 50.635 111.073 C 47.256 113.731, 47.293 116.297, 50.750 119.026 C 55.744 122.968, 67 120.123, 67 114.918 C 67 111.978, 62.219 109, 57.500 109 C 54.735 109, 52.357 109.718, 50.635 111.073 M 51.861 112.935 C 49.593 114.795, 49.570 114.942, 51.286 116.685 C 52.477 117.896, 54.545 118.500, 57.500 118.500 C 60.455 118.500, 62.523 117.896, 63.714 116.685 C 65.430 114.942, 65.407 114.795, 63.139 112.935 C 61.841 111.871, 59.303 111, 57.500 111 C 55.697 111, 53.159 111.871, 51.861 112.935 M 125.750 113.054 C 123.668 114.298, 123.490 116.331, 125.328 117.858 C 126.323 118.683, 127.748 118.399, 130.997 116.730 C 133.384 115.504, 135.373 114.050, 135.418 113.500 C 135.531 112.122, 127.901 111.770, 125.750 113.054 M 93 122.441 C 93 123.234, 93.450 124.160, 94 124.500 C 94.550 124.840, 95 124.191, 95 123.059 C 95 121.927, 94.550 121, 94 121 C 93.450 121, 93 121.648, 93 122.441 M 137.742 126.125 C 136.784 126.661, 136 127.852, 136 128.772 C 136 130.177, 136.351 130.093, 138.194 128.250 C 140.649 125.795, 140.402 124.636, 137.742 126.125 M 129.408 130.378 C 129.118 131.136, 129.248 133.178, 129.698 134.915 C 130.407 137.652, 130.732 137.902, 132.127 136.787 C 133.393 135.776, 133.546 134.803, 132.840 132.250 C 131.907 128.869, 130.320 128.003, 129.408 130.378 M 133.775 140.559 C 132.276 141.372, 130.589 142.900, 130.025 143.953 C 128.665 146.495, 128.722 152.297, 130.139 155.405 C 131.417 158.211, 136.503 161, 140.342 161 C 143.296 161, 144.716 162.684, 143.113 164.287 C 142.501 164.899, 142 166.674, 142 168.231 C 142 169.877, 141.345 171.314, 140.436 171.663 C 138.117 172.553, 134.130 170.380, 132.825 167.515 C 131.776 165.212, 131.142 165, 125.319 165 L 118.959 165 120.815 168.750 C 126.820 180.889, 128.387 197.411, 124.521 207.838 C 120.671 218.222, 112.289 224.792, 100.085 226.992 C 92.675 228.327, 83.061 227.095, 77.102 224.047 C 68.023 219.402, 61.651 209.593, 60.455 198.421 C 59.634 190.760, 62.028 177.852, 65.562 170.878 C 68.406 165.265, 68.479 164.879, 66.561 165.615 C 63.842 166.658, 54.147 163.889, 49.998 160.884 C 44.925 157.209, 44.657 157.373, 37.533 168.500 C 26.146 186.287, 22.462 200.952, 27.464 208.585 C 29.665 211.945, 34.569 214.254, 37.933 213.515 C 40.666 212.914, 40.734 212.725, 41.404 203.849 C 42.048 195.310, 45.325 176.901, 46.555 174.912 C 46.864 174.410, 47.823 174, 48.684 174 C 49.923 174, 50.108 174.678, 49.572 177.250 C 46.787 190.593, 45 202.255, 45 207.083 C 45 215.963, 48.519 230.920, 53.382 242.711 C 56.569 250.439, 57.563 253.948, 56.910 255.169 C 55.470 257.859, 55.846 260.849, 57.750 261.847 C 63.795 265.014, 75.347 264.262, 79.933 260.403 C 82.440 258.293, 82.938 257.015, 83.503 251.226 C 83.865 247.527, 84.363 243.765, 84.611 242.867 C 84.943 241.661, 84.163 241.066, 81.631 240.591 C 77.774 239.867, 75.212 237.605, 76.999 236.501 C 77.602 236.128, 80.383 236.372, 83.179 237.043 C 88.230 238.255, 102.940 237.881, 107.851 236.415 C 109.796 235.835, 110.141 236.041, 109.849 237.607 C 109.639 238.730, 108.175 239.889, 106.248 240.457 C 103.079 241.390, 103.001 241.549, 103.056 246.957 C 103.128 254.033, 104.812 258.803, 108.097 261.237 C 113.353 265.133, 130.347 264.393, 131.226 260.230 C 131.427 259.279, 131.166 257.065, 130.647 255.312 C 129.841 252.592, 130.295 250.747, 133.732 242.767 C 139.865 228.526, 142.323 216.474, 141.779 203.298 C 141.535 197.359, 141.147 191.825, 140.917 191 C 140.586 189.811, 141.856 189.396, 147.050 189 C 158.418 188.132, 162.532 183.429, 162.359 171.500 C 162.174 158.682, 152.653 143.010, 143.360 140.226 C 138.229 138.689, 137.152 138.726, 133.775 140.559 M 69.977 167.250 C 64.951 175.447, 63.601 180.957, 63.550 193.500 C 63.494 206.873, 64.680 210.527, 71.190 217.037 C 76.898 222.744, 83.192 224.979, 93.590 224.990 C 101.756 224.999, 103.308 224.686, 108.854 221.915 C 117.758 217.466, 122.035 211.208, 124.040 199.692 C 125 194.178, 124.918 191.702, 123.552 184.958 C 121.769 176.160, 118.256 167.270, 115.743 165.195 C 114.400 164.086, 113.466 164.420, 109.541 167.417 C 103.789 171.807, 98.110 173.403, 91.145 172.586 C 85.183 171.887, 83.168 171.017, 77.856 166.855 C 75.852 165.285, 73.708 164, 73.091 164 C 72.475 164, 71.074 165.463, 69.977 167.250 M 136.638 166.500 C 136.955 167.325, 137.391 168, 137.607 168 C 137.823 168, 138 167.325, 138 166.500 C 138 165.675, 137.564 165, 137.031 165 C 136.499 165, 136.322 165.675, 136.638 166.500 M 172.820 193.461 C 166.103 198.733, 165.827 199.130, 165.697 203.695 C 165.624 206.287, 166.225 207.764, 167.909 209.127 C 175.001 214.870, 183.045 206.182, 180.998 194.990 C 180.581 192.707, 179.836 190.436, 179.342 189.942 C 178.814 189.414, 176.138 190.857, 172.820 193.461 M 162.185 218.114 C 157.902 222.926, 151.368 226, 145.425 226 C 143.596 226, 142 227.669, 142 229.582 C 142 230.595, 150.045 229.863, 154.103 228.481 C 158.841 226.866, 162.260 224.148, 166.432 218.679 C 169.360 214.839, 169.479 214.395, 167.750 213.741 C 167.063 213.481, 164.558 215.449, 162.185 218.114" stroke="none" fill="black" fill-rule="evenodd"/>
</svg>