<svg xmlns="http://www.w3.org/2000/svg" width="211" height="272" viewBox="0 0 211 272" version="1.1">
	<path d="M 104.591 4.521 C 102.441 5.337, 99.224 7.118, 97.442 8.477 C 94.833 10.466, 93.990 10.693, 93.115 9.639 C 91.159 7.282, 84.407 5.730, 78.094 6.187 C 71.227 6.684, 65.047 10.210, 61.500 15.656 C 59.632 18.524, 59.105 18.725, 53.500 18.710 C 46.374 18.689, 41.509 20.570, 36.762 25.180 C 32.240 29.571, 30.268 33.498, 29.436 39.768 C 28.809 44.495, 28.427 45.057, 23.952 47.839 C 15.050 53.373, 10.642 63.495, 12.753 73.557 C 13.394 76.616, 14.773 80.291, 15.817 81.724 C 17.698 84.306, 17.694 84.361, 15.372 87.783 C 10.758 94.583, 9.882 102.308, 12.726 111.114 C 14.014 115.102, 15.916 117.900, 20.226 122.143 C 23.402 125.270, 26 128.685, 26 129.733 C 26 133.588, 29.125 141.995, 31.692 145.046 C 35.627 149.722, 41.521 153.037, 47.067 153.694 C 49.780 154.016, 52 154.586, 52 154.961 C 52 155.336, 49.533 158.738, 46.519 162.521 C 33.273 179.144, 26.722 200.289, 31.619 210.610 C 34.383 216.435, 38.345 219, 44.577 219 C 47.560 219, 50.011 219.338, 50.024 219.750 C 50.037 220.162, 50.443 222.201, 50.925 224.280 C 51.782 227.972, 51.713 228.106, 47.941 230.030 C 43.375 232.360, 37.287 232.565, 32.468 230.551 C 29.568 229.339, 29 228.594, 29 226.001 C 29 219.304, 23.904 214.391, 15 212.502 C 13.075 212.093, 10.183 211.085, 8.572 210.262 C 5.893 208.892, 5.533 208.918, 4.322 210.574 C 2.120 213.585, 2.671 223.861, 5.282 228.470 C 8.060 233.376, 13.254 237, 17.507 237 C 19.274 237, 23.516 238.443, 26.935 240.206 C 32.188 242.915, 34.186 243.400, 39.826 243.335 C 43.497 243.294, 48.416 242.544, 50.759 241.671 L 55.018 240.083 58.064 246.791 C 60.599 252.373, 61.005 254.274, 60.481 258.108 C 59.937 262.089, 60.190 263.109, 62.341 265.608 C 64.789 268.451, 65.006 268.500, 75.165 268.495 C 91.004 268.486, 94.381 265.742, 95.777 251.747 L 96.500 244.500 101.695 244.200 C 107.545 243.861, 107.198 243.266, 108.390 255.674 C 109.306 265.195, 113.188 268.158, 125.603 268.810 C 139.352 269.532, 143.794 266.808, 142.637 258.367 C 142.179 255.029, 142.635 252.593, 144.622 247.767 C 149.580 235.722, 150.005 234.451, 151.390 227.500 C 154.250 213.158, 154.248 206.725, 151.379 188 L 150.843 184.500 167.171 178.641 C 177.263 175.021, 185.592 172.644, 188.976 172.418 C 198.088 171.811, 202.584 166.353, 201.429 157.303 C 200.932 153.410, 201.113 152.993, 203.932 151.535 C 207.430 149.726, 208.759 145.962, 207.148 142.426 C 206.178 140.296, 205.387 140, 200.673 140 C 195.670 140, 179.026 143.216, 167.500 146.409 C 160.063 148.470, 155 149.202, 155 148.217 C 155 147.737, 157.246 146.825, 159.992 146.191 C 171.356 143.568, 178.233 135.472, 178.638 124.238 C 178.857 118.190, 179.106 117.594, 183.293 113.118 C 188.624 107.419, 190.381 102.641, 190.330 93.983 C 190.291 87.195, 188.919 83.378, 184.301 77.211 C 181.888 73.988, 181.870 73.829, 183.419 69.283 C 187.618 56.960, 182.341 44.249, 170.652 38.530 C 165.808 36.160, 165.200 35.478, 163.696 30.717 C 159.796 18.373, 147.067 10.679, 135.726 13.810 C 132.356 14.741, 131.947 14.589, 128.944 11.288 C 123.005 4.761, 112.005 1.705, 104.591 4.521 M 104.500 8.881 C 102.300 9.891, 99.643 11.681, 98.595 12.859 C 96.249 15.496, 94.582 15.551, 91.145 13.103 C 86.722 9.954, 80.639 8.751, 75.767 10.063 C 71.665 11.167, 65.397 16.479, 61.967 21.758 C 60.634 23.809, 60.154 23.918, 56.708 22.949 C 53.763 22.121, 51.746 22.223, 47.680 23.405 C 39.510 25.780, 34.111 32.561, 33.115 41.698 C 32.552 46.858, 32.204 47.493, 29 49.219 C 23.599 52.127, 18.277 58.269, 16.939 63.137 C 15.479 68.448, 16.858 76.587, 19.954 80.935 C 22.433 84.417, 22.536 86.312, 20.342 88.128 C 15.897 91.805, 13.629 103.214, 16.056 109.685 C 17.913 114.636, 22.190 119.979, 26.019 122.131 C 29.498 124.086, 29.778 124.602, 30.355 130.123 C 31.688 142.877, 38.886 150, 50.442 150 C 54.403 150, 55.130 150.351, 56.448 152.900 C 57.273 154.494, 59.819 157.401, 62.105 159.358 C 67.369 163.864, 72.986 164.889, 79.941 162.614 C 86.473 160.477, 87.232 160.551, 90.076 163.595 C 97.814 171.878, 110.877 171.319, 119.612 162.332 L 124.013 157.804 128.962 158.991 C 138.369 161.248, 146.129 157.523, 150.459 148.673 C 153.070 143.336, 153.200 143.235, 158.097 142.765 C 163.963 142.201, 169.285 138.434, 172.734 132.405 C 174.425 129.447, 174.971 126.879, 174.984 121.818 C 174.999 115.545, 175.183 115.006, 177.996 113.003 C 179.644 111.829, 182.232 108.761, 183.746 106.185 C 186.004 102.343, 186.494 100.330, 186.466 95 C 186.429 87.784, 184.714 83.543, 179.699 78.258 L 176.622 75.015 178.345 71.404 C 184.307 58.900, 179.455 46.281, 166.642 40.970 C 161.413 38.803, 161.341 38.714, 160.158 32.988 C 157.849 21.805, 147.742 15.383, 136.247 17.794 L 130.807 18.935 126.153 14.186 C 119.285 7.176, 112.064 5.407, 104.500 8.881 M 130.825 41.177 C 128.803 42.349, 126.339 44.812, 125.349 46.650 C 124.221 48.746, 122.981 49.829, 122.025 49.555 C 113.424 47.094, 110.087 46.625, 101 46.602 C 90.191 46.574, 86.973 47.255, 76.795 51.727 L 71.090 54.233 66.981 50.716 C 59.637 44.430, 51.028 44.906, 44.664 51.950 C 37.439 59.947, 39.142 71.568, 48.280 76.627 C 49.965 77.560, 49.970 77.823, 48.381 81.556 C 45.789 87.646, 44.070 96.796, 44.071 104.500 C 44.072 126.904, 56.332 141.641, 79.175 146.698 C 90.232 149.145, 108.293 148.894, 119.500 146.137 C 142.500 140.478, 155.641 128.526, 158.954 110.254 C 160.851 99.791, 157.572 84.526, 151.203 74.175 L 148.281 69.426 151.168 65.968 C 155.005 61.372, 156.386 56.094, 155.018 51.250 C 152.063 40.781, 140.099 35.800, 130.825 41.177 M 136.208 42.715 C 132.983 43.327, 126.535 49.935, 127.865 51.265 C 128.575 51.975, 130.019 51.313, 132.483 49.149 C 136.457 45.660, 138.728 45.291, 142.909 47.453 C 148.049 50.111, 149.304 57.770, 145.324 62.187 C 143.048 64.713, 144.711 66.564, 147.237 64.315 C 152.847 59.321, 152.891 50.867, 147.332 45.987 C 145.461 44.344, 143.308 43, 142.547 43 C 141.786 43, 140.564 42.838, 139.832 42.640 C 139.099 42.443, 137.469 42.476, 136.208 42.715 M 133.517 50.981 C 131.351 53.375, 132.131 54.597, 138.622 58.978 L 142.955 61.902 144.478 59.729 C 146.532 56.796, 146.394 54.770, 143.927 51.635 C 141.348 48.355, 136.187 48.031, 133.517 50.981 M 51.500 51.403 C 47.156 53.320, 44.906 56.284, 44.286 60.904 C 43.626 65.826, 45.332 70.332, 48.688 72.531 C 52.013 74.710, 52.670 73.749, 50.213 70.299 C 45.037 63.030, 48.674 54, 56.778 54 C 59.622 54, 61.279 54.668, 63.012 56.513 C 65.671 59.343, 67.847 58.452, 66.127 55.238 C 64.948 53.035, 59.200 49.979, 56.349 50.039 C 55.332 50.061, 53.150 50.674, 51.500 51.403 M 92 50.670 C 79.113 52.719, 64.459 62.270, 56.793 73.618 C 50.962 82.251, 48.497 91.596, 48.517 105 C 48.532 114.875, 48.865 117.235, 50.870 121.702 C 53.765 128.153, 62.153 136.272, 69.247 139.493 C 87.190 147.637, 116.729 146.192, 135.219 136.264 C 147.315 129.770, 153.813 120.350, 155.497 106.867 C 156.380 99.806, 153.199 86.176, 148.647 77.510 C 141.995 64.849, 126.930 53.642, 113.014 51.003 C 107.888 50.031, 97.096 49.860, 92 50.670 M 52.174 58.314 C 49.418 61.248, 49.338 66.091, 52.006 68.506 C 53.110 69.504, 54.122 70.128, 54.256 69.892 C 54.390 69.656, 56.525 67.303, 59 64.664 L 63.500 59.864 61.139 57.932 C 57.994 55.358, 54.825 55.493, 52.174 58.314 M 128.061 94.939 C 125.439 97.561, 125.439 100.439, 128.059 103.059 C 130.990 105.990, 135.960 105.355, 137.948 101.796 C 139.342 99.301, 139.298 98.875, 137.381 96.296 C 134.757 92.766, 130.808 92.192, 128.061 94.939 M 75.073 101.635 C 72.590 104.791, 72.513 105.860, 74.557 108.777 C 75.629 110.308, 77.137 111, 79.402 111 C 85.342 111, 88.069 105.069, 84 101 C 81.209 98.209, 77.563 98.468, 75.073 101.635 M 100.032 100.309 C 94.774 101.985, 87.319 109.692, 86.455 114.344 C 85.532 119.322, 87.489 125.263, 91.271 128.960 C 98.918 136.437, 117.328 135.085, 124.872 126.493 C 132.670 117.612, 128.225 104.265, 116.101 100.153 C 111.958 98.748, 104.711 98.818, 100.032 100.309 M 101.248 102.827 C 94.744 105.139, 92.244 107.306, 89.813 112.738 C 88.246 116.240, 88.101 117.631, 88.975 120.738 C 91.175 128.562, 95.814 131.493, 106 131.497 C 115.760 131.501, 121.421 128.637, 124.772 122 C 131.296 109.078, 116.830 97.287, 101.248 102.827 M 102.244 106.156 C 100.372 108.028, 100.730 109.643, 103.500 111.821 C 108.348 115.634, 105.547 119.050, 99.396 116.826 C 94.880 115.193, 93.855 116.615, 97.368 119.639 C 99.640 121.594, 100.887 121.970, 103.368 121.448 C 105.091 121.086, 106.899 120.415, 107.387 119.958 C 107.874 119.501, 110.349 119.372, 112.887 119.672 C 116.708 120.123, 117.821 119.861, 119.371 118.145 C 120.484 116.913, 120.980 115.391, 120.595 114.387 C 120.015 112.874, 119.702 112.931, 117.568 114.936 C 115.602 116.783, 114.825 116.977, 113.094 116.050 C 110.614 114.723, 110.402 112.741, 112.548 110.960 C 113.400 110.253, 113.962 108.736, 113.798 107.588 C 113.548 105.836, 112.693 105.453, 108.494 105.206 C 105.464 105.028, 102.997 105.403, 102.244 106.156 M 136.283 106.632 C 128.914 110.265, 132.189 117, 141.325 117 C 144.308 117, 148.633 114.886, 150.127 112.697 C 151.374 110.872, 149.735 108.102, 146.500 106.567 C 142.377 104.611, 140.356 104.624, 136.283 106.632 M 138.323 107.687 C 137.125 107.925, 135.565 108.820, 134.855 109.675 C 131.980 113.139, 141.093 116.626, 146.066 113.965 C 147.964 112.949, 148.726 109.545, 147.250 108.677 C 145.838 107.846, 140.502 107.254, 138.323 107.687 M 67.272 112.814 C 64.216 113.755, 61 116.666, 61 118.490 C 61 119.321, 61.900 120.900, 63 122 C 67.355 126.355, 80 123.342, 80 117.950 C 80 114.381, 72.289 111.269, 67.272 112.814 M 64.517 116.981 C 61.804 119.979, 64.033 122, 70.051 122 C 74.469 122, 78 120.280, 78 118.129 C 78 114.586, 67.493 113.692, 64.517 116.981 M 193 144.534 C 188.325 145.265, 177.358 147.706, 168.629 149.957 C 155.067 153.456, 152.172 154.553, 148.733 157.496 C 143.466 162.005, 139.211 163.310, 131.401 162.813 C 127.880 162.589, 125 162.718, 125 163.100 C 125 163.482, 126.306 166.428, 127.901 169.647 C 139.672 193.391, 135.451 216.981, 117.791 226.144 C 111.736 229.286, 97.410 229.944, 89.468 227.446 C 77.938 223.819, 70.084 213.373, 68.459 199.500 C 67.726 193.245, 70.115 180.614, 73.380 173.482 C 74.721 170.551, 75.560 167.893, 75.243 167.576 C 74.926 167.259, 73.196 167, 71.398 167 C 67.002 167, 63.654 165.620, 59.023 161.899 C 56.894 160.188, 54.658 159.093, 54.054 159.467 C 52.349 160.520, 45.624 169.925, 42.061 176.239 C 33.820 190.841, 31.705 204.159, 36.506 211.224 C 39.303 215.340, 44.253 217.006, 47.895 215.056 C 49.748 214.064, 50 213.031, 50 206.423 C 50 195.126, 54.469 176, 57.109 176 C 58.409 176, 58.212 178.359, 55.991 189.347 C 52.004 209.066, 53.967 227.792, 61.910 245.821 C 65.381 253.702, 65.661 255.100, 64.567 259.106 C 64.075 260.908, 64.345 262.202, 65.440 263.297 C 69.531 267.388, 85.184 266.124, 88.897 261.403 C 89.963 260.049, 91.096 257.154, 91.417 254.971 C 93.307 242.099, 93.650 243.589, 88.473 242.204 C 83.367 240.838, 82.743 238.354, 87.598 238.718 C 89.194 238.837, 94.118 239.232, 98.540 239.596 C 103.449 239.999, 108.677 239.806, 111.964 239.101 C 115.782 238.282, 117.657 238.257, 118.415 239.015 C 119.716 240.316, 117.826 241.767, 113.654 242.671 C 111.113 243.222, 110.872 243.608, 111.404 246.269 C 111.732 247.909, 112 251.464, 112 254.170 C 112 260.154, 114.617 263.281, 121.080 265.021 C 126.738 266.545, 135.553 265.447, 138.099 262.901 C 139.880 261.120, 139.915 260.735, 138.535 258.068 C 137.118 255.328, 137.225 254.757, 140.482 247.608 C 149.634 227.525, 151.610 208.443, 146.914 185.500 C 146.351 182.750, 145.803 179.646, 145.695 178.601 C 145.421 175.937, 148.011 175.324, 148.683 177.895 C 148.986 179.053, 149.833 180, 150.566 180 C 152.052 180, 175.574 172.032, 180.922 169.717 C 182.885 168.867, 185.897 168.445, 187.991 168.726 C 190.877 169.113, 192.244 168.694, 194.540 166.720 C 197.472 164.197, 198.005 161.050, 196.854 153.029 C 196.564 151.001, 197.185 150.231, 200.316 148.740 C 202.800 147.556, 204.021 146.354, 203.816 145.294 C 203.383 143.063, 202.705 143.016, 193 144.534 M 186.667 148.667 C 185.255 150.079, 186.105 152.090, 188.500 153 C 189.875 153.523, 191 154.674, 191 155.558 C 191 156.851, 190.092 157.100, 186.348 156.833 C 180.469 156.412, 179.382 158.426, 184.364 160.508 C 192.827 164.044, 198.722 156.310, 191.923 150.589 C 188.718 147.892, 187.783 147.550, 186.667 148.667 M 81.348 166.177 C 79.118 167.256, 73.988 177.403, 72.084 184.500 C 70.467 190.527, 70.776 202.068, 72.716 208.135 C 74.974 215.198, 82.538 222.973, 89.437 225.324 C 95.602 227.425, 106.028 227.478, 112.878 225.444 C 119.306 223.535, 125.231 218.379, 128.828 211.563 C 131.282 206.913, 131.498 205.562, 131.473 195 C 131.448 184.281, 131.227 182.991, 128.212 176 C 123.725 165.594, 123.450 165.226, 121.278 166.740 C 110.373 174.340, 98.503 174.769, 89.027 167.905 C 84.620 164.712, 84.453 164.674, 81.348 166.177 M 6.608 216.427 C 5.755 219.823, 7.795 225.697, 11.158 229.527 C 13.629 232.341, 14.925 233, 17.989 233 C 22.091 233, 25 230.084, 25 225.969 C 25 221.010, 22.356 218.833, 12.836 215.950 L 7.159 214.231 6.608 216.427 M 49.711 233.644 C 44.942 236.142, 37.743 236.468, 32.104 234.440 C 26.417 232.395, 24.307 233.205, 27.845 236.073 C 33.024 240.272, 44.372 240.928, 51.156 237.419 C 54.132 235.881, 54.450 235.255, 53.233 233.342 C 52.687 232.485, 51.773 232.563, 49.711 233.644" stroke="none" fill="black" fill-rule="evenodd"/>
</svg>