<svg xmlns="http://www.w3.org/2000/svg" width="189" height="272" viewBox="0 0 189 272" version="1.1">
	<path d="M 100.468 4.326 C 98.250 4.972, 94.849 6.495, 92.911 7.712 L 89.387 9.924 84.524 7.462 C 75.002 2.641, 63.558 5.025, 56.471 13.305 C 53.121 17.219, 52.801 17.355, 47.551 17.112 C 35.276 16.544, 23.128 27.377, 23.008 39 C 22.975 42.142, 22.471 42.776, 18.075 45.200 C 6.537 51.562, 2.010 65.183, 7.390 77.347 L 9.780 82.751 6.736 87.430 C 4.235 91.276, 3.608 93.431, 3.216 99.533 C 2.786 106.238, 3.017 107.506, 5.610 112.629 C 7.188 115.749, 10.364 119.876, 12.667 121.801 C 16.262 124.807, 16.952 126.022, 17.546 130.401 C 18.583 138.048, 20.794 142.668, 25.234 146.469 C 29.272 149.925, 36.494 153, 40.571 153 C 43.625 153, 44.169 155.151, 41.852 158.062 C 37.667 163.320, 30.306 174.772, 27.751 180 C 17.599 200.773, 21.767 219, 36.670 219 L 41.531 219 43.876 228.155 C 45.166 233.190, 47.618 240.503, 49.327 244.405 C 51.422 249.192, 52.606 253.777, 52.966 258.500 C 53.484 265.287, 53.607 265.555, 57 267.308 C 62.027 269.906, 77.735 269.319, 81.738 266.383 C 85.780 263.419, 87.994 258.345, 88.014 252 C 88.037 244.580, 88.682 243.814, 94.597 244.189 L 99.500 244.500 100.291 252.488 C 101.232 261.996, 102.680 264.528, 108.694 267.189 C 112.372 268.816, 114.869 269.126, 122.031 268.845 C 129.730 268.544, 131.169 268.192, 133.436 266.062 C 135.732 263.903, 136.007 262.928, 135.830 257.562 C 135.669 252.654, 136.253 250.048, 138.900 243.870 L 142.170 236.239 147.835 235.598 C 158.039 234.443, 166.320 229.072, 172.545 219.571 C 173.480 218.145, 175.780 216.249, 177.656 215.359 C 185.378 211.695, 188.318 199.955, 183.750 191.025 C 180.444 184.561, 178.657 183.842, 175.268 187.611 C 173.746 189.304, 170.812 191.908, 168.749 193.396 C 162.522 197.890, 160.633 204.153, 163.428 211.039 C 164.278 213.135, 158.030 220.283, 153.448 222.458 C 151.458 223.402, 148.856 223.928, 147.665 223.628 C 145.535 223.090, 145.500 222.759, 145.500 202.902 L 145.500 182.723 154 175.766 C 177.281 156.710, 187.479 142.696, 185.550 132.412 C 184.660 127.671, 180.126 123.312, 174.649 121.933 L 170.004 120.763 175.358 114.980 C 180.864 109.033, 183 103.934, 183 96.739 C 183 91.374, 180.145 83.194, 177.072 79.755 L 174.246 76.592 176.123 72.213 C 181.549 59.556, 175.573 44.898, 162.815 39.567 C 159.658 38.248, 159.158 37.539, 158.557 33.533 C 157.693 27.767, 152.993 21.507, 146.537 17.521 C 142.204 14.846, 140.763 14.500, 133.958 14.500 C 126.646 14.500, 126.132 14.349, 123.361 11.385 C 117.460 5.071, 107.966 2.144, 100.468 4.326 M 100.759 8.423 C 97.475 9.595, 95.147 10.953, 90.499 14.407 C 89.689 15.009, 88.014 14.350, 85.519 12.447 C 82.525 10.163, 80.479 9.498, 75.464 9.179 C 67.802 8.691, 63.195 10.901, 58.223 17.450 L 54.947 21.765 48.659 21.261 C 41.952 20.722, 37.894 22.059, 33.153 26.367 C 29.725 29.482, 27.002 35.371, 26.985 39.710 C 26.965 44.488, 26.261 45.568, 21.965 47.402 C 10.676 52.222, 5.896 65.543, 11.496 76.581 C 12.869 79.286, 13.994 82.066, 13.996 82.759 C 13.998 83.451, 12.649 85.883, 10.997 88.163 C 5.599 95.614, 4.973 103.026, 9.067 111 C 11.075 114.910, 14.921 119.247, 18.406 121.530 C 20.286 122.762, 20.826 124.238, 21.315 129.475 C 21.714 133.744, 22.726 137.189, 24.324 139.722 C 27.332 144.486, 35.285 149, 40.672 149 C 44.194 149, 44.939 149.491, 48.342 154.049 C 55.080 163.074, 61.791 165.445, 71.409 162.198 L 77.118 160.270 81.105 164.101 C 85.155 167.992, 90.039 169.984, 95.554 169.994 C 100.053 170.003, 108.525 165.388, 111.951 161.062 C 114.588 157.732, 115.612 157.203, 120.546 156.624 C 123.627 156.261, 127.732 155.303, 129.668 154.494 C 131.604 153.685, 139.333 147.029, 146.844 139.703 C 154.355 132.377, 161.738 125.611, 163.250 124.668 C 164.961 123.601, 166 122.082, 166 120.644 C 166 119.142, 167.436 117.181, 170.108 115.033 C 175.339 110.830, 178.980 103.223, 178.980 96.500 C 178.980 91.023, 175.146 81.377, 172.576 80.391 C 170.070 79.429, 169.859 76.531, 171.959 71.902 C 177.462 59.773, 171.370 45.824, 158.944 42.101 C 155.290 41.007, 155 40.652, 155 37.276 C 155 31.524, 151.365 25.187, 146.179 21.899 C 140.386 18.225, 135.988 17.428, 129.618 18.899 C 125.710 19.801, 124.433 19.800, 124.132 18.896 C 123.080 15.739, 116.508 10.020, 112.276 8.579 C 106.753 6.697, 105.638 6.681, 100.759 8.423 M 124.389 42.905 C 122.677 43.948, 120.320 46.146, 119.150 47.790 L 117.022 50.777 109.829 48.889 C 96.757 45.457, 79.537 46.795, 68.568 52.095 L 64.588 54.018 61.237 50.568 C 53.027 42.115, 40.031 44.107, 34.953 54.598 C 31.497 61.737, 33.790 70.673, 40.023 74.355 L 42.775 75.980 40.359 81.964 C 36.877 90.584, 35.719 98.179, 36.229 109.057 C 36.625 117.511, 37.063 119.339, 40.022 124.890 C 46.232 136.542, 57.165 143.742, 73.922 147.215 C 91.067 150.770, 112.152 148.347, 127.296 141.082 C 135.297 137.244, 144.549 128.214, 147.872 121 C 153.138 109.565, 151.471 89.996, 144.063 76.306 L 141.253 71.111 143.714 68.806 C 146.763 65.949, 149.007 60.758, 148.978 56.628 C 148.944 51.792, 145.514 45.284, 141.808 43.024 C 137.407 40.341, 128.691 40.281, 124.389 42.905 M 127.500 45.983 C 122.751 48.335, 120.260 51.662, 121.972 53.368 C 122.818 54.211, 123.540 53.933, 124.804 52.277 C 129.238 46.465, 137.016 47.462, 140.341 54.269 C 142.154 57.979, 142.149 58.101, 140.045 62.139 C 137.309 67.388, 138.328 68.435, 142.083 64.234 C 147.316 58.376, 145.158 49.201, 137.717 45.670 C 133.242 43.547, 132.364 43.573, 127.500 45.983 M 42.912 51.280 C 38.968 53.938, 37.034 57.292, 37.018 61.500 C 37.006 64.873, 40.211 70.760, 42.549 71.657 C 45.108 72.639, 45.349 71.259, 43.114 68.418 C 40.201 64.715, 40.387 59.882, 43.589 56.077 C 46.834 52.220, 51.234 51.991, 56.279 55.415 C 58.236 56.743, 60.083 57.584, 60.383 57.283 C 61.394 56.273, 58.898 52.909, 55.686 50.950 C 51.465 48.376, 47.052 48.490, 42.912 51.280 M 85.402 50.971 C 70.284 53.264, 56.249 62.089, 48.406 74.234 C 44.764 79.874, 41.236 90.068, 40.101 98.232 C 36.777 122.128, 48.728 137.907, 74.415 143.539 C 83.944 145.628, 103.925 145.078, 113.500 142.463 C 128.369 138.403, 140.791 128.521, 144.929 117.459 C 148.853 106.972, 147.145 91.113, 140.727 78.448 C 131.074 59.399, 107.390 47.636, 85.402 50.971 M 127.571 52.571 C 125.301 54.842, 125.491 55.257, 130.882 59.803 C 135.524 63.717, 135.842 63.832, 137.382 62.131 C 139.776 59.485, 139.458 54.434, 136.777 52.557 C 133.922 50.556, 129.579 50.563, 127.571 52.571 M 45.807 56.750 C 44.980 57.712, 44.015 59.313, 43.662 60.306 C 42.946 62.319, 45.517 69.368, 46.774 68.838 C 47.215 68.652, 49.574 66.314, 52.015 63.643 L 56.453 58.785 54.116 56.893 C 51.192 54.525, 47.768 54.467, 45.807 56.750 M 115.128 97.564 C 113.032 100.229, 113.208 102.224, 115.807 105.250 C 119.156 109.149, 126 106.179, 126 100.826 C 126 95.178, 118.723 92.994, 115.128 97.564 M 62.655 99.829 C 60.430 102.288, 60.568 105.568, 63 108 C 65.242 110.242, 66.704 110.443, 70.435 109.025 C 72.425 108.268, 73 107.356, 73 104.959 C 73 100.079, 71.393 98, 67.620 98 C 65.683 98, 63.623 98.759, 62.655 99.829 M 86.670 100.623 C 80.117 102.637, 73.465 109.288, 72.542 114.750 C 70.580 126.367, 79.277 135, 92.944 135 C 104.447 135, 113.204 129.487, 115.099 121.053 C 117.087 112.207, 111.323 103.361, 101.711 100.507 C 95.549 98.677, 92.940 98.697, 86.670 100.623 M 90.089 102.110 C 84.778 103.122, 78.392 107.342, 76.430 111.135 C 74.417 115.028, 74.643 121.902, 76.906 125.613 C 83.018 135.637, 103.784 135.208, 110.839 124.913 C 112.759 122.111, 113.102 120.554, 112.754 116.218 C 112.407 111.893, 111.725 110.311, 108.987 107.487 C 104.271 102.621, 97.505 100.696, 90.089 102.110 M 90.250 106.031 C 87.416 107.170, 87.377 109.707, 90.147 112.656 C 91.923 114.547, 92.075 115.205, 91.024 116.471 C 89.429 118.393, 87.677 118.401, 84.007 116.504 C 80.053 114.459, 79.169 116.326, 82.590 119.496 C 85.540 122.230, 87.444 122.542, 91.579 120.970 C 93.488 120.244, 95.312 120.278, 97.753 121.084 C 100.747 122.072, 101.578 121.959, 103.859 120.258 C 106.839 118.035, 107.899 115, 105.696 115 C 104.898 115, 103.667 115.697, 102.960 116.548 C 101.369 118.466, 98.063 118.072, 96.636 115.795 C 95.800 114.462, 96.051 113.575, 97.783 111.730 C 99.003 110.433, 100 108.661, 100 107.793 C 100 105.095, 94.881 104.170, 90.250 106.031 M 125.345 108.403 C 120.179 110.729, 119.791 115.672, 124.602 117.865 C 130.727 120.655, 140 117.696, 140 112.950 C 140 108.726, 130.900 105.902, 125.345 108.403 M 126.836 110.134 C 121.045 112.255, 123.327 117, 130.137 117 C 138.020 117, 140.689 113.022, 134.532 110.449 C 130.600 108.806, 130.475 108.801, 126.836 110.134 M 53.600 111.501 C 47.075 113.787, 46.083 117.827, 51.250 121.067 C 56.983 124.662, 67 121.758, 67 116.500 C 67 111.944, 59.899 109.295, 53.600 111.501 M 51.571 114.571 C 49.220 116.923, 49.631 117.948, 53.586 119.600 C 59.858 122.221, 68.186 117.803, 63.471 114.355 C 60.916 112.487, 53.522 112.621, 51.571 114.571 M 167.023 127.193 C 164.413 128.499, 157.193 134.795, 149.707 142.293 C 135.843 156.180, 129.972 159.972, 122.309 159.990 C 120.004 159.996, 117.851 160.431, 117.526 160.959 C 117.200 161.486, 118.469 164.973, 120.346 168.709 C 127.157 182.262, 128.920 200.053, 124.489 210.500 C 121.870 216.673, 116.340 222.783, 110.659 225.779 C 105.911 228.283, 104.585 228.500, 94 228.500 C 83.434 228.500, 82.084 228.281, 77.377 225.797 C 70.443 222.140, 64.719 215.412, 62.467 208.273 C 59.023 197.355, 60.733 181.697, 66.509 171.250 L 68.859 167 63.680 166.952 C 58.458 166.904, 54.753 165.443, 49.138 161.220 L 46.107 158.940 41.834 164.720 C 31.887 178.172, 26 191.903, 26 201.650 C 26 210.849, 32.219 217.421, 38.843 215.223 C 41.410 214.371, 41.519 214.023, 42.055 204.921 C 42.811 192.084, 46.692 175.785, 48.884 176.241 C 50.807 176.640, 50.803 176.711, 48.112 189.657 C 44.021 209.334, 45.983 228.077, 53.998 245.876 C 57.575 253.820, 57.871 255.070, 56.864 257.961 C 55.878 260.790, 56.004 261.449, 57.899 263.342 C 59.750 265.192, 61.159 265.492, 67.779 265.444 C 76.440 265.382, 81.508 263.425, 82.970 259.579 C 83.456 258.300, 84.161 254.138, 84.536 250.330 L 85.218 243.406 81.370 242.453 C 78.846 241.828, 77.397 240.848, 77.160 239.606 C 76.830 237.879, 77.180 237.789, 81.149 238.589 C 85.740 239.514, 100.821 239.724, 107.391 238.955 C 109.671 238.689, 111.441 238.946, 111.667 239.578 C 112.104 240.801, 107.850 243, 105.048 243 C 103.089 243, 103.082 243.190, 104.600 255.707 C 105.504 263.164, 113.708 267.217, 124.333 265.458 C 131.499 264.271, 132.257 263.502, 131.523 258.166 C 130.989 254.282, 131.400 252.270, 133.952 246.271 C 141.683 228.105, 144.362 209.508, 141.699 192.500 C 140.924 187.550, 140.485 182.973, 140.722 182.328 C 140.960 181.684, 145.692 177.442, 151.239 172.902 C 165.966 160.850, 175.342 151.004, 178.929 143.827 C 182.751 136.178, 182.821 132.922, 179.250 129.051 C 175.468 124.953, 172.423 124.490, 167.023 127.193 M 111.974 166.579 C 104.301 174.906, 85.781 175.218, 78.595 167.141 C 76.194 164.442, 74.601 164.439, 72.095 167.128 C 67.116 172.472, 63 185.361, 63 195.606 C 63 210.129, 69.258 220.296, 81.171 225.131 C 86.051 227.112, 98.361 227.583, 104.035 226.007 C 119.339 221.755, 127.242 205.805, 123.674 186.372 C 122.211 178.406, 118.901 169.671, 115.838 165.697 C 114.522 163.989, 114.318 164.035, 111.974 166.579 M 178 190.970 C 178 191.504, 176.262 192.941, 174.137 194.164 C 169.500 196.832, 166 201.628, 166 205.312 C 166 212.472, 175.487 214.402, 179.718 208.102 C 182.422 204.075, 182.757 197.365, 180.474 192.950 C 178.925 189.954, 178 189.214, 178 190.970 M 166 215.952 C 166 217.573, 158.672 224.191, 155.282 225.632 C 153.512 226.385, 150.280 227, 148.100 227 C 144.965 227, 143.997 227.435, 143.476 229.075 C 143.114 230.217, 143.087 231.421, 143.417 231.750 C 144.693 233.026, 156.454 229.958, 160.176 227.378 C 164.445 224.419, 170.235 217.189, 169.407 215.849 C 168.691 214.690, 166 214.771, 166 215.952" stroke="none" fill="black" fill-rule="evenodd"/>
</svg>