<svg xmlns="http://www.w3.org/2000/svg" width="188" height="272" viewBox="0 0 188 272" version="1.1">
	<path d="M 100.500 3.929 C 96.985 4.777, 93.187 6.659, 90.810 8.729 C 89.306 10.039, 88.512 9.914, 83.622 7.601 C 80.598 6.170, 76.353 5, 74.188 5 C 66.519 5, 56.949 9.990, 53.980 15.537 C 52.760 17.817, 52.176 18.037, 48.839 17.473 C 43.773 16.617, 35.427 19.163, 30.840 22.964 C 26.502 26.559, 22 35.067, 22 39.671 C 22 42.271, 21.405 43.256, 19.120 44.438 C 6.436 50.997, 1.221 66.196, 7.439 78.478 L 9.877 83.295 7.562 86.397 C 4.133 90.994, 2.729 96.445, 3.195 103.349 C 3.672 110.406, 5.918 115.705, 10.212 119.903 C 13.070 122.697, 13.152 123.008, 11.980 126.561 C 11.249 128.775, 10.982 132.539, 11.322 135.835 C 12.320 145.499, 22.856 163.053, 36.652 178.035 C 40.729 182.463, 43.872 186.404, 43.635 186.793 C 43.399 187.182, 42.673 192.558, 42.022 198.740 C 40.377 214.377, 42.368 228.137, 48.497 243.500 C 52.144 252.639, 52.795 255.261, 52.348 259 C 51.876 262.952, 52.136 263.805, 54.485 266 C 56.819 268.181, 58.244 268.545, 65.659 268.856 C 75.424 269.265, 82.067 267.354, 84.665 263.389 C 85.534 262.062, 86.774 257.268, 87.419 252.738 L 88.592 244.500 93.662 244.202 L 98.732 243.905 99.438 251.070 C 100.808 264.971, 105.281 269, 119.348 269 C 132.343 269, 137.352 265.456, 135.079 257.870 C 134.117 254.659, 134.208 253.504, 135.637 250.768 C 136.576 248.970, 138.335 244.575, 139.546 241 L 141.748 234.500 147.773 233.822 C 157.580 232.717, 167.833 226.086, 171.420 218.528 C 172.342 216.584, 174.696 214.175, 176.863 212.957 C 181.879 210.138, 184.218 205.990, 184.374 199.636 C 184.525 193.475, 181.648 185.417, 178.741 183.861 C 176.958 182.907, 176.282 183.179, 174.078 185.737 C 172.660 187.382, 169.786 189.988, 167.691 191.528 C 161.492 196.084, 159.411 202.419, 162.145 208.419 C 163.135 210.593, 162.926 211.408, 160.593 214.467 C 157.695 218.267, 153.450 220.876, 148.250 222.053 L 145 222.789 144.993 210.145 C 144.989 203.190, 144.703 194.503, 144.357 190.841 C 143.779 184.720, 143.921 183.988, 146.114 181.788 C 149.566 178.324, 159.304 166.924, 161.308 164 C 169.589 151.916, 172.367 146.527, 174.461 138.489 C 176.201 131.809, 175.416 127.070, 171.812 122.488 L 169.630 119.715 172.565 117.199 C 182.331 108.827, 185.296 96.072, 180.131 84.659 C 179.095 82.372, 177.326 79.542, 176.199 78.372 C 174.253 76.352, 174.227 76.023, 175.673 71.872 C 178.096 64.919, 177.086 53.598, 173.569 48.283 C 170.958 44.338, 162.718 38, 160.201 38 C 159.583 38, 158.594 36.087, 158.004 33.750 C 156.479 27.707, 155.607 25.875, 152.497 22.179 C 147.860 16.668, 142.641 14.550, 133.632 14.523 L 125.763 14.500 121.624 10.361 C 118.782 7.519, 115.784 5.716, 112.061 4.611 C 106.233 2.880, 105.118 2.814, 100.500 3.929 M 99.759 8.423 C 95.144 10.070, 91 12.720, 91 14.023 C 91 15.823, 87.899 15.025, 84.336 12.307 C 78.985 8.226, 70.622 7.859, 64.516 11.438 C 62.007 12.908, 58.758 15.920, 57.294 18.132 L 54.632 22.154 48.975 21.497 C 36.994 20.107, 26.090 29.512, 26.022 41.297 C 26.003 44.517, 25.522 45.352, 22.852 46.797 C 17.652 49.611, 13.009 54.067, 10.756 58.405 C 7.134 65.382, 8.409 75.127, 13.741 81.212 C 15.093 82.755, 14.968 83.249, 12.469 86.212 C 8.466 90.959, 7 95.142, 7 101.811 C 7 108.419, 9.864 115.073, 14.039 118.165 C 16.134 119.717, 17.040 119.820, 20.136 118.861 C 28.776 116.184, 34.982 120.593, 43.875 135.724 C 46.832 140.755, 52.120 148.499, 55.628 152.935 C 61.853 160.807, 62.109 161, 66.353 161 C 68.745 161, 72.121 160.505, 73.856 159.900 C 76.740 158.895, 77.248 159.054, 79.768 161.752 C 88.197 170.775, 101.324 170.789, 109.976 161.785 L 113.981 157.617 118.797 158.851 C 121.446 159.530, 124.327 159.812, 125.198 159.477 C 126.837 158.849, 138.521 142.309, 143.550 133.500 C 149.569 122.956, 155.482 118, 162.042 118 C 164.808 118, 171.415 113.456, 174.468 109.453 C 180.767 101.195, 180.076 88.665, 172.893 80.885 L 168.878 76.535 171.064 72.158 C 174.110 66.058, 174.095 56.507, 171.030 51.549 C 168.468 47.404, 164.069 43.844, 158.846 41.690 C 155.152 40.166, 154.649 39.333, 153.584 32.974 C 152.835 28.502, 147.939 22.520, 142.943 19.971 C 138.759 17.837, 131.720 17.396, 127.492 19.003 C 125.212 19.870, 124.559 19.645, 122.677 17.348 C 118.121 11.786, 115.057 9.334, 111.228 8.186 C 106.288 6.706, 104.464 6.744, 99.759 8.423 M 124.970 42.250 C 122.520 43.487, 119.613 45.855, 118.508 47.510 C 116.540 50.461, 116.422 50.495, 112.560 49.224 C 98.569 44.619, 81.205 45.520, 68.827 51.491 L 64.037 53.802 60.219 49.984 C 54.180 43.945, 45.258 43.388, 38.994 48.659 C 34.694 52.276, 33 56.071, 33 62.082 C 33 66.889, 33.325 67.588, 37.499 71.762 L 41.999 76.262 39.547 83.058 C 34.210 97.853, 34.026 113.225, 39.060 123.623 C 43.693 133.195, 55.687 141.719, 70 145.613 C 80.256 148.404, 104.023 148.184, 114.379 145.203 C 124.861 142.186, 131.708 138.723, 137.899 133.307 C 152.514 120.522, 155.003 99.629, 144.531 77.642 L 141.180 70.607 144.575 66.641 C 148.186 62.422, 149.631 57.651, 148.573 53.437 C 146.776 46.274, 139.222 40, 132.396 40 C 130.761 40, 127.420 41.013, 124.970 42.250 M 127.500 44.954 C 124.057 46.378, 120.673 50.709, 121.448 52.699 C 122.104 54.385, 122.258 54.366, 123.866 52.397 C 128.098 47.213, 133.778 46.624, 138.077 50.923 C 141.599 54.445, 141.990 59.472, 139.033 63.231 C 137.951 64.607, 137.335 66.002, 137.664 66.331 C 138.729 67.395, 141.938 65.020, 143.490 62.020 C 148.654 52.033, 137.965 40.625, 127.500 44.954 M 42.567 50.946 C 38.647 53.531, 37.078 56.616, 37.035 61.827 C 37.007 65.303, 37.575 66.729, 39.923 69.077 C 44.478 73.632, 46.776 72.827, 43 68 C 39.180 63.116, 41.236 55.159, 46.821 53.212 C 49.953 52.120, 53.491 53.173, 56.644 56.135 C 59.143 58.483, 60.673 57.126, 59.017 54.031 C 56.424 49.187, 47.714 47.553, 42.567 50.946 M 80.500 51.424 C 55.660 57.654, 39.897 78.110, 39.601 104.500 C 39.473 115.889, 41.535 122.155, 47.649 128.954 C 53.152 135.076, 63.367 140.368, 74 142.607 C 85.521 145.034, 105.950 144.084, 116.617 140.627 C 132.435 135.501, 143.258 125.348, 145.866 113.191 C 148.308 101.802, 146.859 91.908, 140.914 79.371 C 137.827 72.863, 135.667 69.953, 130.086 64.786 C 122.104 57.396, 112.648 52.329, 104.281 50.958 C 96.558 49.694, 86.625 49.888, 80.500 51.424 M 127.433 52.304 L 124.754 54.608 129.766 58.804 C 132.522 61.112, 135.223 63, 135.767 63 C 137.631 63, 139.164 57.560, 138.093 54.745 C 136.206 49.782, 131.593 48.726, 127.433 52.304 M 45 57 C 42.818 59.182, 42.409 63.026, 44.035 66.066 C 45.520 68.840, 46.364 68.544, 51.675 63.382 L 56.427 58.764 54.102 56.882 C 51.090 54.442, 47.511 54.489, 45 57 M 114.039 99.189 C 112.918 100.392, 112 101.967, 112 102.689 C 112 104.465, 114.465 104.349, 116 102.500 C 117.657 100.504, 121.895 100.595, 124.195 102.676 C 125.672 104.013, 126.296 104.100, 127.274 103.107 C 128.245 102.120, 127.917 101.356, 125.694 99.430 C 122.062 96.284, 116.846 96.176, 114.039 99.189 M 63.500 100.114 C 60.975 101.547, 59 103.995, 59 105.691 C 59 107.646, 61.445 107.271, 63.500 105 C 65.647 102.627, 67.900 102.457, 70.559 104.468 C 73.006 106.319, 75 106.403, 75 104.655 C 75 101.041, 67.255 97.983, 63.500 100.114 M 83.182 101.597 C 73.950 106.197, 70.463 116.107, 74.969 124.939 C 78.249 131.368, 88.635 135.777, 97.402 134.462 C 102.920 133.635, 109.868 130.057, 112.311 126.785 C 114.402 123.984, 115.657 115.755, 114.622 111.631 C 111.929 100.899, 95.258 95.579, 83.182 101.597 M 84.311 103.483 C 75.769 107.821, 72.822 116.353, 77.184 124.114 C 83.358 135.098, 105.224 135.035, 111.132 124.016 C 116.818 113.409, 109.314 102.310, 95.780 101.311 C 90.419 100.915, 88.741 101.232, 84.311 103.483 M 90.228 104.039 C 86.664 105.471, 86.369 107.859, 89.408 110.678 C 91.550 112.664, 91.861 113.463, 90.928 114.587 C 89.398 116.431, 86.568 116.389, 85 114.500 C 83.419 112.594, 80 112.545, 80 114.427 C 80 115.213, 81.030 116.675, 82.288 117.677 C 83.547 118.680, 85.167 120.941, 85.889 122.701 C 87.408 126.404, 90.887 129, 94.330 129 C 97.062 129, 102 125.502, 102 123.567 C 102 122.859, 103.125 120.621, 104.500 118.595 C 105.875 116.569, 107 114.256, 107 113.456 C 107 111.371, 104.735 111.660, 102.732 114 C 100.696 116.377, 100.003 116.454, 97.441 114.581 C 95.533 113.186, 95.539 113.120, 97.750 110.766 C 100.688 107.639, 100.596 105.592, 97.453 104.161 C 94.492 102.811, 93.334 102.792, 90.228 104.039 M 126.075 107.738 C 124.191 108.707, 122.185 110.261, 121.617 111.191 C 120.178 113.547, 123.221 116.713, 128.217 118.059 C 136.223 120.214, 144.007 112.589, 137.810 108.661 C 133.842 106.145, 129.791 105.827, 126.075 107.738 M 128.095 108.853 C 124.692 109.833, 123.260 112.403, 124.969 114.463 C 126.841 116.718, 135.846 116.215, 137.380 113.769 C 139.434 110.494, 133.432 107.316, 128.095 108.853 M 54.419 110.100 C 52.724 110.578, 50.489 111.907, 49.452 113.053 C 47.743 114.941, 47.704 115.382, 49.033 117.747 C 52.703 124.278, 67 122.385, 67 115.368 C 67 111.333, 60.175 108.475, 54.419 110.100 M 51.513 113.986 C 49.736 115.949, 49.727 116.156, 51.353 117.781 C 53.703 120.131, 61.328 120.100, 63.697 117.731 C 66.550 114.878, 64.305 112.560, 58.343 112.205 C 54.365 111.967, 53.023 112.317, 51.513 113.986 M 91.018 118.784 C 89.123 120.319, 88.921 120.984, 89.835 122.692 C 91.291 125.412, 94.377 126.125, 96.935 124.333 C 99.458 122.566, 99.629 119.455, 97.250 118.616 C 96.287 118.276, 95.006 117.759, 94.401 117.466 C 93.797 117.174, 92.275 117.767, 91.018 118.784 M 17.791 125.056 C 14.891 127.955, 14.761 128.428, 15.234 134.325 C 16.040 144.367, 24.825 159.197, 39.814 175.820 L 47.316 184.141 46.131 196.365 C 44.190 216.375, 47.146 233.515, 55.318 249.642 C 57.549 254.044, 57.757 255.184, 56.794 257.735 C 55.207 261.939, 56.271 263.727, 61.143 265.039 C 69.560 267.305, 81.263 263.876, 82.500 258.781 C 82.804 257.526, 83.405 253.508, 83.836 249.852 L 84.618 243.204 80.572 242.350 C 77.821 241.770, 76.411 240.896, 76.165 239.620 C 75.834 237.900, 76.207 237.817, 80.652 238.622 C 86.832 239.741, 101.204 239.755, 106.843 238.646 C 110.770 237.875, 111.153 237.970, 110.833 239.646 C 110.604 240.845, 109.114 241.838, 106.620 242.456 L 102.761 243.411 103.433 250.820 C 103.802 254.895, 104.778 259.257, 105.601 260.514 C 107.778 263.836, 112.602 265.500, 120.047 265.498 C 127.563 265.495, 132.686 263.104, 131.450 260.176 C 129.677 255.974, 129.987 253.612, 133.335 245.793 C 140.842 228.266, 142.897 212.976, 140.654 191.345 L 139.809 183.191 145.393 177.117 C 160.125 161.092, 170.066 144.230, 170.805 134.015 C 171.163 129.063, 170.895 128.028, 168.517 125.202 C 166.338 122.613, 165.080 122, 161.946 122 C 156.831 122, 152.300 125.981, 147.372 134.805 C 143.375 141.962, 137.049 151.515, 131.166 159.279 C 128.031 163.416, 127.171 163.988, 124.772 163.529 C 123.247 163.238, 120.687 162.747, 119.083 162.439 L 116.166 161.877 119.498 168.189 C 128.956 186.101, 128.801 207.305, 119.126 219.034 C 112.831 226.665, 99.728 230.754, 87.645 228.858 C 79.702 227.612, 75.906 225.876, 70.771 221.143 C 59.008 210.300, 57.049 192.432, 65.465 172.750 L 68.780 165 64.736 165 C 61.262 165, 60.140 164.402, 56.766 160.750 C 53.009 156.685, 40.963 139.136, 39.775 136 C 38.539 132.735, 32.765 125.828, 29.720 123.971 C 25.040 121.117, 21.398 121.448, 17.791 125.056 M 72.573 165.516 C 71.223 166.973, 68.657 171.615, 66.872 175.832 C 64.106 182.363, 63.562 185.008, 63.202 193.669 C 62.812 203.047, 62.987 204.291, 65.446 209.669 C 68.924 217.274, 72.173 220.616, 79.500 224.125 C 90.965 229.616, 107.216 227.407, 115.469 219.235 C 121.004 213.754, 123.202 208.044, 123.770 197.668 C 124.304 187.886, 122.518 179.026, 118.393 171 C 114.408 163.246, 114.661 163.375, 110.297 166.882 C 101.349 174.072, 87.810 173.809, 79.006 166.273 L 75.027 162.868 72.573 165.516 M 171.202 193.733 C 164.491 200.021, 163.411 203.286, 166.557 207.777 C 168.832 211.025, 174.856 210.847, 178.059 207.437 C 180.031 205.338, 180.461 203.845, 180.436 199.187 C 180.419 196.059, 179.730 192.245, 178.904 190.711 L 177.404 187.923 171.202 193.733 M 162.453 218.119 C 157.939 222.823, 151.940 225.946, 147.357 225.978 C 144.609 225.997, 143 227.374, 143 229.706 C 143 230.004, 145.455 230.044, 148.455 229.795 C 155.433 229.217, 163.488 224.105, 166.814 218.146 C 169.897 212.622, 167.741 212.608, 162.453 218.119" stroke="none" fill="black" fill-rule="evenodd"/>
</svg>