<svg xmlns="http://www.w3.org/2000/svg" width="195" height="270" viewBox="0 0 195 270" version="1.1">
	<path d="M 113 3.013 C 108.483 3.594, 104.819 5.113, 101.970 7.585 C 100.677 8.706, 99.529 8.453, 94.579 5.956 C 90.596 3.947, 87.242 3.003, 84.109 3.010 C 77.768 3.023, 69.827 6.890, 66.310 11.676 C 63.572 15.402, 63.359 15.492, 58 15.178 C 50.674 14.750, 45.714 16.360, 40.865 20.741 C 36.070 25.073, 33.434 29.922, 32.505 36.121 C 31.889 40.224, 31.419 40.872, 27.935 42.409 C 22.860 44.648, 17.484 51.027, 15.410 57.271 C 13.423 63.253, 13.976 70.073, 16.915 75.834 L 18.941 79.805 16.931 82.360 C 13.671 86.505, 10.793 95.955, 11.387 100.563 C 12.226 107.073, 15.561 113.614, 20.623 118.675 C 24.744 122.797, 25.380 124.001, 25.729 128.356 C 26.597 139.190, 33.277 146.880, 44.274 149.706 C 48.112 150.693, 51.480 152.092, 51.758 152.816 C 52.037 153.540, 50.901 155.565, 49.234 157.316 C 45.249 161.502, 37.910 173.177, 35.188 179.661 C 28.420 195.781, 28.515 206.162, 35.496 213.565 C 38.737 217.001, 39.202 217.172, 44.404 216.845 L 49.892 216.500 50.946 220.693 C 51.526 222.999, 52 225.127, 52 225.422 C 52 225.718, 50.218 226.868, 48.040 227.980 C 42.974 230.564, 36.458 230.577, 32.250 228.011 C 29.495 226.331, 29 225.447, 29 222.202 C 29 216.746, 25.378 213.687, 14.695 210.121 C 6.742 207.465, 5.881 207.354, 5.069 208.871 C -0.443 219.171, 7.860 235, 18.774 235 C 20.373 235, 24.115 236.331, 27.090 237.959 C 35.435 242.523, 44.504 242.742, 54.047 238.612 C 56.260 237.654, 61.282 249.962, 61.068 255.821 C 60.848 261.853, 61.670 263.778, 65.257 265.633 C 68.947 267.541, 81.896 267.773, 86.500 266.014 C 93.087 263.495, 95.095 259.815, 96.489 247.700 L 97.156 241.901 102.328 242.200 L 107.500 242.500 108.179 249.372 C 109.020 257.880, 110.462 261.481, 114.051 264.037 C 120.811 268.850, 137.444 268.471, 141.824 263.404 C 143.801 261.118, 144.054 260.026, 143.517 256.108 C 143.013 252.438, 143.390 250.358, 145.367 245.892 C 148.286 239.298, 152.760 224.784, 153.195 220.500 C 153.491 217.587, 153.678 217.486, 159.671 217 C 166.570 216.441, 170.190 214.005, 172.629 208.282 C 177.053 197.900, 170.235 176.156, 157.625 160.431 C 152.843 154.468, 152.323 153.384, 153.259 151.331 C 153.876 149.976, 155.196 148.998, 156.411 148.994 C 160.882 148.982, 166.314 146.711, 170.143 143.252 C 175.534 138.381, 178 133.259, 178 126.932 C 178 122.029, 178.256 121.531, 183.369 116.499 C 193.682 106.350, 194.870 91.892, 186.332 80.438 L 184.049 77.376 186.025 72.177 C 188.542 65.553, 188.523 60.473, 185.957 53.615 C 183.726 47.652, 178.136 41.790, 172.390 39.389 C 169.809 38.311, 169 37.372, 169 35.454 C 169 34.069, 168.348 31.375, 167.551 29.468 C 163.311 19.319, 154.569 13.711, 143.259 13.883 C 136.676 13.983, 136.412 13.890, 133.707 10.499 C 129.055 4.670, 121.460 1.924, 113 3.013 M 108.500 8.434 C 105.750 9.822, 102.712 11.528, 101.750 12.224 C 100.338 13.245, 99.662 13.245, 98.250 12.224 C 91.334 7.219, 82.968 5.733, 76.626 8.383 C 74.806 9.143, 71.413 12.023, 69.087 14.782 L 64.858 19.797 59.075 19.273 C 51.812 18.614, 47.241 20.092, 42.600 24.600 C 38.358 28.720, 36.006 33.793, 35.985 38.872 C 35.970 42.258, 35.586 42.705, 30.235 45.578 C 22.799 49.569, 18.788 55.664, 18.225 63.827 C 17.893 68.653, 18.279 70.326, 20.809 75.029 L 23.784 80.558 20.927 83.756 C 15.078 90.302, 13.899 100.780, 18.076 109.095 C 19.815 112.557, 26.199 119, 27.890 119 C 28.341 119, 28.976 122.170, 29.300 126.044 C 30.371 138.816, 38.518 146.970, 50.230 146.994 C 52.373 146.999, 53.373 147.806, 54.882 150.750 C 59.832 160.402, 70.121 164.336, 80.038 160.368 L 84.116 158.736 87.447 162.373 C 95.590 171.262, 108.479 171.319, 117.548 162.505 L 122.068 158.113 126.160 159.556 C 131.779 161.539, 135.235 161.370, 140.596 158.850 C 144.807 156.870, 146.811 154.605, 150.636 147.500 C 151.411 146.061, 153.168 145.319, 156.900 144.854 C 167.453 143.539, 175.413 134.190, 174.872 123.745 C 174.660 119.654, 174.992 119.047, 180.227 113.942 C 186.031 108.282, 187.983 104.005, 187.994 96.928 C 188.003 91.705, 185.407 84.958, 181.982 81.296 L 178.984 78.092 181.023 74.180 C 184.014 68.441, 184.590 61.291, 182.553 55.160 C 180.683 49.530, 176.966 45.780, 170.336 42.833 C 166.646 41.193, 166.093 40.501, 165.467 36.741 C 163.881 27.216, 157.538 20.048, 148.853 17.965 C 145.288 17.110, 143.173 17.093, 140.854 17.901 C 135.876 19.636, 134.483 19.237, 132.736 15.572 C 130.729 11.365, 123.977 7.212, 117.919 6.459 C 114.441 6.026, 112.435 6.447, 108.500 8.434 M 135.162 42.149 C 132.776 43.330, 129.865 45.759, 128.693 47.547 L 126.562 50.798 121.531 48.813 C 110.578 44.491, 92.247 44.837, 80.367 49.590 L 73.996 52.139 70.668 48.609 C 66.876 44.589, 63.400 43, 58.395 43 C 50.824 43, 43.591 49.581, 42.280 57.661 C 41.622 61.714, 45.147 69.309, 49.011 72.166 L 51.789 74.220 49.431 79.369 C 46.588 85.580, 44 97.324, 44 104.016 C 44 126.709, 58.245 141.365, 85.287 146.495 C 96.191 148.563, 107.316 148.380, 119.343 145.934 C 142.101 141.306, 155.771 129.475, 159.079 111.542 C 160.843 101.980, 158.766 88.868, 153.817 78.314 L 150.916 72.128 154.329 67.656 C 156.207 65.196, 158.015 61.680, 158.346 59.842 C 159.784 51.879, 154.686 43.421, 147.074 41.140 C 141.775 39.553, 140.124 39.693, 135.162 42.149 M 136.500 45.842 C 132.412 48.341, 130.656 50.661, 131.394 52.585 C 131.913 53.937, 132.580 53.698, 135.541 51.098 C 140.209 46.999, 144.138 46.984, 148.202 51.048 C 150.868 53.714, 151.183 54.602, 150.710 58.126 C 150.413 60.342, 149.384 63.023, 148.424 64.084 C 147.464 65.144, 146.998 66.331, 147.387 66.721 C 148.550 67.883, 151.379 65.582, 153.284 61.925 C 158.737 51.451, 146.502 39.726, 136.500 45.842 M 52.314 48.950 C 50.561 50.019, 48.608 51.865, 47.972 53.053 C 46.058 56.628, 46.432 63.760, 48.691 66.798 C 50.713 69.517, 55 71.060, 55 69.070 C 55 68.481, 54.562 68, 54.026 68 C 52.613 68, 50 62.526, 50 59.565 C 50 56.551, 54.673 51.175, 57.500 50.938 C 61.489 50.603, 62.774 51.047, 65.395 53.668 C 68.754 57.027, 71.106 55.618, 68.579 51.761 C 65.354 46.839, 57.892 45.549, 52.314 48.950 M 88.973 50.883 C 70.100 55.979, 56.702 68.619, 50.692 87 C 47.693 96.169, 47.680 113.484, 50.665 120.018 C 54.737 128.927, 66.179 137.592, 79 141.475 C 86.385 143.712, 107.033 144.633, 115.186 143.090 C 145.098 137.430, 158.575 121.624, 155.147 96.225 C 152.032 73.149, 136.241 55.513, 114.303 50.609 C 105.157 48.565, 97.241 48.650, 88.973 50.883 M 137.451 52.289 L 134.790 54.578 140.286 59.273 C 145.160 63.437, 145.930 63.790, 147.091 62.391 C 149.271 59.763, 148.723 54.004, 146.089 51.871 C 143.034 49.397, 140.680 49.511, 137.451 52.289 M 55 55 C 50.943 59.057, 53.582 68.385, 57.769 64.789 C 58.721 63.972, 60.967 62.031, 62.760 60.477 L 66.021 57.651 63.836 55.325 C 61.154 52.471, 57.658 52.342, 55 55 M 124.635 96.073 C 121.468 98.563, 121.209 102.209, 124 105 C 128.121 109.121, 134 106.316, 134 100.228 C 134 98.143, 133.265 96.599, 131.777 95.557 C 128.860 93.513, 127.791 93.590, 124.635 96.073 M 70.595 98.168 C 68.581 101.043, 68.581 102.957, 70.595 105.832 C 72.904 109.129, 78.524 108.522, 80.815 104.730 C 82.329 102.223, 82.343 101.701, 80.962 99.230 C 78.854 95.456, 72.920 94.848, 70.595 98.168 M 95.994 98.875 C 82.210 103.395, 76.135 116.359, 83.170 126.239 C 89.861 135.635, 111.753 136.024, 119.445 126.883 C 126.963 117.948, 123.954 106.164, 112.663 100.325 C 109.176 98.522, 99.608 97.690, 95.994 98.875 M 97.500 100.885 C 92.682 102.139, 88.431 104.699, 85.619 108.041 C 83.483 110.579, 83 112.176, 83 116.694 C 83 121.773, 83.316 122.551, 86.786 126.022 C 93.166 132.401, 103.953 133.615, 113.044 128.977 C 123.686 123.548, 123.604 108.410, 112.902 102.950 C 108.390 100.648, 101.803 99.765, 97.500 100.885 M 96.410 106.099 C 94.532 108.175, 94.543 108.223, 97.354 110.466 C 100.837 113.243, 100.616 116.368, 96.906 116.801 C 95.474 116.967, 93.757 116.412, 93.042 115.551 C 91.089 113.197, 88.805 113.605, 89.180 116.241 C 89.672 119.684, 94.371 121.527, 98.880 120.043 C 101.463 119.193, 103.277 119.149, 105.213 119.887 C 108.615 121.185, 113.595 119.626, 115.114 116.787 C 116.907 113.436, 114.525 112.158, 111.602 114.904 C 108.907 117.436, 106.273 117.388, 104.629 114.777 C 103.802 113.464, 103.907 112.750, 105.071 111.777 C 105.911 111.075, 107.154 109.760, 107.834 108.856 C 111.073 104.545, 100.193 101.919, 96.410 106.099 M 133.242 107.981 C 132 108.509, 130.441 110.133, 129.778 111.588 C 128.689 113.977, 128.842 114.467, 131.342 116.618 C 138.407 122.695, 152.631 116.186, 146.243 109.799 C 143.944 107.499, 136.741 106.492, 133.242 107.981 M 59.194 110.527 C 57.473 111.769, 56.965 112.984, 57.194 115.311 C 57.446 117.874, 58.160 118.679, 61.207 119.834 C 65.683 121.530, 70.802 120.765, 73.825 117.949 C 76.471 115.483, 76.508 114.848, 74.166 111.957 C 71.706 108.919, 62.622 108.051, 59.194 110.527 M 135 109.895 C 133.201 110.395, 132.500 111.279, 132.500 113.045 C 132.500 115.034, 133.186 115.670, 136.113 116.393 C 143.392 118.192, 148.620 114.540, 144.056 110.844 C 141.706 108.941, 139.325 108.692, 135 109.895 M 60.750 112.080 C 55.314 115.246, 62.701 120.244, 69.500 118 C 75.810 115.917, 73.191 110.963, 65.816 111.030 C 63.992 111.047, 61.712 111.519, 60.750 112.080 M 146.500 159.612 C 142.559 162.806, 133.858 165.347, 129.865 164.470 C 128.159 164.096, 126.952 164.174, 127.183 164.645 C 132.961 176.426, 135 183.851, 135 193.105 C 135 211.580, 125.286 223.892, 108.291 226.954 C 96.260 229.122, 82.695 224.531, 75.832 215.967 C 67.520 205.594, 66.896 186.518, 74.322 169.840 L 75.951 166.181 70.726 165.486 C 65.576 164.802, 56 160.480, 56 158.841 C 56 156.899, 53.206 158.230, 50.990 161.227 C 41.892 173.533, 37.032 183.382, 34.854 193.929 C 33.283 201.536, 34.373 206.573, 38.479 210.679 C 42.017 214.217, 43.368 214.571, 47.435 213.025 C 49.817 212.119, 50 211.596, 50 205.701 C 50 193.725, 54.287 174, 56.890 174 C 58.817 174, 58.814 175.624, 56.871 183.520 C 55.791 187.909, 54.658 196.675, 54.353 203 C 53.681 216.955, 55.708 227.536, 62.059 243.227 C 65.339 251.330, 66.028 254.028, 65.319 256 C 64.825 257.375, 64.579 259.262, 64.772 260.193 C 65.642 264.374, 80.660 265.135, 87.177 261.329 C 90.708 259.266, 91.373 257.544, 92.351 247.929 L 93.019 241.357 89.270 240.429 C 86.871 239.834, 85.394 238.833, 85.167 237.646 C 84.847 235.970, 85.230 235.875, 89.157 236.646 C 94.661 237.728, 110.302 237.753, 115.335 236.689 C 118.727 235.971, 119.130 236.087, 118.823 237.689 C 118.632 238.685, 117.040 239.966, 115.286 240.535 C 113.532 241.104, 111.857 241.810, 111.563 242.103 C 111.270 242.397, 111.697 246.431, 112.513 251.069 C 113.330 255.706, 113.998 259.635, 113.999 259.799 C 113.999 259.963, 115.912 260.966, 118.250 262.027 C 120.912 263.235, 124.555 263.927, 128 263.878 C 138.407 263.731, 141.413 261.581, 139.243 255.834 C 138.169 252.988, 138.328 251.974, 140.616 247.058 C 150.217 226.427, 152.566 205.481, 147.608 184.725 C 145.461 175.736, 145.607 172.180, 148.023 174.637 C 150.014 176.662, 153.283 192.155, 153.760 201.826 C 154.249 211.757, 154.366 212.189, 156.808 213.117 C 160.863 214.659, 164.777 213.221, 167.521 209.184 C 173.352 200.603, 168.899 182.982, 156.471 165.447 C 150.426 156.919, 150.075 156.714, 146.500 159.612 M 119.913 165.610 C 111.514 174.608, 93.519 174.868, 85.595 166.106 C 82.076 162.215, 80.183 163.350, 76.422 171.602 C 67.458 191.271, 70.549 211.685, 83.760 220.063 C 90.245 224.175, 95.147 225.292, 104.500 224.785 C 116.926 224.112, 124.517 219.394, 129.169 209.452 C 134.437 198.195, 133.877 184.913, 127.526 170.500 C 124.366 163.328, 122.913 162.395, 119.913 165.610 M 7 216.032 C 7 223.447, 12.702 231, 18.300 231 C 22.679 231, 25.400 228.057, 25.400 223.321 C 25.400 218.887, 22.956 216.710, 15.560 214.560 C 7.860 212.322, 7 212.470, 7 216.032 M 49.771 231.745 C 44.941 234.123, 37.487 234.458, 32.422 232.523 C 29.467 231.395, 27.486 231.114, 26.864 231.736 C 24.980 233.620, 34.493 238, 40.468 238 C 45 238, 54.003 235.144, 53.985 233.711 C 53.951 231.049, 52.531 230.386, 49.771 231.745" stroke="none" fill="black" fill-rule="evenodd"/>
</svg>