<svg xmlns="http://www.w3.org/2000/svg" width="193" height="256" viewBox="0 0 193 256" version="1.1">
	<path d="M 96.030 4.113 C 94.671 4.655, 92.150 6.174, 90.427 7.488 L 87.295 9.877 82.397 7.356 C 78.264 5.227, 76.531 4.906, 71.290 5.299 C 63.852 5.855, 57.021 9.451, 53.720 14.547 C 51.604 17.815, 51.220 17.977, 45.500 18.010 C 37.740 18.054, 32.525 20.461, 27.281 26.418 C 23.499 30.714, 21 37.095, 21 42.454 C 21 43.200, 18.956 45.008, 16.458 46.472 C 4.770 53.321, 0.840 68.927, 7.873 80.555 C 9.604 83.417, 9.586 83.534, 6.684 88.202 C 2.898 94.292, 1.879 104.372, 4.430 110.503 C 6.926 116.504, 10.878 121.762, 14.639 124.086 C 17.595 125.913, 18 126.672, 18 130.385 C 18 136.262, 22.129 144.125, 26.981 147.487 C 31.519 150.632, 37.369 152.893, 41.128 152.956 C 42.573 152.980, 44.373 153.759, 45.128 154.687 C 46.337 156.173, 46.280 156.292, 44.657 155.683 C 40.319 154.055, 38.045 153.907, 35.843 155.109 C 34.554 155.812, 32.600 156.413, 31.500 156.444 C 29.656 156.496, 29.527 157.066, 29.848 163.739 C 30.165 170.339, 29.966 171.252, 27.598 174.066 C 22.594 180.012, 24.774 193.126, 31.420 197.059 C 36.099 199.828, 37 200.865, 37 203.483 C 37 205.093, 37.990 206.472, 39.999 207.659 L 42.999 209.430 40.749 210.656 C 39.322 211.434, 36.470 211.676, 32.947 211.319 C 28.087 210.827, 27.051 211.052, 24.636 213.130 C 17.655 219.134, 21 236.350, 30.400 242.791 C 34.696 245.735, 40.977 245.667, 57.422 242.501 C 68.902 240.291, 71.051 240.144, 76.676 241.180 C 82.238 242.205, 83.245 242.750, 84.965 245.664 C 89.279 252.977, 96.779 254.532, 113.526 251.585 C 129.387 248.793, 141.315 243.628, 147.931 236.686 C 151.496 232.945, 152.910 232.171, 157.073 231.678 C 168.470 230.328, 177.459 223.140, 180.980 212.561 C 182.093 209.216, 183.889 205.926, 184.970 205.251 C 190.604 201.732, 191.939 189.985, 187.556 182.506 C 184.938 178.039, 181.595 175, 179.298 175 C 178.606 175, 177.104 176.688, 175.960 178.750 C 174.816 180.813, 172.332 184.688, 170.440 187.363 C 166.465 192.982, 166.051 197.047, 169 201.500 C 170.093 203.150, 170.973 205.625, 170.956 207 C 170.915 210.274, 165.425 216.546, 161 218.373 L 157.500 219.818 157.477 207.159 C 157.460 197.757, 156.890 192.056, 155.263 185 C 152.844 174.508, 148.210 160.240, 145.553 155.103 C 142.891 149.956, 144.076 147.366, 149.463 146.558 C 160.244 144.941, 169 134.474, 169 123.204 C 169 118.160, 169.294 117.480, 173.060 113.826 C 178.519 108.528, 181 102.453, 181 94.385 C 181 87.386, 179.528 82.869, 175.544 77.647 C 173.059 74.388, 173.029 74.170, 174.493 70.020 C 178.926 57.457, 173.735 43.565, 162.697 38.451 C 158.145 36.342, 157.613 35.710, 155.637 30.061 C 151.543 18.359, 142.070 12.172, 129.930 13.273 C 124.310 13.782, 124.043 13.694, 120.953 10.298 C 119.201 8.373, 115.908 5.954, 113.634 4.921 C 109.138 2.879, 100.154 2.467, 96.030 4.113 M 98.761 7.516 C 96.705 8.270, 93.216 10.339, 91.007 12.114 L 86.992 15.341 84.746 13.361 C 79.654 8.873, 71.400 7.681, 64.726 10.470 C 61.475 11.828, 54 19.292, 54 21.180 C 54 21.631, 50.945 22, 47.212 22 C 34.613 22, 26.155 29.090, 25.214 40.438 C 24.760 45.905, 24.716 45.969, 19.434 48.950 C 8.707 55.004, 5.308 67.633, 11.418 78.731 L 14.298 83.963 11.705 87.731 C 8.122 92.938, 7 96.328, 7 101.943 C 7 110.066, 10.960 117.056, 18.125 121.579 C 21.787 123.891, 22 124.302, 22 129.052 C 22 136.976, 26.720 144.434, 33.315 146.933 C 34.863 147.520, 38.254 148, 40.849 148 C 44.981 148, 45.779 148.356, 47.258 150.860 C 48.187 152.433, 50.684 155.288, 52.805 157.205 C 57.585 161.523, 62.526 162.471, 69.988 160.503 C 72.998 159.709, 75.841 159.441, 76.308 159.908 C 76.774 160.374, 80.383 159.960, 84.328 158.987 C 98.340 155.530, 97.748 155.485, 102.637 160.374 L 107.013 164.750 110.082 161.254 L 113.151 157.759 119.074 159.016 C 124.241 160.112, 125.564 160.056, 129.435 158.578 C 134.313 156.715, 140.589 150.485, 141.585 146.517 C 142.220 143.988, 142.835 143.700, 150.087 142.543 C 152.119 142.219, 155.446 140.454, 157.759 138.475 C 162.943 134.037, 165.432 127.845, 164.776 121.018 C 164.303 116.094, 164.375 115.934, 168.662 112.421 C 179.214 103.774, 180.643 88.992, 171.849 79.452 L 167.983 75.257 169.969 70.879 C 172.133 66.110, 172.581 58.513, 171.020 53.069 C 169.663 48.339, 165.461 44.173, 159.218 41.369 C 156.313 40.064, 153.769 38.435, 153.566 37.748 C 153.362 37.062, 152.628 34.310, 151.935 31.634 C 150.425 25.801, 147.109 21.606, 141.914 18.956 C 137.771 16.843, 129.826 16.355, 125.615 17.956 C 123.379 18.807, 122.747 18.469, 119.936 14.919 C 114.517 8.077, 105.668 4.983, 98.761 7.516 M 120.500 42.527 C 118.850 43.360, 116.150 45.570, 114.500 47.438 L 111.500 50.835 104.500 48.975 C 90.769 45.327, 72.177 46.974, 61.903 52.750 L 57.087 55.457 54.293 52.792 C 48.840 47.589, 41.351 46.551, 35.004 50.118 C 25.135 55.664, 24.367 70.001, 33.578 76.711 L 36.048 78.510 33.477 86.005 C 30.416 94.929, 29.277 107.403, 30.853 114.748 C 33.700 128.026, 42.484 138.526, 55.128 143.768 C 65.981 148.267, 73.058 149.345, 87.761 148.741 C 111.942 147.747, 129.713 139.998, 139.100 126.354 C 142.808 120.965, 146 110.365, 146 103.442 C 146 96.882, 142.679 84.288, 139.057 77.113 L 136.202 71.457 139.052 68.268 C 144.628 62.028, 144.949 53.019, 139.829 46.509 C 135.730 41.299, 126.641 39.426, 120.500 42.527 M 119.250 48.055 C 117.463 49.731, 116 51.754, 116 52.551 C 116 54.655, 118.754 54.328, 119.957 52.080 C 121.381 49.419, 127.027 47.679, 130.255 48.907 C 135.902 51.054, 137.902 59.312, 133.982 64.295 C 131.212 67.818, 133.322 68.835, 136.433 65.477 C 139.558 62.106, 140.461 57.926, 139.012 53.536 C 136.175 44.940, 125.680 42.029, 119.250 48.055 M 80.500 50.718 C 69.722 52.222, 54.896 59.904, 48.294 67.403 C 39.945 76.889, 34 92.576, 34 105.125 C 34 112.644, 38.126 127.836, 38.782 122.728 C 39.234 119.200, 42.968 116.727, 47.844 116.727 C 53.358 116.727, 56.189 118.536, 55.810 121.817 C 55.353 125.775, 49.444 128.493, 44.353 127.087 C 42.296 126.519, 40.390 126.276, 40.119 126.548 C 38.878 127.789, 49.128 136.535, 55.380 139.571 C 65.234 144.356, 71.186 145.317, 87.482 144.752 C 98.999 144.353, 102.941 143.798, 109.578 141.644 C 139.813 131.829, 149.806 107.409, 135.342 78.687 C 125.654 59.448, 102.512 47.647, 80.500 50.718 M 122.655 52.829 C 121.745 53.835, 121.029 55.072, 121.064 55.579 C 121.137 56.636, 129.745 64, 130.908 64 C 131.921 64, 134 59.389, 134 57.142 C 134 52.122, 126.035 49.094, 122.655 52.829 M 34.400 55.400 C 31.448 58.352, 31 59.453, 31 63.754 C 31 67.626, 31.535 69.286, 33.452 71.354 C 34.801 72.809, 36.671 74, 37.607 74 C 39.166 74, 39.176 73.852, 37.725 72.248 C 31.485 65.353, 35.004 55, 43.588 55 C 45.316 55, 47.856 55.885, 49.231 56.967 C 51.581 58.815, 53 58.759, 53 56.819 C 53 54.963, 46.339 52.007, 42.150 52.004 C 38.534 52.001, 37.227 52.573, 34.400 55.400 M 39.073 59.635 C 36.535 62.861, 36.429 66.073, 38.764 68.957 L 40.527 71.135 43.950 66.567 C 45.832 64.055, 47.738 62, 48.186 62 C 49.794 62, 48.960 59.049, 47.066 58.035 C 43.874 56.327, 41.264 56.850, 39.073 59.635 M 101.595 105.168 C 99.314 108.424, 99.614 110.551, 102.695 112.975 C 106.243 115.766, 110.009 115.269, 111.968 111.750 C 113.344 109.280, 113.344 108.720, 111.969 106.250 C 109.856 102.456, 103.928 101.838, 101.595 105.168 M 50.956 105.553 C 47.608 109.587, 50.471 116, 55.620 116 C 60.397 116, 62.928 109.071, 59.429 105.571 C 57.413 103.556, 52.622 103.546, 50.956 105.553 M 72.500 107.823 C 64.581 111.596, 61 116.607, 61 123.917 C 61 138.896, 86.601 144.947, 97.917 132.644 C 101.250 129.019, 101.880 120.882, 99.206 116 C 94.776 107.914, 81.100 103.727, 72.500 107.823 M 74.574 109.434 C 61.159 114.393, 59.203 129.558, 71.271 135.036 C 83.717 140.686, 98.993 134.054, 98.993 123 C 98.993 112.981, 85.401 105.431, 74.574 109.434 M 73.245 114.155 C 71.376 116.024, 71.743 118.706, 74.091 120.351 C 76.542 122.068, 76.288 125.321, 73.664 125.826 C 72.667 126.018, 71.013 125.417, 69.989 124.490 C 68.207 122.877, 66 123.153, 66 124.988 C 66 128.286, 72.926 130.180, 77.005 127.997 C 78.257 127.327, 79.084 127.327, 79.498 127.997 C 80.577 129.742, 87.548 129.157, 89.345 127.171 C 91.059 125.278, 91.562 122.976, 90.250 123.032 C 89.838 123.049, 88.626 123.724, 87.559 124.532 C 85.133 126.367, 83.897 126.377, 81.441 124.581 C 79.536 123.188, 79.544 123.115, 81.832 120.678 C 83.257 119.162, 84.035 117.282, 83.832 115.848 C 83.547 113.835, 82.858 113.458, 78.995 113.205 C 76.356 113.033, 73.974 113.426, 73.245 114.155 M 112.098 115.211 C 108.609 117.083, 107.262 119.600, 108.597 121.750 C 111.459 126.357, 119.984 127.016, 124.056 122.944 C 126.448 120.552, 126.471 119.803, 124.240 117.048 C 122.079 114.379, 115.502 113.384, 112.098 115.211 M 113.352 116.993 C 107.931 119.181, 110.277 123.273, 116.899 123.182 C 121.839 123.114, 123 122.492, 123 119.916 C 123 118.726, 121.988 117.566, 120.435 116.975 C 117.412 115.826, 116.239 115.829, 113.352 116.993 M 42.200 120.200 C 40.257 122.143, 40.813 123.978, 43.674 125.066 C 48.896 127.052, 55.681 123.730, 53 120.500 C 51.495 118.686, 43.924 118.476, 42.200 120.200 M 138.442 157.560 C 133.902 161.607, 129.695 163, 122.006 163 L 114.949 163 116.500 166 C 118.241 169.367, 119.189 169.683, 121 167.500 C 122.575 165.602, 126 165.542, 126 167.411 C 126 169.795, 119.942 174.130, 110.276 178.664 C 100.480 183.259, 97.641 186.061, 97.781 190.992 C 97.909 195.489, 99.611 197.686, 104.378 199.507 C 108.083 200.921, 109.639 201.009, 114.205 200.061 C 121.562 198.534, 130.926 193.965, 135.888 189.482 C 138.540 187.086, 140.557 186, 141.607 186.403 C 143.049 186.956, 143.067 187.271, 141.764 189.262 C 139.624 192.534, 130.294 198.818, 124.648 200.790 C 121.219 201.987, 119.463 203.250, 118.791 205 C 118.263 206.375, 117.206 208.753, 116.443 210.284 C 115.088 213, 115.119 213.060, 117.742 212.784 C 119.597 212.588, 120.535 213.016, 120.772 214.167 C 121.038 215.459, 119.915 216.083, 115.782 216.941 C 112.849 217.550, 109.023 218.916, 107.280 219.976 C 104.434 221.707, 104.169 222.266, 104.686 225.452 C 105.361 229.611, 104.006 230.095, 101.304 226.659 C 97.249 221.504, 91.063 220.448, 88.433 224.462 C 84.511 230.448, 85.893 241.614, 91.181 246.664 C 93.926 249.287, 94.691 249.487, 101.378 249.330 C 105.354 249.237, 113.216 248.024, 118.848 246.633 C 141.120 241.136, 148.698 234.862, 152.489 218.781 C 155.501 206.008, 153.532 189.490, 146.495 168.500 C 141.613 153.937, 141.967 154.418, 138.442 157.560 M 45.372 164.044 C 49.702 166.819, 53.487 168.846, 53.783 168.550 C 55.432 166.901, 43.881 159, 39.822 159 C 38.126 159, 39.623 160.361, 45.372 164.044 M 89.073 161.532 C 81.594 163.367, 74.953 165.961, 72.115 168.156 C 68.911 170.634, 69.408 170.561, 84.733 166.307 C 92.256 164.220, 97.885 162.155, 97.686 161.557 C 97.178 160.032, 95.209 160.026, 89.073 161.532 M 33.559 165.750 C 33.917 167.813, 34.907 169.950, 35.759 170.500 C 36.611 171.050, 38.808 172.779, 40.640 174.341 C 46.391 179.245, 47.618 189.856, 43.100 195.600 C 41.945 197.068, 41 199.551, 41 201.118 C 41 203.493, 41.789 204.388, 45.750 206.505 C 48.362 207.902, 52.300 210.140, 54.500 211.479 C 59.649 214.613, 60.282 214.584, 59.581 211.250 C 59.263 209.738, 58.332 203.550, 57.510 197.500 C 56.689 191.450, 55.451 183.827, 54.759 180.559 L 53.500 174.618 44.115 168.309 C 38.954 164.839, 34.321 162, 33.820 162 C 33.319 162, 33.202 163.686, 33.559 165.750 M 57 165.845 C 57 166.310, 57.835 167.446, 58.855 168.369 C 60.602 169.949, 60.969 169.900, 65.105 167.536 L 69.500 165.024 63.250 165.012 C 59.813 165.005, 57 165.380, 57 165.845 M 109.750 167.324 C 106.890 169.665, 105.847 175.003, 108.250 174.996 C 109.600 174.992, 116 171.330, 116 170.562 C 116 169.496, 113.633 165.003, 113.089 165.036 C 112.765 165.056, 111.263 166.085, 109.750 167.324 M 96.268 167.025 C 95.040 167.518, 88.515 169.363, 81.768 171.124 C 75.021 172.885, 69.140 174.634, 68.701 175.012 C 68.261 175.390, 68.809 181.054, 69.919 187.599 C 71.029 194.145, 72.242 203.227, 72.615 207.781 C 72.988 212.336, 73.657 216.288, 74.102 216.563 C 74.548 216.839, 82.132 214.947, 90.956 212.359 C 104.110 208.501, 107 207.325, 107 205.827 C 107 204.822, 106.506 204, 105.901 204 C 105.297 204, 103.219 203.249, 101.283 202.330 C 92.631 198.224, 91.435 185.834, 99.151 180.228 C 103.044 177.399, 103.505 176.356, 103.156 171.176 C 102.849 166.627, 102.546 166.008, 100.653 166.063 C 99.469 166.098, 97.496 166.531, 96.268 167.025 M 30.571 176.571 C 28.758 178.385, 28.411 187.030, 30.030 190.055 C 31.606 193.002, 36.628 195.270, 38.891 194.058 C 41.118 192.866, 42 190.860, 42 186.983 C 42 178.515, 35.003 172.140, 30.571 176.571 M 58.636 176.779 C 58.344 177.253, 59.170 184.133, 60.473 192.070 C 61.776 200.006, 63.215 208.975, 63.671 212 C 64.433 217.056, 64.728 217.526, 67.322 217.823 C 70.104 218.142, 70.137 218.085, 69.592 213.823 C 66.987 193.447, 64.582 178.211, 63.870 177.578 C 62.772 176.601, 59.094 176.039, 58.636 176.779 M 177.500 183.662 C 170.091 192.859, 169.256 196.347, 173.455 200.545 C 180.021 207.112, 188.736 199.162, 186.022 189.081 C 185.422 186.854, 183.934 183.886, 182.716 182.485 L 180.500 179.937 177.500 183.662 M 111 207.421 C 111 210.468, 110.645 210.918, 107.750 211.548 C 105.150 212.114, 84.582 218.383, 78.028 220.608 C 76.732 221.048, 76.732 221.219, 78.028 222.038 C 80.446 223.567, 82.700 223.144, 86.706 220.409 C 89.799 218.297, 91.314 217.908, 94.907 218.304 C 98.603 218.711, 100.354 218.218, 105.763 215.245 C 109.514 213.183, 113.002 210.403, 114.102 208.600 C 116.568 204.557, 116.495 204, 113.500 204 C 111.321 204, 111 204.439, 111 207.421 M 172.655 212.450 C 169.489 218.509, 167.155 220.390, 159.630 222.946 C 156.608 223.973, 154.367 225.369, 154.177 226.344 C 153.409 230.274, 165.667 226.590, 171.312 221.194 C 174.088 218.541, 178 211.042, 178 208.373 C 178 205.296, 175.328 207.334, 172.655 212.450 M 42.625 214.080 C 41.171 215.224, 40.218 216.543, 40.507 217.011 C 41.701 218.943, 38.791 218.981, 36.355 217.065 C 34.912 215.929, 32.511 215, 31.020 215 C 26.852 215, 25 217.809, 25 224.133 C 25 228.505, 25.608 230.567, 28.014 234.361 C 33.302 242.699, 36.537 243.069, 60.860 238.111 C 67.485 236.760, 71.135 236.465, 73.353 237.101 C 75.077 237.596, 77.727 238, 79.243 238 C 81.818 238, 82.001 237.719, 82.014 233.750 C 82.021 231.412, 82.274 228.582, 82.575 227.460 C 83.153 225.312, 81.067 224.552, 67.565 221.996 C 64.751 221.464, 59.475 219.115, 55.288 216.531 C 51.250 214.039, 47.344 212, 46.608 212 C 45.872 212, 44.080 212.936, 42.625 214.080" stroke="none" fill="black" fill-rule="evenodd"/>
</svg>