<svg xmlns="http://www.w3.org/2000/svg" width="176" height="223" viewBox="0 0 176 223" version="1.1">
	<path d="M 91.404 3.085 C 59.413 6.166, 33.679 30.041, 27.491 62.382 C 23.811 81.616, 26.716 100.214, 37.506 126.500 C 46.590 148.631, 48 153.086, 48 159.668 C 48 166.407, 46.416 171.583, 43.652 173.875 C 42.198 175.081, 41.453 174.751, 37.588 171.188 C 35.010 168.811, 31.387 166.643, 28.857 165.961 C 23.026 164.391, 13.375 165.142, 8.569 167.539 C 1.701 170.965, 1.787 171.836, 9.875 180.794 C 13.852 185.198, 18.432 189.350, 20.053 190.022 C 23.314 191.373, 23.558 192.107, 21.812 195.316 C 20.045 198.563, 20.001 218.786, 21.759 219.461 C 23.929 220.294, 32.141 218.097, 36.594 215.493 C 43.462 211.476, 47.978 203.693, 47.994 195.844 L 48 193.189 59.750 193.692 C 92.471 195.094, 122.734 183.477, 144.145 161.296 C 150.731 154.473, 150.810 154.428, 153.006 156.206 C 154.225 157.193, 156.806 158, 158.743 158 C 163.219 158, 167.766 153.432, 170.255 146.434 C 172.271 140.766, 172.655 124.899, 170.927 118.677 C 170.162 115.922, 170.186 113.407, 171.013 109.677 C 172.798 101.626, 173.390 81.419, 172.148 70.964 C 169.384 47.711, 156.810 25.946, 139.504 14.459 C 126.519 5.840, 108.078 1.480, 91.404 3.085 M 86.549 7.568 C 71.687 10.519, 59.520 17.129, 48.968 27.986 C 37.225 40.067, 31.179 54.964, 30.273 74.048 C 29.459 91.190, 31.959 103.129, 40.732 124 C 51.279 149.091, 53.177 157.015, 51.069 167.166 C 49.879 172.900, 44.741 180, 41.782 180 C 40.986 180, 38.942 178.267, 37.239 176.148 C 33.103 171.001, 28.576 169, 21.067 169 C 15.695 169, 8 170.993, 8 172.385 C 8 172.653, 11.037 176.018, 14.750 179.863 C 18.896 184.157, 22.658 187.129, 24.500 187.565 C 29.154 188.668, 30.352 189.954, 28.563 191.930 C 25.428 195.394, 23.871 201.114, 24.157 208.116 C 24.410 214.319, 24.643 215, 26.507 215 C 29.958 215, 37.210 210.719, 40.262 206.879 C 42.528 204.029, 43.285 201.818, 43.820 196.485 C 44.270 192.001, 45.007 189.455, 46 188.953 C 46.825 188.536, 51.062 186.464, 55.416 184.348 C 65.345 179.522, 71.754 173.815, 75.827 166.173 C 77.572 162.899, 79 159.810, 79 159.309 C 79 158.808, 77.066 157.459, 74.702 156.311 C 69.483 153.775, 59.889 145.174, 56.918 140.368 C 55.209 137.603, 55.008 136.603, 55.975 135.677 C 56.928 134.764, 57.685 135.174, 59.349 137.500 C 66.551 147.568, 77.624 154.873, 87.057 155.780 C 97.801 156.812, 98.722 152.094, 89.980 140.816 C 80.131 128.110, 75.945 119, 79.954 119 C 80.514 119, 82.367 121.766, 84.074 125.146 L 87.177 131.293 91.008 125.233 C 105.393 102.482, 137.861 99.572, 149.395 120 C 152.248 125.054, 152.500 126.250, 152.500 134.750 C 152.500 139.838, 152.589 144, 152.698 144 C 152.806 144, 154.910 140.287, 157.371 135.750 C 165.452 120.858, 169.086 104.738, 169.053 83.943 C 169.007 55.478, 157.831 31.986, 137.877 18.414 C 128.727 12.191, 121.322 9.266, 110 7.405 C 99.784 5.726, 95.685 5.754, 86.549 7.568 M 140.361 63.744 C 135.360 69.140, 139.319 77, 147.038 77 C 151.502 77, 155 73.485, 155 69 C 155 61.456, 145.607 58.083, 140.361 63.744 M 147.667 65.667 C 146.399 66.934, 147.008 68, 149 68 C 150.111 68, 151 67.333, 151 66.500 C 151 64.978, 148.885 64.449, 147.667 65.667 M 85.500 68.811 C 76.490 70.561, 77.373 85, 86.491 85 C 91.213 85, 92.863 84.165, 94.537 80.928 C 96.511 77.112, 96.378 74.751, 94.023 71.756 C 91.985 69.165, 88.995 68.132, 85.500 68.811 M 88.336 73.567 C 87.502 75.739, 89.618 77.782, 91.133 76.267 C 92.413 74.987, 91.620 72, 90 72 C 89.415 72, 88.667 72.705, 88.336 73.567 M 126.498 81.363 C 123.456 86.005, 115.957 86.820, 112.405 82.895 C 110.457 80.743, 107.992 80.380, 108.015 82.250 C 108.060 85.866, 113.309 89, 119.323 89 C 123.560 89, 124.658 88.542, 127.688 85.513 C 131.060 82.140, 131.587 80.029, 129.251 79.250 C 128.633 79.044, 127.394 79.995, 126.498 81.363 M 118 109.415 C 114.975 110.124, 110.867 111.430, 108.871 112.315 C 103.713 114.604, 94.750 123.110, 91.965 128.359 C 89.255 133.467, 89.362 133.850, 96.021 142.921 C 100.166 148.568, 100.771 151.214, 98.870 155.385 C 97.348 158.726, 92.999 160.350, 87.097 159.783 L 82.217 159.314 79.359 165.300 C 75.651 173.063, 68.029 180.730, 59.754 185.020 C 56.124 186.902, 53.372 188.792, 53.636 189.221 C 54.638 190.841, 76.112 190.015, 86.145 187.970 C 103.715 184.390, 116.890 178.687, 129.500 169.202 C 143.492 158.679, 147.124 153.715, 149.631 141.692 C 151.171 134.306, 150.826 129.222, 148.389 123.389 C 143.834 112.487, 130.682 106.439, 118 109.415 M 167.090 123 C 166.947 124.920, 160.298 139.069, 156.647 145.219 C 152.689 151.888, 154.552 156.262, 160.403 154.037 C 165.938 151.933, 170.527 135.091, 168.180 125.500 C 167.641 123.300, 167.151 122.175, 167.090 123" stroke="none" fill="black" fill-rule="evenodd"/>
</svg>