<svg xmlns="http://www.w3.org/2000/svg" width="203" height="222" viewBox="0 0 203 222" version="1.1">
	<path d="M 90.500 3.063 C 53.572 8.565, 28.994 35.559, 26.367 73.500 C 25.627 84.173, 28.183 99.435, 32.971 112.941 C 36.492 122.871, 36.597 122.619, 26 129.563 C 17.760 134.962, 15.186 137.411, 14.382 140.615 C 13.521 144.045, 16.384 147.854, 22.059 150.828 C 25.968 152.877, 27.458 153.092, 34.500 152.629 C 38.900 152.340, 43.469 151.814, 44.654 151.460 C 47.363 150.651, 48.325 153.220, 48.259 161.081 C 48.216 166.247, 45.499 173.956, 43.226 175.360 C 42.784 175.633, 40.873 174.271, 38.978 172.333 C 33.458 166.687, 30.480 165.528, 21.500 165.529 C 13.013 165.530, 4.603 168.265, 3.393 171.418 C 2.650 173.355, 16.315 188.474, 20.303 190.125 C 22.602 191.078, 23.013 191.712, 22.426 193.403 C 21.579 195.848, 20.231 217.090, 20.843 218.363 C 21.071 218.838, 23.624 219.030, 26.515 218.790 C 32.972 218.255, 41.034 213.417, 44.699 207.878 C 46.145 205.694, 47.486 201.844, 47.865 198.794 L 48.523 193.500 59.512 193.824 C 93.834 194.836, 128.186 181.089, 147.274 158.703 C 157.179 147.087, 166.337 130.277, 169.450 118 C 170.358 114.418, 171.286 113.149, 173.997 111.777 C 186.309 105.550, 194.550 96.435, 198.018 85.207 C 201.593 73.631, 199.740 63.211, 193.831 61.666 C 190.453 60.783, 184.955 63.643, 179.275 69.236 C 176.401 72.067, 173.907 74.184, 173.733 73.941 C 173.559 73.699, 172.185 68.366, 170.679 62.092 C 163.332 31.490, 145.373 12.099, 117.910 5.116 C 108.416 2.702, 98.103 1.930, 90.500 3.063 M 85.025 8.080 C 57.453 14.299, 38.451 33.207, 31.844 61 C 30.086 68.393, 30.335 88.866, 32.275 96.500 C 35.525 109.288, 36.898 113.941, 38.063 116.118 L 39.273 118.378 42.122 115.189 C 44.760 112.237, 48 110.923, 48 112.806 C 48 115.998, 36.598 127.206, 27 133.449 C 18.443 139.014, 17.378 140.339, 18.855 143.582 C 20.646 147.513, 26.205 149.305, 34.992 148.784 C 43.297 148.292, 49.858 145.864, 55.973 141.021 C 58.071 139.359, 60.319 138, 60.967 138 C 63.533 138, 61.215 141.661, 56.354 145.287 L 51.228 149.111 51.745 157.394 C 52.073 162.657, 51.811 167.043, 51.025 169.424 C 49.518 173.991, 44.426 180, 42.064 180 C 41.113 180, 38.922 178.242, 37.195 176.093 C 33.039 170.921, 26.968 168.597, 19.284 169.236 C 16.103 169.500, 12.228 170.232, 10.674 170.863 L 7.848 172.008 12.674 177.907 C 17.668 184.012, 23.261 188, 26.827 188 C 30.082 188, 30.293 189.675, 27.548 193.714 C 25.296 197.028, 25 198.483, 25 206.232 C 25 214.390, 25.142 215, 27.040 215 C 30.409 215, 36.609 211.297, 39.875 207.336 C 42.587 204.045, 44.169 199.407, 45.240 191.607 C 45.383 190.566, 46.175 189.380, 47 188.972 C 47.825 188.564, 51.995 186.538, 56.266 184.470 C 62.143 181.624, 65.582 179.066, 70.408 173.950 C 77.863 166.048, 79.450 162.396, 84.969 140.452 C 89.287 123.281, 90.985 119.458, 97.517 112.192 C 109.384 98.993, 128.781 94.406, 142.101 101.649 C 152.159 107.117, 156.580 116.697, 155.751 131.229 C 155.439 136.705, 155.600 139.800, 156.168 139.232 C 158.081 137.319, 164.979 119.885, 167.196 111.358 C 169.151 103.842, 169.493 100.075, 169.452 86.500 C 169.410 72.409, 169.098 69.422, 166.832 61.465 C 157.776 29.662, 139.574 12.366, 109.566 7.051 C 101.303 5.587, 94.883 5.857, 85.025 8.080 M 135.660 54.131 C 134.647 54.719, 133.236 56.586, 132.524 58.280 C 130.795 62.393, 132.292 66.583, 136.216 68.612 C 144.482 72.886, 151.932 62.535, 145.548 55.646 C 142.943 52.835, 138.943 52.222, 135.660 54.131 M 140.190 58.750 C 140.376 59.712, 141.190 60.500, 142 60.500 C 142.810 60.500, 143.624 59.712, 143.810 58.750 C 144.046 57.522, 143.506 57, 142 57 C 140.494 57, 139.954 57.522, 140.190 58.750 M 76.888 65.500 C 75.451 66.280, 73.696 68.320, 72.987 70.031 C 69.153 79.287, 83.724 86.486, 87.870 77.385 C 90.225 72.216, 88.881 67.595, 84.316 65.163 C 81.529 63.679, 80.120 63.743, 76.888 65.500 M 187.891 66.757 C 186.456 67.715, 182.744 70.829, 179.641 73.676 L 174 78.853 173.946 85.176 C 173.916 88.654, 173.511 95.100, 173.046 99.500 C 172.581 103.900, 172.345 107.652, 172.521 107.838 C 173.400 108.762, 182.501 102.236, 186.431 97.866 C 191.747 91.952, 195.138 83.776, 195.763 75.360 C 196.155 70.086, 195.921 68.921, 194.110 67.110 C 191.561 64.561, 191.207 64.540, 187.891 66.757 M 81.533 68.947 C 80.653 70.370, 81.775 72, 83.632 72 C 84.508 72, 85.010 71.297, 84.823 70.333 C 84.434 68.324, 82.437 67.484, 81.533 68.947 M 117.500 72.977 C 116.400 73.462, 112.883 73.891, 109.684 73.930 C 100.330 74.043, 98.115 76.455, 101.449 82.901 C 103.990 87.814, 107.851 89.422, 116.350 89.106 C 118.173 89.038, 120.446 87.754, 122.657 85.543 C 125.775 82.425, 126.083 81.618, 125.807 77.293 C 125.516 72.755, 125.340 72.489, 122.500 72.297 C 120.850 72.185, 118.600 72.491, 117.500 72.977 M 108.441 82.481 C 106.761 83.763, 106.702 84.097, 108 84.966 C 110.239 86.464, 116.349 86.205, 118.559 84.519 C 120.239 83.237, 120.298 82.903, 119 82.034 C 116.761 80.536, 110.651 80.795, 108.441 82.481 M 122.478 101.016 C 115.207 102.044, 106.266 106.639, 100.697 112.208 C 95.262 117.643, 91.185 125.816, 88.579 136.500 C 81.944 163.707, 79.757 168.701, 70.735 177.257 C 67.396 180.423, 62.265 184.149, 59.332 185.536 C 56.399 186.923, 54 188.495, 54 189.029 C 54 190.537, 73.662 190.188, 83.290 188.509 C 107.312 184.319, 126.209 174.783, 141.091 159.340 C 147.923 152.251, 150.829 146.559, 153.154 135.716 C 156.125 121.865, 150.429 108.113, 139.500 102.752 C 135.576 100.828, 128.737 100.130, 122.478 101.016" stroke="none" fill="black" fill-rule="evenodd"/>
</svg>