<svg xmlns="http://www.w3.org/2000/svg" width="246" height="223" viewBox="0 0 246 223" version="1.1">
	<path d="M 115.259 3.220 C 75.675 7.180, 47.561 42.957, 51.101 84.865 C 51.536 90.016, 52.177 95.529, 52.525 97.115 C 52.874 98.702, 52.969 100, 52.736 100 C 52.503 100, 49.697 99.100, 46.500 98 C 38.386 95.208, 34.638 95.373, 32.073 98.635 C 30.933 100.084, 30 102.547, 30 104.108 C 30 108.823, 34.806 117.479, 40.318 122.692 C 47.656 129.632, 52.774 132.447, 62.617 134.956 C 66.589 135.969, 66.829 136.265, 69.428 143.391 C 70.909 147.453, 72.377 153.249, 72.689 156.271 C 73.372 162.898, 71.559 171.184, 68.898 173.592 C 67.030 175.283, 66.834 175.232, 63.728 172.231 C 56.311 165.066, 45.164 163.096, 34.539 167.071 C 26.163 170.205, 26.226 171.972, 35.046 181.274 C 38.998 185.443, 43.530 189.391, 45.116 190.048 C 46.702 190.705, 48 191.358, 48 191.499 C 48 191.640, 47.343 193.329, 46.540 195.251 C 44.733 199.576, 44.774 218.699, 46.592 219.397 C 48.312 220.057, 55.651 218.219, 59.852 216.076 C 67.174 212.340, 71.472 206.131, 72.642 197.598 L 73.268 193.031 84.884 193.616 C 104.062 194.580, 124.465 190.301, 141.500 181.741 C 161.103 171.891, 177.692 154.705, 187.192 134.404 C 189.134 130.254, 190.781 128, 191.872 128 C 195.394 128, 207.676 121.043, 212.251 116.458 C 220.668 108.021, 224.819 96.418, 221.627 90.246 C 219.085 85.330, 215.371 85.127, 206.351 89.411 C 202.194 91.385, 198.614 93, 198.396 93 C 198.178 93, 197.999 89.513, 197.999 85.250 C 197.997 75.034, 195.934 63.773, 191.815 51.498 C 180.837 18.776, 150.567 -0.312, 115.259 3.220 M 109.500 7.928 C 81.729 14.496, 63.310 32.912, 56.420 61 C 54.781 67.682, 54.738 88.341, 56.346 95.970 C 57.577 101.804, 57.340 101.625, 66.250 103.469 C 67.875 103.805, 69 104.696, 69 105.648 C 69 107.870, 61.637 106.837, 49.290 102.882 C 37.579 99.131, 34.618 99.287, 34.192 103.676 C 33.531 110.502, 43.608 123.110, 53.230 127.493 C 58.098 129.711, 60.944 130.530, 71.324 132.700 C 75.609 133.596, 76.681 135.332, 73.250 135.820 C 72.013 135.995, 71 136.279, 71 136.450 C 71 136.622, 72.082 139.636, 73.404 143.148 C 78.284 156.114, 78.041 166.721, 72.679 174.744 C 68.511 180.979, 65.148 181.611, 62.251 176.702 C 58.135 169.724, 44.615 166.702, 35.749 170.776 L 31.998 172.500 38.871 179.681 C 44.164 185.210, 46.598 187.021, 49.452 187.557 C 54.270 188.461, 54.738 190.021, 51.581 194.665 C 49.321 197.992, 49 199.491, 49 206.732 C 49 214.680, 49.088 215, 51.288 215 C 55.288 215, 62.355 210.671, 65.317 206.405 C 67.415 203.385, 68.309 200.682, 68.724 196.112 L 69.285 189.915 78.860 185.208 C 95.720 176.918, 101.564 168.885, 108.475 144.500 C 110.501 137.350, 113.344 129.318, 114.792 126.652 C 117.731 121.240, 125.428 113.842, 131.167 110.915 C 136.061 108.418, 145.413 106, 150.175 106 C 159.962 106, 170.125 112.469, 174.551 121.515 C 177.017 126.555, 177.204 127.782, 176.827 136.420 L 176.415 145.833 180.477 138.666 C 188.902 123.803, 192.887 108.963, 193.679 89.500 C 194.153 77.855, 193.927 75.250, 191.512 64.500 C 185.827 39.191, 173.322 22.234, 153.412 12.837 C 140.737 6.854, 122.608 4.827, 109.500 7.928 M 233.050 39.440 C 231.449 41.369, 232.101 46.048, 234.149 47.330 C 238.088 49.796, 243.135 42.535, 239.800 39.200 C 238.160 37.560, 234.502 37.690, 233.050 39.440 M 208 41.230 C 206.858 42.457, 205.715 44.482, 205.461 45.730 C 205.208 46.979, 204.777 49.081, 204.505 50.402 C 203.864 53.518, 204.968 59, 206.236 59 C 206.778 59, 209.872 56.358, 213.111 53.129 C 219.333 46.926, 220.472 43.615, 217.429 40.571 C 215.141 38.284, 210.439 38.612, 208 41.230 M 235 43.083 C 235 45.520, 237.337 45.176, 237.823 42.667 C 238.015 41.680, 237.505 41, 236.573 41 C 235.646 41, 235 41.855, 235 43.083 M 5 44 C 1.072 47.928, 3.797 54.287, 9.980 55.621 C 12.718 56.212, 16.485 57.384, 19.250 58.505 C 20.697 59.091, 21 58.667, 21 56.057 C 21 51.965, 18.849 47.892, 14.959 44.619 C 11.240 41.490, 7.728 41.272, 5 44 M 209.597 44.250 C 208.800 45.487, 207.819 48.300, 207.417 50.500 C 206.719 54.320, 206.772 54.435, 208.593 53.050 C 213.630 49.220, 216 46.424, 216 44.313 C 216 41.157, 211.617 41.114, 209.597 44.250 M 7.200 46.200 C 4.590 48.810, 5.909 50.822, 11.632 52.963 C 14.729 54.122, 17.462 54.871, 17.705 54.628 C 18.511 53.822, 15.049 48.148, 12.783 46.561 C 10.108 44.687, 8.797 44.603, 7.200 46.200 M 31.655 51.829 C 30.745 52.835, 30 54.577, 30 55.701 C 30 58.071, 38.506 66.340, 40.300 65.715 C 42.254 65.033, 41.614 54.336, 39.477 51.975 C 37.239 49.502, 33.818 49.438, 31.655 51.829 M 33.327 54.589 C 32.941 55.595, 33.872 57.333, 35.859 59.320 L 39 62.462 39 59.665 C 39 54.253, 34.873 50.561, 33.327 54.589 M 163.400 60.400 C 159.723 64.077, 159.098 66.440, 161.553 67.382 C 162.590 67.780, 163.669 66.985, 164.803 64.986 C 167.615 60.030, 172.488 59.806, 175.009 64.517 C 176.464 67.236, 176.837 67.389, 178.874 66.099 C 180.015 65.376, 179.945 64.715, 178.459 62.200 C 174.856 56.101, 168.463 55.337, 163.400 60.400 M 224.431 59.815 C 216.899 62.423, 210.513 68.227, 207.907 74.834 C 206.494 78.414, 207.619 79.008, 212.599 77.312 C 216.352 76.033, 218.155 75.956, 222.748 76.878 C 236.590 79.658, 243 76.960, 243 68.353 C 243 65.260, 237.098 59, 234.182 59 C 233.072 59, 231.564 58.788, 230.832 58.530 C 230.099 58.271, 227.219 58.849, 224.431 59.815 M 222 64.103 C 217.996 66.501, 212 71.980, 212 73.241 C 212 73.709, 213.490 73.811, 215.312 73.469 C 217.217 73.112, 221.322 73.547, 224.971 74.492 C 228.462 75.397, 232.484 75.846, 233.909 75.491 C 240.112 73.943, 241.828 68.737, 237.545 64.455 C 234.320 61.229, 227.074 61.065, 222 64.103 M 102.552 67.138 C 99.625 69.440, 97.973 72.738, 98.738 74.750 C 99.557 76.901, 101.933 76.115, 102.596 73.474 C 103.807 68.647, 108.504 67.709, 112.574 71.481 C 115.280 73.989, 117 74.008, 117 71.530 C 117 69.327, 111.075 65, 108.058 65 C 106.525 65, 104.047 65.962, 102.552 67.138 M 12.500 68.403 C 7.884 70.440, 5.758 73.433, 5.637 78.068 C 5.429 86.008, 12.707 89.023, 23.338 85.401 C 27.894 83.848, 33.842 83.885, 38.750 85.495 C 40.468 86.059, 41 85.846, 41 84.595 C 41 81.954, 36.143 75.370, 32.171 72.627 C 24.273 67.174, 18.226 65.875, 12.500 68.403 M 14.500 70.719 C 10.870 71.604, 9 74.124, 9 78.132 C 9 81.096, 9.556 82.318, 11.477 83.577 C 13.777 85.084, 14.368 85.068, 19.727 83.350 C 22.902 82.333, 28.069 81.500, 31.209 81.500 L 36.918 81.500 33.209 77.631 C 27.363 71.532, 20.926 69.154, 14.500 70.719 M 145.500 73.606 C 142.618 74.661, 139.607 74.884, 134.724 74.403 C 129.012 73.841, 127.639 74.017, 125.974 75.523 C 121.001 80.024, 125.767 92.333, 133.780 95.681 C 138.687 97.732, 148.095 97.049, 151.763 94.377 C 155.341 91.770, 159 84.507, 159 80.011 C 159 72.497, 154.438 70.333, 145.500 73.606 M 133.688 86.604 C 132.142 87.443, 131.043 88.662, 131.248 89.314 C 131.812 91.116, 138.119 93.997, 141.500 93.997 C 144.946 93.997, 151.191 91.104, 151.779 89.236 C 152.339 87.453, 145.891 84.992, 140.782 85.040 C 138.427 85.062, 135.235 85.766, 133.688 86.604 M 204.750 94.190 C 197.932 97.703, 197 98.514, 197 100.932 C 197 102.443, 196.162 107.015, 195.138 111.090 C 191.568 125.299, 191.572 123.983, 195.095 122.973 C 199.559 121.692, 207.436 116.406, 211.104 112.229 C 217.336 105.131, 220.813 94.213, 217.800 91.200 C 215.877 89.277, 213.008 89.935, 204.750 94.190 M 137.502 111.129 C 127.071 114.716, 119.949 121.400, 115.101 132.154 C 113.527 135.644, 111.920 140.075, 111.528 142 C 110.040 149.321, 106.599 159.726, 103.758 165.500 C 100.035 173.066, 90.780 181.990, 82.868 185.642 C 78.929 187.461, 77.391 188.631, 78.236 189.167 C 80.832 190.815, 100.918 190.041, 111.308 187.893 C 130.358 183.954, 142.291 178.567, 156.559 167.462 C 168.793 157.940, 172.317 152.566, 174.179 140.587 C 175.781 130.284, 174.284 123.740, 168.935 117.663 C 166.758 115.191, 163.040 112.230, 160.673 111.084 C 154.996 108.336, 145.573 108.354, 137.502 111.129 M 25.898 136.282 C 23.238 138.069, 22.434 139.353, 22.195 142.197 C 21.945 145.170, 22.276 145.953, 24.017 146.505 C 28.106 147.803, 30.789 146.211, 33.454 140.904 C 34.859 138.108, 35.754 135.411, 35.445 134.910 C 34.414 133.242, 29.338 133.972, 25.898 136.282 M 28 138.290 C 24.983 139.811, 23.844 144.369, 26.615 143.836 C 28.404 143.491, 32.912 136.987, 31.342 137.015 C 30.879 137.023, 29.375 137.597, 28 138.290 M 206.710 142.250 C 204.717 143.739, 205.200 144.541, 210.644 148.776 C 215.257 152.365, 219.563 152.944, 221.608 150.250 C 223.644 147.568, 223.259 145.349, 220.365 143.073 C 217.338 140.692, 209.432 140.215, 206.710 142.250 M 212.306 146.532 C 215.236 149.110, 218.425 149.739, 219.527 147.956 C 220.760 145.962, 217.810 144, 213.628 144.032 L 209.500 144.063 212.306 146.532 M 189 150.184 C 189 150.836, 189.931 153.293, 191.070 155.644 C 192.208 157.996, 193.551 162.826, 194.054 166.379 C 195.197 174.450, 196.552 177.475, 199.657 178.890 C 204.034 180.884, 207.922 180.232, 211.200 176.954 C 213.961 174.193, 214.201 173.446, 213.771 168.972 C 212.944 160.359, 206.603 153.603, 196.461 150.526 C 190.450 148.703, 189 148.637, 189 150.184 M 194.590 156.174 C 195.492 157.919, 196.622 162.531, 197.100 166.424 C 197.808 172.187, 198.454 173.924, 200.583 175.786 C 203.546 178.379, 206.442 178.050, 209.250 174.802 C 213.510 169.875, 209.559 160.206, 201.474 155.773 C 198.738 154.274, 195.701 153.036, 194.724 153.023 C 193.052 153.001, 193.044 153.184, 194.590 156.174 M 165.551 182.917 C 164.244 185.032, 163.832 192.818, 164.920 194.850 C 166.204 197.249, 170.797 197.803, 172.800 195.800 C 175.859 192.741, 172.181 182, 168.074 182 C 166.998 182, 165.863 182.413, 165.551 182.917 M 167.183 189.636 C 167.396 192.224, 168.032 193.584, 169.124 193.791 C 171.319 194.206, 172.087 191.802, 170.664 188.972 C 168.640 184.948, 166.826 185.295, 167.183 189.636" stroke="none" fill="black" fill-rule="evenodd"/>
</svg>