<svg xmlns="http://www.w3.org/2000/svg" width="214" height="222" viewBox="0 0 214 222" version="1.1">
	<path d="M 91.500 3.026 C 72.387 5.069, 54.355 14.723, 42.045 29.500 C 37.192 35.327, 31.038 47.726, 28.398 57 C 26.963 62.040, 26.551 66.868, 26.565 78.500 C 26.588 96.937, 28.679 105.774, 38.695 129.762 C 40.888 135.012, 41.124 136.432, 40.159 138.549 C 38.040 143.201, 37.650 151.226, 39.345 155.284 C 40.553 158.174, 41.628 159.176, 44.042 159.658 C 45.763 160.003, 47.412 160.911, 47.706 161.677 C 48.529 163.821, 45.996 171.693, 43.862 173.625 C 42.042 175.272, 41.810 175.214, 38.728 172.355 C 33.427 167.437, 30.056 165.815, 23.991 165.265 C 14.391 164.395, 3 168.356, 3 172.565 C 3 174.042, 18.245 189.988, 19.682 190.015 C 22.431 190.067, 23.020 191.709, 21.549 195.228 C 20.521 197.689, 20.089 201.970, 20.170 208.905 L 20.288 219 23.894 218.994 C 30.742 218.984, 35.297 216.984, 40.640 211.640 C 45.784 206.497, 47.982 201.734, 47.994 195.709 L 48 192.918 59.250 193.587 C 91.894 195.528, 126.895 181.523, 146.327 158.747 C 152.336 151.705, 159.330 140.939, 163.084 132.954 L 166.162 126.409 173.831 123.960 C 179.344 122.199, 183.132 121.609, 187.305 121.860 C 192.985 122.202, 193.195 122.120, 197.055 118.063 C 200.556 114.383, 201 113.360, 201 108.978 C 201 104.264, 201.173 103.953, 204.817 102.093 C 209.811 99.546, 211.215 97.730, 210.822 94.329 C 210.309 89.885, 206.970 89.327, 192.737 91.308 C 186.007 92.244, 178.895 93.279, 176.933 93.606 L 173.367 94.202 173.246 84.351 C 173.064 69.609, 169.008 53.835, 161.791 39.803 C 153.938 24.534, 138.838 11.681, 122.926 6.720 C 115.378 4.367, 111.863 3.690, 101.500 2.595 C 99.850 2.421, 95.350 2.615, 91.500 3.026 M 86.704 7.475 C 49.956 15.132, 28.451 43.899, 30.260 82.977 C 30.871 96.182, 33.525 106.801, 40.681 124.677 L 43.274 131.152 46.117 125.952 C 49.648 119.496, 50.872 118, 52.622 118 C 54.639 118, 54.311 120.071, 51.669 124.018 C 50.387 125.933, 47.687 131.373, 45.669 136.108 C 41.471 145.957, 40.832 152.633, 43.829 155.345 C 46.199 157.490, 47.219 157.434, 52.290 154.879 C 59.833 151.080, 64.861 146.159, 69.110 138.417 C 72.988 131.352, 76 128.900, 76 132.809 C 76 135.482, 69.478 145.885, 64.789 150.691 C 62.540 152.995, 58.743 155.920, 56.350 157.189 C 52.852 159.045, 52 160.028, 52 162.211 C 52 166.890, 48.068 175.765, 44.764 178.545 L 41.640 181.174 37.420 176.578 C 32.294 170.994, 27.840 169, 20.500 169 C 14.721 169, 8 171.123, 8 172.949 C 8 173.527, 8.358 174, 8.795 174 C 9.231 174, 11.324 176.275, 13.445 179.057 C 17.127 183.885, 23.130 188, 26.492 188 C 29.133 188, 29.285 190.696, 26.831 194.015 C 24.813 196.745, 24.491 198.374, 24.431 206.161 L 24.362 215.155 27.931 214.528 C 32.559 213.717, 38.909 209.319, 41.255 205.302 C 42.274 203.559, 43.420 199.338, 43.803 195.923 C 44.246 191.974, 45.046 189.431, 46 188.938 C 46.825 188.512, 51.014 186.561, 55.308 184.603 C 64.830 180.262, 73.300 172.226, 77.268 163.769 C 78.746 160.617, 81.146 153.417, 82.600 147.769 C 85.904 134.935, 88.218 128.997, 92.131 123.310 C 98.645 113.842, 113.566 106, 125.068 106 C 134.702 106, 145.448 112.164, 149.511 120.020 C 151.526 123.918, 153.027 134.472, 152.334 139.872 C 151.914 143.150, 152.054 144.208, 152.816 143.500 C 155.473 141.029, 163.102 123.515, 165.672 113.987 C 168.306 104.219, 168.494 102.266, 168.415 85.500 C 168.333 68.234, 168.203 67.106, 165.229 57.837 C 161.293 45.567, 159.098 41.227, 152.298 32.262 C 146.587 24.735, 138.008 17.558, 129.669 13.332 C 118.235 7.538, 98.989 4.914, 86.704 7.475 M 141.074 63.421 C 138.281 66.394, 138.020 72.259, 140.555 75.061 C 142.993 77.755, 149.872 77.699, 152.811 74.961 C 155.633 72.333, 155.686 67.141, 152.927 63.635 C 150.116 60.061, 144.329 59.956, 141.074 63.421 M 147 66.393 C 147 67.901, 149.429 69.238, 150.402 68.264 C 151.719 66.948, 150.883 65, 149 65 C 147.900 65, 147 65.627, 147 66.393 M 81.073 71.635 C 76.584 77.341, 80.267 85, 87.500 85 C 94.923 85, 98.912 76.084, 93.686 71.174 C 90.231 67.929, 83.803 68.163, 81.073 71.635 M 88.015 73.750 C 88.050 75.442, 89.851 77.210, 90.888 76.569 C 92.738 75.426, 92.135 73, 90 73 C 88.900 73, 88.007 73.338, 88.015 73.750 M 126.623 82.453 C 124.245 86.082, 118.973 86.772, 114.369 84.055 C 110.228 81.612, 108.256 82.492, 110.546 85.762 C 112.643 88.756, 119.253 90.456, 123.303 89.044 C 127.284 87.657, 131 84.171, 131 81.826 C 131 79.215, 128.510 79.572, 126.623 82.453 M 189.073 95.610 C 180.588 96.936, 173.450 98.216, 173.211 98.456 C 172.971 98.696, 171.888 103.079, 170.805 108.196 C 169.721 113.313, 168.594 118.513, 168.301 119.750 C 167.632 122.570, 168.200 122.557, 175.801 119.578 C 180.854 117.598, 182.616 117.331, 185.464 118.118 C 188.125 118.852, 189.653 118.714, 191.943 117.529 C 195.930 115.468, 197.404 112.528, 197.457 106.533 C 197.498 101.788, 197.680 101.466, 201.500 99.358 C 207.369 96.119, 208.518 94.943, 206.848 93.885 C 206.106 93.415, 205.275 93.069, 205 93.115 C 204.725 93.162, 197.558 94.285, 189.073 95.610 M 117.500 109.360 C 100.973 113.630, 90.543 125.256, 85.901 144.581 C 83.254 155.602, 79.662 165.232, 76.336 170.220 C 72.158 176.488, 64.279 183.094, 57.533 185.986 C 49.740 189.326, 52.642 190.352, 68.183 189.750 C 82.964 189.177, 94.067 186.929, 106.632 181.964 C 120.712 176.401, 137.049 164.783, 143.864 155.488 C 149.665 147.574, 151.699 133.341, 148.407 123.681 C 144.631 112.598, 130.432 106.019, 117.500 109.360" stroke="none" fill="black" fill-rule="evenodd"/>
</svg>