<svg xmlns="http://www.w3.org/2000/svg" width="185" height="222" viewBox="0 0 185 222" version="1.1">
	<path d="M 91.259 3.105 C 53.669 7.463, 27.034 38.360, 27.007 77.640 C 26.996 93.697, 29.752 105.328, 38.651 126.777 L 42.270 135.500 40.635 141.664 C 38.714 148.908, 38.594 152.016, 40.110 155.343 C 41.215 157.768, 44.779 160, 47.547 160 C 49.827 160, 49.308 164.989, 46.425 170.774 L 43.851 175.941 37.424 171.016 C 30.405 165.636, 26.530 164.453, 18.652 165.284 C 12.466 165.937, 4.196 169.325, 3.340 171.556 C 2.925 172.638, 4.160 174.529, 7.111 177.332 C 9.525 179.625, 12.492 182.718, 13.705 184.206 C 14.918 185.695, 17.719 188.109, 19.929 189.572 C 23.540 191.961, 23.828 192.447, 22.769 194.365 C 22.095 195.588, 21.523 201.306, 21.431 207.750 L 21.271 219 24.885 218.956 C 36.490 218.815, 47.041 209.275, 48.661 197.458 L 49.284 192.911 59.892 193.576 C 77.807 194.700, 100.969 190.069, 116.500 182.256 C 132.032 174.443, 145.890 162.483, 154.631 149.346 C 159.412 142.161, 160.424 141.156, 162.020 142.010 C 165.420 143.830, 165.489 143.786, 177.368 132.278 C 178.945 130.750, 180.632 128.458, 181.118 127.185 C 183.476 120.998, 180.442 110.865, 175.034 106.867 C 172.407 104.925, 172.338 104.646, 173.257 99.673 C 174.457 93.180, 173.659 70.153, 172.004 63.500 C 167.285 44.536, 158.725 29.450, 146.924 19.299 C 137.830 11.477, 122.439 4.840, 110.400 3.549 C 107.155 3.201, 103.150 2.770, 101.500 2.591 C 99.850 2.412, 95.242 2.643, 91.259 3.105 M 85.520 8.032 C 62.041 12.977, 43.325 28.977, 35.261 51 C 34.153 54.025, 32.457 60.919, 31.492 66.321 C 28.755 81.647, 30.697 94.493, 39.202 117.315 L 44.350 131.131 47.542 125.498 C 51.640 118.269, 52.647 117.247, 54.169 118.769 C 55.061 119.661, 54.615 121.101, 52.287 124.846 C 48.306 131.249, 44.131 141.767, 43.372 147.302 C 42.564 153.198, 44.125 156, 48.219 156 C 55.936 156, 65.917 147.633, 71.291 136.659 C 72.815 133.546, 74.723 131, 75.531 131 C 77.579 131, 77.362 132.680, 74.526 138.772 C 71.516 145.237, 63.441 153.957, 57.590 157.062 C 53.600 159.178, 53.188 159.761, 52.685 164.015 C 51.808 171.418, 46.009 180, 41.882 180 C 40.886 180, 39.538 179.006, 38.888 177.791 C 34.721 170.004, 22.016 166.609, 12.015 170.611 L 7.990 172.221 14.134 179.152 C 19.086 184.737, 21.149 186.315, 24.763 187.282 C 30.224 188.742, 30.994 190.313, 27.877 193.630 C 25.783 195.856, 25.458 197.296, 25.149 205.709 L 24.798 215.260 28.649 214.541 C 32.799 213.765, 33.730 213.218, 38.847 208.552 C 42.848 204.904, 44.026 202.271, 44.867 195.105 C 45.252 191.821, 46.087 189.417, 47 188.960 C 47.825 188.547, 52.017 186.548, 56.315 184.518 C 66.213 179.843, 74.136 172.183, 78.087 163.469 C 79.638 160.047, 82.289 151.929, 83.976 145.430 C 87.542 131.695, 91.915 123.176, 98.529 117.080 C 107.414 108.890, 121.238 104.616, 131.449 106.901 C 138.044 108.377, 145.534 113.160, 148.830 118 L 151.214 121.500 150.491 118 C 150.093 116.075, 149.121 112.569, 148.330 110.208 C 147.539 107.847, 147.169 105.044, 147.507 103.978 C 148.760 100.031, 146.628 98.507, 139.717 98.410 C 115.333 98.069, 104.634 67.453, 123.311 51.465 C 140.398 36.840, 166.956 49.285, 166.990 71.934 C 167.002 79.873, 164.414 85.700, 158.191 91.748 C 153.976 95.845, 153.855 96.123, 155.360 98.264 C 158.698 103.013, 159.550 103.538, 164.154 103.688 C 169.923 103.876, 169.968 103.750, 169.986 87.360 C 170.036 43.044, 148.227 13.431, 111.101 7.404 C 100.134 5.623, 96.536 5.712, 85.520 8.032 M 134.685 53.017 C 119.257 57.648, 116.309 79.086, 129.810 88.468 C 133.483 91.020, 135.060 91.466, 140.470 91.482 C 145.928 91.497, 147.419 91.079, 151.083 88.500 C 160.119 82.141, 162.628 70.081, 156.760 61.213 C 152.192 54.311, 142.439 50.690, 134.685 53.017 M 130.866 63.829 C 128.195 66.215, 127.684 67.401, 127.600 71.410 C 127.512 75.576, 127.903 76.524, 130.766 79.081 C 135.046 82.907, 138.954 82.907, 143.234 79.082 C 146.038 76.577, 146.500 75.504, 146.500 71.500 C 146.500 67.496, 146.038 66.423, 143.234 63.918 C 138.989 60.125, 135.043 60.097, 130.866 63.829 M 137.591 65.853 C 136.473 67.662, 138.202 70.113, 140.377 69.803 C 143.287 69.388, 143.260 65.608, 140.344 65.193 C 139.159 65.024, 137.920 65.321, 137.591 65.853 M 73.073 71.635 C 66.285 80.264, 78.579 90.840, 85.732 82.525 C 90.609 76.855, 86.677 69, 78.962 69 C 76.030 69, 74.665 69.611, 73.073 71.635 M 80.688 72.646 C 79.272 74.061, 80.073 76, 82.073 76 C 83.471 76, 84.041 75.457, 83.823 74.333 C 83.466 72.492, 81.759 71.574, 80.688 72.646 M 103.993 84.853 C 96.626 92.221, 105.236 105.019, 112.811 97.961 C 115.650 95.316, 115.923 87.120, 113.250 84.773 C 109.683 81.641, 107.184 81.662, 103.993 84.853 M 105.441 93.096 C 105.068 93.699, 105.441 94.870, 106.270 95.699 C 108.241 97.670, 112 96.511, 112 93.933 C 112 92.461, 111.299 92, 109.059 92 C 107.441 92, 105.813 92.493, 105.441 93.096 M 158.523 108.565 C 153.004 111.442, 152.512 115.236, 156.995 120.342 C 159.810 123.548, 161.274 124.404, 168.359 126.990 C 170.507 127.774, 170.956 128.348, 170.166 129.300 C 169.485 130.121, 169.451 131.084, 170.069 132.034 C 170.850 133.233, 171.659 132.820, 174.512 129.765 C 177.308 126.770, 178 125.225, 178 121.975 C 178 110.909, 167.669 103.796, 158.523 108.565 M 116.500 109.892 C 111.058 111.350, 104.442 114.985, 100.341 118.771 C 93.298 125.273, 90.428 131.019, 86.010 147.464 C 84.322 153.745, 81.807 161.449, 80.420 164.585 C 77.192 171.885, 67.495 181.667, 59.750 185.436 C 56.587 186.975, 54 188.693, 54 189.253 C 54 189.924, 59.035 190.079, 68.750 189.708 C 98.453 188.572, 121.287 179.327, 139.770 160.954 C 145.605 155.153, 147.035 153.036, 148.848 147.513 C 153.853 132.268, 149.592 117.434, 138.581 111.768 C 134.131 109.479, 121.918 108.441, 116.500 109.892 M 152.288 125 C 153.769 131.509, 154.051 136.884, 153.125 140.973 C 152.568 143.433, 152.282 145.615, 152.489 145.822 C 152.696 146.029, 153.960 144.017, 155.299 141.349 L 157.732 136.500 155.420 130.138 C 153.004 123.487, 151.312 120.712, 152.288 125" stroke="none" fill="black" fill-rule="evenodd"/>
</svg>