<svg xmlns="http://www.w3.org/2000/svg" width="199" height="217" viewBox="0 0 199 217" version="1.1">
	<path d="M 109.539 3.102 C 79.045 7.596, 57.597 26.349, 47.897 57 C 44.609 67.387, 44.530 89.235, 47.734 102 C 50.767 114.084, 50.877 117.425, 48.338 120.201 C 43.274 125.736, 41.221 133.393, 43.015 140.055 C 44.485 145.514, 50.647 152, 54.363 152 C 56.266 152, 57.075 152.602, 57.385 154.250 C 59.256 164.203, 59.379 164.439, 63.882 166.711 C 66.292 167.927, 68.767 169.107, 69.382 169.333 C 71.417 170.082, 63.714 177, 59.617 178.103 C 54.646 179.442, 50.383 177.921, 51.556 175.227 C 51.969 174.277, 52.509 170.541, 52.757 166.925 C 53.343 158.341, 50.654 151.821, 43.935 145.536 C 38.287 140.253, 35.335 139.699, 34.410 143.750 C 34.065 145.263, 32.707 148.726, 31.391 151.446 C 30.046 154.228, 29 158.211, 29 160.550 L 29 164.706 23.884 164.215 C 18.134 163.662, 4.051 166.704, 3.300 168.660 C 2.584 170.527, 5.850 176.594, 9.861 180.849 C 16.502 187.893, 26.163 191.120, 34.774 189.170 C 38.921 188.231, 39.175 188.321, 43.274 192.193 C 65.294 212.993, 97.045 219.385, 126.802 209.007 C 159.311 197.669, 180.509 172.336, 190.940 132.353 C 192.350 126.946, 195.973 97.850, 195.988 91.805 C 196.009 83.471, 192.132 60.488, 189.424 52.888 C 183.705 36.842, 173.783 23.313, 161.719 15.111 C 148.627 6.211, 125.135 0.804, 109.539 3.102 M 103.715 7.988 C 88.136 11.957, 74.309 20.328, 65.203 31.302 C 59.552 38.113, 53.826 50.299, 51.013 61.500 C 49.092 69.154, 48.832 72.220, 49.277 82 C 49.565 88.325, 50.537 96.650, 51.436 100.500 C 53.870 110.910, 53.688 110.642, 56.524 107.978 C 58.850 105.792, 59.299 105.725, 64.134 106.841 C 72.656 108.809, 82.014 113.883, 87.812 119.682 L 93.180 125.049 96.823 121.851 C 103.439 116.042, 124.117 107.957, 132.206 108.017 C 133.528 108.027, 136.512 109.922, 139.250 112.490 C 143.113 116.113, 144 117.581, 144 120.348 C 144 122.219, 144.278 125.140, 144.618 126.840 C 145.213 129.817, 145.332 129.880, 147.868 128.567 C 149.316 127.818, 152.594 125.080, 155.153 122.483 C 157.712 119.886, 160.299 118.067, 160.903 118.440 C 162.639 119.513, 162.253 120.433, 158.109 125.109 C 154.184 129.537, 152.870 130.362, 140.925 135.891 C 130.572 140.684, 129.566 146.172, 138.336 150.011 C 147.680 154.103, 158.741 153.166, 168.479 147.460 C 171.415 145.739, 173.049 145.271, 173.512 146.019 C 175.482 149.206, 164.050 155.010, 154.018 155.915 L 147.535 156.500 147.518 162.483 L 147.500 168.466 142.898 169.314 C 138.969 170.038, 137.907 170.779, 135.630 174.380 C 131.201 181.387, 122.046 189.596, 114.297 193.509 C 100.141 200.656, 83.926 201.349, 68.875 195.451 C 60.347 192.109, 55.846 188.802, 50.890 182.238 C 46.983 177.064, 46.783 176.489, 47.854 173.528 C 49.498 168.981, 49.276 159.434, 47.443 155.891 C 45.615 152.355, 39.159 145, 37.884 145 C 37.398 145, 37 145.752, 37 146.672 C 37 147.591, 35.851 151.215, 34.447 154.725 C 32.429 159.769, 32.033 162.040, 32.560 165.554 C 33.322 170.634, 33.132 170.722, 26.188 168.501 C 21.924 167.138, 20.841 167.163, 14.204 168.788 L 6.908 170.573 9.958 174.783 C 16.521 183.843, 25.288 187.431, 35.245 185.133 L 40.185 183.992 46.843 190.094 C 57.427 199.794, 70.762 206.527, 84.500 209.106 C 93.460 210.788, 112.909 209.664, 121.500 206.967 C 146.892 198.998, 166.630 181.447, 178.624 156.171 C 185.107 142.509, 188.446 128.960, 190.619 107.500 C 193.829 75.806, 188.173 49.970, 174.090 32 C 169.476 26.111, 168.521 25.186, 161.968 20.253 C 146.305 8.462, 121.967 3.338, 103.715 7.988 M 66.555 74.250 C 65.148 75.487, 63.721 77.944, 63.382 79.710 C 62.867 82.394, 63.264 83.418, 65.806 85.960 C 69.655 89.809, 74.062 90.029, 77.545 86.545 C 84.979 79.112, 74.434 67.316, 66.555 74.250 M 126.456 77.284 C 120.627 82.298, 124.533 92, 132.381 92 C 136.769 92, 140.400 88.151, 140.400 83.500 C 140.400 76.051, 132.160 72.378, 126.456 77.284 M 67.928 77.587 C 66.857 78.877, 66.873 79.304, 68.017 80.010 C 69.692 81.046, 71 80.383, 71 78.500 C 71 76.347, 69.361 75.860, 67.928 77.587 M 127.688 79.646 C 126.272 81.061, 127.073 83, 129.073 83 C 130.471 83, 131.041 82.457, 130.823 81.333 C 130.466 79.492, 128.759 78.574, 127.688 79.646 M 89.473 90.044 C 88.412 91.761, 91.911 96.065, 95.630 97.619 C 99.776 99.351, 104.931 98.629, 108.509 95.814 C 111.247 93.661, 111.871 90, 109.500 90 C 108.675 90, 108 90.438, 108 90.974 C 108 92.294, 102.605 95, 99.973 95 C 98.803 95, 96.496 93.650, 94.846 92 C 91.643 88.796, 90.501 88.381, 89.473 90.044 M 58.982 110.522 C 58.018 111.683, 58.331 112.167, 60.648 113.106 C 67.686 115.960, 82.489 123.212, 85.167 125.119 C 89.067 127.896, 90.044 126.699, 86.714 123.223 C 83.021 119.368, 74.150 114.169, 66.575 111.420 C 61.077 109.424, 59.999 109.296, 58.982 110.522 M 118 114.834 C 110.675 117.458, 98.704 124.051, 97.384 126.188 C 97.020 126.777, 97.122 127.089, 97.611 126.880 C 107.655 122.590, 121.183 117.778, 127.244 116.339 C 131.503 115.328, 134.843 114.050, 134.666 113.500 C 134.012 111.470, 125.483 112.152, 118 114.834 M 54.358 118.750 C 54.699 120.813, 54.983 123.251, 54.989 124.168 C 54.995 125.086, 56.579 126.813, 58.509 128.005 C 62.957 130.755, 67 137.562, 67 142.303 C 67 144.925, 66.150 146.899, 63.933 149.424 C 61.155 152.587, 60.929 153.344, 61.541 157.427 C 62.335 162.718, 62.649 163.001, 70.500 165.461 C 73.800 166.495, 79.596 168.857, 83.379 170.708 C 87.163 172.560, 90.439 173.895, 90.659 173.674 C 90.879 173.454, 89.696 163.793, 88.030 152.206 C 86.363 140.618, 85 130.675, 85 130.111 C 85 129.546, 82.950 127.883, 80.444 126.414 C 75.441 123.482, 56.340 115, 54.741 115 C 54.139 115, 53.986 116.498, 54.358 118.750 M 123.646 121.094 C 118.226 122.733, 110.996 125.342, 107.578 126.892 L 101.365 129.709 103.651 148.105 C 104.909 158.222, 105.952 168.161, 105.969 170.191 C 105.986 172.221, 106.380 174.117, 106.845 174.404 C 107.309 174.691, 109.947 174.068, 112.706 173.020 C 119.187 170.557, 132.060 167.298, 138.750 166.427 L 144 165.742 144 162.062 C 144 157.490, 142.513 155.541, 137.915 154.087 C 135.943 153.464, 133.062 151.630, 131.512 150.012 C 126.412 144.689, 128.496 138.103, 136.620 133.869 C 141.160 131.504, 141.166 131.493, 140.584 127.110 C 140.263 124.696, 140 121.659, 140 120.360 C 140 118.352, 139.515 118.009, 136.750 118.057 C 134.963 118.088, 129.066 119.455, 123.646 121.094 M 47.971 127.750 C 45.936 132.046, 45.828 133.025, 46.841 138 C 48.702 147.146, 56.132 151.868, 61 147 C 65.178 142.822, 62.739 135.165, 55.880 130.926 C 52.888 129.076, 52 127.896, 52 125.764 C 52 121.663, 50.504 122.401, 47.971 127.750 M 89 132.289 C 89 135.007, 95.046 176.266, 95.568 177.110 C 95.871 177.600, 97.731 178, 99.701 178 L 103.285 178 102.658 171.750 C 102.313 168.313, 101.040 157.738, 99.828 148.250 L 97.625 131 93.313 131 C 90.459 131, 89 131.436, 89 132.289 M 71.078 174.570 C 68.144 178.877, 64.008 181.210, 58 181.948 L 53.500 182.500 57 185.853 C 64.141 192.694, 76.719 197, 89.565 197 C 106.434 197, 123.031 188.536, 132.149 175.283 L 135.246 170.783 130.873 171.519 C 128.468 171.923, 121.550 174.042, 115.500 176.227 C 98.974 182.194, 97.857 182.190, 85.916 176.104 C 80.410 173.297, 75.363 171.003, 74.702 171.007 C 74.041 171.011, 72.410 172.614, 71.078 174.570" stroke="none" fill="black" fill-rule="evenodd"/>
</svg>