<svg xmlns="http://www.w3.org/2000/svg" width="182" height="292" viewBox="0 0 182 292" version="1.1">
	<path d="M 74.066 6.300 C 72.593 10.764, 70.003 25.724, 70.001 29.781 C 70 32.023, 69.445 33.243, 68.250 33.630 C 61.637 35.774, 53.450 40.768, 48.604 45.614 L 43.026 51.191 38.697 49.096 C 33.010 46.342, 26.110 46.317, 23.189 49.039 C 20.338 51.694, 20.239 59.026, 22.971 65.200 L 24.941 69.655 21.066 77.369 C 18.935 81.611, 16.698 87.913, 16.096 91.373 C 14.779 98.933, 14.705 112.024, 15.949 117.385 C 16.724 120.727, 16.506 121.789, 14.385 124.995 C 13.029 127.043, 11.658 130.332, 11.338 132.302 C 10.527 137.303, 15.128 146.612, 22.804 155.500 C 28.028 161.550, 28.575 162.545, 26.830 162.832 C 25.719 163.015, 23.530 162.634, 21.965 161.986 C 17.652 160.199, 16.662 161.435, 17.318 167.789 C 18.615 180.361, 26.397 188.048, 38.613 188.826 C 42.134 189.050, 47.091 188.711, 49.629 188.072 C 52.167 187.433, 54.399 187.065, 54.589 187.255 C 54.778 187.445, 54.580 188.924, 54.147 190.542 L 53.360 193.484 46.268 193.156 C 37.918 192.770, 32.352 194.785, 27.245 200.040 C 21.581 205.869, 19.683 211.182, 19.059 222.961 C 18.449 234.456, 18.044 235.652, 14.276 237.085 C 12.307 237.834, 10.980 237.596, 8.296 236.012 C 3.857 233.393, 2.618 234.211, 3.421 239.231 C 5.787 254.029, 21.834 263.097, 37.561 258.525 C 46.966 255.791, 52.924 248.527, 55.463 236.697 L 56.064 233.895 59.513 239.019 C 64.213 246.004, 65.335 250.796, 64.537 260.476 C 63.045 278.572, 64.099 283.395, 70.267 286.697 C 75.053 289.260, 86.630 289.145, 90.197 286.500 C 92.993 284.427, 96.493 277.497, 99.542 268 C 100.512 264.975, 102.122 260.587, 103.118 258.250 C 104.731 254.465, 105.293 254, 108.254 254 C 110.083 254, 114.262 253.271, 117.540 252.380 C 128.139 249.498, 128.002 249.501, 127.985 252.133 C 127.977 253.435, 127.298 256.431, 126.476 258.790 C 123.002 268.765, 130.481 277, 143.013 277 C 147.922 277, 148.580 276.704, 152.061 272.934 C 154.126 270.697, 157.769 265.012, 160.158 260.300 C 164.301 252.125, 164.498 251.339, 164.457 243.117 C 164.413 234.117, 163.429 231.062, 158.417 224.362 C 156.147 221.328, 156.104 220.928, 157.129 212.262 C 158.468 200.938, 157.201 189.912, 153.085 177.058 L 150.061 167.616 153.063 163.558 C 154.714 161.326, 157.570 157.461, 159.411 154.968 C 168.772 142.294, 179 118.110, 179 108.650 C 179 101.455, 175.409 95.703, 169.508 93.450 C 165.234 91.818, 164.762 91.819, 160.415 93.479 C 157.488 94.597, 155.155 96.342, 153.961 98.304 L 152.091 101.379 150.046 96.607 C 148.921 93.982, 148 91.490, 148 91.070 C 148 89.562, 137.209 73.155, 131.566 66.082 L 125.810 58.869 127.905 53.999 C 129.057 51.321, 130 47.075, 130 44.565 C 130 40.713, 129.697 40, 128.059 40 C 126.991 40, 125.840 40.450, 125.500 41 C 124.176 43.142, 123.095 41.799, 122.480 37.250 C 121.462 29.716, 120.009 26.052, 117.349 24.309 C 115.069 22.815, 114.610 22.815, 111.465 24.315 C 108.533 25.714, 102.797 32.108, 101.805 35.086 C 101.366 36.401, 90.806 32.709, 89.902 30.926 C 89.504 30.142, 88.217 25.976, 87.041 21.668 C 85.864 17.360, 83.824 11.398, 82.506 8.418 C 80.536 3.963, 79.670 3, 77.633 3 C 75.716 3, 74.908 3.748, 74.066 6.300 M 76.435 10.492 C 76.075 12.413, 76 14.558, 76.269 15.259 C 76.882 16.855, 81.787 19.546, 82.601 18.732 C 83.230 18.104, 78.497 7, 77.601 7 C 77.320 7, 76.796 8.572, 76.435 10.492 M 74.667 20.667 C 71.844 23.490, 76.528 29.079, 82.889 30.476 C 85.806 31.116, 86.134 30.983, 85.647 29.351 C 85.343 28.333, 84.800 26.262, 84.439 24.750 C 83.915 22.552, 83.215 22, 80.951 22 C 79.393 22, 77.840 21.550, 77.500 21 C 76.786 19.845, 75.625 19.709, 74.667 20.667 M 108.612 31.298 C 106.625 33.722, 105 36.374, 105 37.189 C 105 38.783, 114.394 44, 117.264 44 C 118.676 44, 118.989 43.114, 118.944 39.250 C 118.800 27.195, 114.614 23.973, 108.612 31.298 M 73.190 33.651 C 73.582 38.265, 77.063 41.027, 83.386 41.740 C 88.435 42.309, 88.937 41.595, 87.025 36.565 C 86.302 34.664, 85.331 33.999, 83.275 33.996 C 81.749 33.994, 79.027 33.094, 77.226 31.996 C 75.425 30.898, 73.710 30, 73.415 30 C 73.121 30, 73.019 31.643, 73.190 33.651 M 91.076 37.294 C 91.118 37.957, 91.691 41.875, 92.351 46 L 93.549 53.500 99.371 54.888 C 107.198 56.753, 114.775 55.149, 119.774 50.569 L 123.301 47.336 118.764 47.164 C 113.747 46.974, 108.660 45.123, 103.137 41.478 C 98.149 38.186, 90.975 35.697, 91.076 37.294 M 64 38.722 C 61.813 39.545, 50.911 47.244, 51.334 47.667 C 51.531 47.865, 53.225 47.395, 55.096 46.624 C 56.968 45.853, 60.862 44.905, 63.750 44.517 C 68.717 43.850, 69 43.656, 69 40.906 C 69 37.963, 67.621 37.360, 64 38.722 M 72.007 42.727 C 72.013 44.039, 74.239 45.319, 80.564 47.646 L 89.113 50.792 88.806 48.146 C 88.525 45.714, 88.037 45.450, 82.781 44.885 C 79.636 44.547, 75.923 43.524, 74.531 42.612 C 72.151 41.053, 72 41.060, 72.007 42.727 M 59 48.935 C 55.698 49.943, 48 53.895, 48 54.582 C 48 54.879, 49.989 54.824, 52.420 54.460 C 59.456 53.405, 64.154 54.759, 74.148 60.722 C 85.176 67.302, 90.162 69.002, 98.409 68.994 C 109.373 68.984, 116.037 65.868, 121.393 58.249 C 124.532 53.782, 124.338 51.479, 121.072 54.435 C 118.033 57.185, 112.051 58.908, 105.376 58.956 C 99.046 59.001, 95.407 58.019, 86 53.723 C 74.054 48.267, 65.915 46.824, 59 48.935 M 25.703 51.775 C 23.546 54.159, 23.554 56.284, 25.743 62.391 C 27.729 67.930, 33.378 74.834, 38.529 78.018 C 42.430 80.429, 42.858 81.542, 40.156 82.249 C 35.827 83.381, 37.113 108.675, 42.126 121 C 47.390 133.945, 55.351 142.609, 67.430 148.540 C 76.319 152.906, 84.252 154.395, 94.500 153.622 C 111.867 152.313, 129.076 145.005, 138.328 135.012 C 146.139 126.575, 148.230 122.064, 148.758 112.500 C 149.137 105.637, 148.829 103.520, 146.590 97.604 C 143.073 88.312, 139.199 81.748, 130.879 70.982 L 123.890 61.939 119.899 65.354 C 99.896 82.477, 60.134 82.105, 49.359 64.695 C 43.867 55.821, 38.740 51.774, 31.453 50.565 C 28.201 50.025, 27.072 50.262, 25.703 51.775 M 50.573 59.231 C 54.033 70.130, 71.753 76.661, 90.606 73.985 L 99.338 72.745 90.913 70.623 C 85.146 69.169, 79.317 66.687, 72.430 62.750 C 63.133 57.436, 61.897 57, 56.118 57 C 50.105 57, 49.892 57.085, 50.573 59.231 M 24.192 79.140 C 22.534 82.638, 20.639 87.525, 19.981 90 C 18.683 94.886, 18.361 111.816, 19.471 116.867 C 20.083 119.656, 20.547 120, 23.688 120 C 27.026 120, 27.180 119.854, 26.536 117.287 C 23.622 105.678, 24.363 89.700, 28.234 80.686 C 30.099 76.343, 30.150 75.721, 28.754 74.326 C 27.359 72.930, 26.913 73.400, 24.192 79.140 M 31.089 80.267 C 28.484 87.117, 27.635 92.376, 27.661 101.500 C 27.700 115.581, 28.877 119.052, 35.260 123.920 C 38.116 126.098, 40.576 127.758, 40.725 127.608 C 40.874 127.459, 39.919 124.673, 38.602 121.418 C 35.136 112.852, 33.599 101.619, 34.306 90.021 C 34.786 82.131, 34.620 79.929, 33.470 78.975 C 32.304 78.007, 31.855 78.250, 31.089 80.267 M 119.455 87.455 C 116.788 90.121, 116.101 95, 118.392 95 C 119.157 95, 120.070 93.856, 120.422 92.457 C 121.298 88.964, 124.759 87.799, 128.240 89.825 C 132.118 92.081, 134.078 90.082, 130.895 87.117 C 127.733 84.171, 122.586 84.323, 119.455 87.455 M 159.828 97.037 C 158.084 98.054, 153.994 104.086, 154.009 105.618 C 154.013 106.103, 156.683 107.331, 159.941 108.347 C 163.208 109.365, 167.676 111.742, 169.901 113.647 C 173.899 117.069, 173.941 117.080, 174.474 114.801 C 176.178 107.510, 175.393 102.782, 171.881 99.190 C 169.487 96.741, 167.919 96.007, 165.131 96.030 C 163.134 96.047, 160.747 96.500, 159.828 97.037 M 70.455 104.455 C 67.954 106.955, 67.171 111.370, 69.026 112.516 C 69.590 112.865, 70.537 111.757, 71.131 110.054 C 72.659 105.670, 75.221 104.546, 79.106 106.555 C 81.466 107.775, 82.507 107.888, 83.365 107.014 C 84.215 106.148, 83.908 105.374, 82.139 103.929 C 78.779 101.184, 73.487 101.422, 70.455 104.455 M 115 109.441 C 115 111.495, 117.070 112.504, 118.046 110.926 C 118.498 110.194, 118.646 109.237, 118.375 108.798 C 117.535 107.438, 115 107.921, 115 109.441 M 152.630 112.099 C 152.284 113.832, 152 116.506, 152 118.040 C 152 122.187, 146.184 132.340, 140.500 138.115 C 134.106 144.612, 125.943 149.374, 114.549 153.254 C 106.980 155.832, 103.536 156.409, 93.488 156.781 C 86.356 157.045, 79.856 156.778, 77.488 156.123 C 74.904 155.409, 73.383 155.369, 73.167 156.010 C 72.983 156.555, 72.348 157, 71.755 157 C 70.477 157, 54.557 145.146, 45.388 137.368 C 40.827 133.499, 38.380 132.062, 37.063 132.480 C 34.534 133.283, 25.339 142.443, 23.508 145.984 C 22.086 148.734, 22.168 149.013, 25.602 153.173 C 27.567 155.553, 30.598 158.887, 32.338 160.581 C 37.716 165.822, 55.140 180.150, 58.660 182.227 C 62.443 184.459, 62.905 185.950, 60.046 186.698 C 57.365 187.399, 56.485 193.279, 56.561 210 C 56.617 222.251, 56.876 224.146, 59.353 230.480 C 60.855 234.319, 62.935 238.369, 63.975 239.480 C 67.145 242.865, 68 246.681, 68 257.442 L 68 267.754 73.185 269.984 C 76.332 271.338, 81.360 272.419, 85.982 272.736 L 93.595 273.258 97.548 262.379 L 101.500 251.500 107.633 250.823 C 114.967 250.014, 122.186 247.966, 127.803 245.101 C 130.067 243.945, 132.388 243, 132.960 243 C 134.513 243, 134.215 245.780, 132.562 246.705 C 130.135 248.064, 131.720 255.676, 134.885 257.863 C 139.196 260.840, 145.762 263, 150.503 263 C 154.827 263, 155.041 262.852, 157.346 258.250 C 163.610 245.748, 162.692 234.918, 154.548 225.240 C 152.138 222.375, 152.074 221.973, 153.125 216.370 C 154.863 207.102, 153.638 189.992, 150.556 180.500 C 147.851 172.169, 145.999 167.514, 143.430 162.593 C 142.319 160.465, 142.211 159.394, 143.024 158.593 C 144.109 157.525, 146.324 159.491, 147.301 162.392 C 148.350 165.503, 158.051 152.058, 166.041 136.421 C 173.658 121.512, 173.809 120.439, 168.915 115.921 C 166.770 113.941, 163.099 111.770, 160.758 111.097 C 158.416 110.423, 155.771 109.664, 154.880 109.410 C 153.709 109.076, 153.086 109.820, 152.630 112.099 M 107.177 112.553 C 107.629 114.725, 109.404 114.858, 109.810 112.750 C 110.020 111.655, 109.530 111, 108.500 111 C 107.539 111, 106.988 111.647, 107.177 112.553 M 21.388 123.980 C 18.223 125.259, 15 129.893, 15 133.167 C 15 136.157, 17.227 142.364, 19.117 144.642 C 19.954 145.649, 21.077 144.817, 24.185 140.885 C 26.382 138.106, 30.180 134.422, 32.626 132.698 L 37.073 129.564 34.786 127.717 C 32.073 125.526, 26.587 122.974, 24.782 123.063 C 24.077 123.098, 22.550 123.511, 21.388 123.980 M 99.250 123.708 C 97.661 124.291, 97.609 128.703, 99.185 129.228 C 99.837 129.446, 102.008 129.186, 104.011 128.652 C 106.862 127.891, 108.373 128.040, 110.980 129.340 C 112.810 130.253, 114.672 131, 115.118 131 C 116.534 131, 118.134 126.999, 117.508 125.025 C 116.978 123.356, 115.912 123.134, 108.703 123.187 C 104.191 123.221, 99.938 123.455, 99.250 123.708 M 21.022 168.500 C 21.059 171.881, 24.596 178.537, 27.624 180.924 C 29.881 182.703, 31.342 183.078, 34.413 182.668 C 38.731 182.093, 43.500 179.061, 43.500 176.892 C 43.500 176.126, 41.311 173.482, 38.635 171.017 C 33.938 166.688, 33.550 166.533, 27.385 166.517 C 21.654 166.502, 21.002 166.705, 21.022 168.500 M 44.016 180.483 C 42.733 181.848, 40.855 183.229, 39.842 183.550 C 38.829 183.872, 38 184.616, 38 185.205 C 38 186.514, 48.226 185.485, 51.238 183.873 C 53.207 182.819, 53.183 182.719, 50.383 180.430 C 46.783 177.485, 46.832 177.485, 44.016 180.483 M 36.500 197.879 C 27.488 202.013, 23 209.763, 23 221.191 C 23 231.358, 22.240 234.531, 18.967 238.036 C 16.974 240.169, 15.259 241.004, 12.849 241.015 C 10.319 241.027, 9.867 241.268, 11 242 C 15.067 244.629, 22.951 241.929, 25.478 237.042 C 26.310 235.433, 27.905 230.195, 29.023 225.402 C 31.589 214.396, 33.260 210.901, 38.005 206.615 C 40.676 204.202, 43.466 202.837, 47.402 202.020 C 50.966 201.280, 53 200.352, 53 199.464 C 53 195.780, 43.140 194.833, 36.500 197.879 M 43.097 206.082 C 36.682 209.993, 34.267 214.136, 31.622 225.763 C 30.738 229.651, 29.532 234.108, 28.943 235.666 C 26.319 242.611, 17.982 247.235, 11.904 245.116 C 8.137 243.803, 8.208 245.156, 12.077 248.411 C 16.022 251.731, 21.882 251.855, 28.033 248.750 C 33.300 246.091, 37.366 239.067, 39.069 229.688 C 40.703 220.688, 43.385 215.408, 47.917 212.273 C 50.918 210.196, 51.934 208.810, 51.962 206.750 C 51.994 204.407, 51.593 204.001, 49.250 204.004 C 47.737 204.006, 44.969 204.941, 43.097 206.082 M 47.711 215.392 C 45.316 217.612, 42.610 224.882, 39.035 238.705 C 37.178 245.884, 31.089 251.320, 22.500 253.466 L 19.500 254.215 22 255.189 C 25.626 256.602, 34.015 256.310, 38.031 254.631 C 47.206 250.797, 50.897 244.763, 52.179 231.500 C 53.052 222.474, 52.475 213, 51.052 213 C 50.634 213, 49.131 214.076, 47.711 215.392 M 129.607 259.582 C 128.236 263.156, 129.098 266.298, 132.341 269.541 C 138.258 275.458, 145.888 275.457, 150.402 269.540 C 151.831 267.666, 153 265.991, 152.999 265.817 C 152.999 265.643, 150.890 265.364, 148.312 265.197 C 143.294 264.873, 134.803 261.672, 132.909 259.390 C 131.399 257.571, 130.355 257.632, 129.607 259.582 M 67.539 270.794 C 67.243 271.091, 67 272.878, 67 274.767 C 67 279.425, 72.380 284.933, 77.150 285.158 C 85.396 285.548, 89.137 284.034, 91.341 279.410 C 92.254 277.497, 93 275.722, 93 275.466 C 93 275.210, 89.963 274.989, 86.250 274.976 C 81.497 274.960, 77.811 274.258, 73.789 272.604 C 70.648 271.312, 67.836 270.498, 67.539 270.794" stroke="none" fill="black" fill-rule="evenodd"/>
</svg>