<svg xmlns="http://www.w3.org/2000/svg" width="182" height="290" viewBox="0 0 182 290" version="1.1">
	<path d="M 70.595 8.250 C 68.607 13.630, 67.342 19.723, 66.483 28.065 L 65.807 34.630 58.728 39.404 L 51.650 44.178 48.575 40.552 C 42.151 32.976, 33.651 30.466, 30.621 35.250 C 28.288 38.934, 27.884 43.182, 29.337 48.750 C 30.650 53.780, 30.624 54, 28.723 54 C 26.999 54, 26.816 54.478, 27.329 57.640 C 27.654 59.642, 29.008 62.925, 30.338 64.934 L 32.756 68.588 28.890 75.544 C 22.702 86.678, 17 106.240, 17 116.337 C 17 122.031, 20.082 132.758, 23.292 138.236 C 25.782 142.484, 29.873 146.696, 34.989 150.280 L 37.272 151.879 30.563 159.190 C 10.862 180.654, -1.075 208.610, 4.470 220.296 C 7.498 226.677, 16.667 229.549, 24.250 226.492 C 25.400 226.028, 26.008 226.251, 26.024 227.143 C 26.037 227.889, 27.184 231.200, 28.572 234.500 C 29.961 237.800, 31.466 242.525, 31.918 245 C 36.631 270.816, 39.790 280.506, 44.500 283.592 C 47.869 285.799, 56.684 286.590, 61.223 285.091 C 67.530 283.010, 69.884 279.409, 71.133 269.934 C 72.657 258.358, 72.260 259, 77.898 259 L 82.858 259 84.006 264.750 C 85.886 274.172, 86.868 277.325, 89.010 280.810 C 95.194 290.874, 115.219 288.049, 118.961 276.585 C 119.515 274.888, 120.403 268.550, 120.935 262.500 C 121.467 256.450, 122.744 248.800, 123.772 245.500 L 125.642 239.500 126.393 244.500 C 128.689 259.779, 138.150 268.015, 153.376 267.990 C 166.529 267.969, 179 257.283, 179 246.032 C 179 242.642, 177.569 242.175, 174.816 244.667 C 172.135 247.093, 167.067 246.801, 164.875 244.094 C 163.369 242.234, 163.093 240.215, 163.247 232.177 C 163.384 224.994, 162.955 221.106, 161.582 217.090 C 157.815 206.070, 146.800 199.043, 135.393 200.384 C 130.156 200.999, 130.029 200.954, 129.485 198.256 C 129.179 196.740, 128.269 193.210, 127.464 190.412 C 126.659 187.614, 126 185.101, 126 184.827 C 126 184.554, 129.552 184.536, 133.893 184.788 C 140.752 185.185, 142.488 184.922, 147.143 182.779 C 157.815 177.867, 162.952 168.776, 161.522 157.332 C 160.721 150.921, 159.188 149.903, 155.656 153.435 C 154.245 154.846, 152.350 156, 151.444 156 C 150.072 156, 150.240 155.290, 152.448 151.750 C 159.063 141.146, 161.395 134.817, 161.449 127.318 C 161.496 120.714, 161.266 119.892, 158.585 117.091 C 156.982 115.417, 154.237 113.573, 152.484 112.995 L 149.299 111.943 148.697 102.222 C 147.806 87.806, 144.022 77.268, 136.172 67.337 L 132.201 62.313 134.068 56.907 C 138.130 45.141, 135.650 36, 128.395 36 C 124.045 36, 119.436 37.908, 115.241 41.445 L 111.983 44.192 108.292 40.952 C 103.593 36.826, 97.353 34.066, 91.031 33.317 L 86.063 32.729 84.584 27.614 C 83.771 24.802, 82.633 20.378, 82.056 17.783 C 79.124 4.608, 73.630 0.037, 70.595 8.250 M 73.199 11.500 C 70.649 20.876, 70.648 20.905, 72.844 20.330 C 73.959 20.039, 75.609 18.985, 76.511 17.988 C 78.035 16.304, 78.014 15.866, 76.219 11.837 L 74.286 7.500 73.199 11.500 M 74.250 23.095 C 70.252 24.810, 70 25.158, 70 28.959 C 70 33.587, 70.308 33.719, 74.770 30.999 C 78.531 28.706, 80.634 24.924, 79.361 22.745 C 78.613 21.465, 77.941 21.511, 74.250 23.095 M 79.625 31.862 C 78.597 32.998, 75.785 34.680, 73.378 35.600 C 69.251 37.176, 69 37.493, 69 41.136 C 69 43.261, 69.338 44.997, 69.750 44.994 C 72.772 44.972, 78.077 42.529, 80.424 40.080 C 82.926 37.467, 83.138 36.745, 82.364 33.471 C 81.496 29.800, 81.493 29.798, 79.625 31.862 M 33.082 37.846 C 30.889 41.945, 32.733 53.300, 35.782 54.470 C 37.585 55.162, 45.062 51.694, 47.446 49.059 C 49.042 47.296, 49.046 46.999, 47.504 44.646 C 45.360 41.374, 39.962 37.280, 36.719 36.466 C 34.771 35.977, 33.907 36.305, 33.082 37.846 M 87.015 38.399 C 87.042 42.007, 88.230 42.512, 95.872 42.163 L 103.244 41.826 99.955 39.827 C 98.147 38.727, 94.492 37.483, 91.833 37.063 C 87.344 36.353, 87.001 36.448, 87.015 38.399 M 123.500 40.389 C 116.194 43.580, 109.789 51.783, 108.543 59.542 C 106.921 69.646, 91.181 78.903, 72.790 80.570 C 61.946 81.553, 51.940 79.731, 42.723 75.097 L 34.945 71.187 32.941 75.115 C 28.966 82.908, 23.853 96.638, 22.441 103.315 C 18.883 120.140, 22.619 135.190, 32.508 143.873 C 41.044 151.367, 61.189 157.956, 75.662 157.987 C 95.788 158.030, 114.193 149.295, 121.491 136.237 C 124.574 130.721, 127.651 120.482, 128.474 113 C 129.762 101.291, 125.304 78.304, 120.889 73.889 C 118.897 71.897, 118.900 71.890, 123.841 66.483 C 129.448 60.349, 132 54.104, 132 46.522 C 132 39.162, 129.854 37.613, 123.500 40.389 M 61 41.752 C 59.625 42.658, 55.800 45.935, 52.500 49.035 C 45.517 55.595, 43.418 56.849, 37.703 57.874 L 33.500 58.628 36.853 60.716 C 38.698 61.864, 42.073 63.081, 44.353 63.419 C 52.247 64.591, 66.966 58.960, 65.564 55.305 C 65.254 54.497, 65 50.723, 65 46.918 C 65 43.113, 64.662 40.024, 64.250 40.052 C 63.837 40.081, 62.375 40.846, 61 41.752 M 80.302 44.693 C 78.543 46.059, 75.241 47.426, 72.965 47.731 C 68.753 48.296, 67.321 49.789, 68.370 52.523 C 68.838 53.742, 70.408 53.099, 76.227 49.306 C 80.227 46.699, 83.659 44.467, 83.854 44.346 C 84.049 44.224, 84.049 43.694, 83.854 43.168 C 83.659 42.641, 82.061 43.328, 80.302 44.693 M 90.718 46.049 C 85.408 47.359, 82.535 48.988, 72.922 56.136 C 59.072 66.435, 48.862 69.204, 38.500 65.471 C 33.255 63.582, 33.259 63.580, 36.076 66.599 C 37.409 68.028, 40.750 70.385, 43.500 71.836 C 47.735 74.071, 49.724 74.467, 56.500 74.423 C 67.673 74.351, 74.894 70.925, 85.006 60.901 C 93.567 52.413, 97.861 50, 104.401 50 C 109.757 50, 110.406 48.609, 105.750 47.107 C 100.597 45.445, 94.814 45.038, 90.718 46.049 M 97.500 53.558 C 95.850 54.408, 91.350 58.163, 87.500 61.902 C 79.107 70.053, 76.221 72.066, 69 74.808 L 63.500 76.896 69.500 76.933 C 87.186 77.043, 103.051 68.262, 105.598 56.954 L 106.714 52 103.607 52.006 C 101.898 52.010, 99.150 52.708, 97.500 53.558 M 128.493 67.159 C 128.181 67.971, 129.534 71.305, 131.499 74.567 C 133.463 77.830, 135.747 82.750, 136.574 85.500 C 138.665 92.457, 140.323 105.441, 139.759 110.442 L 139.288 114.626 142.749 113.063 L 146.210 111.500 145.534 103.724 C 144.251 88.970, 138.962 75.170, 132.052 68.549 C 129.696 66.293, 128.939 65.997, 128.493 67.159 M 125 71.203 C 125 71.450, 126.096 74.788, 127.435 78.621 C 131.227 89.474, 132.335 97.982, 131.743 111.697 C 131.450 118.464, 131.328 124, 131.470 124 C 131.612 124, 132.914 122.288, 134.364 120.196 C 136.758 116.741, 137 115.525, 137 106.926 C 137 96.559, 134.703 86.295, 130.550 78.099 C 128.524 74.101, 125 69.723, 125 71.203 M 43.315 96.007 C 36.154 98.893, 38.322 111, 46 111 C 52.803 111, 55.823 101.366, 50.365 97.073 C 47.495 94.815, 46.608 94.680, 43.315 96.007 M 96.921 99.352 C 90.614 102.496, 91.102 111.567, 97.713 114.081 C 102.214 115.792, 107.051 111.414, 106.968 105.703 C 106.898 100.850, 101.174 97.232, 96.921 99.352 M 47.694 99.639 C 46.895 100.438, 47.798 102, 49.059 102 C 49.577 102, 50 101.325, 50 100.500 C 50 98.954, 48.820 98.513, 47.694 99.639 M 101.500 103 C 101.101 103.646, 101.224 104.624, 101.774 105.174 C 102.441 105.841, 103.016 105.783, 103.500 105 C 103.899 104.354, 103.776 103.376, 103.226 102.826 C 102.559 102.159, 101.984 102.217, 101.500 103 M 140.535 119.104 C 138.591 120.811, 137 122.570, 137 123.014 C 137 123.458, 139.008 124.793, 141.462 125.981 C 143.915 127.169, 148.201 130.280, 150.985 132.894 L 156.047 137.646 157.598 132.312 C 159.493 125.791, 158.314 121.072, 154.024 118.017 C 149.761 114.982, 144.771 115.384, 140.535 119.104 M 63.400 123.400 C 63.034 124.354, 63.229 125.629, 63.834 126.234 C 64.634 127.034, 65.116 126.861, 65.600 125.600 C 65.966 124.646, 65.771 123.371, 65.166 122.766 C 64.366 121.966, 63.884 122.139, 63.400 123.400 M 71.446 124.087 C 71.077 124.685, 71.236 125.636, 71.800 126.200 C 73.062 127.462, 75 126.396, 75 124.441 C 75 122.757, 72.426 122.501, 71.446 124.087 M 128.569 134.449 C 117.128 149.101, 108.347 155.420, 94.325 159.093 C 80.141 162.809, 62.328 161.594, 46.686 155.845 L 40.873 153.709 36.349 158.104 C 27.059 167.132, 15.207 184.606, 10.903 195.619 C 9.426 199.398, 9.425 199.905, 10.897 201.776 C 12.526 203.848, 21.727 210, 23.196 210 C 23.638 210, 24.008 208.762, 24.017 207.250 C 24.059 200.729, 31.039 174.712, 33.087 173.446 C 35.424 172.002, 35.828 174.398, 34.073 179.291 C 30.139 190.262, 27.590 203.348, 27.604 212.500 C 27.619 221.620, 28.380 225.100, 32.521 235 C 33.787 238.025, 35.873 246.303, 37.157 253.395 C 38.441 260.487, 39.954 266.923, 40.520 267.696 C 42.285 270.110, 53.951 271.548, 61.056 270.227 C 64.468 269.592, 67.381 268.944, 67.528 268.786 C 67.676 268.629, 67.955 266.290, 68.148 263.589 L 68.500 258.679 64.074 257.589 C 61.640 256.990, 59.474 255.964, 59.260 255.308 C 58.968 254.410, 62.025 254.246, 71.686 254.641 C 78.734 254.929, 85.024 255.323, 85.663 255.518 C 86.303 255.712, 87.142 258.812, 87.527 262.407 C 87.912 266.007, 88.857 269.466, 89.629 270.107 C 91.725 271.846, 108.592 270.700, 113.110 268.512 L 116.719 266.763 117.945 256.632 C 118.818 249.413, 120.214 243.912, 122.801 237.500 C 126.405 228.565, 126.431 228.391, 126.466 213.500 C 126.495 200.636, 126.177 197.473, 124.233 191.288 C 122.521 185.842, 121.602 184.215, 120.483 184.645 C 116.832 186.046, 119.511 181.894, 125.082 177.517 C 134.595 170.043, 154 145.777, 154 141.355 C 154 138.104, 144.308 129.588, 137.788 127.109 C 135.220 126.133, 134.804 126.464, 128.569 134.449 M 78.729 136.203 C 76.355 138.742, 75.350 139.120, 71.729 138.834 C 68.488 138.578, 67.500 138.851, 67.500 140 C 67.500 141.106, 68.890 141.580, 72.796 141.804 C 77.705 142.085, 78.351 141.849, 81.621 138.579 C 84.929 135.271, 85.404 132.848, 82.691 133.119 C 82.036 133.184, 80.253 134.572, 78.729 136.203 M 156 158 C 155.175 158.533, 152.908 158.976, 150.962 158.985 C 147.985 158.998, 146.795 159.744, 143.462 163.693 C 136.362 172.102, 136.485 171.715, 140.203 173.982 C 142.119 175.151, 145.259 175.994, 147.699 175.996 C 153.586 176.002, 157.205 171.316, 157.813 162.902 C 158.272 156.567, 158.261 156.539, 156 158 M 131.296 176.367 C 129.212 178.277, 127.833 180.166, 128.231 180.565 C 129.595 181.928, 138.763 182.233, 142.393 181.035 C 146.063 179.824, 146.439 178, 143.018 178 C 141.992 178, 139.788 176.851, 138.120 175.447 L 135.086 172.894 131.296 176.367 M 6.958 207.157 C 4.844 215.007, 7.437 221.282, 13.900 223.959 C 15.950 224.808, 17.556 224.766, 20.548 223.786 C 24.365 222.536, 24.481 222.365, 24.149 218.497 C 23.717 213.460, 23.660 213.377, 18.960 210.980 C 16.813 209.884, 13.492 207.615, 11.582 205.937 L 8.107 202.887 6.958 207.157 M 132.692 203.664 C 131.563 203.979, 130.999 204.918, 131.192 206.160 C 131.410 207.569, 133.047 208.673, 136.784 209.934 C 146.264 213.131, 150.951 219.947, 152.994 233.510 C 154.475 243.336, 155.950 247.029, 159.514 249.832 C 162.428 252.124, 168.331 252.725, 171 251 C 172.134 250.267, 171.689 250.027, 169.173 250.015 C 166.842 250.005, 164.971 249.125, 162.923 247.077 C 160.080 244.234, 160 243.878, 160 234.112 C 160 218.601, 156.345 210.245, 147.777 206.171 C 143.310 204.047, 135.791 202.797, 132.692 203.664 M 131 214.308 C 131 216.932, 131.501 218.024, 132.911 218.472 C 135.402 219.262, 139.397 224.574, 140.830 229 C 141.453 230.925, 142.640 236.069, 143.468 240.430 C 144.345 245.054, 145.993 249.902, 147.420 252.059 C 152.123 259.165, 163.817 262.292, 169.365 257.927 C 170.814 256.788, 172 255.534, 172 255.142 C 172 254.749, 169.637 254.429, 166.749 254.429 C 156.978 254.429, 153.552 249.909, 150.023 232.364 C 148.944 227.001, 147.226 221.722, 146 220 C 143.048 215.854, 137.946 212.139, 134.166 211.383 C 131.086 210.767, 131 210.846, 131 214.308 M 130.224 225.250 C 129.184 229.613, 130.088 247.664, 131.539 251.500 C 135.194 261.162, 147.499 266.920, 158.071 263.915 C 161.135 263.044, 161.884 262.536, 160.500 262.268 C 148.512 259.943, 143.250 253.808, 140.413 238.853 C 138.531 228.935, 136.358 223.262, 133.945 221.971 C 131.342 220.577, 131.337 220.582, 130.224 225.250 M 111.500 271.776 C 109.189 272.642, 103.805 273.323, 98.753 273.388 C 93.942 273.450, 90.004 273.860, 90.003 274.300 C 89.996 276.187, 93.190 281.031, 95.122 282.065 C 97.944 283.575, 106.343 283.427, 109.694 281.807 C 112.860 280.277, 116.288 274.887, 115.824 272.170 C 115.518 270.385, 115.272 270.362, 111.500 271.776 M 42.470 274.616 C 45.152 281.092, 50.850 283.869, 58.506 282.433 C 62.363 281.709, 67 277.064, 67 273.923 C 67 271.779, 65.833 271.637, 59.013 272.953 C 54.780 273.769, 46.707 273.024, 42.681 271.446 C 40.948 270.767, 40.938 270.918, 42.470 274.616" stroke="none" fill="black" fill-rule="evenodd"/>
</svg>