<svg xmlns="http://www.w3.org/2000/svg" width="227" height="265" viewBox="0 0 227 265" version="1.1">
	<path d="M 45 3.978 C 43.788 4.744, 43.466 7.831, 43.325 20.055 C 43.229 28.375, 43.004 35.280, 42.825 35.399 C 42.646 35.517, 40.640 37.048, 38.366 38.799 C 34.578 41.718, 34.118 41.845, 32.866 40.321 C 30.472 37.407, 22.703 33, 19.959 33 C 14.397 33, 11.927 40.500, 14.183 50.541 C 14.853 53.522, 14.798 53.575, 11.433 53.182 C 8.377 52.825, 8.001 53.040, 8.009 55.141 C 8.020 57.708, 12.886 66.831, 15.326 68.855 C 16.665 69.967, 16.558 70.751, 14.405 75.620 C 4.108 98.901, 0.661 118.853, 4.968 130.244 C 9.390 141.941, 18.895 150.515, 32.689 155.247 L 39.486 157.579 38.993 161.539 C 38.722 163.718, 38.555 170.900, 38.623 177.500 C 38.729 187.903, 39.110 190.498, 41.486 197 C 44.396 204.965, 45.333 209.040, 49.516 231.940 C 50.966 239.882, 53.023 248.085, 54.086 250.169 C 56.420 254.744, 60.426 257.001, 66.200 256.996 C 70.739 256.992, 76.984 253.973, 77.022 251.765 C 77.034 251.069, 77.920 252.429, 78.990 254.788 C 83.155 263.966, 97.453 264.477, 102.911 255.644 C 103.979 253.915, 105.593 248.232, 106.498 243.015 C 107.403 237.798, 108.673 233.181, 109.322 232.754 C 109.970 232.327, 112.300 232.096, 114.500 232.239 L 118.500 232.500 119.170 238.500 C 120.051 246.387, 121.341 249.522, 124.573 251.640 C 127.956 253.857, 135.472 253.909, 139.807 251.746 C 143.013 250.147, 143.117 250.163, 144.156 252.443 C 145.577 255.562, 149.035 257, 155.113 257 C 162.951 257, 166.511 254.294, 169.587 246 C 170.849 242.598, 171.326 237.351, 171.542 224.500 C 171.851 206.184, 173.165 198.302, 174.305 207.929 C 176.020 222.411, 189.522 233.382, 203.370 231.545 C 212.255 230.367, 219.319 225.271, 222.447 217.782 C 225.561 210.328, 223.618 206.705, 218.559 210.532 C 213.905 214.052, 208 210.485, 208 204.153 C 208 202.245, 209.401 196.232, 211.114 190.792 C 213.938 181.823, 214.186 179.994, 213.769 171.200 C 213.208 159.374, 211.064 153.969, 204.217 147.122 C 198.333 141.237, 190.481 137.990, 182.212 138.022 C 175.285 138.049, 169.635 140.432, 164.629 145.438 L 160.959 149.107 158.230 147.216 C 156.728 146.176, 154.776 145.066, 153.892 144.749 C 153.008 144.431, 152.007 142.783, 151.667 141.086 C 150.921 137.354, 148.813 137.111, 146.592 140.500 C 144.473 143.734, 140.662 143.753, 137.455 140.545 C 134.468 137.559, 134.318 133.957, 136.729 123.208 C 137.935 117.835, 138.435 111.410, 138.380 102 C 138.311 90.065, 137.987 87.576, 135.589 80.528 C 132.261 70.752, 127.586 62.923, 121.565 57.042 L 117 52.584 117 44.927 C 117 38.695, 116.614 36.779, 114.927 34.635 C 111.284 30.003, 102.652 31.801, 96.431 38.488 L 94.362 40.712 91.931 38.711 C 86.895 34.564, 77.003 30.733, 70.050 30.236 L 63.299 29.753 58.488 19.626 C 53.284 8.672, 49.595 2.991, 47.699 3.015 C 47.040 3.024, 45.825 3.457, 45 3.978 M 46.663 9.125 C 45.686 12.777, 45.884 20, 46.961 20 C 47.965 20, 52.004 16.037, 51.995 15.061 C 51.992 14.753, 50.934 12.756, 49.644 10.625 C 47.389 6.900, 47.274 6.842, 46.663 9.125 M 51.055 21.594 C 49.160 22.897, 47.252 24.084, 46.814 24.232 C 46.376 24.379, 46.351 26.419, 46.759 28.765 L 47.500 33.030 51.238 30.487 C 55.245 27.761, 56.589 24.735, 55.302 21.338 L 54.500 19.224 51.055 21.594 M 55.572 30.925 C 54.028 32.536, 51.419 34.412, 49.773 35.094 C 47.013 36.237, 46.822 36.637, 47.307 40.249 C 47.595 42.403, 48.046 44.379, 48.308 44.641 C 49.340 45.673, 55.742 42.096, 58.297 39.059 C 61.415 35.353, 61.432 35.257, 59.689 31.112 L 58.379 27.995 55.572 30.925 M 65 33.824 C 65 34.419, 65.536 36.082, 66.191 37.520 C 67.081 39.473, 67.902 39.994, 69.441 39.580 C 70.573 39.276, 74.650 38.984, 78.500 38.932 L 85.500 38.836 80.299 36.459 C 74.346 33.738, 65 32.129, 65 33.824 M 105.426 35.966 C 104.286 36.427, 101.259 38.899, 98.700 41.458 C 94.317 45.841, 93.177 48.213, 91.474 56.500 C 90.631 60.602, 80.907 69.820, 73.793 73.260 C 60.226 79.820, 42.187 81.259, 29.500 76.792 C 25.650 75.437, 21.789 74.010, 20.921 73.622 C 19.206 72.857, 18.118 74.866, 13.628 87.095 C 3.661 114.238, 4.422 129.475, 16.340 141.393 C 25.274 150.327, 38.849 155, 55.866 155 C 84.582 155, 103.571 142.892, 111.600 119.464 C 113.989 112.490, 114.325 110.008, 114.296 99.500 C 114.268 89.163, 113.890 86.395, 111.569 79.527 C 108.717 71.089, 107.337 68.674, 105.880 69.574 C 105.388 69.878, 104.719 69.432, 104.393 68.583 C 104.049 67.686, 105.043 65.459, 106.763 63.270 C 111.478 57.271, 113.227 53.038, 113.766 46.325 C 114.515 37.001, 111.653 33.446, 105.426 35.966 M 17.519 38.331 C 16.415 40.016, 16.169 41.953, 16.631 45.324 C 17.848 54.206, 20.739 54.941, 28.146 48.249 L 32.070 44.704 29.785 42.255 C 27.800 40.127, 21.055 36, 19.563 36 C 19.279 36, 18.359 37.049, 17.519 38.331 M 35.465 46.088 C 25.322 55.751, 23.406 57, 18.718 57 C 14.348 57, 14.533 58.190, 19.287 60.649 C 25.087 63.648, 36.586 62.431, 43.684 58.067 C 46.751 56.181, 46.830 55.969, 45.806 52.305 C 45.222 50.212, 44.448 46.250, 44.087 43.500 L 43.430 38.500 35.465 46.088 M 60.190 42.093 C 58.920 43.670, 55.735 45.722, 53.112 46.654 C 48.993 48.117, 48.404 48.664, 48.788 50.674 C 49.033 51.953, 49.468 53, 49.755 53 C 50.042 53, 52.150 51.313, 54.441 49.250 C 56.732 47.188, 59.932 44.533, 61.553 43.352 C 63.509 41.926, 64.164 40.871, 63.500 40.215 C 62.838 39.561, 61.719 40.197, 60.190 42.093 M 68.500 43.968 C 65.642 45.108, 60.073 48.983, 55.500 53.013 C 51.100 56.891, 45.025 61.261, 42 62.725 C 35.048 66.090, 25.157 66.928, 19.633 64.620 C 14.658 62.541, 15.219 64.400, 20.871 68.723 C 26.286 72.865, 31.881 74.338, 40 73.759 C 49.353 73.092, 55.816 69.490, 65.500 59.545 C 75.918 48.846, 78.922 46.859, 85.855 46.079 C 91.108 45.488, 91.340 45.355, 89.199 44.160 C 85.030 41.832, 74.106 41.731, 68.500 43.968 M 78.946 50.821 C 76.501 52.373, 71.800 56.560, 68.500 60.127 C 61.153 68.068, 57 71.238, 50.500 73.868 L 45.500 75.891 49 75.928 C 64.955 76.098, 85.286 64.863, 87.914 54.425 C 88.542 51.935, 88.791 49.470, 88.468 48.949 C 87.387 47.198, 83.428 47.977, 78.946 50.821 M 114.589 57.629 C 114.166 58.730, 114.668 60.366, 115.914 61.951 C 126.869 75.880, 130.780 96.878, 126.068 116.468 C 121.519 135.379, 121.001 138.226, 121.022 144.206 C 121.063 155.974, 127.179 163.830, 137.037 164.778 C 140.379 165.099, 142.531 164.806, 143.653 163.877 C 146.413 161.593, 148.955 154.798, 148.978 149.642 C 149 144.813, 148.983 144.788, 146.250 145.577 C 140.948 147.107, 137.767 146.423, 134.814 143.118 C 132.366 140.378, 132 139.157, 132 133.734 C 132 130.305, 132.701 123.900, 133.557 119.500 C 138.093 96.190, 132.412 72.517, 119.201 59.678 C 115.784 56.357, 115.180 56.089, 114.589 57.629 M 111.124 63.351 C 110.044 64.652, 110.258 65.987, 112.404 71.353 C 116.994 82.825, 118.257 90.330, 117.729 103 C 117.248 114.552, 116.806 116.355, 110.238 133.500 C 109.334 135.859, 108.668 140.988, 108.615 146 C 108.533 153.642, 108.826 155.052, 111.512 159.972 C 115.414 167.117, 119.706 170.004, 126.398 169.986 C 135.140 169.963, 139.255 167.901, 133.039 166.658 C 128.690 165.788, 122.560 159.728, 119.993 153.761 C 117.120 147.083, 117.626 139.389, 122.050 122.500 C 128.151 99.211, 125.435 77.638, 114.765 64.644 C 112.686 62.113, 112.273 61.966, 111.124 63.351 M 21.635 96.073 C 19.587 97.683, 19 99.021, 19 102.073 C 19 110.897, 28.645 113.100, 31.984 105.038 C 33.592 101.156, 31.798 96.254, 28.279 94.916 C 24.968 93.657, 24.631 93.716, 21.635 96.073 M 27 99.417 C 27 100.287, 27.712 101, 28.583 101 C 29.454 101, 29.989 100.466, 29.771 99.813 C 29.153 97.958, 27 97.651, 27 99.417 M 73.229 98.669 C 72.530 98.951, 71.264 100.523, 70.416 102.163 C 67.496 107.809, 70.976 114, 77.068 114 C 80.374 114, 82.926 111.228, 83.634 106.868 C 84.562 101.148, 78.650 96.488, 73.229 98.669 M 78 103.417 C 78 104.287, 78.713 105, 79.583 105 C 81.349 105, 81.042 102.847, 79.188 102.229 C 78.534 102.011, 78 102.546, 78 103.417 M 36 123.393 C 36 124.159, 36.675 125.045, 37.500 125.362 C 38.520 125.753, 39 125.308, 39 123.969 C 39 122.885, 38.325 122, 37.500 122 C 36.675 122, 36 122.627, 36 123.393 M 44.688 122.646 C 43.314 124.020, 44.026 126.142, 45.750 125.810 C 46.712 125.624, 47.500 124.841, 47.500 124.070 C 47.500 122.491, 45.736 121.598, 44.688 122.646 M 55.636 136.197 C 54.059 137.915, 53.021 138.128, 48.886 137.579 C 45.017 137.066, 44 137.228, 44 138.359 C 44 140.238, 46.187 141, 51.582 141 C 56.196 141, 60 138.515, 60 135.500 C 60 133.425, 57.868 133.765, 55.636 136.197 M 103.750 140.447 C 101.991 142.651, 101.004 145.084, 101.010 147.197 C 101.022 151.292, 104.934 159.823, 108.028 162.500 L 110.339 164.500 109.564 162.500 C 106.323 154.140, 105.811 151.423, 106.162 144.461 C 106.369 140.357, 106.530 137, 106.519 137 C 106.509 137, 105.263 138.551, 103.750 140.447 M 176.953 141.945 C 171.741 143.527, 162.872 150.206, 164.209 151.542 C 164.480 151.813, 166.682 151.137, 169.101 150.040 C 181.216 144.543, 195.090 150.754, 199.848 163.804 C 202.379 170.744, 202.577 177.776, 200.517 187.500 C 197.777 200.439, 198.799 209.093, 203.667 214.175 C 205.969 216.577, 207.131 216.988, 211.437 216.921 L 216.500 216.842 212.168 215.310 C 207.260 213.575, 204.010 209.268, 204.004 204.492 C 204.002 202.838, 205.575 196.574, 207.500 190.571 C 211.627 177.704, 211.938 171.246, 208.904 161.425 C 204.571 147.395, 189.423 138.159, 176.953 141.945 M 88.337 151.569 C 78.413 156.576, 68.616 158.526, 53.838 158.433 L 43.177 158.367 42.588 161.308 C 42.265 162.926, 42 169.049, 42 174.915 C 42 191.947, 46.117 204.031, 54.907 212.801 C 59.368 217.251, 66.811 221.960, 71.740 223.451 C 73.881 224.098, 73.953 223.933, 73.372 219.696 C 72.725 214.977, 74.197 212.588, 75.821 215.722 C 76.328 216.700, 77.537 223.683, 78.508 231.241 L 80.274 244.982 83.887 245.985 C 87.910 247.103, 96.166 247.168, 100 246.112 C 102.063 245.545, 102.702 244.469, 103.654 239.962 C 104.288 236.958, 104.851 232.174, 104.904 229.332 C 105.018 223.178, 105.725 221, 107.607 221 C 108.566 221, 109 222.248, 109 225 L 109 229 113.750 228.976 C 118.541 228.952, 134.494 225.840, 135.625 224.708 C 135.961 224.372, 135.419 221.825, 134.420 219.047 C 133.071 215.295, 132.894 213.706, 133.733 212.867 C 134.571 212.029, 135.663 213.380, 137.977 218.119 C 139.690 221.629, 141.971 226.075, 143.044 228 C 144.118 229.925, 144.998 233.151, 144.998 235.168 C 145.001 241.500, 145.541 242.001, 152.357 241.994 C 159.534 241.988, 165.258 240.599, 167.062 238.426 C 167.963 237.340, 168.387 232.259, 168.498 221.193 C 168.605 210.583, 169.192 203.233, 170.311 198.500 C 174.594 180.377, 169.934 160.861, 159.212 152.023 C 154.608 148.229, 153.309 148.224, 152.579 152 C 152.261 153.650, 151.728 156.400, 151.396 158.111 C 151.049 159.897, 148.814 163.266, 146.146 166.021 C 132.531 180.086, 106.168 174.079, 99.543 155.404 C 98.587 152.707, 97.510 149.814, 97.152 148.975 C 96.610 147.708, 95.119 148.147, 88.337 151.569 M 170.250 151.989 C 164.900 155.251, 166.168 157.111, 173.918 157.369 C 180.150 157.576, 185.311 161.070, 188.146 167 C 191.165 173.313, 191.520 179.425, 189.514 190.566 C 187.185 203.497, 187.740 211.575, 191.311 216.727 C 196.400 224.071, 208.125 227.537, 213.727 223.355 C 217.460 220.567, 217.877 218.742, 214.591 219.566 C 202.726 222.544, 194.196 210.367, 197.008 194.463 C 198.916 183.675, 199.372 171.199, 198.027 166.587 C 196.084 159.921, 192.044 154.930, 186.503 152.349 C 180.359 149.488, 174.562 149.360, 170.250 151.989 M 172.135 159.917 C 170.096 161.177, 171.691 164.789, 175.054 166.528 C 181.145 169.678, 182.214 176.012, 179.393 192.250 C 177.215 204.789, 177.905 212.812, 181.621 218.174 C 185.956 224.430, 191.021 227.322, 198.340 227.722 L 204.500 228.058 200.748 226.646 C 192.279 223.459, 186.981 217.070, 185.660 208.448 C 185.319 206.219, 185.706 199.958, 186.520 194.535 C 188.515 181.243, 188.388 173.452, 186.095 168.401 C 183.375 162.413, 175.672 157.731, 172.135 159.917 M 174.259 171.234 C 174.589 172.093, 175.200 176.104, 175.617 180.148 L 176.376 187.500 177.171 183.044 C 178.016 178.307, 176.760 171.588, 174.803 170.378 C 174.062 169.920, 173.871 170.221, 174.259 171.234 M 175.195 190.500 C 175.215 192.150, 175.439 192.704, 175.693 191.731 C 175.947 190.758, 175.930 189.408, 175.656 188.731 C 175.382 188.054, 175.175 188.850, 175.195 190.500 M 50.055 215.563 C 50.085 216.628, 51.147 222.437, 52.415 228.471 C 54.563 238.689, 54.919 239.527, 57.610 240.676 C 60.945 242.100, 72.839 242.388, 74.880 241.095 C 75.913 240.441, 76.082 239.029, 75.550 235.483 C 74.532 228.699, 74.293 228.333, 69.673 226.502 C 64.540 224.468, 56.433 219.503, 52.750 216.138 C 50.239 213.844, 50.005 213.794, 50.055 215.563 M 129.563 229.877 C 125.748 230.836, 122.471 232.087, 122.280 232.659 C 122.090 233.230, 122.410 234.947, 122.991 236.476 C 124.047 239.254, 124.049 239.254, 132.060 238.790 C 136.468 238.535, 140.517 237.883, 141.058 237.342 C 141.656 236.744, 141.724 234.813, 141.231 232.429 C 140.251 227.690, 139.190 227.458, 129.563 229.877 M 137.682 240.651 C 137.324 241.009, 133.868 241.244, 130.002 241.172 L 122.973 241.042 123.592 243.771 C 124.921 249.627, 132.413 251.906, 139.050 248.474 C 141.458 247.229, 142 246.310, 142 243.474 C 142 240.772, 141.593 240, 140.167 240 C 139.158 240, 138.040 240.293, 137.682 240.651 M 163.903 242.994 C 163.025 243.508, 158.638 244.234, 154.153 244.608 C 146.528 245.244, 146 245.435, 146 247.571 C 146 250.683, 150.481 254, 154.685 254 C 160.222 254, 163.596 251.633, 165.336 246.528 C 166.914 241.895, 166.698 241.361, 163.903 242.994 M 56 244.531 C 56 247.244, 58.728 251.517, 61.360 252.925 C 66.710 255.788, 76 251.439, 76 246.071 C 76 244.469, 75.137 244.267, 68.750 244.376 C 64.763 244.444, 60.263 244.154, 58.750 243.731 C 56.592 243.127, 56 243.300, 56 244.531 M 81.532 251 C 84.100 261.293, 98.044 260.941, 101.344 250.500 C 101.949 248.587, 101.520 248.500, 91.442 248.500 L 80.909 248.500 81.532 251" stroke="none" fill="black" fill-rule="evenodd"/>
</svg>