<svg xmlns="http://www.w3.org/2000/svg" width="211" height="287" viewBox="0 0 211 287" version="1.1">
	<path d="M 103.070 7.750 C 101.790 10.363, 99.520 16.775, 98.027 22 L 95.312 31.500 89.397 33.107 C 81.626 35.217, 76.480 37.915, 71.074 42.712 L 66.651 46.637 59.874 43.160 C 51.328 38.776, 47.581 39.330, 44.595 45.419 C 42.781 49.118, 42.767 49.622, 44.303 55.902 C 45.852 62.238, 45.839 62.599, 43.974 65 C 40.528 69.435, 35.270 79.363, 33.645 84.500 C 28.489 100.806, 29.526 115.201, 37.549 138.668 C 38.897 142.610, 40 147.362, 40 149.227 C 40 155.600, 35.199 158.518, 30.628 154.922 C 27.083 152.133, 25.403 152.958, 24.753 157.808 C 23.410 167.821, 27.840 176.948, 36.293 181.585 C 40.787 184.050, 42.607 184.445, 49.582 184.470 L 57.664 184.500 56.493 189 C 55.565 192.566, 54.925 193.436, 53.411 193.189 C 40.510 191.091, 34.381 192.563, 27.553 199.400 C 22.429 204.531, 20.069 211.425, 19.301 223.500 C 18.987 228.450, 18.324 233.287, 17.829 234.250 C 16.524 236.789, 10.242 236.576, 7.388 233.895 C 2.931 229.707, 1.495 235.087, 5.006 242.823 C 8.288 250.056, 10.770 252.729, 17.179 255.932 C 27.962 261.320, 40.494 259.559, 48.526 251.526 C 52.705 247.348, 55.991 240.122, 56.009 235.072 C 56.018 232.722, 56.232 232.855, 58.484 236.612 C 60.449 239.890, 61.258 243.438, 62.475 254.112 C 64.178 269.059, 65.534 275.766, 67.306 278.014 C 71.348 283.139, 81.302 285.302, 88.391 282.595 C 90.791 281.678, 93.441 280.157, 94.280 279.214 C 96.192 277.066, 98.613 268.944, 99.530 261.605 L 100.230 256 105.920 256 L 111.610 256 112.632 264.254 C 113.869 274.235, 115.403 277.681, 120 280.800 C 122.973 282.818, 124.439 283.117, 129.739 282.791 C 136.281 282.388, 139.701 280.644, 143.178 275.938 C 145.416 272.909, 148.609 260.670, 150.597 247.500 C 151.547 241.206, 153.158 235.269, 154.943 231.480 C 159.215 222.416, 160.565 212.111, 159.084 199.886 C 158.418 194.391, 157.231 187.781, 156.447 185.198 C 155.663 182.614, 155.017 179.982, 155.011 179.350 C 155.005 178.717, 157.363 177.635, 160.250 176.946 C 163.137 176.256, 170 174.192, 175.500 172.360 C 181 170.528, 186.527 169.022, 187.782 169.014 C 189.037 169.006, 191.641 168.341, 193.568 167.536 C 197.758 165.785, 200.478 160.334, 199.664 155.319 C 199.183 152.351, 199.525 151.779, 203.309 149.238 C 208.114 146.011, 208.941 143.707, 206.338 140.799 C 204.637 138.900, 203.753 138.793, 194.500 139.371 C 189 139.714, 177.750 141.078, 169.500 142.401 C 161.250 143.724, 154.392 144.705, 154.261 144.581 C 154.129 144.457, 155.990 142.049, 158.396 139.230 C 167.395 128.687, 169.894 117.744, 166.555 103.500 C 164.733 95.727, 157.482 79.902, 151.266 70.135 L 147.216 63.770 149.611 60.241 C 155.791 51.134, 154.909 43.554, 148 46.394 C 146.748 46.909, 146.498 45.802, 146.486 39.691 C 146.470 30.915, 144.531 27, 140.199 27 C 136.412 27, 130.764 31.340, 126.902 37.217 C 126.573 37.717, 123.822 36.910, 120.788 35.422 L 115.273 32.717 114.608 24.609 C 113.959 16.706, 111.893 6.254, 110.550 4.081 C 110.183 3.486, 108.873 3, 107.640 3 C 105.959 3, 104.816 4.188, 103.070 7.750 M 105.614 9.779 C 104.726 11.496, 104 13.573, 104 14.394 C 104 15.883, 107.626 19, 109.358 19 C 110.417 19, 109.456 10.637, 108.124 8.256 C 107.378 6.924, 106.959 7.178, 105.614 9.779 M 101.509 21.821 C 100.650 25.241, 103.556 28.972, 108.378 30.641 L 112.168 31.953 111.466 27.727 C 111.080 25.402, 110.429 23.371, 110.021 23.213 C 109.612 23.055, 107.672 22.108, 105.711 21.107 L 102.144 19.289 101.509 21.821 M 98.622 32.142 C 97.543 37.533, 101.203 41.373, 108.535 42.543 L 112.571 43.187 112.188 39.178 C 111.867 35.810, 111.381 35.065, 109.153 34.523 C 107.694 34.168, 104.863 32.808, 102.863 31.500 L 99.226 29.121 98.622 32.142 M 135.990 32.250 C 131.819 35.089, 128.543 39.451, 129.463 40.941 C 130.525 42.658, 137.131 46.589, 140.250 47.359 L 143 48.038 143 40.590 C 143 35.153, 142.576 32.719, 141.429 31.571 C 139.485 29.628, 139.923 29.573, 135.990 32.250 M 87.139 37.147 C 83.495 38.196, 75.545 42.879, 76.236 43.570 C 76.470 43.803, 79.228 43.520, 82.364 42.941 C 85.500 42.361, 88.914 42.155, 89.949 42.484 C 92.044 43.149, 92.430 42.728, 93.381 38.750 C 94.118 35.664, 93.155 35.416, 87.139 37.147 M 116 45.796 L 116 54.783 120.250 56.511 C 128.288 59.779, 139.441 58.353, 144.027 53.471 L 146.349 51 142.634 51 C 138.617 51, 132.970 48.507, 128.384 44.707 C 126.798 43.393, 123.362 41.079, 120.750 39.564 L 116 36.810 116 45.796 M 96 41.724 C 96 43.080, 97.082 44.198, 99.250 45.080 C 101.037 45.807, 104.657 47.661, 107.294 49.201 C 109.931 50.740, 112.293 52, 112.544 52 C 112.795 52, 113 50.895, 113 49.545 C 113 47.496, 112.380 46.978, 109.250 46.412 C 105.071 45.655, 100.400 43.548, 97.750 41.224 C 96.154 39.825, 96 39.869, 96 41.724 M 48.035 45.934 C 45.162 51.304, 48.829 62.463, 56.071 70.387 C 58.782 73.353, 61 76.002, 61 76.274 C 61 76.545, 60.159 76.987, 59.130 77.256 C 56.249 78.009, 54.501 86.716, 54.563 100 C 54.609 109.868, 55.009 112.635, 57.376 119.500 C 61.951 132.765, 69.253 141.962, 80.392 148.489 C 94.059 156.499, 115.274 157.105, 135.420 150.061 C 156.147 142.813, 167.318 126.298, 163.973 107.848 C 162.202 98.083, 152.747 77.231, 146.585 69.505 L 144.476 66.859 138.488 70.465 C 130.335 75.375, 124.245 77.094, 112.765 77.728 C 92.041 78.873, 75.944 71.905, 70.412 59.396 C 69.139 56.519, 66.486 52.552, 64.515 50.582 C 58.425 44.492, 50.068 42.135, 48.035 45.934 M 77.921 47.367 C 75.953 48.071, 73.282 49.390, 71.985 50.298 C 69.690 51.906, 69.762 51.934, 74.676 51.352 C 81.709 50.519, 85.723 52.125, 95.778 59.797 C 106.888 68.275, 113.284 70.945, 122.554 70.976 C 131.262 71.006, 137.848 68.059, 144.008 61.376 C 148.467 56.538, 148.776 54.458, 144.541 57.789 C 140.967 60.600, 132.814 62.366, 126.980 61.592 C 120.943 60.791, 116.815 59.089, 108.370 53.920 C 95.808 46.232, 86.626 44.255, 77.921 47.367 M 74.750 53.680 C 72.597 54.254, 72.608 55.500, 74.805 60 C 79.293 69.193, 100.648 76.901, 114 74.147 C 116.475 73.637, 117.542 73.170, 116.372 73.110 C 111.392 72.853, 103.164 68.662, 94.169 61.798 C 84.898 54.724, 79.420 52.434, 74.750 53.680 M 43.564 72.250 C 41.663 75.138, 38.846 81.100, 37.304 85.500 C 34.800 92.643, 34.510 94.786, 34.591 105.500 C 34.677 116.825, 34.944 118.350, 39.341 132.616 C 41.903 140.930, 43.998 148.805, 43.996 150.116 C 43.991 153.642, 40.427 158.855, 37.524 159.583 C 36.129 159.934, 33.415 159.925, 31.493 159.565 C 28.326 158.970, 28.001 159.123, 28.006 161.205 C 28.024 168.727, 34.201 178.024, 39.150 177.978 C 43.224 177.940, 49.623 174.360, 52.605 170.452 C 55.028 167.275, 55.534 165.557, 55.842 159.468 C 56.181 152.744, 55.884 151.470, 51.513 140.875 C 43.850 122.303, 41.858 115.383, 41.268 105.275 C 40.606 93.917, 42.059 85.944, 46.581 76.135 C 49.785 69.185, 50.112 67, 47.951 67 C 47.439 67, 45.465 69.362, 43.564 72.250 M 50.255 73.250 C 47.879 76.252, 44.748 87.173, 44.019 95 C 42.610 110.140, 45.010 120.252, 55.557 143.610 C 57.890 148.778, 59.273 157.051, 58.663 162.199 C 57.911 168.546, 53.880 174.146, 47.500 177.708 L 42.500 180.500 48.748 180.798 C 61.461 181.403, 67.939 175.135, 68.824 161.371 C 69.403 152.358, 67.575 145.467, 62.622 137.996 C 53.321 123.963, 50.535 113.634, 51.244 95.802 C 51.556 87.969, 52.329 81.905, 53.372 79.109 C 54.604 75.807, 54.731 74.381, 53.883 73.359 C 52.482 71.670, 51.528 71.642, 50.255 73.250 M 138 93 C 133.643 97.357, 136.877 106, 142.865 106 C 146.498 106, 150 102.251, 150 98.360 C 150 92.207, 142.253 88.747, 138 93 M 144 95.500 C 144 96.417, 144.484 97.005, 145.075 96.808 C 145.666 96.611, 146.150 96.023, 146.150 95.500 C 146.150 94.977, 145.666 94.389, 145.075 94.192 C 144.484 93.995, 144 94.583, 144 95.500 M 88.039 104.189 C 83.712 108.833, 86.630 117, 92.615 117 C 99.008 117, 102.315 109.750, 98.443 104.223 C 96.336 101.214, 90.827 101.196, 88.039 104.189 M 89.192 107.075 C 89.389 107.666, 89.977 108.150, 90.500 108.150 C 91.023 108.150, 91.611 107.666, 91.808 107.075 C 92.005 106.484, 91.417 106, 90.500 106 C 89.583 106, 88.995 106.484, 89.192 107.075 M 132.459 120.067 C 131.539 121.556, 132.606 122.365, 134.520 121.631 C 135.404 121.292, 135.847 120.561, 135.504 120.007 C 134.694 118.696, 133.289 118.723, 132.459 120.067 M 124.667 120.667 C 123.449 121.885, 123.978 124, 125.500 124 C 126.333 124, 127 123.111, 127 122 C 127 120.008, 125.934 119.399, 124.667 120.667 M 112 134.477 C 112 138.107, 121.607 141.087, 125.888 138.785 C 129.411 136.889, 128.104 135.453, 123.207 135.837 C 120.471 136.051, 118.035 135.598, 116.492 134.587 C 113.467 132.605, 112 132.569, 112 134.477 M 187.279 143.412 C 183.308 144.070, 179.741 144.926, 179.352 145.315 C 178.471 146.196, 180.619 160.419, 182.031 163.058 C 183.547 165.891, 191.228 165.772, 194.129 162.871 C 195.975 161.025, 196.179 159.987, 195.663 155.054 L 195.069 149.365 199.534 147.196 C 204.501 144.783, 205.109 143.530, 201.750 142.630 C 198.758 141.829, 195.906 141.983, 187.279 143.412 M 158.500 147.527 C 151.350 148.798, 141.212 151.407, 135.971 153.325 C 118.890 159.577, 99.548 160.241, 85.876 155.044 C 82.919 153.921, 80.388 153.001, 80.250 153.001 C 80.112 153, 80 154.688, 79.999 156.750 C 79.999 158.813, 78.696 163.253, 77.105 166.617 C 74.381 172.374, 72.044 175.122, 64.244 181.738 C 61.395 184.156, 60.742 185.685, 59.010 194 C 55.579 210.470, 56.657 224.007, 62.395 236.500 C 63.892 239.761, 65.114 245.309, 65.909 252.448 C 66.579 258.470, 67.343 263.746, 67.607 264.172 C 68.693 265.931, 79.017 268.083, 86.373 268.085 C 90.703 268.086, 94.456 267.877, 94.713 267.620 C 94.969 267.364, 95.651 263.791, 96.228 259.681 L 97.277 252.207 108.388 251.658 C 114.500 251.356, 120.625 250.972, 122 250.805 C 126.544 250.251, 124.892 253.308, 120 254.505 L 115.500 255.606 115.858 260.553 C 116.055 263.274, 116.715 265.812, 117.326 266.194 C 119.185 267.355, 130.727 268.271, 134.732 267.574 C 143.003 266.136, 143.595 265.557, 145.350 257.183 C 146.236 252.957, 147.251 247.025, 147.606 244 C 147.961 240.975, 149.490 235.544, 151.004 231.931 C 157.585 216.226, 157.548 200.934, 150.874 179.328 C 148.703 172.299, 149.455 168.956, 152.295 173.011 C 153.267 174.399, 154.490 175.001, 155.661 174.668 C 156.673 174.381, 162.720 172.543, 169.100 170.585 L 180.701 167.025 178.883 161.762 C 177.883 158.868, 177.051 153.912, 177.033 150.750 C 176.994 143.874, 178.035 144.055, 158.500 147.527 M 70.380 149.077 C 72.016 157.090, 72.191 161.185, 71.085 165.577 C 70.439 168.144, 70.149 170.482, 70.441 170.774 C 71.356 171.689, 75.963 160.550, 76.604 155.870 C 77.190 151.595, 77.054 151.279, 73.449 148.529 L 69.681 145.655 70.380 149.077 M 182.500 147 C 181.590 148.473, 182.850 150, 184.977 150 C 187.902 150, 190 151.089, 190 152.607 C 190 153.566, 188.752 154, 186 154 C 183.800 154, 182 154.360, 182 154.800 C 182 156.519, 184.545 158, 187.500 158 C 189.205 158, 191.140 157.460, 191.800 156.800 C 193.790 154.810, 193.220 150.004, 190.750 147.944 C 188.327 145.922, 183.507 145.371, 182.500 147 M 119.500 166.069 C 107.879 167.173, 85.008 170.956, 82.750 172.147 C 81.787 172.655, 81 173.505, 81 174.035 C 81 175.389, 82.993 175.244, 95.419 172.985 C 111.874 169.994, 110.703 169.532, 111.308 179.250 C 111.590 183.787, 112.110 188.625, 112.463 190 C 113.094 192.456, 112.840 192.577, 98.029 196.884 C 89.737 199.295, 82.688 201.697, 82.363 202.221 C 80.708 204.900, 84.659 204.546, 96.500 200.954 C 103.650 198.785, 113.325 196.336, 118 195.511 C 125.187 194.242, 126.925 193.544, 129.250 190.989 C 131.476 188.544, 132 187.021, 132 182.998 C 132 178.207, 132.135 177.971, 135.715 176.475 C 137.758 175.621, 139.776 174.377, 140.200 173.711 C 141.384 171.848, 141.141 168.359, 139.750 167.234 C 137.766 165.631, 129.262 165.141, 119.500 166.069 M 118 169.900 L 113.500 170.500 113.570 177.500 C 113.609 181.350, 114.217 186.219, 114.921 188.321 C 116.188 192.101, 116.247 192.135, 120.351 191.499 C 122.948 191.096, 125.363 189.902, 126.807 188.306 C 128.834 186.065, 129.033 185.113, 128.450 180.446 L 127.786 175.135 131.777 174.060 C 136.551 172.775, 138.884 170.553, 136.444 169.617 C 134.552 168.891, 124.404 169.047, 118 169.900 M 40.236 195.990 C 34.283 197.382, 29.391 201.501, 26.378 207.660 C 24.042 212.435, 23.462 215.178, 22.990 223.687 C 22.457 233.281, 22.231 234.150, 19.523 236.976 C 17.546 239.040, 15.653 240.005, 13.563 240.015 C 11.218 240.027, 10.851 240.258, 12 241 C 14.886 242.865, 20.563 242.135, 23.364 239.538 C 26.507 236.626, 27.620 233.942, 29.596 224.523 C 32.684 209.802, 40.491 201, 50.460 201 C 53.306 201, 54 200.617, 54 199.045 C 54 197.566, 53.089 196.937, 50.250 196.458 C 48.188 196.110, 45.825 195.691, 45 195.526 C 44.175 195.361, 42.031 195.570, 40.236 195.990 M 46.381 204.306 C 39.073 207.102, 34.772 213.200, 32.505 223.976 C 29.297 239.229, 24.852 244.491, 15.294 244.353 C 9.620 244.271, 8.998 244.784, 11.752 247.275 C 18.715 253.577, 31.335 250.040, 36.281 240.401 C 37.100 238.806, 38.506 233.900, 39.406 229.500 C 41.338 220.057, 45.219 213.110, 49.741 211 C 52.385 209.767, 52.961 208.922, 52.978 206.250 C 53.003 202.615, 51.758 202.249, 46.381 204.306 M 48.180 214.974 C 44.988 218.166, 42 225.548, 42 230.243 C 42 234.415, 38.174 242.969, 34.589 246.812 C 32.448 249.107, 29.673 250.633, 25.548 251.782 L 19.597 253.440 24.048 254.763 C 35.229 258.087, 47.335 251.870, 50.858 240.995 C 53.569 232.625, 54.337 212, 51.937 212 C 51.506 212, 49.816 213.338, 48.180 214.974 M 68.350 270.772 C 69.255 276.345, 72.810 279.237, 79.430 279.786 C 86.201 280.347, 90.576 278.720, 92.547 274.909 C 93.346 273.364, 94 271.914, 94 271.688 C 94 271.462, 90.063 271.040, 85.250 270.751 C 80.438 270.461, 74.534 269.533, 72.132 268.688 L 67.763 267.152 68.350 270.772 M 117.534 272 C 118.435 275.624, 120.820 277.876, 124.909 278.965 C 128.835 280.011, 135.084 279.005, 137.594 276.922 C 138.879 275.855, 142 270.811, 142 269.800 C 142 269.635, 136.355 269.500, 129.456 269.500 L 116.912 269.500 117.534 272" stroke="none" fill="black" fill-rule="evenodd"/>
</svg>