<svg xmlns="http://www.w3.org/2000/svg" width="199" height="263" viewBox="0 0 199 263" version="1.1">
	<path d="M 55.671 4.472 C 53.528 6.614, 52.822 15.354, 53.932 25.965 C 54.477 31.170, 54.576 35.670, 54.152 35.965 C 53.727 36.259, 51.730 37.783, 49.712 39.352 L 46.045 42.203 42.110 39.088 C 32.870 31.769, 27.049 31.767, 24.858 39.080 C 23.822 42.536, 23.865 44.236, 25.106 49.001 L 26.605 54.752 23.552 54.626 C 21.128 54.526, 20.436 54.949, 20.189 56.682 C 19.804 59.387, 22.333 64.535, 25.994 68.500 L 28.764 71.500 24.381 82.971 C 13.218 112.184, 13.680 129.829, 25.957 143.263 C 28.606 146.161, 32.839 149.564, 35.364 150.825 C 37.889 152.086, 40.192 153.502, 40.482 153.971 C 40.772 154.440, 39.179 156.274, 36.941 158.047 L 32.873 161.269 29.686 158.262 C 25.604 154.409, 16.147 148, 14.543 148 C 13.865 148, 12.495 148.900, 11.500 150 C 10.505 151.100, 8.576 152, 7.214 152 C 4.458 152, 4.444 151.004, 7.396 165.500 L 8.821 172.500 6.160 175.316 C 3.863 177.747, 3.500 178.986, 3.500 184.389 C 3.500 192.162, 6.898 198.111, 12.496 200.135 C 15.617 201.263, 16.264 202.099, 17.617 206.754 C 18.872 211.070, 19.927 212.585, 23.177 214.736 L 27.188 217.390 22.234 219.577 C 15.757 222.435, 14 225.066, 14 231.907 C 14 238.701, 17.091 245.475, 21.387 248.094 C 25.554 250.635, 34.417 250.584, 45.696 247.954 C 50.521 246.829, 54.597 246.267, 54.752 246.704 C 55.879 249.876, 59.978 255.666, 62.329 257.406 C 66.812 260.724, 79.605 260.106, 99.404 255.614 C 116.803 251.667, 123.629 249.020, 129.332 244.013 C 133.472 240.379, 139.058 232.395, 141.232 227.007 L 142.640 223.515 143.865 228.380 C 147.610 243.251, 155.271 249.524, 169.494 249.367 C 177.959 249.273, 182.589 247.411, 188.124 241.876 C 194.557 235.443, 198.383 224.264, 195.497 220.336 C 194.213 218.588, 194.011 218.631, 191.270 221.250 C 187.919 224.450, 183.096 224.911, 180.801 222.250 C 179.971 221.287, 178.779 217.282, 178.153 213.349 C 176.016 199.936, 170.883 191.917, 161.984 188.088 C 156.420 185.695, 148.177 185.180, 143.611 186.942 C 142.023 187.554, 140.558 187.891, 140.357 187.690 C 140.156 187.489, 138.913 184.155, 137.595 180.280 L 135.199 173.236 141.350 172.546 C 148.572 171.737, 155.357 168.969, 159.365 165.196 C 165.180 159.723, 167.453 149.771, 164.947 140.750 C 163.730 136.368, 162.053 136.038, 158.591 139.500 C 155.550 142.541, 154.059 142.621, 150.635 139.927 C 147.457 137.428, 147.183 132.773, 149.500 120.662 C 154.182 96.194, 148.075 71.071, 134.024 57 L 128.532 51.500 128.476 44.500 C 128.413 36.680, 126.373 31.570, 122.868 30.458 C 119.653 29.438, 113.360 31.909, 108.745 36.004 L 104.656 39.633 99.751 36.332 C 93.796 32.325, 86.375 30, 79.538 30 L 74.439 30 70.650 22.250 C 63.475 7.571, 58.489 1.654, 55.671 4.472 M 57.032 14.250 C 56.998 21.334, 57.856 22.472, 60.443 18.777 C 62.619 15.671, 62.391 13.556, 59.532 10.306 L 57.063 7.500 57.032 14.250 M 62.436 21.356 C 61.301 22.535, 59.573 23.954, 58.596 24.508 C 57.165 25.320, 56.955 26.245, 57.519 29.250 L 58.219 32.983 61.153 31.251 C 65.365 28.763, 67.259 25.455, 66.486 21.936 C 65.736 18.521, 65.233 18.449, 62.436 21.356 M 68.432 29.040 C 67.919 29.873, 65.588 32.042, 63.250 33.861 C 59.751 36.584, 59 37.761, 59 40.525 C 59 42.371, 59.375 44.114, 59.834 44.398 C 61.509 45.433, 68.758 40.865, 70.462 37.701 C 72.012 34.822, 72.047 34.100, 70.782 31.001 C 69.648 28.223, 69.178 27.830, 68.432 29.040 M 77.275 36.113 C 78.432 38.926, 79.077 39.415, 81.084 39 C 82.413 38.725, 86.547 38.500, 90.270 38.500 C 95.991 38.500, 96.771 38.303, 95.301 37.230 C 93.155 35.662, 88.167 34.313, 81.191 33.412 L 75.883 32.727 77.275 36.113 M 113.309 36.891 C 108.653 40.264, 104.476 46.893, 103.453 52.530 C 102.473 57.933, 100.875 60.816, 96.346 65.351 C 91.820 69.882, 84.178 73.944, 74.645 76.885 C 62.418 80.657, 45.790 79.721, 32.875 74.535 C 31.549 74.002, 30.513 75.962, 27.244 85.191 C 17.161 113.649, 17.573 129.024, 28.739 141.085 C 42.483 155.930, 75.254 159.613, 98.759 148.955 C 112.150 142.884, 123.374 127.562, 126.052 111.699 C 128.731 95.824, 124.019 71.214, 117.722 68.195 C 115.462 67.113, 115.165 66.560, 116.001 64.999 C 116.556 63.961, 117.503 62.807, 118.105 62.435 C 118.707 62.063, 120.504 59.001, 122.099 55.630 C 126.944 45.387, 125.625 34, 119.593 34 C 118.332 34, 115.504 35.301, 113.309 36.891 M 29.200 38.200 C 26.898 40.502, 28.818 55, 31.424 55 C 33.013 55, 38.393 50.971, 40.840 47.949 C 43.358 44.840, 42.390 42.899, 36.644 39.531 C 31.754 36.666, 30.889 36.511, 29.200 38.200 M 70.652 42.572 C 69.085 44.457, 68.091 46, 68.442 46 C 69.855 46, 75 41.538, 75 40.312 C 75 38.221, 73.710 38.891, 70.652 42.572 M 45.642 47.919 C 37.746 55.938, 33.113 59, 28.876 59 C 26.600 59, 26.594 59.027, 28.557 60.402 C 35.075 64.968, 45.608 64.374, 54.276 58.952 C 58.457 56.336, 58.919 55.717, 57.989 53.980 C 57.405 52.889, 56.606 49.447, 56.214 46.331 C 55.821 43.215, 55.040 40.512, 54.477 40.325 C 53.915 40.138, 49.939 43.555, 45.642 47.919 M 84.987 42.477 C 77.535 44.011, 74.122 45.990, 66.231 53.348 C 57.645 61.354, 54.722 63.318, 48.219 65.450 C 43.023 67.154, 35.697 67.193, 30 65.548 C 27.744 64.897, 27.860 65.172, 31.184 68.366 C 35.889 72.887, 44.018 75.411, 50.728 74.434 C 61.714 72.834, 65.844 70.437, 76.721 59.348 C 87.354 48.508, 92.664 45.086, 99 44.992 C 101.799 44.950, 102.160 44.741, 100.802 43.949 C 97.429 41.982, 90.515 41.339, 84.987 42.477 M 63.500 46.901 C 61.224 47.405, 60.583 48.040, 60.845 49.532 C 61.316 52.219, 61.521 52.316, 63.755 50.921 C 65.829 49.626, 68.533 45.920, 67.258 46.118 C 66.841 46.183, 65.150 46.535, 63.500 46.901 M 91.500 49.659 C 89.850 50.527, 84.225 55.595, 79 60.920 C 72.525 67.519, 67.748 71.450, 64 73.264 C 59.564 75.411, 59.001 75.933, 61.090 75.963 C 64.854 76.017, 78.734 72.307, 83.624 69.940 C 88.189 67.730, 96.468 60.863, 97.985 58.027 C 98.506 57.055, 99.349 54.401, 99.860 52.130 L 100.787 48 97.644 48.040 C 95.915 48.062, 93.150 48.791, 91.500 49.659 M 125.641 56.772 C 125.379 57.196, 127.137 60.459, 129.549 64.022 C 136.293 73.984, 139.135 83.214, 139.705 97 C 140.058 105.540, 139.750 110.431, 138.509 116 C 132.452 143.174, 132.495 149.837, 138.780 157.500 C 143.627 163.410, 152.016 165.779, 156.636 162.542 C 160.135 160.091, 163.290 151.417, 162.528 146.340 C 161.893 142.103, 161.810 142.019, 159.714 143.488 C 156.170 145.970, 151.246 145.400, 147.974 142.128 C 143.673 137.827, 143.437 135.125, 145.987 119.370 C 148.459 104.095, 148.334 97.101, 145.382 85.500 C 141.545 70.425, 128.729 51.775, 125.641 56.772 M 122.126 62.764 C 121.473 63.985, 121.624 65.133, 122.616 66.490 C 125.223 70.054, 129.813 86.363, 130.529 94.598 C 131.401 104.646, 129.824 114.904, 125.870 124.896 C 121.641 135.583, 120.318 144.376, 121.886 151.379 C 123.320 157.788, 128.322 165.867, 132 167.715 C 135.120 169.282, 143.941 169.371, 147.685 167.874 L 150.500 166.748 147.994 166.026 C 139.740 163.647, 134.054 157.561, 131.970 148.875 C 130.498 142.741, 131.139 136.226, 134.611 122.012 C 136.666 113.601, 137.162 109.143, 137.117 99.512 C 137.059 87.146, 136.752 85.370, 133.061 76 C 130.833 70.345, 125.057 61.005, 123.785 61.002 C 123.392 61.001, 122.645 61.794, 122.126 62.764 M 34.455 101.455 C 29.643 106.266, 32.851 114, 39.659 114 C 46.026 114, 48.560 105.159, 43.365 101.073 C 39.905 98.351, 37.453 98.456, 34.455 101.455 M 87.500 100.780 C 81.983 101.957, 79.884 109.884, 84 114 C 90.088 120.088, 98.622 112.996, 95.379 104.545 C 94.560 102.412, 90.020 100.242, 87.500 100.780 M 35 104.583 C 35 105.454, 35.534 105.989, 36.188 105.771 C 38.042 105.153, 38.349 103, 36.583 103 C 35.712 103, 35 103.713, 35 104.583 M 85 106.583 C 85 108.349, 87.153 108.042, 87.771 106.188 C 87.989 105.534, 87.454 105, 86.583 105 C 85.713 105, 85 105.713, 85 106.583 M 49.625 123.798 C 49.354 124.237, 49.502 125.194, 49.954 125.926 C 51.019 127.649, 53.087 126.390, 52.349 124.468 C 51.734 122.865, 50.404 122.538, 49.625 123.798 M 57.543 124.931 C 57.226 125.443, 57.425 126.144, 57.984 126.490 C 59.177 127.227, 61 126.291, 61 124.941 C 61 123.724, 58.293 123.716, 57.543 124.931 M 69.026 137.125 C 67.132 138.700, 65.701 139.048, 62.930 138.605 C 58.839 137.951, 57.490 138.680, 59.131 140.658 C 59.756 141.411, 62.188 142, 64.668 142 C 68.056 142, 69.678 141.413, 71.599 139.492 C 72.979 138.112, 73.832 136.537, 73.495 135.992 C 72.626 134.586, 71.837 134.786, 69.026 137.125 M 116.250 140.226 C 112.353 144.388, 113.631 151.093, 119.991 159.843 C 123.863 165.171, 124.660 164.840, 121.813 159.086 C 120.393 156.216, 119.486 151.958, 119.092 146.303 L 118.500 137.824 116.250 140.226 M 105.156 149.462 C 103.317 150.761, 98.029 153.055, 93.406 154.559 C 84.592 157.427, 83.051 159.155, 87.500 161.182 C 89.050 161.888, 90 163.147, 90 164.494 C 90 168.336, 92.248 178, 93.141 178 C 93.617 178, 96.341 175.750, 99.194 173 C 104.638 167.753, 106 167.045, 106 169.465 C 106 171.891, 100.150 177.785, 93.933 181.622 L 88.084 185.232 90.448 189.897 C 91.748 192.463, 93.113 196.798, 93.481 199.531 C 94.533 207.348, 94.259 207.112, 100.203 205.350 C 107.646 203.143, 112.523 200.481, 117.461 195.929 C 121.843 191.890, 124 191.022, 124 193.297 C 124 196.868, 111.726 205.478, 102.299 208.520 L 97.098 210.198 96.799 215.349 L 96.500 220.500 91.976 221.021 C 89.488 221.307, 86.113 222.483, 84.476 223.634 C 82.839 224.785, 79.362 226.663, 76.750 227.807 C 74.138 228.951, 72 230.112, 72 230.387 C 72 230.661, 72.877 232.374, 73.949 234.193 C 76.266 238.123, 79 248.114, 79 252.647 C 79 255.804, 79.082 255.863, 82.750 255.344 C 91.851 254.057, 116.150 247.964, 119.985 246.007 C 126.371 242.750, 132.646 236.423, 135.721 230.142 C 140.883 219.597, 139.878 196.428, 133.493 178.761 C 131.449 173.104, 130.713 172.196, 125.865 169.342 C 118.897 165.240, 114.486 160.040, 111.854 152.819 C 110.687 149.619, 109.455 147.022, 109.116 147.049 C 108.777 147.076, 106.995 148.162, 105.156 149.462 M 13.667 152.667 C 12.395 153.939, 13.019 154.849, 16.745 157.151 C 18.805 158.424, 23.530 162.082, 27.245 165.280 C 30.960 168.477, 34 170.689, 34 170.195 C 34 167.859, 28.787 162.006, 22.472 157.250 C 15.237 151.802, 14.773 151.561, 13.667 152.667 M 40.090 160.023 C 34.695 164.288, 34.485 164.644, 35.987 167 C 36.778 168.240, 37.251 168.279, 38.722 167.221 C 41.794 165.010, 52.348 160.273, 56 159.466 L 59.500 158.691 54 157.388 C 46.092 155.514, 45.700 155.588, 40.090 160.023 M 10.402 161.250 C 10.760 163.037, 11.309 166.094, 11.621 168.043 C 12.065 170.810, 12.980 172.014, 15.801 173.543 C 21.113 176.422, 23.340 180.945, 23.427 189.035 C 23.484 194.277, 23.085 196.238, 21.639 197.841 C 19.968 199.692, 19.901 200.419, 20.984 204.933 C 22.100 209.587, 22.612 210.199, 27.845 213.133 C 30.955 214.877, 34.513 217.214, 35.750 218.326 C 37.767 220.139, 38 220.170, 38 218.622 C 38 216.369, 34.386 197.738, 31.929 187.323 C 30.868 182.825, 30 177.901, 30 176.379 C 30 174.345, 28.571 172.229, 24.598 168.381 C 19.679 163.617, 11.994 158, 10.395 158 C 10.040 158, 10.043 159.463, 10.402 161.250 M 68.500 160.271 C 59.222 161.788, 50.024 164.744, 44.157 168.095 C 41.218 169.774, 38.999 171.332, 39.225 171.558 C 39.451 171.785, 44.945 170.408, 51.433 168.499 C 57.920 166.590, 67.452 164.274, 72.614 163.351 C 78.948 162.220, 82 161.240, 82 160.338 C 82 158.788, 77.705 158.767, 68.500 160.271 M 73.500 166.601 C 64.817 168.189, 46.054 173.546, 44.807 174.793 C 44.113 175.487, 45.700 184.410, 52.038 215.451 C 53.155 220.925, 54.171 225.504, 54.294 225.627 C 54.418 225.751, 57.171 224.957, 60.414 223.862 C 68.423 221.158, 83.561 218.035, 88.750 218.016 C 92.937 218, 93 217.949, 93 214.500 C 93 211.086, 92.902 211, 89.020 211 C 83.718 211, 77.951 208.534, 75.531 205.231 C 74.130 203.318, 73.553 200.900, 73.531 196.840 C 73.504 191.887, 73.882 190.737, 76.398 188.108 C 77.993 186.443, 81.220 184.177, 83.570 183.072 C 85.920 181.968, 88.053 180.712, 88.309 180.282 C 88.566 179.852, 88.256 176.350, 87.620 172.500 C 86.263 164.275, 86.249 164.269, 73.500 166.601 M 36.153 175.718 C 34.095 176.110, 33.859 176.617, 34.238 179.832 C 35.105 187.190, 43.223 224.535, 44.219 225.750 C 44.783 226.438, 46.373 227, 47.752 227 C 50.123 227, 50.230 226.768, 49.705 222.750 C 49.124 218.302, 41.335 179.785, 40.403 176.750 C 40.107 175.787, 39.558 175.061, 39.183 175.136 C 38.807 175.211, 37.444 175.473, 36.153 175.718 M 8.655 177.829 C 7.541 179.059, 7 181.439, 7 185.106 C 7 189.740, 7.440 191.036, 9.944 193.777 C 15.096 199.419, 20.007 197.483, 19.994 189.816 C 19.977 179.419, 13.455 172.525, 8.655 177.829 M 80.973 188.692 C 77.444 191.107, 77.032 191.966, 77.015 196.945 C 76.993 203.419, 80.615 207, 87.187 207 C 92.686 207, 92.821 206.668, 90.644 198.500 C 88.940 192.107, 86.299 187, 84.697 187 C 84.008 187, 82.332 187.761, 80.973 188.692 M 145.012 190.306 C 143.094 190.963, 141.373 192.287, 141.189 193.250 C 140.922 194.643, 141.556 195, 144.301 195 C 148.378 195, 155.006 197.195, 158.514 199.708 C 161.583 201.905, 166.284 209.786, 168.530 216.500 C 170.994 223.864, 173.592 227.578, 177.613 229.487 C 181.702 231.427, 187.014 230.893, 189.142 228.329 C 190.328 226.900, 190.220 226.795, 188.220 227.430 C 184.629 228.570, 180.201 227.090, 178.016 224.022 C 176.909 222.468, 175.358 217.822, 174.569 213.698 C 173.780 209.573, 171.986 203.932, 170.582 201.161 C 165.563 191.258, 155.150 186.837, 145.012 190.306 M 142.393 199.582 C 142.727 200.452, 143 201.711, 143 202.381 C 143 203.050, 144.502 204.141, 146.337 204.805 C 151.026 206.500, 155.297 212.287, 159.435 222.547 C 161.389 227.393, 164.003 232.462, 165.244 233.811 C 167.869 236.664, 174.513 239.946, 177.730 239.978 C 181.988 240.020, 188.025 236.853, 189.639 233.730 C 191.087 230.930, 191.078 230.756, 189.508 231.358 C 178.589 235.549, 171.514 231.250, 166.095 217.130 C 162.221 207.037, 159.798 203.567, 154.412 200.402 C 149.494 197.512, 141.386 196.959, 142.393 199.582 M 143 211.289 C 143 214.603, 143.747 218.042, 145 220.500 C 146.100 222.658, 147 225.284, 147 226.336 C 147 227.389, 148.174 230.866, 149.609 234.064 C 151.491 238.257, 153.374 240.663, 156.359 242.690 C 160.095 245.225, 161.332 245.500, 169 245.500 C 175.487 245.500, 178.086 245.085, 179.973 243.750 L 182.445 242 179.348 242 C 168.815 242, 162.275 236.332, 156.477 222.182 C 153.545 215.027, 151.728 212.067, 148.649 209.432 C 146.444 207.544, 144.271 206, 143.820 206 C 143.369 206, 143 208.380, 143 211.289 M 30 220.596 C 30 220.923, 30.825 222.386, 31.834 223.846 C 34.647 227.916, 36.724 233.939, 37.525 240.352 C 38.187 245.650, 38.440 246.116, 40.376 245.591 C 41.544 245.275, 45.062 244.477, 48.194 243.819 C 53.667 242.669, 53.912 242.482, 54.502 238.989 C 55.442 233.424, 58.734 230.727, 69.113 227.014 C 74.267 225.170, 78.023 223.508, 77.458 223.319 C 76.893 223.131, 71.721 224.357, 65.965 226.044 C 46.046 231.883, 44.147 231.782, 37.014 224.514 C 33.118 220.544, 30 218.802, 30 220.596 M 21.304 223.935 C 17.467 226.300, 16.314 230.737, 17.953 236.825 C 19.815 243.739, 22.639 246.166, 29.031 246.346 L 34.500 246.500 34.350 239.818 C 34.232 234.572, 33.588 231.995, 31.350 227.818 C 28.107 221.766, 26.089 220.986, 21.304 223.935 M 64.407 232.202 C 58.350 234.155, 56.312 241.772, 59.942 248.887 C 62.500 253.900, 65.902 256, 71.465 256 L 76 256 76 251.655 C 76 244.830, 70.678 230.758, 68.227 231.102 C 67.827 231.158, 66.108 231.653, 64.407 232.202" stroke="none" fill="black" fill-rule="evenodd"/>
</svg>