<svg xmlns="http://www.w3.org/2000/svg" width="185" height="276" viewBox="0 0 185 276" version="1.1">
	<path d="M 33.667 3.667 C 32.483 4.850, 32.961 19.282, 34.439 27 C 35.229 31.125, 35.566 34.726, 35.188 35.003 C 34.810 35.279, 32.818 37.050, 30.761 38.938 L 27.023 42.370 24.748 40.233 C 21.950 37.604, 15.906 35, 12.605 35 C 11.115 35, 9.287 36.085, 7.970 37.750 C 6.192 39.998, 5.896 41.357, 6.344 45.196 C 6.646 47.779, 7.622 51.303, 8.514 53.027 C 10.109 56.112, 10.098 56.158, 7.817 55.970 C 3.898 55.646, 3 55.941, 3 57.550 C 3 59.988, 5.936 65.197, 9.321 68.763 L 12.418 72.026 10.662 78.263 C 5.032 98.262, 3.126 113.055, 4.997 122.227 C 6.486 129.531, 10.968 138.637, 14.951 142.453 L 17.740 145.125 14.761 150.626 C 10.047 159.329, 8 165.949, 8.002 172.486 C 8.004 182.666, 12.938 188.969, 22.121 190.520 C 26.125 191.197, 26.187 191.271, 25.752 194.854 C 24.970 201.306, 26.808 212.673, 29.850 220.185 C 31.478 224.208, 33.096 229.525, 33.445 232 C 34.750 241.263, 39.237 259.434, 41.233 263.543 C 45.087 271.475, 55.307 274.314, 64.684 270.057 C 69.633 267.810, 71.656 264.404, 72.495 256.906 C 73.921 244.155, 73.430 245, 79.416 245 L 84.742 245 85.407 250.011 C 86.507 258.301, 89.852 267.782, 92.279 269.488 C 99.043 274.243, 110.077 273.732, 115.989 268.391 C 120.287 264.508, 121.352 260.599, 122.904 243 C 123.579 235.351, 124.516 231.007, 126.358 227 C 128.465 222.413, 128.894 221.950, 128.942 224.212 C 129.038 228.713, 132.943 237.790, 136.175 241.021 C 145.547 250.393, 162.226 250.972, 172.817 242.294 C 182.159 234.639, 185.753 217.578, 176.559 224.532 C 175.491 225.339, 173.423 226, 171.964 226 C 167.867 226, 166.001 223.163, 165.994 216.921 C 165.980 203.855, 163.129 195.129, 156.806 188.806 C 152.100 184.100, 146.980 181.900, 140.330 181.727 L 135.159 181.593 136.708 178.598 C 137.859 176.372, 138.112 173.879, 137.694 168.893 C 137.138 162.259, 137.162 162.176, 139.816 161.513 C 143.303 160.641, 150.408 155.213, 152.374 151.918 C 155.129 147.300, 156.024 141.012, 154.877 134.317 C 154.294 130.916, 153.263 127.374, 152.585 126.447 C 151.471 124.923, 151.016 125.116, 147.872 128.449 C 144.948 131.548, 143.957 132.027, 141.662 131.451 C 137.563 130.422, 135.642 125.911, 136.399 119.086 C 139.381 92.177, 137.086 77.575, 127.424 62 C 123.447 55.588, 121.097 52.878, 115.090 47.778 C 110.950 44.263, 110.690 43.735, 110.423 38.278 C 109.919 27.956, 107.270 24, 100.863 24 C 97.372 24, 96.200 24.669, 91.544 29.325 L 86.219 34.651 82.143 32.244 C 76.558 28.946, 68.768 27.026, 60.909 27.012 L 54.318 27 51.466 21.760 C 45.350 10.524, 39.368 3, 36.548 3 C 35.330 3, 34.033 3.300, 33.667 3.667 M 36 10.375 C 36 12.231, 36.283 15.163, 36.628 16.891 C 37.144 19.471, 37.511 19.821, 38.683 18.848 C 41.868 16.204, 42.199 14.058, 39.975 10.460 C 37.276 6.093, 36 6.066, 36 10.375 M 41.817 20.441 C 40.342 21.732, 38.671 22.949, 38.106 23.144 C 37.405 23.387, 37.419 24.840, 38.148 27.701 C 39.211 31.873, 39.236 31.891, 41.660 30.303 C 43.939 28.810, 47 24.188, 47 22.241 C 47 21.769, 46.438 20.642, 45.750 19.738 C 44.609 18.238, 44.265 18.299, 41.817 20.441 M 44.653 31.235 C 40.220 35.734, 39.862 36.450, 40.458 39.627 C 41.021 42.631, 41.406 43.011, 43.305 42.440 C 46 41.629, 51.783 36.260, 52.544 33.861 C 53 32.426, 50.504 25.608, 49.724 26.158 C 49.601 26.246, 47.319 28.530, 44.653 31.235 M 94.573 31.040 C 89.427 35.782, 87.344 39.773, 85.881 47.685 C 84.466 55.341, 83.190 57.586, 76.847 63.577 C 70.983 69.116, 61.190 74.212, 51.649 76.690 C 44.010 78.674, 30.134 78.711, 23.500 76.764 C 20.750 75.957, 17.861 75.118, 17.080 74.899 C 14.365 74.136, 8.013 101.526, 8.004 114.040 C 7.997 124.246, 12.087 135.234, 17.795 140.337 C 19.798 142.128, 19.963 142.106, 24.474 139.462 C 28.252 137.248, 29.932 136.845, 33.636 137.262 C 39.572 137.932, 44.581 142.562, 45.546 148.272 L 46.223 152.279 55.861 151.700 C 67.385 151.008, 75.003 149.115, 84.750 144.518 C 91.950 141.122, 92.497 140.453, 91.403 136.378 C 90.912 134.548, 89.904 134.190, 84.067 133.773 C 68.494 132.658, 57.971 121.489, 58.022 106.128 C 58.074 90.415, 69.436 79.003, 85 79.032 C 92.488 79.046, 97.703 81.044, 103.474 86.111 C 107.577 89.713, 111.964 97.885, 112.006 102 C 112.026 104.012, 112.228 104.207, 113.044 103 C 114.262 101.197, 113.430 89.798, 111.510 82 C 109.237 72.768, 104.415 63.108, 101.532 62.012 L 98.991 61.046 102.415 54.592 C 106.496 46.899, 107.836 38.740, 106.017 32.649 C 103.920 25.622, 100.909 25.199, 94.573 31.040 M 58.542 34.081 C 59.706 36.332, 60.589 36.978, 61.818 36.478 C 62.743 36.102, 66.650 35.247, 70.500 34.579 L 77.500 33.365 72.807 32.182 C 70.226 31.532, 65.602 31, 62.531 31 L 56.949 31 58.542 34.081 M 53.937 38.619 C 52.299 41.678, 48.373 44.617, 44.689 45.542 C 41.883 46.246, 41.394 47.493, 42.954 49.960 C 43.695 51.132, 45.128 50.240, 50.189 45.460 C 56.613 39.393, 57.818 37.624, 56.206 36.627 C 55.709 36.320, 54.687 37.216, 53.937 38.619 M 10.915 39.603 C 9.562 41.233, 10.240 49.712, 11.985 52.971 C 13.611 56.010, 15.625 55.464, 20.790 50.585 L 25.463 46.169 23.493 43.992 C 19.646 39.741, 12.787 37.347, 10.915 39.603 M 65.764 38.996 C 60.870 40.469, 56.650 43.718, 47.977 52.686 C 36.737 64.310, 32.407 66.508, 20.816 66.477 C 11.161 66.452, 10.770 67.243, 18.433 71.299 C 23.781 74.130, 34.260 74.198, 42 71.452 C 47.782 69.401, 54.042 63.802, 66.312 49.710 C 71.398 43.869, 72.883 42.801, 78.199 41.170 C 84.150 39.343, 84.207 39.291, 81.012 38.652 C 76.722 37.794, 69.191 37.964, 65.764 38.996 M 31.806 43.192 C 24.472 52.492, 18.574 57.774, 14.220 58.944 C 11.866 59.576, 10.182 60.486, 10.479 60.966 C 11.395 62.449, 21.082 64.074, 24.889 63.384 C 28.886 62.660, 34.979 59.815, 39.170 56.716 C 41.666 54.871, 41.777 54.520, 40.460 52.639 C 39.667 51.507, 38.506 47.975, 37.879 44.790 C 37.252 41.606, 36.374 39, 35.926 39 C 35.479 39, 33.625 40.887, 31.806 43.192 M 76.643 44.028 C 72.858 45.162, 70.843 47.068, 63.982 56 C 57.038 65.041, 53.917 68.052, 48 71.417 C 44.018 73.681, 43.798 73.977, 46.085 73.988 C 48.965 74.001, 59.871 70.615, 64.500 68.271 C 73.692 63.614, 81.102 54.996, 82.012 47.904 C 82.701 42.538, 82.382 42.308, 76.643 44.028 M 108.776 49.727 C 108.552 50.773, 110.153 53.484, 112.678 56.335 C 118.196 62.568, 122.454 71.341, 125.134 82 C 127.571 91.694, 127.354 103.382, 124.435 119.500 C 121.478 135.835, 124.040 145.595, 132.604 150.614 C 137.700 153.600, 144.869 154.183, 147.694 151.840 C 150.156 149.798, 152 144.562, 152 139.614 C 152 132.421, 151.624 132.023, 146.548 133.849 C 141.208 135.769, 137.992 134.637, 134.955 129.770 C 133.038 126.698, 132.952 125.472, 133.535 109.500 C 134.020 96.216, 133.818 90.790, 132.612 84.675 C 129.931 71.089, 122.733 58.708, 113.059 51.047 C 109.656 48.351, 109.107 48.182, 108.776 49.727 M 105.685 56.379 C 105.394 57.137, 106.860 61.190, 108.943 65.386 C 115.571 78.735, 116.496 82.814, 116.452 98.500 C 116.416 111.309, 116.183 113.085, 113.707 119.369 C 111.789 124.234, 111 128.055, 111 132.466 L 111 138.694 117.130 141.908 C 122.147 144.537, 123.134 144.793, 122.567 143.313 C 122.185 142.318, 121.422 139.404, 120.871 136.836 C 119.891 132.267, 120.040 130.446, 122.978 111 C 124.228 102.727, 124.268 90.686, 123.067 84.353 C 120.645 71.584, 111.299 55, 106.525 55 C 106.354 55, 105.976 55.620, 105.685 56.379 M 78.185 83.296 C 65.845 86.756, 58.633 100.345, 62.350 113.133 C 68.297 133.589, 96.326 136.455, 106.264 117.624 C 109.130 112.194, 109.306 101.136, 106.609 96 C 100.939 85.201, 89.548 80.109, 78.185 83.296 M 78.010 86.316 C 70.804 88.610, 64 98.287, 64 106.240 C 64 113.440, 70.141 122.797, 76.718 125.619 C 84.609 129.005, 96.374 126.167, 101.253 119.700 C 114.155 102.599, 98.316 79.849, 78.010 86.316 M 77.120 90.654 C 75.261 91.601, 72.449 94.158, 70.870 96.338 C 64.873 104.617, 68.229 117.512, 77.557 122.028 C 79.798 123.112, 82.727 123.997, 84.066 123.994 C 101.802 123.954, 108.933 102.252, 94.702 91.627 C 90.999 88.862, 81.654 88.346, 77.120 90.654 M 78.299 98.503 C 73.392 101.940, 73.316 110.007, 78.159 113.399 C 84.076 117.543, 91 113.701, 91 106.274 C 91 102.928, 90.437 101.704, 87.923 99.589 C 84.435 96.653, 81.425 96.314, 78.299 98.503 M 84 102.441 C 84 103.234, 84.399 104.129, 84.887 104.430 C 85.988 105.111, 88.229 102.562, 87.325 101.658 C 86.135 100.468, 84 100.971, 84 102.441 M 24.354 103.674 C 21.852 104.184, 18.364 107.697, 19.365 108.698 C 19.742 109.075, 21.533 108.847, 23.346 108.192 C 27.780 106.588, 30.001 106.691, 32.108 108.598 C 33.079 109.477, 34.352 109.900, 34.937 109.539 C 38.758 107.177, 30.262 102.469, 24.354 103.674 M 39.218 124.154 C 39.464 124.895, 40.468 125.655, 41.448 125.846 C 42.588 126.066, 43.069 125.706, 42.782 124.846 C 42.536 124.105, 41.532 123.345, 40.552 123.154 C 39.412 122.934, 38.931 123.294, 39.218 124.154 M 48 124.500 C 48 125.417, 48.484 126.005, 49.075 125.808 C 49.666 125.611, 50.150 125.023, 50.150 124.500 C 50.150 123.977, 49.666 123.389, 49.075 123.192 C 48.484 122.995, 48 123.583, 48 124.500 M 103.095 127.402 C 101.209 129.348, 100.258 131.042, 100.848 131.406 C 101.880 132.044, 107.670 125.337, 106.821 124.488 C 106.569 124.236, 104.892 125.547, 103.095 127.402 M 105.634 132.852 C 103.562 135.141, 103.539 137.609, 105.582 138.393 C 108.450 139.494, 109 139.038, 109 135.559 C 109 131.384, 107.821 130.436, 105.634 132.852 M 94.218 133.154 C 94.737 134.712, 96.974 134.984, 97.053 133.500 C 97.082 132.950, 96.355 132.345, 95.438 132.154 C 94.395 131.939, 93.938 132.313, 94.218 133.154 M 55.750 134.572 C 54.187 135.420, 53 136.913, 53 138.032 C 53 140.383, 55.538 140.649, 56.781 138.428 C 57.265 137.563, 59.537 136.604, 61.830 136.296 C 64.419 135.949, 66 135.218, 66 134.368 C 66 132.503, 59.320 132.635, 55.750 134.572 M 97.750 137.787 C 96.787 137.985, 96 139.014, 96 140.073 C 96 142.366, 97.286 142.565, 98.972 140.534 C 100.549 138.634, 99.969 137.332, 97.750 137.787 M 26.781 142.052 C 24.735 143.132, 22.591 144.896, 22.015 145.971 C 21.087 147.705, 21.580 148.216, 26.356 150.475 C 29.320 151.877, 33.800 154.594, 36.313 156.513 C 41.499 160.473, 42.209 160.074, 42.285 153.156 C 42.356 146.661, 41.404 144.413, 37.580 142.050 C 33.506 139.531, 31.554 139.532, 26.781 142.052 M 102 143.285 C 97.652 144.794, 94.501 150.452, 95.493 154.969 C 96.098 157.722, 101.037 163, 103.009 163 C 104.863 163, 108.055 156.886, 109.538 150.494 C 110.396 146.793, 110.963 143.629, 110.797 143.464 C 109.693 142.360, 104.944 142.263, 102 143.285 M 86.848 147.516 C 79.231 151.483, 68.284 154.128, 56.542 154.838 L 45.584 155.500 44.842 159.085 C 44.017 163.068, 38.045 176.438, 35.766 179.403 C 34.962 180.449, 33.817 181.005, 33.223 180.638 C 32.518 180.202, 33.534 177.003, 36.156 171.408 C 40.065 163.067, 40.122 162.792, 38.347 160.831 C 35.693 157.899, 25.054 151.883, 21.502 151.307 C 18.716 150.854, 18.262 151.191, 16.310 155.156 C 13.603 160.655, 11 169.508, 11 173.214 C 11 180.979, 16.942 186.989, 24.627 186.996 L 28.753 187 29.201 198.750 C 29.597 209.158, 30.011 211.356, 32.834 218 C 34.587 222.125, 36.695 229.325, 37.520 234 C 39.890 247.438, 41.689 254.190, 43.140 255.086 C 45.296 256.419, 54.771 257.303, 59.683 256.630 C 67.591 255.546, 69.458 254.127, 69.797 248.944 L 70.093 244.404 65.797 243.452 C 63.067 242.847, 61.500 241.953, 61.500 241 C 61.500 240.062, 62.249 239.618, 63.500 239.815 C 64.600 239.988, 70.518 240.380, 76.650 240.687 L 87.800 241.244 88.495 246.807 C 89.756 256.898, 89.857 257, 98.532 257 C 107.375 257, 114.043 255.540, 116.759 253.010 C 118.264 251.607, 118.823 249.271, 119.317 242.311 C 119.809 235.381, 120.849 231.011, 124.006 222.607 C 128.004 211.962, 128.058 211.642, 127.781 200.154 L 127.500 188.500 121.500 187.869 C 114.677 187.151, 108.190 184.659, 107.333 182.425 C 106.325 179.799, 107.897 179.574, 111.823 181.780 C 121.138 187.015, 129.708 185.175, 133.245 177.179 C 135.142 172.890, 135.154 172.475, 133.559 166.607 C 132.645 163.248, 130.324 158.339, 128.401 155.698 C 125.107 151.173, 117.038 145, 114.418 145 C 113.763 145, 112.922 147.034, 112.549 149.521 C 112.176 152.007, 110.574 156.507, 108.989 159.521 C 107.404 162.534, 106.420 165.002, 106.803 165.005 C 107.187 165.007, 109.188 166.559, 111.250 168.454 C 115.050 171.944, 116.260 176, 113.500 176 C 112.675 176, 112 175.545, 112 174.988 C 112 174.367, 110.447 174.225, 107.974 174.620 C 103.322 175.364, 100.967 173.819, 98.913 168.678 C 98.215 166.930, 96.310 163.605, 94.680 161.288 C 91.966 157.432, 91.762 156.565, 92.263 151.038 C 92.564 147.717, 92.516 145.021, 92.155 145.047 C 91.795 145.072, 89.407 146.183, 86.848 147.516 M 132.797 155.994 C 134.672 159.289, 136.239 159.627, 139.999 157.546 L 142.498 156.163 139.499 155.512 C 137.850 155.154, 135.466 154.443, 134.203 153.931 C 130.944 152.610, 130.905 152.669, 132.797 155.994 M 103 168.965 C 103 169.495, 103.900 170.411, 105 171 C 106.566 171.838, 107 171.760, 107 170.642 C 107 169.857, 106.288 168.941, 105.418 168.607 C 103.294 167.792, 103 167.835, 103 168.965 M 133.250 185.977 C 129.359 187.635, 130.625 189.598, 136.420 190.895 C 146.709 193.197, 152.216 200.178, 155.044 214.500 C 157.631 227.607, 164.174 234.071, 172.163 231.412 C 174.321 230.694, 174.197 230.547, 170.551 229.491 C 164.325 227.689, 162.764 224.689, 161.951 212.964 C 161.045 199.901, 157.880 193.057, 150.690 188.612 C 145.545 185.431, 137.414 184.202, 133.250 185.977 M 131.682 195.108 C 131.302 196.562, 131.932 197.960, 133.711 199.608 C 135.131 200.924, 136.615 202, 137.010 202 C 138.587 202, 142.825 209.843, 144.305 215.500 C 145.169 218.800, 146.372 223.418, 146.980 225.763 C 149.962 237.275, 165.075 244.294, 172.354 237.548 C 175.851 234.307, 175.736 232.903, 172.035 233.643 C 167.430 234.564, 162.734 233.263, 159.282 230.110 C 156.198 227.293, 154.825 223.760, 150.903 208.546 C 148.861 200.625, 140.644 193, 134.149 193 C 133.041 193, 132.001 193.890, 131.682 195.108 M 131.650 206.750 C 130.776 213.572, 132.370 226.792, 134.696 232.019 C 135.793 234.484, 138.151 237.920, 139.937 239.654 C 145.045 244.616, 156.018 246.504, 162.500 243.536 L 165.500 242.162 162.566 242.081 C 157.907 241.952, 151.068 238.077, 147.982 233.817 C 146.421 231.662, 144.651 227.559, 144.049 224.699 C 142.065 215.281, 138.758 206.681, 136.213 204.322 C 134.835 203.045, 133.382 202, 132.983 202 C 132.584 202, 131.984 204.137, 131.650 206.750 M 111 258.135 C 106.920 259.611, 103.630 260.039, 98.256 259.793 C 91.393 259.479, 91.042 259.568, 91.584 261.481 C 91.899 262.591, 93.533 264.786, 95.215 266.358 C 98.049 269.006, 98.742 269.186, 104.663 268.809 C 112.111 268.334, 115.591 265.745, 116.964 259.657 C 117.912 255.456, 118.202 255.530, 111 258.135 M 61.500 258.762 C 56.243 259.762, 53.151 259.833, 49.083 259.047 C 46.104 258.471, 43.483 258.183, 43.260 258.407 C 42.408 259.259, 46.153 265.054, 48.586 266.648 C 51.513 268.566, 58.770 268.752, 62.959 267.017 C 65.744 265.864, 69.632 260.200, 68.888 258.380 C 68.651 257.800, 65.775 257.948, 61.500 258.762" stroke="none" fill="black" fill-rule="evenodd"/>
</svg>