<svg xmlns="http://www.w3.org/2000/svg" width="309" height="316" viewBox="0 0 309 316" version="1.1">
	<path d="M 95.732 9.077 C 92.161 10.962, 88.430 15.303, 84.927 21.650 C 83.657 23.950, 82.016 24.865, 76.427 26.390 C 66.649 29.059, 58.641 33.528, 52.115 39.959 C 46.011 45.975, 45.865 46.182, 40.467 56.500 C 35.818 65.387, 35.179 66.072, 26.999 70.931 C 11.598 80.081, 3.980 96.016, 6.992 112.779 C 8.297 120.041, 12.201 128.744, 15.049 130.744 C 16.024 131.428, 18.160 134.128, 19.796 136.744 C 24.778 144.709, 29.363 148.836, 37.311 152.508 C 47.043 157.005, 58.799 159.693, 72.500 160.556 L 83.500 161.248 83.183 169.398 L 82.866 177.548 76.313 180.945 C 66.561 186.001, 59 196.527, 59 205.045 C 59 212.184, 62.456 215.599, 72.140 218.032 C 76.069 219.020, 77.321 218.941, 80.313 217.522 C 82.256 216.600, 84.102 215.177, 84.416 214.359 C 85.129 212.501, 86.992 213.536, 87.024 215.809 C 87.037 216.739, 88.194 220.200, 89.596 223.500 C 91.549 228.098, 92.197 231.487, 92.370 238 C 92.697 250.282, 95.218 257.940, 100.945 264.039 L 105.604 269.002 101.739 271.681 C 94.035 277.019, 90.785 286.914, 94.981 292.249 C 101.461 300.486, 127.750 302.126, 142 295.181 C 146.770 292.856, 147.885 291.729, 150.402 286.693 C 151.998 283.500, 153.512 278.730, 153.765 276.094 L 154.226 271.300 158.627 272.123 C 161.048 272.575, 163.905 273.414, 164.976 273.987 C 166.783 274.954, 166.590 275.335, 162.311 279.265 C 157.049 284.096, 154.054 289.840, 154.022 295.161 C 154.005 298.029, 154.660 299.378, 157.046 301.385 C 160.783 304.530, 170.158 307.516, 180.922 308.989 C 187.730 309.922, 189.933 309.842, 194.760 308.487 C 203.131 306.138, 210.654 300.573, 214.384 293.973 C 217.375 288.682, 217.478 288.092, 217.489 276.210 L 217.500 263.921 225.500 260.624 C 256.820 247.719, 275.215 231.957, 289.252 206 C 297.651 190.468, 303.150 171.015, 300.992 164.474 C 299.516 160.004, 295.146 157.583, 289.837 158.295 C 287.727 158.578, 285.773 158.442, 285.495 157.992 C 285.217 157.542, 283.215 156.874, 281.046 156.508 C 275.890 155.637, 272.135 157.478, 269.507 162.166 C 267.892 165.046, 267.102 165.637, 265.824 164.921 C 262.369 162.988, 254.243 166.771, 252.846 170.963 C 252.501 171.998, 251.938 172.037, 250.268 171.143 C 247.291 169.550, 241.757 169.716, 239.441 171.468 C 236.724 173.523, 236.327 173.383, 235.678 170.140 C 234.276 163.131, 225.363 157.632, 219.001 159.850 C 216.270 160.802, 216.163 160.705, 215.038 156.235 C 212.696 146.935, 207.876 143.388, 198.745 144.246 C 195.860 144.517, 192.789 145.041, 191.921 145.411 C 190.723 145.920, 190.064 145.156, 189.193 142.250 C 187.898 137.929, 183.273 132.972, 180.328 132.750 C 178.403 132.605, 178.402 132.544, 180.249 128.721 C 182.481 124.100, 181.914 120.009, 178.390 115.317 C 177.076 113.566, 176 111.835, 176 111.469 C 176 111.104, 178.268 108.766, 181.041 106.274 C 186.138 101.691, 189 96.703, 189 92.405 C 189 87.559, 182.184 79.003, 175.215 75.101 C 174.241 74.556, 174.782 72.698, 177.446 67.441 C 180.134 62.136, 180.967 59.253, 180.981 55.211 C 180.998 50.465, 180.615 49.512, 177.250 45.925 C 173.376 41.796, 166.251 39.038, 159.388 39.012 C 156.382 39, 156.254 38.820, 155.643 33.750 C 154.564 24.795, 152.950 20.715, 148.877 16.642 L 144.974 12.739 137.671 13.207 C 132.112 13.564, 129.079 14.371, 124.971 16.588 L 119.575 19.500 115.037 14.607 C 107.934 6.946, 102.642 5.430, 95.732 9.077 M 100.028 17.145 C 97.317 18.192, 94 21.354, 94 22.891 C 94 24.449, 97.319 25.086, 104.419 24.891 L 111.032 24.709 108.696 21.680 C 105.249 17.210, 102.960 16.013, 100.028 17.145 M 132.806 23.399 C 128.138 24.655, 125 26.521, 125 28.040 C 125 28.477, 127.138 29.622, 129.750 30.584 C 132.363 31.546, 137.139 34.058, 140.364 36.166 C 143.589 38.275, 146.299 40, 146.387 40 C 147.070 40, 145.169 27.036, 144.241 25.368 C 142.238 21.765, 140.187 21.412, 132.806 23.399 M 89.536 32.072 C 77.362 33.928, 65.182 39.330, 58.338 45.906 C 56.184 47.976, 52.771 52.781, 50.754 56.585 C 48.736 60.388, 46.231 65.075, 45.186 67 C 44.063 69.069, 40.263 72.603, 35.893 75.641 C 19.441 87.083, 16.848 91.086, 16.227 106 C 15.842 115.265, 15.909 115.615, 18.943 120.149 C 23.591 127.094, 32.128 130.460, 48.082 131.641 C 63.251 132.763, 81.837 126.780, 86.212 119.365 C 88.655 115.225, 89.898 115.169, 94.009 119.009 C 96.695 121.517, 97.021 122.269, 95.974 123.531 C 95.247 124.407, 93.930 124.795, 92.850 124.452 C 91.590 124.053, 89.645 125.004, 86.877 127.373 C 81.554 131.929, 75.657 134.651, 66.717 136.677 C 58.551 138.527, 40.574 138.823, 34.750 137.204 C 30.471 136.014, 30.237 136.237, 32.933 138.933 C 36.323 142.323, 39.276 143.823, 49 147.096 C 57.782 150.051, 59.746 150.327, 75 150.755 C 94.171 151.292, 105.247 149.712, 116.309 144.861 C 120.054 143.219, 123.874 142.022, 124.797 142.199 C 128.119 142.839, 127.166 145.757, 122.554 149.069 C 117.547 152.664, 117.467 152.979, 119.026 163 C 120.785 174.312, 123.333 184.055, 124.438 183.696 C 125.022 183.505, 125.973 181.921, 126.551 180.174 C 127.129 178.428, 128.171 176.436, 128.868 175.749 C 130.836 173.808, 133.226 177.652, 132.431 181.481 C 131.307 186.891, 129.313 188.858, 123.244 190.540 C 114.419 192.986, 112.459 193.911, 109.452 197.051 C 107.195 199.406, 106.603 201.047, 106.323 205.728 C 106.032 210.612, 106.158 211.154, 107.142 209.250 C 107.847 207.886, 109.230 207, 110.653 207 C 112.669 207, 113 207.494, 113 210.500 C 113 215.495, 114.566 214.824, 116.500 208.999 C 118.365 203.385, 118.442 203.349, 129.776 202.688 C 137.933 202.212, 140.304 200.807, 142.750 195 C 144.405 191.071, 145.692 189.944, 147.659 190.700 C 149.311 191.333, 149.428 197.331, 147.846 200.287 C 146.149 203.459, 140.322 208.346, 136.804 209.550 L 133.735 210.599 139.443 216.765 C 144.475 222.200, 151.723 227.886, 152.316 226.864 C 152.433 226.664, 153.707 224.009, 155.148 220.965 C 156.589 217.921, 158.985 213.983, 160.473 212.215 C 165.395 206.365, 168.813 209.095, 164.781 215.657 C 162.695 219.051, 161.010 222.754, 157.891 230.797 C 157.401 232.060, 157.006 236.335, 157.013 240.297 C 157.023 246.323, 157.522 248.479, 160.061 253.487 C 163.622 260.510, 165.510 262.683, 173.250 268.670 C 180.116 273.980, 180.447 275.933, 175.366 281.137 C 170.972 285.637, 171.333 288, 176.412 288 C 178.630 288, 180.359 288.659, 181.193 289.823 C 181.972 290.909, 183.673 291.616, 185.402 291.573 C 189.044 291.481, 189.616 292.962, 187.015 295.753 C 183.642 299.374, 184.410 300.348, 190.102 299.674 C 205.338 297.870, 212.032 284.628, 207.588 265.086 L 205.933 257.809 210.885 247.151 C 213.609 241.289, 216.144 235.276, 216.517 233.788 C 217.308 230.639, 219.459 228.548, 220.956 229.473 C 221.530 229.828, 222 231.857, 222 233.982 L 222 237.846 229.250 235.826 C 257.212 228.036, 280.552 206.286, 289.002 180.147 C 290.774 174.662, 292.055 169.664, 291.847 169.041 C 291.639 168.417, 286.751 171.595, 280.984 176.103 C 263.590 189.701, 248.478 195.282, 235.426 192.929 C 228.711 191.718, 224.324 189.160, 215 181.021 C 200.690 168.528, 195.982 165.899, 174.515 158.411 C 164.260 154.834, 158.070 149.071, 155.406 140.619 C 153.814 135.568, 153.757 134.106, 154.882 127.224 C 155.577 122.976, 156.771 117.025, 157.535 114 C 164.779 85.323, 159.438 62.518, 141.720 46.485 C 138.361 43.445, 133.337 39.844, 130.556 38.484 C 119.220 32.938, 101.756 30.209, 89.536 32.072 M 155 48.570 C 155 48.883, 156.446 51.241, 158.212 53.809 C 159.979 56.377, 162.398 61.166, 163.588 64.451 L 165.751 70.425 168.294 65.407 C 171.986 58.122, 172.597 53.850, 170.251 51.727 C 167.872 49.574, 155 46.909, 155 48.570 M 97.500 71.300 C 90.919 77.881, 90.480 87.280, 96.450 93.794 C 99.561 97.189, 100.173 97.429, 105.813 97.463 C 110.404 97.491, 112.523 97, 114.674 95.412 C 126.405 86.743, 120.155 68, 105.532 68 C 101.512 68, 100.303 68.497, 97.500 71.300 M 106.583 75.645 C 105.325 78.922, 111.715 82.889, 113.527 79.956 C 114.496 78.388, 111.223 74, 109.084 74 C 108.055 74, 106.930 74.740, 106.583 75.645 M 167.760 87.777 C 167.474 90.925, 167.524 95.860, 167.870 98.745 L 168.500 103.991 173.500 100.212 C 180.459 94.952, 180.788 91.571, 174.805 86.767 C 168.215 81.475, 168.333 81.458, 167.760 87.777 M 21.200 97.200 C 18.572 99.828, 21.168 104.917, 24.487 103.643 C 27.090 102.644, 25.797 96, 23 96 C 22.670 96, 21.860 96.540, 21.200 97.200 M 43.921 102.085 C 40.729 105.502, 40.577 107.289, 43.432 107.842 C 45.108 108.167, 51 103.500, 51 101.848 C 51 101.420, 50.080 100.578, 48.956 99.976 C 47.222 99.049, 46.458 99.369, 43.921 102.085 M 163.757 123.750 C 162.897 128.563, 162.354 132.667, 162.550 132.871 C 162.747 133.074, 164.729 131.799, 166.954 130.037 C 171.834 126.172, 172.351 122.106, 168.516 117.750 C 167.185 116.237, 165.922 115, 165.709 115 C 165.496 115, 164.618 118.938, 163.757 123.750 M 170.250 143.119 C 165.915 144.371, 166.137 146.566, 170.750 148.058 C 172.813 148.725, 176.212 150.131, 178.304 151.183 L 182.109 153.096 181.423 149.298 C 180.073 141.827, 178.238 140.812, 170.250 143.119 M 195.136 154.703 L 191.772 156.360 199.136 160.078 L 206.500 163.795 206.819 160.827 C 207.551 154.009, 202.218 151.214, 195.136 154.703 M 109.069 154.922 C 108.282 155.428, 104.876 156.363, 101.500 157 C 98.124 157.637, 94.718 158.555, 93.931 159.041 C 91.949 160.264, 91.429 178.373, 92.984 192 C 95.058 210.165, 97.241 218.115, 102.454 226.478 C 113.635 244.417, 126.493 253.959, 146.813 259.397 C 151.866 260.749, 156 261.689, 156 261.485 C 156 261.281, 155.125 259.626, 154.055 257.807 C 151.653 253.724, 149.816 242.749, 150.552 236.879 C 151.097 232.530, 151.066 232.477, 146.015 229.101 C 140.553 225.451, 131.431 216.039, 129.724 212.293 C 128.086 208.698, 124.650 209.313, 123.147 213.470 C 120.891 219.710, 113.695 222.913, 108.236 220.108 C 107.281 219.617, 105.334 218.759, 103.908 218.201 C 100.173 216.740, 97.674 210.927, 98.528 205.686 C 100.041 196.405, 107.481 187.528, 115.358 185.605 C 117.848 184.998, 118.137 184.560, 117.606 182.204 C 115.830 174.322, 114.739 167.782, 114.153 161.510 C 113.484 154.345, 112.318 152.834, 109.069 154.922 M 161.200 164.200 C 158.240 167.160, 160.721 174.165, 165.540 176.452 C 171.584 179.320, 175 177.966, 175 172.700 C 175 166.549, 165.006 160.394, 161.200 164.200 M 278 167.059 C 278 167.641, 278.450 167.840, 279 167.500 C 279.550 167.160, 280 166.684, 280 166.441 C 280 166.198, 279.550 166, 279 166 C 278.450 166, 278 166.477, 278 167.059 M 164 168.277 C 164 170.542, 167.056 174, 169.057 174 C 171.402 174, 171.546 172.225, 169.443 169.223 C 167.769 166.832, 164 166.178, 164 168.277 M 182.223 168.557 C 179.339 170.576, 179.197 176.197, 181.959 178.959 C 184.871 181.871, 191.525 185, 194.805 185 C 198.537 185, 201.436 181.872, 200.640 178.703 C 199.729 175.073, 196.231 171.159, 191.945 168.972 C 187.282 166.593, 185.156 166.502, 182.223 168.557 M 218.750 170.080 C 217.787 170.641, 217 171.472, 217 171.928 C 217 172.384, 219.513 174.904, 222.584 177.527 L 228.167 182.297 227.500 177.399 C 226.439 169.616, 226.120 168.997, 223.183 169.030 C 221.707 169.047, 219.713 169.519, 218.750 170.080 M 184.638 172.500 C 183.660 175.049, 184.981 176.771, 189.568 178.927 C 198.015 182.898, 199.774 180.407, 192.647 174.567 C 187.969 170.734, 185.555 170.111, 184.638 172.500 M 262.084 176.250 C 260.985 179.157, 261.210 179.317, 264.371 177.877 C 267.371 176.510, 267.700 175.483, 265.418 174.607 C 263.125 173.727, 263.019 173.779, 262.084 176.250 M 241.657 181.617 C 237.864 185.134, 239.349 186.444, 245.403 184.920 L 250.102 183.737 247.876 181.368 C 245.114 178.428, 245.095 178.429, 241.657 181.617 M 205.750 187.338 C 202.694 189.752, 203.508 194.800, 207.571 198.632 C 211.774 202.595, 216.631 203.171, 219.464 200.040 C 224.690 194.265, 211.937 182.452, 205.750 187.338 M 186 189 C 183.435 191.565, 183.483 192.934, 186.282 197.102 C 188.044 199.725, 189.367 200.568, 192.083 200.799 C 199.815 201.454, 201.111 194.013, 194.089 189.281 C 189.936 186.482, 188.565 186.435, 186 189 M 79.502 189.575 C 73.673 192.615, 70.008 197.720, 68.693 204.632 C 67.872 208.950, 69.146 209.783, 70.441 205.775 C 71.148 203.590, 72.229 202.396, 73.689 202.188 C 75.614 201.914, 75.917 202.399, 76.189 206.188 L 76.500 210.500 79.292 205.750 C 80.828 203.137, 82.515 201, 83.042 201 C 83.569 201, 84 198.075, 84 194.500 C 84 190.925, 83.662 188.003, 83.250 188.006 C 82.838 188.010, 81.151 188.716, 79.502 189.575 M 208.380 191.452 C 207.620 193.433, 208.578 194.730, 212.178 196.592 C 216.826 198.995, 218.042 196.888, 214.215 193.062 C 210.846 189.692, 209.227 189.245, 208.380 191.452 M 188 192.845 C 188 194.241, 191.538 197, 193.329 197 C 195.510 197, 195.450 195.717, 193.171 193.655 C 191.248 191.914, 188 191.406, 188 192.845 M 262.500 224.207 C 254.820 230.486, 242.103 236.831, 229.883 240.480 C 219.691 243.524, 220.380 242.961, 215.985 251.849 C 214.858 254.130, 214.921 254.177, 218.162 253.481 C 222.881 252.467, 239.298 244.466, 247 239.427 C 253.706 235.039, 269.887 220.574, 269 219.760 C 268.725 219.508, 265.800 221.509, 262.500 224.207 M 101.647 244.176 C 102.878 250.706, 107.212 257.985, 111.938 261.462 C 114.447 263.308, 117.515 265.903, 118.756 267.230 L 121.011 269.641 118.756 271.715 C 117.515 272.856, 115.025 274.672, 113.223 275.750 C 110.428 277.423, 110.164 277.891, 111.425 278.938 C 112.239 279.613, 113.826 279.873, 114.952 279.515 C 117.309 278.767, 121 279.702, 121 281.047 C 121 281.549, 119.282 282.836, 117.183 283.907 C 115.084 284.978, 112.801 286.535, 112.110 287.368 C 111.037 288.661, 111.385 288.982, 114.497 289.565 C 120.281 290.650, 133.132 289.529, 136.794 287.620 C 141.756 285.033, 143.992 280.614, 143.996 273.384 L 144 267.268 137.750 265.020 C 126.314 260.906, 116.539 255.152, 108.663 247.894 C 101.078 240.905, 101.025 240.877, 101.647 244.176 M 104.548 283.947 C 103.183 285.455, 102.953 286.353, 103.731 287.131 C 104.509 287.909, 105.141 287.605, 105.972 286.052 C 107.671 282.878, 106.749 281.515, 104.548 283.947 M 164.721 291.895 C 163.146 294.562, 163.140 294.840, 164.649 295.419 C 166.510 296.133, 166.341 296.246, 167.911 293.229 C 169.045 291.049, 168.680 289, 167.157 289 C 166.758 289, 165.662 290.303, 164.721 291.895 M 174.022 294.958 C 173.167 296.556, 173.374 297.130, 175.143 298.077 C 176.999 299.070, 177.576 298.895, 179.134 296.869 C 181.639 293.611, 181.466 293, 178.035 293 C 176.115 293, 174.701 293.690, 174.022 294.958" stroke="none" fill="black" fill-rule="evenodd"/>
</svg>