<svg xmlns="http://www.w3.org/2000/svg" width="348" height="317" viewBox="0 0 348 317" version="1.1">
	<path d="M 75.085 9.645 C 69.039 12.658, 61.774 21.562, 58.520 29.948 C 56.633 34.811, 56.506 34.911, 50.052 36.632 C 27.137 42.740, 13.886 53.614, 8.868 70.427 C 7.276 75.762, 6.744 80.326, 6.702 89 C 6.637 102.442, 8.438 109.211, 13.425 114.272 C 15.174 116.048, 17.214 119.075, 17.958 121 C 21.560 130.322, 27.489 135.414, 31.957 133.023 C 34.801 131.501, 34.996 131.713, 33.830 135.059 C 31.560 141.569, 35.601 152.718, 42.399 158.702 C 53.200 168.210, 78.149 171.243, 98.500 165.522 C 101.250 164.749, 104.799 163.842, 106.386 163.505 C 109.178 162.914, 109.251 162.996, 108.636 166.072 C 108.286 167.820, 108 170.531, 108 172.097 C 108 174.682, 107.227 175.312, 99.581 178.961 C 90.218 183.430, 86.003 187.608, 83.528 194.872 C 81.431 201.026, 81.608 204.121, 84.284 208.102 C 85.937 210.563, 87.662 211.738, 90.534 212.364 C 92.715 212.840, 95.435 213.661, 96.577 214.191 C 100.562 216.036, 105.301 214.776, 107.487 211.289 C 111.607 204.716, 112.609 209.137, 109.259 219.111 C 107.223 225.175, 106.857 227.869, 107.217 234.139 C 107.809 244.438, 111.058 250.954, 119.569 258.915 C 123.190 262.303, 125.383 265, 124.517 265 C 122.445 265, 115.311 269.474, 111.172 273.368 C 107.581 276.748, 105 281.848, 105 285.566 C 105 293.015, 117.311 297.563, 137.008 297.391 C 151.208 297.268, 158.910 295.534, 165.547 290.968 C 170.070 287.856, 171.348 284.716, 172.512 273.862 C 173.429 265.302, 173.862 265.032, 184.203 266.592 C 188.990 267.314, 195.148 268.868, 197.886 270.046 L 202.866 272.189 196.729 276.844 C 190.042 281.918, 186.221 287.933, 185.294 294.847 C 184.815 298.415, 185.123 299.277, 187.856 302.010 C 190.510 304.664, 191.580 305.072, 195.196 304.808 C 198.515 304.567, 199.912 304.986, 201.669 306.750 C 204.051 309.143, 207.320 309.589, 211.320 308.069 C 213.151 307.372, 214.756 307.625, 217.674 309.069 C 221.290 310.858, 221.982 310.894, 227.039 309.566 C 237.959 306.699, 246.422 301.607, 250.051 295.720 C 251.850 292.802, 252.027 290.815, 251.932 274.535 L 251.827 256.570 259.666 254.035 C 275.581 248.888, 293.680 235.445, 303.236 221.673 C 307.476 215.563, 316 199.116, 316 197.046 C 316 196.456, 316.412 195.191, 316.917 194.236 C 317.421 193.281, 318.383 191.019, 319.055 189.209 C 321.158 183.543, 325.686 178.285, 332.209 173.934 C 340.078 168.686, 341 167.523, 341 162.851 C 341 159.434, 340.575 158.835, 336.417 156.398 C 332.585 154.153, 330.331 153.641, 322.667 153.276 C 309.113 152.631, 303.674 154.784, 287 167.394 C 274.647 176.737, 265.962 179.063, 258.210 175.106 C 256.170 174.065, 249.849 168.910, 244.163 163.653 C 235.903 156.013, 231.937 153.167, 224.417 149.485 C 219.242 146.951, 213.636 143.723, 211.960 142.313 C 207.994 138.976, 205.128 133.255, 204.779 127.979 L 204.500 123.765 211.435 120.164 C 215.250 118.183, 219.862 115.071, 221.685 113.248 C 224.517 110.417, 225 109.234, 225 105.138 C 225 99.587, 221.512 93.502, 214.912 87.540 L 210.910 83.924 215.318 78.712 C 228.498 63.126, 228.144 54.712, 214.012 47.642 C 210.078 45.674, 205.316 43.775, 203.430 43.421 C 201.543 43.067, 200.005 42.715, 200.012 42.639 C 200.018 42.562, 200.688 40.025, 201.500 37 C 203.436 29.786, 203.396 20.031, 201.410 15.066 C 200.189 12.016, 198.772 10.584, 195.321 8.913 C 191.178 6.908, 190.281 6.826, 183.947 7.872 C 180.165 8.496, 174.074 10.095, 170.411 11.425 L 163.750 13.843 157.625 10.695 C 149.432 6.485, 139.316 5.817, 130.529 8.905 C 122.165 11.845, 103.549 11.886, 97.141 8.978 C 90.644 6.030, 81.803 6.297, 75.085 9.645 M 80.414 16.921 C 77.858 18.016, 68 29.643, 68 31.563 C 68 32.639, 68.575 32.732, 70.565 31.975 C 74.665 30.416, 77 30.763, 77 32.932 C 77 36.680, 68.170 41.241, 52.754 45.455 C 42.070 48.376, 32.923 52.688, 28.198 57.030 C 24.081 60.814, 19.989 66.759, 20.035 68.890 C 20.060 70.017, 20.461 69.796, 21.371 68.157 C 22.583 65.971, 22.783 65.925, 24.334 67.477 C 27.940 71.083, 27.923 79.298, 24.307 79.812 C 22.464 80.074, 22.013 79.516, 21.479 76.312 C 20.367 69.635, 19.812 69.242, 18.218 74 C 16.627 78.753, 15.977 98.357, 17.254 103.078 C 18.572 107.950, 29.999 112.408, 49 115.464 C 76.189 119.837, 102.511 113.575, 124.514 97.500 C 130.210 93.338, 131.330 91.840, 128.113 92.681 C 125.423 93.384, 124.292 90.991, 126.538 89.348 C 131.052 86.048, 143.406 89.164, 145.651 94.170 C 147.674 98.678, 144.560 100.722, 140.823 97.339 C 139.813 96.426, 138.818 95.864, 138.611 96.089 C 138.404 96.315, 136.655 99.650, 134.725 103.500 C 124.227 124.439, 104.262 139.645, 80.673 144.667 C 71.514 146.616, 51.840 146.064, 47.153 143.726 C 44.186 142.246, 44 142.262, 44 144 C 44 149.306, 54.113 156.297, 65.101 158.588 C 76.758 161.019, 88.476 159.241, 111.572 151.536 C 118.761 149.138, 126.861 146.865, 129.572 146.485 C 140.889 144.899, 152.951 141.674, 159.703 138.430 C 170.948 133.028, 178.335 122.372, 181.007 107.700 C 181.985 102.331, 182.587 100.968, 183.873 101.220 C 185.232 101.487, 185.498 103.015, 185.487 110.520 C 185.476 118.247, 185.094 120.276, 182.754 125.061 C 177.416 135.974, 166.250 145.668, 154.750 149.373 C 152.014 150.255, 152.357 156.114, 156.148 173.248 C 157.330 178.589, 158.460 178.692, 159.425 173.546 C 160.218 169.322, 161.127 168.641, 163.580 170.435 C 165.295 171.689, 165.352 172.291, 164.249 177.549 C 162.732 184.782, 161.062 186.615, 155.190 187.491 C 145.597 188.922, 140.670 192.453, 139.413 198.797 C 138.586 202.970, 139.560 204.060, 141.098 200.684 C 141.743 199.268, 142.942 197.853, 143.762 197.538 C 145.535 196.857, 148.230 198.819, 147.390 200.178 C 146.638 201.395, 147.851 208, 148.827 208 C 149.232 208, 150.165 205.962, 150.900 203.472 C 152.395 198.410, 154.888 196.528, 159.005 197.351 C 162.683 198.087, 168.397 196.423, 171.571 193.693 C 172.987 192.475, 174.979 189.008, 175.997 185.989 C 177.353 181.968, 178.404 180.415, 179.924 180.180 C 181.783 179.894, 182 180.365, 181.996 184.680 C 181.991 190.920, 177.005 199.586, 171.711 202.559 C 168.122 204.575, 168.079 204.670, 169.672 207.059 C 172.152 210.781, 178.275 217, 179.453 216.996 C 180.029 216.994, 181.343 214.944, 182.372 212.440 C 185.097 205.815, 192.599 196, 194.939 196 C 198.028 196, 198.249 197.643, 195.706 201.713 C 186.206 216.916, 182.816 235.159, 187.440 246.192 C 190.164 252.691, 195.526 258.444, 201.625 261.410 C 211.279 266.105, 213 267.652, 213 271.634 C 213 276.268, 211.756 278.370, 207.431 281.043 C 204.273 282.994, 204.014 283.443, 205.301 284.730 C 206.433 285.861, 207.234 285.945, 208.818 285.098 C 212.249 283.261, 214.831 283.852, 217.163 287.007 C 218.655 289.025, 219.717 289.683, 220.393 289.007 C 222.657 286.743, 226.972 287.972, 231.040 292.040 L 235.080 296.080 238.042 293.970 C 239.671 292.810, 241.409 291.104, 241.905 290.178 C 243.350 287.477, 242.469 259.656, 240.922 259.141 C 238.406 258.302, 235 253.666, 235.018 251.104 C 235.028 249.672, 237.315 244.450, 240.100 239.500 C 244.924 230.924, 250 217.816, 250 213.931 C 250 211.694, 251.312 210.799, 253.410 211.604 C 255.431 212.379, 255.504 218.516, 253.579 225.750 C 252.810 228.637, 252.343 231, 252.541 231 C 255.295 231, 265.039 228.020, 270.657 225.460 C 286.107 218.419, 295.937 207.984, 308.021 185.796 C 313.755 175.268, 319.276 168.987, 325.920 165.433 L 330.162 163.164 324.594 162.468 C 321.531 162.086, 317.360 162.085, 315.324 162.467 C 310.349 163.400, 301.494 167.967, 295.448 172.716 C 282.902 182.573, 275.396 186, 266.356 186 C 261.590 186, 252.274 182.852, 248.861 180.089 C 246.660 178.306, 246.581 178.350, 239.828 185.103 C 232.658 192.273, 227.467 194.836, 222.591 193.612 C 220.286 193.034, 220 192.468, 220 188.492 C 220 186.034, 220.928 180.639, 222.063 176.503 C 224.436 167.852, 224.777 161.641, 222.996 159.495 C 221.385 157.554, 217.103 157.567, 216.356 159.514 C 216.037 160.347, 213.035 163.112, 209.685 165.660 C 203.121 170.652, 196.446 172.445, 193.508 170.007 C 191.414 168.269, 191.622 162.757, 194.092 154.497 C 197.443 143.294, 197.824 140.486, 196.439 137.193 C 194.136 131.716, 193.675 121.936, 195.390 114.945 C 202.064 87.739, 201.197 69.120, 192.440 51.563 C 188.338 43.339, 179.567 32.881, 174.099 29.693 C 170.779 27.758, 170.401 28.294, 172.041 32.607 C 174.538 39.176, 169.529 39.025, 166.403 32.437 C 164.144 27.676, 157.147 20.626, 152.153 18.078 C 142.080 12.939, 127.713 16.989, 118.100 27.677 C 115.295 30.796, 113 33.719, 113 34.174 C 113 34.628, 112.100 35, 111 35 C 107.116 35, 108.781 29.098, 114.316 23.250 L 117.392 20 114.946 20.020 C 107.117 20.083, 98.744 22.226, 91.662 25.978 C 87.487 28.190, 83.380 30, 82.535 30 C 78.145 30, 83.554 22.997, 90.266 19.992 C 92.424 19.026, 93.784 17.984, 93.288 17.678 C 91.507 16.577, 82.458 16.045, 80.414 16.921 M 177.717 18.589 L 174.933 20.099 180.919 24.598 C 184.211 27.073, 188.017 30.419, 189.376 32.035 L 191.847 34.972 192.480 32.091 C 193.322 28.257, 193.358 19.388, 192.537 18.059 C 191.559 16.477, 180.910 16.858, 177.717 18.589 M 140.558 32.492 C 136.233 34.033, 135.483 34.578, 124.925 43.861 C 118.175 49.796, 117.434 50.187, 113.846 49.706 C 106.820 48.764, 108.191 53.508, 115.277 54.657 C 117.906 55.084, 119.836 54.704, 122.237 53.287 L 125.560 51.327 125.227 54.413 C 124.736 58.973, 128.756 66.128, 133 68.248 C 140.303 71.897, 149.695 69.506, 153.424 63.051 C 154.871 60.546, 155.372 57.999, 155.254 53.743 C 155.014 45.074, 150.747 39.233, 144.302 38.748 C 141.196 38.514, 142.476 37.189, 146.546 36.425 C 150.826 35.623, 151.895 34.127, 149.462 32.348 C 147.179 30.679, 145.575 30.705, 140.558 32.492 M 141 47 C 139.252 50.265, 141.422 53.186, 145.316 52.808 C 147.765 52.571, 148.575 51.968, 148.827 50.195 C 149.503 45.424, 143.217 42.858, 141 47 M 204.397 57.146 C 205.157 58.991, 206.359 63.126, 207.068 66.336 L 208.357 72.171 211.646 68.336 C 213.455 66.226, 215.199 63.729, 215.523 62.788 C 216.491 59.970, 214.373 57.428, 209.955 56.105 C 207.665 55.419, 205.167 54.618, 204.403 54.325 C 203.220 53.870, 203.219 54.287, 204.397 57.146 M 56.314 72.950 C 52.632 75.195, 51 77.801, 51 81.434 C 51 84.985, 53.386 84.718, 56.910 80.774 C 58.574 78.913, 60.780 77.538, 62.128 77.524 C 65.084 77.494, 65.914 74.141, 63.418 72.316 C 61.027 70.568, 60.083 70.652, 56.314 72.950 M 207.976 98.250 C 207.953 101.448, 207.032 106.246, 205.560 110.834 L 204.812 113.168 209 110.834 C 213.908 108.098, 216.528 104.732, 215.330 102.701 C 214.041 100.516, 209.195 95, 208.565 95 C 208.254 95, 207.989 96.463, 207.976 98.250 M 121.164 107.822 C 118.619 109.933, 117.907 111.225, 118.164 113.269 C 118.483 115.814, 118.693 115.672, 122.310 110.475 C 126.527 104.415, 126.195 103.647, 121.164 107.822 M 110.250 113.220 C 109.013 113.817, 108 114.639, 108 115.046 C 108 116.465, 111.346 117.059, 112.155 115.784 C 112.903 114.605, 113.334 111.909, 112.750 112.068 C 112.612 112.105, 111.487 112.624, 110.250 113.220 M 101.029 121.893 C 100.158 125.127, 100.407 129, 101.486 129 C 101.635 129, 104.400 127.375, 107.629 125.388 C 111.779 122.836, 112.671 121.967, 110.674 122.426 C 108.399 122.950, 107.459 122.582, 105.851 120.538 C 103.136 117.087, 102.256 117.334, 101.029 121.893 M 28 119.809 C 28 120.254, 28.616 121.460, 29.368 122.489 C 30.695 124.303, 30.771 124.297, 31.850 122.280 C 32.742 120.614, 32.652 120.081, 31.400 119.600 C 29.244 118.773, 28 118.849, 28 119.809 M 91.240 120.423 L 87.981 121.607 90.997 124.497 C 94.385 127.743, 95.600 127.250, 96.606 122.219 C 97.325 118.627, 96.731 118.428, 91.240 120.423 M 46.182 125.500 C 47.546 128.494, 48.160 128.585, 50.388 126.124 C 51.943 124.405, 51.949 124.195, 50.461 123.624 C 49.568 123.281, 47.983 123, 46.940 123 C 45.279 123, 45.185 123.312, 46.182 125.500 M 81.530 123.951 C 81.174 124.528, 81.130 125.401, 81.432 125.890 C 82.085 126.946, 77.604 135.254, 75.391 137.090 C 73.383 138.757, 68.161 136.086, 63.868 131.197 L 60.868 127.780 61.521 131.640 C 62.788 139.122, 62.672 139, 68.518 139 C 71.479 139, 76.125 138.523, 78.841 137.941 L 83.781 136.881 82.644 133.868 C 81.675 131.301, 81.765 130.711, 83.253 129.878 C 84.214 129.340, 85 128.078, 85 127.073 C 85 124.760, 82.449 122.465, 81.530 123.951 M 67.502 127.413 C 71.179 132.235, 72.279 132.306, 74.822 127.889 L 77.060 124 70.979 124 L 64.898 124 67.502 127.413 M 88 131.885 C 88 135.341, 88.941 135.624, 93.500 133.536 C 95.519 132.611, 95.917 132.136, 94.715 132.081 C 93.733 132.037, 91.820 131.273, 90.465 130.385 C 88.027 128.788, 88 128.804, 88 131.885 M 53.268 134.960 L 51.035 136.792 53.636 137.445 C 56.836 138.248, 57.588 137.605, 56.407 135.074 C 55.525 133.183, 55.438 133.180, 53.268 134.960 M 199.627 151.250 C 198.795 154.137, 197.805 158.863, 197.428 161.750 C 196.835 166.292, 196.971 167, 198.441 167 C 200.530 167, 207.516 162.238, 211.318 158.224 L 214.137 155.248 210.801 153.186 C 208.967 152.052, 206.383 149.972, 205.059 148.562 C 203.735 147.153, 202.312 146, 201.897 146 C 201.482 146, 200.460 148.363, 199.627 151.250 M 136 153.016 C 121.949 155.498, 121.014 155.918, 119.461 160.435 C 117.549 165.996, 116.688 184.239, 117.900 193.500 C 119.419 205.102, 120.308 208.603, 123.925 217.226 C 131.008 234.108, 145.120 246.919, 163.201 252.881 C 168.357 254.581, 182.671 258, 184.633 258 C 184.910 258, 184.184 256.663, 183.021 255.030 C 179.085 249.502, 176.541 236.146, 177.875 228.016 C 178.699 222.999, 178.593 222.406, 176.638 221.061 C 174.633 219.682, 170.189 215.031, 163.282 207.083 C 159.737 203.004, 157.525 203.390, 156.614 208.245 C 155.292 215.293, 148.816 218.272, 144.189 213.961 C 142.985 212.840, 142 211.580, 142 211.162 C 142 210.744, 140.537 210.566, 138.750 210.766 C 133.474 211.358, 131.548 209.166, 131.641 202.679 C 131.761 194.373, 135.973 187.352, 142.997 183.750 C 145.946 182.238, 149.654 181, 151.238 181 C 153.303 181, 153.891 180.646, 153.316 179.750 C 151.584 177.053, 149.961 169.074, 149.348 160.250 C 148.948 154.480, 148.291 151.030, 147.603 151.081 C 146.996 151.125, 141.775 151.996, 136 153.016 M 228.629 165.254 C 228.298 166.489, 228.021 168.593, 228.014 169.929 C 228.006 171.265, 227.579 173.740, 227.066 175.429 C 225.613 180.204, 223.919 189.252, 224.390 189.723 C 224.926 190.260, 230.643 187.324, 234.238 184.666 C 235.744 183.552, 238.172 180.917, 239.633 178.809 C 242.250 175.031, 242.261 174.946, 240.394 172.877 C 239.352 171.722, 236.415 169.029, 233.866 166.892 C 229.353 163.109, 229.216 163.066, 228.629 165.254 M 105 187.169 C 103.625 187.737, 101.054 188.816, 99.288 189.567 C 97.265 190.426, 95.321 192.411, 94.038 194.926 C 91.900 199.116, 91.292 203.556, 93 202.500 C 93.550 202.160, 94 201.039, 94 200.008 C 94 198.052, 97.247 196.417, 98.991 197.494 C 99.546 197.837, 100.032 199.779, 100.071 201.809 L 100.141 205.500 102.031 201.247 C 103.112 198.814, 105.008 196.498, 106.460 195.836 C 108.612 194.856, 109 194.016, 109 190.339 C 109 185.703, 108.844 185.580, 105 187.169 M 297.667 209.667 C 297.300 210.033, 297 210.798, 297 211.367 C 297 211.993, 297.466 211.934, 298.183 211.217 C 298.834 210.566, 299.134 209.801, 298.850 209.517 C 298.566 209.232, 298.033 209.300, 297.667 209.667 M 292.932 215.633 C 289.101 219.656, 275.354 229, 273.266 229 C 272.526 229, 270.251 229.837, 268.210 230.859 C 266.170 231.882, 261.294 233.491, 257.375 234.436 C 252.168 235.692, 249.937 236.739, 249.086 238.327 C 246.870 242.460, 245.416 244.794, 243.961 246.553 C 241.294 249.778, 252.444 247.376, 262.733 242.510 C 275.989 236.240, 285.438 228.548, 294.412 216.723 C 298.188 211.748, 297.273 211.075, 292.932 215.633 M 117 230.375 C 117 233.881, 117.269 238.094, 117.597 239.737 C 118.579 244.644, 125.091 252.178, 132.953 257.500 C 144.597 265.383, 144.658 267.149, 133.432 271.175 C 127.027 273.472, 125.976 274.576, 128.135 276.735 C 128.981 277.581, 129.854 277.487, 131.568 276.364 C 135.570 273.742, 138.585 276.762, 140.438 285.250 C 141.120 288.376, 141.904 288.504, 150.546 286.907 C 161.043 284.966, 161.675 284.326, 162.517 274.779 C 162.918 270.226, 163.630 265.488, 164.098 264.250 C 164.630 262.846, 164.573 262, 163.947 262 C 160.623 262, 141.500 251.426, 135.570 246.309 C 128.501 240.209, 120.309 230.081, 119.349 226.255 C 118.251 221.881, 117 224.076, 117 230.375 M 118.174 280.314 C 115.342 283.329, 115.417 285, 118.385 285 C 120.925 285, 123.992 281.383, 123.261 279.250 C 122.605 277.333, 120.577 277.757, 118.174 280.314 M 131.336 283.237 C 127.512 287.483, 127.580 288, 131.960 288 C 135.899 288, 136.016 287.906, 135.390 285.250 C 134.424 281.150, 133.588 280.735, 131.336 283.237 M 197.098 289.863 C 194.637 293.319, 194.428 295, 196.461 295 C 197.909 295, 202 291.259, 202 289.934 C 202 289.555, 201.369 288.721, 200.598 288.081 C 199.479 287.153, 198.771 287.513, 197.098 289.863 M 209.773 291.750 C 207.866 293.922, 206.672 297.660, 207.471 298.953 C 208.297 300.289, 212.283 298.377, 213.827 295.906 C 214.709 294.493, 214.754 293.408, 213.988 291.977 C 212.685 289.543, 211.755 289.493, 209.773 291.750 M 222.615 295.465 C 219.651 299.989, 220.942 301.594, 226.135 299.840 C 230.578 298.339, 230.519 298.441, 228.612 295.531 C 226.522 292.340, 224.676 292.320, 222.615 295.465" stroke="none" fill="black" fill-rule="evenodd"/>
</svg>