<svg xmlns="http://www.w3.org/2000/svg" width="293" height="317" viewBox="0 0 293 317" version="1.1">
	<path d="M 176 9.125 C 155.732 14.541, 143.345 27.039, 134.500 51 C 132.978 55.125, 131.121 59.909, 130.375 61.632 C 129.629 63.354, 127.664 68.908, 126.009 73.972 C 120.683 90.269, 121.680 98.146, 132.087 122 C 134.873 128.385, 135.369 130.722, 135.429 137.720 C 135.521 148.336, 134.542 149.404, 121.860 152.536 C 108.800 155.762, 103.209 157.830, 98 161.362 C 91.790 165.574, 83.277 172.562, 78.589 177.297 C 73.634 182.302, 66.842 185.418, 62.697 184.589 C 61.014 184.253, 57.644 182.809, 55.207 181.381 C 51.643 179.293, 50.239 177.584, 48.026 172.643 C 45.608 167.245, 45.203 164.847, 44.687 152.864 C 44.256 142.882, 43.534 137.554, 41.993 132.978 C 36.080 115.427, 20.332 102.645, 12.133 108.743 C 8.506 111.440, 8.410 113.915, 11.611 122.285 C 15.238 131.768, 15.118 138.097, 11.006 154 C 2.032 188.716, 8.027 216.316, 29.049 237.064 C 37.782 245.683, 48.073 251.628, 59.966 254.923 C 64.042 256.053, 67.776 257.376, 68.263 257.863 C 68.776 258.376, 68.697 261.186, 68.074 264.558 C 66.011 275.719, 67.137 284.990, 71.304 291.147 C 75.315 297.074, 89.290 300.180, 103.308 298.259 C 109.468 297.415, 110.242 297.507, 111.445 299.226 C 115.911 305.601, 127.228 310, 139.161 310 C 149.517 310, 155.923 308.277, 159.733 304.467 C 163.876 300.324, 163.981 296.485, 160.159 288.949 C 156.279 281.300, 157.103 279.748, 166.072 277.822 C 173.808 276.161, 173.267 275.796, 174.488 283.500 C 175.356 288.980, 179.731 295.025, 184.897 297.881 C 188.180 299.696, 191.262 300.380, 197.852 300.755 C 209.745 301.432, 217.475 299.725, 221.716 295.484 C 226.217 290.983, 226.146 286.890, 221.445 280.056 L 217.890 274.889 221.356 268.690 C 227.185 258.268, 228.201 246.079, 224.290 233.500 C 223.435 230.750, 222.298 227.948, 221.764 227.273 C 221.187 226.543, 221.078 223.203, 221.496 219.041 C 222.137 212.654, 222.361 212.123, 224.034 213.018 C 226.734 214.463, 230.578 214.213, 232 212.500 C 232.685 211.675, 234.679 211, 236.431 211 C 246.884 211, 249.357 195.024, 240.669 183.632 C 237.590 179.596, 231.063 176.343, 224.225 175.435 L 219.215 174.771 217.605 168.135 C 216.719 164.486, 215.996 161.227, 215.997 160.893 C 215.999 160.560, 220.013 159.984, 224.919 159.614 C 236.755 158.720, 242.825 156.787, 248.920 151.969 C 255.481 146.783, 258.380 141.240, 258.429 133.783 C 258.453 130.104, 258.811 128.411, 259.433 129.033 C 262.339 131.939, 268.181 127.874, 272.416 120 C 273.451 118.075, 275.652 115.150, 277.306 113.500 C 278.960 111.850, 281.480 108.025, 282.907 105 C 285.298 99.928, 285.500 98.449, 285.500 86 C 285.500 72.702, 285.451 72.407, 282.238 66.254 C 280.289 62.524, 276.362 57.492, 272.488 53.762 C 266.835 48.319, 266 47.047, 266 43.872 C 266 29.804, 255.500 18.783, 240.754 17.372 C 237.314 17.043, 230.675 15.273, 226 13.438 C 212.599 8.179, 206.752 6.994, 194.540 7.061 C 186.819 7.103, 181.246 7.724, 176 9.125 M 182.500 16.976 C 173.751 18.920, 163.034 24.581, 156.931 30.485 C 150.756 36.458, 147.978 41.386, 142.549 56 C 138.813 66.057, 138.446 67.021, 137.018 70.500 C 133.130 79.969, 131.857 93.345, 134.081 101.354 C 134.670 103.473, 136.946 109.075, 139.140 113.801 C 144.808 126.014, 146.227 132.039, 145.426 140.500 C 144.670 148.499, 142.277 153.953, 138.273 156.809 C 134.089 159.792, 131.850 166.878, 131.263 179 C 130.661 191.421, 130.042 193, 125.781 193 C 120.915 193, 113.879 185.195, 111.680 177.357 C 110.650 173.686, 110.243 170.033, 110.642 168.039 L 111.298 164.758 108.658 166.488 C 104.154 169.440, 102.057 181.144, 104 192.499 C 105.483 201.168, 104.717 203, 99.610 203 C 94.608 203, 89.435 198.769, 86.313 192.124 C 83.627 186.407, 83.533 186.326, 81.961 188.390 C 81.078 189.550, 79.332 193.281, 78.082 196.680 C 75.885 202.653, 73.742 205.009, 72.433 202.891 C 71.828 201.912, 72.543 196.354, 73.644 193.486 C 74.073 192.367, 73.488 192.303, 70.461 193.138 C 64.955 194.659, 54.757 192.617, 49.380 188.917 C 39.293 181.977, 36.516 175.018, 35.003 152.883 C 33.976 137.867, 32.117 131.273, 26.917 124.202 C 22.885 118.719, 21.483 118.735, 22.622 124.250 C 24.229 132.028, 23.319 142.929, 19.972 156 C 15.846 172.113, 15.431 188.464, 18.877 199.155 C 24.508 216.628, 40.924 230.057, 61.307 233.865 L 65.791 234.703 66.177 227.870 C 66.603 220.328, 67.934 217.871, 70.458 219.965 C 71.432 220.774, 72.009 222.949, 72.026 225.872 C 72.048 229.986, 73.726 238.377, 76.948 250.500 C 77.616 253.015, 77.772 259.591, 77.367 268.214 C 76.649 283.495, 77.211 285.506, 83.039 288.520 C 86.601 290.362, 87.541 289.970, 88.467 286.259 C 88.846 284.742, 89.866 282.712, 90.733 281.750 C 92.417 279.882, 98.472 279.336, 99.477 280.962 C 99.850 281.566, 100.990 281.506, 102.536 280.802 C 104.396 279.954, 105 278.906, 105 276.527 C 105 274.794, 105.900 271.513, 107 269.236 C 110.471 262.053, 109.853 259.841, 102.250 252.223 C 98.537 248.504, 94.646 243.669, 93.603 241.480 C 92.559 239.291, 91.335 236.739, 90.882 235.810 C 89.489 232.953, 87.925 221.146, 88.589 218.500 C 89.742 213.908, 91.501 215.924, 93.291 223.890 C 95.600 234.159, 99.764 242.521, 105.049 247.500 C 107.541 249.848, 109.029 250.747, 108.651 249.678 C 107.784 247.222, 109.649 243.928, 111.503 244.640 C 114.706 245.869, 117.365 258.622, 117.948 275.550 C 118.566 293.516, 119.389 296.011, 125.546 298.584 C 129.905 300.405, 129.652 300.489, 130.351 296.995 C 131.170 292.900, 136.724 290.098, 140.559 291.845 C 142.824 292.877, 143.523 292.734, 145.835 290.767 C 147.733 289.153, 148.411 287.730, 148.191 285.824 C 147.892 283.237, 148.475 281.780, 154.501 270.058 C 156.876 265.437, 157.301 263.400, 157.314 256.558 C 157.329 248.239, 156.267 244.016, 151.585 233.780 C 150.163 230.671, 149 227.874, 149 227.564 C 149 226.202, 152.994 227.167, 153.875 228.742 C 154.411 229.700, 155.014 230.262, 155.215 229.992 C 161.272 221.843, 163.824 216.998, 165.375 210.698 C 166.003 208.143, 165.891 207.988, 164.098 208.948 C 160.679 210.777, 155.601 210.157, 151.944 207.462 C 146.130 203.178, 140.919 190.904, 144.085 188.948 C 145.974 187.780, 147.451 189.306, 149.012 194.038 C 150.294 197.921, 155.869 204, 158.149 204 C 158.743 204, 161.375 202.832, 163.998 201.404 C 166.622 199.977, 169.559 198.964, 170.526 199.154 C 171.492 199.344, 173.457 201.750, 174.892 204.500 C 176.326 207.250, 177.613 209.688, 177.750 209.917 C 178.487 211.145, 179.406 208.415, 179.499 204.720 C 179.586 201.251, 179.949 200.500, 181.539 200.500 C 182.679 200.500, 184.034 201.669, 184.838 203.348 C 186.679 207.189, 188.350 205.384, 187.441 200.537 C 187.008 198.227, 185.277 195.273, 182.884 192.757 L 179.025 188.701 170.599 189.296 L 162.172 189.890 161.703 184.195 C 161.445 181.063, 161.069 177.617, 160.867 176.538 C 160.252 173.250, 163.819 173.370, 165.013 176.677 C 167.575 183.776, 167.394 183.606, 169.820 181.180 C 171.856 179.144, 171.996 178.090, 171.936 165.250 C 171.900 157.687, 171.322 148.899, 170.651 145.720 C 169.607 140.780, 168.926 139.636, 165.965 137.852 C 160.537 134.583, 151.925 126.928, 150.734 124.316 C 148.750 119.960, 151.222 119.751, 156.634 123.817 C 167.566 132.032, 198.316 145.764, 211.911 148.503 C 216.990 149.526, 223.358 150.059, 227.989 149.849 C 234.425 149.556, 236.444 149.013, 240.557 146.471 C 245.225 143.585, 249.127 138.793, 247.849 137.516 C 247.521 137.188, 245.508 137.950, 243.376 139.209 C 240.053 141.173, 238.144 141.495, 230 141.467 C 213.826 141.410, 204.480 136.934, 190.815 122.700 C 184.988 116.631, 182.599 113.276, 180.935 108.826 C 179.728 105.599, 178.349 102.716, 177.870 102.420 C 177.392 102.124, 177 100.812, 177 99.504 C 177 97.344, 176.678 97.178, 173.500 97.694 C 170.457 98.187, 170 97.995, 170 96.220 C 170 92.162, 184.505 87.773, 186.618 91.191 C 187.023 91.846, 186.813 92.562, 186.152 92.783 C 182.303 94.066, 203.698 106.112, 216 109.588 C 229.607 113.432, 259.699 111.651, 270.159 106.382 C 274.336 104.278, 276.500 97.321, 276.499 86 C 276.498 73.336, 274.575 69.184, 263.984 58.985 L 256 51.295 256 45.616 C 256 42.492, 255.373 38.435, 254.606 36.600 C 253.161 33.142, 248.124 28.725, 244.305 27.566 C 242.384 26.983, 242.134 27.249, 242.305 29.700 C 242.465 31.995, 242.139 32.439, 240.500 32.160 C 239.400 31.974, 237.150 30.823, 235.500 29.603 C 229.949 25.499, 221.429 21.213, 214.441 19.009 C 206.702 16.567, 189.320 15.462, 182.500 16.976 M 174.500 26.596 C 170.509 28.049, 168.596 29.830, 164.941 35.500 C 160.524 42.352, 163.811 44.307, 168.965 37.894 C 172.980 32.898, 177.211 31, 184.330 31 C 188.816 31, 190.380 31.511, 193.612 34.033 C 195.751 35.702, 198.463 38.234, 199.639 39.661 C 202.340 42.936, 204.348 42.047, 202.893 38.219 C 198.732 27.275, 186.451 22.248, 174.500 26.596 M 177.307 44.467 C 168.325 48.373, 167.429 66.336, 175.969 71.298 C 185.957 77.103, 195.987 71.227, 195.996 59.566 C 196.006 47.212, 187.254 40.141, 177.307 44.467 M 176.040 52.452 C 173.958 54.961, 175.195 57.500, 178.500 57.500 C 180.566 57.500, 181.578 56.952, 181.819 55.702 C 182.216 53.640, 180.352 51, 178.500 51 C 177.810 51, 176.703 51.653, 176.040 52.452 M 267.238 76.190 C 266.300 80.670, 267.103 83, 269.587 83 C 271.561 83, 273.165 79.370, 272.810 75.704 C 272.577 73.294, 271.960 72.423, 270.321 72.190 C 268.479 71.927, 268.002 72.547, 267.238 76.190 M 228.521 75.621 C 226.178 77.965, 227.051 80.347, 230.686 81.526 C 232.424 82.090, 234.704 83.328, 235.752 84.276 C 239.538 87.702, 241.656 85.466, 239.495 80.326 C 237.154 74.759, 231.716 72.427, 228.521 75.621 M 186 103.801 C 186 104.298, 187.030 106.233, 188.290 108.102 C 189.819 110.371, 191.370 111.500, 192.956 111.500 C 195.869 111.500, 196.855 109.245, 194.333 108.353 C 193.325 107.996, 191.037 106.623, 189.250 105.301 C 187.463 103.980, 186 103.305, 186 103.801 M 202 113.443 C 202 114.567, 206.292 121, 207.042 121 C 207.507 121, 208.572 120.021, 209.410 118.825 C 210.870 116.741, 210.763 116.574, 206.858 114.825 C 202.538 112.891, 202 112.738, 202 113.443 M 195.148 116.322 C 194.306 117.336, 194.977 118.548, 198.025 121.525 C 202.546 125.939, 202.989 125.356, 199.754 119.250 C 197.313 114.640, 196.809 114.320, 195.148 116.322 M 261.638 118.500 C 261.955 119.325, 262.568 120, 263 120 C 263.432 120, 264.045 119.325, 264.362 118.500 C 264.751 117.485, 264.311 117, 263 117 C 261.689 117, 261.249 117.485, 261.638 118.500 M 215.200 119.200 C 213.353 121.047, 213.738 122.374, 217.034 125.533 C 219.307 127.710, 219.998 129.186, 219.784 131.410 C 219.523 134.134, 219.830 134.452, 223.500 135.260 C 227.453 136.130, 237.505 135.829, 238.524 134.809 C 238.813 134.520, 238.126 132.128, 236.997 129.493 L 234.944 124.704 232.658 126.852 C 230.105 129.250, 226.200 129.646, 223.800 127.750 C 222.929 127.063, 221.038 124.588, 219.596 122.250 C 216.639 117.456, 216.819 117.581, 215.200 119.200 M 224 119.889 C 224 120.378, 224.857 121.837, 225.905 123.131 C 227.782 125.449, 227.840 125.455, 229.905 123.586 C 233.219 120.587, 232.560 119, 228 119 C 225.800 119, 224 119.400, 224 119.889 M 243.500 120 C 242.419 121.749, 244.022 123.227, 245.589 121.926 C 246.365 121.282, 247 120.360, 247 119.878 C 247 118.672, 244.262 118.768, 243.500 120 M 207.248 125.447 C 205.124 126.616, 205.096 126.770, 206.748 128.156 C 210.057 130.931, 214.174 133.159, 214.813 132.520 C 215.606 131.727, 211.871 124.714, 210.500 124.421 C 209.950 124.304, 208.487 124.765, 207.248 125.447 M 244 130.059 C 244 130.641, 244.450 130.840, 245 130.500 C 245.550 130.160, 246 129.684, 246 129.441 C 246 129.198, 245.550 129, 245 129 C 244.450 129, 244 129.477, 244 130.059 M 175.604 145.560 C 176.025 147.727, 176.399 156.787, 176.435 165.694 L 176.500 181.888 180.569 182.913 C 188.482 184.906, 195 193.981, 195 203.006 C 195 209.097, 191.942 213, 187.168 213 C 185.560 213, 183.685 213.675, 183 214.500 C 180.968 216.949, 175.449 216.387, 173.179 213.500 C 170.898 210.601, 170 210.350, 170 212.612 C 170 214.538, 163.589 226.667, 161.074 229.500 C 158.031 232.927, 157.984 233.593, 160.438 238.680 C 164.686 247.486, 165.798 257.264, 163.629 266.750 C 163.346 267.988, 163.211 269, 163.328 269 C 165.819 269, 179.530 264.154, 183.707 261.796 C 202.972 250.924, 213.009 231.387, 212.994 204.792 C 212.989 195.185, 212.542 191.142, 210.006 177.750 C 207.706 165.606, 206.961 162.846, 204.787 158.401 C 202.396 153.512, 200.766 152.601, 181.586 145.435 C 179.434 144.631, 177.035 143.444, 176.255 142.797 C 175.055 141.801, 174.955 142.223, 175.604 145.560 M 121.153 162.429 C 118.762 163.071, 116.349 164.411, 115.792 165.407 C 113.661 169.215, 117.552 181.643, 122.390 186.481 C 126.038 190.129, 127.055 189.689, 126.387 184.750 C 125.871 180.937, 126.901 171.175, 128.603 163.750 C 129.324 160.604, 128.494 160.457, 121.153 162.429 M 93.641 176.085 C 89.775 179.488, 89 180.757, 89 183.684 C 89 188.245, 91.484 193.388, 95.196 196.512 C 96.823 197.880, 98.456 199, 98.827 199 C 99.197 199.001, 99.500 192.927, 99.500 185.502 C 99.500 178.078, 99.226 172.003, 98.891 172.002 C 98.556 172.001, 96.193 173.838, 93.641 176.085 M 220.832 189.250 C 221.108 192.308, 222.044 194.321, 224.169 196.428 C 225.793 198.038, 227.378 200.641, 227.693 202.213 C 228.444 205.971, 229.500 204.788, 229.500 200.188 C 229.500 195.202, 232.236 194.699, 234.970 199.182 L 236.993 202.500 236.996 198.562 C 237.003 191.496, 230.692 185, 223.819 185 C 220.458 185, 220.448 185.014, 220.832 189.250 M 38 232.154 C 41.575 235.490, 47.425 239.673, 51 241.450 C 57.252 244.557, 66.703 247.693, 67.387 246.888 C 67.568 246.675, 67.506 244.813, 67.249 242.750 C 66.841 239.482, 66.442 239, 64.143 239 C 59.655 239, 43.178 232.985, 37.856 229.403 C 35.075 227.531, 32.507 226.020, 32.150 226.044 C 31.792 226.069, 34.425 228.818, 38 232.154 M 212.987 242.149 C 209.750 249.223, 198.370 261.003, 189.328 266.639 L 182.156 271.110 182.704 276.805 C 183.377 283.792, 186.045 288.472, 190.176 289.912 C 194.148 291.296, 194 291.324, 194 289.174 C 194 285.776, 198.373 282.802, 202.892 283.128 C 208.080 283.503, 209.469 282.079, 209.139 276.724 C 208.936 273.418, 209.817 270.489, 213.026 263.802 C 216.601 256.351, 217.164 254.279, 217.098 248.827 C 217.056 245.347, 216.665 241.217, 216.229 239.649 C 215.442 236.821, 215.417 236.840, 212.987 242.149 M 93.750 285.112 C 92.787 285.655, 92 287.007, 92 288.116 C 92 289.726, 92.554 290.069, 94.750 289.816 C 96.869 289.573, 97.423 289.041, 97.166 287.500 C 96.689 284.639, 95.751 283.983, 93.750 285.112 M 103.575 285.322 C 101.594 286.770, 102.155 289, 104.500 289 C 106.343 289, 106.889 287.883, 106.102 285.723 C 105.538 284.175, 105.214 284.123, 103.575 285.322 M 210.648 286.494 C 208.811 288.332, 209.604 291.366, 211.711 290.557 C 212.510 290.251, 213.577 290, 214.082 290 C 215.490 290, 215.172 287.388, 213.606 286.088 C 212.531 285.196, 211.854 285.289, 210.648 286.494 M 198.607 288.582 C 197.693 290.965, 197.735 291, 201.535 291 C 204.760 291, 204.977 290.825, 204 289 C 202.722 286.612, 199.460 286.359, 198.607 288.582 M 148.200 295.200 C 146.440 296.960, 146.737 299.002, 148.750 298.985 C 151.489 298.961, 153.351 297.357, 152.677 295.601 C 151.950 293.706, 149.880 293.520, 148.200 295.200 M 135.036 297.933 C 134.206 299.484, 134.369 299.982, 135.860 300.456 C 137.839 301.084, 141 300.246, 141 299.093 C 141 297.950, 138.690 296, 137.335 296 C 136.640 296, 135.605 296.870, 135.036 297.933" stroke="none" fill="black" fill-rule="evenodd"/>
</svg>