<svg xmlns="http://www.w3.org/2000/svg" width="384" height="276" viewBox="0 0 384 276" version="1.1">
	<path d="M 203.973 8.679 C 197.536 13.049, 193.706 17.058, 183.389 30.222 L 181.279 32.915 173.540 28.958 C 164.098 24.129, 160.381 23.907, 156.088 27.918 C 153.390 30.438, 149.778 37.021, 147.612 43.363 C 147.142 44.740, 146.391 45.057, 144.738 44.577 C 139.615 43.089, 131.961 42.774, 129.156 43.935 C 125.355 45.510, 121.410 52.857, 120.532 60 C 119.450 68.795, 119.540 68.679, 113.223 69.409 C 103.316 70.554, 100.381 74.814, 101.297 86.716 L 101.896 94.500 97.207 96 C 94.104 96.992, 92.096 98.346, 91.273 100 C 89.467 103.631, 89.723 112.580, 91.867 120.748 C 95.046 132.853, 98.697 137.192, 107.667 139.523 C 112.357 140.742, 112.415 140.801, 109.613 141.532 C 107.293 142.138, 104.839 141.376, 97.113 137.652 C 81.309 130.035, 70.256 128.335, 57.644 131.582 C 54.265 132.452, 49.169 134.492, 46.320 136.116 C 40.512 139.424, 31.893 148.329, 28.991 154.018 C 27.937 156.083, 24.122 160.411, 20.512 163.636 C 11.054 172.086, 7.843 177.469, 7.241 185.881 C 6.856 191.258, 7.169 193.573, 8.755 197.080 C 11.826 203.871, 17.223 209.346, 24.699 213.253 C 39.053 220.755, 53.008 222.884, 72.550 220.556 C 79.672 219.707, 87.525 218.297, 90 217.422 C 94.587 215.800, 100.384 216.065, 104.125 218.067 C 106.485 219.330, 106.650 226.285, 104.489 233.409 C 102.121 241.216, 102.513 248.268, 105.514 251.834 C 108.784 255.721, 115.674 258, 124.152 258 C 130.735 258, 130.999 258.097, 132.545 261.088 C 133.642 263.209, 135.915 264.987, 139.804 266.768 C 144.761 269.037, 146.775 269.359, 155.983 269.350 C 164.582 269.341, 167.320 268.954, 171 267.228 C 180.190 262.917, 181.434 260.474, 184.515 240.709 L 185.106 236.918 192.803 237.209 L 200.500 237.500 200.221 242 C 199.618 251.702, 206.372 256, 222.222 256 C 230.050 256, 230.094 256.015, 233.790 259.889 C 238.426 264.749, 242.741 265.987, 255.068 265.994 C 266.395 266.001, 273.650 264.125, 278.391 259.962 C 283.540 255.440, 284.149 252.949, 283.806 237.802 L 283.500 224.289 298.500 223.637 C 331.631 222.196, 359.251 211.286, 373.250 194.109 C 379.346 186.630, 377.799 179.464, 369.652 177.441 C 367.086 176.804, 366.865 176.424, 367.428 173.617 C 368.999 165.782, 369.112 163.130, 368.044 159.164 C 365.360 149.194, 354.431 152.176, 348.950 164.374 L 347.210 168.247 346.700 163.374 C 345.593 152.782, 343.902 149.577, 338.829 148.462 C 334.194 147.444, 330.299 152.071, 327.009 162.500 C 325.501 167.281, 323.292 170.049, 321.525 169.371 C 320.564 169.002, 321.092 166.705, 323.619 160.267 C 325.479 155.531, 327 150.483, 327 149.050 C 327 145.198, 324.433 142.210, 319.978 140.875 L 316.027 139.692 317.959 136.567 C 321.364 131.056, 326.230 115.038, 325.568 111.513 C 324.897 107.934, 321.853 104.646, 317.784 103.104 C 315.139 102.102, 315.082 101.912, 315.600 95.788 C 316.034 90.659, 315.773 88.932, 314.184 86.420 C 312.047 83.041, 306.608 80, 302.702 80 L 300.206 80 299.805 67.750 C 299.326 53.104, 297.783 49.318, 291.422 47.185 C 288.057 46.056, 286.506 46.109, 280.503 47.561 C 276.655 48.491, 273.026 49.436, 272.440 49.661 C 271.854 49.886, 270.344 47.692, 269.084 44.785 C 264.894 35.117, 263.787 33.170, 260.908 30.412 C 258.882 28.471, 257.094 27.710, 254.762 27.798 C 250.952 27.941, 243.598 30.378, 240.141 32.644 C 238.825 33.506, 237.468 33.818, 237.124 33.337 C 236.781 32.856, 234.087 28.871, 231.139 24.481 C 228.190 20.092, 223.465 14.365, 220.639 11.756 C 216.090 7.557, 214.980 7.012, 210.973 7.006 C 208.373 7.003, 205.392 7.715, 203.973 8.679 M 205.994 18.388 C 197.175 24.802, 184.674 41.445, 181.502 50.994 C 179.391 57.349, 180.612 62.110, 186.712 71.305 C 191.029 77.812, 191.363 78.080, 194.363 77.438 C 196.088 77.069, 197.571 76.706, 197.658 76.633 C 197.745 76.560, 197.119 73.002, 196.265 68.726 C 194.788 61.322, 195.005 58.524, 196.899 60.567 C 197.375 61.080, 198.789 65.009, 200.042 69.299 C 202.018 76.063, 202.597 77.058, 204.410 76.799 C 206.403 76.514, 206.511 75.848, 206.743 62.500 C 207.018 46.667, 207.418 44, 209.519 44 C 210.767 44, 211 46.602, 211 60.570 C 211 76.761, 211.047 77.132, 213.069 76.820 C 214.676 76.571, 215.738 74.725, 217.819 68.559 C 219.294 64.192, 221.063 60.442, 221.750 60.226 C 223.496 59.678, 223.312 62.414, 221.079 70.223 L 219.159 76.939 222.635 77.591 C 225.413 78.112, 226.584 77.800, 228.463 76.035 C 232.310 72.421, 237 62.671, 237 58.288 C 237 53.535, 234.513 45.844, 231.336 40.770 C 230.051 38.718, 229 36.807, 229 36.523 C 229 35.914, 221.085 25.078, 217.713 21.071 C 216.427 19.542, 214.278 17.576, 212.937 16.701 C 210.613 15.185, 210.291 15.263, 205.994 18.388 M 159.689 37.736 C 158.395 39.806, 156.864 43.390, 156.287 45.700 L 155.238 49.900 161.869 54.200 C 169.893 59.403, 173.367 65.262, 174.455 75.428 C 174.842 79.043, 175.506 82, 175.930 82 C 176.355 82, 178.105 81.511, 179.821 80.913 L 182.941 79.825 178.537 73.394 C 175.678 69.218, 173.728 65.006, 172.975 61.379 C 171.943 56.406, 172.058 55.038, 174.032 48.900 C 175.818 43.345, 176.009 41.716, 175.012 40.515 C 173.266 38.410, 167.994 35.373, 164.771 34.615 C 162.400 34.057, 161.734 34.465, 159.689 37.736 M 247.235 38.980 C 244.889 40.045, 242.719 41.568, 242.413 42.365 C 242.108 43.162, 242.565 45.896, 243.429 48.442 C 246.544 57.617, 244.968 65.843, 238.276 75.348 C 236.399 78.014, 235.006 80.286, 235.181 80.395 C 235.797 80.781, 241.097 83, 241.402 83 C 241.572 83, 241.982 80.094, 242.314 76.542 C 243.340 65.550, 246.854 60.745, 257.167 56.229 L 261.835 54.186 261.266 49.949 C 260.954 47.618, 259.602 43.751, 258.263 41.356 C 255.472 36.361, 253.798 36.001, 247.235 38.980 M 130.299 54.372 C 129.014 56.845, 128.656 60.778, 128.587 73.165 C 128.486 91.415, 128.648 91.774, 139.154 96.489 C 144.850 99.045, 150 99.330, 150 97.089 C 150 96.609, 147.975 93.964, 145.500 91.211 C 143.025 88.458, 141 85.935, 141 85.603 C 141 83.911, 144.072 85.471, 148.679 89.500 C 157.851 97.524, 158.324 95.043, 150.428 80.322 C 147.363 74.608, 145.034 69.399, 145.252 68.745 C 145.944 66.669, 150.452 72.175, 155.535 81.304 C 160.493 90.207, 163.108 91.652, 161.086 84.370 C 158.565 75.292, 161.259 72.777, 164.082 81.572 C 164.952 84.283, 166.077 86.394, 166.582 86.265 C 168.194 85.853, 168.168 77.088, 166.537 71.478 C 165.432 67.679, 163.991 65.284, 161.730 63.487 C 157.279 59.951, 142.353 53.192, 136.638 52.125 C 132.022 51.262, 131.892 51.309, 130.299 54.372 M 284.500 55.486 C 283.950 55.666, 277.476 57.706, 270.113 60.019 C 259.919 63.221, 255.887 64.993, 253.207 67.449 C 249.844 70.531, 249.671 71.025, 249.292 78.587 C 248.918 86.062, 249.031 86.595, 251.341 88.216 L 253.787 89.933 256.143 83.289 C 258.591 76.388, 261 73.909, 261 78.291 C 261 79.643, 260.325 82.662, 259.500 85 C 257.798 89.824, 257.548 93.327, 258.941 92.833 C 259.458 92.650, 262.884 88.675, 266.553 84 C 273.565 75.067, 275.470 73.334, 276.482 74.971 C 277.058 75.904, 273.281 81.859, 265.831 91.762 C 263.428 94.956, 262.911 96.311, 263.766 97.166 C 264.904 98.304, 265.056 98.211, 274.583 90.553 C 276.355 89.128, 277.303 88.903, 278.113 89.713 C 278.923 90.523, 277.781 92.173, 273.860 95.857 C 269.644 99.818, 268.760 101.154, 269.718 102.115 C 272.601 105.005, 285.896 97.641, 288.966 91.454 C 290.879 87.598, 291.758 60.285, 290.071 57.132 C 289.030 55.187, 287.127 54.625, 284.500 55.486 M 112.115 79.081 C 109.856 79.985, 109.757 80.386, 110.257 86.610 C 110.547 90.226, 111.170 93.536, 111.642 93.965 C 112.114 94.395, 115.062 94.993, 118.193 95.295 L 123.886 95.844 121.912 92.056 C 120.826 89.972, 119.664 85.957, 119.329 83.134 C 118.674 77.596, 117.489 76.931, 112.115 79.081 M 193.907 85.066 C 171.045 88.428, 144.727 107.501, 130.109 131.300 C 126.815 136.663, 119.809 144.690, 115.914 147.564 C 110.578 151.500, 104.285 150.959, 92.289 145.534 C 80.566 140.232, 73.619 138.572, 66.066 139.269 C 54.422 140.344, 44.322 147.059, 36.408 158.990 C 34.033 162.571, 29.183 168.081, 25.630 171.236 C 16.465 179.374, 14.439 185.839, 18.127 195.180 C 19.774 199.353, 25.159 201.375, 34.518 201.334 C 44.012 201.292, 51.293 198.645, 53.155 194.559 C 54.535 191.530, 55.975 191.349, 59.029 193.822 C 61.212 195.590, 61.227 195.723, 59.536 198.305 C 57.305 201.710, 44.844 207.978, 40.116 208.073 C 36.529 208.146, 36.545 208.163, 42 210.203 C 46.473 211.875, 49.835 212.259, 60 212.259 C 83.714 212.258, 97.658 207.297, 102.534 197.126 C 104.682 192.642, 106.370 191.954, 107.954 194.914 C 109.365 197.551, 129.427 204.110, 136.900 204.378 C 142.462 204.577, 143.463 208.641, 143.483 231.094 L 143.500 249.689 145.949 250.844 C 147.297 251.480, 149.399 252, 150.623 252 C 153.469 252, 159 256.621, 159 258.999 C 159 260.702, 159.368 260.734, 164.702 259.494 C 167.838 258.765, 170.938 257.438, 171.591 256.545 C 173.228 254.306, 175.674 239.238, 177.117 222.500 C 177.781 214.800, 178.734 207.964, 179.235 207.309 C 180.548 205.594, 183 206.859, 183 209.252 C 183 211.237, 183.391 211.276, 197.750 210.729 C 205.863 210.420, 214.849 209.645, 217.721 209.007 L 222.942 207.847 222.923 199.173 C 222.894 185.697, 225.804 179.011, 227.134 189.500 C 229.158 205.475, 230.591 209.900, 237.705 222.143 C 242.043 229.610, 242.251 230.326, 242.373 238.252 C 242.500 246.523, 242.509 246.550, 245.670 248.107 C 247.804 249.158, 249.381 249.366, 250.493 248.744 C 253.286 247.181, 256.521 248.761, 258.637 252.721 C 260.470 256.149, 261.004 256.479, 264.385 256.273 C 269.987 255.933, 273.868 253.219, 274.641 249.102 C 274.999 247.192, 275.010 239.740, 274.665 232.544 C 273.934 217.302, 274.855 210.268, 279.132 198.449 C 282.237 189.869, 284.384 186.501, 286.081 187.550 C 287.278 188.290, 287.259 193.189, 286.046 196.380 C 285.144 198.752, 285.378 198.996, 290.296 200.811 C 298.419 203.810, 317.267 206.340, 325.755 205.572 C 335.226 204.715, 346.473 201.797, 353.154 198.463 C 358.112 195.990, 367 188.533, 367 186.848 C 367 186.443, 365.068 186.967, 362.708 188.011 C 354.316 191.723, 344.150 191.440, 342.620 187.452 C 342.269 186.538, 340.660 185.998, 338.281 185.994 C 332.231 185.985, 327.696 184.291, 319.848 179.105 C 306.179 170.074, 297.234 159.277, 282.479 134 C 280.392 130.425, 275.567 123.088, 271.757 117.695 C 253.896 92.412, 225.340 80.444, 193.907 85.066 M 298.125 92.072 C 297.536 93.762, 295.583 97.002, 293.784 99.272 C 291.203 102.531, 290.934 103.235, 292.508 102.618 C 293.603 102.187, 296.862 101.584, 299.749 101.278 C 304.815 100.740, 305.033 100.589, 306.009 96.967 C 307.230 92.433, 306.583 90.391, 303.681 89.612 C 299.924 88.605, 299.226 88.914, 298.125 92.072 M 200.500 91.102 C 192.371 93.599, 188.285 102.923, 192.772 108.740 C 195.539 112.326, 205.386 115.308, 212.500 114.713 C 223.989 113.753, 231 108.778, 231 101.584 C 231 98.076, 225.577 92.255, 221.168 91.030 C 216.715 89.793, 204.624 89.835, 200.500 91.102 M 199.277 95.922 C 192.949 99.880, 194.106 107.050, 201.423 109.232 C 203.665 109.900, 208.730 110.459, 212.677 110.474 C 220.714 110.503, 224.710 108.515, 226.453 103.620 C 227.280 101.299, 226.979 100.517, 224.185 97.722 C 221.082 94.618, 220.628 94.489, 211.732 94.203 C 203.880 93.950, 202.018 94.207, 199.277 95.922 M 167.910 101.371 C 160.400 104.056, 151 114.167, 151 119.561 C 151 126.305, 160.429 129.022, 169.818 124.983 C 181.666 119.886, 186.071 107.063, 177.723 101.973 C 173.989 99.696, 172.800 99.623, 167.910 101.371 M 105.250 103.215 L 99 104.175 99 107.640 C 99 113.168, 101.964 124.684, 104.079 127.373 C 105.347 128.985, 107.762 130.212, 111.058 130.919 C 121.859 133.235, 123.960 131.575, 115.702 127.250 C 107.996 123.214, 110.166 121.641, 119.544 124.463 C 124.291 125.892, 126.308 125.771, 124.433 124.170 C 123.920 123.731, 121.138 121.447, 118.250 119.093 C 109.618 112.057, 111.830 110.567, 121.432 116.950 C 124.694 119.119, 127.731 120.666, 128.182 120.388 C 129.602 119.510, 129.073 117.376, 126.962 115.466 C 125.495 114.138, 125.087 112.881, 125.505 110.975 C 126.302 107.347, 123.484 104.129, 118.500 102.975 C 113.927 101.915, 113.685 101.919, 105.250 103.215 M 132.042 103.250 C 132.065 103.938, 132.871 105.975, 133.833 107.779 L 135.581 111.058 137.711 108.176 L 139.842 105.295 136.387 103.647 C 132.242 101.671, 131.988 101.648, 132.042 103.250 M 240.503 105.250 C 238.960 106.580, 237.496 109.275, 236.922 111.840 C 236.081 115.592, 236.258 116.740, 238.228 120.310 C 241.965 127.085, 251.715 131.082, 260.488 129.436 C 264.683 128.649, 267.103 124.988, 266.278 120.673 C 265.588 117.062, 256.786 107.442, 251.887 104.942 C 246.908 102.402, 243.704 102.489, 240.503 105.250 M 164.875 107.864 C 159.186 111.472, 156 115.480, 156 119.028 C 156 125.923, 171.099 123.430, 175.845 115.750 C 178.481 111.486, 178.576 108.831, 176.171 106.655 C 173.506 104.243, 169.993 104.619, 164.875 107.864 M 281.500 108.219 C 276.364 110.828, 276.564 110.539, 278.237 112.928 C 279.645 114.938, 279.751 114.893, 282.939 110.926 C 284.733 108.694, 286.043 106.714, 285.850 106.527 C 285.658 106.340, 283.700 107.102, 281.500 108.219 M 243.313 108.786 C 240.890 110.326, 239.916 114.937, 241.405 117.817 C 244.181 123.184, 256.422 127.690, 260.322 124.781 C 263.191 122.641, 261.494 118.652, 255.311 113.002 C 249.960 108.111, 246.362 106.847, 243.313 108.786 M 293.370 110.622 C 292.748 110.878, 290.359 113.317, 288.061 116.043 C 283.527 121.420, 283.377 124.880, 287.860 120.704 C 289.312 119.351, 291.453 117.755, 292.619 117.157 C 296.633 115.098, 296.037 117.394, 291.312 122.191 C 286.121 127.461, 286.847 128.453, 292.942 124.420 C 295.148 122.960, 297.852 121.989, 299.170 122.184 C 301.247 122.491, 300.926 122.947, 296.208 126.388 C 290.327 130.678, 290.085 131.787, 295.416 130.028 C 297.368 129.384, 299.986 129.023, 301.233 129.227 C 303.088 129.530, 302.464 130.122, 297.804 132.481 C 294.670 134.067, 292.358 135.771, 292.665 136.267 C 293.442 137.525, 305.024 136.112, 307.665 134.438 C 309.652 133.178, 314.759 121.674, 316.369 114.833 C 316.964 112.303, 316.735 112.109, 311.949 111.083 C 306.949 110.010, 295.547 109.728, 293.370 110.622 M 186.888 121.500 C 185.451 122.280, 183.710 124.285, 183.019 125.954 C 181.954 128.526, 182.013 129.370, 183.404 131.494 C 184.821 133.657, 185.786 134, 190.446 134 C 194.797 134, 196.444 133.497, 198.923 131.411 C 202.486 128.414, 203.020 124.233, 200.171 121.655 C 197.906 119.605, 190.532 119.519, 186.888 121.500 M 189.223 125.557 C 186.022 127.798, 186.375 130, 189.935 130 C 194.557 130, 198 128.303, 198 126.025 C 198 124.404, 197.347 124, 194.723 124 C 192.920 124, 190.445 124.701, 189.223 125.557 M 223.072 128.741 C 219.647 131.514, 219.794 136.566, 223.389 139.658 C 225.419 141.404, 227.322 142, 230.867 142 C 243.643 142, 242.728 128.738, 229.852 127.287 C 226.493 126.908, 224.918 127.246, 223.072 128.741 M 139.218 131.623 C 135.510 133.496, 132.462 137.312, 131.448 141.351 C 129.393 149.537, 143.151 150.215, 148.851 142.209 C 151.275 138.804, 151.674 133.804, 149.655 132.128 C 147.240 130.125, 142.627 129.901, 139.218 131.623 M 225.200 132.200 C 223.333 134.067, 223.770 135.574, 226.547 136.839 C 230.305 138.552, 234.948 138.300, 235.698 136.344 C 237.099 132.694, 228.214 129.186, 225.200 132.200 M 266.226 134.040 C 258.298 137.224, 264.487 148.986, 274.095 148.996 C 282.965 149.005, 283.269 139.245, 274.530 135.015 C 269.917 132.782, 269.486 132.731, 266.226 134.040 M 138.687 137.805 C 135.099 141.550, 135.149 144, 138.813 144 C 142.215 144, 147.569 138.924, 146.661 136.560 C 145.717 134.098, 141.626 134.737, 138.687 137.805 M 267.313 139.628 C 266.491 141.768, 270.616 144.948, 274.250 144.978 C 277.650 145.005, 277.739 143.648, 274.545 140.455 C 271.733 137.642, 268.228 137.242, 267.313 139.628 M 298.500 145 C 298.160 145.550, 298.557 146, 299.382 146 C 300.207 146, 301.160 145.550, 301.500 145 C 301.840 144.450, 301.443 144, 300.618 144 C 299.793 144, 298.840 144.450, 298.500 145 M 308.750 151.658 C 306.688 152.514, 305 153.541, 305 153.940 C 305 154.340, 306.514 156.418, 308.365 158.559 L 311.729 162.451 313.736 158.476 C 317.272 151.472, 317.462 149.993, 314.817 150.052 C 313.543 150.080, 310.813 150.803, 308.750 151.658 M 61.073 161.728 C 58.573 164.761, 58 166.364, 58 170.328 C 58 174.535, 58.464 175.664, 61.400 178.600 C 64.364 181.564, 65.444 182, 69.823 182 C 74.099 182, 75.304 181.542, 77.923 178.923 C 80.534 176.312, 81 175.093, 81 170.873 C 81 165.379, 79.009 160.610, 76.055 159.030 C 74.997 158.463, 71.885 158, 69.139 158 C 64.590 158, 63.872 158.332, 61.073 161.728 M 69.568 164.683 C 68.733 166.859, 72.268 170.495, 74.417 169.670 C 76.287 168.953, 76.501 165.901, 74.800 164.200 C 73.070 162.470, 70.320 162.725, 69.568 164.683 M 333.820 170.262 C 331.017 176.785, 331.081 177.346, 334.750 178.455 C 336.945 179.118, 337 178.950, 337 171.567 C 337 167.405, 336.887 164.005, 336.750 164.012 C 336.613 164.019, 335.294 166.831, 333.820 170.262 M 356.146 171.272 C 352.984 177.266, 351.613 179.556, 350.089 181.393 C 348.913 182.809, 349.118 183, 351.819 183 C 353.503 183, 355.180 182.518, 355.544 181.930 C 356.335 180.649, 359.100 167.766, 358.674 167.341 C 358.511 167.178, 357.373 168.947, 356.146 171.272 M 26.557 184.937 C 24.936 186.729, 25.111 189, 26.870 189 C 28.300 189, 32.042 184.878, 31.463 183.940 C 30.528 182.428, 28.445 182.851, 26.557 184.937 M 105.028 203.176 C 103.913 204.684, 103 206.102, 103 206.326 C 103 206.549, 105.813 207.747, 109.250 208.987 C 112.688 210.227, 115.950 211.580, 116.500 211.993 C 117.697 212.893, 133.437 218, 135.012 218 C 135.688 218, 135.996 216.400, 135.807 213.869 L 135.500 209.739 121.278 205.085 L 107.057 200.432 105.028 203.176 M 283.633 208.663 C 283.281 211.228, 283.229 213.563, 283.518 213.851 C 285.592 215.925, 312.920 214.387, 323.539 211.597 L 328.500 210.295 318.500 209.635 C 306.598 208.849, 296.330 207.351, 289.568 205.413 C 286.856 204.636, 284.555 204, 284.454 204 C 284.354 204, 283.984 206.099, 283.633 208.663 M 215 213.070 C 210.875 213.492, 203.225 214.312, 198 214.892 C 192.775 215.471, 187.488 215.958, 186.250 215.973 C 184.271 215.997, 184.002 216.513, 184.015 220.250 C 184.024 222.588, 184.386 225.060, 184.821 225.745 C 186.663 228.645, 207.093 228.197, 224.123 224.884 L 229.747 223.790 226.706 217.895 C 225.034 214.653, 223.404 212.068, 223.083 212.151 C 222.762 212.234, 219.125 212.647, 215 213.070 M 115.976 225.845 C 115.963 228.405, 115.567 232.160, 115.095 234.188 C 114.353 237.384, 114.552 238.170, 116.589 240.083 C 119.408 242.732, 118.832 244.247, 115.340 243.370 C 113.270 242.851, 112.866 243.061, 113.151 244.510 C 113.620 246.895, 117.084 248.976, 117.712 247.250 C 118.342 245.519, 120.051 245.687, 121.463 247.618 C 122.414 248.919, 123.641 249.099, 127.725 248.538 L 132.804 247.839 133.849 241.670 C 136.271 227.366, 136.420 228.279, 131.296 226.013 C 128.781 224.900, 124.311 223.360, 121.362 222.590 L 116 221.190 115.976 225.845 M 223.500 233.603 C 222.400 233.832, 219.137 234.498, 216.250 235.082 C 213.363 235.666, 211 236.545, 211 237.037 C 211 238.305, 214.470 240, 217.066 240 C 218.275 240, 220.667 241.463, 222.382 243.250 C 224.696 245.662, 226.209 246.418, 228.250 246.184 C 231.567 245.802, 232.675 243.949, 233.145 238 L 233.500 233.500 229.500 233.343 C 227.300 233.257, 224.600 233.374, 223.500 233.603 M 209 243.378 C 209 243.585, 209.675 244.315, 210.500 245 C 211.729 246.020, 212 245.951, 212 244.622 C 212 243.730, 211.325 243, 210.500 243 C 209.675 243, 209 243.170, 209 243.378 M 216.667 243.667 C 215.116 245.217, 216.154 247, 218.607 247 C 220.573 247, 221.065 246.611, 220.607 245.418 C 220.273 244.548, 220 243.648, 220 243.418 C 220 242.744, 217.395 242.938, 216.667 243.667 M 242.355 252.518 C 241.982 253.488, 242.300 254.576, 243.104 255.086 C 245.360 256.514, 246.160 256.144, 245.820 253.828 C 245.419 251.107, 243.216 250.273, 242.355 252.518 M 251.636 254.095 C 250.013 256.398, 250.027 256.514, 251.982 256.821 C 253.105 256.998, 254.745 256.998, 255.628 256.821 C 257.035 256.540, 256.992 256.204, 255.282 254.095 L 253.331 251.690 251.636 254.095 M 142 256.500 C 142 257.325, 142.188 258, 142.418 258 C 142.648 258, 143.452 258.236, 144.204 258.525 C 145.060 258.853, 145.628 258.293, 145.723 257.025 C 145.828 255.636, 145.267 255, 143.938 255 C 142.872 255, 142 255.675, 142 256.500 M 150.667 256.667 C 149.243 258.091, 150.113 259.788, 152.500 260.245 C 155.319 260.784, 155.411 260.637, 153.965 257.934 C 152.893 255.931, 151.816 255.517, 150.667 256.667" stroke="none" fill="black" fill-rule="evenodd"/>
</svg>