<svg xmlns="http://www.w3.org/2000/svg" width="373" height="278" viewBox="0 0 373 278" version="1.1">
	<path d="M 169 8.849 C 163.450 11.655, 157.663 15.523, 151.480 20.560 C 144.201 26.489, 127.948 38.002, 117.137 44.889 C 107.548 50.997, 107.880 51.026, 98.075 43.197 C 90.566 37.200, 74.432 29.574, 62.500 26.380 C 53.870 24.071, 50.444 23.693, 37.500 23.623 C 17.046 23.513, 6.959 26.420, 7.022 32.405 C 7.053 35.276, 9.181 37.608, 18.500 44.981 C 37.062 59.668, 47.630 73.258, 58.174 96 C 59.321 98.475, 60.652 101.281, 61.130 102.236 C 62.967 105.904, 61.588 110.737, 55.765 121.034 C 49.781 131.615, 45.335 141.999, 43.474 149.745 C 41.118 159.544, 41.765 174.702, 44.790 180.607 C 48.561 187.966, 54.849 188.577, 61.680 182.246 C 63.561 180.503, 66.925 179.162, 72.457 177.951 C 80.998 176.081, 98.869 169.620, 107.255 165.371 C 110.993 163.476, 119.605 160.256, 121.588 160.011 C 121.744 159.991, 124.922 170.291, 127.488 179.133 C 132.314 195.765, 138.399 206.238, 149.273 216.631 C 155.220 222.315, 159.936 225.743, 166.258 228.977 C 171.071 231.439, 175.261 234.248, 175.570 235.219 C 177.607 241.639, 188.958 251, 194.704 251 C 196.304 251, 196.936 251.847, 197.472 254.703 C 199.354 264.735, 204.974 270.154, 214.187 270.820 C 221.151 271.324, 225.028 269.915, 227.309 266.053 C 229.542 262.274, 229.456 260.715, 226.500 251.401 C 223.584 242.212, 223.659 242.671, 225.231 243.643 C 225.908 244.061, 229.156 245.108, 232.448 245.969 C 238.823 247.636, 238.636 247.396, 240.470 256.253 C 240.783 257.767, 242.979 261.030, 245.348 263.503 C 249.494 267.830, 249.879 268, 255.513 268 C 262.840 268, 269.139 265.128, 272.014 260.478 L 274.103 257.097 271.441 251.299 C 267.777 243.318, 267.020 241.298, 265.404 235.201 C 263.684 228.710, 263.669 228.003, 265.250 227.990 C 267.404 227.973, 276.823 223.226, 280.460 220.324 C 285.715 216.132, 286.402 209.356, 281.822 206.905 C 280.698 206.303, 276.633 204.939, 272.787 203.874 C 264.164 201.484, 258.400 198.617, 257.014 196.026 C 256.249 194.597, 256.401 191.653, 257.568 185.279 C 259.035 177.260, 265.243 155.600, 267.106 152 C 268.620 149.073, 276 132.797, 276 132.384 C 276 132.154, 278.250 128.337, 281 123.903 C 283.750 119.469, 286 115.672, 286 115.465 C 286 115.258, 287.012 113.599, 288.250 111.779 C 305.911 85.798, 330.592 60.882, 356.014 43.370 C 365.394 36.908, 367.671 34.122, 366.048 31.090 C 363.238 25.839, 351.133 23.551, 326 23.522 C 309.129 23.503, 305.085 23.817, 296 25.849 C 280.048 29.417, 262.682 35.434, 249.493 41.962 L 237.606 47.846 234.726 45.423 C 230.978 42.269, 226.628 42.281, 223.455 45.455 C 222.105 46.805, 221 48.337, 221 48.859 C 221 49.383, 219.286 49.580, 217.179 49.297 C 213.811 48.845, 213.042 49.161, 210.679 51.969 C 207.614 55.612, 207.159 61.306, 209.159 70.989 C 210.183 75.946, 210.066 77.423, 208.157 83.709 C 201.740 104.836, 190.744 119.928, 176.392 127.307 C 173.353 128.869, 173.220 128.839, 170.495 125.995 C 167.768 123.148, 167.732 122.959, 168.853 117.376 C 170.565 108.855, 170.247 98.573, 167.935 87.668 C 165.451 75.952, 165.377 76.257, 175.447 56.500 C 185.725 36.334, 188.673 24.863, 186.060 15.204 C 184.062 7.817, 176.565 5.024, 169 8.849 M 168 20.137 C 164.425 22.403, 158.918 26.336, 155.761 28.878 C 152.605 31.420, 148.637 34.572, 146.944 35.882 C 143.826 38.294, 120.783 53.554, 103.788 64.461 C 86.389 75.627, 75.456 89.560, 71.980 105 C 69.970 113.929, 68.074 118.841, 64.122 125.356 C 58.848 134.051, 56.358 139.733, 53.497 149.608 C 50.775 158.999, 50.185 170.116, 52.175 174.485 L 53.350 177.064 56.925 173.658 C 61.711 169.099, 73.691 160.206, 80.040 156.500 C 84.634 153.818, 95.520 146.126, 98.436 143.500 C 99.047 142.950, 100.556 141.193, 101.789 139.596 C 103.875 136.892, 103.917 136.566, 102.394 134.883 C 101.494 133.888, 101.023 132.383, 101.347 131.537 C 102.170 129.393, 105.651 129.621, 109.632 132.082 C 113.441 134.436, 114.246 138, 110.969 138 C 109.851 138, 108.651 138.787, 108.300 139.750 C 105.727 146.820, 99.948 151.940, 82.809 162.335 C 78.425 164.995, 75.043 167.376, 75.294 167.627 C 75.851 168.184, 93.889 161.406, 103.500 157.029 C 107.350 155.275, 114.550 152.264, 119.500 150.338 C 124.450 148.412, 130.469 145.748, 132.876 144.418 C 143.880 138.338, 143.272 144.730, 132.155 152.004 C 129.921 153.465, 129.898 153.634, 131.341 158.004 C 132.158 160.477, 133.595 165.875, 134.535 170 C 137.583 183.368, 139.523 188.420, 144.904 197 C 152.260 208.728, 164.388 218.419, 179.050 224.282 C 186.592 227.299, 203.838 231, 210.351 231 L 214.888 231 212.920 226.552 C 211.838 224.105, 210.850 220.393, 210.726 218.302 C 210.539 215.160, 210.828 214.500, 212.391 214.500 C 213.431 214.500, 214.619 215.175, 215.031 216 C 215.443 216.825, 216.617 219.236, 217.640 221.359 C 220.115 226.493, 226.477 233.672, 230.365 235.716 C 232.089 236.623, 236.650 237.620, 240.500 237.932 L 247.500 238.500 247.744 244.837 C 247.995 251.339, 250.134 257.454, 252.472 258.351 C 253.471 258.734, 253.667 257.936, 253.281 255.058 C 252.639 250.276, 254.420 248.977, 256.391 252.790 C 258.405 256.683, 260.812 258.588, 262.095 257.305 C 262.776 256.624, 262.462 255.185, 261.133 252.897 C 260.047 251.029, 258.153 245.787, 256.923 241.250 C 255.406 235.656, 254.211 233, 253.211 233 C 249.966 233, 245.326 229.015, 244.213 225.272 C 242.381 219.112, 242.076 212.182, 243.581 210.933 C 245.544 209.304, 246.657 210.450, 248.500 216 C 249.409 218.737, 250.471 221.173, 250.861 221.414 C 252.351 222.335, 274.001 215.554, 273.999 214.167 C 273.999 213.800, 272.986 213.433, 271.749 213.352 C 267.358 213.062, 257.894 208.786, 252.542 204.673 C 249.555 202.378, 243.292 195.550, 238.624 189.500 C 225.860 172.958, 217.400 166.311, 200.500 159.543 C 190.880 155.691, 189 154.131, 189 149.997 C 189 147.035, 190.695 144.969, 197.651 139.448 C 211.191 128.701, 217.165 119.309, 221.621 101.759 C 225.102 88.051, 230.146 77.944, 237.017 70.911 C 254.186 53.336, 292.983 36.846, 326.352 32.941 C 332.508 32.221, 331.939 32.163, 322.247 32.529 C 309.808 32.998, 288.172 36.348, 284.107 38.434 C 282.673 39.171, 278.762 40.471, 275.415 41.323 C 267.697 43.290, 250.257 51.592, 241.483 57.475 C 232.751 63.331, 231.359 63.313, 229.851 57.324 C 228.861 53.389, 228.550 52.983, 227.894 54.758 C 227.464 55.919, 226.891 58.810, 226.619 61.184 C 226.347 63.558, 226.096 65.612, 226.062 65.750 C 226.028 65.888, 225.133 66, 224.072 66 C 223.012 66, 220.945 64.537, 219.477 62.750 L 216.810 59.500 217.655 63 C 218.120 64.925, 218.476 71, 218.447 76.500 C 218.401 85.145, 218.040 87.245, 215.782 92 C 214.345 95.025, 211.855 100.425, 210.248 104 C 206.253 112.889, 196.479 124.858, 188.815 130.246 C 178.092 137.784, 171.739 140.994, 169.750 139.880 C 168.787 139.341, 168 138.290, 168 137.543 C 168 136.797, 165.710 134.269, 162.911 131.925 C 157.234 127.172, 157.409 128.281, 160.010 113.500 C 161.414 105.521, 160.878 96.411, 158.453 87.053 C 155.827 76.912, 156.665 73.194, 165.728 54.800 C 170.145 45.835, 174.466 36.412, 175.331 33.859 C 177.719 26.806, 178.488 19.293, 177.006 17.507 C 175.319 15.475, 175.392 15.454, 168 20.137 M 42.354 33.555 C 59.297 37.382, 81.688 49.167, 90.353 58.820 L 92.205 60.884 95.589 58.692 C 97.450 57.486, 98.831 56.054, 98.657 55.510 C 98.256 54.257, 84.899 46.112, 74.758 40.937 C 66.162 36.550, 54.378 33.449, 43 32.580 L 35.500 32.008 42.354 33.555 M 26 38.142 C 41.292 50.838, 52.142 64.135, 60.158 80 C 61.965 83.575, 64.218 87.542, 65.167 88.816 L 66.892 91.132 69.079 86.816 C 71.972 81.105, 80.124 70.898, 84.775 67.162 L 88.500 64.170 86 61.470 C 82.287 57.460, 69.709 49.208, 62.143 45.819 C 58.489 44.182, 54.375 42.257, 53 41.541 C 49.248 39.587, 32.862 35.995, 27.876 36.033 L 23.500 36.067 26 38.142 M 332 37.080 C 297.713 40.339, 260.854 55.662, 241.162 74.843 C 236.463 79.420, 232.527 85.494, 230.695 91 C 228.756 96.827, 226.786 103.785, 225.954 107.744 C 224.465 114.835, 217.350 128.468, 212.266 133.973 C 209.645 136.811, 204.444 141.410, 200.708 144.192 C 196.973 146.975, 194.077 149.732, 194.273 150.319 C 194.469 150.907, 197.975 152.555, 202.065 153.982 C 216.987 159.190, 229.153 168.093, 241.098 182.545 L 247.500 190.292 248.151 184.896 C 250.986 161.396, 269.440 120.508, 288.389 95.740 C 306.267 72.372, 328.106 50.718, 345.047 39.561 L 350.454 36 345.477 36.136 C 342.740 36.211, 336.675 36.636, 332 37.080 M 110.695 95.863 C 106.076 98.908, 104.565 101.921, 104.531 108.155 C 104.493 115.109, 106.876 118.862, 112.622 120.894 C 116.198 122.159, 116.982 122.102, 121.103 120.279 C 126.991 117.674, 129.511 112.894, 128.511 106.226 C 127.684 100.711, 125.644 97.384, 121.901 95.449 C 118.109 93.488, 114.071 93.637, 110.695 95.863 M 116.040 100.954 C 114.790 101.745, 114.848 102.175, 116.445 103.939 C 118.407 106.108, 121.471 106.665, 122.477 105.036 C 123.078 104.065, 119.644 99.987, 118.250 100.015 C 117.838 100.024, 116.843 100.446, 116.040 100.954 M 61.557 149.223 C 59.594 152.024, 59.521 156, 61.432 156 C 62.219 156, 63.836 154.634, 65.025 152.965 C 66.762 150.525, 66.948 149.642, 65.971 148.465 C 64.308 146.461, 63.379 146.621, 61.557 149.223 M 189.419 238.910 C 190.491 240.095, 193.674 241.260, 197.805 241.980 C 205.998 243.406, 207.008 244.175, 206.314 248.454 C 205.655 252.514, 207.388 258.136, 210.038 260.534 C 212.078 262.381, 212.641 261.562, 211.054 259.054 C 210.067 257.494, 211.404 254, 212.988 254 C 213.493 254, 214.654 255.575, 215.567 257.500 C 216.480 259.425, 217.889 261, 218.697 261 C 219.505 261, 219.936 260.438, 219.655 259.750 C 219.076 258.336, 215.179 245.796, 214.146 242.023 C 213.508 239.694, 212.837 239.473, 202.984 238.339 C 197.218 237.675, 191.418 237.103, 190.095 237.066 C 187.790 237.003, 187.762 237.080, 189.419 238.910" stroke="none" fill="black" fill-rule="evenodd"/>
</svg>