<svg xmlns="http://www.w3.org/2000/svg" width="295" height="296" viewBox="0 0 295 296" version="1.1">
	<path d="M 134.336 8.057 C 126.413 9.089, 108.082 15.213, 101 19.194 C 83.056 29.279, 69.051 44.251, 59.477 63.582 L 53.988 74.664 43.281 77.927 C 29.319 82.181, 19.897 87.008, 13.956 92.948 C 5.880 101.025, 5.195 108.089, 11.651 116.724 C 16.017 122.562, 31.032 130.203, 47.689 135.061 L 54.878 137.158 59.352 146.329 C 61.813 151.373, 66.239 158.854, 69.187 162.954 L 74.548 170.408 63.963 180.954 C 41.960 202.876, 32.669 223.557, 40 234.296 C 44.460 240.830, 51.727 241.625, 58.085 236.275 C 60.645 234.121, 62.094 233.676, 65.890 233.877 C 72.753 234.241, 76.132 230.515, 77.564 221 C 78.052 217.754, 79.299 215.347, 82.036 212.364 C 84.123 210.090, 86.557 206.823, 87.446 205.104 C 89.387 201.351, 92.969 190.174, 92.987 187.815 C 92.998 186.454, 94.293 186.885, 99.713 190.052 C 103.405 192.210, 106.769 194.093, 107.189 194.238 C 107.608 194.382, 107.031 197.425, 105.906 201 C 101.448 215.172, 95.672 238.128, 93.641 249.751 C 91.510 261.945, 91.485 262.007, 88.316 263.057 C 84.523 264.313, 78.322 270.870, 77.381 274.618 C 75.753 281.105, 83.452 286.262, 97.500 288.095 C 107.825 289.443, 116.105 288.278, 120.439 284.869 C 122.654 283.127, 123 282.082, 123 277.127 C 123 273.977, 122.594 270.972, 122.098 270.450 C 121.073 269.369, 122.690 257.121, 124.083 255.416 C 124.716 254.642, 126.760 254.719, 131.234 255.684 C 138.837 257.324, 154.839 257.550, 161 256.105 C 163.475 255.524, 166.876 255.038, 168.557 255.024 C 171.497 255.001, 171.682 255.259, 173.363 261.750 C 174.992 268.040, 175 268.767, 173.475 272.412 C 171.557 276.994, 172.152 281.922, 174.925 284.432 C 179.774 288.821, 193.281 290.201, 204.800 287.485 C 216.250 284.786, 219.344 281.704, 218.230 274.112 C 217.620 269.959, 211.447 263.477, 207.216 262.547 C 203.954 261.831, 203 259.387, 203 251.741 C 203 249.536, 202.558 246.105, 202.017 244.116 C 201.477 242.127, 199.849 235.550, 198.399 229.500 C 196.950 223.450, 195.201 216.700, 194.513 214.500 C 193.825 212.300, 192.498 207.800, 191.563 204.500 C 190.629 201.200, 189.465 197.511, 188.977 196.301 C 188.176 194.317, 188.786 193.717, 195.252 190.131 L 202.413 186.159 204.498 193.329 C 206.808 201.276, 210.721 208.630, 215.552 214.105 C 217.964 216.838, 218.900 219.044, 219.422 223.221 C 220.433 231.316, 226.142 235.925, 232.901 234.104 C 234.711 233.616, 235.967 234.121, 238.001 236.155 C 243.348 241.502, 251.743 240.922, 255.834 234.923 C 257.881 231.921, 258.121 230.578, 257.786 224 C 257.469 217.774, 256.764 215.226, 253.640 209 C 247.752 197.268, 235.299 182.259, 223 172.071 L 220.500 170 222.538 168.250 C 226.634 164.732, 232.901 155.275, 237.146 146.207 L 241.497 136.914 252.686 133.421 C 268.380 128.522, 276.825 124.066, 282.792 117.537 C 297.310 101.652, 284.342 86.246, 248.180 76.415 L 241.859 74.697 237.489 65.598 C 235.085 60.594, 231.540 54.076, 229.611 51.114 C 209.261 19.865, 172.211 3.122, 134.336 8.057 M 132.500 17.370 C 117.603 20.624, 105.335 25.489, 108.109 27.041 C 115.004 30.900, 141.647 34.586, 155.500 33.598 C 165.698 32.871, 184.325 29.398, 187.838 27.569 C 190.087 26.398, 189.948 26.250, 184.166 23.655 C 169.842 17.227, 146.278 14.360, 132.500 17.370 M 95.500 33.455 C 92.750 35.299, 88.475 38.713, 86 41.042 L 81.500 45.276 85.590 47.029 C 90.549 49.155, 104.747 52.283, 119.136 54.420 C 134.243 56.664, 160.943 56.509, 178.202 54.078 C 190.556 52.337, 209.410 47.971, 212.863 46.051 C 214.481 45.152, 210.520 40.901, 201.900 34.286 L 196.409 30.073 191.455 31.600 C 166.228 39.376, 138.841 40.457, 116.735 34.549 C 111.364 33.113, 105.822 31.503, 104.419 30.969 C 101.020 29.677, 101.212 29.624, 95.500 33.455 M 75.805 53.250 C 72.535 57.619, 68.230 65.457, 65.931 71.227 C 64.074 75.887, 64.075 75.970, 66 77 C 69.234 78.731, 85.790 82.894, 97.500 84.920 C 118.102 88.486, 124.494 89.150, 143.500 89.698 C 162.834 90.255, 176.906 89.163, 199.500 85.350 C 208.393 83.849, 229.121 78.592, 231.587 77.211 C 233.052 76.392, 226.778 62.869, 221.138 54.690 C 217.418 49.295, 217.275 49.280, 206 53.075 C 202.975 54.094, 197.575 55.422, 194 56.027 C 172.803 59.613, 168.450 59.986, 147.768 59.993 C 129.319 59.999, 123.730 59.623, 110.768 57.504 C 96.664 55.198, 87.963 53.190, 82.203 50.909 C 78.818 49.569, 78.462 49.699, 75.805 53.250 M 61.308 85.229 C 59.709 91.211, 58.386 103.946, 58.993 107.513 C 59.477 110.358, 59.928 110.605, 68.500 112.716 C 73.450 113.935, 85.825 115.939, 96 117.170 C 111.898 119.093, 119.351 119.404, 149 119.382 C 178.227 119.360, 186.221 119.023, 201.299 117.177 C 211.089 115.978, 221.889 114.348, 225.299 113.555 C 228.710 112.762, 232.794 111.839, 234.376 111.505 L 237.253 110.898 236.717 100.199 C 236.422 94.315, 235.688 87.882, 235.086 85.905 L 233.992 82.310 227.241 83.587 C 223.528 84.289, 219.156 85.370, 217.525 85.990 C 213.537 87.507, 202.371 89.624, 185.736 92.019 C 175.202 93.535, 166.602 94, 149.086 94 C 126.698 94, 116.710 93.108, 92 88.900 C 86.505 87.965, 68.004 83.090, 63.746 81.456 C 62.896 81.130, 62.056 82.430, 61.308 85.229 M 40.703 87.441 C 19.388 94.963, 11.879 103.561, 19.365 111.870 C 28.441 121.943, 55.956 130.167, 95.770 134.707 C 118.211 137.265, 178.971 137.250, 200.500 134.681 C 237.773 130.233, 265.713 122.138, 275.134 113.058 C 278.361 109.947, 280 107.541, 280 105.912 C 280 99.671, 267.518 91.202, 252.250 87.083 C 245.325 85.215, 245 85.208, 245 86.928 C 245 88.121, 246.433 89.283, 249.250 90.373 C 251.588 91.277, 255.243 93.494, 257.373 95.300 C 260.654 98.082, 261.262 99.213, 261.354 102.708 C 261.478 107.453, 259.648 109.971, 253.501 113.512 C 247.646 116.885, 241.431 118.737, 225.094 121.974 C 187.025 129.518, 121.429 130.383, 81.005 123.874 C 57.493 120.087, 42.042 115.133, 36.518 109.609 C 33.738 106.829, 33.105 101.469, 35.250 98.864 C 37.227 96.464, 44.149 91.605, 48.250 89.739 C 52.417 87.843, 53.325 84.988, 49.750 85.021 C 48.513 85.033, 44.441 86.122, 40.703 87.441 M 46.752 100.953 C 43.302 102.895, 43.266 104.345, 46.629 105.877 C 49.889 107.362, 50.212 107.051, 49.816 102.803 C 49.500 99.406, 49.500 99.406, 46.752 100.953 M 246 103.500 C 246 107.339, 247.273 107.877, 250.500 105.403 C 252.485 103.882, 252.482 103.856, 250.139 101.935 C 246.804 99.201, 246 99.505, 246 103.500 M 66 139.507 C 66 141.465, 68.504 144.184, 71.435 145.408 C 75.353 147.045, 96.307 151.250, 110 153.147 C 116.127 153.996, 130.150 154.461, 149.500 154.458 C 182.392 154.453, 192.693 153.436, 215.343 147.956 C 227.346 145.051, 230 143.860, 230 141.378 C 230 139.660, 229.070 139.664, 214.958 141.451 C 172.025 146.886, 119.507 146.858, 79.011 141.377 C 72.692 140.522, 67.179 139.611, 66.761 139.352 C 66.342 139.094, 66 139.163, 66 139.507 M 73 151.805 C 73 153.096, 83.794 165.819, 86.260 167.434 C 90.185 170.006, 107.052 173.983, 120.500 175.507 C 145.520 178.343, 176.920 176.906, 197.947 171.962 C 206.692 169.906, 207.796 169.361, 212.815 164.620 C 215.797 161.804, 219.550 157.596, 221.154 155.268 L 224.072 151.036 220.786 151.632 C 218.979 151.960, 214.152 153.077, 210.060 154.115 C 198.679 157, 167.122 160, 148.193 159.997 C 123.689 159.992, 94.187 156.884, 81.806 153.003 C 74.906 150.840, 73 150.580, 73 151.805 M 96 176.241 C 96 177.173, 107.949 184.071, 112.100 185.535 C 114.425 186.356, 116.821 187.436, 117.424 187.937 C 118.027 188.437, 122.088 189.781, 126.449 190.923 C 137.181 193.735, 157.177 193.808, 168 191.076 C 177.941 188.567, 199.148 178.814, 197.735 177.402 C 197.531 177.198, 194.245 177.647, 190.432 178.400 C 163.654 183.685, 119.122 182.741, 98.250 176.445 C 97.013 176.072, 96 175.980, 96 176.241 M 212.928 179.135 C 210.810 183.092, 212.400 192.235, 216.474 199.519 L 220.141 206.076 223.820 203.831 C 225.844 202.596, 229.253 200.331, 231.396 198.796 L 235.292 196.006 227.896 188.741 C 223.828 184.745, 219.061 180.454, 217.302 179.206 L 214.104 176.938 212.928 179.135 M 77.270 180.370 C 72.519 183.751, 61.890 195.014, 62.508 196.013 C 62.800 196.486, 65.938 198.899, 69.482 201.376 L 75.924 205.880 78.371 202.971 C 81.949 198.718, 84.156 191.151, 83.802 184.344 C 83.451 177.575, 82.236 176.835, 77.270 180.370 M 114.758 200.834 C 113.904 202.850, 112.917 206.169, 112.565 208.210 L 111.924 211.919 118.712 213.981 C 127.076 216.521, 135.896 217.977, 136.546 216.925 C 137.549 215.303, 148.156 214.816, 156.257 216.021 C 163.494 217.098, 165.712 217.037, 172.997 215.561 C 185.586 213.010, 185.192 213.481, 182.269 204.467 C 180.266 198.292, 179.492 196.984, 178.151 197.511 C 173.462 199.356, 155.399 202, 147.502 201.997 C 138.876 201.994, 123.451 199.883, 118.612 198.042 C 116.585 197.272, 116.126 197.604, 114.758 200.834 M 55.700 204.231 C 48.813 213.495, 44.786 224.863, 46.955 228.917 C 48.384 231.586, 49.593 231.546, 52.043 228.750 C 57.984 221.973, 59.045 221, 60.502 221 C 61.379 221, 63.161 222.150, 64.463 223.555 C 67.140 226.443, 67.152 226.427, 68.910 218 C 69.427 215.525, 70.150 212.528, 70.518 211.340 C 71.168 209.240, 69.472 207.777, 59.315 201.674 C 58.606 201.248, 57.156 202.273, 55.700 204.231 M 230.351 205.568 L 224.201 210.041 226.101 213.972 C 227.145 216.134, 228 218.796, 228 219.887 C 228 220.977, 228.480 223.133, 229.067 224.678 L 230.135 227.485 231.817 224.702 C 232.743 223.171, 234.588 221.644, 235.919 221.309 C 238.505 220.656, 239.961 221.972, 243.203 227.890 C 246.039 233.066, 250 231.664, 250 225.484 C 250 221.182, 241.645 203.798, 238.601 201.765 C 237.012 200.705, 237.075 200.676, 230.351 205.568 M 110 218.867 C 110 222.160, 114.231 223.802, 130.250 226.725 C 132.672 227.167, 133 226.918, 133 224.633 C 133 222.747, 132.385 221.910, 130.750 221.570 C 129.512 221.312, 125.125 220.444, 121 219.642 C 116.875 218.839, 112.713 217.868, 111.750 217.484 C 110.420 216.954, 110 217.286, 110 218.867 M 183.691 218.136 C 182.696 218.702, 177.809 219.777, 172.832 220.525 C 167.854 221.273, 163.565 222.102, 163.299 222.367 C 163.034 222.632, 163.118 223.797, 163.486 224.955 C 164.062 226.771, 164.662 226.970, 167.827 226.399 C 173.257 225.419, 186.263 222.071, 186.826 221.507 C 187.095 221.239, 186.906 220.139, 186.407 219.063 C 185.690 217.517, 185.121 217.323, 183.691 218.136 M 142.323 220.655 C 138.738 221.420, 137.812 223.530, 137.909 230.712 C 138.062 242.049, 141.775 249, 147.677 249 C 151.663 249, 154.062 247.113, 156.188 242.308 C 158.686 236.660, 159.148 224.697, 156.950 222.566 C 155.426 221.089, 146.038 219.862, 142.323 220.655 M 182 228.201 C 178.425 229.183, 172.939 230.465, 169.809 231.052 L 164.117 232.117 163.036 237.325 C 162.442 240.189, 161.316 243.765, 160.534 245.271 C 159.135 247.968, 159.155 248, 161.807 247.409 C 171.457 245.259, 177.399 243.301, 183.842 240.147 L 191.184 236.553 190.556 232.623 C 189.552 226.345, 189.277 226.204, 182 228.201 M 107.720 227.663 C 107.442 228.123, 106.761 230.157, 106.206 232.183 C 105.234 235.736, 105.327 235.954, 108.849 238.368 C 113.055 241.251, 123.663 245.379, 129.500 246.404 C 131.700 246.791, 134.316 247.347, 135.313 247.641 C 136.826 248.086, 136.954 247.870, 136.088 246.337 C 134.136 242.881, 132 236.757, 132 234.617 C 132 232.728, 130.860 232.220, 122.250 230.279 C 116.888 229.071, 111.538 227.799, 110.363 227.454 C 109.187 227.108, 107.998 227.202, 107.720 227.663 M 102.103 250.332 C 101.496 253.814, 101 257.829, 101 259.252 C 101 261.957, 101.105 262.006, 110.111 263.551 L 113.722 264.170 114.410 258.091 C 114.789 254.747, 115.134 251.671, 115.179 251.256 C 115.256 250.532, 105.192 244.119, 103.853 244.039 C 103.497 244.018, 102.709 246.849, 102.103 250.332 M 185.750 247.084 C 182.588 248.669, 180 250.443, 180 251.027 C 180 251.611, 180.736 255.019, 181.635 258.600 C 182.966 263.896, 183.572 264.982, 184.885 264.422 C 185.773 264.043, 188.471 263.255, 190.880 262.669 L 195.260 261.604 194.655 254.449 C 194.033 247.084, 193.265 243.924, 192.143 244.101 C 191.789 244.157, 188.912 245.499, 185.750 247.084 M 188.186 271.146 C 182.355 273.386, 179.309 277.318, 182.057 279.056 C 184.246 280.442, 199.903 280.148, 205 278.626 C 210.992 276.837, 211.202 274.789, 205.721 271.576 C 200.384 268.449, 195.517 268.329, 188.186 271.146 M 90.359 271.866 C 86.419 274.339, 85.690 275.500, 87.261 276.793 C 89.378 278.535, 100.170 280.147, 107.500 279.816 C 114.216 279.513, 114.500 279.398, 114.500 277 C 114.500 271.376, 97.050 267.665, 90.359 271.866" stroke="none" fill="black" fill-rule="evenodd"/>
</svg>