<svg xmlns="http://www.w3.org/2000/svg" width="328" height="298" viewBox="0 0 328 298" version="1.1">
	<path d="M 301.267 10.487 C 281.931 17.010, 255.324 29.168, 239.374 38.768 L 231.248 43.659 234.624 38.960 C 236.481 36.376, 238 33.947, 238 33.563 C 238 33.179, 240.025 30.379, 242.500 27.341 C 247.218 21.549, 248.081 18.142, 245.396 15.913 C 244.025 14.776, 242.676 15.153, 236.146 18.499 C 227.171 23.097, 199.539 41.420, 189.500 49.430 C 158.710 73.996, 161.336 72.215, 164.949 66.086 C 169.904 57.683, 173.684 49.552, 173.247 48.240 C 172.669 46.507, 168.501 46.695, 164.700 48.626 C 160.126 50.949, 150.707 57.663, 133.500 70.865 C 74.628 116.034, 31.700 161.617, 14.712 197 C 4.750 217.747, 4.392 238.942, 13.686 257.740 C 17.195 264.835, 29.024 277.419, 36.324 281.821 C 46.378 287.883, 55.141 290.332, 67 290.394 C 95.623 290.543, 120.424 275.508, 159.682 234.206 C 167.282 226.210, 173.950 219.174, 174.500 218.569 C 179.729 212.824, 191.152 199.892, 193.077 197.537 C 194.410 195.908, 196.625 193.397, 198 191.957 C 199.375 190.518, 202.030 187.576, 203.901 185.420 C 209.439 179.036, 222.626 164.529, 236.250 149.830 C 251.052 133.862, 252.071 131, 242.953 131 C 239.929 131, 231.806 133.329, 228.653 135.101 C 224.690 137.327, 226.537 135.039, 237.310 124.376 C 252.328 109.510, 261.398 101.275, 278.029 87.405 C 292.340 75.471, 294.004 73.143, 289.826 70.907 C 285.690 68.694, 265.342 72.535, 256.698 77.161 C 254.895 78.127, 255 77.780, 257.382 74.901 C 262.277 68.983, 285.123 45.975, 298.986 33 C 317.651 15.532, 321 12.032, 321 9.995 C 321 5.884, 314.425 6.047, 301.267 10.487 M 288.500 23.711 C 275.921 28.918, 245.988 44.119, 234 51.387 C 221.340 59.062, 218.197 60.147, 216.063 57.576 C 214.661 55.887, 217.345 49.271, 222.381 42 C 225.883 36.943, 228.101 33, 227.443 33 C 227.202 33, 224.672 34.688, 221.822 36.750 C 218.971 38.813, 215.188 41.400, 213.414 42.500 C 199.750 50.975, 179.100 67.303, 158.105 86.234 C 151.499 92.191, 148.776 93.209, 147.163 90.327 C 146.112 88.449, 147.856 82.753, 152.852 71.750 C 154.537 68.037, 155.588 65, 155.186 65 C 154.784 65, 152.696 66.463, 150.546 68.250 C 148.396 70.037, 144.747 72.850, 142.437 74.500 C 110.931 97.008, 65.037 139.923, 46.190 164.500 C 43.659 167.800, 39.478 173.275, 36.897 176.667 C 30.713 184.797, 21.794 200.914, 19.102 208.827 C 15.183 220.346, 14.426 228.667, 16.387 238.650 C 19.307 253.509, 27.479 265.516, 40.404 273.937 C 49.264 279.710, 57.067 282, 67.879 282 C 98.404 282, 124.974 262.198, 183.940 195.500 C 211.830 163.954, 226.039 148.089, 229 145.190 C 231.128 143.106, 231.203 142.851, 229.500 143.475 C 228.400 143.878, 226.375 144.564, 225 145 C 223.625 145.435, 220.475 146.728, 218 147.874 C 209.995 151.578, 205.281 150.069, 207.773 144.599 C 210.069 139.559, 250.563 99.490, 266.500 86.488 C 274.147 80.249, 274.601 79.798, 272.500 80.523 C 271.400 80.903, 266.675 82.519, 262 84.115 C 257.325 85.711, 251.025 88.315, 248 89.901 C 240.736 93.710, 236.695 94.542, 235.055 92.566 C 234.021 91.320, 234.128 90.511, 235.645 88.114 C 241.376 79.064, 273.147 45.069, 291.572 28.273 C 298.315 22.126, 299.126 21.059, 297 21.136 C 295.625 21.186, 291.800 22.344, 288.500 23.711 M 196.500 93.202 C 192.936 94.486, 173.608 105.194, 162.916 111.809 C 153.084 117.891, 133.531 131.711, 124 139.314 C 119.875 142.604, 115.878 145.784, 115.119 146.380 C 114.359 146.975, 115.090 144.771, 116.743 141.481 C 118.396 138.192, 120.759 133.250, 121.993 130.500 C 123.227 127.750, 125.085 123.724, 126.122 121.554 C 128.415 116.756, 127.372 115.055, 123.277 116.917 C 112.066 122.014, 80.233 146.694, 63.891 162.957 C 40.210 186.524, 26.548 207.840, 24.440 224.504 C 22.559 239.383, 31.467 257.316, 45.078 266.050 C 55.229 272.564, 70.538 274.830, 82.632 271.610 C 99.333 267.163, 121.958 248.295, 142.123 222 C 152.769 208.117, 169.458 182.923, 175.509 171.600 C 176.714 169.345, 178.981 165.136, 180.548 162.248 C 184.133 155.634, 183.149 153.923, 177.141 156.327 C 172.755 158.082, 153.258 168.440, 148.500 171.543 L 145.500 173.500 148.615 169.500 C 150.328 167.300, 153.794 162.350, 156.317 158.500 C 158.840 154.650, 162.709 149.025, 164.913 146 C 167.118 142.975, 170.964 137.575, 173.461 134 C 175.958 130.425, 180.464 124.350, 183.475 120.500 C 186.486 116.650, 192.223 109.312, 196.225 104.193 C 200.226 99.074, 203.500 94.349, 203.500 93.693 C 203.500 92.101, 200.198 91.869, 196.500 93.202 M 178.444 108.289 C 172.420 111.748, 166.143 115.512, 164.495 116.655 C 162.848 117.798, 157.582 121.380, 152.793 124.616 C 141.809 132.039, 140.607 132.906, 128.681 142.007 C 113.726 153.420, 109.790 156.098, 108.595 155.678 C 106.295 154.868, 107.891 148.096, 112.856 137.589 C 115.692 131.589, 117.881 126.547, 117.719 126.386 C 117.558 126.225, 112.718 129.460, 106.963 133.575 C 101.209 137.690, 94.475 142.478, 92 144.214 C 84.364 149.570, 68.182 164.989, 58.801 175.847 C 53.884 181.538, 50.022 186.355, 50.219 186.553 C 50.417 186.750, 52.586 186.157, 55.039 185.235 C 58.204 184.045, 62.710 183.549, 70.552 183.529 C 81.367 183.501, 81.769 183.582, 89.323 187.315 C 111.089 198.072, 121.133 223.087, 111.987 243.762 C 110.881 246.263, 110.133 248.466, 110.325 248.659 C 110.518 248.851, 115.379 244.169, 121.128 238.254 C 136.368 222.574, 150.826 202.673, 169.259 172 C 171.738 167.875, 173.619 164.337, 173.439 164.139 C 173.258 163.940, 169.148 165.911, 164.305 168.520 C 142.903 180.046, 140.075 181.307, 138.518 180.015 C 137.234 178.949, 137.395 178.178, 139.747 174.144 C 145.341 164.550, 162.840 139.773, 180.557 116.362 C 191.185 102.319, 191.401 102, 190.258 102 C 189.785 102, 184.469 104.830, 178.444 108.289 M 60.184 192.499 C 49.482 195.506, 40.067 203.321, 35.748 212.780 C 34.014 216.578, 33.583 219.454, 33.546 227.500 C 33.506 236.245, 33.826 238.190, 36.097 243 C 42.448 256.449, 53.387 264.008, 67.633 264.791 C 84.019 265.692, 95.933 258.808, 103.164 244.259 C 112.832 224.806, 103.220 200.599, 83 193.478 C 76.418 191.160, 66.466 190.733, 60.184 192.499 M 76 199.765 C 76 200.083, 76.719 201.137, 77.598 202.108 C 79.456 204.161, 78.700 206, 76 206 C 73.458 206, 72.681 204.464, 73.989 202.021 C 74.823 200.462, 74.765 200, 73.735 200 C 70.224 200, 68.852 204.709, 71.571 207.429 C 75.502 211.359, 83.428 207.430, 81.243 202.635 C 80.304 200.573, 76 198.217, 76 199.765 M 49.517 205.626 C 48.618 206.525, 48.027 208.424, 48.196 209.876 C 48.445 212.027, 49.085 212.556, 51.743 212.813 C 54.406 213.070, 55.194 212.668, 56.151 210.567 C 57.125 208.429, 57.019 207.678, 55.504 206.004 C 53.306 203.575, 51.671 203.472, 49.517 205.626 M 51 208.500 C 51 209.325, 51.450 210, 52 210 C 52.550 210, 53 209.325, 53 208.500 C 53 207.675, 52.550 207, 52 207 C 51.450 207, 51 207.675, 51 208.500 M 89.585 216.906 C 87.028 219.732, 87.860 224.827, 91.296 227.381 C 93.875 229.298, 94.302 229.342, 96.796 227.948 C 100.490 225.885, 101.028 220.723, 97.897 217.391 C 95.190 214.509, 91.926 214.319, 89.585 216.906 M 91.357 220.513 C 90.604 222.475, 92.723 225, 95.122 225 C 97.033 225, 97.485 223.428, 96.393 220.582 C 95.620 218.568, 92.121 218.520, 91.357 220.513 M 53 223.624 C 53 223.967, 54.973 225.985, 57.385 228.108 C 59.797 230.230, 62.493 233.775, 63.377 235.984 C 65.148 240.411, 67 241.286, 67 237.696 C 67 234.844, 62.019 226.827, 58.882 224.630 C 56.587 223.023, 53 222.409, 53 223.624 M 43.229 224.669 C 39.805 226.047, 37.840 234.964, 40.050 239.094 C 41.694 242.165, 43.070 240.290, 42.373 235.930 C 41.797 232.327, 42.055 231.684, 45.319 228.606 C 47.287 226.750, 48.621 224.954, 48.282 224.615 C 47.570 223.903, 45.067 223.930, 43.229 224.669 M 79.474 243.269 C 74.327 247.696, 76.758 256, 83.200 256 C 86.770 256, 91 252.017, 91 248.656 C 91 245.527, 88.218 242.255, 84.891 241.470 C 82.975 241.017, 81.535 241.496, 79.474 243.269 M 42 243.923 C 42 246.388, 46.414 251.645, 50.069 253.536 C 54.597 255.877, 61.395 255.428, 64.694 252.570 C 66.839 250.712, 67.225 249.860, 66.334 248.954 C 65.437 248.041, 64.638 248.140, 62.862 249.384 C 58.040 252.762, 50.052 250.690, 46.011 245.015 C 43.550 241.560, 42 241.138, 42 243.923 M 81.040 246.452 C 79.337 248.504, 80.154 251.453, 82.510 251.756 C 85.737 252.170, 87.352 250.539, 86.616 247.607 C 85.885 244.694, 82.996 244.095, 81.040 246.452" stroke="none" fill="black" fill-rule="evenodd"/>
</svg>