<svg xmlns="http://www.w3.org/2000/svg" width="297" height="311" viewBox="0 0 297 311" version="1.1">
	<path d="M 263.075 8.087 C 256.364 9.404, 249.341 11.894, 240.500 16.091 C 224.299 23.782, 212.366 31.967, 198.404 44.964 C 193.285 49.730, 186.300 54.814, 179.404 58.794 C 173.407 62.255, 159.779 70.693, 149.121 77.543 C 138.463 84.394, 127.438 90.749, 124.621 91.666 C 120.388 93.044, 114.212 93.381, 89 93.611 C 50.309 93.963, 44.335 94.989, 31.674 103.453 C 26.547 106.881, 15.632 116.947, 11.198 122.337 C 7.111 127.304, 6.610 129.343, 8.547 133.111 C 10.516 136.941, 17.267 147.087, 19.215 149.144 C 21.278 151.322, 26 157.811, 26 158.470 C 26 159.111, 33.920 169.851, 39.281 176.480 C 46.089 184.897, 47.032 186.785, 45.907 189.745 C 44.654 193.040, 45.493 198.335, 47.538 200.032 C 48.790 201.071, 48.242 201.626, 44.046 203.570 C 38.296 206.234, 36.705 209.554, 39.399 213.265 C 40.291 214.494, 42.088 217.075, 43.391 219 C 44.694 220.925, 46.980 223.625, 48.471 225 C 49.962 226.375, 52.761 229.647, 54.691 232.271 L 58.201 237.041 56.100 241.510 C 53.469 247.107, 53.475 248.455, 56.149 252.209 C 58.086 254.930, 58.713 255.180, 62.520 254.751 C 64.843 254.489, 68.217 253.539, 70.018 252.641 L 73.293 251.007 78.693 255.754 C 93.623 268.874, 96.485 270.950, 99.682 270.975 C 102.069 270.994, 103.381 270.274, 104.932 268.096 C 106.069 266.498, 107.007 264.811, 107.015 264.346 C 107.024 263.881, 107.446 262.843, 107.954 262.040 C 108.741 260.795, 109.198 260.869, 111.044 262.540 C 112.548 263.901, 114.645 264.500, 117.904 264.500 C 122.122 264.500, 123.508 265.172, 131.549 271.117 C 136.472 274.756, 143.309 279.630, 146.742 281.949 C 150.175 284.268, 153.264 286.619, 153.608 287.174 C 154.956 289.356, 178.304 304, 180.435 304 C 185.228 304, 193.590 295.899, 204.834 280.360 C 207.675 276.433, 210 272.523, 210 271.669 C 210 270.816, 210.420 269.858, 210.934 269.541 C 211.448 269.223, 212.624 266.384, 213.547 263.232 C 214.991 258.302, 215.137 254.420, 214.595 235.500 C 214.249 223.400, 213.695 208.333, 213.364 202.017 C 212.544 186.354, 213.940 179.034, 220.231 166 C 223.019 160.225, 226.119 154.325, 227.120 152.888 C 229.638 149.273, 236.651 136.116, 244.929 119.472 C 249.740 109.800, 253.570 103.589, 257.264 99.472 C 262.361 93.789, 271.228 81.889, 273.611 77.531 C 280.463 65.003, 282.664 60.143, 285.170 52.009 C 286.781 46.779, 288.527 41.466, 289.049 40.203 C 289.572 38.940, 290 33.132, 290 27.297 C 290 17.381, 289.828 16.464, 287.368 13.238 C 285.921 11.341, 283.235 9.161, 281.400 8.394 C 277.741 6.865, 269.967 6.735, 263.075 8.087 M 265.500 16.476 C 264.950 16.650, 261.238 17.796, 257.250 19.022 C 253.262 20.248, 250 21.789, 250 22.446 C 250 23.103, 253.063 27.434, 256.806 32.070 C 264.199 41.227, 275.800 50.109, 277.170 47.661 C 279.048 44.304, 282 30.927, 282 25.770 C 282 17.882, 280.077 15.971, 272.250 16.079 C 269.087 16.122, 266.050 16.301, 265.500 16.476 M 235.009 28.673 C 230.353 31.203, 224.734 34.668, 222.522 36.374 C 217.453 40.283, 205.679 50.228, 204.956 51.210 C 204.658 51.617, 201.280 55.224, 197.452 59.225 C 193.623 63.226, 188.499 68.750, 186.064 71.500 C 181.970 76.126, 161.513 98.227, 157.932 101.894 C 155.289 104.601, 143.882 117.163, 136.500 125.495 C 130.180 132.628, 124.026 139.438, 117 147.073 C 115.625 148.567, 112.904 151.525, 110.954 153.645 C 105.744 159.309, 105.693 159.541, 108.909 163.061 C 111.044 165.399, 112.139 167.976, 112.931 172.528 C 113.531 175.968, 113.744 179.504, 113.405 180.387 C 112.848 181.838, 113.061 181.849, 115.645 180.501 C 119.434 178.525, 122.301 178.614, 124.989 180.790 C 127.448 182.781, 128 188.263, 126.100 191.813 C 124.583 194.648, 124.520 194.599, 129.066 194.165 C 134.045 193.690, 141.213 195.593, 144.661 198.305 L 147.227 200.324 156.318 190.912 C 161.319 185.735, 179.155 167.545, 195.955 150.488 C 255.162 90.376, 259.058 85.993, 267.951 69.496 C 275.993 54.577, 275.979 54.973, 268.657 49.861 C 260.488 44.157, 254.047 38.075, 248.860 31.167 C 246.520 28.050, 244.351 25.179, 244.040 24.787 C 243.729 24.395, 239.665 26.144, 235.009 28.673 M 221.500 47.070 C 217.507 48.020, 214 51.046, 214 53.539 C 214 56.485, 217.095 58, 223.111 58 C 230.364 58, 235.731 60.469, 239.652 65.611 C 242.038 68.738, 242.398 70.077, 242.253 75.291 C 242.124 79.960, 242.475 81.638, 243.793 82.639 C 246.549 84.733, 249.693 84.204, 252.039 81.250 C 253.982 78.805, 254.163 77.677, 253.676 71.073 C 253.195 64.562, 252.657 62.963, 249.314 58.110 C 242.784 48.632, 232.344 44.488, 221.500 47.070 M 166.911 76.553 C 162.271 80.025, 144.855 91.105, 137.500 95.264 C 126.685 101.379, 127.293 101.294, 89 102.023 C 56.928 102.633, 52.969 102.893, 48 104.711 C 42.246 106.818, 34.144 111.780, 30.162 115.638 L 27.825 117.902 51.375 141.302 L 74.925 164.702 81.371 161.457 C 84.917 159.673, 90.075 157.902, 92.834 157.523 L 97.850 156.833 124.175 127.716 C 159.077 89.113, 162.524 85.313, 167.638 79.793 C 170.037 77.203, 172 74.841, 172 74.543 C 172 73.386, 170.183 74.104, 166.911 76.553 M 20.127 125.991 L 16.920 129.983 22.451 138.241 C 25.493 142.784, 29.461 148.202, 31.268 150.282 L 34.553 154.063 39.751 148.666 L 44.949 143.269 34.379 132.634 C 28.565 126.786, 23.702 122, 23.572 122 C 23.441 122, 21.891 123.796, 20.127 125.991 M 213.599 143.361 C 203.754 153.338, 185.482 171.850, 172.995 184.500 L 150.291 207.500 149.768 215 C 149.407 220.174, 148.435 224.205, 146.632 228 C 145.195 231.025, 144.015 233.979, 144.010 234.565 C 144.004 235.150, 149.063 240.632, 155.250 246.747 C 161.438 252.861, 170.100 261.421, 174.500 265.769 C 178.900 270.117, 184.267 275.547, 186.426 277.837 C 188.585 280.127, 190.915 282, 191.603 282 C 193.501 282, 198.730 275.225, 202.023 268.500 C 206.627 259.095, 207.416 250.941, 205.982 227.562 C 204.203 198.557, 204.341 182.778, 206.437 175.569 C 208.554 168.286, 222.363 141.003, 229.674 129.658 C 231.036 127.545, 232.004 125.683, 231.825 125.520 C 231.646 125.356, 223.445 133.385, 213.599 143.361 M 44.168 151.588 C 38.058 156.818, 37.449 158.400, 39.926 162.599 C 41.057 164.517, 44.539 169.329, 47.662 173.293 C 50.786 177.257, 53.471 180.669, 53.630 180.876 C 53.788 181.082, 57.506 178.157, 61.891 174.376 L 69.865 167.500 60.182 157.754 C 54.857 152.394, 50.018 148.006, 49.430 148.004 C 48.841 148.002, 46.474 149.615, 44.168 151.588 M 90.811 165.470 C 84.964 167.081, 80.606 169.752, 70.760 177.760 C 62.039 184.854, 55.062 191.914, 55.025 193.684 C 55.011 194.335, 59.612 199.641, 65.250 205.476 L 75.500 216.085 88.709 202.944 C 102.182 189.539, 105.726 184.459, 106.707 177.146 C 107.292 172.784, 105.256 167.993, 101.783 165.561 C 99.172 163.732, 97.182 163.716, 90.811 165.470 M 112.500 192.696 C 104.553 198.690, 98.348 204.500, 87.622 215.990 C 79.390 224.809, 64.449 243.792, 65.180 244.506 C 65.356 244.678, 69.634 241.716, 74.686 237.923 C 84.937 230.229, 104.867 209.163, 113.693 196.693 C 116.732 192.399, 119.057 188.724, 118.859 188.528 C 118.662 188.331, 115.800 190.207, 112.500 192.696 M 124.500 201.885 C 120.568 203.695, 117.556 206.556, 104.901 220.500 C 101.407 224.350, 97.525 228.320, 96.274 229.323 C 95.023 230.325, 94 231.705, 94 232.389 C 94 233.072, 99.181 238.715, 105.513 244.927 L 117.027 256.222 120.595 252.361 C 130.988 241.113, 141.010 224.121, 142.471 215.271 C 144.435 203.371, 135.588 196.781, 124.500 201.885 M 51.239 210.707 C 48.994 211.139, 49.002 211.176, 52.239 215.711 C 54.032 218.224, 57.437 222.339, 59.805 224.857 L 64.110 229.434 66.805 225.990 C 68.287 224.096, 69.441 222.371, 69.369 222.156 C 69.297 221.942, 66.642 219.119, 63.468 215.883 C 57.777 210.082, 56.750 209.647, 51.239 210.707 M 84.219 242.274 C 82.468 243.498, 81.027 244.772, 81.017 245.104 C 80.996 245.860, 85.847 250.547, 92.906 256.590 L 98.313 261.218 99.621 258.859 C 101.882 254.782, 100.961 252.689, 94.081 246.274 L 87.404 240.048 84.219 242.274 M 137.431 244.047 C 135.819 246.256, 133.463 249.287, 132.195 250.782 C 128.586 255.037, 128.067 256.372, 129.345 258.118 C 130.555 259.773, 147.354 271.815, 149.718 272.722 C 150.484 273.016, 152.463 271.574, 154.285 269.394 C 156.053 267.279, 158.478 264.539, 159.673 263.306 L 161.846 261.063 151.356 250.782 C 145.587 245.127, 140.754 240.394, 140.615 240.264 C 140.476 240.135, 139.043 241.837, 137.431 244.047 M 163.351 268.328 C 161.761 270.073, 159.385 272.730, 158.071 274.234 L 155.682 276.968 160.235 280.975 C 162.739 283.180, 168.239 287.314, 172.457 290.164 L 180.126 295.345 184.272 291.199 L 188.418 287.053 177.329 276.104 L 166.241 265.156 163.351 268.328" stroke="none" fill="black" fill-rule="evenodd"/>
</svg>