<svg xmlns="http://www.w3.org/2000/svg" width="321" height="320" viewBox="0 0 321 320" version="1.1">
	<path d="M 142 7.633 C 73.543 16.208, 19.388 68.235, 8.388 135.996 C 6.477 147.766, 6.583 174.576, 8.582 185.140 C 14.921 218.640, 28.282 244.167, 52 268.092 C 86.001 302.392, 133.234 318.174, 182 311.531 C 205.848 308.282, 224.828 300.925, 247.500 286.142 C 257.663 279.515, 277.510 260.730, 283.939 251.654 C 290.139 242.900, 298.131 229.238, 301.872 221 C 304.782 214.591, 310.256 197.947, 311.081 193 C 311.585 189.975, 312.481 185.025, 313.072 182 C 314.447 174.959, 314.417 144.047, 313.030 137.500 C 312.447 134.750, 311.560 130.025, 311.058 127 C 310.069 121.027, 303.439 101.090, 301.931 99.550 C 301.419 99.028, 301 97.864, 301 96.965 C 301 96.066, 298.750 91.626, 296 87.098 C 293.250 82.570, 291 78.678, 291 78.449 C 291 78.220, 288.547 74.614, 285.549 70.435 C 263.404 39.571, 230.101 17.814, 193 9.971 C 184.781 8.234, 178.480 7.691, 164 7.473 C 153.825 7.320, 143.925 7.392, 142 7.633 M 147.352 15.965 C 136.032 17.252, 124.237 19.834, 114.500 23.157 C 102.794 27.152, 82.448 37.086, 78.038 40.959 L 74.576 44 77.732 44 C 82.323 44, 86.339 47.784, 86.219 51.996 L 86.125 55.324 88.110 52.060 C 89.894 49.127, 90.437 48.859, 93.460 49.427 C 96.091 49.920, 97.639 49.506, 100.552 47.529 C 105.350 44.273, 110.160 44.279, 116.720 47.548 C 127.220 52.780, 129.674 63.289, 121.673 68.750 C 117.290 71.741, 114.774 71.590, 108.416 67.952 C 103.223 64.981, 103.007 64.945, 99.916 66.544 C 98.171 67.446, 94.559 68.833, 91.888 69.626 C 86.046 71.361, 81.593 74.874, 82.537 77.003 C 82.902 77.826, 84.887 79.953, 86.948 81.728 L 90.695 84.956 93.519 79.228 C 97.596 70.958, 99.625 69, 104.115 69 C 106.187 69, 108.156 69.444, 108.492 69.987 C 108.827 70.530, 111.441 71.662, 114.301 72.504 C 119.119 73.922, 119.788 74.518, 123.427 80.630 C 126.283 85.427, 127.474 88.667, 127.793 92.514 C 128.197 97.390, 128.019 97.941, 125.515 99.582 C 123.170 101.119, 122.368 101.189, 119.649 100.095 C 117.917 99.399, 115.641 98.571, 114.592 98.256 C 112.858 97.736, 112.881 97.881, 114.842 99.842 C 118.870 103.870, 116.676 108.002, 109.750 109.432 C 108.237 109.745, 105.918 110.223, 104.596 110.495 C 100.470 111.344, 92.178 118.715, 89.579 123.844 C 88.238 126.490, 85.534 129.880, 83.571 131.378 C 80.552 133.681, 80 134.705, 80 138.004 C 80 148.402, 73.252 151.335, 68.910 142.824 C 67.480 140.020, 66.418 139.037, 65.203 139.391 C 64.266 139.663, 61.302 140.197, 58.616 140.577 C 55.930 140.956, 52.893 142.107, 51.866 143.134 C 49.822 145.178, 49.358 150.933, 50.993 153.987 C 51.950 155.776, 52.124 155.766, 55.896 153.700 C 59.389 151.787, 60.083 151.706, 62.403 152.948 C 64.585 154.116, 65 155.030, 65 158.669 C 65 161.865, 65.396 163, 66.510 163 C 68.731 163, 71.428 166.570, 72 170.266 C 72.614 174.234, 74.919 174.786, 81.523 172.544 C 85.419 171.221, 87.562 171.138, 94.740 172.030 C 103.868 173.164, 105.775 173.861, 110.492 177.788 C 112.138 179.158, 115.444 181.119, 117.839 182.145 C 120.234 183.172, 123.973 186, 126.148 188.430 C 129.348 192.006, 131.721 193.433, 138.594 195.921 C 149.579 199.895, 152.368 201.382, 154.912 204.615 C 157.765 208.242, 157.532 212.308, 154.126 218.378 C 152.496 221.282, 151.005 225.741, 150.682 228.674 C 149.992 234.940, 149.018 236.583, 143.588 240.636 C 140.787 242.727, 138.336 245.893, 136.235 250.136 C 134.502 253.636, 131.083 258.773, 128.638 261.551 C 122.379 268.663, 120.670 273.107, 122.167 278.377 C 122.810 280.645, 123.711 282.927, 124.169 283.450 C 124.626 283.972, 125 286.101, 125 288.181 C 125 293.392, 121.778 294.232, 115.621 290.624 C 109.765 287.192, 106.751 283.432, 102.012 273.649 C 98.119 265.611, 95.011 252.417, 95.003 243.899 C 94.997 237.478, 93.156 234.411, 85.421 227.933 C 78.275 221.950, 76.745 220.088, 72.099 211.720 C 69.371 206.806, 69.379 199.761, 72.120 193.166 C 74.615 187.162, 74.233 185.497, 70.177 184.685 C 68.279 184.306, 64.675 181.567, 60.341 177.212 C 54.202 171.043, 52.734 170.106, 46.027 168.073 C 37.231 165.406, 33.211 161.786, 30.124 153.755 C 29.013 150.865, 28.081 149.063, 28.052 149.750 C 28.023 150.438, 27.112 151, 26.026 151 C 22.941 151, 20.724 145.510, 20.171 136.500 C 19.613 127.412, 19.100 128.322, 16.508 143 C 13.372 160.752, 15.642 183.149, 22.791 205 C 29.699 226.116, 40.988 244.117, 57.939 261.049 C 75.959 279.048, 91.879 288.775, 117.500 297.438 C 146.102 307.110, 182.256 306.083, 212 294.753 C 248.865 280.711, 278.008 252.666, 293.605 216.222 C 301.509 197.753, 305.205 180.396, 305.259 161.500 C 305.308 143.936, 304.623 140.373, 300.816 138.405 C 299.165 137.551, 297.592 137.074, 297.321 137.345 C 297.050 137.616, 297.712 138.311, 298.792 138.889 C 301.183 140.168, 302.071 144.169, 300.898 148.374 C 299.860 152.094, 290.655 161.993, 288.213 162.015 C 287.271 162.024, 285.825 162.507, 285 163.090 C 283.875 163.885, 284.387 164.004, 287.049 163.567 C 297.370 161.874, 296.654 172.228, 285.430 186.987 C 279.493 194.793, 278 198.671, 278 206.283 C 278 212.500, 277.825 212.914, 269.435 226.565 C 260.153 241.667, 254.413 247.943, 246.500 251.643 C 236.373 256.378, 234.057 254.561, 231.551 239.917 C 229.688 229.032, 229.802 223.420, 232.085 213.656 C 233.394 208.060, 233.337 207.488, 230.726 200.117 C 229.227 195.884, 228 191.496, 228 190.365 C 228 186.674, 224.698 184.777, 218.815 185.089 C 203.320 185.909, 199.671 185.535, 194.751 182.622 C 186.448 177.707, 183.038 170.439, 183.015 157.605 C 183.002 150.654, 183.409 148.860, 186.418 142.605 C 188.606 138.058, 192.162 133.070, 196.296 128.750 C 200.598 124.254, 202.186 122, 201.052 122 C 196.531 122, 192.488 111.734, 195.074 106.825 C 196.750 103.644, 197.937 103.037, 201.203 103.691 C 203.934 104.237, 205.110 102.804, 203 101.500 C 202.450 101.160, 202 99.580, 202 97.988 C 202 95.820, 202.991 94.297, 205.953 91.918 C 208.127 90.171, 211.051 87.011, 212.450 84.896 C 213.850 82.781, 216.684 80.159, 218.748 79.069 L 222.500 77.088 217.907 77.044 C 213.769 77.004, 213.143 76.679, 211.577 73.750 C 209.619 70.091, 209.614 70.110, 215.782 58.504 C 220.160 50.266, 222.820 48.580, 231.500 48.540 C 236.072 48.518, 238.392 49.065, 241.250 50.837 L 245 53.163 248.500 51 C 250.425 49.810, 251.983 48.536, 251.961 48.168 C 251.903 47.159, 238.861 38.015, 231.232 33.635 C 218.663 26.417, 197.010 19.009, 183 17.133 C 171.510 15.594, 155.287 15.063, 147.352 15.965 M 121.308 29.021 C 114.718 31.167, 111 34.590, 111 38.512 C 111 42.089, 113.319 43.223, 119.863 42.846 C 124.289 42.591, 126.266 42.918, 127.648 44.134 C 128.666 45.030, 130.524 46.076, 131.777 46.458 C 136.005 47.747, 137.204 51.003, 136.062 58.094 C 134.369 68.610, 137.143 74.500, 144.340 75.668 C 147.417 76.167, 148.254 75.854, 150.214 73.470 C 155.033 67.609, 157.949 65.421, 164.024 63.109 C 173.220 59.609, 177.264 55.508, 180.043 46.867 C 182.764 38.402, 182.905 35.030, 180.676 31.628 C 177.451 26.706, 165.292 25.660, 149.545 28.950 C 141.448 30.641, 140.480 30.671, 139.445 29.255 C 137.632 26.776, 128.563 26.659, 121.308 29.021 M 123.056 34.030 C 116.599 36.352, 113.906 38.518, 118.500 37.695 C 120.150 37.400, 124.650 36.033, 128.500 34.658 C 134.718 32.438, 135.109 32.154, 132 32.116 C 130.075 32.092, 126.050 32.953, 123.056 34.030 M 156.500 33.051 C 147.976 34.115, 133.956 37.640, 132.536 39.076 C 131.819 39.802, 132.115 40.469, 133.500 41.245 C 134.600 41.862, 136.775 43.636, 138.333 45.189 C 141.048 47.894, 141.158 48.376, 140.986 56.756 C 140.751 68.163, 140.674 67.674, 143.094 70.094 L 145.188 72.188 150.036 66.749 C 153.873 62.444, 156.197 60.835, 161.192 59.026 C 169.577 55.989, 173.925 51.387, 176.310 43.024 C 178.058 36.898, 178.058 36.615, 176.310 34.916 C 174.009 32.678, 165.734 31.899, 156.500 33.051 M 70.250 50.145 C 63.057 51.791, 65.409 53.844, 75 54.291 C 79.189 54.486, 79.500 54.327, 79.500 52 C 79.500 49.073, 77.066 48.585, 70.250 50.145 M 101.500 51.619 L 98.500 53.076 102.068 52.527 C 106.472 51.849, 111.697 53.565, 113.077 56.143 C 114.366 58.553, 113.364 62, 111.374 62 C 108.655 62, 111.010 63.911, 114.546 64.575 C 123.569 66.267, 123.132 56.659, 113.974 51.987 C 109.455 49.681, 105.718 49.571, 101.500 51.619 M 252.083 56.148 C 246.274 61.303, 243.220 62.054, 240.883 58.901 C 236.821 53.421, 236.112 53, 230.955 53 C 226.931 53, 225.412 53.497, 223.455 55.455 C 222.105 56.805, 221 58.516, 221 59.259 C 221 60.001, 219.650 62.737, 218 65.339 C 216.350 67.941, 215 70.504, 215 71.035 C 215 71.566, 216.485 72, 218.300 72 C 220.115 72, 222.065 72.465, 222.633 73.033 C 223.201 73.601, 224.375 73.793, 225.242 73.461 C 226.421 73.008, 226.630 72.179, 226.069 70.178 C 224.643 65.081, 228.200 58, 232.186 58 C 234.852 58, 235.401 60.323, 233.572 63.860 C 231.463 67.939, 231.491 68, 235.465 68 C 239.293 68, 241.091 70.136, 240.093 73.500 C 238.855 77.674, 235.466 82.025, 232.273 83.541 C 229.454 84.878, 228.423 84.921, 225.391 83.824 C 221.874 82.553, 221.773 82.591, 218.162 86.591 C 216.148 88.822, 213.808 91.515, 212.963 92.574 C 212.118 93.633, 210.350 95.209, 209.034 96.075 C 206.736 97.588, 206.708 97.744, 208.321 100.048 C 211.978 105.269, 209.885 109, 203.300 109 C 199.230 109, 199 109.154, 199 111.878 C 199 113.460, 199.657 115.300, 200.459 115.966 C 202.692 117.819, 207.670 116.246, 210.237 112.877 C 217.025 103.969, 217.392 103.695, 222.691 103.585 C 225.454 103.528, 228.433 102.886, 229.310 102.158 C 232.098 99.844, 240.414 103.805, 243.716 109.020 L 245.585 111.972 248.543 106.236 C 252.945 97.698, 254.702 96, 259.140 96 C 261.977 96, 263.846 96.803, 266.570 99.195 C 273.816 105.558, 273.029 110, 264.656 110 C 258.776 110, 255.325 111.800, 256.306 114.355 C 256.754 115.523, 258.178 116.004, 261.219 116.015 C 266.375 116.034, 267.552 116.691, 268.934 120.327 C 271.483 127.032, 263.759 132.451, 254.870 130.195 C 251.761 129.406, 249.453 129.422, 246.346 130.252 C 240.909 131.707, 232.561 129.309, 227.456 124.827 L 223.985 121.780 214.826 124.043 C 204.735 126.536, 201.064 129.058, 194.493 138.010 C 189.644 144.615, 187.915 150.161, 187.895 159.170 C 187.868 170.993, 191.555 176.755, 201.601 180.592 C 205.572 182.108, 206.868 182.157, 212.912 181.017 C 220.447 179.595, 225.376 180.144, 228.659 182.772 C 231.003 184.648, 238.009 204.218, 237.988 208.833 C 237.982 210.300, 237.312 213.975, 236.500 217 C 234.707 223.681, 234.682 230.136, 236.413 239.811 C 238.023 248.808, 238.684 249.577, 243.188 247.695 C 252.163 243.945, 254.481 241.556, 263.870 226.384 C 272.360 212.662, 273 211.258, 273 206.349 C 273 199.101, 275.410 192.596, 280.718 185.515 C 284.652 180.266, 290 171.059, 290 169.533 C 290 169.240, 288.300 169, 286.223 169 C 284.145 169, 281.529 168.358, 280.409 167.574 C 275.949 164.450, 265 142.830, 265 137.147 C 265 134.740, 267.289 132.790, 269.236 133.537 C 270.549 134.041, 277.657 144.418, 283.081 153.750 C 284.120 155.537, 285.652 157, 286.485 157 C 287.318 157, 289.735 155.265, 291.856 153.144 C 297.822 147.178, 297.939 141.804, 292.129 140.528 C 286.911 139.382, 282.806 133.555, 284.361 129.502 C 285.201 127.313, 287.701 127.637, 295.529 130.951 C 304.049 134.557, 304.223 134.253, 300.544 122.163 C 299.094 117.398, 297.392 111.767, 296.761 109.649 C 295.033 103.849, 286.985 88.279, 281.457 80.040 C 275.947 71.827, 262.456 56.184, 258.839 53.814 C 256.571 52.328, 256.272 52.431, 252.083 56.148 M 52.855 63.012 C 43.690 72.680, 32.979 88.742, 28.522 99.500 C 27.610 101.700, 26.491 104.400, 26.033 105.500 C 21.370 116.717, 20.873 120.161, 23.082 125.974 C 24.115 128.693, 25.041 133.191, 25.139 135.970 C 25.308 140.728, 25.421 140.929, 27.081 139.427 C 28.709 137.954, 28.961 138.011, 30.381 140.178 C 31.226 141.468, 32.878 145.632, 34.052 149.431 C 36.572 157.591, 39.893 161.340, 46.083 163.014 C 54.521 165.295, 58.321 167.466, 63.799 173.140 C 67.063 176.521, 71.052 179.512, 73.587 180.480 C 79.112 182.590, 79.865 185.494, 77.052 193.845 C 74.213 202.273, 74.423 206.494, 77.981 212.500 C 81.861 219.049, 82.343 219.578, 90.150 225.847 C 98.155 232.275, 99.558 235.454, 100.417 249.118 C 101.148 260.739, 103.813 269.361, 109.064 277.094 C 112.537 282.209, 118.519 287.822, 119.470 286.859 C 119.664 286.662, 118.901 283.690, 117.774 280.256 C 115.825 274.319, 115.805 273.801, 117.369 269.756 C 118.274 267.415, 121.469 262.617, 124.468 259.093 C 127.467 255.569, 130.636 251.069, 131.510 249.093 C 134.526 242.273, 135.848 240.489, 140.149 237.427 C 142.922 235.454, 144.705 233.308, 145.132 231.427 C 147.604 220.548, 148.279 218.418, 150.035 215.951 C 152.558 212.408, 152.539 208.580, 149.986 206.202 C 148.879 205.170, 143.366 202.599, 137.736 200.489 C 128.965 197.201, 126.752 195.890, 122.272 191.326 C 119.397 188.397, 116.410 186, 115.634 186 C 114.859 186, 111.829 184.353, 108.902 182.339 C 99.913 176.155, 88.536 174.207, 80.654 177.500 C 78.680 178.325, 75.950 179, 74.588 179 C 71.201 179, 67.135 175.136, 66.695 171.500 C 66.454 169.504, 65.691 168.382, 64.416 168.147 C 59.815 167.299, 57.812 163.088, 60.035 158.934 C 61.371 156.438, 59.948 156.467, 56.727 159 C 53.168 161.800, 50.596 161.497, 47.589 157.923 C 42.048 151.338, 45.325 139.909, 53.537 137.185 C 59.566 135.184, 67.153 133.914, 69.197 134.562 C 70.203 134.882, 71.900 136.798, 72.969 138.821 L 74.912 142.500 74.956 137.297 C 74.997 132.427, 75.263 131.883, 79.109 128.797 C 81.369 126.984, 84.143 123.537, 85.272 121.138 C 89.091 113.027, 104.257 102.627, 109.393 104.597 C 110.458 105.006, 111 104.672, 111 103.607 C 111 102.723, 110.560 102, 110.023 102 C 109.486 102, 108.308 100.873, 107.405 99.495 C 106.143 97.570, 106.031 96.668, 106.917 95.600 C 108.756 93.384, 114.389 92.799, 118.906 94.355 L 123 95.766 123 92.843 C 123 89.530, 119.884 82.884, 116.959 79.959 C 115.881 78.881, 113.711 78, 112.135 78 C 110.559 78, 108.126 77.100, 106.727 76 C 105.329 74.900, 103.701 74, 103.109 74 C 102.518 74, 100.853 76.362, 99.409 79.250 C 96.458 85.154, 92.322 90, 90.235 90 C 89.470 90, 86.189 87.638, 82.945 84.750 C 75.294 77.940, 74.956 74.908, 81.250 69.511 C 83.588 67.507, 87.456 65.342, 89.847 64.700 C 93.915 63.608, 99 59.810, 99 57.864 C 99 56.451, 95.111 56.881, 92.517 58.581 C 90.557 59.865, 87.678 60.099, 77.154 59.831 C 65.990 59.546, 63.906 59.230, 62.046 57.545 L 59.889 55.590 52.855 63.012 M 104 59 C 103.060 60.756, 103.240 61, 105.465 61 C 108.223 61, 108.289 60.917, 107.393 58.582 C 106.569 56.435, 105.288 56.593, 104 59 M 175.223 59.557 C 170.950 62.549, 172.944 68.679, 178.766 70.454 C 181.746 71.363, 187.754 69.328, 189.008 66.986 C 190.698 63.826, 190.124 62.046, 186.750 59.989 C 182.844 57.608, 178.251 57.435, 175.223 59.557 M 178.543 63.931 C 178.226 64.443, 178.450 65.160, 179.041 65.525 C 180.463 66.404, 185 65.228, 185 63.981 C 185 62.732, 179.311 62.688, 178.543 63.931 M 230.086 75.618 C 228.954 77.057, 228.277 78.640, 228.583 79.134 C 229.331 80.345, 230.498 79.513, 233.022 75.970 C 234.702 73.610, 234.829 73, 233.641 73 C 232.818 73, 231.219 74.178, 230.086 75.618 M 256.994 102.006 C 254.210 104.790, 254.424 106.169, 257.463 105.014 C 259.060 104.407, 261.010 104.456, 263.014 105.155 C 267.413 106.688, 267.372 105.918, 262.884 102.756 C 258.993 100.014, 258.987 100.013, 256.994 102.006 M 216.597 113.250 C 214.735 116.138, 213.327 118.625, 213.467 118.778 C 213.608 118.931, 214.939 118.593, 216.426 118.028 C 222.125 115.861, 226.562 116.726, 231.450 120.957 C 236.514 125.340, 241.396 126.755, 245.961 125.164 C 247.640 124.578, 251.972 124.366, 255.759 124.683 C 261.319 125.149, 262.794 124.954, 263.915 123.602 C 265.774 121.362, 264.876 120.754, 259.370 120.525 C 255.899 120.380, 254.223 119.758, 252.900 118.124 C 251.117 115.923, 251.112 115.923, 250.022 117.959 C 248.491 120.820, 244.973 120.498, 242.391 117.261 L 240.207 114.522 238.259 116.928 C 235.778 119.992, 233.829 119.274, 230.557 114.091 C 225.578 106.203, 221.306 105.946, 216.597 113.250 M 279.881 214.750 C 275.291 219.634, 273.410 222.765, 272.065 227.758 C 269.798 236.177, 275.813 240.321, 281.491 234.250 C 286.846 228.524, 290.923 215.921, 288.625 212.202 C 287.193 209.885, 283.421 210.984, 279.881 214.750 M 280.825 221.252 C 279.354 223.588, 277.836 226.850, 277.451 228.500 C 276.820 231.208, 276.905 231.354, 278.328 230 C 280.200 228.218, 285.301 216.999, 284.237 217.002 C 283.832 217.003, 282.296 218.915, 280.825 221.252" stroke="none" fill="black" fill-rule="evenodd"/>
</svg>