<svg xmlns="http://www.w3.org/2000/svg" width="320" height="306" viewBox="0 0 320 306" version="1.1">
	<path d="M 148.500 7.609 C 132.682 9.234, 116.143 13.967, 102.500 20.774 C 91.132 26.446, 82.593 32.505, 72.736 41.895 L 64.973 49.291 57.236 48.634 C 38.189 47.014, 24.492 46.851, 20.098 48.190 C 14.264 49.968, 10.249 54.958, 8.927 62.074 C 7.451 70.026, 5.636 101.246, 6.411 105.375 C 7.177 109.460, 12.213 115, 15.160 115 C 16.264 115, 16.993 115.338, 16.781 115.750 C 11.772 125.479, 10.247 136.989, 11.760 153.625 C 13.110 168.475, 16.128 175.217, 23.120 179 L 27.740 181.500 24.379 186.468 C 15.658 199.360, 13.137 222.822, 19.003 236.507 C 22.056 243.628, 31.257 252.675, 39.500 256.660 C 43.350 258.520, 48.189 260.316, 50.254 260.650 C 53.069 261.105, 54.914 262.341, 57.629 265.590 C 62.149 270.998, 73.756 279.093, 83.339 283.521 C 128.316 304.302, 195.744 304.031, 238 282.900 C 248.596 277.601, 257.339 271.407, 263.251 265.009 C 266.305 261.704, 269.460 259, 270.261 259 C 273.125 259, 283.584 252.718, 288.328 248.150 C 297.644 239.178, 301.385 229.252, 301.201 214 C 301.080 203.982, 298.048 192.050, 293.930 185.387 C 291.699 181.777, 291.561 181, 293.147 181 C 295.602 181, 303.369 173.430, 305.385 169.073 C 307.310 164.911, 307.500 162.747, 307.500 145 C 307.500 126.859, 307.342 125.158, 305.238 120.595 C 303.994 117.898, 303.094 115.648, 303.238 115.595 C 303.382 115.543, 305.084 114.697, 307.021 113.716 C 312.561 110.909, 313.526 107.589, 313.333 92 C 313.058 69.733, 310.566 57.366, 305.221 51.734 C 300.819 47.097, 296.819 46.611, 274.864 48.046 L 255.228 49.329 248.355 42.360 C 232.607 26.391, 208.622 13.796, 186 9.615 C 177.355 8.017, 155.765 6.862, 148.500 7.609 M 143.500 16.623 C 131.108 18.199, 110.214 24.630, 105.711 28.255 C 103.171 30.300, 102.827 31.388, 101.847 40.455 C 101.052 47.817, 101.081 53.154, 101.957 60.943 C 102.609 66.736, 103.223 71.552, 103.321 71.644 C 103.609 71.916, 121.010 68.112, 121.848 67.594 C 123.912 66.319, 147.879 64, 158.996 64 C 176.158 64, 204.736 67.891, 214.175 71.514 C 216.643 72.461, 218.202 64.669, 218.313 50.832 C 218.442 34.678, 217.085 29.594, 211.948 26.973 C 201.995 21.896, 189.163 18.205, 175.530 16.498 C 161.502 14.742, 158.187 14.755, 143.500 16.623 M 87.629 39.859 C 73.403 50.776, 62.550 64.498, 54.054 82.313 C 44.847 101.621, 42.561 113.022, 42.591 139.500 C 42.613 158.730, 42.736 159.962, 45.781 171.500 C 51.188 191.980, 60.865 208.521, 76.928 224.737 C 94.968 242.950, 122.152 254.815, 150.479 256.842 C 185.735 259.365, 221.405 246.987, 242.677 224.847 C 258.894 207.968, 266.533 195.577, 272.791 176 C 276.733 163.669, 278 154.100, 278 136.661 C 278 123.812, 277.677 121.190, 274.589 108.984 C 269.871 90.334, 268.703 87.260, 261.343 74.107 C 251.024 55.665, 241.680 45.541, 224.973 34.701 L 222.445 33.062 222.473 48.781 C 222.488 57.426, 222.185 66.525, 221.800 69 L 221.099 73.500 231.800 78.681 C 247.756 86.406, 254.750 94.157, 259.592 109.483 C 269.798 141.784, 265.011 190.898, 249.770 210.266 C 240.261 222.349, 219.294 232.075, 194.500 235.904 C 174.205 239.039, 144.790 239.047, 126.500 235.924 C 95.354 230.607, 77.228 221.389, 66.879 205.606 C 64.754 202.365, 62.529 198.090, 61.935 196.106 C 56.412 177.666, 54.643 165.951, 54.669 147.982 C 54.680 139.997, 55.171 131.222, 55.760 128.482 C 61.048 103.883, 61.555 102.455, 68.090 93.692 C 72.842 87.320, 79.602 82.358, 90.811 77.014 L 98.123 73.528 97.368 68.514 C 96.953 65.756, 96.673 56.638, 96.747 48.250 C 96.820 39.862, 96.795 33.012, 96.690 33.026 C 96.586 33.041, 92.508 36.116, 87.629 39.859 M 20.251 57.626 C 17.414 59.989, 16.390 65.361, 14.850 85.956 C 13.768 100.421, 13.813 102.066, 15.354 104.418 C 16.965 106.877, 17.475 107, 26.023 107 C 30.960 107, 35.275 107.112, 35.611 107.250 C 35.947 107.388, 37.319 103.701, 38.659 99.058 C 40 94.414, 42.425 87.745, 44.048 84.238 C 45.672 80.730, 47 77.545, 47 77.158 C 47 76.772, 49.462 72.426, 52.472 67.500 C 55.794 62.063, 57.583 58.183, 57.026 57.626 C 56.521 57.121, 48.546 56.493, 39.304 56.230 C 23.933 55.792, 22.308 55.911, 20.251 57.626 M 270 56.656 C 268.625 56.867, 266.054 57.273, 264.286 57.558 L 261.072 58.077 264.348 62.369 C 269.118 68.618, 275.454 82.142, 279.950 95.672 L 283.880 107.500 293.169 107.297 C 300.682 107.133, 302.701 106.762, 303.729 105.356 C 305.264 103.256, 305.459 85.591, 304.046 76.582 C 303.522 73.237, 302.811 68.306, 302.466 65.624 C 302.055 62.426, 301.023 59.932, 299.465 58.374 C 297.206 56.115, 296.494 56.007, 284.795 56.136 C 278.033 56.211, 271.375 56.445, 270 56.656 M 24.762 60.973 C 21.054 63.889, 18.768 69.259, 19.931 72.318 C 21.646 76.830, 26.051 80, 30.605 80 C 35.869 80, 39.554 77.193, 40.431 72.515 C 41.196 68.440, 38.947 62.777, 35.647 60.465 C 32.712 58.410, 27.724 58.642, 24.762 60.973 M 282.751 61.750 C 275.120 69.749, 278.130 78.730, 288.784 79.753 C 292.911 80.150, 294.070 79.843, 296.567 77.696 C 299.107 75.511, 299.500 74.481, 299.500 70.005 C 299.500 65.431, 299.124 64.500, 296.234 61.918 C 291.796 57.953, 286.437 57.886, 282.751 61.750 M 26.655 65.829 C 22.216 70.734, 27.107 77.128, 32.843 73.920 C 36.217 72.032, 36.660 69.086, 34 66.231 C 31.478 63.523, 28.871 63.380, 26.655 65.829 M 286 66 C 283.598 68.402, 283.431 71.288, 285.571 73.429 C 287.705 75.562, 290.596 75.404, 292.977 73.023 C 295.067 70.933, 294.840 68.833, 292.193 65.750 C 290.232 63.467, 288.462 63.538, 286 66 M 140.500 69.641 C 91.696 77.172, 72.226 87.962, 65.062 111.449 C 56.964 137.997, 58.804 176.019, 69.251 198 C 76.246 212.718, 90.435 221.963, 116 228.461 C 134.097 233.060, 164.199 234.569, 185.807 231.960 C 197.834 230.507, 216.537 225.706, 224.500 222.028 C 232.428 218.366, 242.263 211, 245.866 206.026 C 258.252 188.928, 263.214 146.972, 256.394 117.008 C 254.273 107.688, 248.373 96.498, 243.162 91.911 C 240.766 89.802, 235.895 86.477, 232.337 84.521 C 225.122 80.555, 207.496 74.475, 200.233 73.448 C 197.630 73.079, 192.800 72.113, 189.500 71.301 C 183.579 69.844, 147.178 68.611, 140.500 69.641 M 148.500 75.957 C 120.154 78.633, 106.096 81.886, 91.891 89.054 C 82.352 93.867, 77.673 98.179, 73.734 105.783 C 62.754 126.981, 62.450 164.487, 73.037 191.940 C 79.922 209.794, 94.633 218.351, 130.758 225.516 C 137.902 226.933, 162.282 227.697, 175.579 226.921 C 192.209 225.950, 211.374 221.617, 222.760 216.254 C 235.523 210.243, 244.500 199.780, 248.525 186.227 C 255.669 162.170, 255.464 129.678, 248.041 109.839 C 241.873 93.353, 223.887 83.555, 190.627 78.560 C 171.434 75.678, 159.358 74.932, 148.500 75.957 M 132 85.990 C 117.908 88.153, 104.965 92.017, 94.875 97.075 C 79.197 104.933, 74.660 116.415, 74.556 148.500 C 74.495 167.032, 75.658 175.357, 79.794 186 C 86.102 202.231, 94.441 208.349, 118.725 214.562 C 132.217 218.014, 155.226 220.327, 168 219.516 C 207.574 217.004, 230.427 207.540, 237.985 190.535 C 245.310 174.054, 247.711 142.835, 243.173 123.063 C 240.615 111.916, 238.434 107.381, 233.294 102.519 C 217.822 87.882, 170.253 80.120, 132 85.990 M 20.611 88.250 C 17.008 91.491, 16.736 96.736, 20 100 C 22.186 102.186, 28.739 102.745, 31.961 101.021 C 36.466 98.610, 35.942 89.645, 31.147 87.079 C 27.857 85.318, 23.308 85.824, 20.611 88.250 M 286.861 87.912 C 284.989 89.428, 284.500 90.792, 284.500 94.500 C 284.500 101.790, 289.133 104.592, 296.778 101.927 C 302.094 100.074, 303.069 93.091, 298.688 88.250 C 296.093 85.383, 290.192 85.214, 286.861 87.912 M 23.563 92.801 C 22.547 96.004, 23.963 98.142, 26.878 97.804 C 29.057 97.551, 29.500 96.993, 29.500 94.500 C 29.500 91.994, 29.061 91.449, 26.836 91.192 C 24.921 90.970, 24.001 91.423, 23.563 92.801 M 289.485 93.048 C 288.785 95.253, 290.458 98, 292.500 98 C 294.542 98, 296.215 95.253, 295.515 93.048 C 295.102 91.744, 294.005 91, 292.500 91 C 290.995 91, 289.898 91.744, 289.485 93.048 M 117 95.421 C 110.392 97.309, 108.008 98.448, 102.910 102.159 C 90.311 111.328, 81.999 126.130, 81.806 139.740 C 81.709 146.573, 83.074 149.698, 86.772 151.103 C 92.403 153.245, 96.029 149.995, 97.523 141.465 C 98.301 137.024, 104.039 124.582, 106.740 121.478 C 109.383 118.441, 114.656 114.849, 121.385 111.500 C 128.638 107.890, 131.422 104.530, 130.431 100.581 C 129.784 98.004, 124.814 93.924, 122.500 94.071 C 121.950 94.106, 119.475 94.714, 117 95.421 M 121.041 99.800 C 114.177 100.899, 104.272 106.507, 98.613 112.500 C 91.982 119.522, 86.649 133.119, 87.190 141.626 C 87.449 145.698, 87.823 146.500, 89.463 146.500 C 91.073 146.500, 91.718 145.240, 93.045 139.500 C 96.746 123.491, 103.660 114.804, 118.314 107.751 C 122.541 105.716, 126 103.420, 126 102.648 C 126 100.589, 123.845 99.352, 121.041 99.800 M 28.120 118.885 C 26.261 119.875, 23.676 122.444, 22.375 124.593 C 20.145 128.277, 20.012 129.411, 20.046 144.500 C 20.079 158.937, 20.298 160.940, 22.291 165 C 23.928 168.335, 25.655 170.082, 28.962 171.750 C 35.653 175.124, 37.186 174.825, 36.656 170.250 C 36.416 168.188, 35.666 164.475, 34.988 162 C 33.607 156.960, 33.112 131.591, 34.222 122.750 C 35.047 116.173, 34.208 115.641, 28.120 118.885 M 285.662 120.750 C 287.566 130.236, 286.232 159.650, 283.353 171.636 C 282.863 173.678, 283.050 173.733, 287.594 172.884 C 292.289 172.006, 295.361 170.063, 297.055 166.898 C 298.812 163.614, 300.036 140.324, 298.865 132.451 C 297.616 124.052, 295.480 120.516, 290.364 118.379 C 285.322 116.272, 284.815 116.528, 285.662 120.750 M 35.655 185.056 L 32.823 187.284 35.662 189.606 C 37.223 190.883, 38.789 191.944, 39.143 191.964 C 40.576 192.044, 40.895 188.729, 39.729 185.871 L 38.488 182.829 35.655 185.056 M 279.599 185.808 C 278.720 187.509, 278 189.800, 278 190.898 C 278 192.675, 278.326 192.782, 280.942 191.870 C 285.566 190.259, 286.128 188.886, 283.509 185.608 L 281.198 182.716 279.599 185.808 M 28.098 196.149 C 26.663 200.264, 26.501 199.893, 30.468 201.551 C 34.917 203.410, 34.633 203.490, 35.841 200.025 C 36.761 197.387, 36.587 196.820, 34.304 195.025 C 30.753 192.231, 29.377 192.480, 28.098 196.149 M 283.080 195.905 C 280.826 197.637, 280.751 197.984, 281.985 200.965 C 283.221 203.949, 283.553 204.119, 286.905 203.493 C 288.882 203.124, 290.644 202.681, 290.819 202.508 C 290.995 202.336, 290.586 200.351, 289.911 198.097 C 288.540 193.522, 286.875 192.987, 283.080 195.905 M 43.503 203.250 C 41.186 208.994, 40.471 217.866, 41.960 222.380 C 44.126 228.943, 50.790 235, 55.843 235 C 57.781 235, 59 233.193, 59 230.319 C 59 229.485, 59.711 227.305, 60.579 225.474 L 62.159 222.146 55.654 213.283 C 52.076 208.409, 48.593 203.201, 47.914 201.710 C 47.235 200.220, 46.350 199, 45.948 199 C 45.546 199, 44.446 200.912, 43.503 203.250 M 269.067 206.535 C 267.289 209.685, 263.887 214.345, 261.505 216.891 C 257.711 220.948, 257.337 221.740, 258.481 223.305 C 259.199 224.287, 260.103 227.207, 260.491 229.795 C 261.421 236.013, 261.636 236.240, 264.956 234.523 C 269.290 232.281, 274.664 225.393, 275.896 220.499 C 277.470 214.249, 277.199 211.163, 274.592 205.654 L 272.299 200.808 269.067 206.535 M 24.630 207.250 C 24.299 208.488, 24.023 210.625, 24.019 212 C 24.011 214.213, 24.469 214.526, 28.005 214.727 C 31.616 214.932, 32 214.724, 32 212.559 C 32 211.241, 32.237 209.546, 32.526 208.792 C 32.865 207.909, 31.862 206.990, 29.705 206.210 C 25.332 204.629, 25.333 204.629, 24.630 207.250 M 287.957 208.212 C 284.637 209.045, 284.439 209.318, 284.816 212.550 C 285.198 215.823, 285.418 216, 289.109 216 C 292.972 216, 293 215.972, 293 212.059 C 293 207.374, 292.579 207.053, 287.957 208.212 M 24.006 222.068 C 23.999 224.872, 26.470 233.694, 27.864 235.844 C 28.586 236.959, 29.239 236.928, 31.690 235.660 C 37.071 232.878, 37.315 231.901, 34.289 225.246 C 31.620 219.376, 31.459 219.230, 27.782 219.364 C 24.437 219.485, 24.011 219.790, 24.006 222.068 M 283.147 224.331 C 282.516 226.836, 282 229.092, 282 229.344 C 282 230.237, 288.950 233.889, 289.339 233.200 C 290.483 231.172, 293.130 221.797, 292.684 221.351 C 292.399 221.066, 290.394 220.594, 288.229 220.304 L 284.294 219.776 283.147 224.331 M 243.500 235.593 C 235.978 242.518, 220.944 252.062, 212.625 255.193 C 181.033 267.084, 155.945 268.748, 126 260.938 C 104.789 255.405, 90.316 248.007, 74.698 234.711 C 71.506 231.994, 68.618 230.048, 68.280 230.387 C 67.941 230.725, 67.465 233.404, 67.222 236.340 C 66.815 241.248, 67.044 241.981, 70.065 245.421 C 79.191 255.815, 98.264 264.456, 123.500 269.630 C 136.477 272.290, 139.145 272.500, 160 272.500 C 186.795 272.500, 198.742 270.723, 218.500 263.799 C 242.530 255.379, 254.125 245.767, 252.458 235.650 C 251.315 228.709, 250.980 228.707, 243.500 235.593 M 275.969 236.280 L 273.437 238.488 275.855 242.181 L 278.273 245.875 282.137 242.770 C 284.261 241.062, 286 239.072, 286 238.346 C 286 237.386, 279.737 233.724, 278.628 234.036 C 278.558 234.056, 277.361 235.066, 275.969 236.280 M 35.042 238.824 L 31.659 241.648 36.473 245.324 C 39.121 247.346, 41.815 249, 42.459 249 C 43.554 249, 47 242.979, 47 241.065 C 47 240.190, 40.510 236, 39.155 236 C 38.753 236, 36.902 237.271, 35.042 238.824 M 265.887 242.275 C 263.279 243.288, 263.277 243.296, 264.826 247.395 C 265.680 249.653, 266.462 251.632, 266.565 251.793 C 266.937 252.374, 274 248.610, 274 247.831 C 274 247.391, 272.762 245.733, 271.250 244.146 C 268.867 241.645, 268.151 241.396, 265.887 242.275 M 49.631 246.543 C 48.603 249.047, 47.929 251.263, 48.133 251.467 C 48.337 251.671, 49.721 252.143, 51.209 252.516 C 54.087 253.239, 53.823 253.668, 55.519 245.500 C 55.805 244.125, 55.616 243, 55.101 243 C 54.585 243, 53.564 242.773, 52.832 242.495 C 51.974 242.169, 50.834 243.611, 49.631 246.543 M 63.480 249.666 C 63.150 251.225, 62.700 253.377, 62.481 254.449 C 60.962 261.888, 80.278 274.899, 104 282.416 C 139.463 293.653, 182.280 293.662, 216.604 282.440 C 233.234 277.003, 253.744 265.083, 257.028 258.947 C 257.773 257.555, 257.731 255.833, 256.880 252.994 C 256.222 250.797, 255.489 249, 255.251 249 C 255.013 249, 252.497 250.940, 249.659 253.310 C 237.715 263.289, 210.713 273.450, 187.661 276.641 C 171.248 278.913, 145.679 278.900, 132.500 276.613 C 117.376 273.989, 97.588 268.372, 88.564 264.141 C 79.280 259.789, 68.905 252.965, 66.048 249.333 L 64.080 246.832 63.480 249.666" stroke="none" fill="black" fill-rule="evenodd"/>
</svg>