<svg xmlns="http://www.w3.org/2000/svg" width="393" height="258" viewBox="0 0 393 258" version="1.1">
	<path d="M 177.725 8.089 C 143.590 13.085, 110.742 35.240, 92.195 65.777 C 81.938 82.665, 75.745 101.972, 74.386 121.302 L 73.721 130.770 64.610 137.302 C 35.835 157.931, 15.376 179.854, 8.898 197 C 5.786 205.240, 6.496 214.568, 10.627 219.694 C 23.447 235.600, 53.878 237.088, 111.359 224.618 L 118.218 223.130 125.108 228.379 C 143.927 242.717, 169.996 251.001, 196.285 250.999 C 229.494 250.995, 257.191 240.141, 280.357 218.051 C 298.674 200.586, 311.434 177.852, 316.028 154.500 C 318.295 142.978, 318.989 138.021, 318.994 133.318 C 318.999 128.608, 319.296 127.929, 322.250 125.862 C 330.016 120.429, 350.234 103.443, 358.596 95.328 C 380.632 73.941, 390.116 53.569, 384.121 40.500 C 380.461 32.521, 373.665 28.098, 360.878 25.374 C 344.995 21.990, 308.157 25.467, 281.761 32.842 L 275.023 34.725 269.260 30.532 C 259.778 23.633, 256.078 21.593, 243.290 16.219 C 227.121 9.424, 214.490 6.958, 196.699 7.122 C 189.440 7.189, 180.901 7.624, 177.725 8.089 M 179.136 16.606 C 163.037 19.304, 147.456 25.619, 133 35.303 C 123.944 41.370, 109.867 55.225, 104.198 63.651 L 100.060 69.802 104.280 69.304 C 111.591 68.441, 131.176 63.994, 139.500 61.307 C 164.334 53.291, 189.071 40.334, 208 25.429 C 218.287 17.329, 218.271 17.432, 209.478 16.124 C 199.775 14.681, 189.658 14.842, 179.136 16.606 M 214.818 25.768 C 203.294 35.149, 200.897 36.847, 189.500 43.698 C 170.447 55.152, 145.727 65.372, 127.470 69.342 C 112.242 72.653, 106.298 73.837, 101.735 74.468 C 97.290 75.083, 96.809 75.443, 94.591 79.820 C 92.193 84.553, 87 99.123, 87 101.119 C 87 102.509, 95.609 101.570, 111.528 98.444 C 147.892 91.302, 184.943 76.083, 215.500 55.735 C 225.370 49.162, 240.788 36.976, 245.495 32.028 L 248.491 28.879 246.213 27.161 C 244.003 25.494, 231.247 20.750, 225.818 19.576 C 223.580 19.092, 221.761 20.116, 214.818 25.768 M 247.675 36.613 C 232.355 50.920, 207.456 67.591, 186.500 77.573 C 152.735 93.655, 130.542 100.402, 90.538 106.747 L 85.575 107.534 84.331 113.517 C 82.987 119.983, 82.609 133.795, 83.636 138.930 L 84.272 142.110 89.886 141.444 C 151.683 134.114, 231.305 97.978, 272.977 58.349 L 279.500 52.146 275.500 47.977 C 271.150 43.442, 262.553 36.610, 257 33.275 L 253.500 31.173 247.675 36.613 M 316 34.495 C 303.448 36.950, 284.841 41.133, 284.107 41.666 C 283.892 41.823, 284.214 42.553, 284.824 43.288 C 285.746 44.399, 287.420 44.321, 294.717 42.831 C 319.231 37.823, 340.275 38.260, 351 44 C 356.895 47.155, 358.496 55.912, 354.898 65.316 C 341.651 99.932, 235.857 163.983, 139 196.027 C 103.986 207.611, 85.699 211.343, 63.500 211.437 C 50.096 211.493, 47.995 211.267, 43.757 209.310 C 37.878 206.594, 34.235 202.768, 33.427 198.463 C 31.987 190.787, 38.601 177.730, 49.627 166.481 C 55.509 160.479, 71.377 147.183, 73.750 146.268 C 74.438 146.003, 75 144.688, 75 143.345 L 75 140.904 70.312 144.129 C 55.296 154.460, 34.378 173.782, 26.062 185 C 19.156 194.318, 16.810 199.501, 16.230 206.723 C 15.732 212.922, 15.775 213.051, 19.405 216.476 C 31.223 227.621, 65.708 227.431, 110.500 215.973 C 203.230 192.254, 313.951 132.431, 360.500 80.899 C 373.223 66.815, 379.371 52.137, 375.978 43.947 C 372.989 36.732, 362.056 32.972, 342.500 32.436 C 330.665 32.111, 326.567 32.429, 316 34.495 M 308 45.515 C 303.325 46.310, 297.326 47.542, 294.669 48.252 C 290.034 49.492, 289.915 49.613, 291.711 51.238 C 293.353 52.725, 294.434 52.800, 300.530 51.851 C 316.857 49.309, 328 54.023, 328 63.472 C 328 64.887, 326.664 68.990, 325.032 72.590 C 318.648 86.670, 292.537 107.344, 254.169 128.699 C 181.057 169.391, 101.860 197.105, 71.638 192.573 C 65.607 191.669, 60.325 187.248, 59.403 182.333 C 58.416 177.074, 62.233 169.784, 70.202 161.708 C 75.382 156.459, 76.745 154.486, 76.202 153.021 C 75.582 151.348, 74.498 151.929, 66.961 157.968 C 50.734 170.970, 41.996 181.873, 39.057 192.788 C 38.081 196.413, 38.170 197.480, 39.662 200.005 C 42.914 205.510, 46.675 206.506, 64 206.450 C 76.742 206.409, 81.966 205.911, 93.356 203.650 C 167.762 188.885, 289.269 128.484, 334.777 83.641 C 353.011 65.675, 356.863 52.565, 345.607 46.786 C 340.234 44.027, 320.642 43.365, 308 45.515 M 271.206 66.025 C 247.052 87.113, 210.958 108.741, 177.541 122.150 C 172.018 124.366, 165.475 127.022, 163 128.052 C 158.049 130.113, 140.527 135.516, 126.500 139.307 C 121.550 140.645, 110.188 143.036, 101.251 144.620 C 88.450 146.889, 85.002 147.830, 85.001 149.056 C 85 149.912, 85.917 153.328, 87.039 156.648 L 89.077 162.685 94.789 161.873 C 116.543 158.782, 133.492 154.783, 153 148.138 C 208.635 129.187, 255.800 103.251, 286.716 74.607 L 292.932 68.847 288.216 62.465 C 285.622 58.954, 283.275 56.101, 283 56.124 C 282.725 56.146, 277.418 60.602, 271.206 66.025 M 302.356 60.715 L 299.213 61.111 302.617 66.765 C 304.490 69.875, 306.557 73.900, 307.212 75.709 C 307.866 77.519, 308.751 79, 309.178 79 C 310.463 79, 317.965 68.986, 318.613 66.406 C 318.944 65.085, 318.981 63.392, 318.694 62.644 C 317.821 60.370, 311.261 59.596, 302.356 60.715 M 292.872 75.673 C 287.714 81.959, 259.486 102.728, 240.500 114.204 C 199.838 138.783, 143.684 159.806, 102.900 165.719 C 96.355 166.668, 91 167.871, 91 168.392 C 91 168.914, 92.387 172.350, 94.083 176.029 L 97.165 182.717 107.833 180.229 C 143.519 171.906, 199.939 148.493, 246.500 122.684 C 263.324 113.358, 290.723 95.653, 297.492 89.734 L 301.484 86.243 298.558 80.121 C 296.949 76.755, 295.320 74, 294.939 74 C 294.557 74, 293.627 74.753, 292.872 75.673 M 302 140.097 C 252.759 171.488, 199.210 196.923, 145 214.670 C 137.575 217.101, 130.895 219.296, 130.156 219.549 C 128.682 220.054, 136.600 225.739, 144.031 229.511 L 148.561 231.811 160.031 229.518 C 211.868 219.155, 265.105 193.987, 303.244 161.815 C 305.669 159.769, 306.218 158.115, 307.972 147.562 C 309.064 140.996, 309.855 135.555, 309.729 135.470 C 309.603 135.385, 306.125 137.468, 302 140.097 M 75.834 168.768 C 68.763 176.232, 67.140 180.934, 70.934 182.965 C 72.817 183.972, 87 184.470, 87 183.529 C 87 183.269, 85.816 180.457, 84.368 177.279 C 82.920 174.100, 81.204 170.046, 80.553 168.268 L 79.370 165.036 75.834 168.768 M 297.500 172.616 C 291.743 177.701, 273.298 189.734, 260.422 196.804 C 230.405 213.288, 188.807 229.046, 164.549 233.121 C 160.397 233.819, 157 234.690, 157 235.056 C 157 236.172, 169.943 239.850, 180 241.592 C 197.584 244.637, 222.026 241.762, 239.284 234.618 C 262.557 224.984, 280.146 209.974, 292.741 189 C 297.339 181.343, 303.196 168.982, 302.197 169.042 C 301.814 169.065, 299.700 170.673, 297.500 172.616" stroke="none" fill="black" fill-rule="evenodd"/>
</svg>