<svg xmlns="http://www.w3.org/2000/svg" width="275" height="265" viewBox="0 0 275 265" version="1.1">
	<path d="M 127.219 9.472 C 122.432 12.209, 121.554 13.003, 117.794 18 C 115.367 21.225, 103.288 44.860, 93.007 66.500 C 90.655 71.450, 88.335 75.756, 87.850 76.069 C 86.992 76.622, 82.863 77.278, 47.500 82.479 C 27.889 85.363, 24.244 86.253, 17.792 89.733 C 10.861 93.471, 7.640 98.687, 7.174 106.923 C 6.552 117.930, 8.077 120.160, 34.198 146.451 C 46.739 159.074, 57 169.862, 57 170.424 C 57 171.576, 52.494 198.829, 51.035 206.500 C 50.512 209.250, 49.311 216.811, 48.367 223.303 C 46.521 235.982, 47.138 241.890, 50.964 248.182 C 55.998 256.460, 67.702 260.133, 77.748 256.589 C 81.851 255.141, 93.234 249.599, 103 244.295 C 126.206 231.691, 136.161 226.916, 138.013 227.504 C 139.117 227.855, 151.604 234.154, 165.760 241.502 C 179.917 248.851, 194.259 255.628, 197.632 256.563 C 208.165 259.482, 215.603 257.109, 222.407 248.659 C 225.248 245.131, 225.528 244.103, 225.844 236.056 C 226.163 227.925, 225.148 216.828, 223.093 206 C 222.214 201.365, 218.392 177.939, 217.604 172.360 C 217.190 169.419, 218.401 167.988, 236.651 149.860 C 258.919 127.740, 264.630 120.826, 266.730 113.444 C 269.957 102.099, 262.896 90.812, 250.255 87.109 C 246.540 86.020, 232.475 83.498, 219 81.503 C 185.721 76.576, 187.057 76.986, 183.191 70.523 C 181.436 67.589, 180 64.949, 180 64.657 C 180 63.958, 162.755 28.913, 159.269 22.527 C 155.924 16.401, 149.940 10.291, 145.444 8.412 C 140.070 6.167, 132.200 6.624, 127.219 9.472 M 130.575 17.120 C 125.564 20.180, 122.503 25.715, 99.908 72.578 C 96.493 79.661, 94.307 82.995, 92.552 83.794 C 89.924 84.992, 86.464 85.600, 63 88.988 C 27.320 94.140, 23.804 94.957, 19.374 99.119 C 18.189 100.231, 16.676 103.087, 16.010 105.464 C 14.003 112.633, 16.524 116.126, 42.397 142.027 L 65.294 164.948 64.721 174.724 C 64.406 180.101, 63.406 187.875, 62.499 192 C 61.591 196.125, 60.461 201.975, 59.986 205 C 59.511 208.025, 58.372 215.225, 57.455 221 C 55.363 234.175, 55.441 237.215, 58.013 242.526 C 60.573 247.816, 64.123 249.474, 71.302 248.733 C 76.648 248.181, 78.039 247.524, 118.820 226.298 C 136.509 217.090, 137.560 216.872, 145.056 220.842 C 146.950 221.845, 160.061 228.591, 174.191 235.833 C 197.381 247.718, 200.386 249, 205.059 249 C 209.739 249, 210.608 248.627, 214.118 245.118 C 217.756 241.479, 218 240.862, 218 235.294 C 218 229.728, 216.275 216.946, 213.979 205.500 C 213.002 200.631, 212.363 196.416, 209.980 179.123 C 209.345 174.515, 209.102 169.268, 209.441 167.463 C 209.928 164.869, 214.281 160.010, 230.159 144.340 C 253.450 121.353, 259 114.560, 259 109.038 C 259 104.947, 256.074 99.849, 251.992 96.828 C 249.253 94.800, 237.499 92.460, 213 89.065 C 188.966 85.735, 184.893 84.996, 181.823 83.408 C 179.552 82.234, 177.209 78.301, 170.389 64.216 C 153.428 29.185, 150.611 23.984, 146.365 19.869 C 143.666 17.253, 142.101 16.604, 137.782 16.307 C 134.828 16.104, 131.652 16.462, 130.575 17.120" stroke="none" fill="black" fill-rule="evenodd"/>
</svg>