<svg xmlns="http://www.w3.org/2000/svg" width="288" height="304" viewBox="0 0 288 304" version="1.1">
	<path d="M 131.500 8.895 C 105.755 12.542, 85.480 20.670, 65.614 35.309 C 38.250 55.472, 15.457 91.122, 9.994 122.303 C 9.397 125.711, 8.479 130.938, 7.954 133.917 C 7.429 136.896, 7.006 145.221, 7.013 152.417 C 7.054 192.590, 23.168 229.904, 52.610 258 C 73.404 277.844, 98.543 290.721, 126.029 295.608 C 137.599 297.665, 163.326 297.971, 174 296.179 C 201.171 291.617, 227.925 278.823, 247.488 261.035 C 264.771 245.322, 283.512 219.103, 281.398 213.595 C 280.469 211.173, 275.408 211.626, 266.314 214.945 C 223.413 230.602, 175.676 216.775, 145.492 179.950 C 137.412 170.092, 127.893 150.986, 124.343 137.500 C 121.997 128.590, 121.673 94.548, 123.857 86.500 C 125.493 80.472, 129.999 67.892, 131.021 66.500 C 131.425 65.950, 132.098 64.387, 132.516 63.026 C 134.008 58.174, 144.394 43.380, 151.388 36.144 C 155.300 32.097, 162.398 25.887, 167.162 22.343 C 171.926 18.799, 176.075 15.248, 176.381 14.450 C 178.165 9.801, 173.526 8.135, 157.089 7.523 C 148.032 7.185, 140.852 7.571, 131.500 8.895 M 138 16.665 C 99.488 20.455, 61.463 42.783, 40.259 74.057 C 31.845 86.467, 24.810 100.503, 21.993 110.500 C 16.857 128.729, 16.696 129.963, 16.655 151.500 C 16.619 171.076, 16.798 173.212, 19.298 183 C 29.384 222.481, 50.943 251.652, 84.500 271.226 C 115.325 289.207, 150.452 293.719, 187.406 284.445 C 214.478 277.650, 242.956 257.880, 261.292 233.151 C 266.756 225.782, 267.082 224.507, 263.250 225.485 C 247.649 229.466, 229.539 230.881, 216 229.177 C 205.282 227.829, 191.567 223.872, 182.445 219.496 C 166.080 211.647, 145.650 195.601, 139.259 185.578 C 137.884 183.422, 136.369 181.172, 135.894 180.578 C 135.419 179.985, 133.945 178.140, 132.619 176.479 C 129.183 172.175, 120.550 154.503, 118.706 148 C 114.407 132.842, 113.703 128.711, 113.231 115.886 C 111.911 80.005, 122.915 52.241, 148.743 26.291 L 158.985 16 150.243 16.160 C 145.434 16.248, 139.925 16.475, 138 16.665 M 89.589 51.077 C 86.561 54.675, 86.241 59.003, 88.829 61.345 C 91.120 63.419, 99.281 63.576, 101.272 61.585 C 103.365 59.492, 105.313 54.257, 104.645 52.518 C 103.740 50.158, 102.492 50.711, 100.930 54.165 C 100.144 55.906, 98.552 57.943, 97.394 58.692 C 95.548 59.885, 94.991 59.801, 92.894 58.016 L 90.500 55.979 94.238 52.644 C 96.294 50.810, 97.681 49.015, 97.321 48.655 C 95.722 47.055, 91.989 48.225, 89.589 51.077 M 50.286 84.946 C 46.253 87.432, 40.058 95.765, 40.025 98.750 C 39.988 102.084, 41.667 101.488, 44.369 97.208 C 47.150 92.802, 52.935 87.473, 55.989 86.503 C 57.156 86.133, 57.938 85.306, 57.727 84.665 C 57.088 82.723, 53.686 82.851, 50.286 84.946 M 56.500 91.844 C 48.057 97.013, 42.090 108.491, 43.580 116.696 C 46.771 134.274, 63.796 139.601, 76.004 126.842 C 81.487 121.112, 82.497 118.336, 82.496 109 C 82.495 99.428, 80.870 95.937, 74.614 92.071 C 70.196 89.340, 60.783 89.222, 56.500 91.844 M 60.500 95.160 C 53.394 97.752, 49 104.846, 49 113.726 C 49 127.609, 59.081 133.704, 70.127 126.500 C 74.678 123.532, 79.019 115.196, 78.952 109.554 C 78.826 98.958, 69.670 91.816, 60.500 95.160 M 37.206 166.048 C 35.944 166.554, 34.230 168.598, 33.398 170.590 C 32.042 173.835, 32.046 174.688, 33.438 178.773 C 35.615 185.161, 37.563 187, 42.155 187 C 47.362 187, 50 184.277, 50 178.901 C 50 173.226, 47.496 168.463, 43.522 166.577 C 41.693 165.710, 40.041 165.029, 39.849 165.063 C 39.657 165.098, 38.468 165.541, 37.206 166.048 M 37.627 171.529 C 34.837 178.802, 42.015 187.450, 45.144 180.584 C 46.022 178.655, 45.867 177.393, 44.372 174.334 C 42.348 170.189, 38.720 168.680, 37.627 171.529 M 89.455 173.455 C 84.050 178.859, 87.456 190.616, 95.536 194.450 C 106.294 199.555, 114.674 188.299, 108.070 177.613 C 103.838 170.765, 94.279 168.630, 89.455 173.455 M 92.469 176.674 C 89.825 179.318, 91.212 184.836, 95.519 188.813 C 99.739 192.709, 102.418 192.685, 105.364 188.725 C 107.403 185.984, 107.405 185.907, 105.544 182.451 C 103.617 178.874, 98.501 175, 95.703 175 C 94.845 175, 93.390 175.753, 92.469 176.674 M 82.013 225.275 C 77.535 227.643, 74 232.689, 74 236.714 C 74 240.184, 77.025 247.202, 79.830 250.243 C 86.122 257.063, 99.409 260.077, 105.696 256.111 C 110.631 252.998, 112.423 249.526, 112.279 243.359 C 112.133 237.119, 109.731 232.558, 104.484 228.556 C 96.645 222.576, 89.178 221.486, 82.013 225.275 M 83.656 229.133 C 81.037 230.655, 78.834 236.471, 79.631 239.758 C 82.728 252.529, 100.206 258.246, 106.550 248.564 C 109.996 243.305, 105.745 234.014, 97.991 229.855 C 94.189 227.817, 86.580 227.433, 83.656 229.133 M 160.365 235.931 C 149.459 238.607, 145.732 250.069, 153.055 258.410 C 154.682 260.262, 157.540 262.503, 159.407 263.389 C 166.326 266.672, 177.997 264.698, 181.535 259.647 C 183.868 256.316, 183.483 245.883, 180.905 242.607 C 176.842 237.441, 167.107 234.277, 160.365 235.931 M 158.523 241.565 C 154.861 243.474, 154.035 244.709, 154.015 248.300 C 153.989 253.194, 156.526 256.550, 162.051 258.927 C 168.754 261.810, 173.900 261.096, 177.532 256.779 C 180.192 253.619, 180.241 249.960, 177.679 245.858 C 174.520 240.799, 164.359 238.522, 158.523 241.565 M 218.051 242.662 C 216.899 244.127, 215.692 246.380, 215.368 247.670 C 214.664 250.474, 217.085 254.575, 219.989 255.497 C 224.789 257.020, 233 251.545, 233 246.820 C 233 243.428, 228.535 240, 224.118 240 C 221.007 240, 219.691 240.577, 218.051 242.662 M 221.655 245.829 C 219.702 247.987, 219.475 250.950, 221.250 251.118 C 225.695 251.540, 228.550 248.896, 226.926 245.862 C 225.663 243.503, 223.771 243.491, 221.655 245.829 M 109.750 257.115 C 106.382 259.628, 106.239 261, 109.345 261 C 112.016 261, 115.527 257.662, 114.539 256.063 C 113.631 254.595, 112.918 254.751, 109.750 257.115" stroke="none" fill="black" fill-rule="evenodd"/>
</svg>