<svg xmlns="http://www.w3.org/2000/svg" width="308" height="301" viewBox="0 0 308 301" version="1.1">
	<path d="M 131 9.153 C 95.564 16.462, 63.768 41.732, 42.485 79.500 C 37.330 88.647, 35.451 92.423, 31.286 102 C 25.655 114.950, 19.449 133.357, 16.453 146 C 15.084 151.775, 13.739 157.400, 13.463 158.500 C 11.085 167.992, 8.773 184.880, 8.297 196.237 C 7.774 208.724, 7.925 210.578, 9.964 216.614 C 25.552 262.760, 84.275 294.218, 155 294.310 C 188.004 294.353, 219.727 287.263, 246.101 273.949 C 265.109 264.354, 283.133 248.234, 291.922 232.969 C 300.077 218.804, 300.478 217.410, 300.837 202 C 301.025 193.942, 300.652 184.168, 299.999 180 C 298.424 169.957, 295.391 154.871, 293.464 147.500 C 292.601 144.200, 291.496 139.700, 291.008 137.500 C 290.520 135.300, 288.252 128.325, 285.967 122 C 283.683 115.675, 281.468 109.375, 281.045 108 C 280.102 104.939, 270.648 85.702, 266.055 77.500 C 260.134 66.926, 249.363 52.677, 240.812 44.108 C 226.392 29.654, 211.706 19.976, 194 13.258 C 177.542 7.013, 150.055 5.222, 131 9.153 M 141.874 16.037 C 128.358 17.615, 111.932 23.362, 99.500 30.862 C 93.108 34.718, 91.657 36.079, 92.792 37.154 C 94.642 38.906, 107.560 43.362, 117 45.504 C 132.235 48.962, 147.472 50.359, 162 49.629 C 182.774 48.585, 195.984 45.919, 210.850 39.770 L 218.199 36.730 214.850 33.858 C 210.062 29.752, 197.127 23.686, 185.500 20.094 C 170.141 15.348, 157.684 14.190, 141.874 16.037 M 80.937 44.729 C 77.947 47.208, 74.375 50.619, 73 52.308 C 71.625 53.998, 68.643 57.496, 66.374 60.084 C 62.590 64.397, 56.974 72.183, 52.847 78.835 C 50.566 82.511, 40.950 101.945, 37.024 110.811 C 33.293 119.238, 30.824 127.829, 31.511 130 C 33.318 135.716, 63.711 148.728, 80.810 151.106 C 84.874 151.672, 88.296 151.991, 88.414 151.817 C 88.622 151.511, 94.116 127.193, 96.054 118 C 99.123 103.447, 100.169 100.421, 103.220 97.273 C 108.167 92.169, 111.444 91.540, 125.412 93.011 C 141.915 94.750, 165.658 94.784, 182.559 93.094 C 190.291 92.320, 197.840 91.994, 199.334 92.369 C 203.624 93.446, 209.789 100.258, 210.489 104.694 C 211.080 108.444, 211.344 109.592, 214.361 121.500 C 215.197 124.800, 216.338 129.525, 216.897 132 C 219.840 145.040, 221.140 150.613, 221.481 151.647 C 222.241 153.958, 245.802 148.007, 258.500 142.297 C 265.934 138.954, 279 131.087, 279 129.953 C 279 127.749, 272.383 109.757, 268.577 101.610 C 258.539 80.127, 247.964 64.256, 235.153 51.445 C 223.684 39.976, 223.885 40.046, 214.364 44.293 C 207.198 47.491, 200.570 49.394, 183.500 53.155 C 179.493 54.038, 170.192 54.464, 155.500 54.436 C 136.695 54.401, 131.902 54.067, 122.500 52.140 C 107.924 49.151, 102.260 47.460, 93.602 43.515 L 86.374 40.221 80.937 44.729 M 110.500 98.330 C 108.849 99.080, 106.967 100.335, 106.316 101.119 C 104.773 102.979, 101.217 115.745, 99.943 124 C 98.788 131.483, 95.418 147.062, 93.980 151.571 C 93.441 153.260, 93.006 155.510, 93.013 156.571 C 93.028 158.796, 90.125 172.559, 84.803 195.500 C 84.292 197.700, 83.535 201.624, 83.120 204.220 L 82.366 208.941 91.433 210.979 C 108.049 214.714, 122.883 216.197, 148.831 216.716 C 175.225 217.244, 186.464 216.533, 208.500 212.942 C 225.966 210.095, 226.535 209.887, 226.325 206.406 C 225.989 200.814, 224.234 191.374, 220.673 176 C 218.699 167.475, 216.433 156.900, 215.637 152.500 C 214.265 144.906, 210.154 126.136, 206.373 110.203 C 205.374 105.993, 203.706 101.895, 202.429 100.518 C 199.484 97.341, 193.834 96.392, 187.011 97.929 C 178.836 99.771, 143.354 100.486, 132.500 99.026 C 117.432 97.001, 113.687 96.882, 110.500 98.330 M 144.727 109.953 C 135.455 112.916, 128.854 118.737, 124.271 127.990 C 121.961 132.652, 121.547 134.746, 121.578 141.597 C 121.610 148.448, 122.059 150.601, 124.503 155.597 C 132.380 171.701, 148.672 179.485, 164.113 174.520 C 174.453 171.195, 180.640 165.826, 185.083 156.322 C 187.556 151.032, 188 148.844, 188 141.938 C 188 134.505, 187.682 133.187, 184.361 126.867 C 179.799 118.186, 172.477 112.017, 163.910 109.635 C 156.458 107.563, 151.971 107.637, 144.727 109.953 M 145.718 115.437 C 139.698 117.585, 135.397 121.046, 131.619 126.784 C 122.330 140.889, 127.289 159.345, 142.500 167.280 C 150.900 171.662, 158.262 171.622, 167.353 167.147 C 184.829 158.544, 188.184 136.675, 174.252 122.187 C 167.540 115.206, 154.807 112.194, 145.718 115.437 M 145.444 120.886 C 140.513 123.126, 134.348 130.086, 133.002 134.935 C 127.252 155.631, 148.779 172.461, 166.773 161.337 C 178.257 154.237, 181.109 139.773, 173.239 128.543 C 167.388 120.195, 154.676 116.693, 145.444 120.886 M 146.800 126.146 C 145.315 126.689, 142.728 129.205, 141.050 131.738 C 138.556 135.504, 138.003 137.359, 138.016 141.921 C 138.047 152.351, 144.374 159, 154.267 159 C 163.177 159, 168.723 154.993, 171.185 146.778 C 173.411 139.346, 168.442 128.396, 161.791 126.077 C 158.034 124.767, 150.473 124.802, 146.800 126.146 M 27.671 138.250 C 27.362 139.488, 26.363 142.975, 25.452 146 C 22.038 157.336, 17.120 186.040, 17.046 195.063 C 17.006 199.867, 17.375 200.980, 19.750 203.220 C 27.056 210.112, 47.681 218.997, 66.897 223.530 C 70.415 224.360, 73.452 224.881, 73.646 224.688 C 74.147 224.186, 75.896 215.545, 76.921 208.500 C 77.401 205.200, 78.279 200.475, 78.871 198 C 81.056 188.880, 86.317 164.403, 86.750 161.348 C 87.259 157.753, 87.518 157.891, 75.857 155.518 C 62.083 152.716, 40.742 144.161, 31.846 137.875 C 28.500 135.511, 28.352 135.525, 27.671 138.250 M 277.479 138.082 C 267.666 144.747, 248.728 152.310, 232.750 155.946 C 221.740 158.451, 222.018 158.057, 224.418 167.765 C 227.785 181.382, 231.141 197.285, 234.544 215.750 C 235.481 220.838, 236.620 225, 237.075 225 C 238.579 225, 249.372 222.030, 257.500 219.379 C 268.799 215.695, 284.805 207.659, 289.373 203.378 L 293.246 199.748 292.074 189.124 C 289.892 169.334, 283.719 139.319, 281.343 136.943 C 280.831 136.431, 279.204 136.911, 277.479 138.082 M 238.610 163.151 C 232.729 168.210, 234.946 179.539, 242.178 181.382 C 247.050 182.624, 252.639 179.920, 253.523 175.893 C 254.418 171.820, 253.192 165.483, 251.151 163.637 C 250.214 162.789, 247.625 161.804, 245.396 161.447 C 242.023 160.908, 240.887 161.194, 238.610 163.151 M 241.997 167.503 C 238.771 171.391, 241.774 177.776, 246.296 176.641 C 249.378 175.867, 250.129 173.212, 248.418 169.142 C 246.974 165.710, 244.096 164.975, 241.997 167.503 M 202.750 178.572 C 199.702 180.226, 199.156 183.314, 201.343 186.527 C 202.081 187.612, 203.278 192.037, 204.003 196.360 C 205.455 205.022, 207.870 208.675, 211.026 206.986 C 211.982 206.474, 213.057 205.295, 213.414 204.365 C 214.247 202.192, 213.013 191.126, 211.858 190.412 C 211.374 190.113, 211.658 188.898, 212.489 187.712 C 214.532 184.796, 214.390 182.766, 211.927 179.635 C 209.606 176.683, 206.825 176.361, 202.750 178.572 M 205 183.500 C 205 184.333, 205.889 185, 207 185 C 208.111 185, 209 184.333, 209 183.500 C 209 182.667, 208.111 182, 207 182 C 205.889 182, 205 182.667, 205 183.500 M 207.349 191.750 C 207.614 192.713, 208.130 195.692, 208.495 198.371 C 208.860 201.049, 209.517 202.849, 209.956 202.371 C 210.940 201.296, 208.896 190, 207.718 190 C 207.249 190, 207.083 190.787, 207.349 191.750 M 291.030 209.464 C 289.473 211.340, 271.881 219.901, 261.500 223.834 C 257.100 225.501, 247.650 228.269, 240.500 229.983 C 223.944 233.954, 226.293 233.505, 205.407 236.693 C 188.820 239.225, 185.178 239.429, 156 239.463 C 123.559 239.501, 109.521 238.301, 85 233.394 C 66.794 229.751, 39.773 221.716, 36.448 218.957 C 35.832 218.445, 33.417 217.353, 31.081 216.529 C 28.746 215.705, 24.825 213.674, 22.368 212.015 C 19.910 210.357, 17.709 209, 17.475 209 C 16.737 209, 18.229 215.387, 19.607 218.131 C 23.369 225.623, 41.474 234.683, 66 241.348 C 71.934 242.961, 93.455 247.228, 104 248.883 C 125.427 252.247, 167.048 252.734, 194.500 249.943 C 214.577 247.902, 241.548 242.447, 255.823 237.540 C 281.605 228.677, 290.306 222.415, 292.354 211.250 C 293.019 207.625, 292.800 207.331, 291.030 209.464 M 80.492 218.653 C 80.130 221.319, 79.758 224.163, 79.667 224.973 C 79.469 226.721, 88.497 228.767, 109 231.621 C 129.654 234.496, 180.210 234.269, 203 231.198 C 222.141 228.620, 230.578 226.852, 230.309 225.477 C 230.205 224.939, 229.825 222.363, 229.466 219.750 C 229.106 217.137, 228.466 215, 228.043 215 C 227.619 215, 224.849 215.460, 221.886 216.023 C 191.703 221.752, 164.092 223.794, 138.817 222.166 C 118.255 220.842, 93.918 217.448, 83.326 214.426 C 81.362 213.866, 81.088 214.275, 80.492 218.653 M 268.204 240.607 C 258.587 244.582, 246.272 248.279, 233.500 251.027 C 171.675 264.327, 99.349 261.012, 46.038 242.434 C 39.183 240.046, 33.400 238.266, 33.186 238.480 C 32.392 239.275, 42.736 249.433, 49.621 254.619 C 67.337 267.964, 96.246 279.382, 123 283.602 C 139.002 286.125, 173.549 286.151, 187 283.650 C 215.368 278.374, 235.791 270.781, 254.614 258.511 C 263.354 252.814, 272.608 244.763, 276.176 239.753 C 278.590 236.362, 278.434 236.379, 268.204 240.607" stroke="none" fill="black" fill-rule="evenodd"/>
</svg>