<svg xmlns="http://www.w3.org/2000/svg" width="348" height="282" viewBox="0 0 348 282" version="1.1">
	<path d="M 165.764 7.502 C 159.310 8.204, 150.760 9.536, 146.764 10.463 C 136.830 12.768, 121 18.133, 121 19.195 C 121 21.061, 124.459 21.192, 132.285 19.623 C 162.365 13.590, 192.936 15.728, 216.611 25.520 C 230.834 31.403, 240.458 38.451, 249.609 49.687 C 256.617 58.291, 258.284 62.766, 258.991 74.866 C 259.491 83.446, 259.922 85.470, 261.489 86.616 C 264.283 88.659, 266.780 88.311, 269.608 85.483 C 272.250 82.841, 272.199 79.989, 269.455 77.098 C 268.334 75.917, 268.139 76.199, 268.216 78.895 C 268.336 83.121, 266.570 84.934, 265.068 82.128 C 263.671 79.517, 264.715 75, 266.715 75 C 267.749 75, 267.991 74.457, 267.496 73.250 C 267.102 72.288, 265.754 68.243, 264.502 64.263 C 258.323 44.623, 239.925 27.359, 215.536 18.314 C 204.181 14.103, 210.132 15.076, 223.336 19.590 C 238.158 24.656, 251.555 32.777, 260.615 42.187 C 272.327 54.352, 277.142 62.446, 281.232 76.841 C 284.160 87.146, 284.329 105.503, 281.585 115 C 272.386 146.826, 247.038 171.396, 213.404 181.086 C 207.156 182.886, 202.880 183.377, 193 183.430 C 176.831 183.517, 168.644 181.066, 160.429 173.678 C 157.443 170.992, 155 168.431, 155 167.987 C 155 167.544, 157.363 168.326, 160.250 169.726 C 168.641 173.795, 176.356 175.268, 188.832 175.183 C 199.903 175.108, 206.897 173.773, 213 170.570 C 214.375 169.848, 217.300 168.685, 219.500 167.984 C 223.978 166.559, 229.931 162.735, 234.900 158.094 C 236.721 156.392, 238.557 155, 238.978 155 C 239.400 155, 242.318 151.794, 245.462 147.875 C 252.447 139.169, 255.163 133.379, 258.540 120 C 263.974 98.474, 252.792 71.787, 231.500 55.466 C 227.495 52.396, 211.764 44.630, 205.400 42.581 C 188.184 37.038, 163.170 35.639, 141.275 38.995 C 102.603 44.922, 71.360 60.647, 43.944 87.981 C 23.977 107.889, 14.860 122.633, 9.004 144.486 C 6.451 154.011, 5.611 162.085, 6.973 164 C 7.890 165.288, 8.320 165.167, 10.020 163.139 C 11.109 161.841, 12 159.697, 12 158.376 C 12 157.054, 12.400 155.191, 12.888 154.236 C 13.377 153.281, 15.702 148.450, 18.055 143.500 C 29.176 120.105, 54.117 94.638, 77 83.312 C 78.925 82.359, 81.175 81.050, 82 80.403 C 86.202 77.109, 110.046 68.699, 123.500 65.767 C 137.362 62.745, 169.599 62.525, 181 65.374 C 203.597 71.022, 220.883 82.978, 227.804 97.747 C 230.172 102.799, 230.500 104.724, 230.500 113.552 C 230.500 123.153, 230.333 123.938, 226.778 131.052 C 224.731 135.148, 220.808 140.975, 218.061 144 L 213.066 149.500 216.393 142.763 C 218.224 139.058, 220.304 133.280, 221.017 129.922 C 225.069 110.828, 210.731 89.462, 188.435 81.369 C 150.208 67.493, 98.296 81.423, 65.505 114.355 C 46.070 133.873, 35.786 153.912, 33.098 177.500 C 31.578 190.839, 33.851 205.961, 37.592 207.397 C 38.366 207.694, 39.004 207.614, 39.008 207.219 C 39.288 182.923, 40.035 169.704, 41.394 165 C 42.725 160.392, 50.035 144.856, 54.332 137.500 C 57.104 132.755, 73.415 115.410, 81.205 108.924 C 95.652 96.895, 118.810 86.760, 138.304 83.935 C 147.762 82.564, 164.859 82.541, 172.985 83.889 C 196.043 87.713, 213.496 103.225, 214.770 121.026 C 215.297 128.388, 213.939 133.606, 209.577 140.985 L 207.500 144.500 206.933 137.500 C 206.320 129.931, 202.851 117.617, 199.749 112 C 192.837 99.485, 177.380 92.602, 156.500 92.742 C 120.327 92.985, 83.350 117.045, 68.056 150.290 C 61.720 164.062, 60.524 169.664, 60.539 185.500 C 60.551 198.815, 60.715 199.962, 63.897 208.932 C 71.470 230.280, 82.440 244.055, 102.364 257.236 C 113.597 264.667, 134.015 272.202, 147.855 274.024 C 158.686 275.450, 176.138 275.478, 187.500 274.087 C 208.638 271.499, 229.869 264.680, 223.290 262.592 C 222.291 262.275, 216.080 262.911, 209.487 264.005 C 188.509 267.486, 166.250 266.406, 147.996 261.020 C 134.555 257.053, 120.135 249.792, 113.500 243.648 C 112.400 242.629, 110.044 240.669, 108.265 239.290 C 100.740 233.463, 92.300 217.712, 89.626 204.505 C 88.767 200.266, 87.912 198.414, 86.703 198.181 C 84.078 197.676, 83.596 200.513, 84.977 208.343 C 87.021 219.931, 87.773 222.183, 91.734 228.590 C 101.314 244.082, 119.207 258.245, 136.447 263.982 C 140.121 265.205, 142.937 266.397, 142.703 266.630 C 142.469 266.864, 138.503 265.867, 133.889 264.414 C 111.772 257.451, 94.972 246.253, 82.640 230.252 C 76.974 222.902, 74.243 217.659, 69.857 205.721 C 67.287 198.723, 67.002 196.717, 67.024 185.721 C 67.041 176.833, 67.570 171.591, 68.965 166.500 C 72.860 152.291, 72.452 153.188, 80.204 141.730 C 89.554 127.910, 102.487 116.813, 118.827 108.589 C 143.973 95.934, 174.301 96.340, 188.896 109.525 C 193.504 113.688, 193.677 114.914, 189.343 112.686 C 187.779 111.882, 182.542 110.218, 177.705 108.988 C 170.322 107.111, 167.110 106.830, 157.705 107.240 C 145.476 107.773, 136.760 110.262, 126 116.296 C 120.183 119.557, 107.013 129.596, 106.981 130.793 C 106.970 131.182, 105.368 133.300, 103.421 135.500 C 99.213 140.253, 94.695 148.954, 91.755 157.968 C 88.404 168.240, 88.855 181.955, 92.903 192.822 C 99.401 210.267, 112.241 224.056, 131.034 233.769 C 148.148 242.615, 160.914 245.302, 185.500 245.236 C 205.823 245.181, 216.282 243.554, 235.577 237.443 C 245.893 234.176, 264.877 225.324, 274.778 219.162 C 288.834 210.416, 304.951 196.346, 314.500 184.486 C 316.700 181.753, 319.512 178.393, 320.750 177.019 C 321.988 175.645, 323 174.173, 323 173.749 C 323 173.325, 325.142 169.496, 327.760 165.239 C 330.378 160.983, 333.122 155.925, 333.857 154 C 337.801 143.672, 340.068 136.276, 341.093 130.386 C 342.091 124.658, 342.030 123.601, 340.619 122.191 C 338.334 119.905, 336.704 121.825, 333.989 130 C 326.513 152.517, 307.394 175.822, 281.248 194.290 C 278.359 196.331, 275.740 198, 275.428 198 C 275.116 198, 272.979 199.292, 270.680 200.871 C 266.087 204.025, 247.593 211.587, 236.320 214.920 C 232.371 216.088, 222.696 217.965, 214.820 219.092 C 202.070 220.917, 199.143 221.018, 188.129 220.011 C 154.280 216.917, 130.450 204.113, 121.107 184 C 114.644 170.086, 118.926 149.875, 130.642 139 C 132.716 137.075, 133.931 136.175, 133.341 137 C 132.752 137.825, 131.024 141.650, 129.502 145.500 C 126.136 154.014, 125.665 165.085, 128.396 171.489 C 131.601 179.003, 138.135 187.462, 144.349 192.142 C 152.002 197.905, 154.169 198.990, 166 202.986 C 182.983 208.722, 205.820 208.360, 226.288 202.031 C 243.290 196.774, 254.311 191.578, 266.868 182.900 C 273.456 178.347, 291.521 161.646, 293.243 158.518 C 293.934 157.261, 296.338 153.818, 298.584 150.867 C 303.957 143.806, 313 125.610, 313 121.860 C 313 120.232, 313.678 117.590, 314.506 115.988 C 317.901 109.422, 317.415 80.569, 313.777 72.758 C 311.079 66.965, 310.500 69.923, 310.450 89.750 C 310.401 109.343, 310.375 109.573, 307.196 118.659 C 301.753 134.218, 298.203 140.933, 289.570 152 C 275.291 170.306, 256.876 183.770, 234.377 192.356 C 200.694 205.210, 162.693 201.632, 144.866 183.929 C 132.085 171.237, 130.059 158.389, 138.338 142.540 L 141.494 136.500 142.102 144 C 143.520 161.489, 146.335 169.099, 154.354 177.123 C 178.909 201.694, 234.281 191.668, 265.770 156.951 C 270.277 151.982, 278 141.558, 278 140.444 C 278 140.249, 279.125 138.431, 280.500 136.405 C 281.875 134.379, 283 131.749, 283 130.560 C 283 129.372, 283.389 127.973, 283.864 127.450 C 284.850 126.365, 286.455 121.939, 288.741 114 C 289.836 110.197, 290.298 104.644, 290.240 96 C 290.170 85.595, 289.714 81.992, 287.516 74.500 C 286.064 69.550, 284.454 65.073, 283.938 64.550 C 283.422 64.028, 283 63.027, 283 62.327 C 283 59.576, 273.585 46.016, 266.730 38.895 C 249.242 20.727, 224.870 9.829, 195.500 7.045 C 182.528 5.815, 181.084 5.837, 165.764 7.502 M 75.383 29.583 C 67.595 33.425, 68.360 44.163, 76.668 47.635 C 79.685 48.895, 80.475 48.868, 83.572 47.399 C 88.011 45.292, 90 42.450, 90 38.212 C 90 33.580, 88.418 31.073, 84.452 29.415 C 80.229 27.651, 79.263 27.669, 75.383 29.583 M 76.063 36.250 C 74.353 40.659, 79.967 44.932, 83.555 41.954 C 85.310 40.498, 85.442 36.842, 83.800 35.200 C 81.703 33.103, 77.038 33.736, 76.063 36.250 M 294.008 35.984 C 291.338 36.629, 289.039 40.155, 289.015 43.639 C 288.975 49.399, 297.834 53.166, 301.887 49.113 C 304.017 46.983, 304.415 43.705, 303.113 39.033 C 302.353 36.305, 298.299 34.948, 294.008 35.984 M 294.362 41.500 C 293.484 43.787, 294.713 46, 296.862 46 C 299.227 46, 300.441 43.237, 298.895 41.373 C 297.390 39.560, 295.081 39.625, 294.362 41.500 M 148.903 44.451 C 123.960 47.591, 100.585 55.489, 80 67.732 C 69.096 74.217, 41.903 97.236, 43.390 98.723 C 43.641 98.975, 46.881 96.607, 50.588 93.462 C 67.725 78.925, 94.586 65.771, 118.653 60.131 C 138.907 55.385, 169.452 55.546, 186.610 60.489 C 208.127 66.687, 226.174 78.971, 232.992 92.060 C 238.023 101.716, 239.220 114.693, 236.103 125.763 C 233.428 135.259, 232.705 136.806, 228.041 142.997 C 220.566 152.921, 210.392 160.165, 198.524 164.015 C 196.337 164.724, 193.187 166.147, 191.524 167.178 L 188.500 169.052 193 168.451 C 212.959 165.785, 227.220 158.487, 239.124 144.848 C 248.705 133.870, 252.477 123.717, 252.443 109 C 252.423 100.173, 251.982 97.247, 249.677 90.634 C 242.673 70.534, 224.982 54.915, 201.402 48.013 C 188.119 44.125, 164.320 42.510, 148.903 44.451 M 143.500 116.480 C 132.026 119.884, 122.714 125.364, 113.731 134 C 106.828 140.635, 105.410 142.653, 101.430 151.500 C 96.335 162.827, 94.951 172.115, 96.850 182.237 C 98.171 189.272, 103.888 201.907, 107.467 205.697 C 108.923 207.239, 110.814 209.625, 111.670 211 C 113.759 214.354, 123.235 222.033, 130.554 226.300 C 142.905 233.502, 154.805 237.033, 173.526 239.050 C 207.773 242.740, 249.888 229.732, 282.599 205.358 C 290.739 199.293, 307 184.262, 307 182.802 C 307 182.242, 304.252 184.329, 300.894 187.438 C 281.171 205.697, 251.029 219.836, 220.687 225.061 C 183.461 231.470, 144.467 221.550, 124.500 200.590 C 115.159 190.785, 111.536 181.552, 111.517 167.500 C 111.503 158.003, 111.691 157.104, 115.248 149.616 C 122.424 134.512, 130.677 126.751, 147.317 119.464 C 153.193 116.891, 158 114.609, 158 114.393 C 158 113.307, 150.611 114.370, 143.500 116.480 M 167.500 116.669 C 166.400 116.971, 163.209 118.582, 160.409 120.248 C 154.400 123.823, 150.684 129.388, 149.050 137.260 C 145.293 155.358, 163.710 169.661, 183.236 163.811 C 188.043 162.371, 196.154 155.303, 198.378 150.616 C 200.606 145.921, 200.470 135.632, 198.112 130.440 C 196.253 126.348, 191.139 121.623, 185.379 118.678 C 182.088 116.995, 170.891 115.737, 167.500 116.669 M 44.500 226.155 C 37.566 229.948, 38.878 239.067, 46.700 241.437 C 49.799 242.375, 54.477 239.677, 55.961 236.094 C 57.057 233.449, 56.947 232.734, 55.032 230.045 C 51.580 225.197, 48.399 224.022, 44.500 226.155 M 45.930 231.584 C 44.406 233.421, 45.706 236.301, 48.290 236.810 C 50.548 237.255, 52.500 233.307, 50.947 231.436 C 49.391 229.561, 47.564 229.615, 45.930 231.584 M 269.092 233.402 C 265.886 236.814, 265.377 242.675, 267.933 246.750 C 269.859 249.823, 270.295 250, 275.904 250 C 281.562 250, 281.933 249.844, 283.918 246.632 C 286.390 242.633, 286.534 239.934, 284.490 235.980 C 282.586 232.300, 280.173 231, 275.240 231 C 272.425 231, 270.725 231.664, 269.092 233.402 M 272.567 237.926 C 270.276 240.457, 270.882 243.077, 274.189 244.932 C 276.631 246.303, 277.043 246.271, 278.932 244.562 C 281.231 242.481, 281.637 239.037, 279.800 237.200 C 278.004 235.404, 274.535 235.752, 272.567 237.926" stroke="none" fill="black" fill-rule="evenodd"/>
</svg>