<svg xmlns="http://www.w3.org/2000/svg" width="321" height="321" viewBox="0 0 321 321" version="1.1">
	<path d="M 33.369 31.750 C 19.334 45.913, 7.488 58.400, 7.044 59.500 C 6.600 60.600, 6.630 62.252, 7.111 63.171 C 7.592 64.090, 24.236 80.965, 44.098 100.671 C 63.959 120.377, 83.394 139.762, 87.287 143.750 C 96.850 153.546, 97.733 153.508, 107.835 142.862 C 116.474 133.760, 118.242 133.321, 121.547 139.458 L 123.387 142.873 115.693 150.926 C 106.473 160.577, 105.987 162.766, 111.671 169.057 L 115.341 173.120 112.369 176.093 L 109.396 179.065 103.448 176.431 C 91.361 171.079, 75.428 169.585, 61.500 172.499 C 53.078 174.261, 38.906 181.032, 36.057 184.655 C 31.352 190.636, 34.225 200.719, 45.268 216.985 C 58.640 236.681, 57.514 233.765, 55.482 243.447 C 53.820 251.369, 53.575 251.835, 50.780 252.394 C 44.278 253.694, 39 260.018, 39 266.508 C 39 270.621, 42.542 276.438, 46.268 278.445 C 53.975 282.595, 63.390 278.388, 66.461 269.422 C 67.751 265.657, 68.077 265.433, 74.652 263.832 C 84.445 261.446, 85.295 261.560, 90.664 265.993 C 104.063 277.056, 118.926 285.617, 126.549 286.662 C 130.909 287.259, 131.225 287.122, 135.286 282.858 C 138.075 279.930, 140.567 275.741, 142.654 270.467 C 148.118 256.667, 148.422 255.150, 148.309 242.294 C 148.202 230.101, 146.465 221.668, 142.470 213.941 C 141.196 211.478, 141.297 211.090, 143.852 208.642 C 147.302 205.337, 147.823 205.366, 151.447 209.058 C 153.068 210.710, 155.511 212.341, 156.876 212.684 C 160.507 213.595, 166.878 209.827, 172.513 203.435 C 175.148 200.446, 178.082 198, 179.033 198 C 179.984 198, 181.884 199.470, 183.254 201.266 L 185.744 204.531 177.892 213.016 C 172.173 219.194, 170.033 222.232, 170.019 224.194 C 170.003 226.424, 177.407 234.255, 213.035 269.694 C 236.705 293.237, 256.909 312.886, 257.933 313.357 C 259.034 313.864, 260.536 313.800, 261.607 313.200 C 262.603 312.642, 274.799 300.793, 288.709 286.869 C 307.401 268.158, 314 260.939, 314 259.203 C 314 257.441, 303.186 246.027, 270.750 213.553 C 246.962 189.738, 226.465 169.933, 225.201 169.543 C 222.170 168.608, 219.019 170.727, 211.500 178.754 L 205.500 185.160 201.807 181.330 L 198.114 177.500 204.645 170.520 C 208.237 166.682, 211.586 162.774, 212.088 161.836 C 214.017 158.232, 213.088 154.235, 209.415 150.341 L 205.831 146.541 208.828 143.863 L 211.825 141.185 218.462 143.594 C 238.965 151.036, 256.817 150.473, 274.552 141.826 C 286.631 135.937, 289.224 130.277, 285.152 118.692 C 283.083 112.804, 281.649 110.476, 271.128 95.924 L 263.756 85.728 265.956 76.470 L 268.155 67.212 272.427 65.581 C 278.228 63.366, 280.862 60.283, 281.609 54.839 C 283.026 44.499, 274.688 36.693, 264.653 38.963 C 259.537 40.120, 256.433 43.224, 255.101 48.514 C 254.441 51.136, 253.309 53.072, 252.253 53.389 C 251.289 53.678, 247.149 54.830, 243.053 55.948 L 235.607 57.982 231.053 54.156 C 224.570 48.709, 211.153 39.618, 204.983 36.491 C 202.091 35.026, 197.390 33.586, 194.536 33.292 C 189.782 32.801, 189.049 33.018, 185.786 35.883 C 181.785 39.396, 177.130 47.848, 174.361 56.629 C 172.892 61.286, 172.535 65.395, 172.634 76.500 C 172.746 88.996, 173.049 91.306, 175.454 98 C 176.935 102.125, 178.399 106.313, 178.706 107.308 C 179.060 108.457, 178.267 110.156, 176.527 111.971 L 173.791 114.827 169.319 111.414 C 162.131 105.927, 159.602 106.478, 150.363 115.539 L 142.675 123.078 139.338 119.843 C 137.502 118.063, 136 116.115, 136 115.512 C 136 114.910, 139.371 111.060, 143.492 106.958 C 149.308 101.168, 150.985 98.862, 150.992 96.646 C 150.999 94.212, 144.820 87.636, 109.075 52.028 C 65.801 8.919, 62.708 6, 60.308 6 C 59.526 6, 47.403 17.587, 33.369 31.750 M 50.646 26.155 L 41.029 36.337 45.843 41.419 C 48.491 44.213, 53.903 49.629, 57.869 53.453 L 65.081 60.407 75.155 50.333 L 85.228 40.260 77.843 32.880 C 73.782 28.821, 68.164 23.356, 65.361 20.736 L 60.262 15.972 50.646 26.155 M 26.959 50.488 C 21.757 55.683, 17.500 60.409, 17.500 60.990 C 17.500 61.572, 22.664 67.209, 28.975 73.518 L 40.449 84.988 45.944 79.744 C 54.122 71.941, 60 65.651, 60 64.705 C 60 63.933, 44.771 48.439, 38.935 43.272 L 36.418 41.044 26.959 50.488 M 195.633 44.674 C 196.251 47.136, 207.232 64.408, 208.792 65.371 C 209.181 65.611, 213.254 64.814, 217.842 63.600 L 226.184 61.392 221.842 57.922 C 212.159 50.184, 205.219 45.935, 197.423 42.971 C 195.131 42.099, 195.015 42.210, 195.633 44.674 M 78.498 54.362 C 73.663 59.511, 69.706 64.078, 69.706 64.510 C 69.706 64.942, 75.059 70.635, 81.603 77.161 L 93.500 89.026 99.448 82.763 C 102.720 79.318, 107.185 74.604, 109.371 72.286 L 113.346 68.072 101.423 56.548 C 94.865 50.210, 89.003 45.019, 88.395 45.012 C 87.788 45.006, 83.334 49.213, 78.498 54.362 M 264.036 48.964 C 262.547 50.453, 262.096 51.770, 262.550 53.301 C 264.501 59.881, 274 59.259, 274 52.551 C 274 47.911, 267.447 45.553, 264.036 48.964 M 186.242 49.614 C 185.706 50.651, 184.262 54.564, 183.033 58.309 C 181.084 64.247, 180.851 66.679, 181.214 77.309 C 181.878 96.746, 187.116 108.172, 201.765 122.137 C 214.778 134.543, 228.567 140.414, 244.500 140.332 C 253.872 140.284, 259.221 139.214, 267.263 135.778 L 272.027 133.742 265.419 129.881 C 252.849 122.535, 239.435 111.540, 223.750 95.724 C 215.088 86.989, 208 79.421, 208 78.906 C 208 78.390, 205.357 74.713, 202.127 70.734 C 198.897 66.755, 194.221 59.951, 191.735 55.614 C 187.847 48.827, 187.080 47.991, 186.242 49.614 M 243.594 62.868 C 241.011 63.430, 240.866 63.648, 242.296 64.833 C 243.663 65.966, 244.242 65.853, 246.141 64.083 C 248.477 61.907, 248.333 61.838, 243.594 62.868 M 246.901 71.750 C 242.724 75.463, 236.913 80.539, 233.987 83.031 L 228.667 87.562 230.449 90.281 C 231.428 91.777, 232.609 93, 233.072 93 C 233.535 93, 236.521 89.738, 239.707 85.750 C 242.893 81.763, 247.863 75.682, 250.750 72.237 C 253.637 68.792, 256 65.754, 256 65.487 C 256 64.103, 253.799 65.618, 246.901 71.750 M 222.047 68.482 C 217.948 69.713, 214.440 71.179, 214.253 71.742 C 214.065 72.304, 216.117 75.162, 218.811 78.093 L 223.711 83.421 227.105 80.580 C 228.972 79.017, 231.945 76.476, 233.711 74.933 L 236.923 72.129 234.060 69.064 C 232.486 67.379, 230.816 66.055, 230.349 66.123 C 229.882 66.190, 226.146 67.252, 222.047 68.482 M 54.748 78.637 C 49.387 83.938, 45 88.558, 45 88.903 C 45 89.914, 68.885 113.446, 69.408 112.951 C 76.701 106.039, 89 93.487, 89 92.955 C 89 92.186, 66.402 69.667, 65.212 69.249 C 64.818 69.112, 60.110 73.336, 54.748 78.637 M 257.164 74.770 C 255.440 77.191, 255.367 77.781, 256.585 79.447 C 258.326 81.828, 258.603 81.521, 259.474 76.250 C 260.295 71.276, 259.853 70.993, 257.164 74.770 M 108.446 81.257 C 104.016 85.791, 99.791 90.297, 99.056 91.271 C 97.859 92.858, 98.954 94.290, 109.582 105.041 L 121.444 117.041 131.369 106.970 L 141.294 96.898 137.897 93.211 C 128.678 83.203, 118.393 73.021, 117.500 73.017 C 116.950 73.015, 112.876 76.723, 108.446 81.257 M 246.864 86.750 C 245.483 88.263, 242.901 91.393, 241.126 93.707 L 237.900 97.915 241.862 101.494 C 244.041 103.463, 246.942 105.953, 248.308 107.028 C 251.311 109.390, 251.421 109.203, 253.536 98.146 C 254.943 90.796, 254.942 90.790, 252.353 87.396 C 250.928 85.528, 249.675 84, 249.568 84 C 249.462 84, 248.244 85.237, 246.864 86.750 M 257.780 104.602 L 255.230 113.107 260.721 117.163 C 265.894 120.985, 278.072 127.226, 278.862 126.460 C 279.791 125.560, 270.435 108.779, 265.670 102.799 L 260.330 96.097 257.780 104.602 M 83.165 107.274 L 72.974 117.444 84.721 129.222 C 91.182 135.700, 96.847 141, 97.310 141 C 98.190 141, 116.265 122.418, 116.816 120.948 C 117.114 120.151, 103.460 105.977, 96.544 99.905 L 93.355 97.105 83.165 107.274 M 150.607 127.250 C 145.162 132.887, 135.599 142.781, 129.354 149.235 C 123.109 155.689, 118 161.553, 118 162.267 C 118 162.980, 127.266 172.775, 138.590 184.032 L 159.180 204.500 181.639 181.647 C 193.991 169.077, 203.963 158.391, 203.799 157.900 C 203.108 155.835, 163.473 117, 162.056 117 C 161.203 117, 156.051 121.612, 150.607 127.250 M 182.750 118.892 C 181.787 119.869, 181 121.049, 181 121.516 C 181 122.596, 198.765 140, 199.867 140 C 200.320 140, 201.547 139.043, 202.595 137.874 C 204.487 135.762, 204.476 135.729, 201.054 133.124 C 199.158 131.681, 194.658 127.489, 191.054 123.808 C 184.789 117.412, 184.423 117.195, 182.750 118.892 M 125.591 124.905 C 122.835 127.782, 122.816 127.880, 124.585 130.225 C 125.576 131.539, 127.328 133.324, 128.480 134.192 C 130.437 135.669, 130.774 135.591, 133.683 132.992 L 136.793 130.213 132.596 126.094 L 128.398 121.975 125.591 124.905 M 61.271 181.039 C 48.409 184.362, 48.428 184.139, 60.348 192.084 C 78.686 204.306, 98.327 222.502, 113.151 241 C 119.677 249.142, 123.742 255.006, 125.631 259 C 126.021 259.825, 127.433 261.825, 128.769 263.444 C 130.104 265.063, 131.639 267.538, 132.178 268.944 L 133.160 271.500 134.537 268.894 C 137.555 263.180, 140 251.523, 139.964 243.020 C 139.862 218.466, 126.381 197.281, 103.454 185.647 C 90.257 178.951, 75.566 177.346, 61.271 181.039 M 213.614 189.188 C 208.326 194.796, 204 199.643, 204 199.960 C 204 200.472, 210.563 206.932, 223.778 219.426 L 228.056 223.471 237.528 213.654 C 242.737 208.255, 247 203.523, 247 203.140 C 247 202.242, 231.623 186.179, 226.864 182.105 L 223.228 178.993 213.614 189.188 M 119.655 181.829 C 117.506 184.203, 117.558 185.725, 119.813 186.441 C 120.811 186.757, 125.159 190.684, 129.476 195.166 L 137.326 203.316 139.108 201.115 C 140.874 198.934, 140.805 198.825, 131.698 189.457 C 126.643 184.255, 122.237 180, 121.908 180 C 121.579 180, 120.565 180.823, 119.655 181.829 M 188.250 186.944 C 184.954 189.693, 185.414 192.475, 189.590 195.056 L 193.180 197.274 195.756 194.699 L 198.331 192.123 195.615 188.562 C 192.537 184.527, 191.437 184.285, 188.250 186.944 M 42.796 194.750 C 43.081 196.262, 44.481 199.640, 45.907 202.255 C 49.007 207.939, 60.241 223.997, 61.119 223.999 C 61.460 223.999, 62.016 222.537, 62.356 220.750 C 62.696 218.963, 63.658 215.029, 64.493 212.009 C 65.981 206.630, 65.966 206.481, 63.756 204.740 C 56.564 199.071, 44.806 192, 42.574 192 C 42.411 192, 42.511 193.238, 42.796 194.750 M 189.523 214.027 L 179.754 223.970 187.627 232.274 C 191.957 236.841, 197.330 242.225, 199.567 244.240 L 203.635 247.903 213.317 238.183 C 218.643 232.838, 223 227.971, 223 227.368 C 223 226.765, 217.666 221.279, 211.146 215.178 L 199.292 204.084 189.523 214.027 M 241.635 217.012 C 233.273 225.712, 232.164 227.261, 233.221 228.766 C 233.891 229.720, 239.267 235.179, 245.168 240.899 L 255.897 251.297 259.384 248.236 C 261.301 246.553, 265.817 242.052, 269.418 238.234 L 275.966 231.293 268.233 223.325 C 263.980 218.942, 258.423 213.474, 255.884 211.174 L 251.268 206.992 241.635 217.012 M 70.458 213.662 C 70.114 215.223, 69.604 217.175, 69.323 218 C 69.043 218.825, 68.164 221.949, 67.369 224.943 L 65.925 230.386 68.789 233.251 L 71.654 236.116 77.327 229.654 C 80.447 226.100, 83 222.504, 83 221.663 C 83 220.401, 78.608 216.318, 72.291 211.706 C 71.446 211.089, 70.894 211.678, 70.458 213.662 M 80.317 235.511 C 76.018 240.818, 70.592 247.454, 68.261 250.258 C 65.929 253.061, 64.217 255.550, 64.455 255.789 C 64.694 256.027, 70.876 250.919, 78.194 244.437 C 85.512 237.956, 91.913 232.295, 92.418 231.858 C 92.945 231.403, 92.227 229.954, 90.735 228.463 L 88.135 225.862 80.317 235.511 M 217.658 241.473 C 212.346 246.640, 208 251.243, 208 251.702 C 208 252.497, 223.695 268.869, 229.258 273.876 L 231.898 276.253 242.171 266.122 L 252.444 255.991 244.472 247.922 C 240.087 243.484, 234.434 238.103, 231.908 235.965 L 227.316 232.078 217.658 241.473 M 89.630 241.750 L 83.203 247.500 85.841 250.304 C 87.656 252.234, 89.105 252.933, 90.489 252.546 C 91.595 252.237, 95.875 251.273, 100 250.403 C 104.125 249.533, 107.660 248.664, 107.856 248.472 C 108.596 247.743, 98.818 236, 97.470 236 C 96.692 236, 93.164 238.588, 89.630 241.750 M 269.867 245.193 C 264.990 250.250, 261 254.869, 261 255.460 C 261 256.050, 266.177 261.695, 272.505 268.005 L 284.010 279.478 294.208 269.279 L 304.407 259.081 292.606 247.541 C 286.116 241.193, 280.339 236, 279.769 236 C 279.200 236, 274.743 240.137, 269.867 245.193 M 62.648 243.184 C 61.625 247.001, 61.910 247.574, 63.616 245.138 C 64.673 243.629, 64.892 242.492, 64.250 241.850 C 63.607 241.207, 63.053 241.668, 62.648 243.184 M 76.500 255 C 76.160 255.550, 76.835 256, 78 256 C 79.165 256, 79.840 255.550, 79.500 255 C 79.160 254.450, 78.485 254, 78 254 C 77.515 254, 76.840 254.450, 76.500 255 M 107.500 254.461 C 106.950 254.628, 103.739 255.548, 100.363 256.506 L 94.227 258.248 99.505 262.547 C 106.980 268.636, 122.802 278, 125.614 278 C 126.697 278, 122.069 268.506, 117.694 261.750 C 112.822 254.229, 111.466 253.259, 107.500 254.461 M 245.844 269.851 L 235.500 279.896 247.457 291.920 L 259.413 303.945 267.421 296.222 C 271.826 291.975, 276.482 287.282, 277.768 285.792 L 280.107 283.085 271.154 274.292 C 266.230 269.457, 260.848 264.219, 259.194 262.653 L 256.188 259.806 245.844 269.851 M 48.536 262.960 C 45.127 266.727, 48.919 272.586, 54.268 271.813 C 55.459 271.641, 57.096 270.314, 57.907 268.865 C 59.228 266.504, 59.203 265.959, 57.667 263.615 C 55.573 260.419, 51.125 260.100, 48.536 262.960" stroke="none" fill="black" fill-rule="evenodd"/>
</svg>