<svg xmlns="http://www.w3.org/2000/svg" width="309" height="314" viewBox="0 0 309 314" version="1.1">
	<path d="M 273.500 6.680 C 253.955 8.005, 225.899 15.507, 209.051 23.914 C 196.745 30.055, 194.090 32.086, 180.084 46.070 C 114.380 111.668, 63.812 163.515, 62.520 166.607 C 60.554 171.311, 60.636 174.262, 62.921 181 L 64.786 186.500 58.643 189.301 C 48.338 194, 47.598 194.462, 46.106 197.121 C 44.829 199.395, 44.861 200.261, 46.385 204.597 C 47.333 207.293, 48.340 210.207, 48.624 211.070 C 49.006 212.235, 47.376 213.420, 42.320 215.654 C 26.929 222.454, 14.877 236.622, 8.607 255.285 C 5.352 264.974, 7.072 268.989, 13.749 267.289 L 17.500 266.334 14.738 272.075 C 11.905 277.962, 8.044 293.896, 8.016 299.816 C 8.007 301.639, 8.466 304.002, 9.035 305.066 C 11.309 309.315, 30.619 306.281, 43.794 299.605 C 49.646 296.639, 50.748 296.394, 49.054 298.435 C 48.399 299.224, 48.007 301.361, 48.182 303.185 C 48.453 306.009, 48.929 306.549, 51.397 306.831 C 57.800 307.561, 73.977 299.683, 84.126 290.891 C 90.081 285.732, 96.933 275.488, 99.533 267.857 L 101.084 263.304 108.146 265.384 L 115.207 267.463 117.027 265.215 C 118.028 263.979, 119.611 260.837, 120.545 258.234 C 123.350 250.417, 125.038 247, 126.097 247 C 126.648 247, 128.330 247.636, 129.834 248.414 C 134.176 250.659, 139.341 251.255, 143.879 250.033 C 147.473 249.065, 151.772 245.184, 173.788 223.033 C 247.706 148.663, 272.890 123.075, 276.227 118.953 C 281.607 112.307, 291.235 92.662, 293.357 84 C 294.367 79.875, 295.840 74.527, 296.631 72.115 C 301.325 57.792, 303.720 24.350, 300.587 16.872 C 299.115 13.359, 295.921 9.956, 292.500 8.256 C 290.045 7.037, 280.239 6.224, 273.500 6.680 M 266.500 15.712 C 260.079 16.593, 243.253 20.152, 238.500 21.633 C 220.081 27.374, 204 34.848, 204 37.667 C 204 40.282, 213.033 56.319, 218.597 63.584 C 230.619 79.280, 253.628 98.318, 268.555 104.921 C 274.029 107.343, 273.407 107.780, 278.407 98 C 281.957 91.058, 285.856 80.727, 287.088 75 C 287.502 73.075, 288.735 67.675, 289.827 63 C 292.610 51.085, 294.014 39.949, 294.007 29.856 C 294 21.701, 293.836 21.036, 291.099 18.106 C 288.228 15.033, 288.098 15.002, 278.849 15.150 C 273.707 15.232, 268.150 15.485, 266.500 15.712 M 159.328 79.250 C 108.323 130.414, 99 140.068, 99 141.714 C 99 142.465, 99.960 144.974, 101.133 147.290 C 112.529 169.780, 143.554 200.169, 166.324 211.145 L 171.148 213.470 217.870 166.485 C 243.568 140.643, 265.875 117.797, 267.441 115.716 C 270.197 112.054, 270.228 111.886, 268.395 110.498 C 267.353 109.709, 264.499 108.105, 262.052 106.934 C 258.016 105.001, 251.506 100.717, 240.500 92.752 C 226.947 82.944, 209.462 62.045, 202.013 46.750 C 200.205 43.038, 198.665 40, 198.590 40 C 198.516 40, 180.848 57.663, 159.328 79.250 M 181.971 86.377 C 166.786 92.253, 158.485 103.975, 158.516 119.500 C 158.529 126.354, 158.958 128.359, 161.516 133.500 C 165.065 140.636, 171.838 147.587, 177.833 150.245 C 183.429 152.727, 194.914 153.578, 202.247 152.054 C 210.816 150.273, 218.849 143.237, 223.607 133.345 C 226.984 126.323, 227.179 125.383, 226.850 117.687 C 226.286 104.487, 220.723 95.610, 208.542 88.471 C 204.520 86.114, 202.499 85.662, 194.667 85.362 C 188.535 85.127, 184.331 85.463, 181.971 86.377 M 180.257 92.559 C 169.560 97.890, 163.824 107.119, 163.824 119 C 163.824 130.392, 169.671 140.216, 179.447 145.246 C 185.639 148.432, 196.922 148.791, 204.226 146.035 C 214.274 142.243, 220.185 133.309, 220.810 120.964 C 221.491 107.536, 217.892 100.563, 206.763 93.750 C 201.095 90.280, 200.068 90, 193.015 90 C 186.842 90, 184.416 90.487, 180.257 92.559 M 183.500 97.148 C 173.717 102.468, 168.992 109.413, 169.010 118.446 C 169.029 128.228, 176.268 138.592, 184.723 140.940 C 204.272 146.369, 220.260 130.881, 214.928 111.679 C 213.572 106.798, 207.644 100.208, 202.500 97.866 C 197.984 95.809, 186.744 95.385, 183.500 97.148 M 184.019 102.695 C 178.668 105.469, 174.736 112.095, 174.644 118.493 C 174.549 125.046, 178.738 132.557, 184.023 135.313 C 188.655 137.728, 200.021 137.175, 203.177 134.382 C 207.295 130.737, 211 123.778, 211 119.690 C 211 114.554, 206.929 107.170, 202.382 104.057 C 197.615 100.794, 188.928 100.150, 184.019 102.695 M 82.055 157.485 C 69.872 169.808, 69.737 169.994, 70.335 173.726 C 71.325 179.905, 78.437 192.920, 85.787 202.003 C 101.451 221.359, 128.870 242, 138.918 242 C 142.152 242, 143.546 241.019, 151.527 233.128 C 156.462 228.248, 161.981 222.695, 163.790 220.788 L 167.081 217.322 160.790 213.980 C 154.942 210.873, 146.031 205.046, 143.338 202.569 C 142.699 201.981, 139.688 199.488, 136.647 197.029 C 130.822 192.319, 115.429 176.934, 110.605 171 C 106.675 166.167, 99.507 155.135, 96.707 149.612 L 94.379 145.019 82.055 157.485 M 61.500 197.744 C 58.200 199.181, 55.323 200.492, 55.106 200.656 C 54.889 200.821, 55.449 202.878, 56.351 205.228 C 60.369 215.696, 76.021 235.259, 86.678 243.131 C 94.509 248.916, 108.055 257, 109.918 257 C 111.458 257, 116 246.222, 116 242.569 C 116 241.713, 114.088 239.627, 111.750 237.934 C 98.843 228.584, 84.373 214.668, 75.934 203.491 C 72.409 198.821, 69.069 195.030, 68.512 195.066 C 67.956 195.102, 64.800 196.307, 61.500 197.744 M 47.813 222.926 C 40.566 225.760, 36.679 228.517, 30.341 235.320 C 24.672 241.404, 20.822 247.727, 19.490 253.136 C 18.851 255.729, 18.912 255.764, 23.182 255.283 C 26.484 254.911, 28.089 255.251, 29.886 256.706 C 32.224 258.600, 32.230 258.655, 30.472 262.054 C 29.495 263.943, 27.225 267.741, 25.428 270.494 C 22.127 275.552, 19.811 283.030, 18.495 292.879 L 17.777 298.258 23.638 297.585 C 30.626 296.783, 41.011 291.937, 49.480 285.526 C 52.770 283.037, 55.962 281, 56.575 281 C 57.188 281, 58.496 281.891, 59.482 282.980 C 61.020 284.680, 61.133 285.668, 60.280 289.980 C 59.734 292.741, 59.606 295, 59.995 295 C 64.517 295, 76.206 287.083, 82.446 279.792 C 88.993 272.144, 93.904 258.820, 90.882 256.906 C 88.692 255.519, 88.336 255.751, 85.659 260.319 C 82.499 265.711, 77.767 270.423, 72.231 273.692 C 66.880 276.851, 64.592 275.691, 65.598 270.330 L 66.234 266.937 61.030 270.172 C 55.146 273.830, 43.549 277.135, 40.509 276.021 C 37.848 275.045, 37.492 271.260, 39.432 264.584 C 40.295 261.619, 41 258.353, 41 257.328 C 41 256.303, 42.141 253.785, 43.536 251.732 L 46.072 248 42.505 248 C 37.861 248, 37.135 246.005, 39.837 240.670 C 42.738 234.943, 45.615 231.793, 51.629 227.760 C 55.753 224.995, 56.577 223.995, 55.830 222.660 C 54.675 220.597, 53.687 220.630, 47.813 222.926 M 55.500 231.434 C 53.300 232.762, 49.790 235.908, 47.700 238.424 L 43.900 243 48.391 243 C 50.861 243, 53.145 243.425, 53.466 243.945 C 53.787 244.464, 52.699 247.085, 51.047 249.769 C 47.019 256.316, 44.821 261.619, 43.992 266.796 L 43.303 271.092 46.402 270.470 C 50.405 269.666, 62.717 263.698, 66.204 260.871 C 70.043 257.758, 72.206 259.621, 71.424 265.367 L 70.862 269.500 75.955 264.154 C 78.756 261.214, 81.731 257.487, 82.566 255.872 L 84.085 252.934 71.926 240.967 C 65.238 234.385, 59.706 229.004, 59.633 229.009 C 59.560 229.015, 57.700 230.106, 55.500 231.434" stroke="none" fill="black" fill-rule="evenodd"/>
</svg>