<svg xmlns="http://www.w3.org/2000/svg" width="223" height="307" viewBox="0 0 223 307" version="1.1">
	<path d="M 175 7.979 C 165.891 11.069, 160 19.605, 160 29.711 C 160 32.307, 159.359 34.270, 158.157 35.358 C 157.143 36.275, 154.331 39.950, 151.907 43.524 C 148.765 48.158, 147.070 49.835, 146 49.368 C 134.157 44.204, 119.039 41.506, 106.984 42.403 C 97.594 43.102, 83.525 46.160, 79.047 48.476 C 76.190 49.953, 76.151 49.933, 73.669 45.732 C 72.295 43.404, 69.454 39.509, 67.357 37.075 C 64.058 33.246, 63.533 31.961, 63.461 27.531 C 63.349 20.630, 60.002 13.966, 54.859 10.402 C 49.602 6.759, 40.163 5.902, 33.467 8.459 C 25.667 11.438, 20 20.416, 20 29.794 C 20 33.453, 24.313 41.672, 27.829 44.714 C 31.099 47.543, 35.966 48.987, 42.257 48.994 C 47.745 49.001, 49.979 50.931, 53.579 58.779 L 55.742 63.493 51.322 68.410 C 46.853 73.380, 40.129 86.150, 38.110 93.500 C 36.411 99.684, 36.709 119.053, 38.589 124.715 C 42.670 137.001, 47.005 144.052, 55.843 152.780 C 60.604 157.481, 67.771 163.472, 71.769 166.093 C 79.844 171.385, 79.743 172.305, 71.085 172.353 C 63.275 172.397, 55.217 169.734, 50.223 165.459 C 46.432 162.214, 46 161.388, 46 157.390 C 46 150.847, 43.887 146.649, 39.561 144.596 C 35.560 142.697, 31.418 143.406, 27.898 146.592 C 26.561 147.802, 25.706 147.913, 24.149 147.080 C 20.827 145.302, 14.540 145.787, 11.672 148.043 C 8.555 150.495, 7.358 155.719, 8.899 160.140 C 9.811 162.758, 9.723 163.649, 8.406 165.104 C 6.521 167.187, 6.300 172.824, 7.981 175.964 C 9.754 179.277, 16.594 181.953, 23.353 181.978 C 28.843 181.999, 29.508 182.271, 34.066 186.369 C 40.254 191.933, 52.613 198.378, 61.260 200.550 C 68.708 202.421, 68.328 201.565, 65.909 211 C 63.633 219.876, 65.178 231.712, 70.087 243 C 71.642 246.575, 73.660 253.550, 74.573 258.500 C 75.485 263.450, 76.442 268.643, 76.698 270.040 C 77.127 272.371, 76.741 272.688, 72.003 273.903 C 63.157 276.170, 57.158 284.304, 59.127 291.362 C 60.803 297.372, 67.266 300.165, 79.404 300.125 C 91.638 300.085, 99.635 297.666, 102.735 293.066 C 104.592 290.309, 105.002 288.336, 105.009 282.102 C 105.013 277.921, 105.301 272.141, 105.647 269.258 L 106.277 264.016 111.638 264.139 C 114.815 264.213, 117.022 264.719, 117.053 265.382 C 117.082 265.997, 117.698 272.322, 118.421 279.438 C 119.685 291.872, 119.855 292.481, 122.785 295.099 C 127.985 299.746, 147.517 302.103, 156.217 299.135 C 164.200 296.411, 167.277 288.246, 162.978 281.195 C 160.994 277.942, 152.496 273.031, 148.813 273.010 C 147.438 273.002, 147.222 272.305, 147.647 269.250 C 147.934 267.188, 148.581 264.195, 149.084 262.601 C 149.588 261.006, 150 258.560, 150 257.165 C 150 255.771, 151.757 249.425, 153.905 243.065 C 156.052 236.704, 158.057 229.250, 158.361 226.500 C 158.870 221.888, 157.912 211.120, 156.439 204.894 C 155.847 202.393, 156.093 202.220, 162.521 200.605 C 172.640 198.063, 183.648 191.948, 192.500 183.949 C 194.944 181.741, 196.730 181.146, 202.135 180.743 C 210.595 180.113, 214.713 177.780, 216.036 172.868 C 217.025 169.193, 216.157 164.833, 214.194 163.620 C 213.628 163.270, 213.665 161.550, 214.289 159.213 C 216.886 149.483, 209.741 143.032, 200.063 146.366 C 196.135 147.720, 195.688 147.688, 193.938 145.938 C 191.123 143.123, 187.624 142.610, 183.754 144.447 C 179.490 146.470, 177 151.453, 177 157.961 C 177 162.356, 176.636 163.154, 173.428 165.798 C 171.464 167.418, 167.587 169.475, 164.814 170.371 C 159.307 172.150, 148.385 172.529, 146.005 171.024 C 144.212 169.891, 145.165 169.064, 154.831 163.371 C 189.802 142.771, 197.522 95.639, 170.655 66.752 C 168.191 64.102, 168.154 63.877, 169.611 60.389 C 170.442 58.401, 172.279 55.025, 173.694 52.887 C 176.169 49.147, 176.475 49, 181.817 49 C 195.556 49, 205.308 38.148, 203.485 24.889 C 202.373 16.809, 195.046 8.632, 187.834 7.426 C 186 7.119, 183.600 6.698, 182.500 6.490 C 181.400 6.282, 178.025 6.952, 175 7.979 M 36.418 15.969 C 35.274 16.432, 33.136 18.238, 31.668 19.982 C 29.485 22.577, 29 24.153, 29 28.654 C 29 33.430, 29.394 34.548, 31.996 37.150 C 34.624 39.778, 35.636 40.126, 40.246 39.987 C 48.549 39.738, 48.776 39.803, 53.052 43.666 C 57.853 48.003, 61.439 53.817, 63.464 60.546 L 64.932 65.423 60.127 70.962 C 53.561 78.530, 50.709 83.292, 47.625 91.841 C 43.846 102.317, 43.924 113.815, 47.849 124.906 C 49.416 129.334, 52.003 134.846, 53.599 137.156 C 58.506 144.260, 68.070 153.225, 77.500 159.560 C 87.401 166.212, 89.954 169.610, 88.104 173.672 C 85.771 178.792, 72.481 182.049, 62.316 179.992 C 51.644 177.833, 38.924 168.975, 37.531 162.732 C 37.257 161.504, 36.913 158.735, 36.767 156.577 C 36.620 154.420, 35.938 152.470, 35.251 152.244 C 33.967 151.823, 33.606 152.495, 32.564 157.250 C 31.759 160.927, 28.787 160.836, 23.067 156.960 C 15.908 152.109, 13.767 154.522, 19.550 160.923 C 23.833 165.664, 23.566 167.616, 18.502 168.566 C 15.986 169.038, 14.990 169.711, 15.200 170.799 C 15.615 172.954, 20.580 174.102, 26.271 173.359 C 30.908 172.754, 31.205 172.878, 36.823 177.765 C 47.779 187.294, 57.236 191.843, 71.500 194.444 C 77.287 195.499, 77.496 195.644, 77.389 198.519 C 77.327 200.159, 76.260 205.301, 75.018 209.947 C 72.101 220.849, 72.583 227.936, 76.911 237.798 C 79.965 244.756, 80.815 247.864, 84.482 265.500 C 87.500 280.016, 87.496 279.850, 84.854 280.400 C 83.559 280.670, 80.460 281.153, 77.967 281.474 C 68.517 282.690, 63.601 288.619, 70.149 290.902 C 75.691 292.834, 93.945 291.580, 95.380 289.169 C 95.600 288.801, 96.333 281.975, 97.010 274 C 97.687 266.025, 98.617 258.512, 99.075 257.306 C 99.869 255.214, 100.473 255.111, 111.929 255.111 C 118.541 255.111, 124.165 255.458, 124.428 255.883 C 124.690 256.307, 125.412 262.629, 126.031 269.930 C 126.651 277.232, 127.283 284.374, 127.435 285.801 C 127.883 290.006, 131.071 291.287, 142.318 291.784 C 151.456 292.188, 152.756 292.026, 155 290.202 L 157.500 288.170 155.129 285.642 C 153.485 283.888, 150.463 282.572, 145.267 281.348 C 141.147 280.376, 137.540 278.964, 137.250 278.210 C 136.961 277.456, 137.679 272.937, 138.845 268.169 C 140.012 263.401, 141.420 257.099, 141.974 254.164 C 142.528 251.229, 144.560 244.611, 146.490 239.458 C 151.004 227.408, 151.287 218.197, 147.500 206.597 C 143.954 195.735, 144.044 195.252, 149.750 194.481 C 164.125 192.540, 173.339 188.536, 185.138 179.105 L 192.775 173 199.765 173 C 204.393 173, 207.132 172.546, 207.869 171.658 C 209.209 170.043, 208.528 169.254, 204.250 167.463 C 200.348 165.829, 200.174 164.135, 203.500 160.182 C 206.180 156.997, 206.787 153.997, 204.750 154.004 C 204.063 154.007, 201.475 155.355, 199 157 C 196.525 158.645, 193.901 159.993, 193.170 159.996 C 192.438 159.998, 191.132 158.200, 190.268 156 C 189.404 153.800, 188.331 152, 187.883 152 C 186.069 152, 184.831 156.386, 185.460 160.584 C 186.083 164.737, 185.913 165.138, 181.799 169.220 C 179.426 171.574, 175.013 174.833, 171.992 176.463 C 167.236 179.030, 165.208 179.480, 156.855 179.825 C 146.600 180.249, 141.906 179.287, 137.562 175.870 C 134.621 173.556, 134.189 169.602, 136.517 166.279 C 137.351 165.088, 141.888 161.786, 146.599 158.940 C 168.286 145.841, 179.277 126.976, 177.666 105.621 C 176.572 91.112, 172.899 82.326, 163.663 72.128 C 158.246 66.146, 158.215 65.845, 161.991 55.754 C 163.169 52.605, 166.057 47.922, 168.450 45.280 L 172.778 40.500 180.369 40.500 C 187.521 40.500, 188.139 40.321, 191.054 37.407 C 199.257 29.205, 193.280 15.015, 181.618 15.004 C 172.906 14.995, 166.562 23.500, 168.983 31.942 C 169.896 35.124, 169.688 35.627, 165.691 39.919 C 163.345 42.439, 159.258 47.988, 156.609 52.250 C 153.306 57.565, 151.188 60, 149.868 60 C 148.809 60, 145.368 58.714, 142.221 57.143 C 124.717 48.401, 100.709 48.349, 80.977 57.010 C 77.230 58.655, 73.431 59.719, 72.536 59.375 C 71.640 59.032, 69.847 56.669, 68.551 54.125 C 67.255 51.581, 63.499 46.299, 60.205 42.386 C 54.408 35.501, 54.232 35.124, 54.736 30.653 C 55.724 21.886, 50.355 14.947, 42.673 15.063 C 40.378 15.098, 37.563 15.506, 36.418 15.969 M 39.035 24.934 C 35.238 32.030, 44.987 37.886, 48.909 30.865 C 50.227 28.505, 50.202 27.958, 48.667 25.615 C 46.499 22.306, 40.662 21.894, 39.035 24.934 M 175.054 24.435 C 174.399 25.224, 174.007 27.353, 174.182 29.167 C 174.565 33.142, 178.278 34.988, 182.750 33.425 C 184.916 32.668, 185.570 31.734, 185.829 29.026 C 186.059 26.616, 185.629 25.202, 184.388 24.294 C 182.023 22.565, 176.537 22.648, 175.054 24.435 M 63 90.154 C 61.062 91.455, 58.450 94.618, 57.148 97.243 C 54.962 101.648, 54.885 102.353, 56.052 107.241 C 57.460 113.139, 60.869 119.095, 64.844 122.599 C 69.247 126.481, 79.709 130, 86.848 130 C 92.546 130, 93.448 129.706, 96.207 126.946 C 99.135 124.019, 99.241 123.617, 98.776 117.196 C 97.626 101.302, 86.874 89.377, 72.710 88.284 C 67.378 87.873, 66.005 88.138, 63 90.154 M 142.500 90.390 C 132.366 95.195, 124.632 107.185, 124.545 118.225 C 124.506 123.136, 124.882 124.332, 127.185 126.637 C 130.713 130.168, 138.309 130.912, 146.608 128.541 C 158.082 125.262, 164.749 118.624, 166.931 108.305 C 168.015 103.183, 167.941 101.915, 166.308 97.525 C 162.808 88.122, 153.296 85.271, 142.500 90.390 M 70.165 98.597 C 67.489 100.472, 67.526 104.689, 70.235 106.385 C 71.562 107.215, 72.797 107.026, 75.485 105.578 C 79.686 103.315, 79.886 101.842, 76.365 99.073 C 73.200 96.583, 73.056 96.572, 70.165 98.597 M 147.243 98.157 C 145.437 99.963, 145.720 103.437, 147.829 105.345 C 150.271 107.555, 152.300 107.431, 154.562 104.932 C 156.270 103.044, 156.303 102.629, 154.935 100.182 C 153.283 97.225, 149.239 96.161, 147.243 98.157 M 97 142.896 C 97 148.742, 107.559 154.828, 115.115 153.336 C 121.748 152.026, 129.023 145.109, 127.619 141.448 C 126.830 139.393, 124.355 139.655, 122.736 141.966 C 118.188 148.460, 107.409 148.530, 101.593 142.102 C 98.886 139.112, 97 139.438, 97 142.896" stroke="none" fill="black" fill-rule="evenodd"/>
</svg>