<svg xmlns="http://www.w3.org/2000/svg" width="290" height="317" viewBox="0 0 290 317" version="1.1">
	<path d="M 85.871 7.958 C 77.565 12.456, 73.747 20.873, 76.433 28.758 C 77.291 31.275, 78.665 34.077, 79.487 34.986 C 80.792 36.428, 80.985 49.556, 81.009 138.528 L 81.037 240.419 74.917 241.667 C 47.419 247.276, 23.794 261.811, 11.205 280.864 C 7.914 285.844, 7 288.157, 7 291.500 C 7 296.050, 7.544 296.525, 16.500 299.796 C 20.316 301.189, 41.339 305.391, 55 307.491 C 69.326 309.692, 107.956 310.591, 124.643 309.110 C 145.917 307.223, 171.433 301.636, 180.750 296.824 C 188.515 292.814, 174.999 271.210, 157.156 259.112 C 143.091 249.575, 127.411 243.672, 107.750 240.512 L 104 239.909 104 204.094 C 104 160.259, 104.044 159.839, 108.868 157.487 C 120.899 151.622, 133.690 149.399, 150 150.340 C 161.495 151.003, 168.642 152.645, 192 159.991 C 213.828 166.856, 222.956 168.335, 239.795 167.739 C 256.375 167.152, 270.422 163.560, 279.157 157.673 L 282.500 155.421 282.758 94.750 C 283 37.726, 282.910 34.024, 281.258 33.173 C 279.983 32.517, 276.752 33.450, 269.500 36.569 C 245.430 46.920, 226.581 46.528, 190.500 34.927 C 169.279 28.104, 163.688 26.967, 148.174 26.318 C 132.322 25.655, 120.697 27.309, 111.928 31.476 L 107.355 33.648 108.768 29.574 C 112.445 18.967, 105.265 8.177, 93.439 6.538 C 90.615 6.147, 88.473 6.549, 85.871 7.958 M 88.110 16.396 C 80.564 20.578, 83.859 31.400, 92.679 31.400 C 98.844 31.400, 102.708 25.075, 99.837 19.684 C 97.366 15.045, 92.837 13.775, 88.110 16.396 M 126.500 35.642 C 122.650 36.456, 116.237 38.723, 112.250 40.680 L 105 44.238 105 97.226 C 105 147.295, 105.096 150.175, 106.750 149.502 C 121.377 143.550, 133.035 141.542, 148.750 142.269 C 161.347 142.851, 170.156 144.782, 192.715 151.903 C 211.145 157.721, 217.842 159.010, 233 159.654 C 244.597 160.148, 247.740 159.932, 255.298 158.122 C 260.137 156.963, 266.549 154.813, 269.548 153.345 L 275 150.675 275 97.231 C 275 46.726, 274.904 43.825, 273.250 44.500 C 247.384 55.051, 226.699 54.660, 188.587 42.902 C 159.771 34.011, 143.319 32.088, 126.500 35.642 M 90 140 L 90 240 93 240 L 96 240 96 140 L 96 40 93 40 L 90 40 90 140 M 131.836 50.378 L 128.691 56.755 122.191 57.833 C 118.615 58.425, 115.293 59.307, 114.807 59.793 C 114.297 60.303, 116.038 62.725, 118.933 65.534 L 123.941 70.392 123.324 77.696 C 122.596 86.306, 123.187 86.656, 131.139 82.328 L 136.049 79.656 142.035 82.517 C 149.793 86.225, 150.745 85.467, 149.064 76.921 L 147.845 70.726 152.423 66.078 C 158.999 59.401, 158.801 58.996, 148.082 57.209 C 143.935 56.518, 143.455 56.091, 140.243 50.236 C 138.360 46.806, 136.407 44, 135.901 44 C 135.395 44, 133.566 46.870, 131.836 50.378 M 134.074 55.750 C 132.113 61.287, 131.212 62, 126.175 62 L 121.594 62 125.304 65.800 C 128.902 69.484, 128.988 69.742, 128.136 74.300 C 127.653 76.885, 127.546 79, 127.897 79 C 128.248 79, 130.177 77.885, 132.182 76.522 L 135.828 74.045 140.414 76.608 C 145.413 79.402, 145.394 79.420, 143.974 73.265 C 143.025 69.154, 143.107 68.928, 146.748 65.542 L 150.500 62.054 147.815 62.027 C 142.765 61.976, 139.906 60.170, 138.265 55.993 C 137.402 53.797, 136.405 52, 136.049 52 C 135.693 52, 134.804 53.688, 134.074 55.750 M 184.500 55 C 183.402 57.122, 182.216 58, 180.443 58 C 177.042 58, 176.233 60.637, 178.879 63.102 C 180.413 64.531, 180.842 65.783, 180.400 67.544 C 180.061 68.892, 180.054 70.699, 180.384 71.559 C 180.919 72.952, 181.314 72.927, 184.013 71.333 C 186.500 69.864, 187.392 69.764, 189.007 70.772 C 192.656 73.051, 194.282 72.353, 193.721 68.750 C 193.328 66.225, 193.773 64.905, 195.717 62.831 C 198.520 59.840, 198.060 58, 194.509 58 C 193.014 58, 191.346 56.890, 190 55 C 188.825 53.350, 187.456 52, 186.958 52 C 186.459 52, 185.353 53.350, 184.500 55 M 186.625 59.750 C 186.207 60.987, 185.542 62, 185.147 62 C 184.752 62, 184.429 62.878, 184.429 63.950 C 184.429 65.311, 185.044 65.840, 186.464 65.700 C 189.702 65.382, 192.601 61, 189.573 61 C 188.789 61, 187.975 60.212, 187.766 59.250 C 187.449 57.792, 187.259 57.876, 186.625 59.750 M 243.292 64.250 C 242.244 66.037, 241.103 68.250, 240.757 69.166 C 240.361 70.214, 238.071 71.259, 234.581 71.983 C 231.531 72.616, 228.758 73.583, 228.419 74.130 C 228.081 74.678, 229.676 76.855, 231.965 78.967 L 236.125 82.809 235.212 87.836 C 233.870 95.220, 234.881 96.071, 241.104 92.794 L 246.241 90.089 251.158 92.580 C 253.862 93.950, 256.553 94.776, 257.138 94.415 C 257.817 93.995, 257.956 91.801, 257.523 88.336 C 256.869 83.104, 256.973 82.772, 260.485 78.885 C 263.413 75.644, 263.893 74.576, 262.940 73.428 C 262.288 72.643, 260.715 72, 259.443 72 C 254.857 72, 252.020 70.095, 249.800 65.524 C 248.591 63.036, 247.061 61, 246.400 61 C 245.738 61, 244.340 62.462, 243.292 64.250 M 244.379 71.500 C 242.804 74.849, 241.949 75.552, 239.131 75.822 L 235.764 76.144 238.555 79.057 C 241.106 81.720, 241.253 82.271, 240.266 85.485 C 239.002 89.602, 239.158 89.682, 242.962 86.870 L 245.843 84.740 249.330 86.895 L 252.816 89.050 252.254 84.854 C 251.750 81.097, 251.994 80.415, 254.595 78.334 L 257.500 76.010 254.405 76.005 C 251.093 76, 248.670 73.978, 247.183 69.979 C 246.272 67.529, 246.239 67.547, 244.379 71.500 M 177.999 86.201 C 176.882 88.015, 175.238 91.131, 174.347 93.124 C 172.770 96.650, 172.551 96.762, 166.237 97.269 C 157.319 97.985, 156.786 99.328, 163.029 105.348 L 168.057 110.196 167.207 116.541 C 165.923 126.124, 166.779 126.855, 174.386 122.673 C 179.845 119.673, 180.848 119.416, 182.472 120.604 C 185.718 122.976, 193.029 125.371, 194.016 124.384 C 194.580 123.820, 194.542 120.912, 193.918 116.904 L 192.898 110.348 197.438 105.424 C 199.935 102.716, 201.983 100.153, 201.989 99.729 C 202.005 98.577, 198.087 97.197, 192.866 96.517 C 188.419 95.937, 188.104 95.673, 185.075 89.990 C 183.339 86.733, 181.494 83.805, 180.975 83.484 C 180.456 83.164, 179.117 84.386, 177.999 86.201 M 177.964 95.836 C 175.597 100.316, 175.307 100.512, 170.606 100.811 L 165.713 101.121 169.459 104.958 C 173.167 108.755, 173.195 108.845, 172.173 113.635 C 171.606 116.297, 171.325 118.659, 171.550 118.884 C 171.775 119.109, 173.779 118.089, 176.002 116.617 L 180.045 113.942 184.360 116.471 C 186.734 117.862, 188.912 119, 189.201 119 C 189.490 119, 189.307 116.691, 188.794 113.869 C 187.898 108.936, 187.980 108.616, 190.931 105.571 C 192.619 103.830, 194 102.089, 194 101.702 C 194 101.316, 192.209 101, 190.020 101 C 186.301 101, 185.857 100.678, 183.234 96.086 L 180.427 91.172 177.964 95.836 M 127.902 111.441 C 126.297 114.162, 125.148 115, 123.024 115 C 121.495 115, 119.641 115.728, 118.902 116.618 C 117.743 118.015, 117.937 118.538, 120.320 120.438 C 122.781 122.401, 123.011 123.081, 122.433 126.694 C 121.637 131.673, 122.850 132.646, 127.109 130.444 C 129.592 129.159, 130.798 129.042, 132.686 129.903 C 137.091 131.910, 138 131.354, 138 126.655 C 138 123.580, 138.585 121.781, 140 120.500 C 142.948 117.832, 142.447 116.174, 138.465 115.427 C 135.971 114.960, 134.500 113.934, 133.472 111.945 C 131.253 107.655, 130.193 107.559, 127.902 111.441 M 129.770 115.773 C 129.450 116.995, 128.134 118.417, 126.844 118.934 C 125.555 119.451, 125.063 119.902, 125.750 119.937 C 126.470 119.973, 127 121.325, 127 123.122 C 127 125.823, 127.209 126.072, 128.542 124.965 C 129.711 123.995, 130.366 123.966, 131.242 124.842 C 132.996 126.596, 133.874 126.233, 133.288 123.995 C 133 122.892, 133.322 121.317, 134.004 120.495 C 135.014 119.279, 134.958 119, 133.706 119 C 132.859 119, 131.758 117.774, 131.259 116.276 C 130.383 113.648, 130.330 113.630, 129.770 115.773 M 234.699 118.092 C 233.844 119.416, 232.614 121.686, 231.964 123.136 C 230.995 125.299, 229.899 125.888, 225.845 126.426 C 219.545 127.262, 218.750 129.115, 222.868 133.364 C 225.633 136.217, 226 137.263, 226 142.298 C 226 148.813, 226.525 149.087, 232.500 145.698 L 236.500 143.428 240.728 145.787 C 246.221 148.852, 247.363 148.057, 246.710 141.620 C 246.219 136.784, 246.392 136.290, 249.838 132.709 C 253.999 128.385, 253.512 127.514, 246.329 126.428 C 243.070 125.935, 241.915 125.218, 241.045 123.148 C 240.432 121.692, 239.103 119.416, 238.092 118.092 L 236.253 115.684 234.699 118.092 M 234.797 127.009 C 233.490 129.303, 232.383 130, 230.047 130 C 226.359 130, 226.321 130.230, 229.495 133.404 C 231.600 135.509, 231.834 136.306, 230.995 138.514 C 229.580 142.234, 229.665 142.311, 233 140.341 C 235.842 138.662, 236.153 138.659, 238.904 140.284 C 242.822 142.599, 243.065 142.486, 241.826 138.932 C 240.870 136.187, 241.053 135.554, 243.565 132.932 L 246.374 130 242.869 130 C 239.961 130, 239.118 129.489, 237.931 127.009 L 236.500 124.017 234.797 127.009 M 86 248.586 C 59.923 251.541, 34.166 264.658, 21.296 281.537 C 18.383 285.356, 16 289.016, 16 289.670 C 16 291.779, 38.831 297.209, 60 300.133 C 72.896 301.915, 120.396 301.936, 133 300.166 C 148.247 298.024, 174 292.007, 174 290.586 C 174 288.509, 167.162 279.132, 161.906 274 C 150.813 263.170, 136.866 255.973, 117.201 250.929 C 110.036 249.091, 92.898 247.804, 86 248.586 M 80.861 257.929 C 78.999 259.450, 78.758 260.120, 79.718 261.097 C 80.671 262.067, 81.791 262.080, 84.872 261.156 C 87.667 260.319, 89.597 260.277, 91.526 261.010 C 93.514 261.766, 94.641 261.713, 95.724 260.814 C 97.009 259.747, 96.913 259.348, 94.992 257.792 C 91.912 255.298, 83.987 255.375, 80.861 257.929 M 131.750 263.579 C 130.224 265.114, 131.115 266.120, 135.750 268.098 C 138.363 269.212, 141.963 271.535, 143.752 273.260 C 146.247 275.666, 147.278 276.122, 148.182 275.218 C 151.030 272.370, 142.862 264.499, 135.890 263.372 C 134.026 263.071, 132.162 263.164, 131.750 263.579 M 51.500 265.225 C 44.050 267.874, 34.009 277.976, 35.351 281.473 C 36.280 283.894, 37.507 283.307, 41.369 278.595 C 47.578 271.017, 60.584 266.384, 64.021 270.526 C 65.057 271.774, 64.949 272.680, 63.426 275.508 C 61.909 278.324, 61.803 279.199, 62.852 280.232 C 64.801 282.152, 69 276.882, 69 272.516 C 69 265.564, 60.502 262.024, 51.500 265.225 M 107.308 281.194 C 101.967 283.775, 103.833 287.913, 109.425 285.891 C 112.298 284.852, 113.710 284.830, 116.233 285.782 C 119.733 287.103, 121.650 286.137, 120.658 283.552 C 119.442 280.383, 111.786 279.031, 107.308 281.194" stroke="none" fill="black" fill-rule="evenodd"/>
</svg>