<svg xmlns="http://www.w3.org/2000/svg" width="277" height="283" viewBox="0 0 277 283" version="1.1">
	<path d="M 141.033 9.464 L 138.718 11.929 139.967 28.714 C 140.655 37.947, 141.555 49.550, 141.969 54.500 C 142.673 62.922, 142.586 63.613, 140.610 65.254 C 139.450 66.219, 130.702 72.913, 121.172 80.130 C 111.641 87.347, 102.979 94.180, 101.922 95.314 C 99.521 97.891, 99.437 103.100, 101.750 105.887 C 103.588 108.102, 110.592 110.390, 127.314 114.240 C 132.712 115.483, 137.134 116.872, 137.142 117.327 C 137.150 117.782, 115.466 140.169, 88.955 167.077 C 47.144 209.513, 40.365 216, 37.827 216 C 31.686 216, 26 221.721, 26 227.901 C 26 229.191, 25.359 230, 24.338 230 C 19.585 230, 11.199 237.438, 8.216 244.297 C 4.153 253.643, 9.517 267.703, 19.344 273.462 C 26.857 277.864, 40.083 276.792, 45.862 271.311 C 48.671 268.647, 54 259.873, 54 257.913 C 54 256.893, 55.097 255.947, 56.750 255.541 C 58.262 255.169, 60.510 254.211, 61.745 253.413 C 64.516 251.620, 67.249 245.360, 66.412 242.721 C 65.943 241.246, 67.252 239.257, 71.734 234.633 C 75.003 231.260, 86.850 218.375, 98.061 206 C 109.271 193.625, 118.690 183.275, 118.991 183 C 119.292 182.725, 127.463 173.725, 137.150 163 C 146.836 152.275, 156.096 142.244, 157.728 140.709 L 160.694 137.919 165.269 149.209 C 167.785 155.419, 170.586 162.750, 171.494 165.500 C 173.778 172.418, 175.459 174, 180.526 174 C 184.687 174, 184.805 173.901, 189.737 166.250 C 192.485 161.987, 196.207 155.800, 198.008 152.500 C 199.810 149.200, 202.062 145.375, 203.013 144 C 203.964 142.625, 205.885 139.025, 207.281 136 C 211.928 125.930, 209.448 126.754, 237.612 125.928 C 263.917 125.157, 266.942 124.617, 268.890 120.343 C 271.058 115.584, 269.646 112.040, 262.203 103.557 C 259.616 100.609, 255.630 96.015, 253.344 93.348 C 251.058 90.682, 246.185 85.031, 242.515 80.790 C 236.081 73.357, 235.879 72.962, 236.888 69.790 C 237.464 67.981, 238.686 63.800, 239.605 60.500 C 240.524 57.200, 242.339 51.137, 243.638 47.028 C 244.937 42.918, 246 38.396, 246 36.978 C 246 35.560, 246.462 33.938, 247.027 33.373 C 247.591 32.809, 248.327 30.033, 248.662 27.205 C 249.359 21.318, 247.547 17.426, 243.654 16.449 C 241.189 15.831, 231.784 18.658, 223.500 22.508 C 211.843 27.924, 194.550 35, 192.968 35 C 192.028 35, 187.038 32.009, 181.879 28.354 C 171.599 21.070, 154.763 9.934, 151.316 8.138 C 147.685 6.247, 143.556 6.779, 141.033 9.464 M 146.903 15.750 C 146.627 17.886, 148.308 42.091, 149.827 57.859 C 150.380 63.594, 150.211 65.690, 149.064 67.359 C 147.193 70.079, 148.408 69.092, 126.865 85.415 C 116.764 93.068, 108.305 99.488, 108.067 99.681 C 106.376 101.054, 118.833 104.669, 147.346 111.078 C 157.887 113.447, 161.963 115.844, 163.759 120.730 C 164.319 122.253, 166.202 128, 167.943 133.500 C 169.684 139, 171.545 144.400, 172.078 145.500 C 172.612 146.600, 174.535 151.524, 176.351 156.442 C 178.168 161.361, 180.069 165.519, 180.577 165.684 C 181.668 166.038, 184.093 162.072, 198.417 136.500 C 206.183 122.636, 208.166 120.228, 212.410 119.503 C 214.109 119.212, 225.798 118.545, 238.384 118.020 C 250.970 117.495, 261.428 116.906, 261.623 116.710 C 262.152 116.181, 259.611 111.017, 258.818 111.008 C 258.443 111.004, 254.618 106.838, 250.318 101.751 C 246.018 96.664, 240.163 89.945, 237.306 86.820 C 234.449 83.695, 231.227 79.405, 230.146 77.286 C 228.363 73.791, 228.302 72.973, 229.494 68.467 C 233.850 51.989, 235.280 46.919, 236.984 41.912 C 238.029 38.838, 239.524 33.558, 240.305 30.177 L 241.725 24.031 239.113 24.628 C 237.676 24.957, 234.165 26.300, 231.312 27.613 C 228.458 28.926, 225.834 30, 225.480 30 C 224.662 30, 212.753 35.134, 203.060 39.666 C 193.958 43.921, 191.128 44.079, 186.272 40.601 C 184.198 39.115, 181.375 37.083, 180 36.085 C 178.625 35.087, 172.100 30.768, 165.500 26.487 C 158.900 22.206, 152.281 17.870, 150.790 16.852 C 147.832 14.830, 147.051 14.608, 146.903 15.750 M 111.733 154.742 C 92.129 174.409, 69.505 197.238, 61.459 205.473 L 46.829 220.446 53.880 227.223 C 57.758 230.950, 61.146 234, 61.410 234 C 62.319 234, 68.712 227.464, 78.528 216.500 C 83.944 210.450, 92.004 201.499, 96.438 196.610 C 100.872 191.720, 105.323 186.770, 106.328 185.610 C 109.552 181.890, 147.145 140.232, 155.670 130.933 C 157.763 128.650, 157.898 128.006, 156.889 125.112 C 156.265 123.322, 154.797 121.499, 153.627 121.062 C 147.271 118.687, 149.298 117.057, 111.733 154.742 M 34.374 225.467 C 33.543 227.632, 33.881 228.165, 41.329 236.435 C 50.643 246.778, 54.260 249.467, 56.936 248.034 C 60.332 246.217, 59.330 243.169, 53.250 236.830 C 42.628 225.755, 35.833 221.665, 34.374 225.467 M 25.206 237.882 C 23.394 238.222, 20.357 240.026, 18.456 241.890 C 15.165 245.119, 15 245.616, 15 252.296 C 15 259.109, 15.111 259.421, 18.828 263.064 C 23.267 267.415, 29.266 269.548, 34.374 268.590 C 40.588 267.424, 47 260.407, 47 254.772 C 47 251.614, 32.356 236.878, 29.500 237.163 C 28.950 237.218, 27.018 237.542, 25.206 237.882" stroke="none" fill="black" fill-rule="evenodd"/>
</svg>