<svg xmlns="http://www.w3.org/2000/svg" width="270" height="299" viewBox="0 0 270 299" version="1.1">
	<path d="M 113 9.380 C 98.562 13.755, 89.996 18.928, 81.141 28.617 C 71.997 38.624, 65 55.781, 65 68.195 L 65 73.136 62.250 71.203 C 60.737 70.140, 56.350 67.669, 52.500 65.711 C 31.646 55.109, 16.143 57.140, 8.793 71.437 C 6.084 76.706, 6.634 88.995, 9.937 97 C 13.967 106.767, 14.257 107.449, 15.888 111 C 18.598 116.902, 28.528 130.194, 34.672 136.143 C 41.568 142.821, 52.323 150.291, 57.500 152 C 59.531 152.670, 62.256 153.770, 63.555 154.444 L 65.917 155.669 62.208 157.422 C 46.625 164.787, 34.188 179.755, 34.047 191.315 C 33.948 199.381, 41.667 209.961, 49.248 212.150 C 52.608 213.121, 65.964 213.077, 70.250 212.081 C 72.313 211.602, 74 211.341, 74 211.501 C 74 211.660, 72.650 214.963, 71 218.840 C 65.730 231.224, 67.537 234.977, 79.175 235.819 C 84.674 236.217, 85.337 236.537, 88.303 240.227 C 91.878 244.677, 94.762 246.418, 100.182 247.399 C 103.827 248.058, 103.870 248.123, 104.446 253.783 C 104.766 256.927, 105.442 261.525, 105.948 264 C 106.454 266.475, 107.154 270.300, 107.505 272.500 C 108.361 277.874, 112.253 285.980, 115.570 289.297 C 118.651 292.378, 121.737 292.693, 126.533 290.417 C 131.326 288.143, 132.987 282.551, 133.711 266.250 C 134.035 258.962, 134.620 253, 135.011 253 C 135.402 253, 135.511 254.105, 135.253 255.455 C 134.995 256.806, 135.295 263.149, 135.921 269.551 C 137.244 283.109, 139.306 288.225, 144.432 290.669 C 150.044 293.345, 155.213 290.710, 158.499 283.500 C 161.105 277.780, 165 259.303, 165 252.658 C 165 250.572, 165.549 248.753, 166.250 248.518 C 166.938 248.287, 169.484 247.590, 171.908 246.968 C 175.997 245.920, 178.875 243.691, 183.240 238.192 C 184.573 236.513, 186.044 236, 189.522 236 C 195.224 236, 200.609 233.807, 201.455 231.140 C 202.321 228.413, 200.416 221.500, 197.330 216.171 C 195.952 213.791, 195.034 211.633, 195.290 211.376 C 195.547 211.120, 197.870 211.442, 200.454 212.093 C 206.948 213.728, 219.630 212.740, 224.582 210.212 C 229.565 207.670, 231.401 205.608, 234.082 199.549 C 239.241 187.885, 231.906 172.820, 215.705 161.805 C 212.518 159.638, 208.558 157.393, 206.904 156.817 C 205.251 156.240, 204.096 155.571, 204.338 155.328 C 204.581 155.086, 208.091 153.443, 212.140 151.677 C 220.956 147.832, 227.600 143.440, 234.969 136.586 C 250.068 122.543, 261.768 99.923, 262.686 83 C 263.049 76.313, 262.789 74.904, 260.294 70 C 257.954 65.401, 256.595 64.036, 251.998 61.665 C 246.999 59.087, 245.805 58.874, 238.843 59.314 C 230.540 59.839, 217.473 64.634, 209.369 70.131 L 205.238 72.932 204.036 63.382 C 203.375 58.129, 201.968 51.314, 200.910 48.238 C 197.880 39.432, 190.625 28.629, 184.936 24.453 C 179.750 20.646, 171.452 17, 167.974 17 C 166.872 17, 163.614 15.688, 160.735 14.085 C 147.348 6.630, 128.278 4.750, 113 9.380 M 119.500 15.161 C 93.289 20.075, 73.235 42.665, 72.909 67.644 C 72.788 76.950, 75.789 91.060, 77.388 88.706 C 83.241 80.090, 84.447 78.906, 90.281 76.045 C 94.481 73.985, 101.531 72, 112 69.929 C 134.779 65.424, 141.682 61.756, 149.602 49.952 C 152.196 46.085, 154.717 42.675, 155.203 42.374 C 156.776 41.402, 158.751 43.955, 159.873 48.411 C 162.587 59.187, 170.031 69.903, 177.469 73.738 C 182.881 76.529, 189.450 82.057, 191.647 85.669 L 193.794 89.199 195.397 82.152 C 198.959 66.491, 196.073 50.703, 187.396 38.382 C 182.542 31.489, 176.277 27.005, 168 24.498 C 164.975 23.582, 159.125 21.343, 155 19.523 C 150.875 17.703, 145.388 15.716, 142.807 15.107 C 137.303 13.809, 126.580 13.834, 119.500 15.161 M 154.086 53.747 C 153.837 57.359, 141.177 67.812, 133.500 70.744 C 128.595 72.617, 115.862 75.763, 110.571 76.409 C 93.475 78.496, 83 86.569, 83 97.659 C 83 104.864, 86.052 111.052, 93.064 118.064 C 102.600 127.600, 114.100 131.868, 132.562 132.724 C 154.385 133.736, 171.368 126.603, 182.179 111.885 C 189.307 102.181, 188.288 87.303, 180.188 82.809 C 167.743 75.904, 158.043 65.225, 154.934 55.006 C 154.515 53.628, 154.133 53.061, 154.086 53.747 M 20.695 67.795 C 15.816 71.130, 14.581 73.825, 14.662 80.963 C 14.838 96.400, 23.621 114.663, 38.097 129.694 C 46.919 138.853, 62.553 147.796, 72.863 149.582 L 76.500 150.211 71.814 147.168 C 62.858 141.353, 61.837 137.530, 65.940 125.179 C 69.666 113.966, 69.817 110.105, 66.657 106.886 C 62.006 102.150, 57.105 93.880, 56.483 89.720 C 55.793 85.096, 57.218 80.024, 59.225 79.958 C 62.007 79.868, 52.775 73.304, 45.365 70.104 C 35.345 65.777, 25.056 64.814, 20.695 67.795 M 231.500 67.406 C 226.044 69.140, 215.094 74.767, 211.788 77.536 L 209.076 79.807 211.288 81.276 C 216.040 84.431, 212.606 97.073, 204.973 104.527 C 201.381 108.033, 201 108.890, 200.996 113.453 C 200.994 116.229, 202.181 122.160, 203.634 126.632 C 205.415 132.116, 206.049 135.669, 205.579 137.541 C 204.913 140.194, 201.033 144.485, 195.892 148.253 L 193.500 150.006 196.500 149.404 C 210.873 146.520, 228.526 135.429, 237.728 123.500 C 248.849 109.083, 255.198 93.847, 255.278 81.383 C 255.320 74.897, 255.026 73.655, 252.913 71.393 C 247.862 65.986, 240.359 64.589, 231.500 67.406 M 63 89.050 C 63 91.361, 66.088 95.827, 70.499 99.893 C 73.058 102.251, 75.329 104.004, 75.545 103.788 C 75.761 103.572, 75.669 101.735, 75.340 99.705 C 74.450 94.224, 63 84.336, 63 89.050 M 95 89.498 C 93.075 90.191, 91.369 91.413, 91.208 92.214 C 90.674 94.883, 95.989 103.943, 99.004 105.502 C 107.035 109.655, 114.222 104.328, 112.558 95.456 C 111.305 88.780, 103.940 86.281, 95 89.498 M 160.786 89.553 C 157.357 91.414, 155.384 97.293, 156.878 101.198 C 158.137 104.487, 161.638 106.905, 166.219 107.648 C 169.183 108.129, 170.014 107.772, 172.325 105.026 C 173.796 103.277, 175 100.639, 175 99.164 C 175 97.564, 175.807 95.977, 177 95.232 C 179.312 93.788, 179.659 90.467, 177.581 89.669 C 176.789 89.366, 175.532 90.072, 174.738 91.268 L 173.315 93.411 171.543 90.705 C 169.498 87.584, 165.252 87.129, 160.786 89.553 M 199.857 91.750 C 196.237 94.679, 195.081 96.351, 194.578 99.384 C 194.224 101.519, 194.086 103.419, 194.273 103.606 C 195.131 104.465, 202.266 97.398, 204.029 93.943 C 207.625 86.895, 206.553 86.332, 199.857 91.750 M 99.459 94.067 C 98.539 95.556, 99.606 96.365, 101.520 95.631 C 102.404 95.292, 102.847 94.561, 102.504 94.007 C 101.694 92.696, 100.289 92.723, 99.459 94.067 M 164.667 93.667 C 163.399 94.934, 164.008 96, 166 96 C 167.111 96, 168 95.333, 168 94.500 C 168 92.978, 165.885 92.449, 164.667 93.667 M 125 108.927 C 125 112.108, 129.681 115, 134.830 115 C 138.417 115, 139.989 114.426, 142.195 112.313 C 143.738 110.835, 145 109.308, 145 108.920 C 145 107.107, 141.606 107.231, 139.026 109.139 C 135.918 111.437, 132.335 111.192, 129.641 108.498 C 127.533 106.390, 125 106.624, 125 108.927 M 75.276 118.250 C 74.698 122.237, 73.403 127.601, 72.400 130.168 C 70.879 134.059, 70.783 135.225, 71.826 137.168 C 73.413 140.124, 81.991 146.137, 89.116 149.288 L 94.601 151.714 101.051 145.774 C 104.598 142.508, 108.850 139.251, 110.500 138.538 C 113.208 137.367, 113.305 137.176, 111.500 136.578 C 100.656 132.984, 85.752 122.189, 80.986 114.477 C 77.724 109.199, 76.467 110.029, 75.276 118.250 M 186.050 117.532 C 179.842 125.430, 173.153 130.432, 163.070 134.715 C 158.906 136.483, 156.331 137.946, 157.346 137.965 C 159.722 138.010, 164.300 141.157, 170.147 146.766 C 174.684 151.116, 174.881 151.194, 178.378 150.040 C 183.182 148.455, 196.597 139.622, 197.900 137.186 C 198.698 135.695, 198.247 133.097, 195.971 126.074 C 194.337 121.033, 193 115.579, 193 113.954 C 193 112.329, 192.591 111, 192.091 111 C 191.591 111, 188.873 113.939, 186.050 117.532 M 123.834 141.768 C 126.552 145.583, 131.745 147.415, 137.429 146.563 C 141.507 145.951, 146 143.015, 146 140.961 C 146 140.425, 142.353 139.995, 137.750 139.989 C 133.213 139.983, 127.730 139.686, 125.568 139.329 L 121.635 138.679 123.834 141.768 M 115.502 146.750 C 114.818 151.988, 112.306 167.825, 111.812 170.009 C 110.684 175.005, 144.513 176.658, 156.093 172.173 L 158.687 171.169 156.910 163.334 C 155.933 159.025, 154.592 152.688, 153.930 149.250 C 153.268 145.813, 152.401 143, 152.003 143 C 151.606 143, 150.430 144.161, 149.390 145.579 C 144.421 152.360, 131.852 154.238, 124.283 149.331 C 122.019 147.862, 119.689 145.612, 119.105 144.331 C 117.453 140.706, 116.180 141.561, 115.502 146.750 M 107.327 148.381 C 105.264 152.066, 88.685 169.129, 72.623 184.096 C 66.744 189.575, 67.040 191.481, 73.653 190.736 C 78.513 190.188, 81.694 188.217, 93.500 178.442 C 103.256 170.364, 105.617 166.615, 107.613 156.029 C 109.130 147.987, 109.031 145.336, 107.327 148.381 M 161.039 149 C 161.039 149.825, 161.664 154.044, 162.427 158.375 C 163.737 165.810, 164.113 166.556, 169.157 171.747 C 176.394 179.194, 189.247 188.697, 193.787 189.958 C 203.570 192.675, 203.389 189.575, 193.250 180.759 C 188.988 177.053, 182.575 170.804, 179 166.873 C 165.164 151.661, 161.038 147.554, 161.039 149 M 74 160.584 C 60.549 164.135, 48.897 172.924, 43.021 183.951 C 41.159 187.445, 41.361 196.376, 43.372 199.445 C 46.176 203.725, 51.995 206, 60.136 206 C 66.389 206, 68.311 205.525, 74.559 202.438 C 78.523 200.479, 82.798 197.779, 84.058 196.438 C 86.654 193.675, 85.649 193.102, 82.772 195.706 C 79.777 198.417, 69.336 198.633, 65.250 196.069 C 62.298 194.216, 62 193.577, 62 189.093 L 62 184.157 71.750 175.394 C 77.112 170.574, 83.187 164.913, 85.249 162.815 L 88.998 159 84.249 159.066 C 81.637 159.102, 77.025 159.785, 74 160.584 M 185.115 163.250 C 187.560 165.588, 193.709 171.393, 198.780 176.151 C 207.824 184.637, 208 184.890, 208 189.416 C 208 193.548, 207.661 194.236, 204.750 196.011 C 200.768 198.439, 193.135 198.638, 188.857 196.426 C 184.605 194.227, 184.214 195.307, 188.184 198.285 C 197.711 205.429, 210.528 207.979, 219.566 204.528 C 231.037 200.147, 230.926 186.319, 219.321 173.912 C 211.752 165.821, 196.027 159, 184.941 159 L 180.670 159 185.115 163.250 M 104.897 182.440 C 95.828 192.460, 83.840 209.299, 79.958 217.468 C 75.446 226.967, 75.065 229.057, 77.988 228.293 C 82.650 227.074, 87.347 229.093, 92.624 234.585 C 97.277 239.427, 98.265 240, 101.963 240 C 104.238 240, 107.314 239.385, 108.800 238.634 C 113.033 236.492, 118.253 235.887, 120.607 237.266 C 121.765 237.945, 124.645 239.963, 127.007 241.750 C 133.290 246.506, 138.572 245.833, 146.427 239.275 C 148.849 237.253, 150.144 236.909, 153.927 237.285 C 156.442 237.534, 160.498 238.499, 162.940 239.430 C 168.667 241.611, 171.392 240.850, 175.867 235.817 C 180.111 231.043, 184.343 229, 189.987 229 C 193.894 229, 194.015 228.902, 193.403 226.250 C 190.579 214.024, 163.078 175.939, 158.148 177.428 C 148.786 180.256, 128.760 180.838, 116.488 178.638 L 109.476 177.381 104.897 182.440 M 86.500 193 C 86.160 193.550, 86.359 194, 86.941 194 C 87.523 194, 88 193.550, 88 193 C 88 192.450, 87.802 192, 87.559 192 C 87.316 192, 86.840 192.450, 86.500 193 M 113.604 244.495 C 111.888 245.797, 111.774 246.805, 112.402 255.121 C 113.461 269.161, 116.661 280.817, 120.278 283.817 C 121.631 284.938, 122.083 284.790, 123.328 282.817 C 125.374 279.572, 127.006 268.866, 126.969 258.918 L 126.938 250.500 122.692 247.304 C 117.179 243.155, 115.893 242.758, 113.604 244.495 M 147.750 247.286 L 143 250.479 143 262.061 C 143 273.886, 144.589 281.584, 147.533 284.028 C 148.638 284.944, 149.317 284.528, 150.864 281.983 C 155.179 274.888, 159.592 248.624, 156.996 245.495 C 155.177 243.304, 153.067 243.713, 147.750 247.286" stroke="none" fill="black" fill-rule="evenodd"/>
</svg>