<svg xmlns="http://www.w3.org/2000/svg" width="259" height="304" viewBox="0 0 259 304" version="1.1">
	<path d="M 125.347 9.327 C 113.293 13.933, 107.011 21.707, 106.191 33.030 L 105.789 38.588 98.359 41.932 C 94.272 43.771, 89.257 46.569, 87.214 48.151 C 80.535 53.321, 71.133 63.340, 68.609 67.977 C 65.008 74.593, 61 87.578, 61 92.628 C 61 96.764, 59.886 98.243, 58.482 95.972 C 58.133 95.406, 53.917 92.970, 49.115 90.558 C 35.129 83.534, 25.071 82.629, 16.337 87.609 C 8.209 92.243, 5.292 101.015, 7.559 114.004 C 9.354 124.282, 11.758 130.330, 18.640 141.875 C 28.128 157.793, 42.508 170.410, 58.246 176.625 C 60.857 177.656, 62.987 178.725, 62.980 179 C 62.973 179.275, 60.282 180.831, 57 182.457 C 53.719 184.084, 48.439 187.909, 45.267 190.957 C 33.764 202.013, 30.488 214.786, 36.614 224.694 C 40.406 230.827, 44.497 233.522, 52.030 234.848 C 59.197 236.111, 67.122 234.955, 74.099 231.629 L 78.698 229.436 78.217 238.637 C 77.789 246.827, 77.974 248.223, 79.908 251.351 C 82.560 255.641, 88.819 258.310, 95.110 257.833 L 99.497 257.500 100.267 263 C 102.605 279.709, 105.534 288.746, 110.232 293.747 C 113.928 297.681, 122.566 296.548, 125.110 291.795 C 127.153 287.977, 128.925 278.705, 129.083 271 C 129.272 261.798, 130.697 265.817, 130.882 276.072 C 131.107 288.605, 135.634 296.400, 142.686 296.400 C 145.693 296.400, 146.958 295.678, 150.041 292.204 C 152.090 289.895, 154.014 286.993, 154.318 285.754 C 154.621 284.514, 155.786 280.350, 156.906 276.500 C 158.026 272.650, 158.961 267.700, 158.985 265.500 C 159.067 257.778, 159.468 257.310, 165.945 257.398 C 173.300 257.498, 176.434 255.801, 179.114 250.264 C 180.908 246.560, 181.175 244.588, 180.790 237.928 C 180.537 233.567, 180.564 230, 180.850 230 C 181.135 230, 183.200 230.887, 185.438 231.970 C 190.838 234.584, 202.302 235.607, 208.780 234.053 C 214.325 232.723, 221.117 227.608, 223.526 222.949 C 224.373 221.311, 225 217.383, 225 213.709 C 225 201.474, 216.184 189.462, 201.691 181.947 L 195.203 178.583 203.756 174.775 C 226.737 164.543, 242.520 144.970, 251.152 116 C 252.918 110.073, 252.866 100.037, 251.051 96.401 C 247.990 90.272, 242.992 86.140, 237.177 84.933 C 228.062 83.041, 213.758 86.600, 204.547 93.052 L 199 96.938 199 93.835 C 199 87.839, 194.892 74.683, 190.648 67.085 C 188.984 64.107, 185.091 58.932, 181.997 55.585 C 176.382 49.511, 176.373 49.492, 177.229 45 C 178.324 39.255, 177.406 31.717, 175.050 27.098 C 172.349 21.803, 163.374 13.787, 156.500 10.530 C 151.507 8.164, 148.906 7.627, 141 7.331 C 132.891 7.027, 130.599 7.320, 125.347 9.327 M 129.994 14.934 C 120.419 17.847, 114.820 23.751, 113.695 32.120 L 113.074 36.740 123.652 36.882 C 129.470 36.960, 134.610 37.259, 135.074 37.546 C 135.538 37.833, 138.749 38.445, 142.209 38.907 C 149.044 39.818, 165.730 44.531, 167.590 46.075 C 168.825 47.100, 170.020 43.122, 169.978 38.125 C 169.945 34.215, 166.368 27, 164.462 27 C 163.562 27, 162.344 25.722, 161.755 24.161 C 159.634 18.543, 149.113 13.942, 138.715 14.086 C 135.297 14.133, 131.372 14.515, 129.994 14.934 M 115.885 44.095 C 112.248 44.487, 107.882 45.527, 106.185 46.404 C 104.488 47.282, 102.546 48, 101.869 48 C 99.347 48, 87.808 56.440, 82.519 62.153 C 76.449 68.709, 70.706 79.612, 68.909 87.988 C 67.375 95.141, 68.284 108.230, 70.744 114.417 C 72.497 118.824, 72.763 119.083, 73.311 116.917 C 73.647 115.587, 75.177 113.063, 76.711 111.306 C 79.201 108.455, 81.213 107.669, 95.500 103.971 C 104.300 101.693, 114.744 98.331, 118.709 96.499 C 127.823 92.288, 135.550 84.784, 139.560 76.250 C 141.175 72.813, 142.723 70.007, 142.998 70.015 C 144.459 70.060, 145.787 72.005, 147.425 76.500 C 151.671 88.151, 159.666 96.949, 171.801 103.326 C 178.824 107.016, 186 113.706, 186 116.562 C 186 119.673, 187.909 116.827, 189.576 111.232 C 191.818 103.706, 191.839 89.189, 189.617 82.672 C 182.926 63.048, 169.084 50.413, 153.019 49.268 C 149.434 49.012, 143.800 47.775, 140.500 46.520 C 133.589 43.889, 125.331 43.076, 115.885 44.095 M 141.554 84.829 C 140.540 88.025, 131.724 96.036, 125.189 99.701 C 118.171 103.637, 103.932 108.395, 94 110.123 C 86.631 111.405, 83.375 112.823, 80.498 116.003 C 78.867 117.804, 78.500 119.616, 78.500 125.855 C 78.500 133.393, 78.568 133.594, 83.314 140.217 C 90.856 150.739, 97.275 155.028, 111.394 158.977 C 118.229 160.889, 121.114 161.131, 132.894 160.781 C 143.935 160.454, 147.564 159.959, 152.146 158.156 C 173.361 149.808, 185.148 132.408, 179.370 117.968 C 177.987 114.511, 176.738 113.390, 171.120 110.560 C 160.983 105.455, 152.807 98.804, 148.155 91.876 C 145.870 88.472, 144 85.083, 144 84.344 C 144 82.360, 142.226 82.711, 141.554 84.829 M 24.143 92.172 C 16.321 93.537, 14 97.331, 14 108.750 C 14 113.068, 14.359 117.027, 14.798 117.550 C 15.237 118.072, 16.425 120.975, 17.439 124 C 20.663 133.628, 27.959 144.800, 37 153.958 C 44.156 161.205, 47.002 163.300, 55 167.203 C 64.824 171.997, 73.141 174.433, 83.510 175.554 L 89.519 176.204 96.010 170.441 C 99.579 167.272, 102.611 164.414, 102.746 164.089 C 102.881 163.765, 101.038 162.697, 98.651 161.715 C 92.443 159.162, 85.185 153.529, 80.137 147.345 C 77.710 144.371, 74.951 142, 73.918 142 C 70.982 142, 64.393 138.166, 60.456 134.166 C 55.666 129.299, 53 123.947, 53 119.195 C 53 114.489, 55.363 112, 59.829 112 C 63.575 112, 63.648 111.719, 60.904 107.865 C 53.899 98.028, 35.527 90.185, 24.143 92.172 M 222 92.428 C 213.198 94.870, 201.135 102.904, 198.438 108.120 C 196.501 111.865, 196.485 111.836, 200.719 112.190 C 203.530 112.424, 204.801 113.150, 205.927 115.167 C 209.446 121.465, 201.155 134.691, 190.611 139.601 C 187.800 140.910, 184.968 141.985, 184.318 141.990 C 183.668 141.996, 182.099 143.463, 180.832 145.250 C 175.818 152.324, 170.484 156.694, 160.995 161.503 L 155.846 164.112 160.608 168.306 C 170.210 176.762, 169.014 176.319, 178.758 175.022 C 200.019 172.193, 216.223 162.795, 228.940 145.919 C 236.013 136.533, 238.618 131.669, 242.554 120.500 C 246.084 110.482, 246.402 101.380, 243.366 97.240 C 239.119 91.446, 231.621 89.758, 222 92.428 M 92.581 118.137 C 89.007 119.093, 88.035 120.522, 88.015 124.850 C 88.004 127.339, 88.874 129.074, 91.400 131.600 C 94.269 134.469, 95.510 135, 99.343 135 C 102.905 135, 104.223 134.520, 105.443 132.777 C 107.535 129.792, 107.416 123.736, 105.214 121.016 C 103.140 118.455, 96.797 117.009, 92.581 118.137 M 157.263 118.105 C 152.186 119.588, 149.505 126.338, 152.080 131.150 C 153.539 133.875, 159.531 136.262, 163 135.500 C 166.367 134.760, 168.170 132.729, 169.846 127.783 C 172.310 120.512, 165.901 115.583, 157.263 118.105 M 60.367 121.084 C 60.706 122.780, 61.905 125.463, 63.032 127.044 C 65.128 129.988, 70.803 134.530, 71.507 133.827 C 71.722 133.612, 71.412 131.522, 70.819 129.184 C 70.066 126.218, 68.516 123.886, 65.690 121.467 C 60.698 117.194, 59.573 117.113, 60.367 121.084 M 192.166 122.846 C 189.856 124.979, 188 127.616, 188 128.765 C 188 129.904, 187.707 131.599, 187.349 132.532 C 186.069 135.869, 195.085 128.754, 197.072 124.860 C 200.687 117.772, 198.593 116.913, 192.166 122.846 M 160.658 121.675 C 160.296 122.037, 160 122.933, 160 123.667 C 160 125.156, 162.578 125.492, 163.430 124.113 C 164.111 123.012, 161.562 120.771, 160.658 121.675 M 94.177 123.667 C 94.663 126.176, 97 126.520, 97 124.083 C 97 122.855, 96.354 122, 95.427 122 C 94.495 122, 93.985 122.680, 94.177 123.667 M 121.250 135.711 C 119.399 136.386, 119.732 138.732, 122 141 C 123.509 142.509, 125.333 143, 129.427 143 C 134.118 143, 135.140 142.638, 136.956 140.329 C 139.811 136.699, 138.119 134.908, 134.086 137.290 C 130.326 139.511, 127.132 139.457, 124.564 137.127 C 123.429 136.097, 121.938 135.460, 121.250 135.711 M 118.327 168.500 C 119.105 170.878, 125.447 174, 129.500 174 C 133.553 174, 139.895 170.878, 140.673 168.500 C 140.878 167.872, 136.718 167.500, 129.500 167.500 C 122.282 167.500, 118.122 167.872, 118.327 168.500 M 111 169.986 C 111 172.164, 109.637 178.138, 106.955 187.717 C 105.603 192.546, 105.485 194.158, 106.427 194.939 C 108.720 196.843, 121.073 199.057, 129.778 199.125 C 138.799 199.196, 141.236 198.847, 149.201 196.347 C 153.736 194.924, 153.865 194.777, 152.865 192.186 C 152.295 190.709, 151.449 187.475, 150.986 185 C 150.523 182.525, 149.383 177.694, 148.453 174.265 L 146.761 168.029 143.819 172.092 C 140.303 176.945, 135.875 179, 128.933 179 C 122.306 179, 117.840 176.819, 114.449 171.926 C 111.337 167.436, 111 167.246, 111 169.986 M 98 177.666 C 94.975 180.624, 90.925 184.567, 89 186.428 C 85.255 190.049, 76.842 195.602, 70.796 198.443 C 65.781 200.800, 64.389 202.558, 66 204.500 C 68.934 208.035, 79.610 204.595, 92.429 195.983 C 99.309 191.362, 99.974 190.601, 101.382 185.745 C 102.992 180.194, 104.514 171.902, 103.878 172.144 C 103.670 172.223, 101.025 174.708, 98 177.666 M 154.297 173.500 C 154.618 174.600, 155.375 177.525, 155.978 180 C 158.177 189.021, 159.761 191.251, 167.816 196.663 C 179.052 204.212, 183.422 206.160, 188.316 205.804 C 194.571 205.349, 194.059 202.431, 187 198.307 C 176.122 191.952, 170.042 187.290, 160.107 177.682 C 156.223 173.926, 153.943 172.285, 154.297 173.500 M 74 183.417 C 66.027 185.174, 52.605 192.475, 48.473 197.302 C 35.164 212.852, 40.066 228, 58.408 228 C 69.928 228, 81.997 220.808, 87.029 210.944 C 88.135 208.775, 88.798 207, 88.501 207 C 88.205 207, 85.432 208.350, 82.340 210 C 70.315 216.417, 58 212.600, 58 202.456 C 58 198.829, 64.144 192.662, 70.738 189.669 C 76.930 186.859, 83.514 182.027, 81 182.138 C 80.175 182.175, 77.025 182.750, 74 183.417 M 178.673 184.317 C 180.228 185.592, 184.650 188.317, 188.500 190.372 C 197.529 195.193, 200 197.935, 200 203.133 C 200 206.244, 199.338 207.815, 197.077 210.077 C 194.452 212.702, 193.498 213, 187.718 213 C 182.478 213, 180.233 212.441, 175.641 209.990 C 172.538 208.334, 170 207.323, 170 207.743 C 170 209.204, 176.627 217.815, 179.818 220.501 C 183.983 224.005, 195.231 227.952, 201.128 227.979 C 209.151 228.015, 215.501 224.103, 217.963 217.607 C 220.796 210.130, 211.746 195.499, 200.744 189.773 C 192.851 185.664, 182.473 182, 178.728 182 L 175.847 182 178.673 184.317 M 101.215 203.408 C 92.682 213.127, 87.579 223.385, 85.902 234.191 C 83.839 247.493, 87.426 252.747, 96.468 249.666 C 109.044 245.381, 114.524 235.737, 120.550 207.291 C 120.948 205.408, 120.399 204.915, 116.829 203.954 C 112.973 202.916, 112.505 203.004, 110.951 205.064 C 110.023 206.296, 108.261 210.140, 107.037 213.607 C 104.666 220.325, 102.578 222.978, 100.946 221.346 C 99.932 220.332, 102.315 212.405, 105.496 206.212 C 107.150 202.991, 106.977 200, 105.135 200 C 104.625 200, 102.861 201.534, 101.215 203.408 M 153.011 200.993 C 151.876 201.695, 152.304 203.320, 155.308 209.722 C 159.042 217.677, 159.710 220.443, 158.134 221.417 C 156.741 222.278, 154.480 219.041, 150.681 210.750 C 147.031 202.784, 146.243 202.197, 141.584 203.968 C 138.713 205.060, 138.695 204.536, 142.157 220.500 C 144.843 232.886, 148.468 241.359, 152.342 244.303 C 157.702 248.377, 161.714 250, 166.425 250 C 170.498 250, 171.113 249.683, 172.595 246.816 C 176.073 240.090, 171.630 224.747, 161.923 209.965 C 155.588 200.316, 155.024 199.749, 153.011 200.993 M 123.277 216.750 C 121.613 223.213, 119.250 231.200, 118.026 234.500 C 115.601 241.041, 115.756 247.386, 118.435 251.211 C 122.439 256.928, 130.738 258.677, 136.677 255.055 C 140.042 253.003, 144.474 244.691, 143.635 242.004 C 143.376 241.177, 141.842 236.675, 140.226 232 C 138.609 227.325, 136.491 219.338, 135.519 214.250 L 133.752 205 130.028 205 L 126.304 205 123.277 216.750 M 108.250 250.953 C 106.585 253.643, 106.673 259.773, 108.516 269.500 C 110.176 278.265, 114.692 288.500, 116.899 288.500 C 118.954 288.500, 120.927 281.801, 121.652 272.360 L 122.290 264.066 117.090 259.391 C 114.230 256.819, 111.352 253.414, 110.695 251.824 C 109.540 249.029, 109.458 249, 108.250 250.953 M 146.962 254.091 C 146.258 255.791, 143.946 258.331, 141.824 259.735 C 139.702 261.140, 137.687 263.398, 137.347 264.755 C 136.493 268.157, 138.780 283.675, 140.676 287.341 L 142.230 290.346 144.066 287.923 C 148.989 281.426, 154.743 255.805, 152.017 252.521 C 150.069 250.174, 148.366 250.703, 146.962 254.091" stroke="none" fill="black" fill-rule="evenodd"/>
</svg>