<svg xmlns="http://www.w3.org/2000/svg" width="275" height="291" viewBox="0 0 275 291" version="1.1">
	<path d="M 135.120 8.356 C 134.501 9.102, 129.196 19.114, 123.332 30.606 C 108.237 60.187, 93.152 89.725, 90.457 94.980 C 87.788 100.183, 88.312 101.850, 93.105 103.411 L 96.452 104.500 96.195 142 C 96.054 162.625, 95.697 180.287, 95.402 181.250 C 95.093 182.258, 93.884 183, 92.549 183 C 90.040 183, 89.038 180.840, 89.014 175.386 C 89.001 172.442, 88.746 172.237, 84.360 171.636 C 81.809 171.286, 77.984 171, 75.860 171 L 72 171 72 165.798 C 72 161.282, 72.429 160.153, 75.250 157.245 L 78.500 153.895 78.830 141.531 C 79.187 128.155, 78.402 125.002, 74.715 124.996 C 72.292 124.992, 69.429 120.064, 62.514 104 C 60.502 99.325, 58.002 93.700, 56.958 91.500 C 49.288 75.337, 46 66.298, 46 61.378 L 46 56.199 51.250 54.972 C 59.254 53.100, 72.347 48.909, 73.750 47.770 C 76.058 45.896, 75.139 43.029, 71.750 41.532 C 67.411 39.614, 51.452 33.564, 46.709 32.038 C 40.008 29.881, 40 29.902, 40 49.346 C 40 68.625, 40.481 66.550, 31.504 86 C 28.584 92.325, 24.314 101.775, 22.014 107 C 15.881 120.934, 13.775 124.979, 12.926 124.454 C 12.509 124.197, 11.005 124.428, 9.584 124.968 L 7 125.950 7 139.253 C 7 153.303, 7.491 155.088, 12.469 159.161 C 14.464 160.793, 14.505 161.896, 14.773 221.616 C 14.983 268.309, 15.330 282.591, 16.273 283.190 C 17.868 284.203, 258.118 284.212, 259.713 283.199 C 260.636 282.612, 260.994 267.973, 261.213 221.885 L 261.500 161.343 264.147 157.872 C 267.708 153.205, 268.991 148.064, 268.980 138.500 C 268.970 129.745, 267.565 125.661, 264.406 125.204 C 263.021 125.004, 261.383 122.909, 259.322 118.704 C 253.826 107.487, 246 90.895, 246 90.458 C 246 90.223, 243.750 85.247, 241 79.402 C 236.643 70.142, 236 67.959, 236 62.434 L 236 56.094 239.670 55.081 C 241.688 54.523, 245.684 53.543, 248.548 52.902 C 256.299 51.167, 264.500 46.898, 264.500 44.598 C 264.500 42.580, 259.743 40.296, 241.459 33.532 C 228.541 28.753, 229 28.159, 229 49.641 L 229 67.183 219.361 88.841 C 204.507 122.219, 203.095 125, 200.993 125 C 196.886 125, 196.163 127.297, 196.511 139.230 C 196.870 151.541, 197.735 154.923, 201.396 158.316 C 203.671 160.425, 204.499 163.559, 204.151 168.750 C 204.023 170.655, 203.425 171.001, 200.250 171.009 C 198.188 171.013, 194.137 171.301, 191.250 171.648 L 186 172.279 186 177.639 C 186 182.867, 185.929 183, 183.148 183 L 180.296 183 179.654 174.750 C 179.301 170.213, 179.009 152.450, 179.006 135.279 L 179 104.057 182.250 103.219 C 184.606 102.612, 185.595 101.725, 185.846 99.992 C 186.076 98.400, 178.591 82.485, 163.417 52.301 C 143.764 13.210, 140.341 7, 138.443 7 C 137.234 7, 135.739 7.610, 135.120 8.356 M 133.192 26.692 C 130.865 31.424, 129.128 35.461, 129.332 35.665 C 129.719 36.052, 144.141 33.192, 144.720 32.613 C 144.960 32.374, 138.991 20.436, 137.560 18.295 C 137.485 18.182, 135.519 21.961, 133.192 26.692 M 46 44.154 L 46 51.159 49.250 50.504 C 51.038 50.144, 55.765 48.896, 59.756 47.732 L 67.011 45.614 62.756 43.915 C 60.415 42.980, 55.688 41.076, 52.250 39.682 L 46 37.149 46 44.154 M 139.759 38.576 C 127.386 41.040, 125.431 41.806, 124.033 44.742 C 123.310 46.259, 121.612 49.668, 120.260 52.318 C 118.908 54.967, 117.981 57.315, 118.201 57.534 C 119.966 59.299, 154 53.189, 154 51.108 C 154 50.363, 146.975 36.930, 146.683 37.117 C 146.582 37.181, 143.467 37.837, 139.759 38.576 M 235.806 43.250 C 236.045 46.688, 236.422 49.698, 236.644 49.941 C 236.867 50.184, 241.407 49.331, 246.734 48.047 L 256.420 45.712 250.960 43.279 C 246.792 41.422, 235.868 37.004, 235.436 37.001 C 235.401 37, 235.568 39.813, 235.806 43.250 M 148 57.928 C 142.100 59.925, 132.554 61.614, 121.853 62.553 L 115.206 63.137 111.857 69.319 C 110.015 72.718, 107.937 76.805, 107.240 78.399 L 105.971 81.298 119.736 80.732 C 134.764 80.113, 145.368 78.257, 156.373 74.317 C 160.293 72.913, 163.646 71.634, 163.825 71.474 C 164.004 71.314, 162.484 67.767, 160.448 63.592 C 158.067 58.709, 156.167 56.012, 155.123 56.033 C 154.230 56.052, 151.025 56.905, 148 57.928 M 155.500 79.628 C 144.571 83.130, 127.396 85.892, 116 85.980 C 105.492 86.060, 103.106 86.872, 100.949 91.099 C 99.877 93.201, 99 95.163, 99 95.460 C 99 95.757, 116.563 96, 138.030 96 L 177.060 96 171.951 86 C 169.141 80.500, 166.765 76.023, 166.671 76.051 C 166.577 76.079, 161.550 77.689, 155.500 79.628 M 229.178 85.441 C 227.430 89.025, 226 92.199, 226 92.493 C 226 92.788, 222.850 99.991, 219 108.500 C 215.150 117.009, 212 124.203, 212 124.486 C 212 124.769, 213.350 125, 215 125 C 217.933 125, 218 125.111, 218 130 C 218 134.286, 218.278 135, 219.945 135 C 221.556 135, 221.943 134.184, 222.195 130.250 L 222.500 125.500 232.500 125.500 L 242.500 125.500 242.805 130.250 C 243.054 134.134, 243.454 135, 245 135 C 246.546 135, 246.946 134.134, 247.195 130.250 C 247.474 125.900, 247.732 125.473, 250.250 125.184 C 251.762 125.010, 253 124.712, 253 124.522 C 253 123.614, 245.697 107.462, 241.461 99 C 238.845 93.775, 235.726 87.120, 234.530 84.212 L 232.355 78.923 229.178 85.441 M 39.195 86.409 C 37.438 89.940, 36 93.132, 36 93.503 C 36 93.873, 34.650 97.093, 33 100.658 C 31.350 104.223, 30 107.338, 30 107.581 C 30 107.823, 29.129 109.929, 28.064 112.261 C 25.846 117.116, 23 124.064, 23 124.622 C 23 124.830, 24.125 125, 25.500 125 C 27.679 125, 28 125.439, 28 128.418 C 28 132.823, 28.862 135, 30.607 135 C 31.547 135, 32.005 133.781, 32.015 131.250 C 32.024 129.188, 32.362 126.979, 32.768 126.342 C 33.864 124.619, 39.724 123.949, 46.500 124.772 C 51.930 125.431, 52.527 125.738, 52.780 128 C 53.353 133.113, 54.076 135, 55.464 135 C 56.456 135, 56.983 133.554, 57.195 130.250 C 57.474 125.900, 57.732 125.473, 60.250 125.184 C 61.763 125.010, 63 124.478, 63 124.003 C 63 123.528, 61.597 120.071, 59.882 116.320 C 50.024 94.757, 43.728 81.409, 43.102 80.745 C 42.710 80.330, 40.952 82.879, 39.195 86.409 M 131.750 102.732 L 104 103.032 104 137.016 L 104 171 109.750 171.014 C 119.445 171.037, 120 171.394, 120 177.617 C 120 182.931, 120.038 183, 123 183 C 125.970 183, 126 182.944, 126 177.500 L 126 172 137.383 172 C 150.046 172, 149.954 171.943, 149.986 179.750 C 149.999 182.691, 150.285 183, 153 183 C 155.970 183, 156 182.944, 156 177.500 C 156 172.115, 156.060 172, 158.860 172 C 160.434 172, 163.809 171.714, 166.360 171.364 L 171 170.728 171 136.864 L 171 103 167.250 102.986 C 165.188 102.979, 162.600 102.851, 161.500 102.703 C 160.400 102.554, 147.012 102.568, 131.750 102.732 M 130.389 115.845 C 126.747 118.135, 123.770 122.131, 122.153 126.899 C 120.583 131.527, 120.620 154.220, 122.200 155.800 C 123.025 156.625, 128.029 157, 138.231 157 C 151.433 157, 153.137 156.808, 153.737 155.250 C 154.108 154.287, 154.431 147.875, 154.456 141 C 154.495 129.869, 154.244 127.981, 152.164 123.757 C 149.124 117.584, 145.058 114.739, 138.592 114.263 C 134.787 113.983, 132.713 114.383, 130.389 115.845 M 134.500 119.954 C 129.660 121.956, 127.742 125.578, 126.944 134.219 C 126.524 138.774, 126.417 144.350, 126.707 146.611 L 127.234 150.722 134.867 151.290 C 139.065 151.603, 143.738 151.613, 145.250 151.313 C 148.397 150.688, 148.453 150.364, 148.044 135 C 147.766 124.530, 146.949 122.761, 141.282 120.362 C 137.651 118.825, 137.283 118.803, 134.500 119.954 M 15.355 132.741 C 14.616 133.231, 14.271 136.603, 14.383 142.243 C 14.642 155.240, 12.951 154.526, 43.092 154.375 C 72.780 154.227, 70.920 155.070, 70.968 141.750 L 71 133 68 133 C 65.126 133, 65 133.183, 65 137.357 L 65 141.714 56.860 142.272 C 52.383 142.579, 48.108 142.595, 47.360 142.308 C 46.470 141.966, 46 140.097, 46 136.893 C 46 132.123, 45.925 132, 43 132 C 40.115 132, 40 132.171, 40 136.465 C 40 141.762, 38.414 143, 31.631 143 C 24.114 143, 22.168 141.771, 21.810 136.797 C 21.539 133.047, 21.182 132.467, 19 132.241 C 17.625 132.098, 15.985 132.323, 15.355 132.741 M 206.750 132.794 L 204 133.133 204 141.456 C 204 148.159, 204.372 150.238, 205.911 152.139 L 207.822 154.500 232.305 154.500 C 262.330 154.500, 261 155.081, 261 141.962 C 261 134.460, 260.752 133.168, 259.234 132.771 C 255.913 131.903, 254.500 133.315, 254.500 137.500 L 254.500 141.500 248 142.196 C 244.425 142.579, 240.274 142.658, 238.775 142.372 C 236.361 141.911, 235.974 141.282, 235.389 136.873 C 234.773 132.231, 234.551 131.914, 232.114 132.197 C 230.004 132.442, 229.564 132.955, 229.831 134.858 C 230.471 139.413, 229.211 141.738, 225.759 142.376 C 222.609 142.957, 212.494 141.828, 211.443 140.777 C 211.160 140.493, 210.780 138.613, 210.599 136.599 C 210.213 132.293, 210.280 132.360, 206.750 132.794 M 24.835 161.631 C 23.919 161.897, 22.949 162.691, 22.678 163.397 C 22.407 164.102, 22.049 189.529, 21.881 219.900 C 21.619 267.460, 21.780 275.257, 23.038 276.104 C 24.780 277.275, 61.879 276.876, 63.775 275.665 C 64.795 275.014, 64.927 263.636, 64.437 218.676 C 64.099 187.779, 63.659 162.334, 63.459 162.131 C 62.892 161.556, 26.708 161.088, 24.835 161.631 M 214.750 161.685 C 212.274 162.088, 211.993 162.550, 211.929 166.316 C 211.430 195.607, 211.242 271.266, 211.662 273.707 L 212.214 276.913 232.554 276.913 C 250.867 276.913, 252.942 276.743, 253.389 275.207 C 254.164 272.536, 253.354 163.021, 252.553 162.217 C 251.767 161.428, 219.151 160.969, 214.750 161.685 M 35.984 180.174 C 34.316 181.920, 32.624 184.507, 32.225 185.924 C 31.137 189.790, 31.352 207.763, 32.500 208.826 C 33.833 210.059, 52.302 211.049, 54.033 209.980 C 56.032 208.744, 55.469 187.790, 53.314 183.250 C 51.444 179.308, 47.472 177, 42.558 177 C 39.885 177, 38.275 177.777, 35.984 180.174 M 225.432 180.250 C 223.192 182.308, 221.556 184.967, 220.971 187.500 C 219.828 192.452, 219.741 207.043, 220.844 208.781 C 221.368 209.608, 225.189 210.278, 231.619 210.670 C 244.701 211.467, 245.002 211.197, 244.994 198.679 C 244.988 187.295, 243.802 182.853, 239.894 179.564 C 235.396 175.779, 230.022 176.034, 225.432 180.250 M 137.250 178.807 L 133 179.115 133 184.594 L 133 190.072 123.250 189.786 L 113.500 189.500 113.226 186.500 C 112.580 179.430, 112.265 179, 107.731 179.001 L 103.500 179.002 103.198 183.681 C 103.032 186.254, 102.668 188.729, 102.389 189.180 C 101.808 190.120, 86.957 190.305, 84.603 189.401 C 83.628 189.027, 82.799 186.965, 82.393 183.901 L 81.742 179 76.972 179 L 72.201 179 71.535 191.250 C 70.646 207.581, 71.278 274.612, 72.331 275.667 C 73.471 276.810, 103.176 277.262, 104.836 276.161 C 105.866 275.478, 106.214 270.623, 106.360 254.888 C 106.529 236.538, 106.771 233.904, 108.774 228.534 C 111.279 221.822, 118.018 214.174, 124.500 210.686 C 130.420 207.501, 144.607 207.568, 151.193 210.812 C 157.674 214.004, 163.008 219.473, 166.526 226.531 L 169.500 232.500 169.819 254.152 L 170.138 275.803 173.558 276.445 C 175.439 276.798, 183.027 277.022, 190.421 276.943 C 201.278 276.827, 203.972 276.514, 204.432 275.318 C 205.172 273.388, 204.921 204.917, 204.118 190 L 203.500 178.500 198.752 178.500 L 194.004 178.500 193.987 183 C 193.960 189.904, 193.611 190.119, 182.928 189.790 C 175.470 189.560, 173.483 189.189, 173.328 188 C 172.141 178.864, 172.229 179, 167.507 179 L 163.105 179 162.802 184.250 L 162.500 189.500 152.750 189.786 L 143 190.072 142.930 185.786 C 142.823 179.284, 142.147 178.453, 137.250 178.807 M 39.449 184.057 C 37.992 185.667, 37.499 188.144, 37.179 195.462 L 36.770 204.811 42.887 205.155 L 49.004 205.500 49.002 196.385 C 49 188.679, 48.680 186.862, 46.927 184.635 C 44.438 181.470, 41.963 181.278, 39.449 184.057 M 228.417 184.684 C 226.093 187.192, 225.949 187.963, 226.215 196.434 L 226.500 205.500 232.500 205.491 L 238.500 205.482 238.470 196.491 C 238.447 189.470, 238.038 186.897, 236.605 184.750 C 234.287 181.277, 231.595 181.255, 228.417 184.684 M 127.419 215.897 C 121.691 218.499, 116.785 223.925, 114.515 230.171 C 112.801 234.885, 112.608 237.800, 112.840 255.429 C 112.984 266.389, 113.331 275.727, 113.610 276.179 C 113.890 276.630, 125.008 277, 138.318 277 C 160.300 277, 162.615 276.840, 163.568 275.250 C 164.799 273.197, 163.532 241.610, 161.883 233.227 C 160.556 226.479, 155.901 220.314, 149.461 216.773 C 143.276 213.374, 133.804 212.998, 127.419 215.897" stroke="none" fill="black" fill-rule="evenodd"/>
</svg>