<svg xmlns="http://www.w3.org/2000/svg" width="272" height="315" viewBox="0 0 272 315" version="1.1">
	<path d="M 195.061 7.087 C 182.760 8.679, 168.521 14.104, 160 20.444 C 150.021 27.870, 139.524 40.839, 135.876 50.249 L 134.423 53.998 130.259 47.665 C 125.255 40.053, 114.482 29.760, 106.660 25.116 C 103.525 23.254, 97.031 20.363, 92.230 18.690 C 84.701 16.067, 81.721 15.590, 70.567 15.219 C 55.912 14.733, 46.455 16.276, 34.897 21.042 C 27.291 24.179, 16.208 31.067, 11.250 35.740 C 5.628 41.038, 7.582 46.223, 16.419 49.458 C 18.664 50.279, 25.399 52.762, 31.386 54.976 C 37.373 57.189, 43.015 59, 43.924 59 C 44.833 59, 47.265 58.139, 49.328 57.088 C 52.871 55.281, 53.048 55.275, 52.509 56.973 C 51.572 59.925, 53.990 63.699, 57.865 65.330 C 59.864 66.171, 65.531 68.126, 70.459 69.674 C 75.386 71.222, 78.536 72.623, 77.459 72.787 C 72.769 73.502, 59.945 78.680, 53.585 82.427 C 39.641 90.640, 25.328 108.101, 19.915 123.503 C 16.723 132.584, 15 143.146, 15 153.633 C 15 162.453, 15.173 163.264, 17.566 165.657 C 21.200 169.291, 23.568 168.541, 40.466 158.401 C 55.228 149.544, 56.993 147.782, 57.353 141.545 C 57.530 138.479, 58.112 138.348, 59.768 141 C 61.692 144.081, 64.828 143.433, 74.304 138 C 79.100 135.250, 83.408 133, 83.877 133 C 86.085 133, 89.832 128.710, 90.436 125.490 C 91.451 120.082, 92.731 122.196, 92.215 128.426 C 91.645 135.297, 93.761 141.042, 98.823 146.369 C 103.749 151.553, 109.205 153.951, 116.135 153.978 L 121.770 154 122.461 159.534 C 123.884 170.926, 121.520 206.184, 117.406 234.916 C 115.759 246.416, 111.023 270.322, 107.879 283 C 107.402 284.925, 107.009 288.778, 107.006 291.563 C 106.999 297.560, 109.536 300.605, 117.301 303.922 C 135.014 311.488, 168.903 307.828, 173.691 297.833 C 176.257 292.476, 177.216 278.459, 176.656 254.500 C 175.844 219.746, 174.630 205.604, 169.965 176.500 C 169.524 173.750, 168.686 168.125, 168.102 164 C 167.518 159.875, 166.807 155.523, 166.521 154.329 C 166.093 152.540, 166.554 152.037, 169.143 151.469 C 173.120 150.595, 180.526 143.823, 183.276 138.545 C 184.969 135.296, 185.391 132.666, 185.419 125.182 C 185.439 120.057, 185.633 116.457, 185.852 117.182 C 186.362 118.872, 191.122 124, 192.181 124 C 192.624 124, 197.493 126.025, 203 128.500 C 214.637 133.730, 217.070 133.998, 219.927 130.365 C 221.921 127.831, 222 127.814, 222 129.915 C 222 135.689, 224.578 137.880, 240.423 145.573 C 262.570 156.326, 265 155.785, 265 140.098 C 265 117.556, 250.545 92.109, 229.586 77.754 C 222.898 73.173, 208.226 67.594, 200 66.505 C 191.586 65.391, 190.924 64.570, 196.464 62.119 C 199.099 60.954, 201.495 60, 201.789 60 C 202.083 60, 205.176 58.332, 208.662 56.292 C 213.862 53.250, 215 52.119, 215 49.992 C 215 48.567, 214.438 46.794, 213.750 46.053 C 212.722 44.945, 212.856 44.840, 214.500 45.463 C 220.943 47.904, 224.516 47.344, 234.118 42.388 C 255.044 31.588, 258.361 28.533, 255.394 22.795 C 252.269 16.751, 231.791 8.513, 216.097 6.986 C 205.222 5.927, 203.976 5.933, 195.061 7.087 M 192 16.692 C 183.728 18.080, 172.004 23.259, 164.839 28.689 C 149.212 40.533, 141 55.775, 141 72.935 L 141 80.932 145.250 78.075 C 150.077 74.830, 154.202 72.962, 165.221 69.032 L 172.942 66.279 169.999 62.389 C 166.613 57.914, 166.072 53.429, 168.814 52.559 C 169.811 52.243, 172.849 52.689, 175.564 53.552 C 178.279 54.414, 181.728 55.508, 183.229 55.984 C 185.462 56.691, 187.595 56.051, 194.979 52.457 C 203.675 48.225, 205.216 46.869, 202.934 45.459 C 200.629 44.035, 196.148 36.777, 196.695 35.354 C 197.916 32.171, 201.524 32.043, 212.473 34.794 L 223.124 37.471 230.312 33.513 C 234.265 31.335, 238.948 28.867, 240.717 28.027 C 242.487 27.187, 243.950 26.224, 243.967 25.887 C 243.999 25.288, 235.485 21.356, 229.500 19.205 C 221.634 16.379, 201.789 15.049, 192 16.692 M 54.500 24.631 C 50.180 25.303, 42.350 27.873, 36 30.704 C 30.825 33.011, 19.684 40.018, 20.266 40.599 C 20.412 40.746, 25.562 42.660, 31.710 44.853 L 42.887 48.840 50.584 45.969 C 54.818 44.389, 59.558 42.817, 61.118 42.474 C 67.459 41.081, 70.632 44.899, 67.171 49.759 C 66.091 51.276, 65.048 53.638, 64.854 55.009 C 64.527 57.312, 65.104 57.701, 72.500 60.165 C 82.626 63.538, 83.964 63.559, 90.115 60.442 C 92.892 59.034, 96.365 58.022, 97.832 58.192 C 100.149 58.459, 100.457 58.895, 100.175 61.500 C 99.996 63.150, 98.956 65.947, 97.864 67.716 L 95.879 70.932 98.190 71.419 C 114.429 74.842, 120.655 76.550, 125.845 79.004 C 129.230 80.605, 132 81.514, 132 81.023 C 132 80.532, 131.319 76.891, 130.486 72.932 C 126.014 51.675, 110.364 35.001, 87.254 26.871 C 81.524 24.855, 61.755 23.503, 54.500 24.631 M 177.539 75.112 C 164.998 76.939, 151.530 82.613, 146.156 88.334 L 143.918 90.716 146.209 92.180 C 147.469 92.985, 153.675 96.140, 160 99.190 C 176.885 107.334, 179.041 108.301, 179.372 107.881 C 179.538 107.671, 181.104 104.958, 182.852 101.851 C 184.601 98.744, 186.699 95.946, 187.516 95.632 C 190.859 94.349, 193.355 97.446, 194.391 104.161 C 196.167 115.675, 195.216 114.334, 204.566 118.500 C 209.432 120.669, 213.436 121.915, 213.884 121.401 C 214.316 120.905, 215.459 118.354, 216.424 115.732 C 219.367 107.737, 222.846 105.789, 225.320 110.750 C 226.074 112.263, 227.954 117.447, 229.499 122.271 L 232.308 131.043 239.904 134.642 C 244.082 136.621, 249.136 139.087, 251.136 140.120 C 253.136 141.154, 255.100 142, 255.500 142 C 256.405 142, 255.358 134.557, 253.259 126.074 C 248.058 105.059, 229.617 84.916, 209.346 78.110 C 204.158 76.368, 187.825 73.752, 184.500 74.130 C 183.950 74.193, 180.818 74.635, 177.539 75.112 M 74 83.423 C 60.686 87.358, 50.705 94.032, 41.251 105.324 C 30.510 118.154, 25.004 133.041, 25.001 149.264 L 25 156.029 30.810 153.096 C 34.005 151.483, 37.153 149.521, 37.804 148.736 C 38.456 147.951, 40.801 146.492, 43.016 145.493 C 45.480 144.382, 47.196 142.866, 47.438 141.588 C 47.655 140.440, 48.882 135, 50.166 129.500 C 51.986 121.703, 52.902 119.426, 54.324 119.162 C 56.795 118.705, 59.247 121.117, 62.062 126.774 C 63.356 129.373, 64.518 131.659, 64.644 131.854 C 64.771 132.048, 68.458 130.297, 72.839 127.963 L 80.805 123.719 81.435 118.109 C 82.576 107.970, 84.031 103.125, 86.138 102.456 C 88.641 101.662, 90.130 102.941, 94.135 109.327 C 95.919 112.172, 97.498 114.667, 97.644 114.871 C 97.789 115.074, 99.616 113.910, 101.704 112.284 C 103.792 110.657, 108.425 107.370, 112 104.980 C 119.951 99.664, 128.869 92.740, 128.944 91.823 C 129.057 90.457, 117.825 84.809, 111.263 82.932 C 101.591 80.166, 84.248 80.395, 74 83.423 M 131 102.154 C 124.246 107.245, 124.303 107.158, 124.818 111.570 C 125.372 116.316, 131.128 122.371, 136.654 124.019 C 144.504 126.362, 151.241 123.368, 155.087 115.829 C 158.382 109.371, 157.667 108.223, 147 102.826 C 141.775 100.183, 137.275 98.018, 137 98.014 C 136.725 98.011, 134.025 99.874, 131 102.154 M 113.506 114.552 C 111.309 115.881, 107.821 118.609, 105.756 120.614 C 102.474 123.799, 102.002 124.842, 102.016 128.879 C 102.038 134.826, 105.420 140.925, 110.015 143.304 C 113.974 145.354, 120.035 145.026, 125.419 142.472 C 128.352 141.080, 133 134.787, 133 132.209 C 133 131.649, 130.965 129.997, 128.478 128.540 C 123.630 125.699, 119.144 119.866, 118.127 115.082 L 117.500 112.135 113.506 114.552 M 163.996 114.250 C 163.988 119.480, 157.162 127.645, 149.993 131.004 L 145.070 133.309 146.763 136.176 C 148.898 139.790, 156.008 143.287, 161.468 143.407 C 169.312 143.581, 176.167 135.702, 176.167 126.513 C 176.167 120.984, 174.879 118.649, 169.798 114.969 C 164.883 111.408, 164.001 111.299, 163.996 114.250 M 135.547 144.198 C 131.831 149.175, 131.229 152.704, 132.642 161.250 L 133.262 165 140.381 164.920 C 144.296 164.875, 149.525 164.313, 152 163.670 C 155.878 162.662, 156.545 162.103, 156.828 159.629 C 157.394 154.676, 156.161 152.123, 152.234 150.118 C 150.180 149.069, 146.383 146.239, 143.797 143.829 L 139.093 139.447 135.547 144.198 M 149 168.607 C 144.325 169.326, 138.869 169.934, 136.875 169.958 C 133.628 169.996, 133.185 170.326, 132.625 173.125 C 132.281 174.844, 132 180.673, 132 186.080 L 132 195.909 135.433 196.553 C 140.237 197.455, 156.975 196.588, 160.063 195.279 C 162.496 194.247, 162.592 193.920, 161.950 188.846 C 160.679 178.801, 158.814 168.501, 158.156 167.899 C 157.795 167.569, 153.675 167.887, 149 168.607 M 160.500 200.240 C 158.850 200.733, 151.541 201.218, 144.257 201.318 C 131.766 201.490, 131.011 201.613, 130.949 203.500 C 130.913 204.600, 130.323 210.819, 129.638 217.320 C 128.208 230.889, 127.732 230, 137.500 232.012 C 144.707 233.497, 156.138 232.729, 162.052 230.363 L 166.236 228.689 165.547 219.094 C 165.169 213.817, 164.553 207.215, 164.179 204.421 L 163.500 199.343 160.500 200.240 M 162.500 234.595 C 153.328 237.842, 144.536 238.106, 131 235.540 L 127.500 234.877 125.661 246.189 C 124.649 252.410, 123.593 258.870, 123.313 260.545 C 122.698 264.231, 123.983 264.970, 135.437 267.518 C 144.533 269.542, 158.338 269.140, 164 266.687 L 167.500 265.170 167.182 249.350 C 167.006 240.649, 166.781 233.451, 166.682 233.354 C 166.582 233.258, 164.700 233.816, 162.500 234.595 M 118.722 280.743 C 116.081 291.911, 116.032 292.550, 117.722 293.787 C 126.056 299.885, 155.702 300.095, 164.877 294.122 C 165.863 293.480, 166.401 289.905, 166.770 281.539 L 167.285 269.854 163.422 271.468 C 156.822 274.226, 142.847 274.556, 133 272.188 C 128.325 271.063, 123.825 269.886, 123 269.571 C 121.804 269.115, 120.936 271.382, 118.722 280.743" stroke="none" fill="black" fill-rule="evenodd"/>
</svg>