<svg xmlns="http://www.w3.org/2000/svg" width="320" height="238" viewBox="0 0 320 238" version="1.1">
	<path d="M 95.571 8.571 C 93.375 10.767, 93.549 11.877, 97.382 20.177 C 106.122 39.100, 112.026 55.341, 115.494 70 C 116.860 75.775, 118.844 83.875, 119.904 88 C 120.964 92.125, 122.336 99.550, 122.953 104.500 C 123.570 109.450, 124.349 114.850, 124.683 116.500 C 125.018 118.150, 122.694 114.550, 119.519 108.500 C 106.169 83.059, 85.513 56.813, 65.065 39.309 C 56.324 31.827, 53.449 30.728, 50.888 33.890 C 49.148 36.039, 49.329 36.510, 60.335 58.323 C 66.506 70.556, 72.306 82.801, 73.224 85.533 C 74.141 88.265, 76.314 94.325, 78.053 99 C 79.792 103.675, 81.574 108.850, 82.015 110.500 C 82.455 112.150, 84.173 118.222, 85.832 123.992 C 87.491 129.763, 88.709 134.624, 88.538 134.795 C 88.368 134.966, 87.201 133.394, 85.947 131.303 C 84.692 129.211, 82.063 125.499, 80.104 123.053 C 78.146 120.607, 75.493 117.058, 74.210 115.167 C 65.554 102.412, 40.052 80.005, 27.449 74.081 C 21.757 71.406, 20.399 71.461, 18.441 74.449 C 16.876 76.839, 17.009 77.140, 23.911 86.806 C 33.055 99.614, 42.294 115.695, 48.403 129.438 C 53.354 140.576, 63.413 168.920, 62.676 169.657 C 62.453 169.880, 61.566 168.987, 60.705 167.672 C 58.394 164.146, 49.202 155.058, 43.489 150.652 C 27.962 138.676, 9.763 131.710, 7.170 136.750 C 5.873 139.273, 6.668 140.812, 12.582 147.233 C 24.040 159.672, 34.749 179.249, 39.258 196 C 43.019 209.975, 44 214.630, 44 218.514 L 44 222 37.250 222.032 C 33.229 222.051, 29.792 222.601, 28.750 223.392 C 26.729 224.926, 26.460 228.060, 28.200 229.800 C 29.121 230.721, 59.654 231, 159.545 231 C 287.857 231, 289.715 230.972, 291.477 229.026 C 293.150 227.177, 293.158 226.891, 291.609 224.526 C 290.101 222.224, 289.334 222, 282.977 222 L 276 222 276.007 217.750 C 276.022 208.474, 283.250 184.504, 289.952 171.500 C 294.725 162.238, 298.877 156.314, 306.607 147.730 C 313.211 140.398, 314.507 136.877, 311.245 135.131 C 308.928 133.891, 297.258 137.574, 289.383 142.030 C 279.035 147.885, 265.536 158.502, 261.571 163.904 C 259.475 166.758, 257.614 168.948, 257.436 168.769 C 256.851 168.184, 258.768 161.694, 262.832 150.500 C 271.275 127.248, 279.653 110.466, 291.452 93.168 C 302.079 77.588, 302.051 77.637, 301.766 75.602 C 301.290 72.207, 298.530 71.380, 294.304 73.366 C 284.574 77.940, 272.871 87.024, 259.417 100.449 C 246.349 113.486, 242.948 117.657, 234.250 131.310 C 232.462 134.116, 231 136.024, 231 135.551 C 231 133.723, 236.443 115.844, 241.214 102 C 248.845 79.859, 258.532 57.832, 266.802 43.815 C 270.837 36.977, 270.793 33.648, 266.662 33.175 C 262.446 32.692, 257.104 36.670, 243.325 50.552 C 223.765 70.257, 208.573 91.648, 194.715 119 C 192.068 124.225, 190.077 127.600, 190.292 126.500 C 190.506 125.400, 191.689 119.100, 192.920 112.500 C 198.384 83.209, 209.556 48.454, 222.553 20.317 C 224.449 16.212, 226 12.003, 226 10.962 C 226 8.075, 222.433 6.578, 218.971 8.012 C 215.079 9.624, 197.834 27.616, 190.228 38 C 179.384 52.804, 178.324 54.370, 174.994 60.500 C 173.202 63.800, 171.268 67.088, 170.698 67.807 C 170.127 68.526, 166.827 74.826, 163.364 81.807 C 159.901 88.788, 157.052 93.610, 157.034 92.521 C 156.940 87.040, 143.672 58.741, 135.436 46.459 C 126.041 32.446, 116.439 21.193, 106.796 12.894 C 99.523 6.634, 98.069 6.074, 95.571 8.571 M 198.100 42.930 C 194.118 48.388, 189.875 53.998, 188.672 55.398 C 187.470 56.797, 185.602 59.643, 184.521 61.721 C 183.441 63.800, 181.513 67.207, 180.238 69.294 C 176.216 75.875, 167.100 94.543, 164.023 102.500 C 163.597 103.600, 162.771 105.698, 162.186 107.162 C 157.370 119.223, 150.760 141.616, 148.656 153 C 144.503 175.470, 144.227 170.906, 151.470 199.500 C 154.192 210.247, 155 214.121, 155 216.433 C 155 221.777, 155.461 222, 166.539 222 L 176.863 222 176.329 205.750 C 175.751 188.138, 177.280 150.765, 179.040 139.500 C 179.642 135.650, 180.608 129.350, 181.187 125.500 C 181.766 121.650, 182.669 116.754, 183.193 114.620 C 183.718 112.485, 184.558 108.435, 185.061 105.620 C 187.209 93.583, 189.046 85.923, 191.924 77 C 193.610 71.775, 194.991 66.870, 194.994 66.100 C 195 64.756, 199.946 50.306, 204.202 39.200 C 205.319 36.285, 206.032 33.699, 205.787 33.454 C 205.542 33.209, 202.083 37.473, 198.100 42.930 M 114.441 35.500 C 120.068 50.801, 121.912 56.745, 126.853 75.500 C 130.445 89.133, 133.402 109.540, 135.547 135.500 C 136.192 143.304, 139.690 156.784, 139.897 152.264 C 140.091 148.035, 147.443 120.840, 150.558 112.825 L 152.376 108.150 149.532 98.325 C 147.968 92.921, 146.308 88.073, 145.844 87.550 C 145.380 87.028, 145 85.990, 145 85.245 C 145 83.532, 141.781 76.437, 138.200 70.257 C 136.684 67.641, 134.556 63.483, 133.472 61.018 C 132.387 58.553, 127.961 51.803, 123.636 46.018 C 114.766 34.154, 113.351 32.535, 114.441 35.500 M 241.913 64.663 C 238.386 68.882, 233.899 74.171, 231.941 76.417 C 223.472 86.135, 206.559 114.552, 199.142 131.526 C 193.651 144.094, 193.650 144.097, 190.718 152.500 C 184.747 169.609, 184.655 170.209, 184.678 192.007 C 184.690 203.286, 185.020 214.649, 185.411 217.257 L 186.123 222 192.478 222 L 198.834 222 199.944 216.750 C 202.017 206.935, 208.290 186.527, 211.651 178.661 C 213.493 174.350, 215.008 169.400, 215.017 167.661 C 215.027 165.923, 215.951 160.450, 217.072 155.500 C 218.192 150.550, 219.487 144.700, 219.949 142.500 C 220.411 140.300, 221.564 135.800, 222.512 132.500 C 223.459 129.200, 224.606 124.925, 225.060 123 C 225.515 121.075, 226.420 117.260, 227.073 114.522 C 227.725 111.784, 229.776 105.947, 231.630 101.552 C 233.483 97.157, 235 92.696, 235 91.638 C 235 89.653, 239.652 78.034, 245.624 65.104 C 247.503 61.036, 248.880 57.546, 248.683 57.350 C 248.486 57.153, 245.440 60.444, 241.913 64.663 M 71.130 58.611 C 71.344 59.100, 72.470 61.525, 73.631 64 C 78.612 74.618, 83.089 85.070, 86.051 93 C 91.748 108.248, 101.500 143.711, 105.027 162 C 108.037 177.612, 109.198 184.043, 109.991 189.500 C 111.621 200.721, 113.913 218.494, 113.957 220.250 C 113.996 221.845, 115.474 222, 130.613 222 L 147.227 222 146.669 219.250 C 145.266 212.340, 142.829 200.087, 142.044 196 C 140.681 188.898, 133.169 162.962, 130.894 157.500 C 130.435 156.400, 128.675 151.900, 126.982 147.500 C 123.498 138.445, 122.610 136.448, 115.860 122.500 C 108.621 107.539, 102.497 96.577, 98.114 90.731 C 95.957 87.854, 93.362 84.087, 92.346 82.361 C 89.150 76.927, 69.534 54.968, 71.130 58.611 M 39.097 92.500 C 39.333 93.050, 40.790 95.525, 42.336 98 C 49.124 108.868, 52.518 115.259, 57.471 126.500 C 62.787 138.567, 68.353 153.498, 69.958 160 C 70.433 161.925, 71.790 167.325, 72.974 172 C 78.449 193.621, 79.182 196.996, 80.029 204.500 C 80.525 208.900, 81.230 214.637, 81.596 217.250 L 82.260 222 93.630 222 C 106.722 222, 105.461 223.579, 104.015 209 C 101.607 184.723, 98.136 172.373, 88.880 155.156 C 77.853 134.642, 69.164 122.246, 56.176 108.500 C 48.715 100.603, 38.448 90.984, 39.097 92.500 M 267.798 104.753 C 261.362 111.214, 254.192 118.975, 251.866 122 C 249.539 125.025, 247.335 127.725, 246.968 128 C 246.600 128.275, 244.815 131.183, 243.002 134.462 C 241.188 137.741, 238.116 142.907, 236.174 145.942 C 230.274 155.166, 219.866 178.120, 215.292 192 C 212.309 201.048, 208 217.671, 208 220.127 C 208 221.873, 209 222, 222.785 222 L 237.570 222 238.839 212.250 C 241.600 191.025, 248.637 160.728, 253.409 149.523 C 254.117 147.860, 255.516 144.025, 256.517 141 C 260.412 129.235, 273.074 103.632, 278.648 96.250 C 283.372 89.993, 279.401 93.105, 267.798 104.753 M 282.360 157.391 C 269.092 167.332, 256.921 182.524, 251.763 195.583 C 249.838 200.455, 246.717 214.283, 246.590 218.500 L 246.500 221.500 256.267 221.786 C 267.352 222.111, 266.526 222.771, 267.891 212.500 C 270.473 193.072, 277.676 172.784, 287.684 156.750 C 288.972 154.688, 289.619 153, 289.123 153 C 288.626 153, 285.583 154.976, 282.360 157.391 M 31 154.485 C 31 154.752, 32.351 157.166, 34.003 159.850 C 41.035 171.279, 48.506 190.651, 49.679 200.500 C 50.007 203.250, 50.606 205.950, 51.011 206.500 C 51.416 207.050, 52.062 209.750, 52.446 212.500 C 53.878 222.759, 52.935 222, 64.238 222 L 74.260 222 73.700 217.750 C 72.273 206.916, 70.893 201.729, 67.746 195.367 C 63.811 187.414, 59.590 180.545, 56.813 177.579 C 55.743 176.435, 54.017 174.150, 52.978 172.500 C 49.451 166.899, 31 151.775, 31 154.485" stroke="none" fill="black" fill-rule="evenodd"/>
</svg>