<svg xmlns="http://www.w3.org/2000/svg" width="218" height="317" viewBox="0 0 218 317" version="1.1">
	<path d="M 100 7.949 C 86.755 10.395, 74.550 16.299, 62.462 26.106 C 46.899 38.734, 29.829 64.821, 22.039 87.884 C 18.680 97.828, 18.774 100.654, 22.494 101.588 C 25.660 102.382, 27.764 101.618, 38.423 95.804 C 43.415 93.081, 49.019 90.210, 50.875 89.425 L 54.251 87.997 53.660 90.950 C 53.335 92.574, 52.782 98.762, 52.430 104.702 C 52.030 111.474, 51.042 117.625, 49.780 121.200 C 48.269 125.482, 47.868 128.653, 48.167 133.951 C 48.516 140.129, 48.337 141.076, 46.720 141.589 C 45.705 141.911, 42.899 145.257, 40.484 149.024 L 36.094 155.874 28.297 153.452 C 16.895 149.910, 14.015 150.201, 12.158 155.085 C 7.039 168.549, 5.823 205.181, 9.872 223.972 C 12.786 237.494, 15.158 244.440, 20.624 255.454 C 26.272 266.834, 31.193 273.483, 41.380 283.500 C 58.850 300.679, 78.636 308.762, 105.598 309.734 C 120.372 310.267, 129.025 309.162, 142.657 305.002 C 166.419 297.750, 188.702 277.922, 199.622 254.317 C 211.554 228.522, 214.557 199.790, 209.142 163.231 C 208.631 159.783, 207.660 156.296, 206.984 155.481 C 205.201 153.332, 201.778 153.661, 197.795 156.364 C 194.490 158.607, 194.254 158.636, 193.183 156.922 C 192.563 155.928, 189.322 151.939, 185.981 148.058 C 178.981 139.925, 177.382 139.492, 171.110 144.035 C 165.858 147.840, 160.228 150.561, 159.375 149.708 C 159.017 149.350, 159.991 146.457, 161.540 143.279 C 163.088 140.101, 164.685 136.600, 165.089 135.500 C 166.093 132.762, 168 119.860, 168 115.801 C 168 113.129, 169.162 111.247, 173.998 106.085 L 179.996 99.683 187.792 103.341 C 192.080 105.354, 196.062 107, 196.639 107 C 198.862 107, 201.242 103.098, 200.732 100.289 C 199.813 95.232, 196.921 85.551, 195.448 82.596 C 194.652 80.999, 194 79.375, 194 78.987 C 194 77.807, 187.155 63.762, 184.503 59.500 C 183.134 57.300, 181.711 54.825, 181.341 54 C 180.289 51.653, 171.068 40.059, 165.523 34.112 C 155.452 23.309, 140.054 13.592, 127.160 9.903 C 119.625 7.748, 106.287 6.788, 100 7.949 M 95 18.889 C 87.826 21.213, 77.611 26.438, 72.553 30.371 C 60.424 39.803, 46.046 57.662, 39.760 71.103 C 38.372 74.071, 36.058 79.018, 34.618 82.096 C 33.178 85.175, 32 88.012, 32 88.402 C 32 88.792, 37.512 86.232, 44.250 82.712 C 50.987 79.192, 57.175 76.507, 58 76.745 C 58.825 76.983, 61.676 79.867, 64.336 83.153 C 66.996 86.440, 69.723 89.340, 70.398 89.599 C 71.921 90.184, 77.840 86.786, 89.500 78.633 L 98.500 72.340 99.117 66.683 C 99.878 59.693, 100.918 58.399, 107.290 56.506 C 110.068 55.681, 113.428 54.294, 114.757 53.423 C 117.539 51.601, 118.442 52.032, 117.573 54.769 C 117.216 55.895, 114.495 57.753, 110.987 59.267 C 104.624 62.012, 103 64.245, 103 70.242 C 103 73.638, 104.045 74.733, 116.684 84.580 C 124.842 90.935, 125.285 90.945, 132 84.912 C 134.475 82.688, 137.691 80.154, 139.147 79.280 C 141.053 78.135, 141.976 76.552, 142.445 73.621 C 143.174 69.057, 145.432 66, 148.073 66 C 151.360 66, 153.070 64.767, 154.486 61.379 C 156.280 57.084, 158 57.035, 158 61.277 C 158 65.712, 155.676 68.717, 151.213 70.054 C 147.581 71.143, 147.507 71.263, 147.846 75.530 C 148.145 79.292, 149.108 80.903, 154.846 87.235 C 158.506 91.274, 162.659 96.105, 164.076 97.972 L 166.653 101.365 169.885 96.667 C 175.526 88.468, 179.492 87.366, 186.189 92.135 C 187.735 93.235, 189 93.892, 189 93.594 C 189 92.698, 183.005 77.893, 180.256 72 C 176.110 63.113, 165.180 47.340, 158.601 40.752 C 142.392 24.519, 126.586 16.945, 109.145 17.054 C 103.715 17.088, 98.454 17.770, 95 18.889 M 82.271 33.095 C 72.236 38.062, 66.139 50.470, 70.601 56.841 C 73.229 60.593, 76.470 61.252, 83.120 59.386 C 93.999 56.334, 101.270 46.586, 99.541 37.370 C 99.200 35.548, 97.938 33.370, 96.738 32.529 C 93.668 30.379, 87.250 30.630, 82.271 33.095 M 85.799 36.409 C 80.700 38.230, 73.020 47.347, 73.007 51.595 C 72.996 54.882, 76.337 57.304, 79.825 56.538 C 90.200 54.260, 99.458 41.601, 94.429 36.571 C 92.545 34.688, 90.716 34.654, 85.799 36.409 M 88 89.645 C 71.220 100.800, 70.185 101.120, 65.254 96.681 C 64.019 95.569, 62.774 94.892, 62.489 95.177 C 62.204 95.463, 61.715 100.827, 61.402 107.098 C 60.997 115.221, 60.249 119.925, 58.801 123.453 C 53.519 136.330, 62.105 150.744, 79.258 157.798 C 87.971 161.382, 103.871 163.567, 113.985 162.570 C 125.610 161.425, 123.452 165.693, 111.208 168.060 C 105.078 169.245, 90.297 168.920, 86.836 167.524 C 85.636 167.039, 84.466 167.892, 82.636 170.585 C 79.651 174.978, 79.741 175.216, 87.446 183.306 L 92.976 189.112 97.738 185.882 C 100.357 184.105, 103.706 181.660, 105.181 180.448 C 109.475 176.920, 116.729 173.779, 118.953 174.485 C 120.057 174.835, 124.454 177.629, 128.724 180.693 L 136.489 186.264 143.157 179.045 L 149.826 171.827 146.163 165.890 C 142.703 160.282, 142.317 159.979, 139.198 160.422 C 134.928 161.029, 133.719 158.581, 137.119 156.214 C 151.283 146.351, 158 133.123, 158 115.093 C 158 104.007, 157.074 101.834, 148.708 93.284 L 142.626 87.068 139.063 89.216 C 137.103 90.397, 133.824 92.845, 131.775 94.656 C 127.157 98.739, 123.937 99.614, 120.267 97.783 C 117.328 96.317, 102.498 84.615, 101.469 82.950 C 101.146 82.428, 100.571 82, 100.191 82 C 99.811 82, 94.325 85.440, 88 89.645 M 67.488 105.655 C 64.095 109.048, 63.081 114.889, 65.110 119.343 C 67.458 124.495, 75.866 126.119, 79.156 122.056 C 80.476 120.426, 81 118.125, 81 113.962 C 81 108.869, 80.672 107.887, 78.365 106.073 C 75.196 103.580, 69.771 103.372, 67.488 105.655 M 125.465 104.952 C 115.795 108.871, 118.876 126, 129.251 126 C 134.926 126, 139 121.737, 139 115.799 C 139 110.573, 136.911 107.279, 132.401 105.394 C 128.642 103.824, 128.301 103.802, 125.465 104.952 M 73 110.358 C 73 113.332, 74.035 114.217, 76.048 112.962 C 77.145 112.278, 77.238 111.636, 76.429 110.338 C 74.702 107.568, 73 107.578, 73 110.358 M 129.362 110.500 C 128.542 112.636, 129.665 115, 131.500 115 C 133.620 115, 134.506 112.315, 132.989 110.487 C 131.415 108.590, 130.093 108.594, 129.362 110.500 M 85.177 126.667 C 85.663 129.176, 88 129.520, 88 127.083 C 88 125.855, 87.354 125, 86.427 125 C 85.495 125, 84.985 125.680, 85.177 126.667 M 101 128.500 C 101 129.417, 101.484 130.005, 102.075 129.808 C 102.666 129.611, 103.150 129.022, 103.150 128.500 C 103.150 127.977, 102.666 127.389, 102.075 127.192 C 101.484 126.995, 101 127.583, 101 128.500 M 113.291 134.978 C 107.469 140.276, 93.836 142.662, 86.718 139.629 C 84.948 138.875, 82.409 137.075, 81.076 135.629 C 78.495 132.831, 76.077 132.189, 75.882 134.250 C 75.485 138.437, 77.597 141.241, 83.365 144.186 C 85.491 145.271, 88.960 147.976, 91.074 150.198 C 94.916 154.237, 94.919 154.238, 101.441 153.823 C 109.366 153.318, 112.115 151.117, 117.415 141.029 C 120.096 135.927, 120.656 134.056, 119.767 133.167 C 118.025 131.425, 116.828 131.760, 113.291 134.978 M 107.326 145.074 C 106.753 145.647, 103.714 146.380, 100.572 146.705 C 94.375 147.344, 94.777 148.958, 101.139 148.985 C 104.603 148.999, 110.185 145.861, 108.933 144.603 C 108.622 144.290, 107.898 144.502, 107.326 145.074 M 45.651 155.891 C 40.205 164.441, 38.972 165.340, 33.885 164.481 L 29.645 163.764 32.863 167.828 C 34.633 170.062, 37.440 173.034, 39.099 174.430 C 42.004 176.875, 42.218 176.907, 44.809 175.308 C 46.289 174.394, 49.677 171.867, 52.337 169.691 C 54.997 167.515, 58.940 164.881, 61.098 163.838 C 65.216 161.849, 67.152 162.211, 71.187 165.726 C 72.115 166.535, 73.423 166.857, 74.094 166.442 C 74.873 165.961, 73.180 164.616, 69.407 162.718 C 66.158 161.084, 60.697 157.554, 57.271 154.874 C 53.846 152.193, 50.674 150, 50.224 150 C 49.773 150, 47.715 152.651, 45.651 155.891 M 168.596 156.058 C 161.227 161.333, 158.787 161.940, 155.158 159.398 C 152.038 157.213, 151.729 157.945, 154.155 161.776 C 155.743 164.284, 156.897 165.004, 159.348 165.018 C 161.460 165.031, 165.268 166.846, 170.887 170.518 C 175.500 173.533, 179.628 176, 180.060 176 C 181.271 176, 186.927 171.006, 188.012 168.977 C 188.761 167.579, 188.172 165.963, 185.408 161.835 C 181.246 155.617, 177.299 150.975, 176.242 151.058 C 175.834 151.090, 172.393 153.340, 168.596 156.058 M 17.945 174.886 C 17.179 180.287, 16.929 189.471, 17.265 199.955 C 17.722 214.235, 18.225 218.138, 20.935 228.464 C 27.823 254.705, 40.406 273.461, 60 286.692 C 73.362 295.715, 91.507 301, 109.124 301 C 141.950 301, 168.849 286.657, 186.111 259.950 C 198.616 240.603, 205.074 208.499, 202.044 180.750 C 201.339 174.287, 200.422 169, 200.008 169 C 199.594 169, 197.940 170.539, 196.334 172.419 C 194.728 174.300, 191.191 177.675, 188.475 179.919 C 182.377 184.958, 177.532 185.405, 171.732 181.464 L 168 178.928 168 181.929 C 168 183.762, 169.086 186.209, 170.790 188.215 C 176.410 194.833, 176.458 197.463, 171.093 204.908 C 169.386 207.278, 168.706 209.518, 168.753 212.621 C 168.831 217.755, 167.418 219.229, 165.998 215.495 C 164.358 211.181, 164.862 206.740, 167.474 202.500 C 170.508 197.573, 170.591 195.845, 167.907 193.416 C 164.735 190.545, 163.681 188.062, 162.900 181.617 C 162.507 178.381, 161.582 175.356, 160.843 174.894 C 159.889 174.297, 156.398 177.253, 148.781 185.104 C 136.950 197.301, 136.940 197.305, 130 192.187 C 128.075 190.767, 126.275 189.350, 126 189.037 C 123.891 186.637, 118.526 183, 117.095 183 C 116.132 183, 110.825 186.361, 105.304 190.468 L 95.264 197.936 95.211 203.718 C 95.158 209.493, 95.165 209.508, 101.579 216.153 C 107.319 222.100, 107.987 223.214, 107.882 226.653 C 107.544 237.628, 104.455 240.480, 103.813 230.409 C 103.437 224.495, 103.051 223.450, 100.444 221.275 C 98.825 219.924, 95.839 217.373, 93.809 215.605 L 90.118 212.392 84.583 216.196 C 78.207 220.579, 78 220.639, 78 218.120 C 78 217.087, 80.045 214.565, 82.545 212.517 C 85.045 210.468, 87.795 207.716, 88.657 206.401 C 90.833 203.080, 89.727 198.303, 85.788 194 C 74.582 181.759, 67.458 174.327, 65.833 173.180 C 64.232 172.050, 63.425 172.181, 60.231 174.089 C 58.179 175.315, 55.375 177.326, 54 178.557 C 49.255 182.807, 43.713 186, 41.110 185.983 C 39.143 185.970, 36.118 183.552, 28.828 176.164 L 19.155 166.362 17.945 174.886 M 37 210.268 C 33.532 211.986, 30 219.403, 30 224.965 C 30 230.483, 33.145 241.887, 35.878 246.283 C 41.044 254.590, 49.046 260, 56.167 260 C 59.542 260, 64.850 255.603, 66.636 251.329 C 69.538 244.382, 67.631 232.342, 62.095 222.667 C 56.095 212.180, 44.602 206.502, 37 210.268 M 38.400 214.706 C 33.107 218.526, 34.403 236.156, 40.721 246.300 C 43.236 250.337, 51.141 256, 54.262 256 C 60.265 256, 63.349 250.459, 62.830 240.603 C 62.388 232.193, 59.770 226.149, 53.634 219.371 C 49.920 215.269, 48.891 214.703, 44.475 214.331 C 41.739 214.100, 39.005 214.269, 38.400 214.706 M 161.263 238.115 C 159.482 238.630, 156.234 240.916, 154.043 243.195 C 148.520 248.943, 145.732 255.240, 145.616 262.232 C 145.487 269.928, 147.786 272.415, 154.927 272.308 C 159.028 272.246, 160.802 271.582, 164.897 268.576 C 170.543 264.431, 176.016 256.299, 176.727 250.997 C 177.447 245.628, 174.795 240.230, 170.568 238.464 C 166.636 236.821, 165.846 236.791, 161.263 238.115 M 159.935 244.265 C 154.573 247.878, 150.974 253.815, 150.362 260.055 C 149.979 263.964, 150.241 266.048, 151.293 267.445 C 152.619 269.205, 153.147 269.273, 156.866 268.158 C 159.125 267.481, 162.618 265.256, 164.628 263.214 C 169.072 258.696, 173.392 249.811, 172.504 247.014 C 170.804 241.656, 165.520 240.501, 159.935 244.265 M 82.409 265.927 C 79.712 267.076, 77.589 272.225, 78.430 275.576 C 79.290 279.002, 84.617 283.800, 88.862 284.972 C 95.250 286.736, 101 283.783, 101 278.738 C 101 275.819, 97.328 269.445, 94.628 267.676 C 91.537 265.651, 85.190 264.742, 82.409 265.927 M 84.250 269.662 C 82.921 270.199, 82.590 273.769, 83.621 276.455 C 85.050 280.180, 95.417 282.683, 96.604 279.590 C 97.514 277.218, 94.281 272.361, 90.643 270.635 C 87.058 268.933, 86.330 268.823, 84.250 269.662" stroke="none" fill="black" fill-rule="evenodd"/>
</svg>