<svg xmlns="http://www.w3.org/2000/svg" width="344" height="228" viewBox="0 0 344 228" version="1.1">
	<path d="M 155.869 8.843 C 144.492 13.445, 132.839 26.638, 126.485 42.108 L 124.593 46.717 115.064 42.110 C 106.022 37.739, 105.098 37.503, 97.017 37.506 C 87.025 37.510, 82.047 39.585, 75.500 46.473 C 71.652 50.521, 65.515 61.424, 64.830 65.429 C 64.546 67.090, 62.833 67.599, 52.500 69.092 C 38.386 71.132, 31.087 73.659, 22.660 79.426 C 15.138 84.573, 13.329 88.229, 16.881 91.105 C 18.422 92.352, 20.796 93, 23.829 93 L 28.437 93 22.857 98.750 C 12.640 109.277, 6.873 120.215, 6.704 129.385 C 6.632 133.304, 7.057 134.628, 8.856 136.084 C 11.458 138.191, 13.052 137.794, 18.260 133.742 L 22.021 130.816 21.010 133.473 C 19.459 137.553, 19.811 152.609, 21.628 159.936 C 23.542 167.651, 25.944 172.737, 28.962 175.467 C 30.957 177.271, 31.358 177.310, 33.818 175.935 C 35.423 175.038, 37.067 172.809, 37.912 170.384 L 39.324 166.333 43.912 173.082 C 49.690 181.582, 61.661 192.438, 71.823 198.396 C 93.638 211.185, 117.614 217.649, 154.723 220.746 C 173.955 222.351, 175.841 222.346, 193.223 220.630 C 203.275 219.637, 214.425 218.170, 218 217.368 C 251.022 209.967, 272.943 200.005, 288.591 185.288 C 293.988 180.213, 301.494 170.500, 302.920 166.748 C 303.696 164.707, 303.841 164.846, 304.500 168.259 C 305.444 173.145, 308.527 177, 311.491 177 C 315.916 177, 321.131 165.623, 323.166 151.529 C 324.127 144.875, 324.066 142.344, 322.810 136.750 C 321.976 133.037, 321.430 130, 321.595 130 C 321.761 130, 323.158 131.180, 324.698 132.621 C 330.290 137.854, 331.702 138.425, 334.500 136.592 C 341.182 132.214, 334.332 113.241, 320.747 98.500 L 316.139 93.500 320.508 92.961 C 324.890 92.420, 329 89.759, 329 87.461 C 329 85.538, 321.609 79.342, 315.808 76.403 C 307.807 72.348, 300.925 70.248, 293.359 69.551 C 280.788 68.393, 280.075 68.171, 279.398 65.206 C 275.844 49.635, 268.263 37.814, 258.561 32.713 C 252.735 29.649, 239.686 29.742, 232 32.903 C 225.297 35.658, 216.486 40.972, 212.685 44.551 C 211.136 46.009, 209.786 47.044, 209.684 46.851 C 209.582 46.658, 208.001 43.461, 206.171 39.746 C 199.507 26.216, 189.078 14.841, 179.094 10.215 C 171.829 6.849, 162.204 6.281, 155.869 8.843 M 158.253 17.428 C 150.035 21.155, 142.686 29.729, 137.190 42 C 132.161 53.228, 132.164 53.263, 138.550 60.306 C 141.639 63.713, 144.901 67.737, 145.799 69.250 C 146.697 70.763, 147.744 72, 148.127 72 C 148.509 72, 149.875 70.763, 151.161 69.250 C 154.769 65.008, 162.028 59.583, 166.963 57.441 C 175.158 53.885, 185.377 54.976, 196.054 60.549 C 198.473 61.811, 198.706 61.701, 200.441 58.480 C 202.243 55.134, 202.235 54.975, 199.959 48.789 C 195.974 37.961, 185.285 24.662, 176.297 19.349 C 171.042 16.243, 162.801 15.366, 158.253 17.428 M 239 39.938 C 231.600 42.207, 223.258 47.652, 215.973 54.967 C 211.692 59.265, 207.437 63.930, 206.518 65.333 C 204.889 67.819, 204.946 68.030, 208.787 73.692 C 212.511 79.180, 215.295 84.694, 217.779 91.500 C 219.635 96.585, 223 111.685, 223 114.927 C 223 116.716, 223.522 118.002, 224.250 118.006 C 224.938 118.009, 227.187 118.480, 229.248 119.052 C 233.270 120.169, 236 123.915, 236 128.315 L 236 130.729 249.168 126.614 L 262.336 122.500 264.787 117.150 C 272.841 99.569, 273.390 70.465, 265.972 54.312 C 260.563 42.537, 249.593 36.690, 239 39.938 M 91.366 46.687 C 86.338 47.365, 80.452 53.226, 76.674 61.316 C 71.765 71.831, 70.440 83.687, 72.403 99.525 C 74.428 115.856, 75.458 118.060, 82.169 120.425 C 89.680 123.073, 96.866 126.762, 101.274 130.234 L 105.048 133.206 116.085 132.123 C 122.156 131.528, 127.558 131.144, 128.089 131.270 C 128.629 131.399, 129.281 127.525, 129.566 122.500 C 130.231 110.792, 132.250 102.829, 137.746 90.238 L 142.225 79.975 137.333 73.265 C 131.078 64.685, 118.212 53.498, 110.500 49.934 C 104.461 47.142, 97.166 45.904, 91.366 46.687 M 171.372 65.212 C 160.550 68.698, 147.564 86.125, 140.980 106 C 138.523 113.417, 137.299 128.215, 138.821 132.105 C 139.556 133.984, 142.174 135.866, 148.207 138.855 C 155.649 142.541, 157.361 143, 163.682 143 C 175.123 143, 185.458 138.901, 206.746 125.919 C 215.097 120.826, 215.076 120.895, 212.437 106.983 C 210.295 95.688, 206.931 86.884, 201.954 79.544 C 197.866 73.517, 189.261 66.178, 184.722 64.850 C 181.436 63.888, 174.934 64.064, 171.372 65.212 M 53 78.663 C 42.940 79.650, 28.941 85, 36.420 85 C 40.536 85, 47.124 87.159, 47.716 88.702 C 48.413 90.520, 46.537 92.553, 40.040 97.019 C 36.993 99.114, 32.203 103.081, 29.396 105.835 C 24.630 110.512, 18 119.391, 18 121.098 C 18 121.514, 20.561 120.312, 23.691 118.427 C 29.276 115.064, 36.141 113.801, 37.437 115.897 C 37.742 116.391, 36.633 119.696, 34.974 123.241 C 30.201 133.442, 28.680 142.560, 30.115 152.367 L 31.306 160.500 33.051 155.370 C 37.019 143.709, 40.765 141.865, 43.453 150.250 C 46.963 161.195, 51.277 168.243, 59.549 176.547 C 68.878 185.912, 75.371 190.461, 87.088 195.844 C 111.459 207.040, 138.212 212.169, 173 212.314 C 196.545 212.412, 205.803 211.208, 230.323 204.861 C 266.474 195.503, 288.696 179, 297.867 154.700 C 299.635 150.015, 301.764 145.921, 302.598 145.601 C 304.810 144.752, 308.275 148.993, 309.913 154.555 C 311.174 158.839, 311.415 159.110, 312.165 157.084 C 315.015 149.379, 313.566 134.441, 308.874 123.150 C 306.327 117.022, 306.857 115, 311.008 115 C 314.127 115, 321.347 118.135, 322.491 119.986 C 322.836 120.544, 323.519 121, 324.009 121 C 325.644 121, 320.560 112.727, 315.523 107.192 C 312.786 104.184, 307.386 99.637, 303.523 97.089 C 294.326 91.020, 293.804 88.730, 301.119 86.557 C 304.003 85.701, 307.744 84.982, 309.432 84.960 L 312.500 84.920 309.717 83.410 C 305.344 81.039, 292.213 78, 286.340 78 L 281 78 281 84.011 C 281 90.614, 278.522 107.497, 276.943 111.649 C 275.304 115.962, 276.448 115.370, 281.532 109.274 C 287.212 102.465, 288.993 100.877, 290.147 101.591 C 291.661 102.527, 291.067 105.036, 287.750 111.716 C 282.283 122.726, 276.865 126.302, 253.960 134.013 C 247.260 136.269, 240.223 138.949, 238.322 139.968 L 234.864 141.821 245.110 144.194 C 259.753 147.586, 259.154 150.057, 243.682 150.085 C 235.606 150.100, 214.309 146.709, 212.762 145.162 C 212.084 144.484, 213.723 143.159, 217.768 141.117 C 222.645 138.655, 224.181 137.257, 225.891 133.725 C 228.718 127.885, 228.574 127, 224.799 127 C 222.592 127, 216.454 129.932, 205.049 136.436 C 195.947 141.626, 187.150 146.401, 185.500 147.047 C 180.805 148.886, 171.825 150.925, 168.250 150.964 C 165.280 150.997, 163.367 152.968, 166.250 153.025 C 166.938 153.038, 169.708 154.669, 172.406 156.648 C 176.612 159.733, 177.068 160.382, 175.601 161.204 C 172.366 163.014, 160.897 158.522, 150.329 151.307 C 133.397 139.746, 128.241 138.718, 106.170 142.503 C 90.874 145.127, 85 145.115, 85 142.462 C 85 141.703, 87.250 140.283, 90 139.306 C 92.750 138.330, 95 137.299, 94.999 137.015 C 94.996 135.668, 83.741 130.440, 73.262 126.920 C 65.748 124.396, 60.577 122.031, 58.682 120.254 C 53.754 115.630, 48.833 103, 51.960 103 C 53.035 103, 58 108.087, 58 109.189 C 58 110.102, 64.928 115.405, 65.445 114.888 C 65.660 114.673, 65.177 112.023, 64.371 108.999 C 63.565 105.974, 62.634 97.763, 62.302 90.750 L 61.698 78 59.099 78.160 C 57.670 78.248, 54.925 78.475, 53 78.663 M 43 121.020 C 43 123.407, 46.782 129.597, 50.130 132.688 C 53.899 136.167, 61.077 138.954, 66.333 138.978 C 72.938 139.008, 72.015 137.449, 63.246 133.765 C 57.775 131.467, 54.728 129.348, 50.461 124.874 C 44.461 118.584, 43 117.829, 43 121.020 M 288.467 128.488 C 285.149 131.926, 279.861 136.190, 276.717 137.964 C 270.016 141.746, 268.964 144.592, 274.606 143.676 C 279.591 142.868, 285.782 139.516, 290.329 135.165 C 294.519 131.155, 295.798 129.191, 297.040 124.861 C 298.392 120.148, 295.224 121.488, 288.467 128.488 M 76 149.550 C 76 153.724, 84.174 162.975, 92 167.658 C 98.453 171.519, 118.432 176.714, 122.294 175.535 C 122.957 175.333, 124.756 174.891, 126.291 174.554 C 130.540 173.621, 128.731 172.321, 120.739 170.563 C 104.440 166.976, 90.868 160.426, 81.610 151.676 C 77.379 147.678, 76 147.155, 76 149.550 M 111.389 150.429 C 110.588 152.515, 110.145 152.255, 119 154.899 C 123.125 156.131, 128.608 158.008, 131.185 159.070 C 138.758 162.190, 141.171 161.388, 136.740 157.225 C 133.353 154.043, 124.104 150.282, 117.699 149.482 C 112.920 148.884, 111.924 149.034, 111.389 150.429 M 61.312 155.537 C 62.297 161.604, 68.194 171.868, 73.690 177.079 C 78.196 181.351, 79.428 182, 83.034 182 C 86.384 182, 87.291 181.602, 87.725 179.943 C 88.106 178.486, 88.735 178.099, 89.881 178.614 C 92.745 179.899, 100.150 180.250, 101.249 179.151 C 102.001 178.399, 101.345 177.562, 99.007 176.293 C 97.189 175.307, 92.731 172.548, 89.100 170.163 C 85.470 167.777, 82.159 165.611, 81.743 165.349 C 79.994 164.249, 79.884 168.369, 81.578 171.515 C 82.587 173.388, 83.134 175.200, 82.793 175.540 C 81.303 177.030, 76.590 172.068, 70.325 162.411 C 63.222 151.465, 60.288 149.227, 61.312 155.537 M 279.243 153.250 C 278.693 153.938, 277.234 156.525, 276.002 159 C 272.750 165.532, 267.081 172.737, 262.570 176.070 C 260.409 177.668, 258.451 178.784, 258.219 178.552 C 257.987 178.320, 259.389 175.514, 261.336 172.315 C 267.309 162.500, 266.387 159.581, 259.347 166.016 C 251.537 173.156, 246.219 177.010, 240.680 179.546 C 237.556 180.976, 235 182.564, 235 183.073 C 235 184.913, 243.577 183.945, 248.793 181.516 C 251.704 180.161, 253.840 179.450, 253.540 179.936 C 252.234 182.049, 254.308 184, 257.857 183.996 C 264.804 183.989, 273.504 176.460, 278.750 165.914 C 282.857 157.657, 283.223 148.283, 279.243 153.250 M 211.530 159.952 C 210.508 161.605, 210.683 161.700, 220.087 164.623 C 232.256 168.406, 234.276 168.672, 233.845 166.436 C 233.050 162.304, 213.573 156.645, 211.530 159.952 M 198.691 167.748 C 196.128 168.110, 194.061 170.395, 195.236 171.569 C 195.501 171.834, 199.832 172.717, 204.860 173.530 C 209.888 174.343, 216.364 175.906, 219.251 177.004 C 225.534 179.392, 226 179.428, 226 177.520 C 226 173.401, 206.947 166.583, 198.691 167.748 M 150.388 178.181 C 149.266 179.996, 158.824 188.187, 166.109 191.654 C 177.335 196.995, 182.727 198.338, 193.286 198.422 C 200.881 198.483, 203.275 198.171, 203.981 197.029 C 204.482 196.220, 204.714 195.381, 204.497 195.164 C 204.280 194.947, 198.567 193.741, 191.801 192.485 C 176.232 189.594, 162.169 184.372, 155.115 178.863 C 152.338 176.693, 151.392 176.557, 150.388 178.181 M 173 179.365 C 173 181.440, 177.645 184.547, 183.009 186.060 C 188.834 187.702, 203.805 187.710, 206.866 186.072 C 210.820 183.956, 207.825 182.720, 196.782 181.912 C 187.684 181.246, 180.222 180.055, 174.750 178.396 C 173.625 178.055, 173 178.401, 173 179.365 M 120.151 191.614 C 120.343 192.651, 122.300 194.400, 124.500 195.500 C 130.065 198.283, 148.189 198.417, 152.326 195.706 C 156.469 192.992, 154.710 191.924, 147.190 192.588 C 141.170 193.120, 130.306 192.144, 122.651 190.384 C 120.229 189.827, 119.854 190.012, 120.151 191.614" stroke="none" fill="black" fill-rule="evenodd"/>
</svg>