<svg xmlns="http://www.w3.org/2000/svg" width="335" height="257" viewBox="0 0 335 257" version="1.1">
	<path d="M 146 7.935 C 144.625 8.355, 141.656 9.641, 139.402 10.792 C 137.147 11.944, 132.422 13.558, 128.902 14.380 C 114.969 17.630, 111.969 20.149, 103.573 35.647 C 100.340 41.616, 96.933 47.625, 96.002 49 C 95.071 50.375, 91.731 56.450, 88.579 62.500 C 81.451 76.183, 75.140 84.233, 65.773 91.591 C 50.584 103.523, 48.911 105.979, 40.970 128 C 34.302 146.490, 31.705 151.715, 23.218 163.723 C 11.543 180.239, 7 190.338, 7 199.773 C 7 205.142, 7.193 205.554, 11.771 209.966 C 17.851 215.826, 23.885 218.645, 37 221.749 C 58.202 226.768, 61.465 227.966, 68.665 233.381 C 84.042 244.944, 90.268 247.010, 109.644 246.980 C 116.715 246.969, 125.650 246.473, 129.500 245.877 C 140.587 244.160, 168.137 244.401, 177.500 246.297 C 181.900 247.187, 191.125 248.611, 198 249.461 C 208.910 250.810, 211.581 250.828, 219 249.608 C 229.729 247.843, 233.241 246.425, 250.599 236.852 C 264.994 228.913, 272.315 226.281, 287.609 223.544 C 316.177 218.433, 331.954 205.467, 327.522 190.741 C 326.750 188.175, 323.109 180.341, 319.431 173.332 C 313.397 161.833, 309.541 152.945, 306.934 144.530 C 303.342 132.938, 297.112 125.211, 283.748 115.776 C 273.847 108.786, 271.353 104.903, 255.945 72.500 C 253.592 67.550, 249.874 60.575, 247.683 57 C 244.125 51.193, 241.491 46.373, 231.344 27.098 C 227.887 20.531, 221.060 13.705, 215.014 10.771 C 208.188 7.457, 201.184 7.379, 189.213 10.483 C 177.952 13.402, 176.238 13.306, 162.145 8.960 C 155.591 6.939, 150.353 6.606, 146 7.935 M 142.694 19.562 C 140.621 20.971, 135.687 22.798, 131.731 23.623 C 127.774 24.448, 123.082 26.022, 121.305 27.121 C 118.385 28.925, 113.815 35.504, 109.945 43.475 C 109.150 45.111, 106.353 50.211, 103.729 54.807 C 98.443 64.066, 95.735 70.003, 96.801 69.993 C 97.185 69.990, 98.850 69.093, 100.500 68 C 104.371 65.437, 109.035 65.453, 111.811 68.039 C 114.470 70.516, 114.479 70.833, 112.117 79.091 C 109.540 88.103, 108.559 89.700, 100.279 98.363 C 96.308 102.518, 92.781 107.026, 92.441 108.380 C 90.523 116.022, 95.183 117.125, 100.574 110.305 C 102.663 107.662, 107.865 101.900, 112.134 97.500 C 119.268 90.148, 120.225 88.653, 123.955 79.039 C 130.305 62.671, 135.152 57.012, 142.827 57.004 C 149.557 56.996, 155.052 66.637, 157.133 82.104 C 158.589 92.923, 157.355 97.736, 150.198 109.145 C 143.403 119.977, 141.992 123.558, 142.021 129.899 C 142.033 132.430, 141.284 139.012, 140.357 144.526 C 137.922 159.009, 139.752 163.649, 145.299 157.057 C 147.675 154.233, 150 145.162, 150 138.717 C 150 137.277, 150.501 133.764, 151.112 130.912 C 152.088 126.364, 153.210 124.739, 160.226 117.713 C 164.626 113.307, 168.851 108.208, 169.613 106.383 C 170.599 104.024, 171 98.450, 171 87.115 C 171 73.713, 171.301 70.464, 172.885 66.769 C 175.547 60.559, 180.083 56.999, 185.327 57.004 C 191.658 57.009, 195.287 59.797, 198.889 67.420 C 200.600 71.042, 202 74.484, 202 75.068 C 202 75.653, 203.509 79.398, 205.354 83.391 C 208.914 91.096, 212.221 95, 215.189 95 C 217.450 95, 217.547 92.122, 215.511 85.409 C 213.258 77.983, 213.550 73.359, 216.455 70.455 C 219.088 67.821, 222.511 67.341, 226.203 69.085 C 229.392 70.592, 236.161 79.304, 239.834 86.629 C 242.703 92.352, 247.202 96.982, 252.684 99.855 C 257.813 102.543, 259.599 100.138, 256.178 95.154 C 254.092 92.117, 251 85.634, 251 84.299 C 251 82.759, 240.158 62.266, 235.489 54.983 C 233.045 51.170, 228.954 43.876, 226.399 38.775 C 220.341 26.684, 218.607 24.341, 213.151 20.881 C 207.541 17.323, 200.214 17.022, 191.740 20 C 183.641 22.847, 173.468 22.654, 164.500 19.483 C 155.002 16.126, 147.712 16.152, 142.694 19.562 M 188.500 28.514 C 177.867 33.054, 171.902 33.137, 161.276 28.896 C 154.710 26.275, 152.560 25.866, 147.455 26.265 C 137.047 27.078, 129.937 32.105, 127.476 40.391 C 124.434 50.636, 126.718 53.607, 130.329 44.102 C 132.952 37.199, 137.805 33.937, 146.436 33.275 C 151.596 32.879, 153.686 33.289, 160.453 36.020 C 167.708 38.948, 169.113 39.187, 176.453 38.749 C 182.789 38.371, 185.915 37.592, 191.154 35.086 C 201.905 29.941, 207.707 30.666, 210.568 37.510 C 212.343 41.756, 216.534 46, 218.952 46 C 221.842 46, 221.516 44.893, 217.474 40.975 C 215.534 39.095, 213.430 35.830, 212.798 33.719 C 210.006 24.403, 202.098 22.708, 188.500 28.514 M 181.299 65.250 C 177.156 69.799, 176.869 71.453, 177.133 89.298 C 177.338 103.211, 177.086 107.169, 175.811 110 C 173.993 114.040, 169.142 119.410, 163.738 123.366 C 158.821 126.966, 157.445 130.558, 156.730 141.670 C 155.823 155.775, 149.553 167.018, 142.614 166.985 C 133.436 166.942, 131.285 161.805, 132.989 144 C 135.040 122.577, 137.028 115.699, 144.187 105.246 C 148.810 98.498, 150.954 92.893, 150.978 87.497 C 151.002 81.945, 147.928 70.065, 145.513 66.380 C 141.910 60.881, 135.790 65.633, 131.485 77.271 C 130.014 81.247, 128.066 86.500, 127.155 88.943 C 126.114 91.740, 122.251 96.929, 116.735 102.943 C 111.915 108.200, 106.035 114.638, 103.669 117.250 C 99.820 121.500, 98.919 122, 95.107 122 C 91.731 122, 90.239 121.393, 87.923 119.077 C 82.117 113.271, 85.298 102.730, 95.879 92.712 C 100.450 88.384, 104.789 81.184, 106.553 75 C 107.230 72.626, 107.171 72.582, 105.383 74.129 C 102.298 76.799, 97.288 79, 94.295 79 C 92.039 79, 90.222 80.485, 84.996 86.599 C 81.423 90.778, 74.770 97.040, 70.212 100.513 C 65.653 103.986, 61.026 107.968, 59.930 109.361 C 57.028 113.051, 53.315 121.573, 48.434 135.747 C 44.455 147.302, 37.200 161.750, 32.992 166.500 C 30.964 168.789, 25.470 177.390, 21.813 184 C 18.415 190.141, 15.727 198.564, 16.443 200.822 C 18.133 206.144, 28.371 210.640, 47.427 214.429 C 54.537 215.843, 60.704 217, 61.132 217 C 61.559 217, 62.220 215.313, 62.601 213.250 C 63.260 209.673, 68.032 201.138, 71.136 197.983 C 74.128 194.942, 80.723 185.397, 81.834 182.500 C 82.467 180.850, 84.089 175.105, 85.439 169.733 C 88.342 158.182, 92.128 150.750, 96.955 147.130 C 98.883 145.683, 101.347 143.825, 102.430 143 C 106.473 139.921, 109.909 135.823, 112.918 130.491 C 116.532 124.087, 118.541 123.282, 117.680 128.582 C 116.415 136.380, 111.703 143.251, 102.734 150.374 C 96.933 154.982, 95.498 157.635, 92.461 169.371 C 87.661 187.921, 87.093 189.031, 74.538 204.401 C 70.974 208.765, 67.404 218.006, 68.341 220.446 C 68.651 221.254, 70.613 223.058, 72.702 224.456 C 74.791 225.854, 78.691 228.577, 81.369 230.506 C 88.811 235.867, 95.399 237.474, 110 237.488 C 116.875 237.495, 127.338 236.876, 133.250 236.113 L 144 234.726 144 230.925 C 144 226.451, 146.308 216.025, 148.921 208.695 C 150.913 203.109, 152.170 198.117, 154.070 188.250 C 155.836 179.076, 158.951 180.369, 158.986 190.292 C 159.005 195.380, 156.365 207.868, 153.408 216.676 C 150.573 225.126, 150.183 233.473, 152.582 234.393 C 153.452 234.727, 156.714 235.003, 159.832 235.006 C 162.949 235.009, 167.975 235.438, 171 235.959 C 195.008 240.097, 201.549 240.961, 209.003 240.979 C 217.684 241, 227.251 238.923, 234.056 235.540 C 243.486 230.850, 260.998 220.370, 260.999 219.415 C 261 218.818, 260.152 215.668, 259.115 212.415 C 258.078 209.162, 256.461 203.800, 255.521 200.500 C 252.128 188.587, 248.728 182.613, 238.208 170.083 C 232.481 163.262, 231.879 162.230, 229.462 155.086 C 226.777 147.149, 225.474 136.156, 226.964 134 C 227.885 132.667, 228.111 132.667, 229 134 C 229.550 134.825, 230.451 137.300, 231.001 139.500 C 234.041 151.658, 237.952 159.573, 244.599 167.023 C 250.004 173.080, 255.403 180.983, 257.906 186.500 C 259.834 190.749, 264.590 205.679, 266.142 212.354 C 267.132 216.611, 267.826 217.874, 268.976 217.512 C 269.814 217.249, 275.900 216.111, 282.500 214.983 C 289.100 213.856, 297.249 212.033, 300.609 210.932 C 312.655 206.986, 320.015 200.181, 318.550 194.344 C 317.865 191.614, 313.918 183.308, 309.359 175 C 307.699 171.975, 305.764 167.925, 305.060 166 C 302.315 158.492, 298.632 149.263, 296.369 144.223 C 295.066 141.320, 294 138.589, 294 138.153 C 294 136.219, 286.577 128.982, 280.214 124.713 C 276.388 122.147, 270.749 117.336, 267.682 114.023 C 263.238 109.224, 261.493 108, 259.090 108 C 257.432 108, 253.637 107.088, 250.657 105.973 C 244.308 103.598, 236.591 96.055, 232.695 88.417 C 229.094 81.359, 224.237 75, 222.448 75 C 220.835 75, 221.006 77.937, 223.086 86 C 225.281 94.507, 223.251 100.146, 217.472 101.596 C 209.186 103.676, 202.490 95.895, 195.445 76 C 191.258 64.176, 185.951 60.143, 181.299 65.250 M 211.374 104.467 C 210.994 105.457, 211.236 109.695, 211.912 113.884 C 212.823 119.529, 212.865 123.182, 212.078 128 C 209.683 142.648, 211.413 155.321, 217.196 165.500 C 222.677 175.147, 225.772 182.567, 227.415 190 C 229.924 201.346, 231.793 206.389, 234.001 207.768 C 236.522 209.343, 236.530 209.534, 233.502 194.721 C 230.294 179.028, 228.673 173.829, 225.211 168.129 C 219.728 159.104, 217.776 153.002, 216.853 142.007 C 216.368 136.228, 215.599 129.363, 215.144 126.750 C 214.689 124.138, 214.487 122, 214.694 122 C 214.901 122, 215.971 124.099, 217.071 126.665 C 219.840 133.126, 221.577 131.236, 219.594 123.919 C 214.233 104.128, 212.803 100.745, 211.374 104.467 M 254 126.828 C 254 127.374, 254.872 130.625, 255.938 134.050 C 259.287 144.810, 263.487 149.650, 276.082 157.265 C 278.574 158.772, 281.906 164.607, 285.638 174 C 288.890 182.186, 295.131 191, 297.674 191 C 299.795 191, 299.238 188.903, 295.448 182.619 C 293.498 179.384, 290.615 172.859, 289.041 168.119 C 285.629 157.841, 282.115 153.309, 274.615 149.514 C 267.671 146.001, 266.175 144.388, 260.747 134.560 C 256.778 127.376, 254 124.192, 254 126.828 M 69.898 136.427 C 64.882 140.109, 62.652 144.368, 61.465 152.537 C 60.475 159.354, 59.788 160.446, 51.107 169 C 45.029 174.989, 43.011 177.761, 41.093 182.762 C 39.771 186.205, 38.920 189.254, 39.202 189.535 C 40.457 190.790, 42.721 188.554, 45.422 183.394 C 47.459 179.502, 50.337 176.214, 54.922 172.540 C 64.813 164.615, 65.242 163.961, 65.960 155.740 C 66.684 147.440, 68.335 143.802, 73.407 139.335 C 76.965 136.202, 78.162 132.977, 75.750 133.025 C 75.063 133.038, 72.429 134.570, 69.898 136.427 M 179.856 149.750 C 179.777 150.713, 179.665 155.775, 179.606 161 C 179.509 169.720, 179.215 171.075, 176.030 177.500 C 172.225 185.177, 170.753 195.801, 172.930 199.869 C 174.850 203.456, 175.685 202.295, 176.279 195.214 C 176.873 188.128, 177.914 184.974, 181.694 178.802 C 184.887 173.590, 185.446 168.424, 184 157.497 C 183.104 150.729, 182.349 148, 181.371 148 C 180.617 148, 179.935 148.787, 179.856 149.750" stroke="none" fill="black" fill-rule="evenodd"/>
</svg>