<svg xmlns="http://www.w3.org/2000/svg" width="267" height="295" viewBox="0 0 267 295" version="1.1">
	<path d="M 126.913 7.429 C 124.093 9.025, 117.203 17.587, 114.606 22.723 C 113.710 24.496, 111.804 29.221, 110.372 33.223 C 107.327 41.732, 106.464 43, 103.715 43 C 100.941 43, 81.674 49.641, 75.500 52.726 C 65.998 57.473, 54.039 66.226, 47.156 73.473 C 41.113 79.834, 32 91.846, 32 93.450 C 32 93.758, 30.975 96.145, 29.723 98.755 C 27.656 103.063, 25.250 110.661, 22.996 120 C 21.847 124.763, 20.348 134.205, 18.503 148.301 C 17.391 156.797, 15.637 163.938, 12.240 173.801 C 7.558 187.395, 7.521 187.600, 7.527 200.500 C 7.533 214.331, 8.706 219.370, 14.717 231.371 C 26.081 254.062, 54.601 273.245, 91.500 283.016 C 105.627 286.756, 116.623 288.061, 134.291 288.091 C 160.974 288.136, 187.286 282.010, 210.134 270.432 C 229.342 260.699, 248.312 242.030, 253.930 227.332 C 255.157 224.125, 256.539 220.774, 257.003 219.887 C 259.003 216.060, 260.258 205.406, 259.738 196.680 C 259.292 189.215, 258.157 184.302, 253.686 170.495 C 249.179 156.579, 247.971 151.326, 247.016 141.500 C 244.881 119.541, 241.839 108.126, 234.319 93.863 C 220.756 68.140, 195.751 50.670, 161 42.639 C 158.958 42.167, 158.144 40.910, 156.560 35.781 C 153.618 26.260, 147.583 14.956, 143.121 10.609 C 139.817 7.391, 138.296 6.654, 134.314 6.342 C 131.291 6.105, 128.537 6.510, 126.913 7.429 M 128.267 19.326 C 125.709 22.101, 123.154 26.571, 121.140 31.794 C 119.413 36.272, 118 40.062, 118 40.218 C 118.001 40.373, 124.751 40.500, 133.001 40.500 C 141.251 40.500, 148 40.157, 148 39.738 C 148 39.319, 146.537 35.295, 144.750 30.797 C 142.564 25.295, 140.233 21.370, 137.629 18.809 C 135.501 16.714, 133.420 15, 133.007 15 C 132.593 15, 130.460 16.947, 128.267 19.326 M 124.500 49.658 C 90.176 52.422, 65.802 64.297, 47.147 87.346 C 36.991 99.893, 30.417 121.290, 27.435 151.500 C 27.055 155.350, 24.799 164.575, 22.423 172 C 20.046 179.425, 17.595 188.650, 16.976 192.500 C 11.165 228.647, 42.325 261.034, 95.788 274.415 C 128.685 282.649, 163.946 279.858, 195.786 266.501 C 224.016 254.658, 242.030 237.509, 248.546 216.274 C 250.303 210.548, 250.576 192.943, 249.003 186.801 C 247.710 181.753, 245.078 173.347, 243.898 170.500 C 240.858 163.164, 238.809 154.525, 238.351 147.107 C 237.698 136.538, 234.722 120.110, 231.944 111.744 C 220.012 75.807, 188.097 53.830, 141.793 49.667 L 136.087 49.153 139.502 52.569 C 147.144 60.211, 152.950 77.940, 149.795 84 C 146.550 90.233, 132.928 92.989, 124.500 89.119 C 118.165 86.210, 116.495 83.693, 116.531 77.109 C 116.582 67.955, 123.249 53.562, 128.848 50.521 C 130.306 49.728, 130.825 49.138, 130 49.208 C 129.175 49.279, 126.700 49.481, 124.500 49.658 M 130.285 58.231 C 127.006 61.774, 124.126 68.039, 122.846 74.412 C 121.716 80.041, 121.758 80.309, 124.055 82.041 C 130.698 87.052, 145 85.155, 145 79.264 C 145 73.989, 136.593 57.279, 133.442 56.293 C 132.861 56.111, 131.440 56.983, 130.285 58.231 M 60.510 129.708 C 51.432 134.786, 45.937 148.191, 49.049 157.667 C 50.520 162.149, 53.936 167.781, 56.657 170.212 C 63.812 176.604, 76.694 176.362, 83.834 169.702 C 91.739 162.328, 93.286 146.249, 86.994 136.852 C 82.851 130.664, 78.300 127.913, 71.307 127.369 C 66.318 126.980, 64.797 127.310, 60.510 129.708 M 189.500 128.902 C 182.251 132.268, 178.397 137.162, 176.472 145.446 C 171.206 168.096, 196.196 184.558, 211.573 168.569 C 216.533 163.412, 218.392 157.492, 217.828 148.645 C 217.255 139.634, 213.424 133.480, 206.066 129.750 C 199.750 126.548, 195.082 126.309, 189.500 128.902 M 71.655 138.829 C 68.067 142.793, 70.825 149, 76.174 149 C 79.114 149, 82 146.199, 82 143.346 C 82 140.810, 78.001 137, 75.341 137 C 74.224 137, 72.565 137.823, 71.655 138.829 M 199 139 C 196.346 141.654, 196.448 145.500, 199.223 147.443 C 205.640 151.938, 212.496 144.496, 207 139 C 205.900 137.900, 204.100 137, 203 137 C 201.900 137, 200.100 137.900, 199 139 M 102.250 188.220 C 98.833 189.869, 99.252 193.677, 102.940 194.487 C 104.859 194.908, 106.599 196.350, 107.949 198.638 C 111.629 204.876, 115.841 200.859, 112.947 193.871 C 111.674 190.798, 107.529 186.952, 105.615 187.068 C 105.002 187.105, 103.487 187.624, 102.250 188.220 M 159.381 188.055 C 153.939 190.068, 149.668 199.891, 153.582 201.393 C 155.781 202.237, 155.587 202.365, 157.809 198.600 C 159.120 196.376, 160.856 194.971, 162.824 194.539 C 164.479 194.175, 166.103 193.173, 166.434 192.312 C 167.619 189.224, 163.288 186.610, 159.381 188.055 M 198.905 202.615 C 197.753 204.003, 197.932 204.544, 200.181 206.479 C 202.577 208.540, 202.658 208.847, 201.148 210.130 C 185.400 223.514, 176.369 228.511, 160.500 232.619 C 128.741 240.840, 91.420 233.112, 70.861 214.057 C 64.827 208.465, 64.598 208.088, 66.412 206.725 C 68.468 205.181, 68.029 202, 65.760 202 C 63.406 202, 49 211.016, 49 212.489 C 49 213.281, 49.930 214.427, 51.067 215.036 C 52.684 215.901, 53.686 215.780, 55.669 214.481 C 58.114 212.879, 58.305 212.918, 61.102 215.597 C 63.752 218.137, 64 218.965, 64 225.286 C 64 240.740, 72.725 246.673, 83.432 238.500 C 88.703 234.476, 89.002 234.382, 88.995 236.750 C 88.992 237.713, 89.780 240.713, 90.745 243.418 C 95.221 255.961, 104.562 257.612, 112.666 247.294 L 116.430 242.500 133.055 242.500 L 149.681 242.500 153.090 246.821 C 157.065 251.858, 160.952 254.168, 165.678 254.302 C 170.541 254.440, 173.781 250.757, 176.075 242.486 C 178.115 235.128, 178.742 233.980, 179.804 235.652 C 181.547 238.393, 188.480 242, 192.005 242 C 199.331 242, 203 236.101, 203 224.321 C 203 219.135, 203.352 218.039, 205.750 215.757 C 208.273 213.355, 208.706 213.254, 211 214.534 C 214.314 216.383, 214.747 216.341, 215.974 214.048 C 217.203 211.753, 215.517 209.878, 207.331 204.436 C 201.450 200.528, 200.761 200.378, 198.905 202.615 M 195.987 223.656 C 195.719 224.292, 193.079 226.401, 190.120 228.342 L 184.741 231.872 188.120 233.932 C 189.979 235.065, 191.950 235.857, 192.500 235.692 C 194.253 235.165, 197.150 228.158, 196.806 225.278 C 196.624 223.750, 196.255 223.020, 195.987 223.656 M 70.009 227.750 C 70.416 229.813, 71.079 232.287, 71.482 233.250 C 72.424 235.501, 77.703 235.579, 80.136 233.377 C 81.832 231.842, 81.603 231.543, 75.931 227.877 C 72.632 225.745, 69.783 224, 69.601 224 C 69.418 224, 69.602 225.688, 70.009 227.750 M 95 237.976 C 95 238.435, 95.983 240.654, 97.186 242.905 C 99.874 247.942, 102.598 248.247, 107.234 244.029 C 109.030 242.395, 110.049 241.045, 109.497 241.029 C 108.945 241.013, 105.458 240.132, 101.747 239.071 C 98.036 238.009, 95 237.517, 95 237.976 M 165 239.500 C 163.075 240.241, 160.150 240.901, 158.500 240.966 L 155.500 241.083 159.417 244.542 C 161.571 246.444, 164.148 248, 165.144 248 C 167.187 248, 169.533 244.848, 170.541 240.750 C 171.317 237.592, 170.458 237.398, 165 239.500" stroke="none" fill="black" fill-rule="evenodd"/>
</svg>