<svg xmlns="http://www.w3.org/2000/svg" width="321" height="312" viewBox="0 0 321 312" version="1.1">
	<path d="M 132.500 7.145 C 99.111 9.104, 69.150 23.588, 47.500 48.237 C 40.163 56.590, 31.026 70.315, 27.387 78.450 C 25.617 82.405, 22.707 86.406, 18.982 90.004 C 10.814 97.892, 7.684 104.511, 7.633 114 C 7.606 119.121, 8.117 122.484, 9.246 124.602 C 10.913 127.732, 17.357 134, 18.908 134 C 19.370 134, 21.717 135.801, 24.124 138.002 C 32.389 145.560, 43.769 147.198, 59.410 143.082 C 72.143 139.731, 70.982 138.029, 71.118 160.250 C 71.183 170.838, 71.523 180.837, 71.873 182.470 C 72.462 185.217, 72.169 185.610, 67.980 187.697 C 58.708 192.318, 52 202.831, 52 212.741 C 52 223.607, 63.088 230.216, 72.983 225.248 C 75.606 223.932, 76.848 222.389, 78.015 219 C 79.137 215.740, 80.100 214.500, 81.509 214.500 C 83.210 214.500, 83.587 215.612, 84.510 223.357 C 85.507 231.728, 85.768 232.399, 89.268 235.607 C 92.009 238.118, 93.884 239, 96.485 239 C 99.055 239, 100 239.435, 100 240.616 C 100 244.074, 108.866 255.556, 114.926 259.946 C 118.267 262.367, 121 264.650, 121 265.021 C 121 265.393, 119.129 266.540, 116.842 267.571 C 102.679 273.958, 97.007 284.514, 103.820 291.807 C 107.812 296.081, 113.350 297.272, 126.974 296.787 C 135.332 296.490, 139.462 295.894, 142 294.617 C 145.887 292.663, 149.852 287.578, 152.227 281.500 C 153.087 279.300, 154.963 274.941, 156.395 271.814 C 157.828 268.687, 159 265.649, 159 265.064 C 159 263.471, 160.441 263.773, 163.198 265.941 C 164.556 267.009, 167.541 268.633, 169.833 269.550 C 172.125 270.467, 174 271.607, 174 272.083 C 174 272.559, 172.537 273.691, 170.750 274.599 C 168.963 275.506, 165.625 277.767, 163.333 279.623 C 154.743 286.580, 154.073 298.054, 162.018 302.145 C 170.859 306.695, 190.566 306.463, 200 301.697 C 205.335 299.002, 207.596 294.979, 211.354 281.500 C 214.658 269.647, 215.686 260.531, 213.954 258.444 C 212.514 256.710, 212.361 256.693, 224.258 259.570 C 227.425 260.336, 235.151 261.483, 241.427 262.120 C 268.775 264.892, 295.665 258.070, 310.282 244.650 C 314.247 241.010, 315 239.738, 315 236.682 C 315 231.711, 312.511 230.378, 301.686 229.555 C 289.909 228.660, 279.436 225.863, 270.700 221.279 C 261.076 216.229, 248.983 203.904, 241.267 191.282 C 229.668 172.307, 221.815 160.717, 217.211 155.776 C 207.764 145.639, 197.202 139.438, 184.122 136.347 C 175.459 134.301, 157.496 135.059, 147 137.913 C 136.552 140.755, 134.196 140.647, 132.913 137.270 C 131.692 134.060, 133.064 124.533, 135.975 116 C 141.885 98.679, 142.628 85.632, 138.375 73.841 C 136.931 69.838, 134.752 64.974, 133.532 63.032 C 128.766 55.439, 128.777 55.530, 132.136 52.015 C 138.565 45.288, 149.349 42.775, 158.646 45.837 C 167.271 48.678, 171.503 49.211, 175.940 48.016 C 187.478 44.909, 192.372 31.783, 185.688 21.865 C 177.879 10.278, 160.604 5.497, 132.500 7.145 M 120.235 17.441 C 90.947 22.978, 64.801 38.790, 49.106 60.458 C 45.902 64.881, 42.530 69.850, 41.612 71.500 C 40.695 73.150, 39.131 75.850, 38.138 77.500 C 37.145 79.150, 35.093 82.750, 33.579 85.500 C 32.065 88.250, 29.133 92.300, 27.064 94.500 C 18.546 103.555, 17.500 105.660, 17.500 113.761 C 17.500 123.616, 18.612 124.559, 31.356 125.515 C 39.476 126.124, 41.305 125.956, 45.111 124.254 C 47.525 123.174, 50.348 121.336, 51.383 120.169 C 53.231 118.088, 53.226 117.953, 51.133 113.088 C 46.869 103.175, 49.046 93.028, 58.606 78.262 C 74.174 54.216, 104.837 33.730, 134.415 27.613 C 148.053 24.792, 164.972 26.009, 174.823 30.519 C 180.803 33.257, 181.051 32.694, 176.695 26.255 C 174.496 23.003, 171.748 21.317, 163.771 18.323 C 157.860 16.105, 130.260 15.546, 120.235 17.441 M 136.500 32.475 C 126.830 34.166, 118.314 37.208, 106 43.370 C 93.331 49.710, 86.260 55.011, 74.916 66.674 C 62.118 79.833, 54 94.203, 54 103.699 C 54 108.258, 56.136 112.113, 60.685 115.762 C 64.088 118.492, 64.341 119.013, 63.295 121.143 C 62.209 123.353, 60.501 133, 61.195 133 C 61.370 133, 63.085 132.527, 65.007 131.948 C 66.928 131.370, 74.812 130.528, 82.527 130.078 C 94.573 129.375, 97.257 128.902, 101.527 126.732 C 104.262 125.341, 107.526 122.808, 108.780 121.102 C 112.471 116.081, 116.370 117.449, 113.606 122.796 C 111.888 126.117, 104.987 132.593, 101.446 134.206 C 99.312 135.179, 99.003 135.969, 99.026 140.411 C 99.063 147.713, 100.771 164.646, 102.061 170.500 C 103.356 176.379, 107.981 188, 109.025 188 C 109.424 188, 110.020 186.650, 110.350 185 C 111 181.751, 113.013 181.106, 115.006 183.507 C 115.883 184.564, 116.054 186.802, 115.580 190.997 C 114.447 201.007, 113.426 202.824, 107.301 205.724 C 99.566 209.386, 96.361 212.945, 95.032 219.345 C 94.272 223.007, 94.243 225.508, 94.938 227.337 C 96.306 230.935, 97.316 230.716, 96.500 227 C 95.931 224.408, 96.128 224, 97.945 224 C 99.270 224, 100.402 224.927, 101 226.500 C 102.400 230.183, 103.663 229.550, 104.294 224.847 C 105.109 218.767, 108.293 216.132, 117.461 213.947 C 121.695 212.939, 125.742 211.629, 126.455 211.038 C 127.167 210.446, 128.304 207.833, 128.979 205.231 C 131.600 195.139, 132.115 194, 134.059 194 C 135.243 194, 136.193 194.923, 136.575 196.441 C 137.113 198.585, 136.736 200.980, 134.318 210.779 C 133.621 213.605, 137.628 217.345, 143.497 219.344 L 147.516 220.714 149.735 213.511 C 152.309 205.157, 158.873 196.567, 161.059 198.693 C 162.026 199.633, 161.599 201.793, 159.050 208.862 C 156.025 217.249, 155.839 218.515, 156.212 228.169 C 156.866 245.147, 161.725 253.769, 174.761 261.088 C 182.882 265.648, 184 266.813, 184 270.721 C 184 274.661, 182.751 277.431, 179.310 281.125 L 176.865 283.750 179.485 283.750 C 182.658 283.750, 186.761 287.335, 188.642 291.750 C 190.122 295.223, 191.471 295.654, 195.347 293.888 C 197.365 292.968, 198.429 290.672, 201.488 280.638 C 206.710 263.505, 206.670 264.354, 202.577 257.558 C 200.610 254.291, 199 251.014, 199 250.277 C 199 247.809, 201.852 242.074, 205.369 237.468 C 208.231 233.720, 212.208 226.393, 217.023 216 C 218.086 213.706, 221.450 214.147, 221.803 216.627 C 221.970 217.797, 221.248 221.300, 220.197 224.411 L 218.287 230.068 220.894 231.914 C 225.357 235.073, 240.111 241.696, 249 244.530 C 261.336 248.463, 279.959 249.190, 289.111 246.096 C 292.625 244.908, 297.177 242.905, 299.227 241.645 L 302.954 239.354 293.898 238.148 C 275.223 235.662, 262.420 229.424, 249.476 216.506 C 242.076 209.120, 229.228 192.036, 227.686 187.532 C 227.504 187, 225.132 187.990, 222.415 189.734 C 215.967 193.872, 210.769 196, 207.114 196 C 201.953 196, 201 195.149, 201 190.542 C 201 186.318, 201.878 184.278, 209.263 171.352 L 212.776 165.204 208.091 160.590 L 203.406 155.975 200.542 161.238 C 198.966 164.132, 196.737 168.263, 195.589 170.418 C 192.682 175.870, 185.902 182.735, 182.608 183.562 C 178.896 184.494, 175.200 182.644, 174.399 179.452 C 174.038 178.014, 174.308 171.289, 174.999 164.508 C 176.345 151.307, 175.880 145.552, 173.391 144.597 C 172.536 144.268, 170.073 144, 167.918 144 C 164.060 144, 164 144.057, 163.985 147.750 C 163.948 157.226, 159.121 170.380, 154.593 173.347 C 148.449 177.373, 145.572 174.498, 142.087 160.849 L 139.500 150.714 134.749 149.512 C 121.303 146.107, 119.642 134.951, 128.571 108 C 133.811 92.183, 132.020 76.824, 123.491 64.427 C 119.228 58.232, 118.962 53.992, 122.506 48.776 C 125.262 44.721, 131.419 40.105, 137.413 37.601 C 144.358 34.699, 150.878 34.543, 161.197 37.030 C 173.514 40, 180.866 38.516, 172.750 34.699 C 165.001 31.055, 149.921 30.129, 136.500 32.475 M 84.062 72.827 C 76.354 76.961, 74.698 88.160, 80.881 94.343 C 83.734 97.195, 84.627 97.500, 90.134 97.500 C 95.980 97.500, 96.367 97.340, 99.614 93.583 C 103.658 88.906, 104.086 84.049, 100.990 77.981 C 97.598 71.332, 90.742 69.245, 84.062 72.827 M 89.984 78.519 C 88.106 80.782, 91.461 84.359, 94.126 82.933 C 96.549 81.636, 96.521 79.349, 94.066 78.035 C 91.579 76.704, 91.481 76.716, 89.984 78.519 M 22.250 105.662 C 21.563 105.940, 21 106.987, 21 107.990 C 21 109.320, 21.540 109.672, 23 109.290 C 24.107 109, 25 107.926, 25 106.883 C 25 104.974, 24.502 104.753, 22.250 105.662 M 35.559 106.706 C 35.226 107.575, 35.169 108.502, 35.433 108.767 C 36.159 109.492, 39 108.195, 39 107.138 C 39 105.453, 36.176 105.098, 35.559 106.706 M 55.680 125.391 C 55.387 126.155, 52.582 128.036, 49.448 129.569 C 45.127 131.683, 42.216 132.375, 37.410 132.429 L 31.071 132.500 35.735 134.871 C 39.619 136.845, 41.390 137.152, 46.316 136.705 C 49.569 136.410, 52.644 135.756, 53.148 135.252 C 54.640 133.760, 58.071 124, 57.103 124 C 56.614 124, 55.974 124.626, 55.680 125.391 M 85.493 137.729 L 80.487 138.088 80.646 157.794 C 80.831 180.781, 82.966 193.299, 88.540 204.078 C 90.257 207.397, 91.195 207.675, 93.068 205.418 C 93.790 204.549, 96.909 202.560, 100 201 C 108.252 196.834, 108.712 195.966, 105.220 191.145 C 99.207 182.844, 95.874 169.520, 95.242 151.250 C 94.764 137.470, 94.678 137.006, 92.624 137.185 C 91.456 137.287, 88.247 137.531, 85.493 137.729 M 154.500 145.665 C 152.850 145.857, 149.768 146.492, 147.652 147.077 C 144.359 147.986, 143.891 148.454, 144.414 150.320 C 144.751 151.519, 145.982 156.325, 147.151 161 C 149.557 170.620, 150.404 172.077, 152.356 169.957 C 154.472 167.660, 157.878 158.005, 158.597 152.267 C 159.553 144.643, 159.804 145.047, 154.500 145.665 M 180.373 152.642 C 180.423 156.414, 180.072 163.823, 179.594 169.106 C 178.974 175.955, 179.046 178.910, 179.842 179.403 C 182.664 181.146, 197.454 160.730, 198.218 154.036 C 198.465 151.880, 197.762 151.276, 192.593 149.198 C 189.344 147.892, 185.245 146.589, 183.485 146.304 L 180.283 145.784 180.373 152.642 M 210.750 178.305 C 206.030 186.551, 204.688 192, 207.378 192 C 209.875 192, 216.270 188.885, 220.669 185.526 L 224.996 182.222 220.915 176.111 C 218.671 172.750, 216.534 170.001, 216.167 170.003 C 215.800 170.005, 213.363 173.741, 210.750 178.305 M 71 196.990 C 66.835 199.149, 63.189 203.805, 62.340 208.051 C 61.855 210.477, 62.174 211.433, 63.863 212.617 C 65.038 213.440, 66 215.025, 66 216.140 C 66 219.307, 68.307 217.758, 69.289 213.932 C 70.286 210.051, 72.292 207.459, 76.137 205.086 L 78.775 203.459 76.637 199.317 L 74.500 195.175 71 196.990 M 129 218 C 128.175 218.533, 124.575 219.930, 121 221.103 C 117.425 222.277, 113.897 223.803, 113.160 224.494 C 109.978 227.479, 117.714 235.311, 130 241.544 C 134.581 243.867, 149.948 248.386, 150.703 247.631 C 150.826 247.507, 150.268 245.219, 149.463 242.544 C 148.658 239.870, 148 235.038, 148 231.806 L 148 225.929 143.750 224.106 C 141.412 223.103, 137.750 221.094, 135.610 219.641 C 131.257 216.685, 131.097 216.645, 129 218 M 215 235.905 C 215 236.403, 213.410 238.714, 211.467 241.039 C 209.524 243.365, 208.137 245.470, 208.384 245.718 C 209.374 246.707, 228.211 251.090, 239.728 253.011 C 249.727 254.679, 253.101 254.865, 258.228 254.033 C 261.678 253.473, 266.300 252.961, 268.500 252.895 C 270.700 252.830, 268 252.221, 262.500 251.542 C 250.983 250.122, 237.435 245.718, 225 239.354 C 216.105 234.801, 215 234.420, 215 235.905 M 110 239.859 C 110 242.310, 118.430 251.184, 122.918 253.458 C 128.643 256.359, 132.003 260.220, 131.993 263.885 C 131.985 267.140, 129.085 271.648, 125.477 274.015 L 122.737 275.813 125.775 277.384 C 127.538 278.295, 129.588 280.634, 130.657 282.952 C 132.625 287.220, 133.391 287.562, 137.488 286.005 C 139.321 285.308, 140.868 283.283, 142.646 279.255 C 144.044 276.090, 146.056 271.587, 147.118 269.250 C 151.744 259.073, 150.968 257.729, 138.015 253.469 C 128.843 250.453, 118.606 245.462, 113.315 241.427 C 111.492 240.036, 110 239.331, 110 239.859 M 112.988 281.513 C 111.185 283.432, 110.903 284.303, 111.797 285.197 C 112.440 285.840, 113.087 286.172, 113.233 285.933 C 115.131 282.850, 116.738 279, 116.128 279 C 115.699 279, 114.286 280.131, 112.988 281.513 M 120.253 284.701 C 118.740 287.959, 120.131 289.344, 123.998 288.429 C 127.278 287.652, 127.266 287.677, 125.877 284.629 C 124.337 281.250, 121.841 281.281, 120.253 284.701 M 168.174 289.314 C 165.577 292.080, 165.422 293.564, 167.643 294.417 C 168.547 294.763, 169.356 294.924, 169.441 294.774 C 170.277 293.292, 172 288.700, 172 287.953 C 172 286.339, 170.452 286.890, 168.174 289.314 M 176.615 291.465 C 174.098 295.306, 174.616 296, 180 296 C 185.601 296, 186.501 294.501, 183 291 C 180.348 288.348, 178.572 288.477, 176.615 291.465" stroke="none" fill="black" fill-rule="evenodd"/>
</svg>