<svg xmlns="http://www.w3.org/2000/svg" width="317" height="292" viewBox="0 0 317 292" version="1.1">
	<path d="M 145.500 8.100 C 138.563 9.660, 132.975 11.974, 115.500 20.523 C 102.749 26.761, 96.126 29.380, 89 31.001 C 62.478 37.035, 49.732 45.191, 41.544 61.369 C 38.184 68.006, 34.039 81.860, 34.012 86.540 C 33.986 91.008, 27.798 107.952, 23.436 115.500 C 10.412 138.037, 7 148.001, 7 163.500 C 7 173.134, 9.374 184.956, 12.538 191.073 C 13.342 192.628, 14 194.342, 14 194.881 C 14 198.516, 26.042 220.199, 37.251 236.749 C 54.218 261.800, 61.157 265.664, 94.236 268.483 C 113.406 270.116, 118.629 271.278, 137.055 278.006 C 152.406 283.611, 162.118 285.344, 174.905 284.760 C 187.498 284.185, 193.587 282.280, 209.500 273.937 C 220.320 268.265, 227.657 265.458, 243.500 260.931 C 263.433 255.236, 276.529 245.903, 287.184 229.798 C 292.455 221.830, 299.072 209.066, 301.290 202.584 C 301.871 200.888, 302.652 188.250, 303.025 174.500 C 303.678 150.458, 303.831 149.021, 307.021 137 C 313.552 112.389, 311.263 97.998, 298.036 80.500 C 292.931 73.747, 292.179 72.517, 286.719 62 C 279.380 47.861, 273.079 41.171, 261.573 35.301 C 254.302 31.591, 248.725 30.183, 234.890 28.565 C 216.780 26.446, 214.121 25.664, 196.552 17.280 C 187.780 13.094, 177.880 9.085, 174.552 8.370 C 167.702 6.899, 151.511 6.749, 145.500 8.100 M 152.500 16.075 C 143.612 17.147, 138.093 19.151, 121.500 27.334 C 105.019 35.462, 98.967 37.750, 85.500 40.944 C 68.873 44.888, 57.333 52.100, 51.106 62.438 C 48.025 67.553, 44.413 78.918, 42.030 91 C 39.509 103.773, 36.736 110.528, 27.249 127 C 17.422 144.063, 14.251 156.779, 16.444 170.326 C 19.184 187.250, 24.601 195.504, 47.636 217.846 C 62.100 231.876, 68.381 236.953, 69.673 235.661 C 69.941 235.393, 69.418 234.041, 68.511 232.658 C 67.568 231.218, 66.999 228.720, 67.181 226.821 C 67.506 223.441, 68.910 222.611, 70.067 225.115 C 73.665 232.902, 74.748 234.348, 78.452 236.310 C 82.082 238.234, 84.567 238.509, 102.500 238.978 L 122.500 239.500 128.956 243.500 C 132.507 245.700, 137.739 248.400, 140.582 249.500 C 146.780 251.898, 147.380 253.530, 142.021 253.418 C 139.513 253.365, 134.649 251.640, 128.468 248.613 L 118.826 243.890 107.124 244.574 C 98.340 245.088, 92.064 244.815, 81.961 243.479 C 64.736 241.202, 61.001 239.312, 46.215 225.394 C 40.047 219.587, 35 215.133, 35 215.495 C 35 215.857, 37.219 219.456, 39.932 223.494 C 42.644 227.532, 45.565 232.192, 46.422 233.850 C 49.326 239.464, 58.728 249.484, 64.135 252.725 C 70.586 256.592, 78.914 258.291, 101.734 260.394 C 117.056 261.806, 118.967 262.229, 135.734 267.904 C 155.630 274.638, 161.911 276, 173.078 276 C 182.935 276, 191.483 273.408, 204.500 266.471 C 216.460 260.097, 221.827 257.931, 237 253.352 C 259.147 246.668, 269.292 239.797, 279.130 224.819 C 284.242 217.036, 291 203.645, 291 201.299 C 291 200.725, 288.057 203.099, 284.461 206.574 C 277.484 213.315, 271.627 216.576, 259.945 220.223 C 252.250 222.625, 252.126 222.719, 230.823 242.104 C 226.051 246.447, 221.664 250, 221.073 250 C 218.281 250, 220.708 246.174, 228.250 238.688 C 232.788 234.184, 237.939 228.665, 239.697 226.422 C 244.272 220.589, 249.577 217.267, 258.076 214.913 C 275.702 210.032, 286.382 199.524, 291.529 182 C 292.457 178.840, 293.513 169.694, 294.012 160.500 C 294.731 147.238, 295.356 143.045, 297.665 136 C 300.121 128.510, 300.449 126.015, 300.427 115 C 300.398 99.967, 300.524 100.300, 288.184 82.530 C 285.261 78.320, 280.857 70.886, 278.398 66.011 C 273.094 55.493, 266.058 47.878, 257.470 43.359 C 250.377 39.626, 244.284 38.227, 229.500 36.933 C 215.211 35.683, 210.373 34.212, 193.500 25.984 C 174.131 16.539, 165.651 14.490, 152.500 16.075 M 197.093 40.746 C 198.788 45.203, 202.948 50, 205.119 50 C 207.130 50, 207.130 49.991, 205.068 47.096 C 203.931 45.498, 203 43.777, 203 43.270 C 203 41.986, 198.621 38, 197.210 38 C 196.358 38, 196.327 38.729, 197.093 40.746 M 141.934 49.497 C 115.058 54.855, 102.625 63.751, 91 85.940 C 84.679 98.004, 84.014 98.846, 66.874 116.460 C 42.703 141.299, 39.004 147.445, 38.995 162.770 C 38.989 173.374, 41.048 179.880, 46.095 185.206 C 49.101 188.378, 50.352 189, 53.728 189 C 57.104 189, 58.419 189.654, 61.765 193 C 64.943 196.178, 66.501 197, 69.347 197 C 73.520 197, 75 195.044, 75 189.530 L 75 185.928 78.732 188.464 C 82.840 191.255, 87.610 191.737, 90.466 189.649 C 92.024 188.510, 92.215 187.449, 91.682 182.899 C 91.335 179.929, 91.377 177.976, 91.776 178.558 C 93.163 180.584, 97.460 183, 99.675 183 C 105.886 183, 109.151 178.740, 107.210 173.172 L 106.212 170.308 109.856 171.610 C 114.928 173.422, 116.334 173.312, 119.454 170.857 C 121.801 169.011, 122.121 168.145, 121.759 164.607 C 121.529 162.348, 120.969 159.657, 120.515 158.626 C 119.717 156.810, 119.777 156.808, 122.413 158.535 C 124.583 159.957, 125.884 160.135, 128.818 159.410 L 132.500 158.500 132.796 151.734 L 133.092 144.969 139.796 140.062 C 145.470 135.909, 163.564 127.231, 164.532 128.198 C 164.701 128.368, 163.510 130.457, 161.884 132.841 C 160.259 135.224, 156.666 141.523, 153.899 146.837 C 151.133 152.152, 146.761 159.200, 144.185 162.500 C 139.631 168.332, 139.500 168.694, 139.500 175.444 L 139.500 182.387 133.500 187.269 C 116.804 200.855, 97.409 206.342, 86.074 200.687 C 81.529 198.420, 79.994 198.563, 80.032 201.250 C 80.113 206.986, 86.049 210, 97.269 210 C 110.775 210, 120.638 206.183, 137.895 194.279 C 150.889 185.316, 154.546 183.414, 164.147 180.624 C 190.888 172.853, 198.105 165.798, 205.365 140.334 C 207.253 133.710, 209.597 126.763, 210.573 124.896 C 216.530 113.497, 214.734 103.500, 205.777 98.209 C 204.250 97.307, 203 95.756, 203 94.762 C 203 93.768, 201.221 91.026, 199.047 88.667 C 194.329 83.548, 192.690 79.687, 193.558 75.734 C 197.690 56.925, 171.483 43.606, 141.934 49.497 M 229.750 57.572 C 228.238 58.393, 227 59.490, 227 60.012 C 227 60.533, 225.182 61.887, 222.961 63.020 C 212.678 68.266, 212.411 81.209, 222.494 85.701 C 232.396 90.113, 242 103.535, 242 112.962 C 242 122.620, 247.126 127.697, 255.881 126.710 C 259.477 126.305, 261.123 125.442, 263.729 122.599 C 265.543 120.619, 267.821 119, 268.791 119 C 272.999 119, 278 112.755, 278 107.500 C 278 102.014, 273.675 96.685, 268.297 95.542 C 263.902 94.609, 260.416 91.650, 256.132 85.215 C 254.134 82.215, 251.715 78.577, 250.755 77.131 C 249.779 75.658, 249.008 72.611, 249.005 70.210 C 248.999 64.839, 245.979 58.767, 242.533 57.197 C 238.986 55.581, 233.102 55.753, 229.750 57.572 M 136.500 58.908 C 122.846 62.596, 115.609 66.517, 108.334 74.170 C 105.168 77.500, 95 93.547, 95 95.213 C 95 98.186, 85.797 109.284, 72.076 122.860 C 60.199 134.611, 55.178 140.359, 51.884 145.976 C 47.766 152.999, 47.479 153.974, 47.156 162.081 C 46.871 169.222, 47.160 171.394, 48.833 174.672 C 52.607 182.071, 54.453 182.292, 70.500 177.269 C 85.093 172.701, 96.139 165.836, 116.382 148.752 C 133.721 134.118, 152.657 122.644, 163 120.505 C 164.925 120.106, 170.550 118.479, 175.500 116.889 C 187.513 113.029, 193.943 107.684, 194.705 100.926 C 195.180 96.714, 194.914 96.023, 191.153 91.677 C 186.408 86.195, 185.084 82.236, 185.719 75.428 C 186.314 69.046, 183.581 64.878, 176 60.602 C 170.687 57.606, 170.041 57.492, 157 57.259 C 146.325 57.068, 142.035 57.413, 136.500 58.908 M 76.980 62.524 C 76.284 63.362, 75.951 64.284, 76.240 64.573 C 77.242 65.576, 82 63.774, 82 62.392 C 82 60.526, 78.563 60.617, 76.980 62.524 M 233.789 64.572 C 230.319 68.802, 228.847 70, 227.122 70 C 224.588 70, 222.775 72.385, 223.173 75.195 C 223.395 76.757, 225.030 78.325, 228.247 80.060 C 234.268 83.307, 238.221 87.054, 243.011 94.056 C 248.243 101.705, 250 106.342, 250 112.500 C 250 118.509, 251.592 120.570, 255.481 119.594 C 257.097 119.189, 258.505 117.727, 259.443 115.482 C 260.711 112.448, 261.347 112, 264.392 112 C 270.363 112, 272.721 105.654, 267.666 103.194 C 266.475 102.614, 263.849 101.635, 261.832 101.019 C 259.814 100.403, 257.479 98.854, 256.642 97.576 C 255.805 96.299, 252.843 92.651, 250.060 89.471 C 247.277 86.291, 245 83.267, 245 82.752 C 245 82.237, 244.100 80.671, 243 79.273 C 241.531 77.405, 241 75.216, 241 71.026 C 241 65.883, 240.749 65.207, 238.453 64.161 C 235.247 62.700, 235.331 62.693, 233.789 64.572 M 153.838 65.526 C 152.219 66.405, 150.503 68.735, 149.458 71.472 C 147.243 77.270, 148.053 83.864, 152.203 93.834 C 154.809 100.092, 155.964 101.656, 159.769 104.069 C 170.550 110.906, 185 107.438, 185 98.014 C 185 94.412, 184.362 93.435, 178.531 88.101 C 176.043 85.825, 175.942 85.356, 176.569 78.999 C 177.331 71.263, 176.424 68.839, 171.686 65.950 C 167.816 63.590, 157.838 63.353, 153.838 65.526 M 158.352 70.982 C 157.171 71.465, 155.889 72.371, 155.502 72.996 C 153.061 76.947, 156.841 90.471, 161.970 96.139 C 164.790 99.255, 166.405 100.152, 170 100.598 C 173.180 100.993, 175.087 100.712, 176.500 99.643 C 178.450 98.167, 178.388 98.014, 174.036 93.558 L 169.571 88.987 169.741 81.005 C 169.882 74.386, 169.620 72.870, 168.206 72.130 C 165.304 70.610, 160.602 70.063, 158.352 70.982 M 70.015 73.028 C 69.997 76.035, 67.210 78.648, 62.259 80.298 C 57.669 81.828, 56.776 84, 60.737 84 C 62.621 84, 65.107 82.745, 67.820 80.422 C 72.021 76.826, 72.795 74.777, 71 72 C 70.233 70.814, 70.027 71.029, 70.015 73.028 M 119.777 80.295 C 115.741 82.081, 108.202 91.458, 107.322 95.787 C 106.907 97.829, 106.576 102.448, 106.587 106.051 C 106.610 113.428, 107.648 115.489, 113.619 120.007 C 117.134 122.667, 118.238 122.947, 125.320 122.972 C 132.394 122.997, 133.555 122.714, 137.495 120.004 C 143.020 116.202, 145 112.225, 145 104.929 C 145 98.216, 142.411 91.405, 137.843 86.099 C 132.162 79.499, 126.028 77.529, 119.777 80.295 M 119.095 89.811 C 111.538 97.821, 111.068 111.290, 118.212 115.113 C 121.400 116.819, 130.040 116.548, 133.759 114.625 C 137.596 112.640, 138.464 109.871, 137.548 102.535 C 136.488 94.051, 130.279 86.141, 124.595 86.035 C 123.548 86.016, 121.073 87.715, 119.095 89.811 M 198.199 111.576 C 195.599 114.942, 192.456 117.747, 190.250 118.669 C 186.322 120.310, 176.371 126.450, 174.572 128.342 C 170.802 132.308, 166.534 138.951, 161.180 149.190 C 157.817 155.620, 153.026 164.158, 150.533 168.164 C 144.405 178.012, 144.534 179.475, 151.282 176.656 C 153.052 175.916, 159 174.061, 164.500 172.532 C 175.988 169.339, 181.448 166.531, 185.797 161.578 C 190.924 155.739, 193.734 150.008, 196.966 138.800 C 198.663 132.915, 201.681 124.667, 203.674 120.472 C 207.236 112.971, 207.269 112.787, 205.664 109.422 C 204.767 107.540, 203.688 106.002, 203.266 106.004 C 202.845 106.006, 200.565 108.513, 198.199 111.576 M 90.151 120.838 C 87.495 123.683, 85 130.813, 85 135.562 C 85 138.794, 89.470 143.002, 92.896 142.994 C 101.149 142.977, 110 136.793, 110 131.045 C 110 126.813, 99.495 118, 94.451 118 C 93.544 118, 91.609 119.277, 90.151 120.838 M 93.558 127.889 C 91.599 131.677, 91.551 135.890, 93.459 136.623 C 95.552 137.426, 102.033 135.078, 102.729 133.263 C 103.509 131.232, 102.193 129.335, 98.308 126.887 L 95.115 124.877 93.558 127.889 M 278 139.800 C 278 140.790, 277.499 142.101, 276.887 142.712 C 276.276 143.324, 275.958 144.375, 276.182 145.046 C 276.844 147.032, 280 143.215, 280 140.429 C 280 139.093, 279.550 138, 279 138 C 278.450 138, 278 138.810, 278 139.800 M 59.217 143.561 C 55.875 145.902, 53.987 150.337, 53.327 157.396 C 52.806 162.986, 52.988 163.988, 54.868 165.868 C 56.040 167.040, 57.839 168, 58.865 168 C 63.885 168, 69 159.307, 69 150.776 C 69 148.004, 68.305 146.214, 66.545 144.455 C 63.684 141.593, 62.272 141.421, 59.217 143.561 M 183.478 145.043 C 182.612 146.717, 180.800 148.589, 179.452 149.204 C 174.355 151.526, 177.710 155.191, 182.948 153.022 C 187.522 151.127, 190.396 142, 186.419 142 C 185.667 142, 184.343 143.370, 183.478 145.043 M 236.299 148.898 C 232.342 151.765, 229 157.795, 229 162.070 C 229 167.243, 226.342 169.955, 206.500 185.025 C 200.450 189.620, 192.714 195.504, 189.308 198.099 L 183.117 202.819 175.308 202.307 C 168.271 201.846, 167.154 202.029, 164 204.167 C 159.954 206.910, 157.004 212.148, 157.002 216.593 C 156.999 221.219, 161.014 228.003, 165.025 230.150 C 167.853 231.664, 168.635 232.786, 169.227 236.176 C 170.653 244.346, 177.810 248.658, 186.347 246.491 C 192.960 244.812, 197.567 239.189, 200.544 229.163 C 201.798 224.941, 203.252 223.077, 209.804 217.295 C 221.465 207.002, 239.998 193.440, 244.316 192.039 C 246.415 191.358, 249.046 191.040, 250.163 191.332 C 251.280 191.625, 254.738 191.456, 257.847 190.959 C 262.548 190.206, 264.121 189.394, 267.184 186.136 C 271.980 181.036, 272.922 176.332, 270.377 170.191 C 268.906 166.642, 267.552 165.167, 264.289 163.563 C 260.717 161.807, 260.086 161.034, 260.047 158.364 C 259.933 150.718, 254.551 146.017, 245.900 146.007 C 241.302 146.001, 239.584 146.519, 236.299 148.898 M 125.500 151 C 124.771 152.180, 125.717 154, 127.059 154 C 127.577 154, 128 153.100, 128 152 C 128 149.891, 126.545 149.309, 125.500 151 M 60.976 151.750 C 60.963 152.162, 60.560 154.190, 60.080 156.255 C 59.601 158.321, 59.554 160.224, 59.976 160.485 C 60.398 160.746, 61.186 158.718, 61.728 155.980 C 62.269 153.241, 62.327 151, 61.856 151 C 61.385 151, 60.989 151.338, 60.976 151.750 M 239.745 155.750 C 238.884 156.713, 237.425 160.110, 236.504 163.301 C 235.582 166.492, 234.264 170.190, 233.574 171.520 C 231.982 174.589, 219.795 184.811, 204.416 195.979 C 200.612 198.741, 195.925 202.281, 194 203.846 C 187.199 209.375, 184.417 210.274, 176.428 209.525 C 169.884 208.912, 168.948 209.052, 167.078 210.922 C 164.837 213.163, 164.340 217.898, 166.017 221.032 C 166.576 222.077, 168.939 223.444, 171.267 224.070 C 176.427 225.456, 176.853 226.073, 176.288 231.343 C 175.694 236.891, 177.601 239.400, 182.410 239.400 C 187.356 239.400, 190.214 236.213, 193.032 227.556 C 195.596 219.678, 199.499 215.182, 212.040 205.662 C 216.143 202.547, 222.425 197.702, 226 194.896 C 237.952 185.515, 241.356 184.020, 250.795 184.009 C 258.361 184.001, 259.317 183.774, 261.657 181.434 C 263.727 179.364, 264.105 178.252, 263.609 175.684 C 262.789 171.437, 259.571 168.899, 255.366 169.182 C 251.786 169.423, 248.965 167.758, 250.913 166.554 C 252.386 165.643, 252.297 156.697, 250.800 155.200 C 248.938 153.338, 241.574 153.705, 239.745 155.750 M 111.648 162.836 C 110.084 164.565, 110.133 164.740, 112.493 165.815 C 114.864 166.895, 115 166.795, 115 163.979 C 115 160.556, 114.015 160.221, 111.648 162.836 M 98.110 173.367 C 97.247 174.407, 97.337 175.035, 98.488 175.990 C 99.772 177.056, 100 176.850, 100 174.622 C 100 171.637, 99.707 171.443, 98.110 173.367 M 82.224 181.176 C 81.365 182.035, 81.344 182.710, 82.146 183.676 C 83.846 185.725, 85 185.249, 85 182.500 C 85 179.781, 84.065 179.335, 82.224 181.176 M 66.064 186.939 C 64.879 187.689, 64.855 188.121, 65.928 189.413 C 67.501 191.308, 69 190.590, 69 187.941 C 69 185.811, 68.251 185.556, 66.064 186.939 M 127.352 221.993 C 124.654 223.082, 123.916 224.246, 124.907 225.849 C 125.519 226.840, 126.237 226.849, 128.341 225.891 C 130.355 224.973, 131.606 224.955, 133.500 225.818 C 136.017 226.965, 136.904 230.323, 135 231.500 C 133.377 232.503, 133.856 234, 135.800 234 C 137.811 234, 140 232.178, 140 230.503 C 140 229.900, 139.213 228.362, 138.250 227.085 C 133.554 220.854, 131.989 220.123, 127.352 221.993 M 255.598 225.736 C 254.631 226.703, 254.914 235.829, 255.931 236.457 C 257.221 237.254, 257.698 236.219, 258.495 230.892 C 259.036 227.274, 258.863 226.162, 257.690 225.711 C 256.868 225.396, 255.927 225.407, 255.598 225.736" stroke="none" fill="black" fill-rule="evenodd"/>
</svg>