<svg xmlns="http://www.w3.org/2000/svg" width="300" height="281" viewBox="0 0 300 281" version="1.1">
	<path d="M 213 7.882 C 202.171 11.435, 192.487 19.594, 188.170 28.804 C 185.770 33.925, 185.450 35.964, 185 49 C 184.405 66.255, 183.964 67.408, 173.711 78.536 C 156.750 96.943, 98.353 146.524, 79.500 158.524 C 70.799 164.063, 68.461 164.428, 57.292 161.990 C 41.214 158.479, 28.576 161.424, 19.115 170.885 C 6.889 183.111, 3.879 198.186, 10.840 212.326 C 15.727 222.254, 24.584 228.731, 36.626 231.183 L 41.752 232.226 42.250 239.363 C 43.268 253.929, 49.848 264.338, 61.738 270.192 C 67.814 273.183, 69.177 273.459, 77.955 273.479 C 86.791 273.498, 88.045 273.247, 94.020 270.252 C 104.652 264.924, 110.352 258.617, 114.503 247.588 C 116.648 241.889, 117.102 238.833, 117.318 228.646 C 117.519 219.156, 117.977 215.735, 119.413 213 C 121.670 208.702, 144.277 185.609, 160.500 171.029 C 186.342 147.805, 216.006 124.317, 224.500 120.353 C 230.436 117.583, 233.532 117.471, 244.922 119.614 C 250.633 120.688, 255.774 121.019, 260.302 120.602 C 273.137 119.421, 285.430 110.776, 290.821 99.138 C 293.076 94.271, 293.437 92.132, 293.466 83.500 C 293.494 75.295, 293.115 72.692, 291.356 69 C 286.832 59.505, 276.278 52.046, 264.187 49.798 L 258 48.647 258 40.262 C 258 33.417, 257.547 30.923, 255.534 26.688 C 251.892 19.025, 247.903 14.762, 240.825 10.969 C 235.078 7.889, 233.632 7.556, 225 7.321 C 219.775 7.179, 214.375 7.431, 213 7.882 M 210.199 19.588 C 204.634 22.361, 199.184 27.986, 196.422 33.805 C 194.986 36.831, 194.812 39.306, 195.318 49.450 C 196.059 64.298, 195.023 67.724, 186.517 78.546 C 179.168 87.897, 159.826 105.984, 137.909 124 C 134.229 127.025, 125.894 134, 119.386 139.500 C 103.971 152.528, 86.949 165.226, 80.020 168.866 C 72.169 172.990, 67.284 173.421, 55.259 171.051 C 43.530 168.739, 38.737 169.206, 31.669 173.348 C 16.079 182.485, 12.048 203.772, 23.835 214.731 C 28.155 218.748, 35.058 221.671, 41.828 222.350 L 48.156 222.986 47.464 219.743 C 47.083 217.959, 46.175 215.047, 45.446 213.272 C 43.993 209.734, 45.097 208.005, 47.523 210.019 C 51.349 213.195, 52.271 217.234, 52.426 231.500 C 52.561 243.956, 52.835 246.027, 54.912 250.277 C 57.593 255.766, 63.711 261.419, 68.777 263.091 C 73.525 264.658, 86.654 263.779, 90.803 261.616 C 95.977 258.919, 101.966 252.315, 104.745 246.245 C 107.017 241.283, 107.304 239.306, 107.447 227.597 C 107.586 216.155, 107.898 213.900, 109.914 209.749 C 113.282 202.813, 149.370 166.677, 168.085 151.500 C 169.442 150.400, 174.365 146.310, 179.026 142.411 C 202.100 123.108, 213.455 114.698, 221.733 110.779 C 228.894 107.388, 234.166 107.336, 248.730 110.513 C 256.672 112.245, 257.197 112.244, 263.730 110.478 C 269.527 108.911, 271.307 107.843, 276.117 103.037 C 280.516 98.643, 282.089 96.207, 283.367 91.809 C 285.660 83.922, 285.425 78.756, 282.496 72.688 C 278.695 64.815, 273.239 61.225, 262.064 59.244 C 257.093 58.363, 252.730 57.936, 252.370 58.296 C 251.526 59.140, 251.602 63.731, 252.518 67.250 C 253.660 71.640, 250.243 70.824, 248.327 66.250 C 247.049 63.198, 246.914 60.825, 247.601 53.500 C 249.276 35.624, 247.939 29.064, 241.342 22.803 C 236.895 18.583, 231.954 17, 223.228 17 C 216.804 17, 214.458 17.466, 210.199 19.588 M 212.631 29.019 C 205.517 33.531, 203.734 38.243, 202.995 54.500 C 202.484 65.744, 202.041 68.289, 199.717 73.338 C 198.239 76.548, 195.873 80.550, 194.459 82.231 C 191.869 85.309, 192.259 87.605, 195.181 86.484 C 197.924 85.431, 203.727 76.441, 205.820 70 C 206.445 68.075, 207.166 61.207, 207.423 54.738 C 207.987 40.478, 210.230 35.159, 217.540 30.743 C 219.993 29.262, 222 27.588, 222 27.025 C 222 25.041, 217.339 26.033, 212.631 29.019 M 220.900 97.374 C 211.741 100.648, 193 114.598, 193 118.143 C 193 121.608, 194.536 120.779, 210.035 108.950 C 217.982 102.884, 223.946 100.655, 233 100.365 C 237.675 100.215, 241.838 100.072, 242.250 100.046 C 243.904 99.944, 242.851 98.253, 240.453 97.161 C 237.087 95.627, 225.432 95.755, 220.900 97.374 M 177.500 128.227 C 176.400 128.833, 175.275 129.604, 175 129.940 C 174.725 130.277, 172.475 132.113, 170 134.021 C 167.525 135.929, 164.150 138.662, 162.500 140.094 C 128.721 169.416, 126.317 171.717, 127.853 173.253 C 128.579 173.979, 129.599 173.832, 131.199 172.772 C 134.646 170.488, 179.348 132.121, 180.478 130.477 C 181.942 128.347, 179.977 126.862, 177.500 128.227 M 105.030 193.750 C 103.317 195.813, 100.494 200.370, 98.757 203.878 C 95.864 209.721, 95.553 211.315, 95.041 222.878 C 94.542 234.161, 94.203 235.979, 91.840 240.011 C 88.772 245.246, 83.633 248.458, 76.750 249.443 C 71.473 250.198, 70.664 251.542, 74.587 253.033 C 79.245 254.804, 87.818 251.796, 92.661 246.691 C 97.870 241.201, 98.925 237.622, 99.940 222 C 100.868 207.724, 101.347 206.174, 107.505 197.546 C 109.977 194.081, 112 190.966, 112 190.623 C 112 188.619, 107.684 190.555, 105.030 193.750" stroke="none" fill="black" fill-rule="evenodd"/>
</svg>