<svg xmlns="http://www.w3.org/2000/svg" width="352" height="304" viewBox="0 0 352 304" version="1.1">
	<path d="M 163.826 7.919 C 158.907 9.514, 153.523 13.095, 151.017 16.438 L 148.534 19.750 140.517 19.273 C 133.291 18.843, 132.158 19.029, 129.037 21.163 C 127.066 22.510, 124.481 25.743, 123.037 28.666 C 121.123 32.541, 119.542 34.248, 116.596 35.622 C 110.614 38.412, 107 44.091, 107 50.700 C 107 62.938, 115.187 69.933, 129.563 69.978 C 139.140 70.008, 140.422 71.363, 147.833 89.278 C 149.191 92.561, 151.823 93.861, 153.129 91.896 C 155.907 87.714, 149.194 70.692, 142.767 65.623 C 139.566 63.097, 137.857 62.583, 130.767 62.015 C 126.220 61.651, 121.511 60.820, 120.301 60.169 C 111.895 55.641, 113.900 44.235, 123.415 42.450 C 127.368 41.708, 128.392 40.412, 129.388 34.887 C 130.675 27.748, 137.319 25.278, 145.501 28.898 C 150.965 31.314, 151.355 31.143, 155.564 24.485 C 159.008 19.037, 164.657 16, 171.348 16 C 178.133 16, 182.413 18.142, 185.674 23.171 C 190.270 30.258, 191.100 30.429, 197 25.500 C 200.602 22.491, 201.912 22.001, 206.345 22.007 C 209.759 22.011, 212.493 22.668, 214.442 23.953 C 218.065 26.341, 221.988 32.624, 221.995 36.050 C 222.001 38.932, 223.649 40.997, 225.950 41.006 C 229.550 41.019, 234.934 43.207, 237.377 45.649 C 242.572 50.845, 239.696 61.029, 232.062 64.472 C 228.278 66.178, 225.622 66.175, 218.768 64.458 C 214.651 63.427, 211.636 64.580, 207.609 68.726 C 201.260 75.263, 197.334 91.040, 201.645 92.694 C 203.781 93.514, 205.295 91.372, 207.471 84.452 C 208.429 81.408, 210.647 77.396, 212.401 75.536 C 215.526 72.223, 215.687 72.176, 220.396 73.180 C 235.485 76.398, 248 67.451, 248 53.444 C 248 50.584, 247.337 46.657, 246.526 44.716 C 244.677 40.291, 238.606 35.204, 234.184 34.375 C 231.225 33.820, 230.463 32.978, 227.897 27.435 C 226.179 23.724, 223.479 19.892, 221.338 18.127 C 214.836 12.768, 202.865 11.604, 195.994 15.663 C 193.205 17.310, 193.086 17.283, 189.563 14.189 C 187.588 12.456, 184.520 10.286, 182.744 9.368 C 179.085 7.475, 167.848 6.615, 163.826 7.919 M 152.584 51.864 C 152.278 52.360, 152.835 53.830, 153.823 55.132 C 157.662 60.195, 159.677 64.808, 161.405 72.500 C 162.394 76.900, 163.720 82.750, 164.352 85.500 C 164.983 88.250, 165.950 90.500, 166.500 90.500 C 170.075 90.500, 166.412 66.475, 161.769 59.465 C 158.564 54.627, 153.478 50.418, 152.584 51.864 M 195.809 56.750 C 189.163 63.678, 185 75.218, 185 86.710 C 185 91.680, 185.320 93, 186.525 93 C 188.503 93, 189.578 90.023, 190.498 82 C 191.253 75.415, 197.362 59.467, 200.427 56.080 C 201.854 54.504, 201.663 53, 200.036 53 C 199.690 53, 197.787 54.688, 195.809 56.750 M 107.326 78.007 C 97.980 79.938, 92.943 84.540, 92.247 91.784 C 91.857 95.840, 92.167 97.083, 94.142 99.379 C 99.222 105.285, 108.401 103.536, 115.414 95.325 C 117.051 93.409, 120.019 91.010, 122.012 89.994 C 127.123 87.387, 128.404 85.623, 127.040 83.074 C 124.723 78.745, 115.380 76.344, 107.326 78.007 M 231.419 80.020 C 227.621 81.190, 224.757 84.203, 225.529 86.215 C 225.846 87.042, 227.177 88.292, 228.487 88.993 C 229.796 89.694, 233.197 93.139, 236.045 96.648 C 243.122 105.371, 245.404 107, 250.546 107 C 254.094 107, 255.263 106.476, 257.411 103.923 C 261.028 99.625, 261.564 96.577, 259.505 92.011 C 256.139 84.546, 249.657 80.443, 239.824 79.553 C 236.896 79.288, 233.113 79.498, 231.419 80.020 M 106.290 86.348 C 100.967 87.804, 99.762 89.040, 100.172 92.620 C 100.691 97.146, 103.278 96.591, 109.646 90.590 C 114.892 85.646, 115.240 85.079, 113 85.135 C 111.625 85.169, 108.605 85.715, 106.290 86.348 M 240.473 90.948 C 242.408 94.690, 248.354 99.271, 250.691 98.821 C 253.728 98.236, 253.232 95.566, 249.368 91.701 C 246.569 88.902, 244.848 88, 242.308 88 L 238.949 88 240.473 90.948 M 136.107 96.803 C 131.892 99.063, 129.750 102.962, 123.088 120.500 C 117.017 136.484, 110.609 149.227, 104.959 156.551 C 99.315 163.869, 96.981 169.745, 97.183 176.129 C 97.328 180.692, 96.810 182.402, 93.742 187.500 C 71.170 225, 45.348 256.252, 11.669 286.831 C 7.596 290.529, 7.091 292.867, 9.829 295.345 C 11.515 296.871, 24.488 297, 176.106 297 C 323.327 297, 340.788 296.837, 342.777 295.443 C 346.747 292.663, 345.497 290.387, 333.854 279.205 C 318.607 264.561, 305.377 250.864, 298.403 242.500 C 295.193 238.650, 292.302 235.275, 291.979 235 C 289.440 232.836, 261 191.017, 261 189.447 C 261 189.179, 259.875 187.178, 258.500 185 C 256.683 182.122, 256 179.655, 256 175.970 C 256 170.167, 254.945 167.840, 246.851 155.788 C 243.633 150.997, 241 146.772, 241 146.400 C 241 146.027, 239.267 142.073, 237.148 137.611 C 235.029 133.150, 232.068 126.125, 230.568 122 C 229.067 117.875, 227.454 113.600, 226.983 112.500 C 226.511 111.400, 225.809 109.375, 225.422 108 C 224.376 104.286, 220.506 98.973, 217.314 96.868 C 213.644 94.449, 206.433 94.439, 202.483 96.847 C 200.823 97.859, 197.898 100.124, 195.983 101.880 C 190.807 106.626, 189.025 106.709, 180.393 102.609 C 170.025 97.686, 165.250 97.858, 159.151 103.375 L 156.802 105.500 152.971 101.200 C 147.530 95.094, 141.988 93.649, 136.107 96.803 M 139.831 105.035 C 138.913 105.570, 137.396 108.144, 136.460 110.754 C 128.232 133.697, 128.376 133.343, 122.491 145.101 C 120.123 149.832, 115.896 156.841, 113.098 160.676 C 109.414 165.725, 107.837 168.911, 107.383 172.219 C 106.840 176.185, 107.016 176.870, 108.718 177.410 C 112.013 178.456, 117.452 175.422, 120.552 170.808 C 125.378 163.627, 129.479 156.676, 130.867 153.322 C 133.693 146.497, 140.162 144.526, 145.875 148.749 C 148.702 150.839, 148.828 150.847, 150.463 149.041 C 154.837 144.208, 162.532 144.346, 166.140 149.322 C 170.051 154.717, 171 160.462, 171.006 178.785 C 171.011 197.450, 171.868 203.067, 175.270 206.750 C 178.811 210.583, 184.119 209.597, 186.698 204.629 C 189.138 199.930, 188.664 191.779, 185.381 182 C 182.964 174.802, 182.525 171.879, 182.514 162.922 C 182.501 152.924, 182.650 152.148, 185.238 148.754 C 188.513 144.461, 192.641 143.235, 196.677 145.358 C 200.655 147.450, 202.168 149.544, 205.458 157.512 C 208.302 164.400, 211.402 168.931, 212.513 167.821 C 212.825 167.508, 213.458 164.867, 213.919 161.952 C 214.949 155.435, 216.965 153.650, 222.494 154.361 C 226.995 154.940, 229.829 157.775, 231.906 163.776 C 233.696 168.947, 239.488 177.619, 242.447 179.557 C 248.516 183.534, 248.284 176.089, 242.055 166.963 C 239.825 163.696, 238 160.749, 238 160.416 C 238 160.082, 237.170 158.614, 236.155 157.154 C 233.332 153.093, 223.561 130.760, 219.462 119 C 217.449 113.225, 215.162 107.487, 214.378 106.250 C 211.991 102.479, 205.180 103.828, 200.500 109 C 195.262 114.788, 188.966 115.374, 179 111 C 168.934 106.582, 166.865 106.871, 160.683 113.559 C 154.966 119.744, 151.002 122.459, 146.453 123.303 C 141.524 124.218, 140.100 122.510, 144.104 120.487 C 145.972 119.543, 148.714 117.637, 150.197 116.250 L 152.894 113.727 150.283 110.305 C 148.847 108.422, 146.419 106.234, 144.886 105.441 C 141.642 103.764, 141.965 103.790, 139.831 105.035 M 154.120 154.399 C 148.673 158.951, 145.111 159.151, 142.685 155.043 C 141.623 153.247, 140.384 152.299, 139.526 152.628 C 138.750 152.926, 136.093 157.069, 133.621 161.835 C 127.835 172.992, 125.241 176.403, 118.944 181.134 C 115.079 184.039, 112.856 185, 110.005 185 L 106.211 185 97.056 199.750 C 79.816 227.524, 63.120 248.640, 38.348 273.998 C 31.096 281.422, 25.238 287.497, 25.331 287.498 C 25.424 287.499, 34.034 287.275, 44.465 287 L 63.430 286.500 69.465 277.571 C 72.784 272.660, 81.067 262.819, 87.870 255.701 C 100.674 242.306, 101.987 240.252, 110.837 219.750 C 112.026 216.997, 113.542 215, 114.444 215 C 115.300 215, 116 215.269, 116 215.598 C 116 216.963, 107.611 239.813, 105.756 243.500 C 104.649 245.700, 97.276 253.835, 89.372 261.577 C 81.467 269.320, 75 276.240, 75 276.956 C 75 277.672, 73.390 280.040, 71.422 282.218 C 69.455 284.396, 68.017 286.351, 68.229 286.562 C 68.440 286.773, 82.737 286.983, 100 287.028 L 131.386 287.110 132.591 284.805 C 133.254 283.537, 134.909 278.450, 136.269 273.500 C 139.182 262.902, 140.583 259.656, 145.919 251.149 C 148.775 246.596, 150.520 242.127, 152.084 235.360 C 154.373 225.453, 156.236 223.578, 156.837 230.577 C 157.533 238.685, 154.984 248.620, 150.241 256.285 C 146.637 262.109, 138 283.597, 138 286.739 C 138 287.158, 163.200 287.500, 194 287.500 C 254.270 287.500, 252.785 287.636, 248.088 282.564 C 247.036 281.429, 243.830 276, 240.963 270.500 C 236.760 262.437, 226.696 247.383, 223.917 245 C 222.368 243.672, 218.092 232.740, 216.681 226.500 C 214.844 218.376, 212.695 199.971, 213.491 199.176 C 214.754 197.913, 216.108 201.265, 219.484 214.004 C 225.110 235.232, 225.967 237.109, 237.062 252.500 C 240.234 256.900, 245.330 265.675, 248.386 272 C 251.443 278.325, 254.576 284.298, 255.349 285.274 C 256.616 286.872, 258.512 287.020, 274.586 286.774 L 292.416 286.500 287.958 281.981 C 284.134 278.105, 274.616 266.507, 262.254 250.661 C 258.158 245.412, 252.548 235.382, 251.621 231.652 C 250.422 226.829, 253.007 228.993, 259.132 237.938 C 262.252 242.495, 268.130 250.111, 272.193 254.862 C 276.256 259.613, 281.138 265.524, 283.040 267.997 C 288.058 274.519, 289.942 276.696, 295.271 282.133 L 300.042 287 313.521 287 C 320.935 287, 327 286.848, 327 286.663 C 327 286.478, 321.694 280.966, 315.209 274.413 C 290.162 249.106, 278.403 234.375, 258.992 203.987 C 249.494 189.118, 248.568 188, 245.758 188 C 239.046 188, 232.939 181.827, 225.970 168 L 221.685 159.500 220.463 164.852 C 218.898 171.702, 216.249 174.432, 211.302 174.292 C 208.365 174.208, 206.858 173.421, 204.310 170.642 C 202.524 168.692, 200.757 165.838, 200.383 164.299 C 200.009 162.759, 198.669 159.137, 197.406 156.250 C 193.698 147.771, 189.899 149.662, 188.452 160.710 C 187.839 165.392, 188.160 167.017, 193.646 187 C 196.552 197.583, 193.853 209.228, 187.580 213.174 C 185.225 214.655, 183.219 215.016, 179.058 214.708 C 174.348 214.358, 173.226 213.847, 170.704 210.902 C 165.466 204.786, 165 202.554, 165 183.581 C 165 164.427, 163.957 157.224, 160.621 153.345 L 158.430 150.799 154.120 154.399 M 128.418 189.649 C 118.598 199.468, 118.610 215, 128.438 215 C 135.395 215, 139.947 208.427, 140.747 197.226 C 141.180 191.162, 140.969 189.623, 139.478 187.976 C 136.654 184.855, 132.598 185.469, 128.418 189.649 M 131.675 194.975 C 128.509 198.737, 126.624 204.366, 127.441 207.620 C 128.321 211.127, 131.103 210.338, 133.156 206 C 134.987 202.132, 136.331 192, 135.013 192 C 134.554 192, 133.051 193.339, 131.675 194.975" stroke="none" fill="black" fill-rule="evenodd"/>
</svg>