<svg xmlns="http://www.w3.org/2000/svg" width="284" height="302" viewBox="0 0 284 302" version="1.1">
	<path d="M 135.580 10.750 C 131.956 14.474, 127.176 23.294, 125.146 30 C 124.563 31.925, 123.346 37.540, 122.440 42.478 C 120.853 51.130, 120.592 51.674, 115.236 57.459 C 107.238 66.097, 103.380 75.525, 101.509 91 C 100.859 96.372, 102.140 105.987, 106.637 129.500 C 108.568 139.596, 108.956 160.074, 107.292 164 L 106.232 166.500 101.995 162.081 C 99.641 159.626, 96.225 154.292, 94.308 150.081 C 92.411 145.911, 90.345 141.375, 89.717 140 C 82.494 124.187, 69.176 112.906, 54.270 109.973 C 48.788 108.895, 47.801 108.320, 45.345 104.777 C 41.006 98.515, 28.416 88.302, 22.089 85.911 C 16.601 83.837, 16.437 83.833, 13 85.651 C 4.872 89.951, 5.100 107.214, 13.536 126.325 C 16.731 133.564, 17.130 135.383, 17.021 142.211 C 16.806 155.684, 20.147 168.054, 26.784 178.362 C 29.469 182.531, 42.003 197.935, 47.238 203.500 C 51.581 208.117, 62.427 224.802, 65.439 231.500 C 66.923 234.800, 69.544 240.650, 71.263 244.500 C 79.916 263.881, 93.077 277.527, 112.525 287.285 C 131.386 296.747, 152.440 297.021, 171.678 288.053 C 190.609 279.228, 205.060 264.646, 214.089 245.258 C 225.548 220.656, 229.460 214.019, 238.441 203.948 C 262.128 177.385, 268.131 165.431, 268.543 144.004 C 268.716 135.032, 269.150 132.552, 271.516 127 C 277.694 112.508, 279.751 96, 276.248 89.011 C 273.950 84.424, 270.430 83.208, 264.816 85.061 C 258.060 87.291, 242.946 100.148, 238.500 107.448 C 237.909 108.418, 234.725 109.667, 230.720 110.499 C 214.958 113.775, 205.126 122.865, 194.650 143.848 C 185.773 161.627, 181.089 167.210, 178.276 163.363 C 175.945 160.176, 176.384 143.728, 179.193 129 C 183.636 105.708, 184.635 88.782, 182.203 78.019 C 180.681 71.285, 176.028 63.338, 169.784 56.813 C 166.502 53.382, 164.893 50.762, 164.490 48.192 C 163.933 44.638, 163.520 42.836, 161.010 33 C 159.168 25.783, 152.251 12.389, 148.916 9.583 C 144.331 5.725, 140.109 6.095, 135.580 10.750 M 139.922 20.153 C 136.090 25.361, 135.120 27.834, 133.120 37.500 C 132.095 42.450, 131.312 46.563, 131.379 46.639 C 131.445 46.716, 134.088 46.303, 137.250 45.722 C 141.288 44.980, 144.712 44.980, 148.750 45.722 C 151.912 46.303, 154.563 46.716, 154.640 46.639 C 154.717 46.563, 153.997 43.517, 153.041 39.871 C 151.294 33.213, 146.457 22.098, 143.806 18.653 C 142.460 16.903, 142.256 16.982, 139.922 20.153 M 133.255 55.908 C 118.963 62.608, 111.989 75.067, 111.922 94.016 C 111.905 98.700, 113.031 109.377, 114.425 117.743 C 118.186 140.326, 119.309 154.188, 117.921 160.923 C 116.481 167.913, 114.646 171.530, 111.496 173.594 C 109.378 174.983, 108.326 175.038, 103.959 173.990 C 99.605 172.946, 98.185 171.933, 93.967 166.864 C 91.186 163.523, 86.615 155.872, 83.445 149.254 C 80.363 142.817, 76.305 135.460, 74.429 132.903 C 67.305 123.199, 53.742 116.933, 44.380 119.022 C 36.018 120.888, 32.302 124.219, 29.023 132.788 C 23.726 146.631, 28.974 168.222, 40.877 181.560 C 42.870 183.793, 45.400 186.718, 46.500 188.060 C 47.601 189.402, 51.167 193.650, 54.426 197.500 C 61.555 205.922, 69.823 218.450, 73.282 226.073 C 81.268 243.671, 86.609 253.554, 90.925 258.719 C 106.469 277.322, 133.569 289.046, 151.925 285.109 C 176.362 279.869, 197.225 262.195, 206.945 238.500 C 213.596 222.286, 223.055 206.835, 233.271 195.497 C 252.978 173.625, 259 161.924, 259 145.510 C 259 132.173, 253.957 122.791, 245.243 119.915 C 240.376 118.309, 231.013 119.334, 225.264 122.102 C 216.123 126.504, 210.922 132.674, 203.071 148.426 C 197.089 160.429, 194.961 163.686, 190.035 168.385 C 184.624 173.546, 183.775 174, 179.526 174 C 175.817 174, 174.422 173.479, 172.462 171.364 C 165.690 164.058, 165.471 147.720, 171.745 118 C 173.689 108.795, 174.396 102.469, 174.428 94 C 174.471 82.658, 174.419 82.394, 170.664 74.797 C 163.989 61.290, 155.830 55.021, 144 54.309 C 138.997 54.007, 136.522 54.376, 133.255 55.908 M 128.548 68.732 C 125.480 72.040, 121.449 80.333, 119.881 86.558 C 117.886 94.481, 120.452 117.075, 123.156 115.403 C 123.620 115.117, 124 109.140, 124 102.122 C 124 90.171, 125.527 80.694, 127.968 77.500 C 130.084 74.731, 133.781 67.114, 133.261 66.594 C 132.165 65.498, 131.097 65.983, 128.548 68.732 M 16.524 96.891 C 15.830 100.052, 18.767 113.888, 21.521 120.426 L 23.174 124.353 25.070 121.358 C 27.016 118.285, 34.970 112, 36.913 112 C 37.511 112, 38 111.602, 38 111.115 C 38 109.634, 25.656 98.650, 21.275 96.233 L 17.166 93.966 16.524 96.891 M 263.065 96.087 C 259.587 97.952, 248 108.802, 248 110.193 C 248 110.609, 249.330 111.637, 250.957 112.478 C 252.583 113.319, 255.952 116.075, 258.444 118.602 L 262.974 123.198 264.014 120.349 C 264.586 118.782, 265.463 116.375, 265.963 115 C 267.444 110.929, 269 102.194, 269 97.951 C 269 93.507, 268.291 93.285, 263.065 96.087 M 229 129.773 C 228.175 130.050, 225.344 131.841, 222.709 133.753 C 215.882 138.708, 209.563 148.469, 203.612 163.250 C 202.204 166.746, 202.223 167, 203.885 167 C 205.123 167, 207.132 164.170, 210.452 157.750 C 215.544 147.905, 224.351 136.904, 229.114 134.441 C 233.056 132.403, 232.959 128.445, 229 129.773 M 35.998 141.505 C 32.365 151.060, 40.021 170.063, 52.816 183.250 C 59.355 189.989, 63.023 189.598, 57.186 182.785 C 53.507 178.491, 44.846 165.358, 43.239 161.638 C 41.535 157.692, 39 146.546, 39 142.997 C 39 139.129, 37.235 138.252, 35.998 141.505 M 90.227 236.250 C 95.105 250.366, 110.067 264.340, 125.787 269.463 C 133.529 271.985, 137.787 269.724, 130.250 267.093 C 117.636 262.689, 105.666 253.403, 97.500 241.684 C 91.171 232.601, 88.199 230.381, 90.227 236.250" stroke="none" fill="black" fill-rule="evenodd"/>
</svg>