<svg xmlns="http://www.w3.org/2000/svg" width="369" height="306" viewBox="0 0 369 306" version="1.1">
	<path d="M 125.500 8.421 C 123.850 9.160, 119.480 12.693, 115.788 16.274 C 104.661 27.067, 96.769 29.314, 83.517 25.462 C 72.235 22.182, 66.642 25.424, 63.009 37.347 C 57.608 55.076, 56.784 56.570, 49.085 62.614 C 42.922 67.450, 42.760 67.418, 37.913 60.374 C 34.663 55.649, 32.068 54.358, 29.061 55.968 C 26.341 57.423, 25.018 60.140, 24.023 66.317 C 23.093 72.089, 24.450 87.376, 26.394 93.017 C 27.523 96.296, 27.443 96.742, 25.457 98.240 C 22.442 100.514, 20 106.071, 20 110.659 C 20 115.197, 23.268 121.800, 30.127 131.122 C 34.302 136.795, 35 138.408, 35 142.372 C 35 144.918, 34.732 147, 34.404 147 C 32.639 147, 28.097 143.305, 25.215 139.524 C 19.293 131.754, 12.220 130.984, 9.241 137.786 C 8.005 140.607, 7.622 144.624, 7.648 154.500 C 7.677 165.896, 7.992 168.330, 10.200 174.226 C 12.599 180.631, 12.651 181.205, 11.291 186.226 C 9.059 194.467, 10.092 205.764, 14.002 215.874 C 16.702 222.854, 18.399 225.467, 24.201 231.575 C 30.245 237.938, 31.742 238.989, 35.582 239.565 C 38.816 240.050, 40.651 239.803, 42.415 238.648 C 44.575 237.232, 45.538 237.219, 51.663 238.517 C 60.615 240.413, 71.456 240.376, 82.901 238.410 C 87.990 237.536, 92.408 237.075, 92.718 237.385 C 93.693 238.360, 90.991 253.164, 88.365 261.230 C 84.898 271.883, 84.800 277.089, 88.002 280.519 C 93.434 286.337, 99.421 288.112, 113.512 288.083 C 121.458 288.067, 125.029 287.587, 129.412 285.947 C 137.373 282.968, 139.820 278.719, 142.211 263.720 L 143.451 255.940 146.475 256.575 C 151.626 257.657, 151.579 256.844, 147.569 275.500 C 146.417 280.861, 146.313 283.436, 147.125 286.500 C 148.509 291.719, 150.064 293.341, 156.321 296.093 C 163.314 299.170, 182.312 299.472, 191.500 296.653 C 197.943 294.676, 205.398 288.246, 206.545 283.678 C 207.076 281.560, 207.955 281.253, 216.314 280.272 C 221.366 279.679, 226.675 278.656, 228.111 277.999 C 231.591 276.408, 233.971 271.116, 234.695 263.360 C 235.192 258.045, 235.594 257, 237.145 257 C 239.482 257, 239.605 261.156, 237.500 269 C 235.080 278.017, 235.482 281.682, 239.310 285.510 C 243.743 289.943, 249.426 291.424, 262 291.424 C 274.191 291.424, 281.791 289.445, 287.421 284.805 C 293.598 279.713, 294.510 277.005, 294.424 264 C 294.383 257.675, 294.028 251.227, 293.635 249.670 C 293.001 247.153, 293.145 246.911, 294.935 247.480 C 296.043 247.831, 302.473 248.145, 309.225 248.177 C 318.894 248.223, 322.880 247.803, 328 246.200 C 340.916 242.157, 347.584 238.372, 355.010 230.872 C 362.584 223.222, 364.847 213.690, 359.977 209.948 C 358.008 208.435, 355.802 208.040, 349.221 208.022 C 341.997 208.003, 340.170 207.610, 334.874 204.936 C 329.617 202.283, 317.050 190.971, 317.012 188.858 C 317.005 188.505, 315.024 184.680, 312.610 180.358 C 310.195 176.036, 307.183 170.025, 305.916 167 C 304.649 163.975, 301.379 157.900, 298.649 153.500 C 282.656 127.725, 262.482 113.789, 232.750 107.981 C 229.573 107.361, 227.021 106.331, 227.048 105.679 C 227.074 105.031, 227.950 102.925, 228.994 101 C 233.953 91.853, 235.219 87.216, 234.378 81.277 C 233.566 75.537, 230.700 72.990, 220.120 68.604 C 215.071 66.512, 209.765 63.499, 207.860 61.643 C 204.207 58.086, 200.987 50.403, 200.995 45.264 C 201.004 39.573, 198.592 32.719, 195.382 29.310 C 192.647 26.406, 191.640 26, 187.181 26 C 184.385 26, 179.506 26.675, 176.339 27.500 C 163.550 30.831, 155.930 28.197, 145.917 16.986 C 137.405 7.455, 132.374 5.344, 125.500 8.421 M 126.364 18.363 L 123.617 20.726 130.387 21.451 C 134.111 21.850, 137.354 21.980, 137.594 21.740 C 138.426 20.908, 132.719 16, 130.919 16 C 129.925 16, 127.875 17.063, 126.364 18.363 M 114.298 29.459 C 109.442 33.418, 103.249 35.750, 95.500 36.537 C 87.487 37.350, 87.176 37.480, 76.775 44.377 C 69.935 48.914, 68.768 50.151, 66.583 55.184 C 63.681 61.867, 58.583 67.817, 52.424 71.708 C 49.993 73.243, 48.003 74.817, 48.002 75.205 C 47.998 76.663, 58.744 86.767, 65 91.189 L 71.500 95.783 79 93.967 C 83.125 92.968, 88.638 91.864, 91.250 91.514 L 96 90.877 96.044 81.189 C 96.090 71.153, 97.319 64.834, 100.310 59.250 C 103.302 53.665, 108.817 55.302, 112.371 62.830 C 117.390 73.462, 117.102 73.417, 119.034 63.874 C 121.519 51.596, 123.927 43.837, 125.038 44.524 C 126.268 45.284, 126.287 54.415, 125.066 58.429 C 124.553 60.118, 123.429 65.080, 122.570 69.456 L 121.007 77.412 123.495 81.172 C 124.864 83.240, 129.850 88.660, 134.576 93.216 C 144.711 102.987, 146.016 105.165, 145.952 112.200 C 145.890 119.040, 143.587 123.585, 138.046 127.803 C 133.742 131.079, 133.337 131.180, 126.046 130.816 C 119.913 130.509, 117.698 129.922, 114.216 127.685 C 109.907 124.916, 104.518 117.536, 102.031 111 C 101.299 109.075, 100.141 106.150, 99.457 104.500 C 98.773 102.850, 97.933 100.655, 97.590 99.623 C 97.033 97.950, 96.288 97.821, 90.733 98.437 C 76.237 100.046, 58.638 110.484, 51.850 121.500 C 48.296 127.267, 46.251 133.448, 45.066 142 C 44.494 146.125, 43.664 150.801, 43.221 152.391 C 42.501 154.970, 42.891 155.732, 46.837 159.460 C 50.696 163.107, 51.321 164.289, 51.750 168.753 C 53.142 183.240, 35.971 195.102, 21.750 189.478 C 20.177 188.856, 20 189.546, 20 196.278 C 20 208.099, 23.887 217.956, 31.819 226.250 C 35.587 230.190, 37 230.859, 37 228.703 C 37 226.745, 43.937 220.494, 48.825 218.047 C 51.204 216.857, 58.404 214.785, 64.825 213.444 C 71.246 212.103, 78.400 210.297, 80.722 209.431 C 85.637 207.597, 90 202.892, 90 199.423 C 90 197.493, 90.518 197, 92.550 197 C 97.428 197, 103 201.231, 103 204.934 C 103 206.409, 98.692 206.275, 97.075 204.750 C 96.013 203.748, 95.653 203.767, 95.259 204.847 C 94.129 207.950, 88.514 213.090, 83.682 215.446 C 80.832 216.835, 73.449 219.085, 67.276 220.447 C 56.674 222.784, 50.791 224.912, 49.600 226.838 C 48.897 227.975, 61.652 231, 67.143 230.999 C 72.329 230.997, 85.522 228.764, 93.086 226.608 C 96.064 225.759, 104.325 224.359, 111.445 223.498 C 118.565 222.636, 126.440 221.430, 128.945 220.818 C 139.050 218.349, 146.874 212.430, 151.972 203.396 C 155.013 198.008, 155.173 196, 152.563 196 C 151.838 196, 150.644 195.276, 149.910 194.392 C 147.901 191.971, 151.406 189.709, 156 190.461 C 164.389 191.834, 172.813 193.263, 176.777 193.988 C 180.500 194.668, 181.194 194.507, 182.139 192.740 C 184.296 188.711, 191.195 182.116, 193.869 181.529 C 196.241 181.008, 196.753 180.207, 197.746 175.474 C 199.123 168.909, 203.575 162.138, 209.403 157.744 C 213.198 154.884, 213.837 153.810, 214.906 148.504 C 215.571 145.202, 216.814 140.025, 217.667 137 C 219.567 130.269, 219.566 129.951, 217.630 122.500 C 215.660 114.915, 215.625 110.858, 217.473 103.766 C 219.082 97.589, 219.126 97.815, 213.196 81.786 C 211.229 76.469, 209.902 74.511, 206.816 72.372 C 201.308 68.555, 197.177 63.554, 194.021 56.880 C 191.172 50.857, 189.401 49.070, 179.457 42.184 C 174.286 38.604, 172.674 38, 168.296 38 C 161.597 38, 152.447 35.091, 146.694 31.133 C 142.290 28.104, 141.539 27.938, 129.793 27.405 C 117.646 26.854, 117.462 26.879, 114.298 29.459 M 75.191 33.770 C 73.976 34.175, 70.546 39.908, 71.176 40.480 C 71.354 40.641, 73.658 39.306, 76.296 37.512 C 80.667 34.539, 80.885 34.211, 78.758 33.805 C 77.475 33.559, 75.870 33.543, 75.191 33.770 M 181 36 C 181 36.550, 181.498 37, 182.106 37 C 182.714 37, 184.964 38.388, 187.106 40.084 C 190.801 43.010, 191 43.058, 191 41.018 C 191 36.804, 189.191 35, 184.965 35 C 182.784 35, 181 35.450, 181 36 M 78.316 56.620 C 77.565 58.575, 80.598 74.794, 82.618 79.629 C 83.839 82.550, 86.651 84.683, 87.786 83.548 C 88.484 82.849, 80.954 56.090, 79.871 55.420 C 79.384 55.119, 78.684 55.659, 78.316 56.620 M 165.551 70.750 C 151.634 87.414, 146 94.464, 146 95.216 C 146 99.753, 159.355 86.989, 168.033 74.156 C 172.292 67.859, 174.243 63, 172.511 63 C 172.243 63, 169.110 66.487, 165.551 70.750 M 104.643 67.489 C 103.561 70.307, 103.929 93.132, 105.117 96.929 C 109.741 111.705, 114.488 120.585, 119.075 123.040 C 122.210 124.718, 129.044 124.546, 132.616 122.699 C 136.767 120.552, 139.400 114.946, 138.503 110.165 C 137.967 107.307, 136.111 104.936, 129.878 99.145 C 125.510 95.087, 120.602 89.828, 118.971 87.459 C 117.341 85.089, 115.247 82.390, 114.319 81.462 C 113.390 80.533, 110.978 76.633, 108.958 72.794 C 106.276 67.697, 105.112 66.266, 104.643 67.489 M 33.296 76.500 C 33.549 82.192, 34.488 87.789, 35.851 91.729 C 37.896 97.637, 46.604 113.010, 47.895 112.991 C 48.228 112.986, 51.124 110.736, 54.331 107.991 C 57.538 105.246, 61.111 102.335, 62.271 101.523 C 63.430 100.711, 64.181 99.883, 63.940 99.684 C 63.698 99.485, 60.350 96.982, 56.500 94.120 C 49.050 88.583, 37.324 76.080, 34.563 70.729 C 32.912 67.529, 32.901 67.581, 33.296 76.500 M 218.034 78.750 C 218.053 79.162, 218.937 81.300, 220 83.500 C 221.063 85.700, 221.947 88.287, 221.966 89.250 C 222.021 92.070, 223.713 91.263, 224.902 87.851 C 226.555 83.110, 226.291 82.148, 222.750 79.989 C 219.292 77.880, 217.979 77.536, 218.034 78.750 M 29.667 106.667 C 28.678 107.656, 28.888 112.279, 30 114 C 30.769 115.190, 30.975 114.983, 30.998 113 C 31.014 111.625, 31.299 109.487, 31.630 108.250 C 32.203 106.114, 31.105 105.229, 29.667 106.667 M 186 111.092 C 179.675 113.804, 171.463 117.006, 167.750 118.208 C 160.361 120.600, 158.743 123, 164.519 123 C 167.781 123, 177.533 119.984, 184.440 116.839 C 192.108 113.347, 201.216 108.284, 201.351 107.440 C 201.692 105.289, 196.839 106.444, 186 111.092 M 36 118.062 C 36 121.277, 36.621 123.947, 37.701 125.379 L 39.402 127.634 41.201 124.106 C 42.190 122.165, 43 120.269, 43 119.891 C 43 118.884, 37.687 113, 36.777 113 C 36.350 113, 36 115.278, 36 118.062 M 226 118.904 C 226 119.951, 228.250 125.214, 231 130.599 C 238.744 145.763, 237.678 150.338, 224.572 158.163 C 214.878 163.951, 209.437 169.175, 207.613 174.445 C 206.841 176.675, 205.747 182.626, 205.181 187.669 C 204.604 192.814, 203.440 197.926, 202.528 199.318 C 199.050 204.626, 192.484 205.384, 174.818 202.519 C 169.693 201.688, 164.825 201.008, 164 201.008 C 163.165 201.008, 161.007 203.895, 159.130 207.524 C 155.312 214.908, 149.754 220.269, 141.294 224.728 C 135.652 227.702, 123.693 231, 118.553 231 C 117.149 231, 116.003 231.338, 116.007 231.750 C 116.024 233.655, 138.409 244.097, 148.337 246.830 L 152.174 247.887 151.923 243.193 C 151.509 235.461, 151.821 234, 153.886 234 C 156.267 234, 158.438 238.506, 160.053 246.800 C 161.193 252.654, 161.020 258.676, 159.400 269.513 C 158.820 273.394, 158.917 273.568, 162.347 274.809 C 164.298 275.514, 166.184 277.004, 166.538 278.119 C 167.127 279.977, 167.326 280.015, 168.919 278.573 C 169.910 277.677, 172.435 277, 174.790 277 C 179.515 277, 182.279 279.287, 184.054 284.663 C 185.263 288.327, 185.741 288.477, 191.294 286.935 C 196.673 285.441, 197.581 282.655, 200.015 260.175 C 202.319 238.890, 203.019 236, 205.868 236 C 208.382 236, 209 237.857, 209 245.409 L 209 251.654 212.250 251.281 C 219.516 250.447, 228.681 248.862, 231.588 247.936 L 234.676 246.952 232.871 241.726 C 230.997 236.303, 230.393 224.505, 231.870 222.176 C 233.325 219.881, 235.735 223.437, 236.502 229.012 C 236.940 232.202, 239.382 238.315, 243.099 245.529 C 248.200 255.430, 249 257.728, 249 262.491 C 249 267.375, 249.232 268, 251.047 268 C 252.252 268, 253.772 269.183, 254.746 270.881 L 256.400 273.762 258.272 271.381 C 261.908 266.758, 268.395 269.531, 271.376 276.981 C 272.260 279.192, 273.510 281, 274.154 281 C 274.798 281, 277.213 279.893, 279.521 278.541 C 285.486 275.045, 286.741 270.263, 284.986 257.721 C 282.623 240.838, 283.269 233.660, 288.964 213.500 C 290.052 209.650, 290.955 205.514, 290.971 204.309 C 291.007 201.582, 292.908 200.278, 294.158 202.122 C 294.672 202.880, 294.959 207.962, 294.796 213.416 L 294.500 223.331 301.331 227.038 C 319.315 236.799, 337.555 235.598, 348.464 223.935 C 353.286 218.780, 354.113 216.896, 351.224 217.652 C 347.844 218.536, 336.481 216.019, 330.453 213.051 C 326.488 211.100, 322.116 207.683, 317.786 203.153 C 309.918 194.922, 307.530 191.279, 299.739 175.629 C 292.060 160.202, 286.994 152.005, 280.651 144.746 C 269.920 132.464, 256.528 124.019, 240.638 119.513 C 229.705 116.413, 226 116.259, 226 118.904 M 247.242 130.002 C 241.316 132.468, 242.628 139.545, 250.002 144.886 C 258.077 150.736, 267 149.542, 267 142.612 C 267 134.905, 254.551 126.959, 247.242 130.002 M 247.552 134.915 C 246.589 136.474, 251.787 141.698, 255.967 143.370 C 262.831 146.117, 265.180 143.456, 260.250 138.519 C 256.192 134.455, 249.084 132.438, 247.552 134.915 M 223.060 139.341 C 222.571 140.629, 221.848 143.828, 221.455 146.449 L 220.741 151.216 223.411 149.466 C 227.512 146.779, 228.280 144.607, 226.574 140.523 C 224.843 136.381, 224.260 136.185, 223.060 139.341 M 16.556 145.715 C 16.250 146.512, 15.998 150.389, 15.996 154.332 C 15.990 164.038, 20.061 177.032, 24.199 180.514 C 31.709 186.833, 45 180.525, 45 170.641 C 45 167.601, 44.362 166.619, 40.551 163.796 C 38.103 161.983, 34.241 159.375, 31.967 158 C 29.694 156.625, 25.421 152.972, 22.473 149.883 C 18.635 145.861, 16.954 144.677, 16.556 145.715 M 96.500 150.298 C 91.452 153.156, 89.490 157.017, 89.537 164 C 89.585 171.048, 92.104 175.388, 97.726 178.109 C 107.911 183.040, 119.020 176.186, 118.974 165 C 118.946 157.972, 116.032 152.678, 110.798 150.144 C 105.164 147.417, 101.519 147.456, 96.500 150.298 M 272.219 150.559 C 267.458 153.894, 271.762 164.302, 278.419 165.551 C 285.657 166.909, 288.873 162.884, 285.353 156.874 C 281.877 150.938, 275.830 148.030, 272.219 150.559 M 164 151.965 C 164 153.673, 167.575 154.923, 178.791 157.136 C 189.915 159.331, 193.403 159.213, 192.428 156.674 C 192.086 155.781, 187.768 154.496, 180.546 153.136 C 168.083 150.789, 164 150.500, 164 151.965 M 274 155.096 C 274 157.252, 278.173 162, 280.068 162 C 282.577 162, 282.523 159.934, 279.927 156.635 C 277.864 154.012, 274 153.008, 274 155.096 M 104.930 156.584 C 103.499 158.309, 104.386 160.579, 107.181 162.342 C 110.994 164.748, 113.735 159.878, 110.429 156.571 C 108.428 154.571, 106.597 154.575, 104.930 156.584 M 254.655 156.829 C 252.206 159.535, 252.637 162.791, 255.872 166.026 C 259.648 169.802, 263.308 170.683, 266.507 168.587 C 270.123 166.218, 269.541 162.564, 264.701 157.250 C 262.165 154.466, 256.990 154.249, 254.655 156.829 M 257.473 160.044 C 256.165 162.160, 262.375 167.025, 264.136 165.264 C 264.698 164.702, 264.237 163.300, 262.956 161.671 C 260.773 158.896, 258.584 158.246, 257.473 160.044 M 191.878 189.286 C 190.436 190.504, 188.733 192.512, 188.093 193.750 C 186.995 195.874, 187.123 196, 190.393 196 C 194.628 196, 197 193.820, 197 189.929 C 197 186.432, 195.483 186.242, 191.878 189.286 M 49.589 194.077 C 46.695 197.516, 46.373 199.235, 48.318 200.849 C 50.047 202.284, 53.455 199.955, 55.547 195.910 C 58.412 190.369, 53.882 188.975, 49.589 194.077 M 292.624 230.273 C 291.210 235.550, 291.792 236.710, 296.443 237.881 C 298.886 238.497, 306.199 238.933, 312.693 238.850 C 319.187 238.768, 323.150 238.512, 321.500 238.282 C 315.922 237.504, 301.526 232.818, 297.361 230.424 L 293.221 228.045 292.624 230.273 M 101.927 239.750 C 101.857 245.247, 100.910 252.304, 99.439 258.280 C 98.866 260.610, 99.333 261.621, 102.322 264.524 C 104.291 266.437, 106.164 267.543, 106.504 266.994 C 106.842 266.447, 108.650 266, 110.523 266 C 113.335 266, 114.370 266.650, 116.464 269.732 C 117.859 271.785, 119 274.458, 119 275.673 C 119 276.888, 119.398 278.128, 119.885 278.429 C 121.024 279.133, 127.083 277.125, 128.886 275.447 C 130.461 273.981, 132.868 261.800, 132.947 254.900 L 133 250.300 126.487 247.532 C 122.905 246.010, 118.184 243.467, 115.996 241.882 C 113.808 240.297, 111.668 239, 111.241 239 C 110.814 239, 108.809 237.875, 106.785 236.500 C 104.762 235.125, 102.857 234, 102.553 234 C 102.249 234, 101.967 236.588, 101.927 239.750 M 214.250 259.715 L 209 260.105 209 264.470 C 209 266.872, 208.727 269.548, 208.393 270.418 C 207.651 272.353, 210.555 272.503, 217.961 270.915 C 223.422 269.744, 224.605 268.441, 225.150 263 C 225.478 259.715, 225.316 259.495, 222.500 259.413 C 220.850 259.365, 217.137 259.501, 214.250 259.715 M 96.544 270.130 C 95.178 273.284, 95.220 273.615, 97.206 275.293 C 98.881 276.708, 99.502 276.814, 100.149 275.793 C 101.479 273.696, 101.118 269.343, 99.502 268.002 C 98.245 266.959, 97.770 267.301, 96.544 270.130 M 108.859 271.667 C 106.532 274.329, 104.973 277.640, 105.702 278.369 C 106.049 278.716, 108.283 279, 110.667 279 C 114.292 279, 115 278.682, 115 277.056 C 115 275.986, 113.979 273.924, 112.730 272.473 C 110.548 269.935, 110.399 269.904, 108.859 271.667 M 247.699 272.747 C 247.467 273.161, 246.985 274.719, 246.629 276.210 C 246.133 278.288, 246.435 279.162, 247.925 279.960 C 248.994 280.532, 250.300 281, 250.827 281 C 252.207 281, 253.146 278.034, 252.455 275.858 C 251.803 273.805, 248.367 271.557, 247.699 272.747 M 260.602 276.250 C 259.808 277.488, 259.010 279.400, 258.829 280.500 C 258.558 282.145, 259.122 282.546, 262 282.761 C 267.045 283.137, 268.337 282.015, 266.976 278.437 C 265.146 273.624, 262.803 272.820, 260.602 276.250 M 158.042 280.922 C 156.484 283.833, 156.775 285.809, 158.934 286.965 C 162.141 288.681, 163 288.168, 163 284.535 C 163 280.171, 159.722 277.782, 158.042 280.922 M 171.174 283.314 C 167.319 287.418, 168.244 289, 174.500 289 C 177.525 289, 180 288.790, 180 288.534 C 180 288.278, 179.242 286.478, 178.315 284.534 C 176.357 280.429, 174.227 280.065, 171.174 283.314" stroke="none" fill="black" fill-rule="evenodd"/>
</svg>