<svg xmlns="http://www.w3.org/2000/svg" width="345" height="308" viewBox="0 0 345 308" version="1.1">
	<path d="M 59 7.034 C 44.642 9.586, 34.936 16.342, 27.922 28.667 C 26.618 30.959, 24.190 33.620, 22.526 34.580 C 12.176 40.554, 7.003 48.302, 6.995 57.842 C 6.988 66.196, 9.645 72.634, 15.584 78.649 C 24.231 87.407, 36.225 91.956, 50.750 91.985 L 58 92 58 94.893 C 58 97.703, 56.281 107.242, 53.565 119.500 C 44.679 159.614, 44.157 183.187, 51.649 206 C 55.675 218.258, 63.045 230.515, 72.655 240.937 C 74.112 242.518, 75.139 245.265, 75.575 248.750 C 76.341 254.886, 75.323 267.528, 73.838 270.302 C 73.290 271.327, 72.768 274.044, 72.679 276.340 C 72.358 284.649, 79.676 290.410, 92.587 292.011 C 97.292 292.594, 99.564 293.445, 101.680 295.416 C 105.781 299.237, 111.104 300.474, 123.500 300.488 C 132.538 300.498, 135.202 300.143, 138.436 298.500 C 144.969 295.180, 147.693 290.757, 149.674 280.250 L 151.418 271 155.966 271 L 160.514 271 160.140 275.705 C 159.421 284.744, 165.044 290.060, 176.960 291.605 C 179.963 291.995, 183.238 293.075, 184.238 294.007 C 190.257 299.614, 212.951 300.798, 222.448 296 C 230.531 291.916, 231.500 289.821, 231.500 276.427 C 231.500 263.589, 231.185 263.999, 239.500 266.019 C 241.700 266.554, 250.937 267, 260.027 267.012 C 273.434 267.028, 278.060 266.647, 284.527 264.993 C 301.736 260.593, 322.752 247.107, 330.432 235.537 C 337.843 224.371, 339.794 216.934, 336.171 213.655 C 333.407 211.154, 331.549 211.562, 320.872 217.017 C 302.762 226.268, 288 227.063, 272.500 219.620 C 262.525 214.830, 255.027 207.436, 240.188 187.756 C 225.333 168.056, 217.681 160.870, 204.452 154.199 C 193.096 148.473, 183.097 146, 171.298 146 C 155.842 146, 146.606 148.525, 122.574 159.321 C 114.008 163.170, 112.596 163.085, 109.622 158.547 C 106.069 153.124, 104.705 144.271, 105.300 130.500 C 105.609 123.350, 106.303 115.250, 106.843 112.500 C 107.382 109.750, 108.559 103, 109.458 97.500 C 110.356 92, 111.521 85.062, 112.046 82.083 C 113.442 74.161, 113.209 57.701, 111.569 48.382 C 108.204 29.267, 97.209 14.987, 81.281 9.049 C 75.478 6.886, 65.110 5.948, 59 7.034 M 53.365 17.921 C 45.688 20.685, 42.285 23.654, 36.418 32.708 C 32.049 39.450, 30.213 41.365, 26.137 43.430 C 18.947 47.074, 16.500 50.984, 16.500 58.827 C 16.500 64.818, 16.692 65.330, 20.113 68.465 C 24.119 72.136, 31.959 74.397, 37.639 73.519 C 39.488 73.234, 42.615 72.747, 44.590 72.438 C 46.857 72.083, 49.757 70.422, 52.461 67.930 C 55.992 64.675, 56.943 64.226, 57.892 65.370 C 59.288 67.052, 58.086 70.728, 55.328 73.212 C 52.163 76.062, 45.860 78.278, 39 78.954 L 32.500 79.593 36.500 80.876 C 42.196 82.703, 58.467 83.412, 65.309 82.133 C 68.504 81.535, 73.378 79.911, 76.141 78.523 C 81.011 76.077, 85 75.260, 85 76.708 C 85 77.097, 83.352 79.103, 81.339 81.165 C 77.778 84.812, 77.683 85.103, 77.900 91.779 C 78.158 99.746, 76.725 114.881, 73.906 133.943 C 69.094 166.478, 72.448 191.954, 84.145 211.729 C 88.992 219.922, 100.774 231.736, 104.523 232.162 C 107.323 232.480, 107.597 232.917, 109.138 239.500 C 113.254 257.082, 113.478 260.490, 111.734 278.988 C 111.529 281.172, 112.062 281.615, 116.104 282.624 C 122.847 284.307, 125.001 285.757, 125.661 289.054 C 126.316 292.328, 127.358 292.572, 133.200 290.822 C 135.701 290.073, 137.606 288.707, 138.431 287.072 C 139.146 285.657, 140.514 277.525, 141.473 269 C 144.113 245.510, 145.204 240.567, 147.829 240.180 C 149.436 239.944, 150 240.377, 150 241.849 C 150 246.752, 150.577 247, 161.967 247 C 167.882 247, 174.794 246.716, 177.328 246.369 C 181.778 245.759, 181.962 245.597, 182.749 241.619 C 183.260 239.034, 184.110 237.500, 185.032 237.500 C 187.169 237.500, 193.917 264.414, 193.964 273.125 C 194 279.735, 194.007 279.751, 197.125 280.375 C 198.844 280.719, 201.294 281, 202.569 281 C 205.640 281, 210.054 284.911, 210.266 287.820 C 210.419 289.908, 210.791 290.078, 213.968 289.518 C 215.911 289.176, 218.625 288.085, 220 287.093 C 222.473 285.309, 222.506 285.090, 223.040 266.895 C 223.559 249.237, 225.666 233.362, 228.092 228.828 C 228.666 227.756, 229.892 227.035, 230.817 227.225 C 232.222 227.513, 232.457 228.657, 232.238 234.157 L 231.976 240.744 236.738 242.774 C 249.563 248.242, 258.176 250.181, 272.025 250.718 C 283.821 251.175, 286.692 250.956, 294.478 249.005 C 306.318 246.039, 314.656 240.667, 321.665 231.487 C 325.623 226.304, 325.534 225.159, 321.343 227.315 C 311.539 232.360, 295.803 234.443, 282.533 232.453 C 276.206 231.504, 266.818 227.686, 260.393 223.450 C 254.210 219.374, 241.636 206.194, 235.281 197.129 C 230.906 190.888, 220.700 177.722, 218.500 175.481 C 215.237 172.157, 203.704 164.453, 197.614 161.528 C 188.070 156.945, 182.588 155.856, 169.243 155.894 C 154.494 155.936, 148.623 157.488, 130.500 166.130 C 122.664 169.867, 120.613 170.427, 114.638 170.461 C 107.819 170.500, 107.752 170.473, 104.050 166.303 C 101.458 163.385, 99.589 159.731, 97.912 154.303 C 94.725 143.991, 94.717 126.981, 97.890 109.500 C 101.844 87.718, 102.131 85.799, 102.949 75.577 C 103.869 64.077, 102.942 50.910, 100.673 43.270 C 98.730 36.727, 92.310 27.206, 87.014 23.011 C 78.206 16.035, 64.402 13.947, 53.365 17.921 M 64.207 31.509 C 60.136 33.278, 56.519 40.535, 57.495 44.976 C 59.197 52.727, 68.663 55.678, 74.923 50.411 C 77.669 48.101, 78 47.233, 78 42.345 C 78 35.587, 76.806 33.235, 72.452 31.415 C 68.372 29.711, 68.345 29.711, 64.207 31.509 M 67.695 37.353 C 66.923 39.364, 70.690 42.710, 72.117 41.283 C 73.778 39.622, 72.715 36.534, 70.367 36.197 C 69.205 36.031, 68.003 36.551, 67.695 37.353 M 20.250 53.662 C 18.492 54.372, 18.688 57, 20.500 57 C 21.333 57, 22 56.111, 22 55 C 22 53.900, 21.887 53.036, 21.750 53.079 C 21.613 53.122, 20.938 53.385, 20.250 53.662 M 70.250 88.292 C 68.641 89.017, 67.985 90.188, 67.947 92.403 C 67.888 95.893, 66.806 101.870, 61.674 127.043 C 54.319 163.115, 54.495 185.553, 62.305 207.976 C 66.140 218.985, 76.514 233.212, 85.900 240.334 C 92.715 245.505, 102.911 251.422, 103.681 250.653 C 103.990 250.344, 103.929 247.161, 103.545 243.580 C 102.910 237.649, 102.561 236.892, 99.621 235.075 C 94.138 231.686, 84.638 220.887, 79.763 212.500 C 69.556 194.941, 65.043 167.358, 68.473 143.500 C 72.408 116.126, 73.063 110.793, 73.571 102 C 73.873 96.775, 73.755 91.325, 73.310 89.889 C 72.606 87.619, 72.207 87.411, 70.250 88.292 M 177.251 161.506 C 172.738 163.446, 171.340 166.822, 173.399 170.805 C 174.536 173.004, 177.089 174.923, 182.302 177.499 C 188.611 180.617, 190.409 181.070, 195.453 180.806 C 200.432 180.545, 201.589 180.106, 203.278 177.837 C 207.119 172.677, 203.304 166.731, 193.937 163.281 C 186.122 160.403, 181.069 159.865, 177.251 161.506 M 148.994 161.885 C 143.297 163.730, 139.788 166.264, 138.431 169.511 C 136.547 174.020, 137.345 175.585, 142.546 177.571 C 149.484 180.220, 160.431 177.800, 162.970 173.055 C 166.825 165.854, 158.148 158.919, 148.994 161.885 M 177.239 166.212 C 175.445 168.374, 180.253 172.507, 187.440 174.979 C 194.445 177.389, 198.304 177.543, 200.016 175.481 C 202.777 172.154, 193.326 166.112, 184.043 165.270 C 179.889 164.893, 178.132 165.137, 177.239 166.212 M 147.021 167.116 C 139.227 170.226, 140.132 174, 148.672 174 C 157.049 174, 162.165 170.565, 158.800 167.200 C 157.372 165.772, 150.512 165.723, 147.021 167.116 M 171.283 182.578 C 167.285 184.616, 166.332 187.331, 168.469 190.594 C 172.458 196.680, 186.066 196.569, 187.605 190.438 C 188.130 188.346, 187.654 187.193, 185.290 184.828 C 181.590 181.128, 175.916 180.217, 171.283 182.578 M 204.367 185.562 C 202.814 187.933, 202.809 188.377, 204.305 191.513 C 206.459 196.030, 210.163 198.291, 215.598 198.406 C 220.481 198.509, 221.959 197.252, 221.985 192.973 C 222.017 187.706, 215.915 183, 209.055 183 C 206.930 183, 205.553 183.752, 204.367 185.562 M 172.441 187.096 C 171.338 188.880, 174.354 191.037, 178.152 191.179 C 183.162 191.368, 184.568 190.285, 182.410 187.901 C 180.504 185.795, 173.590 185.237, 172.441 187.096 M 207.700 188.341 C 206.285 192.027, 216.440 197.334, 218.507 193.989 C 218.851 193.433, 217.787 191.633, 216.143 189.989 C 213.016 186.862, 208.598 186, 207.700 188.341 M 231.630 248.250 C 230.223 253.503, 230.801 254.713, 235.250 255.822 C 244.128 258.034, 257.685 259.244, 266.500 258.612 C 275.687 257.953, 286.530 255.849, 287.796 254.480 C 288.183 254.061, 287.208 254.029, 285.630 254.409 C 278.512 256.119, 263.624 255.065, 251.562 251.996 C 244.996 250.326, 238.290 248.293, 236.658 247.479 C 232.755 245.532, 232.342 245.595, 231.630 248.250 M 85.638 259.246 C 85.275 263.786, 84.693 268.804, 84.344 270.399 C 83.971 272.103, 84.096 273.059, 84.645 272.719 C 85.160 272.401, 87.044 272.850, 88.833 273.716 C 91.350 274.935, 92.349 276.276, 93.250 279.646 C 94.171 283.089, 94.869 284, 96.585 284 C 97.779 284, 99.181 283.438, 99.702 282.750 C 101.180 280.800, 102.792 274.129, 103.525 266.930 L 104.194 260.360 98.347 257.692 C 95.131 256.224, 91.104 254.116, 89.399 253.008 L 86.298 250.992 85.638 259.246 M 150.952 251.461 C 150.926 251.483, 150.693 253.932, 150.434 256.905 L 149.964 262.310 163.232 261.678 C 170.529 261.331, 178.231 260.552, 180.347 259.949 C 183.617 259.017, 184.107 258.525, 183.611 256.676 C 183.290 255.479, 183.021 253.758, 183.014 252.852 C 183.002 251.386, 181.232 251.216, 167 251.314 C 158.200 251.374, 150.978 251.440, 150.952 251.461 M 182.500 268.072 C 181.400 268.505, 179.074 268.891, 177.332 268.930 C 172.809 269.030, 171 269.938, 171 272.107 C 171 273.148, 171.338 273.947, 171.750 273.882 C 176.511 273.130, 181 276.342, 181 280.500 C 181 281.875, 181.433 283, 181.961 283 C 183.366 283, 185.158 275.490, 184.805 271.083 C 184.536 267.737, 184.262 267.379, 182.500 268.072 M 85.406 279.152 C 85.015 279.785, 85.524 280.910, 86.538 281.652 C 89.008 283.458, 90.350 283.355, 89.607 281.418 C 89.273 280.548, 89 279.423, 89 278.918 C 89 277.604, 86.252 277.782, 85.406 279.152 M 170.578 278.874 C 169.983 279.837, 173.597 283, 175.292 283 C 175.758 283, 175.995 281.988, 175.820 280.750 C 175.485 278.391, 171.711 277.041, 170.578 278.874 M 192.025 285.954 C 191.127 287.632, 191.229 288.151, 192.558 288.661 C 194.223 289.300, 196.223 287.309, 195.671 285.563 C 195.085 283.708, 193.113 283.919, 192.025 285.954 M 200.122 287.176 C 199.347 289.250, 199.573 289.534, 202.223 289.821 C 205.850 290.212, 206.769 289.444, 205.357 287.202 C 203.694 284.560, 201.104 284.547, 200.122 287.176 M 109.323 287.601 C 108.985 288.483, 109.336 289.589, 110.104 290.064 C 111.380 290.853, 112.689 289.317, 112.930 286.750 C 113.067 285.286, 109.927 286.026, 109.323 287.601 M 117.607 288.582 C 116.555 291.324, 116.929 292, 119.500 292 C 122.298 292, 122.443 291.696, 120.965 288.934 C 119.709 286.589, 118.424 286.454, 117.607 288.582" stroke="none" fill="black" fill-rule="evenodd"/>
</svg>