<svg xmlns="http://www.w3.org/2000/svg" width="377" height="271" viewBox="0 0 377 271" version="1.1">
	<path d="M 323.365 8.376 C 317.278 10.356, 311.620 15.396, 308.632 21.498 C 307.185 24.455, 306 27.355, 306 27.944 C 306 28.532, 304.827 30.023, 303.393 31.257 C 301.959 32.490, 299.488 35.750, 297.902 38.500 C 295.449 42.754, 295.017 44.588, 295.009 50.790 C 295.003 55.991, 295.544 59.146, 296.898 61.801 C 299.702 67.297, 307.851 75.091, 314.318 78.461 C 320.112 81.481, 320.404 81.893, 319.397 85.646 C 318.930 87.386, 317.792 87.920, 313.378 88.472 C 309.843 88.914, 306.982 89.973, 305.217 91.494 C 302.693 93.670, 302.504 94.374, 302.562 101.418 C 302.620 108.599, 301.916 110.830, 300.641 107.506 C 299.727 105.126, 293.801 102.008, 290.184 102.004 C 285.738 101.999, 283.606 103.284, 280.963 107.561 C 278.195 112.038, 276.943 111.046, 275.928 103.569 C 275.096 97.437, 272.027 92.341, 268.317 90.931 C 265.161 89.730, 258.819 89.738, 255.643 90.946 C 252.298 92.217, 251.181 90.706, 249.490 82.621 C 247.801 74.551, 245.802 71.420, 241.415 69.972 C 237.376 68.639, 233.516 69.306, 225.945 72.647 C 219.436 75.519, 216.251 74.904, 214.107 70.362 C 209.287 60.148, 207.167 57.540, 202.412 55.971 C 197.414 54.322, 191.984 56.418, 185.086 62.660 C 177.157 69.835, 173.982 69.937, 165.057 63.304 C 159.634 59.274, 157.936 58.551, 153.084 58.200 C 147.652 57.807, 147.290 57.936, 143.813 61.516 C 141.823 63.564, 139.430 67.099, 138.496 69.370 C 135.736 76.076, 135.487 76.415, 131.868 78.400 L 128.404 80.299 121.782 77.650 C 118.139 76.192, 114.019 75, 112.626 75 C 105.867 75, 101.999 79.570, 99.448 90.567 C 98.566 94.371, 97.421 97.993, 96.903 98.616 C 96.335 99.301, 94.211 99.553, 91.541 99.252 C 89.109 98.978, 85.929 99.052, 84.474 99.417 C 80.888 100.317, 77.003 104.715, 76.985 107.896 C 76.960 112.025, 75.956 112.707, 68.119 113.918 C 61.785 114.897, 60.438 114.838, 58.619 113.501 C 57.454 112.644, 54.700 110.621, 52.500 109.005 C 47.973 105.679, 41.851 105.015, 38.347 107.470 C 35.475 109.481, 32.427 116.309, 30.945 124.047 C 29.212 133.100, 27.767 135.438, 21.233 139.760 C 14.164 144.436, 12.113 148.261, 12.048 156.890 C 12.017 160.991, 11.064 166.102, 9.388 171.155 C 5.036 184.277, 6.679 194.667, 14.693 204.697 C 17.644 208.390, 19.096 209.210, 26.774 211.526 C 31.573 212.974, 36.850 214.632, 38.500 215.210 C 40.150 215.789, 49.880 216.481, 60.122 216.749 L 78.745 217.235 74.516 225.868 C 68.870 237.392, 68.659 238.248, 70.422 242.468 C 71.535 245.132, 73.059 246.580, 76.216 247.973 C 86.272 252.409, 103.620 253.115, 110.204 249.356 C 113.718 247.350, 120.036 236.430, 123.598 226.209 C 125.089 221.932, 125.830 220.974, 127.471 221.209 C 130.539 221.649, 129.650 227.554, 124.940 238.013 C 116.432 256.909, 121.903 263.513, 146 263.436 C 158.011 263.398, 162.057 262.256, 167.578 257.348 C 170.167 255.046, 174.090 246.546, 176.507 238 C 178.973 229.283, 180.202 228, 186.083 228 L 190.855 228 190.283 233.546 C 189.576 240.398, 190.820 242.967, 196.351 246.081 C 199.983 248.126, 201.870 248.422, 211.500 248.458 C 220.561 248.493, 223.203 248.147, 226.487 246.500 C 231.639 243.916, 234.400 239.658, 236.012 231.814 L 237.310 225.500 238.331 228.858 C 239.138 231.515, 238.974 233.185, 237.544 236.858 C 234.675 244.226, 234.625 246.163, 237.206 249.985 C 241.372 256.154, 245.998 257.965, 257.645 257.984 C 274.017 258.010, 282.643 254.448, 286.880 245.911 C 287.803 244.053, 288.043 239.680, 287.732 230.411 C 287.354 219.155, 286.564 213.813, 283.511 201.856 C 282.882 199.392, 283.549 198.727, 293.314 192.080 C 317.763 175.438, 334.861 153.291, 342.787 128 C 347.478 113.027, 348.132 109.379, 348.729 94.848 L 349.289 81.195 356.514 74.652 C 373.948 58.862, 375.681 39.215, 360.621 28.089 C 357.546 25.818, 354.390 22.722, 353.608 21.209 C 351.828 17.767, 347.559 13.426, 343 10.424 C 338.531 7.480, 329.131 6.500, 323.365 8.376 M 326.594 17.031 C 321.926 18.444, 317.152 23.841, 315.260 29.845 C 314.028 33.753, 312.512 36.102, 309.830 38.257 C 299.107 46.874, 304.047 62.861, 319.937 70.968 L 323.964 73.022 325.376 69.642 C 326.153 67.783, 327.792 65.559, 329.018 64.700 C 334.010 61.203, 328.490 45.938, 320.432 40.958 C 317.011 38.844, 315.805 36, 318.329 36 C 320.841 36, 328.924 42.141, 331.148 45.739 L 333.375 49.342 334.437 46.374 C 336.177 41.516, 339.958 36.148, 342.125 35.460 C 345.117 34.511, 345.617 35.705, 343.296 38.254 C 340.612 41.200, 339.160 44.099, 337.403 50.014 C 335.567 56.197, 336.544 60.728, 341.237 67.789 L 344.753 73.079 350.537 67.792 C 357.558 61.375, 360.976 54.669, 360.990 47.285 C 360.998 42.906, 360.518 41.521, 357.993 38.645 C 356.132 36.526, 353.681 34.975, 351.563 34.578 C 348.544 34.012, 347.950 33.365, 346.537 29.111 C 343.605 20.284, 334.356 14.681, 326.594 17.031 M 193.709 67.305 L 189.917 69.601 194.709 70.729 C 197.344 71.349, 200.756 72.127, 202.291 72.458 L 205.082 73.059 203.401 69.779 C 200.591 64.295, 199.248 63.952, 193.709 67.305 M 149.107 69.531 C 147.398 71.477, 146 73.422, 146 73.853 C 146 74.624, 158.477 71.856, 159.468 70.865 C 159.749 70.585, 158.231 69.374, 156.096 68.174 L 152.214 65.992 149.107 69.531 M 332.983 70.544 C 332.451 71.943, 331.742 74.306, 331.407 75.794 C 331.072 77.282, 329.450 82.885, 327.802 88.245 C 322.951 104.026, 315.245 113.812, 303.420 119.206 C 299.407 121.037, 296.693 121.456, 288.699 121.476 C 279.547 121.498, 278.931 121.627, 279.397 123.412 C 281.128 130.031, 269.939 132.677, 259 128.237 C 256.140 127.075, 251 122.544, 251 121.183 C 251 119.280, 255.340 114.867, 259.095 112.952 C 261.243 111.856, 263 110.793, 263 110.590 C 263 109.905, 243.552 97.282, 236.623 93.469 L 229.746 89.686 228.066 91.912 C 225.748 94.985, 219.560 95.679, 213.228 93.576 C 206.636 91.386, 204.577 89.068, 205.388 84.747 L 206.013 81.415 195.756 79.796 C 190.115 78.906, 185.379 78.296, 185.232 78.440 C 185.085 78.584, 185.598 79.923, 186.372 81.415 C 189.267 86.997, 186.307 90.108, 176.250 92.052 C 167.973 93.652, 161.107 92.850, 158.811 90.015 C 157.197 88.022, 157.173 87.522, 158.535 84.262 C 159.355 82.299, 159.826 80.493, 159.581 80.248 C 159.336 80.003, 154.647 81.197, 149.162 82.901 C 143.676 84.606, 138.470 86, 137.594 86 C 136.717 86, 136 86.450, 136 87 C 136 87.550, 136.520 88, 137.156 88 C 137.791 88, 139.816 89.148, 141.656 90.551 C 148.383 95.682, 144.878 102.920, 133 108.430 C 126.939 111.241, 121.365 111.718, 118.559 109.667 C 117.047 108.561, 116.810 107.305, 117.171 102.317 L 117.606 96.300 111.922 99.900 C 105.733 103.819, 93 114.688, 93 116.051 C 93 116.517, 95.495 117.684, 98.545 118.646 C 103.423 120.183, 104.778 120.237, 109.795 119.093 C 112.933 118.378, 117.975 117.570, 121 117.298 C 125.655 116.881, 126.942 117.153, 129.373 119.072 C 132.111 121.232, 132.223 121.634, 131.746 127.573 C 131.419 131.655, 130.123 136.243, 127.994 140.862 C 125.026 147.301, 124.835 148.293, 125.804 152.209 C 126.388 154.569, 127.173 159.708, 127.550 163.630 L 128.235 170.759 136.367 172.900 C 168.967 181.482, 203.470 182.648, 230.162 176.068 C 253.388 170.343, 279.411 161.197, 296.500 152.754 C 315.025 143.601, 331.163 123.579, 336.602 103 C 338.880 94.378, 338.935 76.992, 336.701 71.750 C 334.813 67.322, 334.275 67.148, 332.983 70.544 M 168.217 78.561 C 165.575 80.411, 162.667 85.652, 163.518 87.029 C 164.749 89.021, 180.118 87.237, 181.539 84.937 C 181.817 84.487, 180.638 82.518, 178.918 80.560 C 175.447 76.606, 171.942 75.952, 168.217 78.561 M 233.725 79.449 L 230.950 80.621 235.539 82.913 C 240.542 85.411, 241.530 85.245, 240.524 82.074 C 239.571 79.072, 236.985 78.074, 233.725 79.449 M 211.261 84.954 C 209.832 87.242, 209.939 87.328, 216.600 89.296 C 225.111 91.811, 226.483 87.773, 218.282 84.345 C 213.957 82.537, 212.702 82.646, 211.261 84.954 M 111.600 85.543 C 110.129 87.014, 108.517 90.903, 109.159 91.431 C 109.346 91.586, 111.399 90.493, 113.719 89.002 L 117.938 86.293 115.504 85.184 C 113.586 84.310, 112.756 84.386, 111.600 85.543 M 126.362 92.164 C 125.165 93.722, 123.408 98.369, 122.588 102.146 C 121.773 105.901, 123.687 106.228, 130.433 103.486 C 135.986 101.229, 140 98.484, 140 96.944 C 140 95.839, 133.105 91.971, 130.043 91.359 C 128.443 91.039, 126.980 91.359, 126.362 92.164 M 188.361 95.989 C 184.936 97.373, 178.130 104.825, 175.979 109.545 C 171.711 118.914, 174.317 122.060, 186.953 122.791 C 198.877 123.481, 207 119.886, 207 113.917 C 207 107.683, 198.880 96, 194.547 96 C 193.786 96, 192.564 95.803, 191.832 95.563 C 191.099 95.322, 189.538 95.514, 188.361 95.989 M 311.667 97.667 C 310.709 98.624, 310.844 102, 311.839 102 C 312.301 102, 313.192 100.875, 313.818 99.500 C 314.718 97.525, 314.682 97, 313.645 97 C 312.924 97, 312.033 97.300, 311.667 97.667 M 225.011 101.900 C 219.755 105.849, 215 111.735, 215 114.292 C 215 119.985, 236.942 125.777, 244.066 121.965 C 247.912 119.906, 245.518 106.238, 240.370 100.864 C 236.292 96.608, 231.636 96.922, 225.011 101.900 M 263.985 100.954 C 265.352 102.004, 266.653 102.680, 266.878 102.456 C 267.660 101.673, 264.741 99, 263.128 99.022 C 261.914 99.039, 262.133 99.531, 263.985 100.954 M 185.175 105.730 C 180.514 110.391, 178.226 115.404, 180.202 116.625 C 182.251 117.891, 192.756 118.153, 196.869 117.041 C 201.176 115.876, 201.230 115.807, 200.654 112.256 C 199.951 107.924, 195.122 101.623, 192.167 101.183 C 190.706 100.965, 188.514 102.390, 185.175 105.730 M 228.083 106.549 C 223.507 109.165, 221.087 111.623, 221.032 113.711 C 220.990 115.320, 230.225 118, 235.812 118 L 240.260 118 239.755 113.514 C 239.163 108.267, 236.678 103.995, 234.227 104.012 C 233.277 104.019, 230.513 105.160, 228.083 106.549 M 85.583 109.643 C 84.639 112.106, 85.454 112.261, 87.494 110.006 C 89.029 108.310, 89.070 108, 87.762 108 C 86.911 108, 85.930 108.739, 85.583 109.643 M 145.750 112.250 C 142.061 116.178, 138.023 124.495, 138.010 128.193 C 137.995 132.268, 141.285 134.004, 148.973 133.978 C 158.427 133.946, 168 129.302, 168 124.746 C 168 121.801, 165.298 116.716, 161.571 112.647 C 158.633 109.439, 157.663 109, 153.516 109 C 149.491 109, 148.357 109.475, 145.750 112.250 M 289 112 C 287.835 112.753, 288.128 112.973, 290.309 112.985 C 291.930 112.994, 292.857 112.577, 292.500 112 C 291.733 110.758, 290.921 110.758, 289 112 M 149.209 116.430 C 145.498 119.783, 142.456 126.311, 143.681 128.293 C 145.051 130.509, 163 126.707, 163 124.201 C 163 122.640, 157.152 115.152, 155.058 114.031 C 153.379 113.132, 152.428 113.522, 149.209 116.430 M 42.030 118.941 C 38.672 125.523, 39.316 126.228, 45.433 122.665 C 50.293 119.834, 50.688 119.360, 49.183 118.177 C 44.779 114.714, 44.152 114.781, 42.030 118.941 M 262.163 118.012 C 259.687 119.136, 258.005 120.516, 258.243 121.230 C 259.211 124.133, 274 126.361, 274 123.604 C 274 122.514, 267.669 115.925, 266.715 116.022 C 266.597 116.034, 264.548 116.930, 262.163 118.012 M 59.500 124.928 C 41.707 131.270, 36.579 136.692, 24.197 162.250 C 23.997 162.662, 24.979 163, 26.379 163 C 31.297 163, 39.486 166.899, 43.684 171.240 C 45.950 173.583, 50.359 179.284, 53.483 183.908 C 59.987 193.537, 60.159 195.719, 54.977 202.873 C 53.340 205.133, 52 207.275, 52 207.633 C 52 207.991, 57.962 208.036, 65.250 207.734 C 79.906 207.127, 87.714 205.206, 96.761 199.984 L 102.021 196.948 99.761 193.889 C 92.427 183.968, 104.971 165.850, 117.514 168.247 C 120.417 168.802, 120.669 167.218, 118.951 159.207 L 117.902 154.315 113.592 154.250 C 109.001 154.181, 102.556 151.413, 99.867 148.356 C 98.968 147.335, 97.231 144.508, 96.006 142.074 C 93.917 137.921, 93.657 133.755, 95.131 128.081 C 96.285 123.643, 69.705 121.291, 59.500 124.928 M 296.312 124.578 C 293.999 125.747, 292.702 127.427, 291.588 130.696 C 290.204 134.758, 290.206 135.498, 291.611 138.215 C 293.130 141.152, 293.322 141.217, 299.239 140.789 C 304.484 140.410, 305.627 139.952, 307.650 137.425 C 310.923 133.334, 310.851 127.787, 307.496 125.589 C 303.740 123.128, 299.870 122.778, 296.312 124.578 M 116.500 124.680 C 108.622 126.443, 102.188 129.281, 100.989 131.520 C 98.044 137.024, 104.129 146.183, 111.671 147.598 C 114.744 148.175, 115.554 147.919, 117.094 145.888 C 120.382 141.552, 124.293 132.581, 124.780 128.256 L 125.260 124 121.880 124.116 C 120.021 124.180, 117.600 124.433, 116.500 124.680 M 297.086 131.618 C 294.736 134.605, 295.134 136, 298.337 136 C 303.055 136, 307.034 130.994, 303.418 129.607 C 300.575 128.516, 299.177 128.960, 297.086 131.618 M 327.025 135.078 C 318.240 147.142, 301.102 159.679, 287.500 163.992 C 285.300 164.690, 283.016 165.642, 282.424 166.108 C 281.231 167.048, 263.932 173.023, 248.500 177.825 C 219.700 186.787, 199.821 188.737, 170 185.524 C 156.853 184.108, 135.894 180.664, 132.501 179.362 C 131.043 178.803, 131.106 179.287, 132.961 182.924 C 135.893 188.671, 135.444 194.598, 131.876 197.251 C 129.804 198.792, 127.020 199.317, 118.652 199.744 C 110.431 200.163, 107.707 200.666, 106.514 201.985 C 105.102 203.545, 105.287 203.826, 108.749 205.387 C 110.825 206.323, 116.710 208.154, 121.827 209.456 C 131.622 211.948, 131.609 211.951, 132.201 207 C 132.430 205.081, 133.080 204.500, 134.996 204.500 C 137.016 204.500, 137.748 205.262, 138.838 208.500 C 140.794 214.312, 139.787 227.788, 136.735 236.640 L 134.273 243.779 140.316 244.216 C 146.748 244.682, 148.250 245.839, 150.500 252.063 C 151.482 254.780, 151.569 254.806, 155.316 253.510 C 157.415 252.784, 159.983 251.421, 161.022 250.480 C 163.811 247.956, 174 215.954, 174 209.718 C 174 206.944, 175.730 205, 178.200 205 C 179.624 205, 180 205.810, 180 208.875 C 180 211.006, 180.281 214.153, 180.623 215.867 L 181.247 218.984 191.373 218.499 C 204.153 217.888, 214.728 216.457, 223.019 214.217 L 229.500 212.467 229.033 208.983 C 228.777 207.068, 228.552 203.025, 228.533 200 C 228.504 195.181, 228.757 194.463, 230.578 194.203 C 232.226 193.967, 232.897 194.714, 233.828 197.819 C 234.472 199.971, 235 202.358, 235 203.124 C 235 205.141, 239.577 213.428, 243.606 218.707 C 248.382 224.964, 250.251 229.752, 249.673 234.250 C 249.407 236.313, 249.485 238.066, 249.845 238.146 C 250.205 238.226, 252.866 238.384, 255.758 238.498 C 261.577 238.726, 264.069 240.337, 266.068 245.165 C 267.174 247.835, 267.673 248.115, 270.358 247.578 C 275.800 246.490, 277.755 244.452, 279.093 238.476 C 280.204 233.509, 280.085 231.612, 278.009 221.198 C 274.811 205.165, 274.354 193.436, 276.629 185.840 C 278.712 178.887, 280.258 177.139, 282.604 179.086 C 283.744 180.033, 284.065 181.480, 283.714 184.099 L 283.220 187.781 288.285 184.640 C 295.066 180.436, 307.882 168.278, 315.584 158.743 C 321.561 151.343, 332.479 131.938, 331.805 129.914 C 331.629 129.386, 329.478 131.710, 327.025 135.078 M 234.422 138.385 C 230.490 140.140, 225.388 146.308, 224.597 150.264 C 223.414 156.180, 229.404 161, 237.939 161 C 242.349 161, 251.716 157.273, 253.875 154.659 C 260.119 147.099, 244.387 133.937, 234.422 138.385 M 269.500 138.218 C 265.901 140.300, 261.097 147.154, 261.035 150.295 C 261.016 151.283, 262.105 153.195, 263.455 154.545 C 267.817 158.908, 280.048 157.662, 286.250 152.224 C 289.018 149.798, 288.415 145.792, 284.750 142.258 C 279.620 137.310, 273.756 135.756, 269.500 138.218 M 191.430 141.892 C 188.764 143.103, 186.263 145.397, 184.180 148.542 C 179.328 155.867, 179.899 159.888, 186.251 163.128 C 192.573 166.353, 199.595 166.660, 205.818 163.983 C 218.585 158.491, 217.738 148.290, 204 142.079 C 198.454 139.571, 196.602 139.544, 191.430 141.892 M 235.828 143.012 C 233.719 144.273, 230 150.219, 230 152.329 C 230 156.042, 241.270 156.575, 247.250 153.146 C 250.919 151.042, 250.722 149.740, 246.191 146.151 C 241.796 142.670, 238.214 141.585, 235.828 143.012 M 269.849 144.997 C 265.355 149.491, 266.321 151.552, 272.793 151.282 C 275.665 151.161, 278.995 150.538, 280.193 149.897 C 282.346 148.744, 282.328 148.689, 278.701 145.365 C 276.682 143.514, 274.538 142, 273.938 142 C 273.337 142, 271.498 143.349, 269.849 144.997 M 150.433 146.891 C 145.911 148.945, 140 156.142, 140 159.593 C 140 162.380, 145.836 167.585, 149.982 168.496 C 151.703 168.874, 155.876 168.863, 159.254 168.471 C 166.639 167.613, 171 164.127, 171 159.080 C 171 153.967, 161.579 144.958, 156.300 145.022 C 155.310 145.034, 152.670 145.875, 150.433 146.891 M 193.238 147.002 C 189.604 149.211, 185.900 154.577, 186.653 156.539 C 187.861 159.686, 198.494 161.312, 204 159.192 C 205.375 158.663, 207.362 157.273, 208.414 156.104 C 210.307 154.003, 210.302 153.950, 207.914 151.395 C 202.901 146.028, 197.498 144.411, 193.238 147.002 M 22.081 149.849 C 21.486 150.960, 21.018 152.461, 21.040 153.184 C 21.062 153.908, 21.772 153.223, 22.618 151.662 C 23.464 150.100, 23.933 148.599, 23.659 148.326 C 23.386 148.052, 22.676 148.738, 22.081 149.849 M 149.858 153.450 C 141.840 158.899, 144.279 162.500, 155.986 162.500 C 160.339 162.500, 164.378 162.022, 164.963 161.437 C 166.643 159.757, 164.364 154.646, 161.067 152.699 C 157.117 150.365, 154.100 150.568, 149.858 153.450 M 67.743 155.084 C 65.419 156.437, 62 163.249, 62 166.526 C 62 169.553, 63.410 172.578, 66.299 175.750 C 67.894 177.501, 69.440 178, 73.270 178 C 84.699 178, 89.666 166.806, 82.441 157.334 C 80.126 154.299, 79.432 154.003, 74.699 154.030 C 71.840 154.047, 68.709 154.521, 67.743 155.084 M 73.357 160.513 C 72.694 162.240, 74.627 165, 76.500 165 C 77.190 165, 78.315 164.325, 79 163.500 C 79.993 162.303, 79.993 161.697, 79 160.500 C 77.391 158.562, 74.103 158.569, 73.357 160.513 M 19.020 172.960 C 15.264 180.322, 17.100 195.518, 22.262 199.803 C 23.536 200.860, 24.421 200.654, 27.457 198.594 C 30.975 196.206, 41.971 193.171, 48.748 192.718 C 50.534 192.598, 51.997 192.224, 51.998 191.888 C 51.999 191.551, 50.606 189.526, 48.903 187.388 C 47.199 185.249, 45.121 182.150, 44.286 180.500 C 40.584 173.192, 33.940 169, 26.060 169 C 21.219 169, 20.969 169.141, 19.020 172.960 M 107.607 177.888 C 105.889 179.681, 104.636 182.298, 104.302 184.788 C 103.841 188.223, 104.104 189.021, 106.132 190.349 C 109.277 192.408, 115.902 193.393, 121.204 192.591 C 128.545 191.481, 128.742 190.983, 124.554 184.089 C 118.916 174.807, 112.728 172.543, 107.607 177.888 M 31.059 177.941 C 29.183 179.817, 29.168 183, 31.036 183 C 32.350 183, 35 179.984, 35 178.488 C 35 176.110, 33.147 175.853, 31.059 177.941 M 42.500 200.129 C 32.432 202.801, 32.041 203.014, 35 204.213 C 41.610 206.891, 43.957 206.907, 47.061 204.295 C 48.702 202.914, 50.501 200.933, 51.058 199.892 C 52.284 197.600, 51.996 197.608, 42.500 200.129 M 92.898 212.113 C 91.034 212.797, 89.939 214.263, 89.035 217.284 C 88.342 219.603, 86.700 223.623, 85.387 226.217 C 84.074 228.811, 83.001 231.061, 83.003 231.217 C 83.005 231.373, 85.029 231.512, 87.502 231.526 C 92.814 231.558, 95.835 234, 96.908 239.129 C 97.563 242.263, 97.856 242.476, 101.057 242.157 C 105.409 241.724, 106.605 240.714, 109.479 235.041 C 111.351 231.347, 116 218.724, 116 217.335 C 116 217.151, 115.387 217, 114.638 217 C 113.888 217, 110.001 215.650, 106 214 C 98.242 210.801, 96.971 210.618, 92.898 212.113 M 213.172 224.375 C 201.064 226.646, 200.668 226.907, 199.699 233.249 C 198.975 237.989, 200.159 238.697, 210.077 239.446 C 220.114 240.205, 223.768 238.805, 225.593 233.500 C 227.353 228.388, 227.441 221.956, 225.750 222.125 C 225.063 222.194, 219.402 223.207, 213.172 224.375 M 79.032 236.939 C 78.299 238.309, 78.322 239.081, 79.109 239.567 C 80.285 240.294, 81.959 238.363, 81.985 236.250 C 82.008 234.339, 80.198 234.762, 79.032 236.939 M 86.362 237.500 C 85.404 239.995, 86.789 242, 89.469 242 C 92.020 242, 92.588 240.695, 91.393 237.582 C 90.623 235.575, 87.122 235.518, 86.362 237.500 M 245.685 244.378 C 245.154 245.763, 246.707 248, 248.200 248 C 248.640 248, 249 246.875, 249 245.500 C 249 242.824, 246.594 242.010, 245.685 244.378 M 254.607 244.582 C 253.251 248.117, 253.929 249, 258 249 C 262.414 249, 262.738 248.499, 260.443 245.223 C 258.635 242.640, 255.485 242.294, 254.607 244.582 M 130.473 249.044 C 130.118 249.618, 130.389 250.764, 131.076 251.591 C 132.076 252.797, 132.487 252.838, 133.146 251.797 C 133.599 251.084, 133.976 249.938, 133.985 249.250 C 134.003 247.737, 131.376 247.583, 130.473 249.044 M 138.943 250.107 C 137.596 252.624, 138.412 253.560, 142.750 254.474 C 146.468 255.258, 147.013 253.891, 144.443 250.223 C 142.486 247.428, 140.400 247.384, 138.943 250.107" stroke="none" fill="black" fill-rule="evenodd"/>
</svg>