<svg xmlns="http://www.w3.org/2000/svg" width="202" height="166" viewBox="0 0 202 166" version="1.1">
	<path d="M 78.500 4.484 C 55.967 8.679, 41.857 18.497, 33.926 35.500 C 30.360 43.146, 25 61.792, 25 66.553 C 25 68.168, 23.730 69.554, 20.534 71.427 C 18.078 72.867, 14.885 75.596, 13.439 77.492 C 10.180 81.764, 7 91.709, 7 97.630 C 7 100.643, 6.292 103.039, 4.808 105.046 C 0.487 110.890, 2.545 121.469, 8.534 124.197 C 9.869 124.806, 11.147 126.023, 11.374 126.902 C 11.601 127.781, 12.360 130.698, 13.061 133.384 C 15.495 142.713, 23.508 147.440, 33.661 145.536 C 37.872 144.746, 44 140.462, 44 138.308 C 44 137.461, 44.731 136.994, 45.750 137.190 C 47.039 137.438, 47.665 138.877, 48.127 142.653 C 48.878 148.783, 53.409 157.541, 57.323 160.422 C 59.527 162.045, 61.936 162.566, 68.323 162.800 C 77.715 163.144, 82.192 161.496, 85.440 156.500 L 87.391 153.500 104.445 153.500 C 113.825 153.500, 126.520 152.882, 132.656 152.127 L 143.812 150.755 147.770 153.936 C 152.092 157.409, 159.560 158.868, 166.423 157.580 C 171.185 156.687, 176.386 152.005, 178.622 146.599 C 179.936 143.423, 181.257 141.947, 183.519 141.129 C 188.806 139.218, 192.220 134.763, 192.768 129.063 C 193.115 125.451, 192.793 123.333, 191.626 121.551 C 190.646 120.057, 189.997 116.969, 189.992 113.785 C 189.982 106.289, 188.198 96.236, 185.995 91.255 C 184.959 88.914, 181.885 84.636, 179.164 81.749 L 174.217 76.500 178.637 71.500 C 181.068 68.750, 183.998 64.420, 185.149 61.878 C 186.597 58.678, 188.270 56.765, 190.583 55.662 C 194.068 54, 197.204 49.058, 198.457 43.253 C 200.826 32.278, 187.659 23.105, 180.509 30.750 C 179.095 32.262, 177.698 34.430, 177.406 35.568 C 176.989 37.190, 176.262 37.545, 174.026 37.217 C 168.636 36.426, 167.686 43.334, 172.170 50.718 C 173.997 53.727, 174.021 54.153, 172.545 57.264 C 171.064 60.384, 165.690 67, 164.636 67 C 164.374 67, 163.845 65.538, 163.462 63.750 C 163.079 61.963, 161.228 55.181, 159.349 48.681 C 152.741 25.822, 146.521 16.803, 132.688 10.021 C 128.185 7.813, 121.208 5.330, 117.185 4.503 C 108.273 2.672, 88.285 2.662, 78.500 4.484 M 76.583 8.012 C 59.304 11.846, 45.064 21.009, 38.740 32.363 C 34.531 39.922, 30.033 54.400, 28.543 65.194 C 27.967 69.363, 27.353 70.277, 23.062 73.360 C 20.405 75.269, 17.073 78.349, 15.658 80.204 C 12.321 84.579, 9.867 93.929, 10.070 101.500 C 10.278 109.276, 10.241 109.445, 8.658 108.131 C 6.724 106.526, 6 107.747, 6 112.611 C 6 115.664, 6.675 117.674, 8.359 119.630 L 10.717 122.372 11.454 117.436 C 12.939 107.483, 17.214 102, 23.489 102 C 29.348 102, 34.868 109.464, 35.112 117.718 C 35.220 121.382, 35.253 121.345, 36.176 116.508 C 36.699 113.763, 37.760 110.818, 38.533 109.964 C 39.306 109.110, 40.864 105.412, 41.996 101.748 C 44.911 92.309, 53.770 81.504, 56.971 83.482 C 57.747 83.961, 56.616 85.669, 53.628 88.532 C 48.562 93.386, 45.616 98.570, 44.554 104.500 C 44.160 106.700, 42.938 109.468, 41.837 110.652 C 39.037 113.662, 38.294 120.273, 40.394 123.479 C 43.232 127.810, 48.111 126.662, 51.009 120.982 C 52.231 118.587, 53.584 117.264, 54.716 117.356 C 57.011 117.541, 56.572 114.305, 53.913 111.436 C 51.603 108.943, 51.345 102.154, 53.411 98.200 C 55.454 94.289, 60.630 89.654, 62.006 90.503 C 62.804 90.997, 62.236 92.218, 60.207 94.363 C 58.575 96.088, 56.736 98.483, 56.120 99.684 C 54.325 103.185, 54.755 108.468, 57 110.500 C 58.100 111.495, 59 113.140, 59 114.155 C 59 115.602, 59.766 116, 62.550 116 C 69.626 116, 74.300 120.335, 77.442 129.813 C 79.143 134.945, 79.268 135.068, 81.109 133.402 C 82.862 131.815, 83.920 131.781, 94.355 132.983 C 103.478 134.034, 108.510 134.052, 120.098 133.076 C 142.235 131.211, 171.192 125.724, 183.222 121.114 C 186.720 119.774, 187.405 116.901, 186.537 107.224 C 185.381 94.342, 179.969 84.770, 170.022 78.015 C 166.941 75.923, 163.858 73.533, 163.171 72.706 C 162.484 71.879, 160.808 66.600, 159.446 60.976 C 151.625 28.673, 143.661 16.769, 125.324 9.972 C 116.999 6.886, 115.624 6.682, 101 6.367 C 88.339 6.095, 83.867 6.396, 76.583 8.012 M 102.155 19.179 C 86.959 21.083, 77.708 26.819, 74.046 36.606 C 69.838 47.853, 70.100 70.677, 74.495 75.792 C 76.722 78.383, 77.298 78.515, 87.788 78.835 C 103.612 79.319, 149.449 74.148, 153.750 71.395 C 156.569 69.589, 156.622 66.701, 154.035 55.789 C 149.319 35.902, 142.683 25.238, 132.500 21.183 C 129.339 19.924, 116.247 17.993, 112 18.160 C 110.625 18.214, 106.195 18.672, 102.155 19.179 M 103.500 21.560 C 102.400 21.813, 99.025 22.518, 96 23.127 C 87.152 24.907, 80.575 29.133, 77.520 35 C 73.755 42.228, 72.941 68.208, 76.317 73.360 C 79.099 77.607, 83.967 77.733, 117 74.411 C 134.883 72.612, 150.475 70.442, 151.917 69.552 C 154.320 68.066, 151.781 55.182, 146.192 40.500 C 143.046 32.235, 136.626 25.145, 130.500 23.169 C 126.451 21.862, 107.180 20.714, 103.500 21.560 M 50.366 28.919 C 46.139 31.496, 42.465 36.511, 39.552 43.680 C 36.756 50.561, 33.383 66.950, 34.281 69.291 C 35.356 72.092, 39.451 73.975, 49.354 76.223 C 62.593 79.227, 62.041 79.955, 64.167 56.718 C 65.978 36.924, 65.561 31.682, 61.939 28.750 C 59.113 26.462, 54.280 26.532, 50.366 28.919 M 49.254 33.250 C 44.740 37.923, 40.440 48.075, 38.429 58.807 C 36.901 66.961, 36.865 68.294, 38.143 69.572 C 39.903 71.332, 56.228 75.510, 58.275 74.725 C 59.302 74.331, 59.925 71.724, 60.401 65.834 C 60.771 61.250, 61.558 52.992, 62.148 47.483 C 63.061 38.970, 62.988 36.906, 61.662 33.733 C 60.243 30.338, 59.753 30, 56.247 30 C 53.209 30, 51.728 30.688, 49.254 33.250 M 182.073 33.635 C 179.450 36.969, 179.432 40.176, 182.024 42.521 C 183.401 43.768, 183.721 44.679, 183.026 45.374 C 182.330 46.070, 180.907 45.333, 178.568 43.066 C 172.631 37.311, 169.638 41.240, 174.500 48.405 C 175.875 50.431, 177 52.807, 177 53.685 C 177 56.757, 172.483 64.287, 168.696 67.528 L 164.875 70.799 167.160 72.399 C 168.417 73.280, 170.038 74, 170.763 74 C 172.973 74, 179.844 65.828, 182.589 59.935 C 184.451 55.936, 185.985 54.067, 188.041 53.291 C 194.719 50.770, 197.521 38.430, 192.545 33.455 C 189.205 30.114, 184.782 30.190, 182.073 33.635 M 132.282 43.206 C 129.723 44.442, 127.631 49.810, 128.622 52.597 C 129.740 55.745, 133.213 59, 135.452 59 C 143.403 59, 145.259 47.254, 137.909 43.453 C 136.364 42.654, 134.964 42.030, 134.800 42.068 C 134.635 42.105, 133.502 42.617, 132.282 43.206 M 132 48 C 132 49.289, 132.506 49.998, 133.250 49.750 C 133.938 49.521, 134.500 48.733, 134.500 48 C 134.500 47.267, 133.938 46.479, 133.250 46.250 C 132.506 46.002, 132 46.711, 132 48 M 89.326 48.484 C 83.588 52.503, 85.271 62.190, 91.815 62.818 C 95.533 63.175, 97.764 61.751, 99.134 58.147 C 100.438 54.718, 98.524 49.560, 95.424 48.147 C 92.207 46.681, 91.874 46.700, 89.326 48.484 M 89 52.500 C 89 53.325, 89.675 54, 90.500 54 C 91.325 54, 92 53.325, 92 52.500 C 92 51.675, 91.325 51, 90.500 51 C 89.675 51, 89 51.675, 89 52.500 M 110.500 57.875 C 106.393 58.748, 105.981 62.151, 109.578 65.485 C 112.444 68.141, 117.560 68.841, 120.929 67.038 C 123.137 65.856, 125.437 60.582, 124.645 58.518 C 124.030 56.915, 116.600 56.577, 110.500 57.875 M 110.550 60.919 C 109.645 62.383, 112.907 65, 115.637 65 C 118.927 65, 122 63.293, 122 61.465 C 122 60.358, 120.671 60, 116.559 60 C 113.566 60, 110.862 60.414, 110.550 60.919 M 166.069 99.750 C 161.751 103.758, 161.568 109.145, 165.589 113.923 C 170.099 119.283, 178.462 117.737, 181.509 110.980 C 186.034 100.945, 174.118 92.279, 166.069 99.750 M 167.851 101.701 C 164.265 105.871, 164.904 110.581, 169.461 113.567 C 173.135 115.974, 177.506 114.028, 179.070 109.287 C 180.073 106.248, 179.966 105.430, 178.264 103.141 C 175.783 99.802, 170.153 99.024, 167.851 101.701 M 19.740 106.085 C 14.595 109.082, 12.860 125.468, 16.760 134.223 C 19.159 139.609, 23.773 142.991, 28.730 142.996 C 33.020 143.001, 39.818 140.209, 41.030 137.944 C 41.838 136.434, 41.340 135.757, 38.073 133.921 C 33.749 131.491, 33.409 130.685, 32.412 120.500 C 31.193 108.057, 26.169 102.342, 19.740 106.085 M 96.974 108.872 C 93.385 112.461, 92.409 116.159, 94.022 120.053 C 97.051 127.365, 105.378 129.314, 111.234 124.082 C 114.038 121.577, 114.500 120.504, 114.500 116.500 C 114.500 112.496, 114.038 111.423, 111.234 108.918 C 106.699 104.865, 100.999 104.847, 96.974 108.872 M 98.498 111.002 C 94.814 115.073, 96.868 122.871, 102.058 124.519 C 103.046 124.832, 105.434 124.427, 107.367 123.620 C 111.979 121.693, 113.351 116.293, 110.278 112.160 C 107.606 108.566, 101.267 107.943, 98.498 111.002 M 147.062 112.220 C 144.354 116.749, 139.462 118.188, 135.531 115.612 C 132.563 113.667, 131 113.554, 131 115.284 C 131 116.931, 136.165 120, 138.936 120 C 143.027 120, 147.625 117.318, 148.928 114.174 C 150.915 109.378, 149.590 107.991, 147.062 112.220 M 19.200 116.200 C 17.729 117.671, 17.613 127.409, 19.035 130.066 C 19.623 131.163, 21.121 132, 22.500 132 C 25.564 132, 27 129.380, 27 123.788 C 27 116.915, 22.684 112.716, 19.200 116.200 M 21.682 118.652 C 20.837 119.496, 20.787 125.280, 21.605 127.412 C 22.605 130.020, 24.001 128.131, 23.985 124.191 C 23.968 120.281, 22.819 117.515, 21.682 118.652 M 58.232 120.228 C 56.985 120.830, 54.960 122.937, 53.732 124.911 C 51.831 127.968, 51.500 129.909, 51.500 138 C 51.500 146.534, 51.776 147.970, 54.216 152.120 C 57.906 158.397, 62.141 160.331, 71.091 159.825 C 77.004 159.491, 78.345 159.044, 80.966 156.532 C 84.288 153.350, 84.784 151.515, 82.552 150.658 C 80.470 149.859, 78.466 145.518, 76.478 137.500 C 72.670 122.136, 66.463 116.261, 58.232 120.228 M 183.500 124.140 C 171.256 128.895, 143.539 134.027, 119.500 135.991 C 109.906 136.775, 103.562 136.744, 95.287 135.874 C 82.333 134.511, 81 134.984, 81 140.948 C 81 148.073, 87.796 151, 104.337 151 C 129.863 151, 176.004 142.814, 185.481 136.604 C 188.366 134.714, 190.008 131.280, 189.985 127.185 C 189.958 122.468, 188.984 122.010, 183.500 124.140 M 36.030 124.668 C 35.979 128.367, 37.107 130.014, 41.083 132.043 C 46.286 134.696, 48 134.562, 48 131.500 C 48 129.353, 47.542 128.996, 44.750 128.968 C 41.218 128.934, 38.995 127.617, 37.208 124.500 C 36.082 122.538, 36.060 122.541, 36.030 124.668 M 57.257 131.250 C 55.621 133.319, 55.205 137.822, 56.212 142.544 C 56.957 146.041, 57.687 147.134, 59.594 147.613 C 60.932 147.949, 62.639 147.715, 63.388 147.093 C 66.456 144.547, 66.011 132.894, 62.768 130.836 C 60.889 129.643, 58.378 129.832, 57.257 131.250 M 59.683 133.650 C 58.581 134.752, 58.900 143.820, 60.067 144.541 C 61.766 145.591, 62.333 144.321, 62.333 139.467 C 62.333 135.055, 61.064 132.269, 59.683 133.650 M 163.500 146.689 C 157.450 148.025, 151.379 149.352, 150.009 149.638 C 147.599 150.142, 147.647 150.236, 151.509 152.574 C 159.019 157.120, 169.882 155.163, 173.984 148.526 C 175.093 146.732, 176 144.980, 176 144.632 C 176 143.874, 176.988 143.711, 163.500 146.689" stroke="none" fill="black" fill-rule="evenodd"/>
</svg>