<svg xmlns="http://www.w3.org/2000/svg" width="229" height="167" viewBox="0 0 229 167" version="1.1">
	<path d="M 173 4.594 C 166.034 7.612, 160.700 14.772, 159.410 22.835 C 157.945 31.996, 164.960 44.181, 173.279 46.927 C 177.427 48.296, 177.968 49.771, 177.986 59.775 C 178.002 67.993, 177.566 68.450, 169.039 69.143 L 164.645 69.500 161.843 58 C 156.647 36.673, 151.157 25.024, 142.733 17.450 C 136.614 11.948, 132.939 9.975, 122.988 6.851 C 116.273 4.743, 113.693 4.507, 98 4.567 C 78.099 4.643, 70.237 6.185, 57.227 12.565 C 39.512 21.253, 32.674 33.121, 25.433 67.749 C 25.174 68.987, 23.246 71.082, 21.148 72.406 C 13.481 77.247, 8.951 85.543, 7.460 97.476 C 7.052 100.743, 5.883 104.785, 4.863 106.458 C 1.248 112.385, 3.385 122.024, 9.057 125.374 C 11.245 126.667, 12.035 128.049, 12.551 131.490 C 13.416 137.262, 17.419 143.353, 21.684 145.386 C 28.813 148.786, 39.361 146.393, 43.740 140.383 C 46.280 136.896, 47.724 137.914, 48.553 143.773 C 49.314 149.152, 52.257 156.506, 54.788 159.351 C 57.606 162.519, 62.851 164.140, 70.210 164.117 C 78.076 164.092, 82.280 162.253, 85.446 157.451 L 87.392 154.500 104.946 154.486 C 114.601 154.479, 127.509 153.862, 133.630 153.117 C 144.471 151.796, 144.814 151.814, 146.827 153.827 C 150.924 157.924, 154.894 159.232, 162.011 158.830 C 170.556 158.347, 175.059 155.516, 178.557 148.429 C 180.480 144.532, 181.973 142.956, 185.006 141.618 C 190.965 138.988, 193 135.791, 193 129.056 C 193 125.615, 192.422 122.618, 191.532 121.441 C 190.585 120.189, 190.040 117.015, 189.997 112.500 C 189.960 108.650, 189.286 102.575, 188.500 99 C 187.714 95.425, 187.054 89.480, 187.035 85.789 L 187 79.077 190.750 78.104 C 196.967 76.490, 197.405 76.498, 200.037 78.256 C 201.538 79.259, 204.955 80.051, 208.400 80.195 C 213.676 80.416, 214.451 80.177, 216.613 77.664 C 218.355 75.639, 219 73.687, 219 70.444 C 219 66.791, 219.328 66, 220.845 66 C 223.752 66, 226.341 62.494, 225.603 59.556 C 224.779 56.273, 221.278 55.414, 214.094 56.731 C 211.017 57.295, 207.019 57.532, 205.209 57.259 C 202.359 56.828, 201.400 57.305, 198.060 60.816 C 195.530 63.476, 192.964 65.104, 190.601 65.547 L 187 66.223 187 57.312 L 187 48.402 190.615 47.095 C 208.463 40.641, 210.041 14.634, 193.120 5.794 C 186.934 2.563, 178.809 2.078, 173 4.594 M 175.145 7.070 C 168.141 9.875, 162.020 18.471, 162.020 25.500 C 162.020 32.709, 169.143 42.440, 175.936 44.510 C 180.234 45.820, 187.883 45.100, 192.004 42.998 C 202.464 37.662, 205.123 22.242, 197.205 12.832 C 192.365 7.080, 181.927 4.354, 175.145 7.070 M 84.500 7.626 C 83.400 7.842, 80.025 8.500, 77 9.087 C 65.521 11.314, 55.829 15.742, 48.724 22.006 C 39.743 29.923, 34.764 39.752, 30.997 57 C 27.735 71.940, 27.896 71.595, 22.519 75.179 C 18.795 77.662, 16.821 79.952, 14.697 84.256 C 11.154 91.435, 9.312 101.589, 10.787 105.818 C 11.986 109.258, 11.340 110.527, 9.266 108.806 C 5.714 105.858, 5.019 117.154, 8.515 121.017 C 10.915 123.669, 11.613 122.912, 12.327 116.885 C 13.645 105.760, 22.433 99.620, 29.304 105.025 C 33.199 108.088, 35.037 112.614, 36.267 122.169 L 37.384 130.838 42.089 133.042 C 47.176 135.425, 49 135.085, 49 131.757 C 49 128.556, 52.840 121.271, 55.722 119.004 C 59.233 116.242, 66.225 116.312, 70.208 119.148 C 72.998 121.135, 78.997 131.798, 78.999 134.773 C 79 135.699, 79.699 135.588, 81.560 134.369 C 83.871 132.855, 85.097 132.816, 94.181 133.974 C 104.929 135.344, 114.582 134.986, 136 132.426 C 154.831 130.174, 181.852 123.830, 185.750 120.744 C 187.458 119.393, 187.351 106.909, 185.575 100.236 C 182.968 90.443, 178.202 84.231, 167.786 77.052 L 162.500 73.408 159.880 62.839 C 150.553 25.207, 142.521 14.691, 118.756 8.993 C 112.688 7.539, 107.320 7.043, 98.500 7.123 C 91.900 7.183, 85.600 7.409, 84.500 7.626 M 102.500 20.134 C 87.918 21.970, 79.344 26.903, 75.137 35.876 C 72.625 41.234, 72.500 42.273, 72.500 57.829 L 72.500 74.159 75.766 77.079 C 78.964 79.940, 79.263 80, 90.266 80 C 101.735 79.999, 142.947 75.797, 150.749 73.833 C 156.357 72.421, 157.228 70.661, 155.933 63.346 C 153.424 49.169, 146.562 32.780, 140.841 27.301 C 136.266 22.920, 131.693 21.215, 121.329 20.028 C 111.557 18.908, 112.269 18.904, 102.500 20.134 M 103.500 22.589 C 102.400 22.857, 98.497 23.775, 94.826 24.628 C 86.441 26.576, 80.922 30.539, 77.934 36.758 C 76.059 40.660, 75.576 43.663, 75.208 53.711 C 74.962 60.427, 75.073 68.001, 75.454 70.543 C 76.424 77.007, 79.897 78.435, 92.437 77.524 C 124.140 75.220, 151.984 71.644, 153.170 69.726 C 153.581 69.061, 153.714 67.613, 153.466 66.508 C 153.218 65.404, 152.548 62.250, 151.976 59.500 C 147.801 39.411, 140.572 27.750, 130 24.052 C 126.392 22.789, 107.051 21.722, 103.500 22.589 M 51.615 29.130 C 47.872 31.355, 45.835 33.591, 42.899 38.700 C 39.633 44.383, 35 61.014, 35 67.056 C 35 72.262, 37.953 74.353, 48.953 76.935 C 59.693 79.457, 62.627 78.819, 63.398 73.795 C 64.177 68.710, 65.472 48.273, 65.487 40.821 C 65.504 32.193, 63.205 28.620, 57.400 28.255 C 55.255 28.120, 52.652 28.514, 51.615 29.130 M 50.233 33.783 C 45.984 37.751, 42.313 45.581, 39.952 55.707 C 37.366 66.797, 37.625 70.069, 41.226 71.786 C 45.065 73.617, 58.841 76.493, 59.692 75.641 C 60.082 75.252, 60.961 68.536, 61.646 60.717 C 63.944 34.489, 63.393 31, 56.945 31 C 54.242 31, 52.390 31.768, 50.233 33.783 M 133.174 44.314 C 130.582 47.074, 130.288 52.538, 132.557 55.777 C 134.841 59.039, 141.182 58.897, 143.385 55.535 C 145.387 52.479, 145.432 49.735, 143.537 46.072 C 141.117 41.392, 136.634 40.632, 133.174 44.314 M 138 47.500 C 138 48.325, 138.675 49, 139.500 49 C 140.325 49, 141 48.325, 141 47.500 C 141 46.675, 140.325 46, 139.500 46 C 138.675 46, 138 46.675, 138 47.500 M 93.687 48.250 C 90.794 50.384, 89.948 55.388, 91.841 59.177 C 93.203 61.906, 94.154 62.554, 97.155 62.805 C 101.603 63.175, 104 60.430, 104 54.966 C 104 48.706, 98.195 44.926, 93.687 48.250 M 181 58 C 181 65.333, 181.278 67, 182.500 67 C 183.722 67, 184 65.333, 184 58 C 184 50.667, 183.722 49, 182.500 49 C 181.278 49, 181 50.667, 181 58 M 98.639 50.694 C 97.444 51.889, 97.994 54, 99.500 54 C 100.325 54, 101 53.352, 101 52.559 C 101 50.888, 99.573 49.761, 98.639 50.694 M 123 60.500 C 121.599 62.188, 116.447 62.532, 115.500 61 C 114.555 59.471, 112 59.811, 112 61.465 C 112 65.049, 121.462 66.357, 124.345 63.171 C 126.131 61.198, 126.541 59, 125.122 59 C 124.640 59, 123.685 59.675, 123 60.500 M 213.749 59.694 C 211.159 60.107, 211.034 60.361, 211.621 64.032 C 212.188 67.575, 211.997 68.044, 209.537 69.165 C 207.218 70.222, 206.916 70.829, 207.430 73.400 C 208.398 78.238, 210.844 79.156, 214.098 75.902 C 216.097 73.903, 216.328 71.097, 214.910 66.036 C 214.632 65.044, 215.884 64.123, 218.797 63.177 C 225.878 60.876, 222.209 58.345, 213.749 59.694 M 200.455 62.455 C 199.105 63.805, 198 65.326, 198 65.836 C 198 67.044, 191.732 68.588, 179.158 70.476 C 173.578 71.314, 168.785 72, 168.507 72 C 166.893 72, 168.480 74.134, 171.468 75.980 L 174.935 78.123 184.450 76.062 C 195.626 73.640, 198.809 73.541, 201.441 75.532 C 202.509 76.339, 203.804 77, 204.319 77 C 205.518 77, 204.287 69.051, 202.814 67.275 C 201.234 65.372, 202.744 64.359, 205.032 65.788 C 209.202 68.392, 210.635 65.635, 207 62 C 204.411 59.411, 203.430 59.479, 200.455 62.455 M 181.750 79.689 C 179.483 80.282, 179.548 81.798, 182 85.500 L 183.987 88.500 183.993 83.750 C 183.997 81.138, 183.887 79.052, 183.750 79.116 C 183.613 79.180, 182.713 79.438, 181.750 79.689 M 105.222 82.759 C 104.591 82.970, 103.130 84.671, 101.975 86.541 C 99.418 90.678, 95.393 91.987, 85.200 91.994 C 77.614 92, 73.568 90.657, 69.237 86.696 C 67.647 85.243, 66.659 84.941, 65.917 85.683 C 64.381 87.219, 71.178 92.510, 76.657 94.044 C 85.158 96.424, 104 93.435, 104 89.706 C 104 88.938, 104.823 87.565, 105.829 86.655 C 107.926 84.757, 111.510 84.367, 110.404 86.156 C 109.898 86.973, 110.541 87.142, 112.595 86.733 C 120.296 85.196, 128 84.776, 128 85.892 C 128 86.525, 126.763 87.531, 125.250 88.128 C 119.773 90.290, 119.514 90.581, 119.828 94.227 C 120.073 97.066, 119.607 98.164, 117.431 99.876 C 114.118 102.481, 111.364 102.557, 107.702 100.142 C 104.984 98.350, 104.688 98.350, 97.202 100.141 C 83.995 103.302, 74.492 102.037, 66.172 96.010 C 61.464 92.599, 61 92.453, 61 94.381 C 61 96.218, 66.457 100.231, 71.829 102.344 C 78.682 105.040, 86.646 105.455, 95.824 103.596 C 103.185 102.104, 104.277 102.092, 106.944 103.471 C 110.688 105.407, 114.300 105.413, 118.020 103.490 C 121.479 101.701, 123 99.190, 123 95.267 C 123 92.901, 123.609 92.182, 126.497 91.137 C 128.817 90.298, 130.201 89.048, 130.609 87.423 C 131.735 82.934, 129.950 82.229, 117.659 82.306 C 111.449 82.345, 105.852 82.549, 105.222 82.759 M 167.750 99.080 C 166.787 99.641, 165.325 101.405, 164.500 103 C 159.332 112.993, 169.950 122.444, 179.058 115.959 C 184.149 112.334, 183.916 103.156, 178.640 99.460 C 176.249 97.786, 170.327 97.579, 167.750 99.080 M 168 103 C 165.530 105.470, 165.419 110.060, 167.758 112.949 C 170.226 115.997, 175.733 116.048, 178.164 113.046 C 182.140 108.136, 179.081 101, 173 101 C 171.333 101, 169.111 101.889, 168 103 M 19.246 108.250 C 12.810 115.136, 14.307 136.879, 21.544 141.621 C 27.008 145.201, 37.437 144.034, 40.402 139.510 C 41.990 137.086, 41.945 136.990, 38.100 134.563 C 34.224 132.116, 34.171 131.999, 33.472 124.294 C 33.083 120.007, 32.182 115.077, 31.470 113.338 C 28.571 106.256, 23.199 104.020, 19.246 108.250 M 96.974 109.872 C 93.152 113.694, 92.322 117.355, 94.326 121.557 C 96.361 125.825, 99.999 128.200, 104.500 128.200 C 111.538 128.200, 115.637 123.072, 114.647 115.506 C 113.564 107.224, 102.992 103.854, 96.974 109.872 M 98.455 112.455 C 94.620 116.289, 95.762 121.791, 100.948 124.473 C 106.561 127.376, 112 123.928, 112 117.466 C 112 110.509, 103.533 107.376, 98.455 112.455 M 144.732 116 C 142.713 118.358, 138.198 118.617, 135.441 116.532 C 132.952 114.649, 132 114.633, 132 116.474 C 132 118.273, 137.010 121, 140.315 121 C 143.149 121, 148 117.482, 148 115.427 C 148 113.430, 146.744 113.650, 144.732 116 M 19.395 118.520 C 17.528 121.369, 17.881 128.947, 20 131.499 C 21.592 133.419, 24.404 133.423, 25.993 131.508 C 27.988 129.105, 27.693 120.423, 25.535 118.039 C 23.088 115.335, 21.395 115.467, 19.395 118.520 M 21.359 121.508 C 20.616 123.443, 21.828 130, 22.929 130 C 24.196 130, 24.963 126.063, 24.320 122.851 C 23.701 119.753, 22.279 119.108, 21.359 121.508 M 57.629 122.078 C 54.106 124.848, 53.057 127.012, 51.947 133.796 C 50.131 144.888, 53.997 156.298, 60.651 159.489 C 67.627 162.834, 80.308 160.529, 83.043 155.419 C 84.137 153.375, 83.938 152.784, 81.250 150.096 C 78.993 147.839, 77.961 145.565, 77.179 141.124 C 74.240 124.443, 65.476 115.905, 57.629 122.078 M 180.500 126.080 C 158.135 133.913, 117.603 139.064, 95.587 136.871 L 83.674 135.684 81.776 138.029 C 77.849 142.879, 82.254 149.031, 90.995 150.906 C 105.139 153.939, 143.768 150.068, 170.933 142.895 C 181.266 140.166, 187.191 137.464, 189.235 134.548 C 190.202 133.169, 190.214 124.238, 189.250 123.698 C 188.838 123.467, 184.900 124.539, 180.500 126.080 M 57.571 132.571 C 55.161 134.982, 55.179 142.966, 57.604 146.750 C 59.642 149.931, 63.762 149.756, 65.025 146.435 C 66.405 142.804, 66.235 138.498, 64.551 134.468 C 62.955 130.648, 60.234 129.909, 57.571 132.571 M 59.661 135.441 C 57.979 139.825, 59.559 147.009, 61.888 145.569 C 63.436 144.612, 63.281 137.767, 61.661 135.551 C 60.411 133.841, 60.278 133.834, 59.661 135.441 M 164.500 147.574 C 159 148.901, 153.150 150.359, 151.500 150.814 L 148.500 151.641 152 153.817 C 156.906 156.867, 165.468 156.833, 170.048 153.747 C 173.880 151.164, 178.035 144.949, 175.842 145.080 C 175.104 145.124, 170 146.246, 164.500 147.574" stroke="none" fill="black" fill-rule="evenodd"/>
</svg>