<svg xmlns="http://www.w3.org/2000/svg" width="204" height="166" viewBox="0 0 204 166" version="1.1">
	<path d="M 82.500 3.695 C 80.850 3.913, 75.979 4.982, 71.675 6.072 C 46.343 12.484, 33.804 26.918, 27.434 57 C 25.585 65.729, 24.496 68.861, 22.912 70 C 12.660 77.371, 9.323 83.018, 7.871 95.453 C 7.320 100.169, 6.296 104.121, 5.353 105.162 C 1.047 109.921, 3.354 121.661, 9.094 124.202 C 11.368 125.208, 12 126.139, 12 128.480 C 12 133.558, 16.907 141.912, 21.167 144.085 C 28.561 147.857, 38.499 146.010, 43.213 139.987 C 46.117 136.276, 48 136.708, 48 141.084 C 48 145.344, 51.579 154.921, 54.233 157.763 C 57.981 161.776, 61.429 163, 68.982 163 C 77.631 163, 82.173 161.233, 85.134 156.716 L 87.386 153.281 98.499 153.771 C 105.424 154.077, 116.302 153.598, 127.369 152.499 C 145.119 150.737, 145.127 150.737, 146.562 152.785 C 148.828 156.020, 156.105 158.322, 162.414 157.799 C 169.691 157.195, 175.192 153.529, 178.442 147.115 C 180.008 144.024, 181.752 142.025, 183.206 141.656 C 186.819 140.738, 191.737 135.612, 192.841 131.614 C 193.897 127.790, 193.058 122.980, 190.877 120.352 C 190.171 119.502, 189.743 116.324, 189.845 112.699 C 189.941 109.289, 189.416 103.685, 188.678 100.245 L 187.337 93.991 189.724 95.555 C 193.311 97.905, 198.125 97.060, 199.969 93.756 C 201.390 91.210, 201.338 90.706, 199.247 86.756 C 198.008 84.415, 196.994 81.150, 196.993 79.500 C 196.991 72.689, 190.391 66.406, 183.518 66.672 C 180.957 66.772, 178.556 66.173, 177.097 65.073 L 174.767 63.316 176.982 58.408 C 186.182 38.021, 172.158 17, 149.357 17 C 143.777 17, 142.333 16.617, 139.761 14.452 C 134.009 9.612, 125.245 6.001, 114.566 4.072 C 108.976 3.062, 89.074 2.828, 82.500 3.695 M 82.500 6.669 C 69.509 8.767, 55.787 14.487, 48.970 20.646 C 39.661 29.056, 34.947 38.652, 30.034 59.191 C 28.419 65.943, 26.655 71.615, 26.114 71.795 C 22.564 72.979, 16.672 78.701, 14.328 83.241 C 12.023 87.705, 11.549 90.053, 11.192 98.777 C 10.836 107.478, 10.555 108.875, 9.361 107.885 C 7.348 106.214, 6.500 107.547, 6.500 112.377 C 6.500 116.767, 9.368 122.508, 11.044 121.473 C 11.570 121.148, 12 119.251, 12 117.257 C 12 109.458, 17.978 102, 24.228 102 C 29.686 102, 34.736 109.241, 35.609 118.318 C 36.723 129.908, 36.747 129.963, 41.639 132.060 C 44.129 133.127, 46.561 134, 47.044 134 C 47.528 134, 48.437 132.088, 49.066 129.750 C 51.584 120.391, 55.010 116.981, 62.914 115.968 L 67.500 115.379 63.500 114.284 C 61.300 113.682, 57.793 112.898, 55.706 112.541 C 50.306 111.618, 46.002 107.447, 45.346 102.500 C 44.918 99.269, 45.459 97.269, 48.158 92.098 C 51.491 85.712, 54.222 82.888, 55.667 84.333 C 56.086 84.753, 55.995 85.683, 55.465 86.401 C 50.579 93.011, 48.750 96.448, 48.289 99.880 C 47.821 103.369, 48.138 104.292, 50.677 106.831 C 53.054 109.208, 54.815 109.898, 60.052 110.504 C 64.614 111.032, 67.327 111.945, 69.327 113.625 C 76.175 119.379, 85.381 113.215, 81.644 105.379 C 79.297 100.457, 75.661 99.749, 68.282 102.776 C 62.835 105.011, 61.783 105.153, 59.054 104.022 C 54.143 101.988, 54.037 97.191, 58.783 91.750 C 62.111 87.935, 63.216 90.639, 60 94.727 C 57.467 97.947, 57.471 99.646, 60.012 101.006 C 61.573 101.842, 63.059 101.625, 66.639 100.042 C 75.148 96.277, 81.834 97.903, 84.490 104.381 C 86.361 108.943, 85.299 113.571, 81.681 116.615 C 79.111 118.778, 77.873 119.133, 74.312 118.732 L 70.032 118.249 72.390 121.052 C 73.687 122.593, 75.786 126.359, 77.055 129.419 C 79.233 134.675, 79.461 134.893, 81.164 133.352 C 82.682 131.978, 84.033 131.861, 89.733 132.610 C 98.474 133.760, 120.819 133.439, 132.422 131.997 C 154.253 129.285, 183.356 122.318, 185.750 119.230 C 188.679 115.452, 185.915 96.492, 181.452 89.748 C 180.034 87.605, 177.549 85.390, 175.931 84.826 C 174.124 84.196, 172.754 82.870, 172.383 81.391 C 172.033 79.996, 169.656 77.558, 166.739 75.603 C 162.412 72.703, 161.262 72.351, 158.606 73.113 C 156.905 73.601, 152.810 74.003, 149.507 74.007 C 146.203 74.010, 135.850 74.969, 126.500 76.137 C 116.237 77.419, 103.074 78.308, 93.285 78.380 C 77.963 78.493, 76.953 78.382, 74.921 76.357 C 70.060 71.514, 70.449 44.735, 75.530 34.349 C 79.859 25.501, 88.763 20.724, 103.984 19.084 C 112.544 18.161, 127.430 19.100, 132.098 20.856 C 133.780 21.488, 135.376 21.311, 137.423 20.264 L 140.346 18.770 137.923 16.851 C 128.802 9.628, 118.811 6.862, 100.500 6.489 C 92.250 6.322, 84.150 6.402, 82.500 6.669 M 143.994 20.872 C 131.732 24.906, 123.739 36.989, 125.489 48.847 C 126.875 58.242, 134.683 67.615, 143.146 70.042 C 151.838 72.535, 162.664 69.881, 169.310 63.629 C 176.026 57.309, 178.655 42.993, 174.566 35 C 172.102 30.182, 167.234 25.203, 162.708 22.871 C 158.527 20.716, 147.914 19.583, 143.994 20.872 M 103 21.591 C 91.876 23.620, 83.183 27.530, 80.067 31.906 C 75.631 38.136, 74.656 42.727, 74.585 57.731 C 74.521 71.252, 74.631 72.075, 76.794 74.231 C 78.928 76.358, 79.797 76.487, 90.699 76.285 C 101.304 76.089, 126.473 73.832, 134.965 72.316 L 138.429 71.697 135.965 70.134 C 126.864 64.364, 121.116 53.091, 122.281 43.295 C 122.995 37.288, 125.959 30.345, 129.357 26.718 L 131.963 23.937 129.232 22.891 C 126.320 21.777, 107.181 20.829, 103 21.591 M 143.914 24.956 C 136.156 27.307, 130.055 35.187, 129.302 43.828 C 128.876 48.710, 129.211 50.265, 131.704 54.995 C 135.702 62.582, 141.348 66.300, 149.675 66.830 C 154.603 67.144, 156.844 66.770, 160.428 65.035 C 171.985 59.440, 176.220 44.908, 169.372 34.347 C 163.968 26.013, 153.349 22.096, 143.914 24.956 M 49.898 29.284 C 43.391 33.657, 36.618 48.615, 35.281 61.565 C 34.568 68.475, 35.401 71.406, 38.477 72.807 C 43.204 74.962, 57.336 78.132, 59.636 77.555 C 62.757 76.772, 63.563 73.020, 64.951 52.833 C 65.927 38.625, 65.880 35.649, 64.633 32.664 C 62.107 26.618, 55.962 25.208, 49.898 29.284 M 143.500 28.388 C 138.469 30.583, 133.364 37.088, 132.582 42.299 C 131.251 51.176, 134.766 58.256, 142.320 61.913 C 151.557 66.385, 163.408 62.982, 167.322 54.734 C 169.374 50.409, 169.522 40.905, 167.595 37.200 C 163.286 28.918, 151.860 24.739, 143.500 28.388 M 50.805 32.048 C 47.312 34.690, 44.443 39.399, 42.001 46.496 C 39.361 54.171, 36.875 66.510, 37.592 68.379 C 38.216 70.006, 47.920 73.547, 54.548 74.568 C 57.374 75.003, 58.909 74.785, 59.633 73.846 C 60.202 73.105, 61.220 64.291, 61.893 54.258 C 63.327 32.887, 62.874 30.668, 56.993 30.254 C 54.723 30.095, 52.556 30.723, 50.805 32.048 M 139.073 41.635 C 137.817 43.231, 137 45.740, 137 48 C 137 53.484, 140.126 57, 145 57 C 152.689 57, 155.829 47.675, 150.077 41.923 C 146.257 38.103, 141.940 37.990, 139.073 41.635 M 140.688 43.646 C 139.272 45.061, 140.073 47, 142.073 47 C 143.471 47, 144.041 46.457, 143.823 45.333 C 143.466 43.492, 141.759 42.574, 140.688 43.646 M 88.736 47.250 C 82.625 51.891, 85.895 63, 93.373 63 C 96.046 63, 99 58.465, 99 54.360 C 99 47.913, 93.176 43.878, 88.736 47.250 M 93 51.500 C 93 52.325, 93.675 53, 94.500 53 C 95.325 53, 96 52.325, 96 51.500 C 96 50.675, 95.325 50, 94.500 50 C 93.675 50, 93 50.675, 93 51.500 M 119 60.500 C 117.517 62.287, 111.890 62.490, 110.217 60.817 C 108.572 59.172, 107.336 60.722, 108.637 62.798 C 109.842 64.719, 113.073 65.449, 116.532 64.581 C 119.042 63.951, 122 61.434, 122 59.929 C 122 58.514, 120.394 58.820, 119 60.500 M 170.499 67.002 C 170.158 67.554, 171.364 70.073, 173.180 72.601 L 176.480 77.196 177.206 73.848 C 177.820 71.021, 177.540 70.150, 175.411 68.250 C 172.645 65.782, 171.441 65.477, 170.499 67.002 M 166 71 C 166 71.550, 166.450 72, 167 72 C 167.550 72, 168 71.550, 168 71 C 168 70.450, 167.550 70, 167 70 C 166.450 70, 166 70.450, 166 71 M 180.477 72.074 C 178.920 76.979, 184.405 83, 190.431 83 C 195.310 83, 194.254 73.812, 189.055 71.030 C 185.673 69.219, 181.210 69.763, 180.477 72.074 M 186 87.575 C 191.765 94.088, 196.062 95.888, 197.416 92.359 C 198.533 89.448, 195.436 86.120, 191.772 86.295 C 189.973 86.381, 187.375 86.069, 186 85.601 L 183.500 84.752 186 87.575 M 165.923 99.923 C 162.011 103.835, 161.876 109.510, 165.589 113.923 C 171.312 120.724, 183 115.808, 183 106.601 C 183 105.196, 181.619 102.497, 179.896 100.535 C 175.731 95.791, 170.293 95.553, 165.923 99.923 M 167.557 102.223 C 163.890 107.457, 167.081 114.387, 173.078 114.217 C 177.095 114.103, 180 111.100, 180 107.064 C 180 101.009, 170.889 97.465, 167.557 102.223 M 19.009 107.837 C 15.619 111.227, 14.452 117.228, 15.338 126.711 C 16.062 134.467, 18.950 139.663, 23.620 141.615 C 29.784 144.190, 37.618 142.759, 40.373 138.553 C 41.809 136.362, 41.708 136.146, 38.189 133.873 C 34.615 131.565, 34.461 131.215, 33.252 122.699 C 30.979 106.692, 25.681 101.165, 19.009 107.837 M 96.766 108.918 C 93.962 111.423, 93.500 112.496, 93.500 116.500 C 93.500 120.504, 93.962 121.577, 96.766 124.082 C 102.622 129.314, 110.949 127.365, 113.978 120.053 C 115.591 116.159, 114.615 112.461, 111.026 108.872 C 107.001 104.847, 101.301 104.865, 96.766 108.918 M 98.455 111.455 C 93.587 116.322, 96.930 124, 103.918 124 C 108.625 124, 111.400 121.219, 111.400 116.500 C 111.400 109.376, 103.581 106.328, 98.455 111.455 M 145.245 113.980 C 143.492 116.787, 139.760 117.444, 136.157 115.581 C 132.366 113.621, 132 113.618, 132 115.551 C 132 117.664, 138.627 120.308, 141.892 119.499 C 144.952 118.740, 149 115.224, 149 113.326 C 149 111.326, 146.646 111.736, 145.245 113.980 M 19.655 116.829 C 16.243 120.599, 18.749 132, 22.990 132 C 25.652 132, 27 129.048, 27 123.221 C 27 119.733, 26.470 117.830, 25.171 116.655 C 22.828 114.534, 21.700 114.570, 19.655 116.829 M 21.639 118.694 C 20.839 119.495, 20.834 123.778, 21.630 126.750 C 22.683 130.677, 24 129.181, 24 124.059 C 24 119.389, 23.066 117.267, 21.639 118.694 M 56.516 122.284 C 48.086 130.714, 50.284 153.395, 60 158.248 C 65.237 160.865, 74.803 160.614, 79.008 157.750 C 84.386 154.088, 84.771 152.689, 81.315 149.381 C 79.040 147.203, 77.907 144.740, 76.674 139.286 C 74.472 129.540, 71.324 123.169, 67.586 120.889 C 63.133 118.174, 60.265 118.535, 56.516 122.284 M 184.500 123.721 C 160.580 132.380, 117.796 138.145, 94.818 135.805 C 82.322 134.533, 81 135.035, 81 141.051 C 81 147.996, 84.897 149.976, 100.067 150.736 C 116.757 151.573, 146.438 147.975, 169 142.380 C 185.470 138.296, 190.016 135.187, 189.985 128.027 C 189.961 122.682, 189.144 122.040, 184.500 123.721 M 58.313 130.772 C 54.772 133.065, 54.421 142.551, 57.740 146.250 C 61.118 150.015, 64.539 147.900, 65.503 141.450 C 66.481 134.903, 62.064 128.342, 58.313 130.772 M 59.683 133.650 C 58.581 134.752, 58.900 143.820, 60.067 144.541 C 61.789 145.606, 62.500 144.123, 62.500 139.467 C 62.500 135.223, 61.068 132.266, 59.683 133.650 M 169.500 145.474 C 166.750 146.212, 161.575 147.370, 158 148.048 C 148.615 149.827, 147.935 150.381, 152.057 152.894 C 158.972 157.109, 170.468 154.673, 174.250 148.191 C 177.039 143.410, 177.087 143.437, 169.500 145.474" stroke="none" fill="black" fill-rule="evenodd"/>
</svg>