<svg xmlns="http://www.w3.org/2000/svg" width="196" height="166" viewBox="0 0 196 166" version="1.1">
	<path d="M 78.500 4.636 C 70.769 6.262, 60.341 10.740, 55.262 14.614 C 50.843 17.984, 44.997 26.173, 41.779 33.500 C 38.562 40.824, 34.072 56.596, 33.266 63.406 C 32.619 68.863, 31.373 70.476, 23.799 75.666 C 12.808 83.199, 6.846 94.947, 6.632 109.500 C 6.529 116.535, 6.118 118.923, 4.750 120.439 C 2.422 123.018, 2.416 131.203, 4.740 135.138 C 5.718 136.792, 8.544 139.052, 11.187 140.292 C 14.456 141.826, 16.215 143.388, 16.950 145.411 C 19.955 153.680, 26.633 158.284, 35.500 158.202 C 41.594 158.145, 45.634 156.699, 49.200 153.297 L 51.900 150.721 63.200 152.111 C 69.415 152.875, 82.203 153.493, 91.618 153.484 L 108.737 153.468 110.927 156.810 C 114.058 161.586, 118.813 163.269, 127.950 162.835 C 134.033 162.547, 136.132 162.005, 138.753 160.048 C 142.597 157.178, 145.487 151.601, 147.069 144 C 148.645 136.429, 149.472 135.903, 153.025 140.214 C 156.645 144.606, 161.540 146.395, 168.191 145.756 C 176.191 144.987, 181.120 140.215, 183.247 131.178 C 184.238 126.968, 185.160 125.448, 187.662 123.901 C 193.384 120.362, 194.894 110.405, 190.500 105.182 C 188.526 102.836, 188 101.104, 188 96.944 C 188 86.189, 183.092 76.608, 174.948 71.467 C 171.600 69.353, 171.031 68.399, 170.072 63.287 C 164.328 32.653, 153.649 17.023, 133.030 9.072 C 117.881 3.230, 94.300 1.312, 78.500 4.636 M 77.628 8.079 C 61.858 11.953, 51.884 19.821, 45.328 33.560 C 41.998 40.537, 36 61.863, 36 66.724 C 36 69.329, 31.621 74.119, 24.691 79.094 C 15.182 85.921, 10.449 95.363, 9.343 109.713 C 8.609 119.221, 9.184 120.050, 18.499 122.927 C 42.584 130.366, 84.036 135.378, 101.912 133.012 C 110.725 131.845, 111.893 131.884, 114.232 133.417 C 116.811 135.106, 116.819 135.102, 117.530 131.805 C 119.588 122.273, 125.607 116, 132.694 116 C 136.614 116, 137.752 116.517, 141.010 119.775 C 143.271 122.036, 145.296 125.344, 146.061 128.025 C 147.846 134.283, 148.341 134.601, 153.028 132.488 C 157.791 130.340, 159 128.514, 159 123.470 C 159 112.909, 165.516 102, 171.823 102 C 177.896 102, 184 110.864, 184 119.682 C 184 125.137, 189.059 119.873, 189.662 113.791 C 190.172 108.636, 188.879 106.025, 186.708 107.827 C 185.469 108.856, 185.195 107.565, 184.783 98.763 C 184.117 84.515, 180.098 76.736, 171.345 72.747 C 168.815 71.595, 167.393 68.443, 166.494 62 C 165.290 53.367, 160.718 39.452, 156.952 32.961 C 149.294 19.761, 137.033 11.853, 118.343 8.061 C 105.089 5.372, 88.618 5.379, 77.628 8.079 M 72.355 19.079 C 63.858 20.372, 59.577 22.370, 54.567 27.381 C 49.737 32.210, 45.327 42.338, 41.988 56.268 C 39.693 65.839, 39.514 69.364, 41.250 70.761 C 44.958 73.744, 81.915 78.360, 102.718 78.439 C 123.645 78.518, 123.309 78.760, 123.829 63.238 C 124.619 39.671, 120.867 29.355, 109.423 23.627 C 101.246 19.535, 83.589 17.369, 72.355 19.079 M 70.267 21.985 C 63.702 23.388, 59.246 25.894, 55.467 30.310 C 53.560 32.537, 52 34.751, 52 35.228 C 52 35.706, 51.083 37.987, 49.961 40.298 C 47.687 44.986, 43 62.509, 43 66.324 C 43 67.682, 43.734 69.068, 44.638 69.415 C 49.871 71.423, 92.567 76.221, 106.645 76.383 C 121.021 76.549, 121.005 76.568, 120.984 59.595 C 120.955 34.586, 117.189 27.917, 100.500 23.317 C 94.237 21.590, 75.896 20.783, 70.267 21.985 M 132.778 30.068 L 129.710 33.136 130.414 47.818 C 131.370 67.767, 132.310 74.739, 134.313 76.742 C 135.876 78.304, 136.552 78.296, 144.661 76.610 C 155.658 74.325, 159.877 72.339, 160.700 69.060 C 161.730 64.956, 159.305 51.544, 156.195 44.142 C 149.577 28.392, 140.131 22.715, 132.778 30.068 M 133.819 32.499 C 132.277 35.883, 133.948 72.349, 135.727 74.127 C 137.163 75.563, 147.439 74.009, 154.077 71.352 C 157.856 69.840, 157.999 69.612, 157.985 65.141 C 157.951 54.338, 151.777 37.514, 146.090 32.729 C 141.644 28.988, 135.471 28.872, 133.819 32.499 M 57.229 43.669 C 55.474 44.375, 52.993 49.417, 53.032 52.200 C 53.097 56.891, 58.734 60.785, 62.553 58.776 C 65.705 57.117, 67 54.853, 67 50.997 C 67 45.137, 62.315 41.623, 57.229 43.669 M 61 48.500 C 61 49.325, 61.675 50, 62.500 50 C 63.325 50, 64 49.325, 64 48.500 C 64 47.675, 63.325 47, 62.500 47 C 61.675 47, 61 47.675, 61 48.500 M 97.073 50.635 C 94.102 54.411, 94.348 59.342, 97.635 61.927 C 103.086 66.216, 109.170 63.281, 109.354 56.275 C 109.491 51.035, 106.948 48, 102.418 48 C 100.073 48, 98.557 48.747, 97.073 50.635 M 103.624 52.538 C 103.284 53.423, 103.681 54.324, 104.560 54.661 C 106.517 55.412, 107.409 54.509, 106.655 52.543 C 105.896 50.565, 104.382 50.562, 103.624 52.538 M 72.513 59.979 C 71.601 61.455, 73.418 63.516, 76.903 64.960 C 79.183 65.904, 80.453 65.837, 83.370 64.619 C 85.367 63.785, 87 62.404, 87 61.551 C 87 59.752, 84.355 59.436, 83.778 61.167 C 83.186 62.943, 77.274 62.558, 75.112 60.602 C 73.803 59.417, 72.982 59.220, 72.513 59.979 M 18.302 98.012 C 15.836 99.005, 13 103.812, 13 107 C 13 110.026, 15.676 114.756, 18.131 116.070 C 19.292 116.692, 21.860 117.200, 23.837 117.200 C 26.629 117.200, 28.079 116.476, 30.330 113.957 C 32.874 111.110, 33.165 110.154, 32.712 106.140 C 31.865 98.625, 25.581 95.081, 18.302 98.012 M 18.073 102.635 C 15.705 105.645, 15.518 107.226, 17.163 110.316 C 19.791 115.250, 23.278 116.143, 27.365 112.927 C 29.243 111.451, 30 109.924, 30 107.616 C 30 100.640, 22.203 97.384, 18.073 102.635 M 168.304 106.499 C 165.783 108.265, 162.437 118.002, 161.499 126.304 C 160.891 131.684, 160.591 132.228, 157.387 133.755 C 153.189 135.757, 153.328 137.631, 157.905 140.715 C 164.613 145.235, 174.513 142.835, 178.091 135.821 C 180.972 130.175, 181.627 120.667, 179.612 113.738 C 177.317 105.844, 173.097 103.143, 168.304 106.499 M 85.367 107.772 C 79.265 112.715, 79.795 122.412, 86.359 125.925 C 90.162 127.960, 96.976 126.729, 99.748 123.506 C 102.196 120.661, 102.807 114.377, 100.970 110.945 C 98.522 106.369, 89.391 104.513, 85.367 107.772 M 86.174 111.314 C 81.383 116.415, 85.020 124, 92.258 124 C 96.588 124, 99 121.237, 99 116.277 C 99 109.549, 90.810 106.380, 86.174 111.314 M 47.454 113.074 C 46.439 114.717, 50.935 118.897, 54.420 119.551 C 58.090 120.239, 62.807 118.665, 63.649 116.472 C 64.567 114.081, 63.374 113.625, 60.842 115.398 C 57.569 117.691, 54.288 117.379, 51.409 114.500 C 48.574 111.665, 48.370 111.592, 47.454 113.074 M 170 117 C 166.080 120.920, 168.247 132, 172.934 132 C 175.876 132, 177.231 129.380, 177.370 123.425 C 177.474 118.961, 177.112 117.560, 175.559 116.422 C 173.010 114.555, 172.379 114.621, 170 117 M 126.774 120.963 C 123.610 123.452, 120.259 131.204, 118.385 140.367 C 117.210 146.110, 116.339 147.990, 113.913 150.015 L 110.900 152.530 113.700 155.201 C 117.407 158.738, 121.015 160, 127.417 160 C 138.201 160, 144.016 152.464, 143.978 138.538 C 143.944 126.012, 139.793 119, 132.412 119 C 130.684 119, 128.147 119.883, 126.774 120.963 M 171.436 121.398 C 170.646 124.547, 171.238 128.500, 172.500 128.500 C 173.050 128.500, 173.637 126.362, 173.805 123.750 C 174.125 118.752, 172.504 117.143, 171.436 121.398 M 6.174 124.518 C 4.713 127.723, 6.416 133.396, 9.589 135.891 C 18.518 142.915, 70.443 151.866, 96 150.787 C 110.907 150.158, 115.984 147.057, 114.557 139.451 C 113.730 135.043, 111.848 134.572, 101.001 136.054 C 82.797 138.542, 37.369 132.563, 14.365 124.651 L 7.231 122.198 6.174 124.518 M 131.571 131.571 C 130.475 132.668, 130 135.049, 130 139.449 C 130 146.512, 131.396 148.619, 135.409 147.612 C 141.542 146.073, 141.122 130, 134.949 130 C 133.956 130, 132.436 130.707, 131.571 131.571 M 133.445 135.362 C 132.642 138.561, 133.281 144.500, 134.428 144.500 C 135.812 144.500, 137.089 138.896, 136.423 135.750 C 135.709 132.376, 134.243 132.185, 133.445 135.362 M 20 144.688 C 20 146.562, 24.870 152.167, 27.651 153.495 C 32.330 155.729, 40.560 155.435, 44.685 152.886 C 46.566 151.723, 47.891 150.558, 47.629 150.296 C 47.367 150.034, 42.956 148.985, 37.827 147.964 C 32.697 146.943, 26.928 145.633, 25.007 145.054 C 20.915 143.819, 20 143.753, 20 144.688" stroke="none" fill="black" fill-rule="evenodd"/>
</svg>