<svg xmlns="http://www.w3.org/2000/svg" width="197" height="166" viewBox="0 0 197 166" version="1.1">
	<path d="M 81.500 4.015 C 57.975 8.288, 45.351 20.393, 37.715 46 C 36.321 50.675, 34.893 56.075, 34.542 58 C 32.255 70.552, 32.251 70.559, 25.452 74.956 C 12.785 83.148, 7.925 91.954, 7.218 107.998 C 6.853 116.268, 6.356 119.003, 4.877 120.883 C 2.236 124.241, 2.412 130.820, 5.258 135.102 C 6.500 136.971, 9.491 139.498, 11.904 140.717 C 14.977 142.271, 16.809 144.067, 18.020 146.717 C 21.444 154.212, 27.480 158, 36 158 C 41.947 158, 45.652 156.681, 49.192 153.305 L 51.884 150.737 69.655 152.501 C 80.781 153.606, 91.301 154.068, 97.790 153.737 L 108.155 153.208 112.388 157.441 C 116.946 161.999, 119.879 163, 128.675 163 C 139.381 163, 146.150 156.081, 147.612 143.643 C 148.048 139.933, 148.788 137.911, 149.862 137.499 C 150.742 137.162, 151.628 137.385, 151.832 137.996 C 153.112 141.836, 160.976 145.981, 167.007 145.994 C 175.812 146.014, 181.203 141.458, 183.660 131.923 C 184.967 126.847, 185.974 124.877, 187.651 124.113 C 193.355 121.514, 195.484 110.856, 191.402 105.332 C 189.895 103.292, 189.157 100.436, 188.781 95.190 C 188.071 85.261, 184.291 77.887, 177.199 72.597 C 173.942 70.167, 171.758 67.708, 171.425 66.095 C 166.242 40.965, 161.142 29.168, 151.601 20.244 C 139.473 8.900, 124.862 4.004, 101.500 3.457 C 93.250 3.264, 84.250 3.515, 81.500 4.015 M 77 8.302 C 58.124 13.183, 48.676 22.849, 41.574 44.545 C 40.142 48.920, 38.272 56.100, 37.419 60.500 C 35.234 71.767, 34.425 73.393, 29.691 76.049 C 23.373 79.593, 16.108 86.855, 13.252 92.480 C 11.251 96.420, 10.599 99.471, 10.220 106.658 C 9.523 119.871, 9.669 120.183, 17.717 122.741 C 41.239 130.216, 83.030 135.261, 102.406 132.965 C 112.017 131.826, 113.193 131.865, 114.866 133.379 C 116.630 134.975, 116.811 134.789, 118.870 129.275 C 122.339 119.987, 126.800 116, 133.723 116 C 139.682 116, 145.129 121.389, 147.107 129.243 L 148.500 134.771 153.575 132.519 L 158.651 130.267 159.793 122.192 C 161.166 112.479, 164.006 106.019, 167.916 103.708 C 175.743 99.085, 182.280 104.610, 184.458 117.689 C 184.940 120.587, 185.565 121.720, 186.486 121.367 C 190.141 119.965, 191.302 107.357, 187.750 107.639 C 186.223 107.760, 186 106.797, 186 100.067 C 186 87.101, 182.407 79.395, 173.780 73.859 C 171.142 72.166, 168.772 69.817, 168.514 68.640 C 168.257 67.463, 167.571 63.715, 166.990 60.311 C 165.568 51.975, 160.874 38.167, 157.512 32.430 C 151.844 22.759, 143.631 15.928, 132.815 11.891 C 116.256 5.711, 92.842 4.205, 77 8.302 M 73.266 19.101 C 60.823 20.549, 53.531 26.119, 47.953 38.436 C 44.968 45.025, 40.028 63.896, 40.009 68.781 C 40.004 70.169, 38.534 72.320, 36.251 74.281 C 24.384 84.473, 21.869 87.341, 22.521 89.940 C 23.306 93.067, 24.445 93.829, 27.470 93.250 C 30.723 92.629, 40.476 95.580, 46.751 99.085 C 51.868 101.943, 52.179 101.990, 58.984 100.935 C 66.928 99.702, 74.620 100.801, 81.802 104.196 C 84.168 105.314, 86.226 106.065, 86.375 105.864 C 86.523 105.664, 91.075 100.609, 96.489 94.632 C 105.093 85.134, 106.187 83.528, 105.167 81.896 C 104.525 80.868, 104 79.844, 104 79.619 C 104 79.395, 107.644 79.046, 112.098 78.844 C 119.025 78.529, 120.458 78.153, 122.008 76.238 C 124.297 73.412, 125.528 60.129, 124.510 49.254 C 122.651 29.403, 114.597 21.819, 92.496 19.109 C 87.548 18.502, 82.825 18.063, 82 18.133 C 81.175 18.202, 77.245 18.638, 73.266 19.101 M 71.500 21.681 C 62.147 23.782, 56.368 28.347, 51.928 37.143 C 48.916 43.109, 44.775 56.255, 43.512 63.856 L 42.788 68.212 46.849 67.525 C 52.677 66.541, 61.145 68.598, 66.130 72.209 C 70.189 75.149, 70.624 75.248, 74.717 74.153 C 81.266 72.402, 91.679 72.762, 99.503 75.011 C 107.191 77.222, 116.952 76.905, 119.493 74.364 C 122.615 71.242, 122.631 48.854, 119.518 38.371 C 117.976 33.180, 113.783 28.372, 108.463 25.696 C 101.442 22.165, 79.809 19.815, 71.500 21.681 M 134.794 28.549 C 131.094 30.557, 130.606 34.080, 131.421 52.847 C 132.273 72.460, 132.671 74.738, 135.569 76.637 C 137.661 78.008, 138.675 77.989, 145.697 76.447 C 157.003 73.964, 160.906 72.222, 161.631 69.335 C 163.125 63.383, 158.445 45.631, 153.025 36.688 C 147.809 28.081, 141.140 25.104, 134.794 28.549 M 134.897 32.193 C 133.543 34.723, 134.504 68.564, 136.044 72.616 C 137.148 75.519, 138.487 75.561, 148.482 73.005 C 157.657 70.658, 159 69.741, 159 65.825 C 159 58.215, 152.940 39.872, 148.801 34.954 C 144.422 29.751, 136.993 28.276, 134.897 32.193 M 57.282 51.206 C 52.248 53.636, 52.330 62.827, 57.406 65.139 C 65.279 68.726, 71.821 56.491, 64.698 51.501 C 62.229 49.772, 60.404 49.699, 57.282 51.206 M 61.476 54.039 C 60.468 55.669, 62.707 57.693, 64.042 56.358 C 64.766 55.634, 64.640 54.946, 63.631 54.109 C 62.557 53.218, 61.995 53.199, 61.476 54.039 M 98.259 53.765 C 93.258 54.594, 91.151 63.151, 95 67 C 99.204 71.204, 107 67.687, 107 61.588 C 107 57.127, 102.464 53.068, 98.259 53.765 M 96 58.500 C 96 59.325, 96.675 60, 97.500 60 C 98.325 60, 99 59.325, 99 58.500 C 99 57.675, 98.325 57, 97.500 57 C 96.675 57, 96 57.675, 96 58.500 M 72.015 64.750 C 72.110 69.371, 81.807 71.348, 85.073 67.412 C 86.907 65.202, 85.549 64.672, 81.659 66.079 C 78.664 67.162, 77.808 67.104, 75.620 65.670 C 72.811 63.830, 71.992 63.621, 72.015 64.750 M 39.541 75.250 C 36.274 78.138, 32.227 81.724, 30.550 83.221 L 27.500 85.941 31.093 85.971 C 35.575 86.007, 45.106 89.227, 49.053 92.038 C 50.690 93.203, 52.391 94.009, 52.832 93.828 C 53.274 93.648, 56.847 89.839, 60.772 85.364 C 67.617 77.561, 67.834 77.160, 66.067 75.561 C 63.223 72.987, 54.448 70, 49.731 70 C 46.028 70, 44.721 70.673, 39.541 75.250 M 79.500 75.931 C 72.719 77.243, 70.626 78.564, 64.895 85.143 C 61.850 88.639, 59.095 91.951, 58.773 92.503 C 58.401 93.140, 61.345 93.520, 66.844 93.544 C 72.149 93.568, 77.109 94.186, 79.656 95.142 L 83.811 96.701 91.906 87.924 C 96.357 83.096, 100 78.924, 100 78.651 C 100 76.675, 85.556 74.759, 79.500 75.931 M 93.461 90.874 C 88.465 96.592, 84.755 99.993, 83.500 100.008 C 81.842 100.027, 81.756 100.196, 83 101 C 83.825 101.533, 84.756 101.976, 85.068 101.985 C 86.297 102.018, 102.138 83.914, 101.791 82.873 C 101.588 82.263, 97.839 85.863, 93.461 90.874 M 26.660 89.742 C 26.295 90.332, 28.555 90.963, 32.274 91.309 C 35.698 91.628, 39.625 92.143, 41 92.455 C 42.749 92.851, 42.478 92.548, 40.097 91.445 C 35.839 89.474, 27.480 88.414, 26.660 89.742 M 47.500 96 C 47.840 96.550, 48.568 97, 49.118 97 C 49.668 97, 49.840 96.550, 49.500 96 C 49.160 95.450, 48.432 95, 47.882 95 C 47.332 95, 47.160 95.450, 47.500 96 M 69.500 97.396 C 73.350 98.157, 77.850 99.057, 79.500 99.395 C 82.498 100.010, 82.498 100.010, 79.140 98.457 C 77.291 97.603, 72.791 96.703, 69.140 96.458 L 62.500 96.012 69.500 97.396 M 17.241 99.250 C 12.482 104.330, 12.482 109.670, 17.241 114.750 C 19.769 117.449, 26.371 117.830, 29.739 115.471 C 32.274 113.695, 33.992 108.407, 33.266 104.613 C 31.995 97.964, 21.680 94.511, 17.241 99.250 M 57.750 97.662 C 58.438 97.940, 59.563 97.940, 60.250 97.662 C 60.938 97.385, 60.375 97.158, 59 97.158 C 57.625 97.158, 57.063 97.385, 57.750 97.662 M 18.073 102.635 C 16.933 104.084, 16 105.630, 16 106.070 C 16 108.376, 18.211 112.092, 20.461 113.567 C 23.892 115.815, 28.444 114.035, 29.893 109.877 C 32.648 101.975, 23.163 96.164, 18.073 102.635 M 168.711 107.013 C 165.664 109.409, 163.391 116.043, 162.513 125.095 C 161.901 131.414, 161.727 131.760, 158.367 133.362 C 154.061 135.416, 154.217 137.556, 158.905 140.715 C 165.763 145.337, 175.412 142.617, 179.248 134.980 C 181.443 130.613, 181.658 116.511, 179.606 111.599 C 178.228 108.301, 174.629 105, 172.412 105 C 171.784 105, 170.118 105.906, 168.711 107.013 M 86.117 107.631 C 82.571 110.115, 80.884 114.995, 82.078 119.319 C 85.318 131.056, 103 128.673, 103 116.500 C 103 112.741, 100.870 108.984, 97.855 107.425 C 94.189 105.529, 88.987 105.620, 86.117 107.631 M 86.655 110.829 C 84.371 113.353, 84.474 120.214, 86.829 122.345 C 87.898 123.312, 90.343 124, 92.714 124 C 95.921 124, 97.108 123.484, 98.385 121.535 C 102.085 115.888, 98.622 109, 92.082 109 C 89.698 109, 87.701 109.673, 86.655 110.829 M 173 115.746 C 167.235 117.608, 167.678 132, 173.500 132 C 176.353 132, 178 128.919, 178 123.584 C 178 117.997, 175.955 114.791, 173 115.746 M 50 120.436 C 50 122.822, 56.477 125.341, 59.781 124.240 C 64.182 122.773, 63.778 120.852, 59.221 121.581 C 56.326 122.044, 54.548 121.750, 52.629 120.492 C 50.198 118.900, 50 118.896, 50 120.436 M 127.133 121.542 C 123.767 124.374, 120.721 131.581, 119.098 140.556 C 118.273 145.117, 117.315 147.143, 114.982 149.262 C 112.448 151.564, 112.119 152.354, 113.005 154.008 C 114.726 157.225, 121.313 160, 127.226 160 C 138.274 160, 144.014 153.472, 144.793 140.023 C 145.159 133.693, 144.853 131.529, 142.972 127.157 C 139.459 118.989, 132.921 116.671, 127.133 121.542 M 172.398 120.405 C 171.568 122.567, 172.376 128.500, 173.500 128.500 C 174.050 128.500, 174.637 126.362, 174.805 123.750 C 175.097 119.192, 173.641 117.167, 172.398 120.405 M 6.667 123.667 C 5.487 124.847, 5.956 130.013, 7.517 133.033 C 8.351 134.646, 10.264 136.599, 11.767 137.372 C 27.800 145.620, 92.817 154.131, 107.098 149.852 C 114.269 147.704, 117.836 140.408, 113.726 136.297 C 112.287 134.858, 111.032 134.824, 101.752 135.969 C 89.688 137.457, 73.542 136.393, 48.263 132.443 C 32.170 129.928, 25.226 128.353, 15.593 125.035 C 9.267 122.855, 7.716 122.618, 6.667 123.667 M 131.526 132.950 C 129.784 136.319, 129.547 141.679, 130.975 145.435 C 132.225 148.721, 136.252 148.906, 138.443 145.777 C 140.218 143.243, 140.534 134.866, 138.965 131.934 C 137.347 128.911, 133.331 129.460, 131.526 132.950 M 133.516 136.907 C 132.798 141.153, 133.527 145, 135.048 145 C 137.302 145, 137.582 134.009, 135.347 133.276 C 134.669 133.054, 133.914 134.552, 133.516 136.907 M 21.643 147.128 C 22.724 148.979, 25.113 151.507, 26.952 152.747 C 31.502 155.813, 40.076 155.863, 45 152.853 C 49.254 150.252, 49.162 150.204, 34 147.056 C 28.225 145.856, 22.640 144.625, 21.589 144.319 C 19.724 143.776, 19.725 143.844, 21.643 147.128" stroke="none" fill="black" fill-rule="evenodd"/>
</svg>