<svg xmlns="http://www.w3.org/2000/svg" width="211" height="174" viewBox="0 0 211 174" version="1.1">
	<path d="M 92.450 4.461 C 75.059 7.620, 60.288 14.061, 51.256 22.423 C 39.828 33.004, 36.805 42.720, 36.583 69.589 L 36.442 86.678 31.159 93.001 C 24.371 101.124, 22.319 105.246, 21.023 113.355 C 19.968 119.958, 20.984 131.198, 23.150 136.895 C 23.748 138.468, 23.708 139.692, 23.037 140.363 C 21.393 142.007, 21.828 147.745, 23.905 151.790 C 26.122 156.108, 30.013 158.659, 35.795 159.583 C 39.003 160.096, 40.412 160.999, 42.204 163.689 C 45.291 168.324, 50.703 171, 56.992 171 C 63.908 171, 68.018 169.055, 72.542 163.644 C 75.790 159.758, 77.057 158.979, 80.934 158.482 C 100.111 156.022, 114.086 153.244, 123.370 150.047 L 129.241 148.025 132.166 150.486 C 135.786 153.533, 142.137 155.328, 146.334 154.491 C 155.159 152.730, 159.160 150.761, 162.068 146.747 C 164.802 142.973, 165 142.082, 165 133.550 C 165 122.540, 166.009 120.856, 170.135 124.981 C 171.707 126.553, 174.386 128.146, 176.089 128.520 C 180.341 129.454, 186.932 128.328, 190.728 126.019 C 195.596 123.059, 197.217 119.760, 197.754 111.718 C 198.136 105.995, 198.713 103.982, 200.540 102 C 205.305 96.828, 204.566 87.228, 199.058 82.766 C 197.244 81.296, 195.617 78.405, 194.427 74.538 C 191.801 66.001, 186.058 59.310, 177.658 55 L 170.837 51.500 165.584 40.889 C 154.874 19.255, 143.243 8.628, 125.769 4.508 C 118.193 2.721, 102.150 2.699, 92.450 4.461 M 92 7.606 C 74.076 11.482, 61.903 17.065, 52.757 25.604 C 43.023 34.692, 40.128 44.585, 39.262 71.713 L 38.712 88.927 33.779 94.713 C 26.264 103.528, 24.710 107.154, 24.208 117.049 C 23.741 126.263, 25.284 136.141, 27.544 138.401 C 29.684 140.541, 47.346 141.342, 64 140.054 C 88.233 138.180, 108.340 134.232, 123.255 128.418 C 127.136 126.905, 128.559 126.773, 131.005 127.696 L 134 128.826 134.022 123.663 C 134.065 113.487, 139.737 106, 147.403 106 C 152.876 106, 157.910 109.491, 160.944 115.391 C 162.248 117.926, 163.903 120, 164.622 120 C 165.342 120, 167.543 118.584, 169.515 116.853 L 173.099 113.706 172.423 104.500 C 171.648 93.932, 172.763 89.118, 176.707 86.016 C 182.801 81.222, 189.594 84.715, 194.890 95.365 C 197.461 100.535, 197.929 101.002, 198.835 99.308 C 200.866 95.513, 200.675 89.477, 198.429 86.505 C 197.155 84.819, 196.781 84.737, 196.015 85.976 C 194.836 87.883, 194.755 87.725, 192.696 79.542 C 191.733 75.714, 189.804 70.636, 188.409 68.255 C 185.527 63.336, 178.375 57.728, 172.886 56.084 C 169.498 55.069, 168.790 54.170, 164.738 45.736 C 162.298 40.656, 158.707 34.011, 156.759 30.968 C 149.140 19.067, 137.455 10.365, 125.145 7.421 C 117.922 5.694, 100.391 5.792, 92 7.606 M 125.923 21.923 C 122.150 25.696, 122.211 27.829, 126.459 40.876 C 128.362 46.719, 130.662 54.051, 131.570 57.168 C 132.479 60.286, 134.086 64.256, 135.141 65.991 C 136.850 68.802, 137.410 69.071, 140.280 68.463 C 144.710 67.523, 155.706 61.997, 158.744 59.184 C 160.793 57.287, 161.156 56.199, 160.750 53.174 C 159.952 47.220, 153.536 34.961, 147.948 28.712 C 139.132 18.853, 131.382 16.464, 125.923 21.923 M 81.831 22.960 C 51.766 28.438, 43.076 38.748, 43.025 69 C 43.008 79.130, 44.330 84.653, 46.972 85.491 C 52.072 87.110, 109.315 78.872, 119.271 75.087 C 122.671 73.794, 125 70.246, 125 66.356 C 125 61.562, 121.279 46.322, 118.413 39.382 C 113.785 28.174, 106.381 23.113, 93.667 22.471 C 89.725 22.272, 84.399 22.492, 81.831 22.960 M 127.571 23.571 C 125.510 25.633, 125.589 28.147, 127.964 36.003 C 129.044 39.576, 131.407 47.402, 133.214 53.394 C 135.048 59.474, 137.226 64.744, 138.142 65.321 C 140.144 66.580, 146.436 64.378, 153.336 60.002 C 157.241 57.525, 158 56.542, 158 53.959 C 158 48.003, 148.919 32.122, 142.389 26.659 C 136.794 21.978, 130.481 20.662, 127.571 23.571 M 82.500 25.652 C 76.627 26.587, 67.433 29.212, 63.056 31.204 C 49.599 37.329, 46.111 45.290, 46.031 70.059 C 45.986 83.817, 45.719 83.603, 61.101 82.108 C 77.166 80.547, 104.843 76.340, 112.500 74.296 C 122.897 71.519, 123.527 69.835, 120.034 54.151 C 116.682 39.103, 112.173 31.275, 104.563 27.292 C 101.581 25.732, 88.235 24.739, 82.500 25.652 M 96.039 51.189 C 93.728 53.669, 93.327 57, 95.339 57 C 96.076 57, 97.192 55.875, 97.818 54.500 C 99.140 51.599, 102.447 51.189, 105.108 53.598 C 107.946 56.166, 109.541 54.205, 106.901 51.395 C 103.966 48.271, 98.848 48.174, 96.039 51.189 M 198.692 49.641 C 198.317 50.017, 199.132 51.795, 200.504 53.594 C 201.875 55.392, 203.437 58.019, 203.974 59.432 C 205.228 62.729, 208.427 63.018, 207.489 59.750 C 206.675 56.917, 201.852 49.774, 200.438 49.308 C 199.853 49.116, 199.068 49.266, 198.692 49.641 M 188.569 51.889 C 188.267 52.378, 189.643 54.016, 191.627 55.529 C 193.792 57.180, 196.182 60.423, 197.604 63.640 C 198.908 66.588, 200.430 69, 200.987 69 C 203.826 69, 200.109 59.836, 195.208 54.750 C 191.627 51.034, 189.629 50.173, 188.569 51.889 M 54.655 58.829 C 52.936 60.728, 52.372 65, 53.839 65 C 54.301 65, 55.192 63.875, 55.818 62.500 C 57.048 59.800, 61.600 59, 63.712 61.112 C 64.324 61.724, 65.399 62.034, 66.100 61.800 C 66.994 61.502, 66.722 60.722, 65.188 59.188 C 62.451 56.451, 56.976 56.264, 54.655 58.829 M 76.012 62.284 C 71.790 63.756, 71.229 65.751, 74.035 69.317 C 75.763 71.514, 76.956 72, 80.620 72 C 84.197 72, 85.598 71.458, 87.595 69.303 C 89.199 67.572, 89.988 65.691, 89.797 64.053 C 89.527 61.730, 89.049 61.481, 84.500 61.284 C 81.750 61.165, 77.930 61.615, 76.012 62.284 M 79.506 64.352 L 74.512 65.512 76.756 67.756 C 77.990 68.990, 79.900 70, 81 70 C 83.349 70, 87 66.653, 87 64.500 C 87 62.778, 86.339 62.765, 79.506 64.352 M 178.825 88.038 C 175.788 89.810, 174.744 95.441, 175.499 105.986 C 176.202 115.810, 176.200 115.823, 173.601 117.525 C 170.307 119.684, 170.315 121.316, 173.635 123.927 C 176.936 126.524, 182.138 126.574, 187.669 124.063 C 192.537 121.853, 193.889 119.734, 194.677 113.082 C 196.367 98.813, 186.655 83.470, 178.825 88.038 M 15.552 95.590 C 11.251 99.892, 8.397 114.425, 11.369 116.891 C 12.727 118.018, 13.072 117.975, 13.595 116.613 C 13.936 115.726, 13.987 114.409, 13.710 113.686 C 12.869 111.495, 15.040 101.705, 17.116 98.329 C 19.249 94.859, 18.171 92.972, 15.552 95.590 M 181.909 99.740 C 179.962 104.861, 183.100 113, 187.022 113 C 190.896 113, 192.316 105.446, 189.474 99.950 C 187.416 95.970, 183.385 95.857, 181.909 99.740 M 4.950 99.561 C 4.237 100.419, 3.452 103.569, 3.203 106.561 C 2.842 110.924, 3.048 112, 4.249 112 C 5.290 112, 5.914 110.554, 6.299 107.250 C 6.603 104.638, 7.163 101.487, 7.543 100.250 C 8.342 97.645, 6.866 97.252, 4.950 99.561 M 185.243 104.422 C 185.392 107.272, 186.026 109.517, 186.750 109.755 C 188.560 110.351, 188.358 103.844, 186.493 101.441 C 185.097 99.644, 185.004 99.865, 185.243 104.422 M 101.378 106.478 C 91.908 110.476, 93.462 124.683, 103.577 126.580 C 110.625 127.903, 116 123.347, 116 116.051 C 116 108.537, 108.355 103.532, 101.378 106.478 M 100.455 110.455 C 95.454 115.455, 98.702 124.043, 105.564 123.968 C 113.679 123.880, 116.497 114.104, 109.618 109.909 C 105.476 107.383, 103.402 107.507, 100.455 110.455 M 143.420 110.145 C 142.276 110.700, 140.612 112.387, 139.721 113.894 C 137.499 117.657, 135.910 128.381, 136.646 134.647 C 137.163 139.048, 136.907 140.321, 134.952 143.067 L 132.649 146.301 135.380 148.651 C 137.630 150.586, 139.204 150.992, 144.306 150.952 C 151.826 150.894, 156.562 148.771, 159.815 144 C 162.008 140.784, 162.165 139.756, 161.745 131.333 C 161.362 123.658, 160.844 121.410, 158.565 117.520 C 154.391 110.398, 148.655 107.605, 143.420 110.145 M 31.201 116.484 C 28.475 118.778, 28 119.844, 28 123.666 C 28 127.293, 28.561 128.715, 30.923 131.077 C 38.527 138.680, 50.755 130.526, 46.612 120.615 C 44.873 116.454, 42.840 114.922, 38.240 114.305 C 35.091 113.883, 33.828 114.274, 31.201 116.484 M 33.223 118.557 C 30.556 120.424, 30.229 125.454, 32.557 128.777 C 35.441 132.895, 43.783 131.019, 44.115 126.179 C 44.376 122.372, 43.772 120.408, 41.829 118.750 C 39.292 116.585, 36.139 116.514, 33.223 118.557 M 148.068 120.874 C 146.243 124.282, 146.777 131.447, 149.073 134.365 C 153.115 139.505, 157.167 137.018, 157.167 129.397 C 157.167 121.737, 150.798 115.772, 148.068 120.874 M 62.583 121.866 C 61.709 123.280, 66.853 127, 69.685 127 C 72.778 127, 77.585 124.524, 78.347 122.537 C 79.092 120.598, 77.120 120.595, 74.559 122.532 C 72.046 124.432, 68.538 124.399, 65.557 122.446 C 64.126 121.508, 62.946 121.278, 62.583 121.866 M 150 126.566 C 150 130.399, 151.470 134, 153.035 134 C 154.096 134, 154.358 127.098, 153.393 124.582 C 152.222 121.529, 150 122.828, 150 126.566 M 122.061 132.058 C 108.407 138.252, 75.652 143.165, 48.500 143.093 C 38.050 143.065, 28.600 142.920, 27.500 142.771 C 24.835 142.410, 24.363 145.867, 26.510 150.020 C 27.581 152.090, 29.741 153.882, 32.792 155.232 C 37.142 157.156, 38.703 157.250, 56.971 156.690 C 83.880 155.865, 113.135 151.181, 126.158 145.614 C 133.217 142.596, 136.033 136.033, 132 132 C 129.503 129.503, 127.668 129.514, 122.061 132.058 M 54.750 159.746 C 48.837 159.923, 44 160.462, 44 160.945 C 44 162.674, 50.125 166.933, 53.529 167.572 C 60.035 168.792, 68.529 165.618, 70.971 161.054 C 71.984 159.162, 71.811 159.017, 68.785 159.212 C 66.978 159.329, 60.663 159.569, 54.750 159.746" stroke="none" fill="black" fill-rule="evenodd"/>
</svg>