<svg xmlns="http://www.w3.org/2000/svg" width="373" height="283" viewBox="0 0 373 283" version="1.1">
	<path d="M 84.073 8.165 C 76.884 10.230, 65.657 24.503, 61.393 37 C 60.361 40.025, 59.254 42.725, 58.933 43 C 56.790 44.836, 52.866 54.829, 45.583 77 C 43.144 84.425, 40.171 93.200, 38.976 96.500 C 37.782 99.800, 36.705 105.200, 36.582 108.500 C 36.431 112.573, 35.089 117.958, 32.404 125.266 C 28.861 134.910, 28.089 136.213, 24.994 137.766 C 19.600 140.474, 16.728 145.497, 17.267 151.283 C 17.536 154.168, 18.511 156.945, 19.725 158.283 C 22.709 161.571, 23.325 165.316, 21.108 166.700 C 18.662 168.228, 10.242 181.126, 8.296 186.326 C 7.271 189.065, 6.706 194.110, 6.652 201 C 6.562 212.774, 7.860 216.519, 14.633 224.015 C 19.419 229.314, 25.889 232.222, 42.500 236.546 C 66.169 242.705, 76.944 242.368, 92.500 234.979 C 102.549 230.207, 116.399 221.965, 118.228 219.669 C 120.806 216.432, 120.489 210.819, 117.548 207.646 C 115.401 205.330, 114.318 205, 108.860 205 C 104.072 205, 101.912 204.497, 99.562 202.833 C 95.535 199.983, 87.349 190.043, 82.704 182.363 C 79.033 176.292, 72.035 169, 69.880 169 C 68.578 169, 68.494 169.304, 74.436 152.500 C 76.964 145.350, 80.654 134.775, 82.637 129 C 84.620 123.225, 86.663 117.695, 87.177 116.711 C 87.692 115.727, 90.356 108.302, 93.099 100.211 C 95.841 92.120, 98.516 84.719, 99.043 83.764 C 99.569 82.809, 100 81.346, 100 80.514 C 100 78.427, 100.142 78.472, 108.281 83.143 C 112.251 85.422, 118.055 88.754, 121.178 90.549 C 130.234 95.751, 140.359 102.534, 142.149 104.598 C 143.057 105.644, 145.141 111.450, 146.781 117.500 C 151.051 133.250, 151.155 133.841, 150.034 135.936 C 149.295 137.317, 149.683 140.764, 151.468 148.658 L 153.915 159.485 150.913 162.227 C 146.435 166.317, 145 170.753, 145 180.508 C 145 191.665, 147.934 198.106, 153.500 199.165 C 154.600 199.375, 151.543 200.596, 146.706 201.879 C 135.280 204.909, 129.405 208.895, 125.758 216.090 C 120.404 226.651, 121.376 239.148, 128.195 247.421 C 132.285 252.383, 135.433 253.795, 148.627 256.590 C 162.951 259.623, 169.053 259.608, 186.448 256.496 C 203.998 253.356, 203.698 253.348, 204.487 256.942 C 205.629 262.142, 210.728 267.989, 216.319 270.510 C 223.587 273.787, 237.803 276.319, 249 276.331 C 257.714 276.339, 280.449 273.088, 304 268.464 C 311.575 266.977, 324.481 264.683, 335.500 262.866 C 353.959 259.822, 362.086 253.090, 365.102 238.345 C 367.302 227.589, 363.251 216.357, 355.290 211.138 C 350.634 208.086, 341.638 205.018, 337.093 204.932 C 333.095 204.857, 333.006 204.918, 342.500 201.213 C 349.225 198.589, 350.997 196.207, 352.090 188.317 C 353.224 180.131, 351.741 151.588, 349.879 145.789 C 347.072 137.042, 338.236 130.877, 323.543 127.413 L 316.380 125.724 315.350 108.112 C 313.855 82.562, 312.228 80.166, 294 76.672 C 279.594 73.911, 262.405 72.692, 247 73.339 C 217.898 74.562, 209.525 78.492, 202.500 94.227 C 200.850 97.923, 199.261 100.958, 198.968 100.973 C 198.676 100.988, 197.850 99.012, 197.132 96.581 C 195.430 90.818, 190.257 82.151, 183.457 73.671 C 180.456 69.928, 178 66.376, 178 65.777 C 178 63.183, 172.452 57.818, 165.262 53.457 C 160.993 50.868, 152.184 44.933, 145.686 40.269 C 137.889 34.672, 132.789 31.688, 130.683 31.493 C 126.458 31.100, 108 18.565, 108 16.089 C 108 13.306, 103.655 9.276, 99.373 8.086 C 94.718 6.794, 88.739 6.825, 84.073 8.165 M 84.336 17.872 C 82.155 19.451, 78.922 22.573, 77.151 24.809 C 74.033 28.747, 68 40.794, 68 43.084 C 68 43.704, 69.125 45.548, 70.500 47.182 C 74.604 52.060, 74.525 52.483, 61.533 95.042 C 60.266 99.190, 58.082 105.490, 56.678 109.042 C 53.979 115.871, 51.782 123.923, 50.140 133 C 49.593 136.025, 48.827 139.321, 48.438 140.323 C 47.827 141.896, 48.185 142.102, 51.034 141.823 L 54.339 141.500 57.176 129.500 C 58.737 122.900, 61.343 111.425, 62.967 104 C 64.592 96.575, 67.754 82.625, 69.994 73 C 79.957 30.196, 80.816 27.697, 88.334 19.624 C 92.141 15.536, 92.388 15, 90.470 15 C 89.277 15, 86.516 16.292, 84.336 17.872 M 92.663 21.289 C 85.506 28.621, 83.707 32.869, 79.021 53.500 C 76.773 63.400, 74.528 73.075, 74.031 75 C 73.535 76.925, 72.386 82.325, 71.478 87 C 70.571 91.675, 68.333 101.575, 66.507 109 C 63.544 121.046, 59.855 137.846, 59.596 140.476 C 59.543 141.013, 60.504 141.606, 61.730 141.793 C 62.957 141.981, 64.869 143.289, 65.980 144.702 C 67.091 146.114, 68 147.081, 68 146.851 C 68 146.316, 77.725 118.609, 82.514 105.500 C 84.523 100, 87.212 92.575, 88.490 89 C 89.767 85.425, 92.192 78.715, 93.877 74.089 L 96.943 65.679 93.471 61.837 C 87.781 55.538, 89.549 47.757, 97.418 44.470 C 99.971 43.403, 100.479 42.652, 100.375 40.091 C 100.306 38.391, 100.194 32.275, 100.125 26.500 C 100.044 19.685, 99.619 16, 98.913 16 C 98.316 16, 95.503 18.380, 92.663 21.289 M 107 28.470 C 107 29.312, 122.149 39.185, 122.659 38.674 C 122.932 38.401, 120.758 36.411, 117.828 34.251 C 110.821 29.086, 107 27.046, 107 28.470 M 108 40.337 C 108 42.204, 109.079 42.989, 114.152 44.815 C 117.536 46.032, 120.476 46.857, 120.686 46.647 C 120.896 46.437, 118.127 44.422, 114.534 42.169 C 108.285 38.251, 108 38.171, 108 40.337 M 128.042 41.921 C 127.178 43.536, 127.630 44.331, 130.876 46.902 C 133 48.584, 137.564 51.558, 141.018 53.510 C 147.420 57.129, 166.136 65.197, 166.737 64.597 C 167.028 64.305, 159.995 59.492, 150.521 53.500 C 148.782 52.400, 146.041 50.470, 144.430 49.211 C 140.100 45.827, 130.929 40, 129.935 40 C 129.459 40, 128.608 40.865, 128.042 41.921 M 98.821 50.397 C 95.639 51.978, 95.316 55.643, 98.099 58.605 C 99.344 59.930, 103.996 62.979, 108.439 65.381 C 122.894 73.197, 151.354 90.088, 157.500 94.499 C 164.582 99.582, 168.753 103.869, 172.497 109.912 C 177.010 117.197, 182.567 129.118, 184.425 135.500 C 186.834 143.772, 186.832 143.768, 186.921 141.330 C 186.964 140.136, 188.625 133.611, 190.610 126.830 C 192.596 120.048, 194.218 114.050, 194.215 113.500 C 194.203 111.230, 187.753 95.251, 184.506 89.444 C 177.209 76.396, 167.156 70.960, 121.500 55.372 C 104.566 49.591, 101.708 48.964, 98.821 50.397 M 63.630 50.789 C 63.297 51.328, 59.831 60.934, 55.927 72.135 C 43.522 107.733, 43.680 107, 48.389 107 C 50.665 107, 51.163 105.981, 55.355 92.750 C 57.838 84.912, 61.532 72.724, 63.564 65.665 C 66.860 54.215, 67.096 52.667, 65.748 51.319 C 64.845 50.416, 63.993 50.203, 63.630 50.789 M 102 68.764 C 102 69.185, 107.963 73.112, 115.250 77.492 C 128.569 85.497, 138.099 91.420, 147.659 97.633 C 157.713 104.168, 167.144 118.100, 174.305 137 C 176.285 142.225, 179.230 149.842, 180.850 153.926 L 183.794 161.352 184.158 155.426 C 184.462 150.464, 183.855 147.630, 180.426 138 C 172.725 116.374, 166.298 106.133, 155.762 98.702 C 147.546 92.906, 104.318 68, 102.475 68 C 102.214 68, 102 68.344, 102 68.764 M 166.923 83.923 C 160.988 89.858, 163.725 98, 171.656 98 C 180.184 98, 183.394 86.324, 175.928 82.463 C 171.863 80.361, 170.219 80.628, 166.923 83.923 M 234 81.704 C 226.702 82.504, 218.171 86.042, 215.098 89.542 C 211.324 93.839, 207.024 103.041, 201.332 119 C 193.816 140.072, 190.084 162.849, 191.454 179.292 L 192.146 187.603 200.823 188.915 C 209.538 190.232, 239.659 195.555, 243.618 196.478 C 245.712 196.966, 245.743 196.728, 246.282 175.736 C 246.762 157.047, 247.202 152.730, 249.953 139.744 C 253.871 121.253, 258.056 107.384, 262.249 99 C 265.128 93.244, 266.129 92.185, 271 89.748 C 274.313 88.090, 279.802 86.515, 284.804 85.786 L 293.107 84.577 281.304 82.839 C 270.374 81.229, 244.081 80.598, 234 81.704 M 169.594 86.896 C 167.697 88.993, 167.552 91.152, 169.200 92.800 C 172.318 95.918, 177.165 92.046, 175.063 88.118 C 173.594 85.372, 171.414 84.885, 169.594 86.896 M 299 87.630 C 280.986 90.210, 272.486 92.298, 269.644 94.840 C 264.309 99.611, 257.262 121.822, 252.935 147.500 C 250.890 159.638, 248.994 197, 250.424 197 C 251.971 197, 279.224 192.837, 294 190.343 L 309.500 187.727 308.863 153.613 C 307.942 104.221, 306.162 86.399, 302.227 87.136 C 301.827 87.211, 300.375 87.433, 299 87.630 M 215.584 92.301 C 212.266 96.651, 208.816 104.584, 203.570 119.926 C 196.847 139.588, 194.545 151.319, 194.521 166.042 C 194.491 184.183, 194.748 184.444, 215.648 187.430 C 236.573 190.419, 236.671 190.420, 239.476 187.614 C 241.674 185.417, 242.003 184.213, 242.020 178.295 C 242.070 160.613, 247.049 131.845, 253.534 111.768 C 255.440 105.866, 257 99.914, 257 98.542 C 257 94.995, 253.578 93.153, 244.921 92.041 C 240.840 91.517, 234.350 90.627, 230.500 90.064 C 219.449 88.447, 218.404 88.604, 215.584 92.301 M 285.791 94.530 C 270.749 96.906, 269.421 98.375, 263.486 119.189 C 258.941 135.133, 256.003 150.846, 256.002 159.231 C 256 165.606, 256.134 165.996, 258.541 166.600 C 262.502 167.594, 269.317 165.333, 284.640 157.940 C 303.578 148.804, 303.402 149.060, 303.812 130 C 304.176 113.064, 302.840 97.398, 300.868 95.469 C 298.647 93.298, 295.025 93.072, 285.791 94.530 M 218.327 97.185 C 213.097 106.088, 204.043 131.932, 201.525 145.143 C 199.664 154.907, 199.270 174.767, 200.877 177.771 C 201.594 179.110, 203.644 180.178, 206.740 180.826 C 216.204 182.806, 233.986 185.220, 235.325 184.705 C 236.321 184.323, 236.887 180.942, 237.394 172.340 C 238.624 151.483, 241.987 133.056, 248.460 111.701 C 252.499 98.377, 252.495 98.404, 250.566 97.664 C 248.987 97.058, 237.196 95.483, 226.887 94.500 L 220.274 93.870 218.327 97.185 M 286.269 99.141 C 277.272 100.432, 275.329 101.436, 273.005 105.990 C 270.263 111.366, 264.473 132.648, 262.596 144.253 C 259.563 163.007, 259.609 162, 261.793 162 C 266.877 162, 292.879 150.020, 296.496 146.011 C 298.192 144.131, 298.547 142.067, 298.858 132.272 C 299.059 125.933, 298.904 115.628, 298.513 109.373 L 297.803 98 295.151 98.123 C 293.693 98.191, 289.696 98.649, 286.269 99.141 M 153.447 112.170 C 155.940 124.253, 158.343 133, 159.169 133 C 159.753 133, 159.892 131.666, 159.509 129.750 C 157.875 121.583, 155.890 114.691, 154.458 112.208 L 152.896 109.500 153.447 112.170 M 43.498 116.750 C 35.680 138.723, 34.837 142, 37 142 C 37.550 142, 38 141.418, 38 140.706 C 38 139.477, 44.929 117.455, 46.481 113.750 C 46.899 112.753, 46.778 112, 46.201 112 C 45.644 112, 44.428 114.138, 43.498 116.750 M 165.079 129.583 C 165.127 130.748, 165.364 130.985, 165.683 130.188 C 165.972 129.466, 165.936 128.603, 165.604 128.271 C 165.272 127.939, 165.036 128.529, 165.079 129.583 M 166.079 132.583 C 166.127 133.748, 166.364 133.985, 166.683 133.188 C 166.972 132.466, 166.936 131.603, 166.604 131.271 C 166.272 130.939, 166.036 131.529, 166.079 132.583 M 315 137.412 C 315 139.841, 315.292 139.996, 319.750 139.942 C 322.363 139.911, 326.300 139.554, 328.500 139.150 L 332.500 138.416 328 137.298 C 325.525 136.683, 321.587 135.875, 319.250 135.502 C 315.170 134.851, 315 134.928, 315 137.412 M 158 140.929 C 158 142.678, 164.554 171.149, 167.051 180.250 C 167.896 183.329, 168.535 184, 170.620 184 C 173.511 184, 173.637 185.762, 169.335 166 C 167.958 159.675, 165.969 151.246, 164.916 147.268 C 163.862 143.291, 163 139.803, 163 139.518 C 163 139.233, 161.875 139, 160.500 139 C 158.697 139, 158 139.538, 158 140.929 M 321.250 143.310 L 314 144.340 314 165.670 C 314 190.351, 312.454 188.057, 327.091 185.097 C 332.266 184.050, 338.172 182.908, 340.215 182.558 C 342.258 182.209, 344.154 181.559, 344.429 181.115 C 344.703 180.671, 344.493 173.837, 343.961 165.927 C 343.182 154.343, 342.557 150.667, 340.747 147.023 C 338.547 142.594, 338.396 142.498, 333.500 142.390 C 330.750 142.330, 325.238 142.744, 321.250 143.310 M 27.278 146.250 C 25.708 148.279, 25.022 150.893, 25.638 152.500 C 26.606 155.022, 28 154.171, 28 151.059 C 28 149.441, 28.450 147.840, 29 147.500 C 30.233 146.738, 30.319 145, 29.122 145 C 28.640 145, 27.810 145.563, 27.278 146.250 M 34.183 148.217 C 32.807 149.593, 32.581 154, 33.887 154 C 34.638 154, 36.146 147.951, 35.565 147.267 C 35.456 147.138, 34.834 147.566, 34.183 148.217 M 40.667 148.667 C 40.300 149.033, 40 150.317, 40 151.520 C 40 153.603, 40.343 153.689, 47.250 153.322 C 57.385 152.783, 63 152.005, 63 151.139 C 63 148.796, 59.949 148, 50.967 148 C 45.668 148, 41.033 148.300, 40.667 148.667 M 172.079 151.583 C 172.127 152.748, 172.364 152.985, 172.683 152.188 C 172.972 151.466, 172.936 150.603, 172.604 150.271 C 172.272 149.939, 172.036 150.529, 172.079 151.583 M 332 151.532 C 331.175 151.722, 327.913 152.162, 324.750 152.510 C 319.957 153.038, 319 153.465, 319 155.072 C 319 157.332, 319.513 157.357, 331 155.658 C 337.180 154.743, 339.500 154.004, 339.500 152.950 C 339.500 151.538, 335.369 150.758, 332 151.532 M 173.006 153.583 C 173.024 156.614, 175.303 162, 176.567 162 C 177.760 162, 177.632 161.190, 175.897 157.750 C 173.487 152.970, 172.998 152.265, 173.006 153.583 M 59.250 158.805 C 57.462 158.982, 55.963 159.436, 55.919 159.813 C 55.247 165.489, 55.433 166, 58.170 166 C 60.473 166, 61.067 165.416, 61.926 162.306 C 62.487 160.275, 62.845 158.583, 62.723 158.548 C 62.600 158.512, 61.038 158.628, 59.250 158.805 M 327.037 160.147 C 319.759 161.212, 319.527 161.325, 320.334 163.429 C 320.816 164.684, 322.337 164.839, 329.208 164.335 C 337.990 163.689, 341.369 162.619, 340.733 160.682 C 340.233 159.156, 335.163 158.958, 327.037 160.147 M 30.017 160.250 C 30.026 160.387, 30.857 164.527, 31.863 169.449 C 33.628 178.085, 36 182.114, 36 176.476 C 36 171.531, 32.736 160, 31.336 160 C 30.601 160, 30.008 160.113, 30.017 160.250 M 46.500 163 C 48.226 166.338, 49.481 166.795, 50.393 164.418 C 51.654 161.132, 51.034 160, 47.974 160 L 44.949 160 46.500 163 M 38.006 162.250 C 38.009 162.938, 38.419 165.075, 38.917 167 C 39.416 168.925, 40.116 172.637, 40.473 175.250 C 40.830 177.863, 41.610 180, 42.205 180 C 43.569 180, 42.504 167.201, 40.836 163.540 C 39.619 160.868, 37.996 160.128, 38.006 162.250 M 333.500 168.597 C 331.300 169.284, 327.550 169.881, 325.167 169.923 C 322.164 169.976, 320.964 170.384, 321.260 171.250 C 321.494 171.938, 322.769 172.340, 324.093 172.144 C 325.417 171.948, 329.389 171.498, 332.919 171.144 C 336.449 170.790, 339.506 169.993, 339.711 169.373 C 340.310 167.565, 337.807 167.252, 333.500 168.597 M 176.482 169.750 C 178.015 173.602, 178.852 183.260, 177.875 185.828 C 176.586 189.219, 175.321 189.966, 170.832 189.985 C 163.766 190.014, 162.324 188.273, 159.407 176.187 C 158.453 172.234, 157.273 169, 156.785 169 C 155.110 169, 153 175.939, 153.070 181.218 C 153.187 189.968, 153.292 190.063, 165.572 192.542 C 171.582 193.755, 178.456 195.042, 180.848 195.401 L 185.195 196.055 184.631 191.277 C 184.321 188.650, 183.780 182.338, 183.428 177.250 L 182.788 168 179.287 168 C 176.354 168, 175.899 168.284, 176.482 169.750 M 21.894 178.250 C 16.035 186.236, 14.634 190.583, 14.564 201 C 14.503 210.105, 14.633 210.691, 17.693 215.098 C 19.450 217.627, 21.953 220.395, 23.257 221.249 C 27.851 224.259, 51.199 231.135, 52.479 229.854 C 52.736 229.597, 51.795 227.691, 50.387 225.619 C 47.071 220.739, 45.732 211.663, 47.050 203 C 48.232 195.232, 53.558 183.937, 58.441 178.846 C 62.472 174.642, 61.890 174, 54.046 174 C 49.266 174, 49.254 174.008, 48.643 177.831 C 47.660 183.977, 45.281 185.407, 37.260 184.670 C 29.667 183.973, 27 181.950, 27 176.889 C 27 172.886, 25.545 173.274, 21.894 178.250 M 61.636 181.663 C 58.405 186.114, 54.542 193.276, 52.124 199.297 C 50.715 202.803, 50.677 213.217, 52.053 218.500 C 53.656 224.656, 55.066 226.875, 59.399 230.062 C 62.610 232.423, 64.414 233, 68.592 233 C 77.940 233, 93.008 227.136, 106.750 218.150 C 112.981 214.075, 113.446 212.580, 108.205 213.465 C 101.163 214.655, 93.912 210.312, 85.559 199.900 C 82.520 196.113, 78.837 191.099, 77.373 188.758 C 72.713 181.304, 68.889 177, 66.926 177 C 65.807 177, 63.621 178.926, 61.636 181.663 M 321.500 190.070 C 312.150 191.637, 299.775 193.817, 294 194.915 C 288.225 196.013, 276.750 197.850, 268.500 198.998 C 260.250 200.146, 252.291 201.482, 250.813 201.968 C 249.024 202.557, 246.350 202.375, 242.813 201.424 C 239.891 200.638, 231.650 199.088, 224.500 197.979 C 217.350 196.870, 208.350 195.323, 204.500 194.542 C 191.478 191.899, 191.756 191.891, 192.502 194.864 C 192.863 196.303, 193.685 197.809, 194.329 198.210 C 198.015 200.509, 239.435 208, 248.465 208 C 253.912 208, 280.746 204.377, 304 200.501 C 311.975 199.171, 320.525 197.801, 323 197.456 C 330.925 196.350, 342.277 193.169, 343.137 191.813 C 343.595 191.091, 343.976 189.713, 343.985 188.750 C 344.005 186.462, 342.491 186.551, 321.500 190.070 M 174 203.727 C 172.034 204.532, 182.163 206.902, 187.809 206.958 C 190.179 206.981, 191.864 206.589, 191.554 206.087 C 190.677 204.668, 176.392 202.748, 174 203.727 M 153.500 207.689 C 155.366 209.453, 166.830 211.092, 172.236 210.366 C 177.214 209.699, 177.337 209.614, 174.500 208.817 C 169.884 207.520, 152.323 206.577, 153.500 207.689 M 199.334 210.572 C 199.063 211.278, 198.990 212.899, 199.171 214.176 C 199.914 219.418, 215.930 221.296, 232.444 218.078 C 238.464 216.904, 243.601 215.732, 243.861 215.472 C 244.121 215.213, 242.346 214.998, 239.917 214.996 C 237.488 214.994, 231.450 214.295, 226.500 213.444 C 205.341 209.803, 199.852 209.222, 199.334 210.572 M 320.491 211.572 C 322.570 212.656, 324.554 212.909, 326.991 212.403 L 330.500 211.674 326.500 210.895 C 324.300 210.466, 321.375 210.092, 320 210.064 C 317.557 210.013, 317.568 210.048, 320.491 211.572 M 139 213 C 137.625 214.076, 136.725 215.010, 137 215.076 C 137.275 215.142, 141.686 215.970, 146.803 216.916 C 156.096 218.634, 156.109 218.633, 159.060 216.456 L 162.014 214.276 153.757 212.637 C 143.347 210.571, 142.065 210.603, 139 213 M 305 212.415 C 309.429 214.028, 318.752 215.323, 317.460 214.146 C 316.146 212.949, 307.741 210.984, 304.307 211.070 C 301.562 211.139, 301.577 211.169, 305 212.415 M 182.500 213.106 C 162.149 216.695, 155 222.257, 155 234.500 C 155 243.207, 159.719 249.750, 166.670 250.683 C 168.843 250.974, 176.880 250.049, 185.019 248.570 C 204.551 245.022, 204 245.173, 204 243.356 C 204 242.072, 203.347 241.885, 200.750 242.424 C 198.963 242.795, 191.293 244.160, 183.707 245.457 C 165.334 248.598, 161.910 247.659, 159.027 238.685 C 157.593 234.218, 158.234 229.765, 160.955 225.304 C 163.876 220.516, 166.724 219.134, 178.119 216.972 C 192.337 214.275, 193 214.097, 193 212.981 C 193 211.832, 189.482 211.874, 182.500 213.106 M 290 215.122 C 295.450 216.812, 303.736 217.430, 302.405 216.047 C 301.802 215.421, 297.977 214.713, 293.905 214.473 C 287.485 214.095, 286.966 214.181, 290 215.122 M 334 215.634 C 332.625 215.890, 324.300 217.200, 315.500 218.545 C 273.142 225.022, 248.901 230.946, 243.277 236.193 C 233.899 244.944, 234.544 262.213, 244.440 267.349 C 247.983 269.187, 248.895 269.242, 257.376 268.123 C 262.394 267.462, 271.450 266.038, 277.500 264.960 C 283.550 263.881, 299.985 260.990, 314.022 258.535 C 341.224 253.778, 347.032 252.230, 350.853 248.716 C 357.078 242.993, 359.133 229.429, 354.750 222.990 C 351.167 217.726, 347.700 215.701, 341.791 215.421 C 338.881 215.283, 335.375 215.379, 334 215.634 M 272.500 217 C 272.840 217.550, 274.021 218, 275.125 218 C 276.228 218, 277.946 218.436, 278.942 218.969 C 279.984 219.527, 282.609 219.614, 285.126 219.174 L 289.500 218.411 283.583 217.205 C 276.346 215.731, 271.662 215.644, 272.500 217 M 317.500 221.030 C 298.702 224.001, 264.385 230.917, 255.812 233.463 C 248.428 235.656, 244.390 238.562, 242.071 243.353 C 238.276 251.193, 240.057 259.018, 246.551 263.031 C 250.231 265.306, 250.598 265.338, 260.416 264.221 C 279.221 262.082, 339.739 250.971, 345.349 248.628 C 347.289 247.817, 350.254 245.252, 351.938 242.927 C 354.512 239.373, 355 237.780, 355 232.927 C 355 228.112, 354.551 226.620, 352.297 223.941 C 349.031 220.059, 344.376 217.968, 339.282 218.093 C 337.202 218.144, 327.400 219.466, 317.500 221.030 M 132.199 221.462 C 130.085 226.101, 130.562 226.528, 139.836 228.306 C 150.780 230.404, 151 230.402, 151 228.223 C 151 227.245, 151.659 225.504, 152.465 224.354 C 153.896 222.310, 153.756 222.235, 146.215 221.037 C 141.972 220.363, 137.352 219.591, 135.949 219.321 C 133.920 218.930, 133.153 219.368, 132.199 221.462 M 181.217 220.593 C 176.662 221.357, 171.579 222.683, 169.923 223.540 C 166.457 225.332, 163.009 230.445, 163.004 233.800 C 162.998 237.380, 165.791 241.910, 168.412 242.567 C 169.718 242.895, 178.183 241.777, 187.223 240.082 C 196.263 238.387, 203.949 237, 204.304 237 C 204.659 237, 205.686 235.537, 206.586 233.750 C 207.487 231.963, 209.612 229.037, 211.308 227.250 L 214.392 224 210.946 223.988 C 206.735 223.974, 197.091 221.491, 195.651 220.051 C 194.339 218.739, 191.676 218.839, 181.217 220.593 M 252.082 219.651 C 251.282 220.005, 253.680 221.043, 257.582 222.032 C 261.387 222.996, 264.651 223.381, 264.835 222.886 C 265.020 222.392, 265.599 222.252, 266.122 222.575 C 266.645 222.899, 268.969 222.833, 271.287 222.428 L 275.500 221.693 272.500 220.849 C 268.487 219.720, 253.864 218.863, 252.082 219.651 M 235 223.249 C 235 224.565, 250.303 227.125, 254.218 226.463 C 257.446 225.918, 257.979 225.568, 256.684 224.843 C 254.866 223.825, 235 222.365, 235 223.249 M 329 223.678 C 299.934 228.400, 258.368 236.299, 257.378 237.289 C 257.241 237.426, 258.450 238.296, 260.065 239.222 C 261.679 240.149, 263 240.495, 263 239.992 C 263 238.645, 267.755 237.587, 296.500 232.538 C 310.800 230.027, 324.455 227.458, 326.844 226.829 C 329.854 226.038, 331.390 226.009, 331.844 226.735 C 332.238 227.364, 333.219 226.827, 334.297 225.392 C 336.063 223.040, 336.055 223.002, 333.797 223.136 C 332.534 223.211, 330.375 223.455, 329 223.678 M 338.589 227.077 C 335.119 231.201, 335.002 237.728, 338.329 241.596 C 342.586 246.546, 348.563 242.678, 349.695 234.239 C 350.117 231.091, 349.726 229.828, 347.516 227.201 C 344.141 223.191, 341.885 223.159, 338.589 227.077 M 220.500 228.215 L 216.500 230.389 225.500 232.135 C 236.995 234.364, 238.972 234.361, 241.899 232.111 L 244.298 230.267 236.399 228.549 C 232.054 227.605, 227.600 226.654, 226.500 226.437 C 225.400 226.220, 222.700 227.020, 220.500 228.215 M 329.750 230.083 C 328.788 231.137, 326.942 232, 325.648 232 C 322.896 232, 286.575 238.122, 273.500 240.790 L 264.500 242.627 264.841 247.063 C 265.029 249.503, 265.313 251.634, 265.472 251.797 C 265.826 252.161, 291.823 247.913, 313.393 243.966 C 322.134 242.367, 329.671 241.297, 330.143 241.588 C 331.624 242.504, 331.076 244.842, 329.250 245.395 C 325.770 246.448, 268.753 256, 265.948 256 C 264.067 256, 262.689 256.713, 261.969 258.058 C 260.701 260.426, 259.216 260.549, 281.500 256.451 C 288.650 255.136, 299 253.350, 304.500 252.482 C 310 251.615, 319.567 249.959, 325.761 248.804 C 335.639 246.961, 336.792 246.542, 335.149 245.392 C 332.147 243.289, 330.664 238.481, 331.318 232.966 C 331.641 230.235, 331.814 228.037, 331.703 228.083 C 331.591 228.129, 330.712 229.029, 329.750 230.083 M 130.915 234.691 L 131.521 238.419 139.563 240.027 C 143.986 240.911, 148.336 241.915, 149.230 242.258 C 150.605 242.786, 150.768 242.314, 150.286 239.191 C 149.973 237.161, 149.622 235.378, 149.505 235.230 C 149.388 235.081, 145.740 234.284, 141.397 233.458 C 137.053 232.632, 132.782 231.733, 131.904 231.460 C 130.572 231.045, 130.409 231.578, 130.915 234.691 M 213.445 237.106 C 211.422 241.018, 211.640 242.686, 214.250 243.275 C 217.054 243.908, 232.410 247, 232.750 247 C 232.887 247, 233 246.200, 233 245.223 C 233 244.245, 233.721 242.416, 234.602 241.158 C 235.483 239.900, 236.046 238.723, 235.852 238.542 C 235.658 238.362, 230.863 237.336, 225.195 236.263 L 214.890 234.312 213.445 237.106 M 248.494 243.252 C 246.765 244.739, 245.692 246.877, 245.333 249.550 C 244.879 252.940, 245.228 254.118, 247.484 256.799 C 250.930 260.894, 254.037 260.933, 257.411 256.923 C 260.888 252.791, 261.017 246.304, 257.686 243.174 C 254.724 240.392, 251.790 240.417, 248.494 243.252 M 136.579 244.979 C 137.676 246.076, 153.995 250.338, 154.637 249.696 C 155.685 248.649, 151.791 246.983, 144.969 245.560 C 136.156 243.721, 135.259 243.659, 136.579 244.979 M 211 250.414 C 211 253.229, 211.505 254.256, 213.250 254.994 C 215.298 255.859, 229.789 259, 231.734 259 C 232.184 259, 232.387 257.258, 232.184 255.129 L 231.814 251.258 222.657 249.494 C 217.621 248.525, 212.938 247.519, 212.250 247.259 C 211.393 246.935, 211 247.926, 211 250.414 M 214 259.966 C 214 261.892, 223.935 265.422, 234.936 267.405 L 238.371 268.024 236.011 265.512 C 234.524 263.929, 232.514 262.979, 230.576 262.942 C 228.884 262.911, 224.463 262.092, 220.750 261.124 C 217.037 260.156, 214 259.635, 214 259.966" stroke="none" fill="black" fill-rule="evenodd"/>
</svg>