<svg xmlns="http://www.w3.org/2000/svg" width="354" height="247" viewBox="0 0 354 247" version="1.1">
	<path d="M 251.935 10.070 C 248.632 13.606, 248.603 13.947, 250.547 26.550 C 251.115 30.234, 250.933 30.709, 248.539 31.800 C 241.672 34.929, 234.263 32.371, 229.063 25.077 C 221.130 13.949, 210.195 10.044, 186.885 10.017 C 173.563 10.002, 172.035 10.185, 169.615 12.088 C 166.517 14.525, 164 18.990, 164 22.049 C 164 25.253, 166.969 30.902, 169.380 32.285 C 170.721 33.053, 178.052 33.684, 189.334 34 L 207.169 34.500 210.104 38 C 215.787 44.777, 218.533 47.619, 221.810 50.119 C 224.721 52.340, 225.353 53.712, 227.054 61.495 C 228.118 66.363, 228.871 70.463, 228.727 70.606 C 228.417 70.916, 212.433 74.199, 195 77.533 C 188.125 78.847, 177.100 81.066, 170.500 82.464 C 163.900 83.861, 155.575 85.462, 152 86.020 C 148.425 86.579, 144.282 87.284, 142.793 87.588 C 140.412 88.073, 139.899 87.694, 138.543 84.448 C 137.694 82.417, 137 79.721, 137 78.457 C 137 76.007, 137.604 75.778, 147.487 74.468 C 156.605 73.259, 160 70.104, 160 62.839 C 160 58.573, 157.309 54.518, 153.168 52.543 C 150.408 51.227, 146.875 50.869, 137.066 50.913 C 130.155 50.944, 120.225 50.309, 115 49.502 C 109.775 48.696, 102.722 48.028, 99.327 48.018 C 94.111 48.003, 92.671 48.406, 90.041 50.619 C 83.288 56.301, 82.151 63.693, 86.881 71.151 C 91.488 78.416, 97.114 81.546, 107.471 82.607 L 113.977 83.274 116.279 90.887 L 118.581 98.500 111.088 107.779 C 105.642 114.525, 103.173 116.875, 102.048 116.387 C 90.446 111.347, 86.563 110.605, 71.500 110.552 C 57.259 110.503, 56.120 110.647, 49 113.409 C 39.185 117.215, 31.856 121.946, 25.183 128.781 C 15.205 139.001, 10.101 149.210, 7.404 164.339 C 5.920 172.668, 5.910 174.363, 7.298 183 C 9.223 194.980, 11.850 201.982, 17.891 211.235 C 25.542 222.955, 37.089 231.840, 51.600 237.173 C 56.510 238.977, 59.765 239.354, 71 239.420 C 82.593 239.489, 85.489 239.172, 91.500 237.174 C 106.856 232.073, 122.264 219.010, 128.844 205.514 L 132.140 198.755 139.320 199.428 C 149.284 200.361, 150.226 200.709, 148.999 203.001 C 148.450 204.028, 148 206.658, 148 208.845 C 148 212.058, 148.591 213.319, 151.077 215.411 C 154.050 217.913, 154.600 218, 167.500 218 C 180.400 218, 180.950 217.913, 183.923 215.411 C 186.576 213.179, 187 212.157, 187 208 C 187 203.882, 186.567 202.813, 184.035 200.683 C 182.404 199.310, 179.254 197.881, 177.035 197.506 C 172.684 196.771, 172.124 195.972, 174.550 193.959 C 177.367 191.621, 180.123 183.927, 180.728 176.710 L 181.324 169.598 192.412 159.059 C 198.510 153.262, 206.006 146.040, 209.068 143.010 C 228.971 123.316, 240.036 112.716, 240.309 113.080 C 240.483 113.311, 241.130 115.227, 241.746 117.339 C 242.831 121.055, 242.753 121.279, 239.301 124.339 C 237.339 126.077, 235.135 127.851, 234.403 128.280 C 231.538 129.958, 223.569 141.565, 220.867 147.994 C 213.285 166.039, 213.305 181.861, 220.932 200.182 C 227.946 217.031, 240.949 229.230, 259.912 236.752 C 265.880 239.120, 267.818 239.370, 280.500 239.415 C 292.690 239.459, 295.336 239.166, 300.971 237.147 C 324.126 228.854, 339.995 210.773, 345.129 186.833 C 346.612 179.918, 345.682 161.860, 343.515 155.500 C 337.399 137.552, 326.340 124.159, 311.500 116.731 C 300.474 111.211, 293.674 109.852, 278.519 110.139 L 264.538 110.404 261.804 99.452 C 258.684 86.951, 258.317 85.650, 253.519 70.085 C 249.239 56.200, 249.191 55.229, 252.750 54.388 C 257.315 53.309, 266.357 47.307, 268.707 43.797 C 275.778 33.234, 275.714 19.630, 268.556 11.349 C 265.906 8.284, 264.671 7.675, 260.240 7.249 C 255.352 6.779, 254.849 6.950, 251.935 10.070 M 257.686 15.700 C 257.410 16.145, 257.728 18.648, 258.391 21.260 C 259.054 23.873, 259.421 27.518, 259.206 29.359 C 258.158 38.338, 246.771 43.205, 234.500 39.917 C 231.487 39.110, 228.650 36.899, 223 30.957 C 213.021 20.462, 205 16.916, 205 23 C 205 25.108, 205.485 26, 206.632 26 C 209.651 26, 215.077 30.189, 219.083 35.613 C 221.715 39.176, 224.827 41.925, 228.281 43.739 C 232.847 46.139, 234.626 46.482, 242.500 46.484 C 253.330 46.486, 258.460 44.286, 262.749 37.799 C 266.349 32.353, 266.660 22.701, 263.376 18.299 C 261.251 15.450, 258.591 14.235, 257.686 15.700 M 173.228 19.172 C 171.582 20.818, 171.675 23.486, 173.430 24.942 C 174.719 26.012, 197.589 26.744, 198.586 25.748 C 198.780 25.553, 199.065 23.843, 199.219 21.947 L 199.500 18.500 186.978 18.222 C 178.088 18.024, 174.100 18.300, 173.228 19.172 M 234.654 54.679 C 233.993 55.341, 235.719 64.119, 236.704 65.104 C 237.258 65.658, 238.892 65.814, 240.335 65.452 C 242.507 64.907, 242.791 64.478, 241.980 62.962 C 241.441 61.955, 241 59.803, 241 58.179 C 241 55.662, 240.557 55.162, 237.994 54.786 C 236.341 54.543, 234.838 54.495, 234.654 54.679 M 94 58 C 92.900 59.100, 92.002 60.788, 92.004 61.750 C 92.010 64.547, 95.714 69.855, 99.094 71.911 C 105.341 75.710, 109.636 75.510, 127.974 70.565 C 137.284 68.054, 146.287 66, 147.982 66 C 151.762 66, 152.913 63.666, 150.466 60.963 C 148.898 59.230, 147.332 58.998, 137.095 58.980 C 130.718 58.970, 120.550 58.298, 114.500 57.489 C 99.613 55.496, 96.424 55.576, 94 58 M 239.750 70.716 C 237.464 71.063, 237 71.632, 237 74.091 C 237 77.546, 235.856 78.129, 225.500 79.947 C 221.650 80.622, 213.100 82.278, 206.500 83.626 C 161.298 92.858, 145.063 95.889, 139.107 96.210 C 133.889 96.491, 133.683 96.402, 132.786 93.500 C 132.276 91.850, 130.954 87.961, 129.848 84.858 C 127.946 79.523, 127.692 79.256, 125.169 79.940 C 122.041 80.788, 122.054 81.370, 125.432 92 C 128.023 100.154, 128.082 99.811, 123 106.080 C 106.499 126.436, 96.706 138.227, 89.946 145.878 C 85.576 150.824, 82 155.371, 82 155.981 C 82 157.694, 89.242 156.076, 91 153.970 C 91.825 152.982, 96.100 147.793, 100.500 142.441 C 116.147 123.405, 127.645 110.500, 129.228 110.195 C 130.495 109.951, 132.025 113.636, 136.490 127.693 C 144.694 153.519, 143.691 151.661, 148.622 150.150 C 150.697 149.515, 150.611 149.095, 144.828 131.500 C 141.575 121.600, 138.820 111.482, 138.706 109.016 L 138.500 104.533 143.500 103.254 C 146.250 102.550, 152.100 101.354, 156.500 100.596 C 160.900 99.837, 175.975 96.936, 190 94.149 C 234.111 85.384, 237.760 84.734, 238.893 85.434 C 242.133 87.436, 239.609 90.892, 223.256 106.845 C 214.040 115.834, 198.800 130.772, 189.388 140.040 L 172.277 156.891 174.993 159.494 L 177.710 162.096 189.840 150.197 C 237.945 103.009, 241.172 100, 243.675 100 C 244.507 100, 245.423 100.900, 245.710 102 C 246.334 104.386, 245.941 104.341, 250.288 102.524 L 253.820 101.048 251.862 94.274 C 246.253 74.870, 244.588 70.013, 243.592 70.150 C 242.992 70.232, 241.262 70.487, 239.750 70.716 M 211 98.469 C 207.425 99.154, 197.075 101.124, 188 102.848 C 145.868 110.850, 147.470 110.462, 147.848 112.548 C 148.039 113.605, 149.439 118.302, 150.958 122.985 C 152.477 127.668, 154.999 135.473, 156.563 140.329 C 158.923 147.658, 159.897 149.413, 162.296 150.653 C 163.885 151.475, 165.482 151.845, 165.843 151.476 C 166.204 151.107, 178.783 138.699, 193.796 123.903 C 209.167 108.754, 220.308 97.049, 219.296 97.112 C 218.308 97.174, 214.575 97.784, 211 98.469 M 250.306 107.011 L 248.111 107.894 250.631 117.197 C 255.622 135.621, 262.604 154.631, 267.069 161.954 C 273.155 171.935, 278.801 178.172, 281.411 177.797 C 285.109 177.266, 284.255 174.165, 278.038 165.552 C 274.679 160.900, 270.780 154.485, 269.372 151.297 C 267.965 148.109, 265.967 143.639, 264.933 141.364 C 263.133 137.403, 258.619 122.343, 255.906 111.250 C 254.589 105.864, 254.090 105.486, 250.306 107.011 M 65 118.019 C 48.703 119.967, 34.316 128.510, 24.615 142 C 17.750 151.547, 15.500 159.569, 15.500 174.500 C 15.500 185.134, 15.823 187.411, 18.337 194.500 C 25.289 214.103, 44.011 228.783, 66.283 232.095 C 72.814 233.067, 74.993 232.978, 81.215 231.489 C 99.948 227.007, 113.557 217.351, 121.271 203.068 C 124.299 197.461, 123.928 197, 116.384 197 C 112.388 197, 111.729 197.345, 109.940 200.376 C 106.715 205.842, 94.746 215.577, 88.272 217.999 C 79.886 221.137, 70.781 221.648, 61.863 219.483 C 44.588 215.287, 33.796 205.570, 28.492 189.434 C 24.871 178.417, 24.873 170.003, 28.502 159.325 C 34.439 141.853, 48.892 130.550, 68 128.435 C 72.034 127.989, 75.755 128.415, 81.960 130.035 L 90.419 132.242 93.695 128.371 C 95.496 126.242, 96.977 124.235, 96.985 123.911 C 97.025 122.335, 84.364 118.598, 76 117.717 C 73.525 117.456, 68.575 117.592, 65 118.019 M 274.500 117.674 C 266.382 118.687, 265.899 119.314, 268.243 125.795 L 269.486 129.232 276.643 128.583 C 282.287 128.072, 285.566 128.390, 292.150 130.086 C 302.959 132.871, 305.249 134.112, 312.594 141.166 C 317.153 145.543, 319.684 149.110, 322.598 155.263 C 326.365 163.215, 326.500 163.863, 326.495 174 C 326.490 183.728, 326.238 185.088, 323.063 192.500 C 313.803 214.118, 292.589 224.818, 269.574 219.481 C 247.497 214.361, 230.754 189.555, 234.776 167.927 C 236.145 160.570, 240.931 150.123, 245.541 144.431 L 248.837 140.363 247.076 134.961 L 245.314 129.558 239.316 135.280 C 228.974 145.145, 222.311 162.583, 223.422 176.875 C 224 184.303, 228.615 199.674, 231.879 205.041 C 236.947 213.375, 249.916 224.284, 259 227.853 C 265.350 230.348, 276.977 232.957, 281.856 232.983 C 290.196 233.026, 304.409 227.828, 313.640 221.359 C 329.329 210.364, 339.213 189.618, 337.681 170.896 C 336.475 156.157, 331.139 144.262, 321.271 134.317 C 308.713 121.660, 291.536 115.548, 274.500 117.674 M 123.785 127.670 L 121.175 130.279 125.086 136.008 C 127.236 139.159, 129.918 143.821, 131.045 146.368 C 132.840 150.427, 135 152.521, 135 150.203 C 135 149.264, 127.186 125.853, 126.715 125.382 C 126.539 125.205, 125.220 126.235, 123.785 127.670 M 61.734 135.031 C 52.624 137.316, 41.732 145.188, 37.360 152.649 C 33.797 158.729, 31 168.190, 31 174.163 C 31 179.878, 34.866 192.244, 38.407 197.852 C 42.198 203.858, 49.221 209.368, 57.153 212.561 C 63.151 214.976, 65.883 215.495, 72.476 215.475 C 81.368 215.447, 87.239 213.423, 95.526 207.532 C 101.438 203.328, 106.639 196.459, 104.523 195.647 C 103.704 195.333, 96.389 194.365, 88.267 193.496 C 66.265 191.141, 61.140 189.137, 57.122 181.316 C 55.436 178.035, 55.758 170.314, 57.709 167.215 C 60.039 163.515, 65.042 159, 66.812 159 C 68.511 159, 72.462 154.951, 80.804 144.662 L 86.822 137.240 84.161 135.973 C 80.804 134.374, 66.713 133.783, 61.734 135.031 M 272 135.497 C 272 138.383, 281.615 157.189, 285.297 161.505 C 292.002 169.363, 293.310 174.067, 290.408 179.883 C 288.067 184.577, 284.787 186.366, 279.729 185.706 C 276.222 185.249, 274.700 184.268, 270.816 179.961 C 265.813 174.413, 256.461 159.596, 252.980 151.702 L 250.864 146.904 249.116 149.202 C 242.783 157.532, 240.029 165.199, 240.030 174.500 C 240.030 182.796, 241.340 187.494, 245.808 195.223 C 250.117 202.678, 257.802 209.308, 265.886 212.544 C 274.035 215.806, 285.787 216.248, 293.748 213.592 C 305.505 209.669, 316.228 198.367, 320.150 185.765 C 325.942 167.156, 316.271 146.023, 298.183 137.761 C 292.630 135.225, 289.851 134.626, 281.750 134.221 C 272.916 133.778, 272 133.898, 272 135.497 M 111.788 141.678 L 108.169 145.298 110.793 149.264 C 113.384 153.179, 113.480 153.222, 118.344 152.646 C 121.054 152.325, 123.480 151.854, 123.735 151.599 C 124.380 150.954, 119.068 141.372, 117.057 139.551 C 115.573 138.209, 115.045 138.422, 111.788 141.678 M 101.910 152.927 C 99.661 154.799, 99.634 154.935, 101.500 154.951 C 104.521 154.979, 106.718 153.318, 105.402 152.002 C 104.626 151.226, 103.638 151.488, 101.910 152.927 M 140 158.614 C 138.075 158.837, 129.525 159.696, 121 160.523 C 68.871 165.584, 68.169 165.699, 65.054 169.659 C 62.261 173.209, 62.474 176.381, 65.750 180.042 C 68.407 183.011, 69.021 183.180, 84 185.063 C 92.525 186.135, 106.250 187.888, 114.500 188.960 C 122.750 190.032, 132.875 191.180, 137 191.511 C 141.125 191.843, 146.239 192.379, 148.364 192.703 C 152.070 193.268, 152.198 193.195, 151.515 190.896 C 151.123 189.578, 149.685 186.088, 148.320 183.141 C 145.602 177.272, 145.779 174.221, 149.025 170.975 C 151.173 168.827, 155.968 168.377, 159.062 170.033 C 160.724 170.923, 163.069 175.247, 167.718 186 L 168.799 188.500 170.545 184.500 C 172.919 179.066, 172.659 170.803, 169.979 166.467 C 166.398 160.671, 161.850 158.625, 152.056 158.404 C 147.350 158.297, 141.925 158.392, 140 158.614 M 152.762 175.213 C 152.540 175.880, 154.415 181.496, 156.929 187.693 C 160.290 195.978, 161.963 198.966, 163.250 198.980 C 165.605 199.007, 165.535 198.576, 161.444 187.836 C 156.691 175.359, 154.012 171.464, 152.762 175.213 M 156.380 207.194 C 155.243 209.033, 157.635 209.502, 168.136 209.501 C 177.182 209.500, 178.502 209.283, 178.804 207.745 C 179.117 206.151, 178.125 205.997, 168.083 206.077 C 161.668 206.127, 156.749 206.597, 156.380 207.194" stroke="none" fill="black" fill-rule="evenodd"/>
</svg>