<svg xmlns="http://www.w3.org/2000/svg" width="360" height="229" viewBox="0 0 360 229" version="1.1">
	<path d="M 299.330 9.297 C 296.486 10.508, 292.158 13.367, 289.712 15.648 C 284.452 20.555, 275.341 32.466, 271.468 39.500 C 269.230 43.564, 266.048 48.656, 264.354 50.886 C 264.193 51.099, 261.685 50.227, 258.780 48.949 C 254.618 47.118, 251.631 46.613, 244.673 46.563 C 235.936 46.501, 235.815 46.534, 232.923 49.766 C 231.315 51.562, 229.994 54.037, 229.986 55.266 C 229.979 56.495, 229.718 58.448, 229.407 59.606 C 228.890 61.534, 228.446 61.639, 224.171 60.847 C 217.917 59.688, 208.793 56.632, 195.500 51.245 C 171.726 41.610, 160.671 38.352, 146.312 36.747 C 131.048 35.042, 119.220 36.725, 104.992 42.630 C 101.602 44.037, 101.213 43.954, 93.492 40.185 C 69.613 28.528, 56.223 24.553, 42.971 25.187 C 36.304 25.506, 33.574 26.100, 30.744 27.849 C 23.756 32.168, 21.227 39.881, 23.888 48.758 C 26.330 56.904, 36.446 70.726, 47.725 81.330 L 53.949 87.182 49.118 91.001 C 46.461 93.101, 43.370 95.985, 42.250 97.410 C 39.641 100.726, 39.351 100.673, 38.602 96.750 C 36.886 87.758, 27.934 75.148, 21.282 72.352 C 16.688 70.422, 14.556 70.661, 11.199 73.486 C 7.121 76.918, 5.553 83.417, 7.005 90.873 C 9.293 102.619, 11.888 108.139, 22.295 123.390 C 24.149 126.107, 24.169 126.444, 22.633 129.044 C 18.496 136.047, 21.907 144.534, 30.778 149.313 C 35.020 151.599, 36 152.616, 36 154.736 C 36 158.446, 38.888 173.670, 40.603 179 C 44.359 190.675, 52.026 200.351, 58.479 201.562 C 69.134 203.561, 74.989 191.425, 70.503 176.639 L 69.029 171.777 71.764 172.287 C 96.597 176.919, 99.483 177.203, 116.500 176.690 C 125.850 176.408, 135.975 175.722, 139 175.166 C 142.025 174.610, 147.360 173.867, 150.855 173.516 L 157.210 172.877 153.558 176.083 C 148.165 180.819, 146.667 184.993, 146.592 195.500 C 146.535 203.655, 146.818 205.064, 149.609 210.500 C 151.899 214.958, 153.860 217.227, 157.244 219.331 C 161.328 221.871, 162.658 222.156, 170.149 222.098 C 183.050 221.997, 202.349 215.484, 218.299 205.846 C 222.085 203.559, 222.114 203.557, 226.799 205.382 C 248.399 213.794, 265.810 218.018, 278.739 217.985 C 290.633 217.955, 302.743 213.375, 306.634 207.435 C 309.486 203.082, 308.976 194.495, 305.479 188 C 301.828 181.218, 284.673 163.742, 269.200 151.042 C 262.984 145.941, 258.034 141.662, 258.200 141.533 C 258.365 141.403, 262.999 138.941, 268.497 136.061 C 273.996 133.182, 282.866 127.961, 288.209 124.460 L 297.924 118.095 302.212 119.434 C 316.613 123.928, 319.804 124.500, 330.500 124.500 C 343.601 124.500, 345.884 123.962, 349.923 119.923 C 352.344 117.502, 353 115.984, 353 112.805 C 353 109.164, 352.378 108.156, 346.725 102.632 C 343.022 99.013, 337.053 94.656, 332.159 92 C 318.776 84.737, 319.369 85.531, 321.269 77.401 C 324.801 62.286, 325.291 57.783, 325.394 39.500 C 325.510 18.757, 325.205 17.364, 319.339 11.814 C 313.729 6.506, 307.668 5.743, 299.330 9.297 M 303 15.738 C 299.062 16.473, 286.122 30.499, 280.585 40.035 C 269.510 59.108, 265.651 63.781, 258 67.382 C 254.107 69.214, 251.746 69.491, 240.500 69.433 C 223.780 69.346, 215.974 67.456, 187.335 56.561 C 159.073 45.808, 153.292 44.464, 136 44.627 C 124.271 44.737, 121.552 45.089, 115.271 47.310 C 111.294 48.716, 106.416 51.107, 104.429 52.622 L 100.817 55.377 106.344 58.172 C 112.186 61.126, 128.967 67, 131.565 67 C 134.970 67, 138.857 70.038, 140.041 73.624 C 141.852 79.113, 140.776 89.860, 137.887 95.128 C 133.364 103.375, 125.814 104.797, 108.901 100.587 C 99.946 98.358, 80.780 89.862, 76.921 86.412 C 74.756 84.476, 72.634 84.642, 70.583 86.909 C 69.633 87.958, 67.558 89.354, 65.973 90.011 L 63.091 91.205 68.943 94.129 C 82.655 100.981, 91 117.336, 91 137.356 L 91 141.829 98.750 142.557 C 103.012 142.957, 112.761 143.017, 120.413 142.690 L 134.327 142.096 138.413 138.175 C 146.655 130.268, 160.405 124.939, 179 122.447 C 191.714 120.742, 214.281 120.590, 222.500 122.152 C 230.813 123.733, 235.062 123.414, 245.482 120.424 C 256.290 117.324, 273.154 111.507, 276.660 109.670 L 279.182 108.349 276.507 106.597 C 272.581 104.024, 270.570 98.672, 272.226 95.204 C 274.853 89.705, 288.066 84.937, 305.058 83.358 L 312 82.713 313.117 78.606 C 314.262 74.399, 314.537 72.551, 317.578 48.611 C 319.075 36.832, 319.152 33.801, 318.089 28.652 C 316.395 20.451, 314.656 17.424, 310.881 16.108 C 307.606 14.967, 307.233 14.949, 303 15.738 M 38.469 33.042 C 28.931 35.880, 28.744 43.846, 37.883 58 C 41.765 64.013, 60.080 83, 61.998 83 C 64.687 83, 69.395 78.320, 75.971 69.109 C 79.797 63.750, 85.388 57.111, 88.395 54.357 L 93.862 49.350 90.982 47.649 C 89.398 46.713, 86.392 45.333, 84.301 44.583 C 82.211 43.832, 77.462 41.800, 73.750 40.068 C 62.073 34.619, 44.758 31.171, 38.469 33.042 M 239.250 54.602 C 238.563 54.912, 238 56.674, 238 58.516 C 238 61.013, 238.521 62.031, 240.047 62.515 C 242.756 63.375, 255.329 61.215, 257.662 59.490 C 259.365 58.230, 259.206 58.007, 255.501 56.448 C 251.396 54.721, 241.479 53.594, 239.250 54.602 M 91.124 62.799 C 87.084 66.811, 78 78.953, 78 80.342 C 78 81.501, 93.472 90.250, 100.495 93.062 C 110.968 97.255, 123.754 99.355, 128.796 97.709 C 133.534 96.162, 136.085 91.239, 136.325 83.176 C 136.556 75.459, 134.827 72.301, 129.574 70.846 C 115.689 67, 105.824 63.589, 101.179 61.030 L 95.859 58.097 91.124 62.799 M 15.569 80.573 C 13.325 82.817, 13.622 87.399, 16.604 96.528 C 19.559 105.577, 21.383 109.421, 24.107 112.346 C 25.150 113.464, 27.014 115.866, 28.251 117.683 C 30.571 121.090, 33.664 122.039, 34.590 119.627 C 35.158 118.145, 32.026 103.716, 29.318 95.346 C 27.480 89.664, 22.146 81.684, 19.095 80.051 C 17.607 79.254, 16.763 79.379, 15.569 80.573 M 212.060 88.916 C 204.131 100.050, 214.893 113.851, 224.923 105.411 C 227.651 103.116, 228 102.217, 228 97.488 C 228 93.208, 227.488 91.545, 225.411 89.077 C 223.252 86.511, 222.101 86, 218.479 86 C 214.823 86, 213.808 86.461, 212.060 88.916 M 190.388 88.980 C 186.461 90.567, 184 94.878, 184 100.170 C 184 106.134, 186.035 109.526, 190.496 110.999 C 193.108 111.861, 194.587 111.782, 197.334 110.634 C 201.558 108.869, 203 106.450, 203 101.131 C 203 95.425, 201.529 92.293, 197.775 90.004 C 194.183 87.814, 193.506 87.720, 190.388 88.980 M 216 91 C 211.998 95.002, 214.263 104, 219.272 104 C 221.444 104, 224 100.169, 224 96.912 C 224 94.243, 220.639 89, 218.927 89 C 218.417 89, 217.100 89.900, 216 91 M 289.701 92.526 C 274.638 96.481, 274.432 98.237, 288.250 104.928 C 308.522 114.746, 328.889 119.451, 339.488 116.764 C 345.655 115.201, 346.357 113.070, 342.035 109.032 C 337.556 104.849, 327.951 98.451, 319.342 93.917 C 312.716 90.427, 311.174 90.012, 305.202 90.108 C 301.516 90.167, 294.541 91.255, 289.701 92.526 M 162.306 93.498 C 161.129 94.322, 159.387 97.038, 158.435 99.532 C 156.920 103.499, 156.870 104.575, 158.035 108.106 C 160.681 116.123, 168.198 118.475, 174.158 113.150 C 176.907 110.693, 177.358 109.611, 177.424 105.304 C 177.514 99.406, 175.617 95.370, 171.835 93.415 C 168.306 91.590, 164.989 91.619, 162.306 93.498 M 190.733 93.750 C 188.204 96.556, 187.715 100.382, 189.376 104.358 C 190.550 107.167, 191.468 108, 193.392 108 C 199.105 108, 200.949 99.241, 196.195 94.687 C 192.879 91.510, 192.768 91.491, 190.733 93.750 M 53.895 97.481 C 50.327 99.821, 45.357 105.463, 43.145 109.684 C 41.096 113.593, 41.735 116.812, 44.883 118.439 C 46.468 119.259, 49.168 122.048, 50.883 124.636 C 53.771 128.997, 54 129.980, 54 138.015 L 54 146.686 58.947 153.731 C 63.136 159.695, 64.610 161.020, 68.557 162.365 C 75.812 164.837, 79.068 162.486, 83.405 151.645 C 87.641 141.056, 87.172 129.311, 81.883 113.595 C 79.204 105.633, 66.466 94.897, 59.890 95.059 C 58.576 95.091, 55.878 96.181, 53.895 97.481 M 163.328 98.622 C 160.860 102.389, 161.280 107.734, 164.280 110.734 C 166.459 112.913, 167.030 113.057, 169.125 111.952 C 172.344 110.256, 172.967 109.115, 172.985 104.885 C 173.002 100.702, 169.809 96, 166.950 96 C 165.903 96, 164.273 97.180, 163.328 98.622 M 271.500 116.124 C 266 118.288, 258.125 120.968, 254 122.080 C 249.875 123.192, 244.192 124.860, 241.370 125.787 C 235.586 127.688, 235.143 126.775, 245.055 133.382 C 250.874 137.261, 249.664 137.714, 278.047 121.013 C 287.760 115.298, 288.866 114.375, 287.345 113.263 C 284.777 111.385, 282.497 111.797, 271.500 116.124 M 34.781 128.052 C 28.502 131.368, 26.908 137.583, 31.557 140.629 C 34.998 142.884, 43.497 143.662, 45.602 141.916 C 47.646 140.219, 47.068 132.279, 44.629 128.557 C 42.622 125.494, 39.891 125.354, 34.781 128.052 M 180.500 128.974 C 163.971 131.610, 151.311 136.508, 144.750 142.806 C 136.768 150.468, 139.665 153.008, 180.444 174.114 C 231.106 200.334, 257.099 210.007, 276.857 209.994 C 286.677 209.988, 291.265 208.967, 296.118 205.707 C 298.962 203.796, 299.550 202.745, 299.813 199.099 C 300.075 195.481, 299.512 193.833, 296.410 189.132 C 291.594 181.833, 274.084 164.846, 262 155.751 C 256.775 151.819, 251.150 147.397, 249.500 145.924 C 247.850 144.451, 241.599 139.929, 235.608 135.873 L 224.717 128.500 205.108 128.338 C 194.324 128.250, 183.250 128.536, 180.500 128.974 M 88.377 151 C 86.348 156.358, 82.952 161.965, 80.503 163.997 C 78.887 165.339, 79.242 165.577, 84.617 166.767 C 93.893 168.821, 117.525 169.450, 131.324 168.011 C 147.823 166.291, 148.298 166.074, 143.400 162.499 C 137.355 158.087, 133.814 153.429, 133.708 149.749 L 133.615 146.500 111.848 146.500 L 90.080 146.500 88.377 151 M 44.307 156.750 C 44.982 164.380, 48.490 178.988, 50.731 183.500 C 52.796 187.659, 59.056 194, 61.096 194 C 67.938 194, 61.979 169.505, 52.095 157.001 C 49.843 154.152, 48 151.411, 48 150.910 C 48 150.410, 47.035 150, 45.855 150 C 43.814 150, 43.739 150.329, 44.307 156.750 M 159.375 182.011 C 151.668 187.011, 152.699 206.151, 161 212.189 C 162.375 213.190, 165.261 214.119, 167.413 214.254 C 170.928 214.475, 171.535 214.147, 173.388 211.022 C 174.969 208.355, 175.435 205.907, 175.386 200.522 C 175.252 185.924, 167.376 176.819, 159.375 182.011 M 175.437 183.750 C 179.873 190.499, 181.406 203.699, 178.548 210.539 L 177.096 214.014 179.798 213.391 C 188.647 211.351, 205.753 204.297, 211.838 200.179 C 212.784 199.539, 207.417 196.446, 193.546 189.636 C 182.750 184.336, 173.704 180, 173.444 180 C 173.184 180, 174.081 181.688, 175.437 183.750 M 159.488 185.655 C 152.361 192.782, 156.977 211, 165.909 211 C 166.998 211, 169.103 209.955, 170.587 208.679 C 172.906 206.684, 173.284 205.593, 173.274 200.929 C 173.249 189.044, 165.113 180.030, 159.488 185.655 M 161.424 192.556 C 160.502 197.467, 161.563 203.008, 163.866 205.311 C 165.773 207.217, 165.817 207.209, 167.527 204.599 C 169.556 201.502, 169.106 195.337, 166.567 191.462 C 164.254 187.932, 162.209 188.367, 161.424 192.556" stroke="none" fill="black" fill-rule="evenodd"/>
</svg>