<svg xmlns="http://www.w3.org/2000/svg" width="343" height="258" viewBox="0 0 343 258" version="1.1">
	<path d="M 256.286 8.451 C 249.933 10.436, 243.785 14.383, 238.573 19.822 C 233.986 24.608, 233.799 24.694, 229.694 23.889 C 227.387 23.437, 219.650 22.769, 212.500 22.404 C 198.171 21.674, 182.769 23.359, 169 27.163 C 152.975 31.591, 133.478 44.221, 128.941 53.115 C 125.309 60.236, 127.056 64.748, 136.801 73.418 C 140.541 76.745, 142.573 79.194, 141.801 79.443 C 141.085 79.674, 136.823 80.575, 132.329 81.446 C 120.992 83.642, 105.910 88.111, 97 91.913 C 87.246 96.075, 77.928 102.441, 66.164 112.980 C 60.933 117.666, 52.119 125.317, 46.577 129.982 C 16.760 155.079, 6.888 168.082, 6.702 182.500 C 6.554 193.976, 11.588 200.722, 25.389 207.543 C 30.667 210.151, 34.144 212.690, 36.684 215.790 C 40.933 220.976, 47.738 225.576, 53.485 227.147 C 66.867 230.807, 79.463 229.822, 88.223 224.432 C 93.577 221.138, 94.410 220.930, 101.162 221.206 L 108.379 221.500 109.247 224.861 C 110.324 229.033, 113.674 234.373, 118.213 239.153 C 128.160 249.627, 152.705 254.194, 165.574 247.964 C 171.163 245.258, 179.372 236.929, 182.194 231.099 C 183.387 228.635, 185.079 223.035, 185.955 218.653 L 187.547 210.687 196.024 208.879 C 200.686 207.885, 206.968 206.563, 209.984 205.942 C 213 205.320, 219.726 203.757, 224.930 202.468 C 230.134 201.179, 234.741 200.340, 235.168 200.604 C 235.594 200.867, 236.796 202.977, 237.838 205.291 C 240.270 210.692, 242.246 212.805, 249 217.226 C 256.663 222.242, 264.551 224.347, 276 224.431 C 284.298 224.491, 286.196 224.166, 291 221.858 C 309.229 213.103, 318.179 186.856, 309.876 166.500 L 307.429 160.500 313.559 160.828 C 321.685 161.264, 325.942 159.398, 329.881 153.674 C 338.427 141.251, 337.394 118.899, 327.562 103.529 C 321.147 93.501, 315.217 90.863, 304.984 93.486 C 301.418 94.399, 297.539 95.766, 296.363 96.522 C 294.376 97.802, 293.928 97.543, 289.945 92.820 C 287.591 90.028, 283.627 86.451, 281.136 84.872 C 275.867 81.530, 275.968 81.505, 286.500 83.564 C 299.870 86.177, 309.984 83.432, 310.012 77.182 C 310.022 74.933, 311.021 73.952, 316.202 71.106 C 327.939 64.657, 329.781 60.359, 323.390 54.331 C 321.404 52.458, 317.737 49.888, 315.241 48.620 C 311.883 46.913, 310.416 45.440, 309.601 42.956 C 308.022 38.142, 303.394 35.746, 295.692 35.756 C 292.286 35.760, 287.539 36.489, 285.143 37.375 C 281.096 38.872, 280.580 38.865, 277.893 37.278 C 276.302 36.338, 275 34.968, 275 34.235 C 275 32.318, 277.674 27.354, 282.216 20.840 C 287.004 13.974, 286.955 11.227, 282 8.752 C 277.723 6.615, 262.721 6.440, 256.286 8.451 M 254.500 17.875 C 251.200 19.456, 247.226 22.106, 245.668 23.764 L 242.836 26.780 253.981 30.494 C 260.111 32.536, 265.280 34.048, 265.469 33.854 C 265.657 33.659, 266.992 30.914, 268.434 27.753 C 269.876 24.592, 272.440 20.430, 274.132 18.503 L 277.207 15 268.854 15.001 C 261.713 15.001, 259.629 15.419, 254.500 17.875 M 192.500 30.402 C 191.950 30.614, 188.213 31.331, 184.195 31.994 C 176.962 33.189, 176.906 33.223, 178.479 35.351 C 184.685 43.746, 187.276 56.510, 185.005 67.508 C 183.749 73.596, 180.942 80.161, 178.318 83.151 C 176.526 85.193, 177.112 85.568, 185.127 87.511 C 201.797 91.553, 226.236 90.216, 246.676 84.144 C 265.285 78.616, 266.422 77.662, 268.703 65.666 C 269.754 60.134, 269.812 57.360, 268.957 53.500 C 266.516 42.486, 265.080 41.144, 251.500 37.183 C 235.551 32.533, 224.722 30.807, 209 30.409 C 200.475 30.193, 193.050 30.190, 192.500 30.402 M 165.500 36.663 C 159.029 38.635, 146.363 46.167, 140.558 51.497 C 134.675 56.898, 134.585 59.510, 140.075 65.466 C 147.901 73.956, 170.319 85.640, 173.584 82.930 C 175.876 81.028, 179.740 71.858, 181.035 65.250 C 182.872 55.876, 179.825 43.116, 174.229 36.750 C 172.411 34.683, 172.010 34.679, 165.500 36.663 M 209.145 41.070 C 200.061 44.708, 194.948 54.742, 196.694 65.502 C 197.181 68.502, 198.621 70.751, 202.604 74.734 L 207.870 80 214.791 80 C 221.207 80, 222.059 79.735, 226.462 76.374 C 238.916 66.864, 237.527 48.948, 223.790 41.903 C 219.857 39.886, 213.066 39.500, 209.145 41.070 M 273.579 49.250 C 275.391 56.056, 275.374 64.439, 273.537 70.544 C 271.921 75.912, 271.986 76.326, 274.308 75.435 C 276.144 74.731, 278.597 68.431, 279.443 62.244 C 280.173 56.913, 278.363 49.205, 275.688 46.250 C 272.563 42.797, 272.053 43.521, 273.579 49.250 M 287.352 44.993 C 282.857 46.807, 283.644 49.416, 288.755 49.648 C 292.045 49.798, 301.026 53.924, 304.250 56.767 C 306.751 58.972, 306.319 62.168, 303.195 64.579 C 300.359 66.766, 291.457 70.489, 286.679 71.485 C 283.049 72.242, 283.687 74.164, 288.075 75.694 C 294.399 77.898, 302.980 76.960, 299 74.500 C 298.450 74.160, 298 73.048, 298 72.028 C 298 70.662, 299.775 69.495, 304.750 67.588 C 308.462 66.165, 312.973 64.101, 314.773 63.001 C 317.932 61.071, 317.992 60.917, 316.467 58.590 C 315.410 56.977, 312.221 55.240, 306.825 53.340 C 298.399 50.372, 296.910 48.976, 298.851 45.868 C 299.935 44.131, 299.649 44.004, 294.758 44.063 C 291.866 44.098, 288.534 44.517, 287.352 44.993 M 208.458 46.547 C 206.784 47.373, 204.164 49.950, 202.634 52.274 C 197.522 60.041, 200.359 70.570, 208.622 74.491 C 213.113 76.622, 220.063 76.074, 223.864 73.289 C 229.910 68.860, 231.975 57.752, 227.974 51.190 C 224.504 45.497, 215.112 43.263, 208.458 46.547 M 209.849 48.520 C 206.080 50.567, 202.613 58.125, 203.435 62.503 C 204.890 70.263, 212.814 75.358, 219.246 72.670 C 226.635 69.583, 229.493 62.164, 226.180 54.673 C 223.105 47.724, 216.144 45.101, 209.849 48.520 M 213 51.719 C 209.378 53.027, 208 55.332, 208 60.082 C 208 64.047, 208.446 65.206, 210.635 66.927 C 214.112 69.662, 217.120 69.545, 220.354 66.548 C 226.342 60.998, 220.413 49.043, 213 51.719 M 286 59.500 C 286 62.525, 286.020 65.338, 286.045 65.750 C 286.168 67.776, 299.047 62.714, 299.751 60.362 C 300.134 59.083, 290.590 54, 287.804 54 C 286.284 54, 286 54.866, 286 59.500 M 148.206 86.712 C 146.025 87.129, 146.108 87.323, 149.867 90.618 C 155.545 95.595, 161.346 103.449, 165.296 111.507 C 172.723 126.660, 175.289 140.230, 174.866 162.131 L 174.564 177.762 178.134 182.131 C 182.422 187.377, 184.263 190.929, 185.974 197.250 C 186.845 200.467, 187.790 202, 188.902 202 C 189.805 202, 195.935 200.862, 202.522 199.471 C 209.110 198.081, 216.679 196.509, 219.342 195.980 C 222.005 195.450, 226.338 194.252, 228.971 193.317 C 233.678 191.645, 233.750 191.555, 233.266 187.948 C 232.107 179.309, 237.989 162.454, 244.808 154.869 C 249.134 150.057, 259.195 144.003, 262.867 144.001 C 265.378 143.999, 262.751 124.765, 258.892 114.887 C 258.183 113.072, 255.648 111.146, 250.590 108.579 C 246.586 106.546, 241.193 102.734, 238.606 100.108 C 233.945 95.376, 233.859 95.339, 229.201 96.106 C 226.615 96.532, 217.750 96.904, 209.500 96.932 C 192.533 96.991, 178.405 94.614, 162.830 89.080 C 154.335 86.062, 152.853 85.822, 148.206 86.712 M 251.210 90.524 L 241.919 93.754 245.109 96.438 C 251.370 101.707, 259.743 105.135, 267.848 105.748 L 275.405 106.319 271.834 101.410 C 269.870 98.709, 267.329 94.362, 266.188 91.750 C 263.734 86.134, 263.816 86.140, 251.210 90.524 M 134 90 C 134 90.550, 134.483 91, 135.074 91 C 135.665 91, 138.753 93.484, 141.935 96.520 C 152.282 106.389, 157.286 121.764, 153.986 133.549 C 151.276 143.230, 139.393 152.111, 124.632 155.489 C 118.491 156.894, 114.537 157.153, 106.629 156.669 C 93.284 155.853, 85.475 153.275, 72.303 145.337 C 54.378 134.535, 54.872 134.722, 51.171 137.308 C 49.446 138.514, 48.027 139.747, 48.017 140.049 C 48.008 140.351, 49.507 141.143, 51.349 141.809 C 59.833 144.877, 69.218 155.508, 72.906 166.227 C 75.580 173.999, 77.259 186.015, 76.470 191.726 C 75.585 198.127, 73.334 205.842, 71.561 208.547 C 70.165 210.678, 70.256 210.774, 74.308 211.407 C 76.614 211.768, 85.025 212.334, 93 212.666 L 107.500 213.270 107.804 208.385 C 108.450 198.022, 111.149 190.698, 117.357 182.462 C 123.639 174.129, 131.060 170.414, 143.676 169.289 C 150 168.725, 160.313 170.749, 166.343 173.738 C 167.907 174.513, 169.482 174.849, 169.843 174.485 C 170.204 174.120, 170.445 166.100, 170.378 156.661 C 170.231 135.818, 168.445 127.307, 161.114 112.492 C 157.106 104.392, 154.831 101.199, 149.178 95.742 C 142.870 89.653, 141.798 89, 138.097 89 C 135.844 89, 134 89.450, 134 90 M 276.142 94.750 C 288.103 107.394, 286.223 113.513, 270.383 113.486 C 262.763 113.473, 262.251 113.601, 263.155 115.290 C 265.241 119.187, 267.020 126.853, 267.629 134.566 L 268.267 142.632 276.044 143.765 C 280.394 144.399, 286.785 146.243, 290.548 147.949 C 294.249 149.627, 297.439 151, 297.638 151 C 298.691 151, 297.785 131.568, 296.493 126.460 C 292.906 112.270, 286.148 99.732, 279.248 94.463 C 273.277 89.904, 271.696 90.050, 276.142 94.750 M 117.212 93.430 C 114.303 94.146, 110.157 95.527, 107.999 96.501 L 104.074 98.270 109.287 102.280 C 119.738 110.318, 126.240 122.281, 128.561 137.739 C 129.343 142.952, 129.736 147.618, 129.433 148.109 C 127.433 151.345, 140.318 143.497, 144.372 139.010 C 151.930 130.644, 151.655 120.271, 143.539 107.659 C 139.839 101.908, 137.378 99.462, 131.500 95.689 C 126.210 92.294, 123.547 91.873, 117.212 93.430 M 305.197 101.133 L 301.894 102.085 304.502 105.185 C 313.210 115.534, 316.982 132.944, 313.616 147.250 L 312.263 153 316.457 153 C 324.055 153, 328 145.439, 328 130.879 C 328 121.790, 325.791 114.871, 320.524 107.463 C 315.411 100.271, 312.441 99.044, 305.197 101.133 M 92.092 103.097 C 86.593 105.536, 60 127.830, 60 130.001 C 60 131.675, 84.808 146.551, 91.278 148.757 C 99.094 151.421, 111.072 152.530, 118.965 151.320 C 124.029 150.544, 124.500 150.239, 125.381 147.168 C 126.619 142.849, 123.917 131.095, 119.478 121.500 C 115.830 113.614, 107.851 105.067, 101.782 102.545 C 97.299 100.682, 97.570 100.667, 92.092 103.097 M 298.580 109.750 C 303.863 122.075, 306.535 136.089, 305.540 146.250 C 305.176 149.963, 305.120 153, 305.414 153 C 305.708 153, 306.743 151.537, 307.715 149.750 C 310.449 144.718, 310.155 126.400, 307.221 119 C 305.034 113.485, 299.676 106, 297.914 106 C 297.396 106, 297.696 107.688, 298.580 109.750 M 34.763 150.750 C 27.153 158.044, 18.158 169.574, 16.101 174.672 C 14.444 178.781, 14.355 186.029, 15.916 189.796 C 16.592 191.429, 19.093 194.164, 21.472 195.873 C 28.979 201.264, 47.810 207.787, 61.067 209.588 C 65.124 210.140, 65.799 209.947, 67.123 207.854 C 69.638 203.880, 72.001 193.383, 71.983 186.265 C 71.964 178.963, 69.406 167.594, 66.535 162.058 C 63.838 156.856, 55.008 147.948, 50.500 145.879 C 43.987 142.891, 42.474 143.359, 34.763 150.750 M 262.396 152.418 C 255.242 154.657, 249.284 159.524, 246.505 165.397 C 238.922 181.427, 239.254 194.600, 247.516 205.432 C 250.287 209.065, 256.272 213.125, 260.900 214.511 L 263.300 215.230 261.108 212.151 C 254.945 203.497, 252.798 186.844, 256.446 176 C 259.961 165.552, 267.124 156.516, 274.250 153.540 C 276.313 152.678, 278 151.754, 278 151.487 C 278 150.486, 266.346 151.182, 262.396 152.418 M 279.764 155.996 C 261.703 161.434, 253.131 190.182, 264.205 208.179 C 267.459 213.468, 270.628 215.597, 276.687 216.566 C 289.464 218.609, 301.038 206.898, 304.069 188.860 C 305.181 182.246, 305.133 180.376, 303.709 174.605 C 300.149 160.179, 290.577 152.740, 279.764 155.996 M 275.194 172.042 C 270.654 176.493, 269.013 180.858, 269.007 188.500 C 268.995 204.094, 284.611 210.570, 294.342 199.005 C 300.994 191.099, 300.538 175.715, 293.486 170.168 C 291.390 168.519, 289.363 168, 285.024 168 C 279.704 168, 279.039 168.273, 275.194 172.042 M 278.674 174.818 C 277.141 176.419, 275.231 179.905, 274.430 182.565 C 273.142 186.845, 273.153 188.015, 274.525 192.735 C 275.793 197.097, 276.680 198.357, 279.393 199.650 C 282.428 201.098, 283.001 201.093, 286.149 199.600 C 291.284 197.163, 293.455 192.787, 293.480 184.827 C 293.506 176.220, 291.212 172.645, 285.381 172.204 C 282.147 171.959, 280.975 172.416, 278.674 174.818 M 135.616 178.639 C 129.151 180.624, 125.610 183.373, 121.452 189.638 C 116.565 197, 114.625 206.066, 115.928 215.440 C 117.223 224.745, 118.382 227.725, 122.311 231.839 C 125.034 234.690, 133.641 240, 135.540 240 C 135.874 240, 134.729 237.522, 132.997 234.494 C 125.661 221.673, 127.758 200.184, 137.603 187.276 C 138.991 185.457, 142.454 182.400, 145.300 180.484 L 150.473 177 145.487 177.070 C 142.744 177.108, 138.302 177.814, 135.616 178.639 M 153.140 180.999 C 149.217 181.925, 140.702 189.832, 137.996 195.060 C 135.305 200.258, 132.999 210.002, 133.006 216.144 C 133.016 226.273, 136.888 234.903, 143.859 240.339 C 147.125 242.885, 148.118 243.137, 153.500 242.783 C 161.382 242.266, 165.837 239.987, 170.231 234.224 C 180.822 220.333, 181.852 199.952, 172.576 187.803 C 167.499 181.154, 161.449 179.036, 153.140 180.999 M 152.290 194.965 C 146.764 198.334, 143.606 204.282, 143.161 212.157 C 142.698 220.351, 143.933 223.856, 148.785 228.116 C 151.959 230.903, 152.831 231.175, 157.236 230.751 C 163.558 230.144, 166.839 227.690, 170.250 221.020 C 175.154 211.429, 172.997 198.118, 165.947 194.473 C 161.993 192.428, 156.103 192.640, 152.290 194.965 M 153.358 199.772 C 148.578 203.627, 146.046 213.691, 148.268 220 C 149.857 224.513, 154.895 227.281, 158.948 225.868 C 160.473 225.337, 163.013 223.553, 164.593 221.903 C 167.115 219.271, 167.511 218.018, 167.832 211.647 C 168.170 204.959, 167.988 204.139, 165.511 201.195 C 163.378 198.660, 162.066 198.005, 159.161 198.022 C 157.147 198.034, 154.536 198.822, 153.358 199.772 M 49.500 216.974 C 55.783 219.810, 58.303 220.409, 57.818 218.953 C 57.587 218.261, 55.171 217.109, 52.449 216.392 C 45.717 214.618, 44.718 214.816, 49.500 216.974 M 63.500 220 C 63.846 220.560, 67.941 220.941, 72.809 220.866 C 80.810 220.743, 81.103 220.671, 76.500 219.954 C 69.116 218.804, 62.775 218.826, 63.500 220" stroke="none" fill="black" fill-rule="evenodd"/>
</svg>