<svg xmlns="http://www.w3.org/2000/svg" width="344" height="261" viewBox="0 0 344 261" version="1.1">
	<path d="M 251 8.587 C 190.508 14.634, 174.820 17.173, 163.500 22.750 C 159.595 24.674, 155.184 28.806, 153.411 32.200 C 151.691 35.492, 151.617 42.918, 153.282 45.087 C 154.987 47.308, 158.604 49.090, 160.178 48.484 C 161.198 48.091, 161.423 49.212, 161.163 53.385 L 160.827 58.794 156.163 60.526 C 150.939 62.466, 145.644 67.002, 143.437 71.427 C 142.629 73.045, 141.463 78.488, 140.844 83.522 L 139.720 92.674 131.860 93.605 L 124 94.536 124 85.177 L 124 75.818 130.446 65.550 C 133.991 59.902, 137.177 54.143, 137.526 52.752 C 138.328 49.558, 132.152 34.796, 127.423 28.603 C 123.183 23.050, 117.928 20.906, 107 20.272 C 92.999 19.459, 81.507 22.573, 78.478 28.001 C 77.711 29.376, 75.200 33.875, 72.899 38 C 66.887 48.775, 67.004 52.040, 73.793 63 C 76.689 67.675, 79.830 72.595, 80.772 73.932 L 82.486 76.365 79.898 74.669 C 76.566 72.485, 64.051 71.587, 57.743 73.078 C 49.906 74.931, 49 76.903, 49 92.109 L 49 104.949 46.198 106.398 C 42.540 108.289, 36.009 115.423, 32.583 121.269 C 27.546 129.863, 25.012 149.653, 27.528 160.750 C 27.809 161.987, 27.692 163.003, 27.269 163.007 C 26.846 163.011, 25.423 164.595, 24.107 166.527 C 20.444 171.906, 20.753 179.475, 24.910 186.161 L 28.105 191.302 25.473 194.901 C 16.898 206.628, 7 222.239, 7 224.036 C 7 225.189, 7.513 227.089, 8.139 228.260 C 9.805 231.372, 19.545 242.908, 24.174 247.250 L 28.171 251 37.488 251 C 45.623 251, 83.775 248.190, 100.208 246.380 C 103.771 245.987, 106.520 245.083, 107.526 243.972 C 109.051 242.286, 109.351 242.426, 113.207 246.609 C 118.285 252.117, 125.333 254.488, 134.457 253.755 C 144.381 252.959, 150.215 249.130, 155.414 240 C 156.823 237.525, 157.981 236.044, 157.988 236.708 C 158.009 238.845, 166.694 243.091, 173.274 244.181 C 188.947 246.778, 201.222 236.670, 202.741 219.918 L 203.250 214.308 206.375 220.259 C 208.910 225.086, 210.616 226.898, 215.413 229.855 L 221.325 233.500 233.413 233.500 C 244.688 233.500, 245.802 233.322, 250 230.851 C 257.185 226.621, 264.960 216.453, 264.988 211.250 C 265.005 208.102, 266.136 208.462, 268.709 212.436 C 273.897 220.446, 284.854 224.681, 298 223.757 C 305.834 223.206, 311.123 220.697, 316.816 214.831 C 322.033 209.456, 324.564 204.169, 326.076 195.487 C 328.405 182.110, 325.648 169.376, 318.914 162.417 L 315.931 159.334 321.657 158.052 C 329.407 156.318, 333.008 152.747, 332.978 146.827 C 332.954 142.222, 331.085 139.046, 327.239 137.076 L 324.979 135.918 325.239 93.209 L 325.500 50.500 329.783 49.145 C 333.191 48.066, 334.491 46.958, 336.141 43.724 C 337.965 40.148, 338.071 39.180, 337.019 35.670 C 335.377 30.189, 332.631 26.758, 326.617 22.675 C 314.984 14.778, 304.593 10.913, 288.618 8.541 C 276.481 6.738, 269.405 6.747, 251 8.587 M 258.500 16.025 C 253 16.504, 244.900 17.358, 240.500 17.925 C 236.100 18.491, 227.351 19.482, 221.058 20.128 L 209.616 21.302 214.579 22.572 C 222.539 24.609, 233.970 30.275, 241.227 35.781 L 247.954 40.885 273.727 37.580 C 287.902 35.762, 304.450 33.713, 310.500 33.027 C 316.550 32.341, 322.062 31.474, 322.749 31.101 C 324.295 30.260, 315.425 24.740, 307.279 21.473 C 294.844 16.485, 276.621 14.450, 258.500 16.025 M 175.791 27.325 C 166.355 30.457, 160 34.604, 160 37.628 C 160 39.866, 161.408 39.813, 166.716 37.373 C 176.185 33.021, 183.286 31.763, 195.916 32.199 C 210.907 32.717, 220.301 35.881, 234.750 45.276 L 245 51.941 245 48.555 C 245 45.793, 244.166 44.436, 240.465 41.178 C 229.623 31.634, 208.715 23.960, 193.804 24.051 C 187.217 24.091, 183.492 24.768, 175.791 27.325 M 90.500 28.913 C 87.706 29.543, 87.836 29.638, 92.390 30.295 C 98.272 31.143, 111.339 31.025, 115.500 30.087 C 118.294 29.457, 118.164 29.362, 113.610 28.705 C 107.728 27.857, 94.661 27.975, 90.500 28.913 M 80.609 40.638 C 78.624 44.376, 77 47.732, 77 48.096 C 77 50.977, 109.374 53.147, 121.101 51.051 C 124.892 50.374, 128.235 49.429, 128.530 48.951 C 128.825 48.474, 127.480 44.931, 125.540 41.078 L 122.012 34.074 115.256 34.787 C 106.263 35.736, 95.670 35.689, 89.359 34.671 L 84.218 33.842 80.609 40.638 M 288.500 40.073 C 268.150 42.727, 250.889 44.921, 250.142 44.949 C 249.164 44.986, 248.976 45.770, 249.473 47.748 C 249.852 49.259, 250.284 50.617, 250.432 50.765 C 251.313 51.647, 328.595 41.739, 329.735 40.598 C 330.904 39.430, 328.880 35.006, 327.231 35.124 C 326.279 35.193, 308.850 37.420, 288.500 40.073 M 180.500 39.380 C 171.121 41.357, 170.002 42.253, 169.989 47.785 C 169.983 50.378, 169.700 54.185, 169.359 56.244 C 168.776 59.773, 168.934 60.069, 172.120 61.414 L 175.500 62.840 176.181 56.274 C 177.068 47.731, 178.383 46.426, 185.787 46.749 C 194.831 47.142, 222.150 51.938, 225.976 53.805 C 230.468 55.995, 231.375 59.954, 230.586 73.922 C 229.877 86.495, 228.953 88, 221.944 88 C 219.334 88, 212.092 87.147, 205.849 86.106 C 185.089 82.640, 185.309 82.653, 185.477 84.943 C 185.559 86.052, 185.891 87.224, 186.215 87.548 C 186.539 87.872, 190.920 88.523, 195.950 88.995 C 203.570 89.710, 205.881 90.358, 209.798 92.878 C 225.335 102.872, 233.410 119.379, 233.467 141.262 C 233.489 149.816, 233.768 151.919, 234.829 151.512 C 235.563 151.230, 237.252 151, 238.582 151 L 241 151 241 104.537 L 241 58.075 234.750 53.894 C 231.313 51.595, 227.544 48.853, 226.375 47.800 C 225.206 46.747, 220.031 44.289, 214.875 42.336 C 207.026 39.364, 203.954 38.731, 196 38.450 C 190.751 38.265, 183.815 38.681, 180.500 39.380 M 181.630 53.250 C 180.296 58.230, 180.997 67.571, 183 71.500 C 184.100 73.658, 185 75.985, 185 76.673 C 185 78.524, 190.064 79.545, 216.911 83.112 C 222.744 83.886, 224.498 83.820, 225.146 82.798 C 226.095 81.301, 226.270 63.608, 225.368 60.244 C 224.602 57.386, 219.607 55.978, 200 53.094 C 182.243 50.482, 182.372 50.481, 181.630 53.250 M 302.500 51.985 C 295.563 52.772, 253.078 57.990, 248.250 58.648 L 245 59.091 245 104.545 C 245 129.545, 245.375 150, 245.834 150 C 246.869 150, 283.939 144.562, 297.500 142.421 C 303 141.553, 309.525 140.535, 312 140.159 L 316.500 139.476 316.760 95.238 L 317.021 51 312.760 51.152 C 310.417 51.236, 305.800 51.611, 302.500 51.985 M 78.491 55.092 C 78.933 55.867, 80.267 57.850, 81.455 59.500 C 82.643 61.150, 85.127 65.200, 86.975 68.500 C 90.221 74.296, 90.351 74.953, 90.802 87.857 L 91.268 101.214 94.602 102.607 C 98.495 104.233, 111.257 104.468, 114.066 102.965 C 115.839 102.016, 116 100.745, 116 87.693 L 116 73.456 121.500 65 C 124.525 60.349, 127 56.196, 127 55.772 C 127 54.753, 125.602 54.792, 114.259 56.130 C 105.093 57.211, 87.326 56.276, 80.094 54.332 C 78.207 53.825, 77.861 53.989, 78.491 55.092 M 291 57.524 C 286.325 58.214, 277.641 59.347, 271.702 60.043 C 256.342 61.842, 257 60.605, 257 87.670 C 257 105.686, 257.255 109.460, 258.615 111.535 C 260.558 114.500, 263.822 114.677, 278 112.589 C 283.225 111.819, 290.852 110.867, 294.948 110.473 C 301.255 109.867, 302.826 109.328, 305.198 106.956 L 308 104.154 308 82.531 L 308 60.909 305.545 58.455 C 302.832 55.741, 303.003 55.752, 291 57.524 M 279 63.652 C 273.775 64.416, 267.925 65.370, 266 65.771 L 262.500 66.500 262.230 88.250 C 262.082 100.213, 262.187 110, 262.463 110 C 264.129 110, 295.942 105.773, 298.905 105.158 L 302.500 104.412 302.770 83.206 L 303.040 62 295.770 62.131 C 291.771 62.203, 284.225 62.888, 279 63.652 M 156.116 68.712 C 151.159 71.154, 149.049 76.535, 149.022 86.801 L 149 95.102 152.750 96.702 C 158.539 99.173, 170.887 99.627, 174.961 97.520 L 178.280 95.804 177.743 86.051 C 177.090 74.214, 175.603 70.859, 170.018 68.624 C 164.873 66.565, 160.417 66.594, 156.116 68.712 M 69.578 79.755 C 69.291 80.043, 70.168 81.600, 71.528 83.216 C 73.758 85.866, 74 87.037, 74 95.193 C 74 104.080, 74.038 104.223, 76.250 103.630 C 77.487 103.299, 79.063 103.021, 79.750 103.014 C 80.660 103.004, 81 100.457, 81 93.655 C 81 85.698, 80.714 84.051, 79.073 82.566 C 77.092 80.773, 70.509 78.824, 69.578 79.755 M 58.250 82.134 C 57.563 82.830, 57 84.055, 57 84.855 C 57 86.055, 57.320 86.020, 58.829 84.655 C 61.296 82.422, 62.320 82.557, 65.923 85.589 C 68.058 87.385, 69 87.739, 69 86.744 C 69 83.154, 60.739 79.612, 58.250 82.134 M 59.820 90.496 C 58.880 92.558, 58.998 93.340, 60.496 94.996 C 62.873 97.622, 63.804 97.524, 65.180 94.504 C 66.120 92.442, 66.002 91.660, 64.504 90.004 C 62.127 87.378, 61.196 87.476, 59.820 90.496 M 186.309 95.250 C 185.864 95.938, 185.044 97.386, 184.486 98.470 C 183.928 99.553, 182.031 101.411, 180.270 102.597 L 177.070 104.753 179.143 106.627 C 182.227 109.413, 188.675 123.627, 190.026 130.619 C 191.259 136.998, 190.950 153.153, 189.534 156.340 C 188.776 158.048, 189.137 158.132, 194.609 157.513 C 204.412 156.405, 225.352 152.981, 225.945 152.389 C 226.250 152.084, 226.651 148.159, 226.836 143.667 C 227.589 125.388, 219.868 107.495, 207.595 99.073 C 201.443 94.851, 188.116 92.458, 186.309 95.250 M 68.207 98.682 C 66.327 102.087, 63.234 102.549, 59.720 99.951 C 57.213 98.097, 56.788 98.004, 57.335 99.430 C 57.701 100.383, 58 101.577, 58 102.082 C 58 102.587, 60.489 103, 63.531 103 C 69.284 103, 70.571 102.036, 69.791 98.308 C 69.451 96.682, 69.291 96.720, 68.207 98.682 M 139.458 104.623 C 144.881 108.764, 150.962 117.613, 154.049 125.854 C 158.123 136.732, 158.879 154.498, 155.591 162.106 C 154.961 163.563, 155.991 163.544, 166.698 161.903 C 186.357 158.892, 184.503 159.666, 185.831 153.910 C 187.550 146.463, 187.260 137.335, 185.025 128.596 C 182.994 120.655, 178.045 110.195, 175.140 107.705 C 174.184 106.886, 169.023 105.828, 162.769 105.171 C 156.866 104.550, 150.399 103.358, 148.397 102.521 C 146.394 101.685, 142.496 101, 139.734 101 L 134.712 101 139.458 104.623 M 122.731 103.921 C 122.454 104.978, 120.318 106.817, 117.983 108.009 C 114.208 109.935, 112.618 110.119, 103.619 109.669 C 98.053 109.392, 92.020 108.849, 90.211 108.463 C 86.941 107.766, 86.956 107.796, 92.778 113.631 C 103.183 124.059, 107.529 137.161, 106.761 155.790 C 106.496 162.230, 105.923 168.339, 105.488 169.365 C 104.755 171.095, 105.086 171.180, 110.099 170.545 C 126.074 168.521, 148.641 164.713, 149.658 163.869 C 153.367 160.790, 153.947 138.578, 150.568 129 C 146.164 116.516, 137.817 106.489, 129.460 103.641 C 123.434 101.588, 123.340 101.592, 122.731 103.921 M 78.536 111.718 C 89.392 119.746, 95.722 133.096, 96.687 150 C 97.564 165.372, 94.114 178.181, 86.882 186.397 C 81.684 192.302, 83.313 192.323, 89.861 186.435 C 102.412 175.151, 106.188 153.811, 99.332 132.913 C 95.336 120.734, 86.447 110.926, 78 109.376 L 74.500 108.733 78.536 111.718 M 54.776 111.554 C 43.243 115.195, 35.054 130.380, 35.015 148.201 C 34.993 158.199, 37.861 170.256, 41.867 177 C 45.204 182.619, 52.421 188.979, 57.296 190.598 C 76.999 197.143, 92 181.368, 92 154.105 C 92 138.585, 87.924 126.972, 79.500 118.487 C 72.370 111.306, 63.469 108.810, 54.776 111.554 M 55.590 117.525 C 42.538 120.839, 34.507 140.170, 38.408 158.882 C 42.293 177.511, 52 187.105, 65.550 185.707 C 72.702 184.969, 76.734 182.559, 80.723 176.638 C 84.772 170.628, 85.974 166.570, 86.683 156.500 C 87.643 142.889, 83.126 130.057, 74.612 122.210 C 72.100 119.894, 69.697 117.980, 69.272 117.956 C 68.848 117.932, 66.658 117.556, 64.407 117.119 C 61.856 116.625, 58.534 116.778, 55.590 117.525 M 54.445 121.959 C 50.495 123.559, 46.096 129.872, 43.904 137.089 C 39.274 152.333, 44.463 173.016, 54.581 179.645 C 60.633 183.610, 72.671 181.483, 76.402 175.790 C 81.773 167.593, 83.646 150.905, 80.416 140.028 C 76.981 128.463, 69.329 120.950, 61.100 121.063 C 58.570 121.098, 55.575 121.501, 54.445 121.959 M 52.217 138.561 C 47.978 141.530, 45.329 149.904, 46.557 156.452 C 47.561 161.805, 52.682 167.035, 57.549 167.676 C 60.964 168.126, 62.120 167.770, 64.935 165.401 C 72.978 158.634, 73.037 146.416, 65.059 139.703 C 61.346 136.579, 55.756 136.082, 52.217 138.561 M 54.457 143.283 C 49.211 147.796, 50.542 160.735, 56.485 162.994 C 59.884 164.287, 62.381 162.700, 64.563 157.861 C 66.761 152.987, 65.782 147.628, 62.003 143.850 C 58.561 140.407, 57.862 140.354, 54.457 143.283 M 311 146.123 C 306.325 146.595, 298.450 147.852, 293.500 148.916 C 288.550 149.981, 279.775 151.362, 274 151.985 C 268.225 152.608, 260.800 153.738, 257.500 154.496 C 254.200 155.255, 248.350 156.162, 244.500 156.513 C 240.650 156.864, 229.534 158.467, 219.798 160.076 C 210.061 161.684, 200.161 163.007, 197.798 163.016 C 195.434 163.024, 190.800 163.702, 187.500 164.521 C 184.200 165.341, 175.269 166.877, 167.654 167.936 C 160.038 168.994, 153.664 170.004, 153.489 170.180 C 153.313 170.356, 154.241 171.744, 155.550 173.265 C 158.273 176.429, 154.294 176.684, 191.500 170.960 C 201.950 169.352, 213.200 167.634, 216.500 167.141 C 219.800 166.649, 226.775 165.525, 232 164.644 C 250.962 161.445, 279.638 157.049, 285.500 156.441 C 288.800 156.099, 298.629 154.509, 307.343 152.909 C 316.057 151.309, 323.594 150, 324.093 150 C 324.592 150, 325 148.875, 325 147.500 C 325 144.666, 325.224 144.688, 311 146.123 M 294.500 165.599 C 289.694 168.217, 285.012 173.128, 282.343 178.349 C 279.623 183.674, 279.765 184.544, 283.203 183.629 C 284.613 183.254, 286.213 181.459, 287.346 178.980 C 289.868 173.463, 295.172 170, 301.097 170 C 306.667 170, 310.131 172.377, 313.132 178.258 C 317.269 186.368, 313.915 201.988, 306.914 207.215 C 302.889 210.220, 296.604 211.279, 292.636 209.621 C 289.141 208.161, 285.499 203.897, 284.855 200.511 C 284.386 198.044, 281.211 197.286, 280.383 199.444 C 279.008 203.026, 285.416 212.612, 291.176 215.591 C 296.536 218.363, 306.457 214.908, 311.818 208.405 C 313.474 206.396, 315.828 201.645, 317.049 197.847 C 320.890 185.903, 318.172 172.107, 310.968 166.977 C 306.739 163.966, 298.729 163.296, 294.500 165.599 M 270 166.037 C 268.075 166.428, 263.001 167.320, 258.725 168.019 L 250.950 169.291 253.859 171.061 C 257.285 173.144, 261.213 178.097, 263.328 183 C 264.158 184.925, 264.874 185.729, 264.918 184.788 C 265.074 181.518, 269.169 171.952, 271.702 168.942 C 273.103 167.278, 274.080 165.783, 273.874 165.621 C 273.668 165.459, 271.925 165.647, 270 166.037 M 280.930 168.682 C 275.124 173.928, 269.978 185, 273.347 185 C 274.127 185, 275.670 182.426, 276.882 179.104 C 278.171 175.569, 280.626 171.566, 283.015 169.104 C 287.966 164.002, 286.451 163.694, 280.930 168.682 M 30 175.050 C 30 179.517, 32.363 185.009, 34.276 184.985 C 34.949 184.976, 36.084 184.599, 36.797 184.146 C 37.844 183.482, 37.817 183.093, 36.657 182.130 C 35.866 181.474, 34.257 178.701, 33.082 175.969 C 31.906 173.236, 30.732 171, 30.472 171 C 30.212 171, 30 172.822, 30 175.050 M 134.500 173.544 C 121.456 175.241, 118.717 175.954, 119.874 177.348 C 123.176 181.327, 125.037 193.195, 122.965 197.066 C 122.168 198.554, 122.256 199, 123.344 199 C 126.645 199, 147.010 195.065, 148.875 194.067 C 154.849 190.870, 152.338 175.364, 145.469 173.040 C 144.386 172.673, 139.450 172.900, 134.500 173.544 M 222.916 175.657 C 217.062 179.292, 210 194.069, 210 202.685 C 210 208.786, 212.930 216.783, 216.586 220.659 C 220.484 224.793, 222.242 224.559, 219.227 220.308 C 210.692 208.271, 213.144 188.034, 224.504 176.750 C 227.580 173.695, 226.867 173.204, 222.916 175.657 M 232.804 175.983 C 228.719 178.204, 225.405 182.178, 221.949 189 C 219.147 194.529, 218.134 206.845, 220.011 212.535 C 221.754 217.815, 228.417 224.768, 232.872 225.955 C 242.176 228.435, 252.071 221.918, 256.007 210.720 C 258.349 204.057, 258.444 203, 256.698 203 C 255.981 203, 254.612 205.137, 253.655 207.750 C 250.502 216.359, 245.992 220.007, 238.527 219.985 C 231.786 219.965, 228.947 218.359, 226.179 212.997 C 224.185 209.131, 223.912 207.370, 224.239 200.456 C 224.573 193.406, 225.008 191.849, 227.765 187.842 C 233.806 179.061, 243.355 177.644, 250.036 184.537 C 252.885 187.476, 257 189.215, 257 187.480 C 257 185.868, 251.647 178.885, 248.928 176.948 C 244.515 173.807, 237.572 173.391, 232.804 175.983 M 294.239 177.420 C 290.147 181.170, 290.222 182.626, 294.426 181.028 C 298.762 179.380, 301.915 179.824, 304.545 182.455 C 306.961 184.870, 307.714 188.976, 306.379 192.455 C 305.435 194.914, 300.600 196.998, 295.800 197.015 C 289.606 197.037, 288.212 198.149, 290.329 201.379 C 295.980 210.003, 307.297 205.167, 309.903 193.015 C 312.104 182.753, 307.785 174, 300.520 174 C 299.012 174, 296.447 175.397, 294.239 177.420 M 209.500 175.704 C 207.850 175.927, 202.225 176.763, 197 177.561 C 191.775 178.360, 182.550 179.687, 176.500 180.509 C 159.946 182.758, 160.001 182.741, 159.994 185.829 C 159.977 194.161, 155.140 200.474, 147.887 201.634 L 143.929 202.267 147.714 204.764 C 149.796 206.137, 151.999 207.877, 152.610 208.630 C 153.494 209.721, 154.409 208.846, 157.110 204.324 C 158.974 201.202, 162.190 197.297, 164.256 195.645 C 167.606 192.965, 168.902 192.598, 176.256 192.243 C 183.762 191.880, 184.992 192.097, 190 194.672 C 194.084 196.772, 196.399 198.867, 198.992 202.810 L 202.484 208.121 203.701 199.037 C 204.947 189.737, 208.103 181.694, 212.249 177.250 C 213.404 176.012, 213.933 175.067, 213.424 175.150 C 212.916 175.232, 211.150 175.482, 209.500 175.704 M 104.501 180.638 C 100.527 186.703, 102.191 194.931, 108.296 199.408 C 110.851 201.282, 111.318 201.331, 113.725 199.979 C 118.973 197.031, 119.127 185.973, 113.991 180.837 C 110.376 177.222, 106.789 177.147, 104.501 180.638 M 233.508 188.250 C 229.251 192.244, 227.401 198.519, 228.438 205.438 C 229.738 214.105, 236.228 218.132, 243.533 214.803 C 246.080 213.642, 250.699 206.365, 249.591 205.258 C 249.289 204.956, 246.663 205.386, 243.755 206.213 C 237.899 207.879, 234.746 207.263, 233.065 204.122 C 229.366 197.210, 234.994 190, 244.090 190 C 247.807 190, 248.552 188.500, 245.794 186.568 C 242.052 183.947, 237.417 184.581, 233.508 188.250 M 288.500 187.584 C 283 188.884, 273.550 190.646, 267.500 191.501 C 241.615 195.156, 237 196.384, 237 199.622 C 237 201.389, 237.340 201.373, 248.843 199.051 C 262.002 196.395, 290.624 192, 294.760 192 C 299.096 192, 302 190.424, 302 188.072 C 302 186.631, 299.601 184.498, 298.668 185.110 C 298.576 185.171, 294 186.284, 288.500 187.584 M 93.750 191.083 C 92.076 192.917, 92.087 193, 94 193 C 95.333 193, 96 192.333, 96 191 C 96 188.629, 95.990 188.630, 93.750 191.083 M 36.827 193.750 C 33.471 197.372, 23.265 211.018, 18.512 218.236 L 14.736 223.972 18.377 228.415 C 20.379 230.859, 24.278 235.331, 27.040 238.354 L 32.063 243.849 37.281 243.417 C 40.152 243.180, 53.075 242.316, 66 241.499 C 101.099 239.278, 102 239.166, 102 237.025 C 102 233.923, 95.067 200.665, 94.262 199.903 C 93.843 199.507, 84.909 199.030, 74.408 198.842 L 55.316 198.500 47.908 194.746 C 43.834 192.681, 40.247 190.993, 39.937 190.996 C 39.627 190.998, 38.228 192.238, 36.827 193.750 M 30.227 204.750 C 20.054 218.996, 18.263 222.407, 19.912 224.393 C 20.645 225.277, 21.789 226, 22.453 226 C 23.893 226, 28.832 219.280, 32.007 213 C 33.259 210.525, 36.023 205.875, 38.149 202.667 C 42.101 196.707, 42.298 195, 39.036 195 C 37.843 195, 34.725 198.451, 30.227 204.750 M 42.023 201.750 C 39.273 204.264, 25 228.012, 25 230.075 C 25 230.561, 26.747 231.850, 28.881 232.939 C 32.535 234.803, 32.852 234.819, 34.275 233.210 C 36.213 231.018, 46.426 212.505, 48.965 206.581 C 50.706 202.520, 50.749 201.892, 49.382 200.525 C 47.193 198.335, 45.439 198.627, 42.023 201.750 M 165.696 202.795 C 161.770 206.894, 159.641 213.973, 160.432 220.304 C 160.790 223.171, 161.525 226.188, 162.065 227.009 C 162.736 228.027, 162.843 226.859, 162.405 223.328 C 161.552 216.458, 163.505 208.414, 167.157 203.750 C 170.585 199.373, 169.594 198.726, 165.696 202.795 M 174.898 202.263 C 167.588 207.132, 164.684 221.239, 169.187 230 C 174.954 241.220, 190.396 237.349, 194.068 223.763 C 195.575 218.187, 194.662 209.807, 192.095 205.654 C 188.420 199.708, 180.947 198.234, 174.898 202.263 M 272.552 200.916 C 271.602 202.453, 273.718 206.682, 277.572 210.948 C 282.177 216.046, 284.090 216.270, 280.153 211.250 C 278.535 209.188, 276.623 205.813, 275.905 203.750 C 274.601 200.009, 273.623 199.182, 272.552 200.916 M 47.288 218.644 C 39.003 235.706, 38.823 237.279, 45.101 237.760 C 51.298 238.235, 52.711 236.577, 58.534 222 C 61.499 214.575, 63.943 207.803, 63.963 206.950 C 64.022 204.485, 61.871 203, 58.242 203 C 54.898 203, 54.852 203.066, 47.288 218.644 M 70.263 204.658 C 68.970 205.181, 60 231.784, 60 235.096 C 60 236.708, 60.748 237, 64.889 237 C 72.124 237, 73.453 235.362, 75.843 223.500 C 79.054 207.562, 79.083 207.226, 77.396 205.539 C 75.896 204.039, 72.755 203.651, 70.263 204.658 M 85.835 204.673 C 84.919 204.915, 83.873 205.876, 83.510 206.807 C 82.458 209.503, 80.618 232.561, 81.310 234.365 C 82.222 236.743, 90.144 236.604, 92.345 234.171 C 95.491 230.695, 94.117 207.009, 90.639 204.765 C 89.428 203.984, 88.503 203.966, 85.835 204.673 M 42.253 207.692 C 38.709 212.757, 30.197 228.864, 30.765 229.432 C 31.547 230.214, 33.229 227.609, 39.507 215.897 C 44.895 205.846, 46.132 202.150, 42.253 207.692 M 104.309 207.599 C 104.606 208.644, 105.414 212.813, 106.105 216.862 L 107.360 224.225 108.568 220.135 C 109.232 217.886, 110.726 214.435, 111.888 212.466 C 113.049 210.497, 114 208.745, 114 208.574 C 114 208.402, 112.537 208.016, 110.750 207.716 C 108.963 207.416, 106.661 206.839, 105.635 206.434 C 104.131 205.840, 103.874 206.066, 104.309 207.599 M 56.684 209.360 C 55.833 210.658, 52.893 216.733, 50.150 222.860 C 45.841 232.487, 45.411 234, 46.988 234 C 48.360 234, 49.934 231.336, 53.337 223.250 C 59.351 208.958, 60.750 203.154, 56.684 209.360 M 177.303 208.149 C 174.494 209.567, 172 214.809, 172 219.295 C 172 227.372, 181.995 232.096, 187.479 226.612 C 191.654 222.437, 191.687 212.475, 187.538 209.032 C 185.534 207.369, 179.824 206.876, 177.303 208.149 M 69.070 219.250 C 67.311 224.887, 65.646 230.287, 65.369 231.250 C 65.008 232.503, 65.436 233, 66.874 233 C 67.978 233, 69.093 232.659, 69.351 232.242 C 69.800 231.515, 72.091 220.609, 73.445 212.750 C 74.701 205.456, 72.226 209.135, 69.070 219.250 M 86.596 216.270 C 86.234 220.246, 85.676 225.412, 85.355 227.750 C 84.882 231.201, 85.070 232, 86.351 232 C 89.311 232, 90.176 228.334, 89.439 218.913 C 89.054 213.987, 88.405 209.750, 87.997 209.498 C 87.588 209.246, 86.958 212.293, 86.596 216.270 M 119.676 212.250 C 116.047 217.114, 115.179 219.167, 114.458 224.602 C 113.737 230.042, 115.073 236.473, 117.561 239.531 C 119.151 241.485, 119.158 241.485, 118.448 239.500 C 118.055 238.400, 117.304 235.165, 116.778 232.311 C 115.619 226.016, 117.664 217.741, 121.509 213.172 C 124.184 209.992, 124.551 209, 123.051 209 C 122.529 209, 121.010 210.463, 119.676 212.250 M 129.033 211.626 C 118.847 220.196, 118.974 239.315, 129.251 244.630 C 135.201 247.707, 144.485 243.890, 148.050 236.902 C 152.478 228.223, 151.433 218.499, 145.426 212.493 C 142.388 209.455, 141.297 209, 137.043 209 C 133.224 209, 131.470 209.575, 129.033 211.626 M 179.337 212.477 C 176.385 214.544, 175.547 218.659, 177.477 221.606 C 179.166 224.183, 182.821 224.779, 184.800 222.800 C 186.522 221.078, 186.281 214.424, 184.429 212.571 C 182.489 210.632, 181.984 210.623, 179.337 212.477 M 133.256 216.029 C 126.377 218.794, 124.873 232.080, 130.913 236.718 C 133.423 238.645, 139.420 238.244, 142.331 235.955 C 148.097 231.419, 147.739 220.641, 141.699 216.958 C 138.207 214.829, 136.664 214.659, 133.256 216.029 M 132.994 222.734 C 131.441 224.709, 131.006 226.280, 131.428 228.389 C 132.641 234.457, 136.447 235.789, 139.927 231.365 C 142.397 228.225, 142.565 225.252, 140.443 222.223 C 138.350 219.233, 135.600 219.422, 132.994 222.734" stroke="none" fill="black" fill-rule="evenodd"/>
</svg>