<svg xmlns="http://www.w3.org/2000/svg" width="335" height="269" viewBox="0 0 335 269" version="1.1">
	<path d="M 178.011 8.615 C 170.042 9.370, 155.867 10.610, 146.511 11.372 C 122.157 13.355, 117.493 15.827, 116.300 27.380 C 115.823 32, 116.051 33.051, 117.938 34.938 C 119.648 36.648, 119.992 37.831, 119.500 40.315 C 118.178 46.999, 115.678 58.010, 112.400 71.580 C 110.530 79.324, 109 86.492, 109 87.509 C 109 90.080, 106.768 96, 105.799 96 C 105.360 96, 105 90.931, 105 84.735 C 105 74.979, 104.704 72.937, 102.788 69.485 C 101.090 66.426, 100.434 63.148, 99.964 55.374 C 99.356 45.299, 99.329 45.215, 94.690 38.714 C 89.092 30.869, 84.554 27.749, 79.381 28.188 C 74.327 28.616, 71.476 32.505, 71.568 38.845 C 71.622 42.529, 72.428 44.715, 75.318 49.006 C 78.527 53.771, 79 55.231, 79 60.376 C 79 64.625, 78.553 66.606, 77.406 67.445 C 75.462 68.866, 74.111 79.308, 74.033 93.500 L 73.978 103.500 64.239 106.483 C 52.571 110.057, 42.320 114.848, 39.284 118.148 C 35.554 122.202, 34 128.379, 34 139.150 C 34 149.030, 33.995 149.052, 31.250 150.091 C 27.891 151.364, 24 154.883, 24 156.649 C 24 157.364, 22.685 158.628, 21.079 159.459 C 17.231 161.449, 14.343 165.636, 13.442 170.534 C 13.040 172.715, 11.598 175.836, 10.236 177.469 C 8.029 180.116, 7.815 181.109, 8.259 186.640 C 8.543 190.179, 8.325 193.275, 7.750 193.850 C 6.377 195.223, 6.645 203.476, 8.152 206.247 C 8.826 207.486, 9.468 210.127, 9.578 212.115 C 9.891 217.778, 12.917 222.966, 19.952 229.904 C 29.266 239.088, 34.529 241.250, 48.902 241.794 C 62.258 242.299, 66.017 241.421, 74.157 235.893 C 79.696 232.132, 85 226.442, 85 224.263 C 85 222.561, 87.695 222, 95.832 222.005 L 103.500 222.010 103.754 226.432 C 104.043 231.465, 106.562 237.357, 111.370 244.246 C 116.306 251.318, 117.583 252.502, 123.806 255.782 C 134.443 261.387, 150.417 263.562, 157.782 260.408 C 159.827 259.532, 163.641 258.164, 166.258 257.367 C 170.772 255.992, 178 250.175, 178 247.917 C 178 247.358, 179.502 245.354, 181.338 243.464 C 184.450 240.259, 187 234.466, 187 230.599 C 187 229.681, 187.660 227.923, 188.466 226.692 C 189.273 225.461, 190.060 221.867, 190.216 218.706 C 190.495 213.063, 190.564 212.940, 194 212.015 C 195.925 211.497, 201.188 210.769, 205.696 210.397 C 213.770 209.731, 213.899 209.757, 214.383 212.111 C 214.653 213.425, 215.142 215.759, 215.468 217.298 C 216.021 219.904, 222.218 227, 223.941 227 C 224.364 227, 225.924 228.912, 227.407 231.250 C 232.255 238.889, 242.147 243.884, 256.650 246.016 C 270.350 248.029, 279.865 247.803, 284.500 245.353 C 286.700 244.191, 290.488 242.908, 292.918 242.504 C 296.344 241.933, 298.365 240.722, 301.918 237.111 C 304.438 234.550, 307.753 231.818, 309.284 231.040 C 312.575 229.368, 315.728 224.610, 316.671 219.893 C 317.043 218.035, 318.359 215.719, 319.595 214.747 C 322.618 212.369, 325.366 204.900, 324.729 200.792 C 324.375 198.504, 324.867 196.434, 326.343 194.004 C 328.948 189.717, 329.261 180.532, 326.922 177.010 C 325.572 174.976, 325.552 174.155, 326.764 170.476 C 328.434 165.403, 327.115 159.030, 323.681 155.579 C 322.333 154.225, 321.431 151.968, 321.320 149.675 C 321.221 147.633, 320.193 144.430, 319.036 142.559 L 316.933 139.156 318.993 138.502 C 322.530 137.380, 324.339 133.492, 323.653 128.487 C 322.073 116.958, 309.351 106.183, 291.806 101.515 C 287.857 100.464, 284.840 99.070, 284.449 98.117 C 284.085 97.228, 283.410 93.575, 282.948 90 C 282.131 83.666, 280.818 75.878, 277.470 57.500 C 274.286 40.021, 274.194 38.479, 276.185 36.020 C 278.701 32.913, 278.621 24.741, 276.034 20.555 C 272.740 15.225, 268.307 13.799, 247.927 11.510 C 240.542 10.681, 228.875 9.331, 222 8.510 C 207.185 6.741, 197.550 6.764, 178.011 8.615 M 191.500 15.529 C 189.796 16.162, 154.147 19, 147.906 19 C 144.635 19, 142 19.446, 142 20 C 142 20.550, 143.688 21.008, 145.750 21.018 C 147.813 21.028, 154.225 21.710, 160 22.533 C 190.039 26.814, 194.395 27.052, 214.500 25.505 C 264.016 21.697, 264.740 21.476, 237.500 18.492 C 229.250 17.588, 220.055 16.433, 217.066 15.924 C 211.861 15.039, 193.582 14.756, 191.500 15.529 M 126.329 22.771 C 125.685 23.183, 124.856 24.725, 124.487 26.197 C 123.711 29.286, 121.926 28.782, 145 31.985 C 171.903 35.719, 185.434 37, 197.494 36.954 C 209.691 36.907, 236.775 34.907, 249.500 33.113 C 253.350 32.570, 259.538 31.837, 263.250 31.484 C 269.319 30.906, 269.998 30.622, 269.985 28.670 C 269.956 24.582, 269.075 24.333, 257.535 25.150 C 251.504 25.577, 244.529 26.357, 242.035 26.884 C 239.541 27.410, 233.225 28.115, 228 28.450 C 222.775 28.785, 212.650 29.543, 205.500 30.135 C 194.682 31.031, 190.066 30.930, 178 29.537 C 170.025 28.616, 161.485 27.419, 159.023 26.876 C 156.561 26.334, 149.092 25.252, 142.426 24.472 C 135.759 23.692, 129.674 22.822, 128.902 22.538 C 128.131 22.253, 126.973 22.358, 126.329 22.771 M 79.667 36.667 C 78.372 37.961, 79.042 39.609, 83 44.877 C 86.968 50.159, 87 50.271, 87 59.100 L 87 68 89.877 68 C 92.650 68, 92.742 67.846, 92.405 63.750 C 92.213 61.413, 91.866 56.414, 91.634 52.642 C 91.227 46.006, 91.058 45.627, 86.394 40.892 C 81.477 35.900, 80.836 35.498, 79.667 36.667 M 126.650 45.250 C 125.642 49.788, 123.467 59.125, 121.816 66 C 115.646 91.692, 115.095 95, 116.982 95 C 118.305 95, 119.033 93.042, 120.422 85.750 C 121.391 80.662, 124.167 67.780, 126.592 57.123 C 129.016 46.466, 131 37.578, 131 37.373 C 131 37.168, 130.433 37, 129.741 37 C 128.979 37, 127.759 40.255, 126.650 45.250 M 136.786 38.282 C 135.956 38.952, 134.512 42.875, 133.577 47 C 132.643 51.125, 131.214 57.425, 130.401 61 C 129.588 64.575, 127.659 73.350, 126.113 80.500 L 123.303 93.500 135.401 94.159 C 147.475 94.816, 161.418 97.655, 167.429 100.679 C 169.118 101.529, 171.956 103.605, 173.735 105.294 C 175.514 106.982, 177.171 108.163, 177.416 107.917 C 177.661 107.672, 179.049 98.703, 180.500 87.986 C 181.952 77.269, 183.935 63.100, 184.907 56.500 C 185.880 49.900, 186.536 44.226, 186.365 43.890 C 186.195 43.555, 182.556 42.976, 178.278 42.603 C 167.615 41.674, 139.966 38.097, 139.045 37.528 C 138.632 37.273, 137.616 37.612, 136.786 38.282 M 263.380 39.452 C 263.074 40.251, 263.070 41.304, 263.371 41.792 C 263.851 42.568, 265.997 55.885, 270.494 86 C 271.471 92.542, 271.492 94.791, 270.582 95.764 C 268.709 97.768, 245.379 101.559, 243.667 100.138 C 242.722 99.354, 242.053 95.516, 241.595 88.240 C 241.223 82.333, 240.508 72.775, 240.007 67 C 239.505 61.225, 238.810 53.013, 238.462 48.750 C 237.971 42.731, 237.487 41, 236.297 41 C 234.990 41, 234.872 42.138, 235.495 48.750 C 237.818 73.437, 239.569 101.725, 238.860 103.147 C 238.409 104.053, 234.414 107.819, 229.982 111.515 C 225.551 115.211, 218.987 121.998, 215.395 126.597 C 207.003 137.345, 204.260 139.281, 196.649 139.832 C 191.696 140.190, 190.437 139.951, 189.333 138.441 C 187.507 135.943, 187.595 116.337, 189.511 99 C 191.309 82.728, 195.909 48.142, 196.577 45.874 C 196.877 44.857, 196.338 44.060, 195.139 43.747 C 191.214 42.720, 191.976 39.430, 185.549 85.164 C 183.720 98.180, 181.922 109.317, 181.553 109.914 C 181.184 110.511, 179.753 111, 178.374 111 C 176.445 111, 175.990 111.405, 176.406 112.750 C 177.176 115.239, 178.979 146.720, 178.990 157.866 L 179 167.233 185.750 166.593 C 202.726 164.982, 201.855 165.281, 203.043 160.658 C 207.906 141.729, 211.719 133.780, 221.167 122.880 C 233.660 108.468, 253.664 99.039, 271.817 99.008 C 275.449 99.001, 276.056 98.722, 275.639 97.250 C 275.367 96.287, 274.829 92.575, 274.445 89 C 274.061 85.425, 273.161 79.350, 272.447 75.500 C 271.732 71.650, 269.911 61.638, 268.399 53.250 C 265.824 38.960, 264.727 35.943, 263.380 39.452 M 247.500 39.892 L 243.500 40.500 243.145 46 C 242.702 52.879, 246.596 96, 247.661 96 C 249.039 96, 266.588 92.730, 266.911 92.413 C 267.349 91.984, 265.766 82.022, 263.427 70.500 C 262.036 63.642, 258 40.626, 258 39.547 C 258 38.890, 253.010 39.054, 247.500 39.892 M 213.795 42.933 C 207.908 43.245, 202.626 43.966, 202.059 44.537 C 200.506 46.096, 192.034 113.625, 192.011 124.625 C 191.993 133.272, 192.883 136, 195.724 136 C 200.397 136, 204.917 132.857, 209.898 126.144 C 214.402 120.072, 221.469 112.698, 231.238 103.876 L 234.976 100.500 233.004 74 C 230.595 41.636, 230.652 41.944, 227.171 42.183 C 225.702 42.284, 219.683 42.621, 213.795 42.933 M 82.623 84.827 C 82.265 91.247, 82.316 97.652, 82.736 99.060 L 83.500 101.621 90.329 100.082 L 97.157 98.544 96.829 86.853 C 96.648 80.422, 96.264 74.926, 95.976 74.640 C 95.687 74.353, 92.712 73.901, 89.363 73.636 L 83.274 73.153 82.623 84.827 M 116 101.510 C 106.104 103.012, 75.592 110.719, 64.295 114.569 C 55.252 117.651, 45.351 122.644, 44.648 124.475 C 44.306 125.367, 45.843 125.933, 49.831 126.381 C 52.949 126.732, 60 127.912, 65.500 129.005 C 71 130.097, 78.199 131.498, 81.497 132.117 C 86.197 133.001, 88.178 133.970, 90.655 136.596 C 94.283 140.442, 94.496 142.042, 95.814 175.195 C 96.222 185.477, 96.822 194.155, 97.146 194.479 C 98.256 195.590, 107.499 192.880, 109.721 190.793 C 110.942 189.645, 112.441 187.195, 113.050 185.349 C 113.813 183.038, 115.504 181.203, 118.480 179.459 C 121.067 177.943, 123.047 175.948, 123.414 174.488 C 124.874 168.669, 152.436 164.955, 162.250 169.255 C 165.574 170.711, 166.390 170.735, 169.437 169.462 C 174.769 167.234, 174.887 165.281, 172.043 126.500 C 170.933 111.359, 170.718 110.744, 167.180 112.590 C 165.706 113.359, 163.559 113.990, 162.409 113.994 C 161.259 113.997, 158.109 114.710, 155.409 115.578 C 152.709 116.446, 146.675 118.195, 142 119.464 C 133.109 121.880, 102.701 131.242, 99.851 132.442 C 97.775 133.316, 96.256 131.085, 98.122 129.904 C 103.050 126.785, 154.695 111.406, 163.854 110.329 L 169.342 109.684 166.479 107.401 C 162.998 104.626, 154.530 102.372, 142.500 101.018 C 131.434 99.773, 126.881 99.858, 116 101.510 M 264 106.637 C 252.343 108.339, 247.183 110.245, 238.670 115.990 C 234.024 119.126, 220 133.497, 220 135.123 C 220 135.629, 218.911 137.721, 217.581 139.771 C 213.929 145.399, 208.459 163.548, 210.108 164.567 C 210.603 164.872, 214.202 165.464, 218.107 165.881 L 225.207 166.640 230.081 156.228 C 241.815 131.165, 257.206 117.872, 277.614 115.176 C 291.434 113.350, 303.022 116.809, 311.194 125.199 C 316.282 130.423, 316.873 130.589, 314.577 126.148 C 312.406 121.951, 304.842 115.454, 298.252 112.127 C 289.295 107.606, 274.075 105.166, 264 106.637 M 284.813 120.683 C 285.534 120.972, 286.397 120.936, 286.729 120.604 C 287.061 120.272, 286.471 120.036, 285.417 120.079 C 284.252 120.127, 284.015 120.364, 284.813 120.683 M 293.256 123.425 C 296.972 124.771, 301.317 126.801, 302.911 127.936 C 306.359 130.392, 307.756 130.616, 305.935 128.422 C 303.836 125.893, 295.537 122.096, 290.833 121.513 C 286.850 121.019, 287.045 121.174, 293.256 123.425 M 157.863 129.250 C 157.461 138.812, 158.343 154.574, 159.314 155.184 C 161.604 156.621, 162 154.449, 162 140.441 C 162 126.667, 161.908 126, 160 126 C 158.438 126, 157.970 126.712, 157.863 129.250 M 148.667 127.667 C 147.668 128.665, 147.893 154.282, 148.914 155.896 C 149.400 156.663, 150.519 157.015, 151.399 156.677 C 152.753 156.158, 153 154.064, 153 143.113 C 153 135.991, 152.727 129.452, 152.393 128.582 C 151.769 126.956, 149.849 126.485, 148.667 127.667 M 269 128.897 C 272.591 130.056, 274.929 130.344, 275.737 129.724 C 277.384 128.462, 280 129.546, 280 131.490 C 280 134.471, 275.859 135.277, 269.292 133.576 C 259.886 131.138, 257.943 131.439, 252.920 136.109 C 250.424 138.429, 249.351 139.932, 250.455 139.561 C 254.188 138.309, 260.508 137.919, 261.896 138.856 C 264.450 140.580, 262.343 143, 258.281 143.006 C 252.905 143.014, 247.402 144.734, 244.557 147.297 C 242.478 149.169, 237 157.908, 237 159.352 C 237 159.608, 238.718 158.989, 240.817 157.974 C 246.805 155.081, 249.479 154.668, 250.926 156.411 C 252.009 157.716, 251.770 158.129, 249.352 159.124 C 237.711 163.917, 233.924 166.070, 233.039 168.398 C 231.562 172.282, 227.807 174.201, 222.339 173.864 C 217.676 173.578, 217.552 173.645, 216.902 176.825 C 216.285 179.844, 216.513 180.221, 220.054 182.028 C 222.154 183.099, 224.645 185.283, 225.588 186.880 L 227.304 189.785 232.677 183.982 C 238.546 177.643, 243.118 175.232, 244.991 177.489 C 245.863 178.540, 245.171 179.475, 241.803 181.797 C 239.436 183.428, 235.561 187.066, 233.190 189.881 C 230.820 192.696, 228.163 195, 227.286 195 C 226.408 195, 223.889 193.106, 221.687 190.792 L 217.685 186.584 218.269 193.029 C 218.808 198.977, 219.160 199.743, 222.833 202.987 C 231.350 210.505, 233 211.729, 233 210.529 C 233 208.487, 239.822 200.191, 242.093 199.470 C 245.803 198.293, 246.189 200.429, 242.923 204.059 C 241.220 205.952, 239.137 208.850, 238.293 210.500 C 234.355 218.201, 231.258 218.830, 226.227 212.952 C 222.323 208.391, 221.517 208.316, 223.029 212.654 C 224.653 217.311, 239.287 228.352, 241.034 226.238 C 241.370 225.832, 243.112 223.588, 244.906 221.250 C 248.022 217.190, 251.169 215.846, 252.503 218.006 C 252.845 218.559, 251.581 220.921, 249.695 223.256 C 247.808 225.590, 245.739 228.512, 245.097 229.750 C 244.436 231.024, 242.969 232.019, 241.715 232.044 C 240.034 232.077, 240.343 232.405, 243 233.406 C 244.925 234.131, 247.739 235.226, 249.252 235.838 C 251.833 236.883, 252.159 236.709, 254.462 233.060 C 257.357 228.474, 258.277 227.785, 260.410 228.604 C 262.539 229.421, 262.430 229.998, 259.499 233.406 C 258.124 235.004, 257 236.652, 257 237.068 C 257 237.484, 258.895 238.144, 261.212 238.536 C 264.842 239.149, 265.618 238.954, 266.834 237.124 C 268.619 234.435, 272.591 234.367, 274 237 C 275.432 239.675, 277.906 239.520, 282 236.500 C 284.100 234.951, 286.741 233.994, 288.944 233.985 C 293.428 233.965, 294.677 233.158, 296.797 228.912 C 297.933 226.637, 299.333 225.388, 301 225.162 C 305.100 224.609, 308 221.170, 308 216.863 C 308 213.729, 308.715 212.387, 312.140 209.096 C 315.951 205.435, 316.231 204.814, 315.658 201.309 C 315.044 197.551, 317.379 189, 319.019 189 C 320.799 189, 320.767 184.261, 318.959 180.173 C 316.691 175.047, 316.549 172.889, 318.183 168.370 C 319.486 164.768, 319.005 163.308, 314.465 157.081 C 312.918 154.961, 312.199 152.949, 312.569 151.783 C 313.285 149.528, 310.553 145, 308.477 145 C 306.178 145, 303 141.262, 303 138.557 C 303 135.407, 299.380 132.726, 296.911 134.048 C 293.783 135.722, 290.960 135.079, 288.194 132.064 C 284.457 127.991, 281.156 126.990, 271.685 127.061 L 263.500 127.122 269 128.897 M 139.237 129.163 C 138.384 130.016, 138 134.350, 138 143.118 C 138 156.485, 138.396 159, 140.500 159 C 142.593 159, 143 156.493, 143 143.609 C 143 130.855, 141.873 126.527, 139.237 129.163 M 42 136.519 C 42 147.365, 45.097 184.412, 46.105 185.627 C 47.205 186.952, 57.851 189.620, 75.301 192.943 C 92.141 196.150, 91 196.662, 91 185.900 C 91 172.327, 88.929 142.760, 87.835 140.702 C 87.309 139.713, 85.784 138.488, 84.446 137.979 C 80.736 136.569, 49.773 131, 45.641 131 L 42 131 42 136.519 M 129 145.833 C 129 153.992, 129.269 160.936, 129.598 161.264 C 129.927 161.593, 130.827 161.620, 131.598 161.324 C 132.714 160.896, 133 157.747, 133 145.893 C 133 131.667, 132.910 131, 131 131 C 129.090 131, 129 131.667, 129 145.833 M 309 133 C 309 133.550, 309.477 134, 310.059 134 C 310.641 134, 310.840 133.550, 310.500 133 C 310.160 132.450, 309.684 132, 309.441 132 C 309.198 132, 309 132.450, 309 133 M 46.478 138.035 C 45.690 139.310, 47.863 177.843, 48.953 181.916 C 49.333 183.337, 50.445 184.654, 51.423 184.843 C 53.095 185.165, 53.158 184.194, 52.463 168.856 C 51.246 142.013, 50.738 137.568, 48.843 137.206 C 47.932 137.032, 46.868 137.405, 46.478 138.035 M 57.345 161.074 C 57.987 182.419, 58.788 187.587, 61.318 186.713 C 62.562 186.284, 62.615 163.989, 61.413 147.250 C 60.875 139.765, 60.628 139, 58.751 139 C 56.701 139, 56.688 139.206, 57.345 161.074 M 67.064 149.680 C 67.186 166.431, 68.642 187.042, 69.785 188.185 C 70.625 189.025, 71.281 189.012, 72.340 188.132 C 73.395 187.257, 73.647 185.332, 73.308 180.725 C 73.057 177.301, 72.547 167.075, 72.176 158 C 71.516 141.885, 71.448 141.493, 69.250 141.180 C 67.059 140.869, 67.002 141.091, 67.064 149.680 M 78.194 143.266 C 76.654 145.121, 78.646 188.155, 80.321 189.219 C 83.173 191.030, 83.493 189.010, 83.113 171.612 C 82.526 144.766, 81.562 139.208, 78.194 143.266 M 273.263 155.099 C 268.607 157.404, 263.257 163.971, 259.780 171.651 C 257.997 175.589, 257.580 178.378, 257.560 186.500 C 257.539 195.050, 257.883 197.211, 259.931 201.403 C 263.759 209.238, 269.559 214.565, 275.665 215.853 C 291.889 219.275, 305 203.781, 305 181.187 C 305 160.456, 289.004 147.307, 273.263 155.099 M 32.750 159.533 C 30.966 161.922, 30.395 165.026, 31.750 164.968 C 33.880 164.878, 35.528 162.306, 35.033 159.845 L 34.500 157.190 32.750 159.533 M 288.692 161.250 C 293.552 166.371, 295.294 170.764, 295.792 179.153 C 296.585 192.522, 292.528 202.647, 283.798 209.089 C 279.710 212.106, 279.646 212.228, 282.500 211.589 C 288.143 210.323, 293.326 205.847, 296.500 199.500 C 299.009 194.481, 299.558 192.054, 299.853 184.654 C 300.063 179.399, 299.687 173.952, 298.926 171.237 C 297.487 166.097, 290.483 158, 287.475 158 C 285.901 158, 286.093 158.511, 288.692 161.250 M 271.198 162.815 C 269.420 164.476, 266.766 168.454, 265.301 171.655 C 263.031 176.612, 262.641 178.810, 262.666 186.487 C 262.720 203.233, 268.610 210.751, 278.685 206.933 C 287.693 203.520, 293.681 188.998, 291.192 176.603 C 288.952 165.450, 285.657 161.300, 278.254 160.307 C 275.003 159.871, 273.948 160.246, 271.198 162.815 M 23.646 168.940 C 22.166 172.296, 22.077 173.524, 23.071 176.842 L 24.248 180.771 27.874 178.311 C 29.868 176.957, 32.737 175.603, 34.250 175.300 C 36.438 174.862, 37 174.196, 37 172.042 C 37 168.400, 36.411 168.019, 32.850 169.359 C 30.076 170.402, 29.625 170.262, 27.607 167.734 L 25.399 164.968 23.646 168.940 M 192.500 171.057 C 190.300 171.512, 186.159 171.911, 183.297 171.942 C 180.435 171.974, 177.054 172.474, 175.782 173.053 C 173.488 174.099, 173.505 174.143, 178.088 178.897 C 180.627 181.531, 183.002 184.871, 183.365 186.318 C 183.728 187.764, 185.133 190.580, 186.486 192.575 C 189.108 196.438, 190.636 202.162, 189.526 203.959 C 189.068 204.700, 190.074 204.893, 192.676 204.564 C 194.779 204.298, 199.049 203.838, 202.165 203.542 C 210.490 202.749, 211.041 202.415, 209.813 198.892 C 209.066 196.749, 209.125 195.114, 210.027 192.934 C 211.081 190.390, 210.999 189.325, 209.495 185.990 C 208.153 183.013, 207.874 180.730, 208.354 176.649 L 208.988 171.248 205.869 170.624 C 201.983 169.847, 197.678 169.986, 192.500 171.057 M 271.033 174.964 C 266.166 180.175, 265.669 187.823, 269.923 192.077 C 274.660 196.814, 281.474 195.852, 284.490 190.020 C 290.443 178.507, 279.334 166.078, 271.033 174.964 M 143.741 175.014 C 146.624 175.435, 149.662 176.040, 150.491 176.358 C 151.321 176.677, 152.755 176.648, 153.677 176.294 C 156.582 175.179, 152.263 174.134, 145 174.195 L 138.500 174.250 143.741 175.014 M 157 177.917 C 157 180.521, 155.740 180.805, 146.795 180.222 C 141.656 179.888, 138.036 180.157, 135.927 181.030 C 132.992 182.246, 132.631 182.166, 130.905 179.920 C 129.882 178.589, 129.034 178.015, 129.022 178.644 C 129.010 179.274, 127.693 181.188, 126.095 182.899 C 124.338 184.780, 123.376 186.724, 123.663 187.818 C 124.105 189.508, 124.459 189.467, 129.056 187.192 C 135.545 183.980, 142.719 183.104, 143.606 185.415 C 144.456 187.632, 144.094 187.881, 139.111 188.507 C 136.774 188.801, 132.197 190.386, 128.941 192.030 L 123.019 195.019 121.010 193.010 C 119.904 191.904, 118.982 190.438, 118.961 189.750 C 118.917 188.340, 116.234 194.053, 114.968 198.255 C 114.299 200.473, 114.620 201.583, 116.617 203.956 C 119.058 206.857, 119.126 206.874, 121.007 204.993 C 123.864 202.136, 130.859 198.839, 133.317 199.191 C 137.386 199.773, 136.320 202.415, 131.276 204.244 C 128.649 205.197, 124.977 207.332, 123.114 208.988 C 118.961 212.683, 117.726 212.738, 115.059 209.347 C 113.911 207.888, 112.794 206.876, 112.577 207.097 C 112.359 207.319, 112.050 209.344, 111.889 211.599 C 111.638 215.120, 112.133 216.317, 115.405 220.099 L 119.213 224.500 123.624 220.250 C 127.724 216.300, 131.213 214.918, 132.369 216.787 C 132.636 217.220, 129.724 220.413, 125.897 223.882 C 119.010 230.123, 118.911 230.172, 116.415 228.536 C 115.028 227.627, 113.644 226.235, 113.339 225.442 C 112.124 222.276, 111.277 224.253, 112.233 228.022 C 112.956 230.869, 114.709 233.351, 118.236 236.522 L 123.217 241.001 126.149 236.953 C 129.414 232.446, 131.802 231.062, 132.992 232.988 C 133.716 234.159, 129.721 240.610, 125.510 245.071 C 124.184 246.476, 124.419 246.829, 127.737 248.412 L 131.448 250.181 133.676 247.591 C 136.005 244.883, 138.421 244.254, 139.539 246.063 C 139.900 246.648, 139.477 247.921, 138.598 248.892 C 137.719 249.863, 137 251.132, 137 251.712 C 137 253.450, 142.335 253.980, 144.079 252.416 C 146.123 250.582, 148.436 250.615, 150 252.500 C 151.673 254.516, 153.236 254.389, 156.284 251.991 C 157.689 250.886, 160.337 249.698, 162.169 249.350 C 166.703 248.490, 169 247.203, 169 245.524 C 169 244.750, 171.025 242.064, 173.500 239.553 C 177.590 235.405, 178 234.545, 178 230.129 C 178 226.835, 178.625 224.476, 179.939 222.805 C 181.631 220.654, 181.840 218.991, 181.580 209.713 C 181.292 199.411, 181.186 198.976, 178.141 195.508 C 176.214 193.313, 175 190.845, 175 189.120 C 175 185.808, 172.273 183, 169.056 183 C 167.720 183, 165.437 181.545, 163.564 179.500 C 160.023 175.634, 157 174.905, 157 177.917 M 273.526 178.950 C 271.701 182.479, 271.531 188.131, 273.200 189.800 C 276.411 193.011, 282 189.151, 282 183.723 C 282 176.666, 276.352 173.485, 273.526 178.950 M 17.668 181.106 C 16.459 185.622, 17.003 189.329, 19.498 193.587 L 21.996 197.850 25.079 195.006 C 26.774 193.441, 28.583 191.788, 29.098 191.331 C 29.613 190.874, 30.959 189.262, 32.090 187.750 C 33.220 186.238, 35.012 185, 36.073 185 C 38.016 185, 38.493 183.448, 37.415 180.639 C 36.896 179.286, 36.416 179.302, 33.165 180.783 C 31.149 181.702, 28.427 183.251, 27.115 184.227 C 23.643 186.808, 22.273 186.438, 20.178 182.356 C 18.374 178.838, 18.286 178.795, 17.668 181.106 M 38.203 193.197 C 36.912 194.488, 36.607 198.813, 37.621 201.455 C 38.934 204.877, 46.562 207.118, 75.498 212.587 C 85.070 214.396, 90.079 214.871, 94.498 214.390 C 102.100 213.563, 103.597 212.764, 104.320 209.152 C 104.641 207.547, 105.184 205.114, 105.527 203.747 L 106.152 201.260 93.326 201.294 C 83.265 201.321, 77.805 200.766, 68 198.720 C 57.182 196.462, 46.255 193.921, 40.953 192.429 C 40.102 192.190, 38.865 192.535, 38.203 193.197 M 155.275 194.044 C 145.594 196.124, 138.983 207.857, 140.300 220.622 C 141.434 231.606, 147.247 238, 156.100 238 C 160.329 238, 161.345 237.551, 164.591 234.250 C 170.169 228.577, 172.382 222.859, 172.427 214 C 172.457 208.219, 171.979 205.583, 170.339 202.500 C 166.575 195.419, 161.676 192.670, 155.275 194.044 M 15 197.836 C 15 200.140, 18.049 206.369, 21.278 210.657 C 24.649 215.136, 26 215.970, 26 213.572 C 26 212.787, 27.428 211.027, 29.173 209.661 C 32.276 207.233, 32.310 207.121, 30.673 204.624 C 29.753 203.220, 28.995 200.817, 28.989 199.285 L 28.978 196.500 26.416 199.750 C 25.008 201.537, 23.347 203, 22.725 203 C 22.104 203, 20.111 201.562, 18.298 199.804 C 16.484 198.046, 15 197.160, 15 197.836 M 160.850 200.340 C 167.893 207.837, 165.367 226.756, 156.611 232.095 L 153.500 233.993 156.217 233.996 C 161.834 234.004, 169.010 223.096, 168.994 214.572 C 168.981 207.083, 164.127 198, 160.139 198 C 159.025 198, 159.203 198.588, 160.850 200.340 M 149.921 202.250 C 144.747 207.648, 142.923 220.178, 146.354 226.750 C 150.088 233.900, 158.011 228.586, 160.447 217.299 C 161.505 212.393, 160.076 205.374, 157.438 202.528 C 154.548 199.410, 152.709 199.342, 149.921 202.250 M 30.028 215.451 C 28.282 218.503, 26.497 221, 26.061 221 C 25.626 221, 24.084 220.067, 22.635 218.927 C 21.186 217.788, 20 217.253, 20 217.740 C 20 218.854, 24.597 223.075, 28.352 225.408 C 31.159 227.152, 31.246 227.139, 33.906 224.590 C 36.798 221.819, 41 221.103, 41 223.381 C 41 224.141, 39.650 226.083, 38 227.696 L 34.999 230.629 38.618 232.355 L 42.237 234.081 41.594 231.520 C 40.776 228.258, 42.495 225, 45.035 225 C 47.283 225, 47.706 227.882, 45.750 229.871 C 44.747 230.891, 44.967 231.523, 46.861 233.071 C 49.296 235.061, 54 235.717, 54 234.067 C 54 232.575, 57.971 231.731, 59.403 232.920 C 61.156 234.374, 71.491 229.023, 75.260 224.710 L 78.020 221.552 75.760 220.706 C 74.517 220.242, 68.905 219.490, 63.289 219.036 C 55.950 218.443, 52.152 217.648, 49.789 216.211 C 47.980 215.111, 44.485 213.882, 42.022 213.479 C 39.559 213.077, 36.567 212.107, 35.373 211.325 C 33.307 209.971, 33.050 210.169, 30.028 215.451" stroke="none" fill="black" fill-rule="evenodd"/>
</svg>