<svg xmlns="http://www.w3.org/2000/svg" width="416" height="231" viewBox="0 0 416 231" version="1.1">
	<path d="M 290.500 7.778 C 284.761 9.006, 262.316 18.661, 259.545 21.094 C 255.692 24.478, 253.615 31.807, 254.144 40.152 L 254.500 45.754 239 46.274 C 212.139 47.175, 202.134 51.086, 182.796 68.243 C 175.579 74.647, 174.632 75.167, 167.796 76.481 C 150.740 79.758, 139.680 83.506, 136.169 87.199 C 133.418 90.092, 131.054 96.624, 130.993 101.500 C 130.962 103.998, 130.105 105.043, 125.874 107.743 L 120.792 110.985 116.382 106.080 C 105.455 93.926, 74.569 88.084, 59.702 95.358 C 47.651 101.253, 39.194 114.595, 36.187 132.457 C 34.427 142.912, 34.313 143.185, 30.810 145.319 C 15.916 154.397, 7.616 164.258, 6.982 173.627 C 6.154 185.882, 10.084 189.022, 22.375 185.927 C 28.247 184.449, 34.430 186.762, 48.956 195.875 C 66.314 206.764, 75.121 209.003, 108.417 210.995 C 118.652 211.607, 130.169 212.924, 135.314 214.070 C 145.319 216.298, 146 216.574, 146 218.385 C 146 219.081, 147.105 220.689, 148.455 221.957 C 152.510 225.767, 158.367 224.956, 176.981 218.007 L 193.142 211.974 202.821 215.062 C 210.052 217.369, 215.162 218.291, 223.024 218.706 C 232.598 219.212, 234.094 219.042, 239.587 216.823 C 242.909 215.481, 247.294 213.060, 249.332 211.442 C 253.752 207.934, 259.910 199.246, 262.405 193 C 263.393 190.525, 264.792 187.105, 265.514 185.399 L 266.826 182.298 277.163 181.594 C 294.785 180.395, 313.993 174.387, 316.941 169.152 C 317.759 167.698, 318.268 167.868, 321.185 170.570 C 325.738 174.786, 328.443 176.283, 336 178.766 C 351.693 183.922, 370.611 184.457, 379.420 179.993 C 400.413 169.355, 410.861 133.833, 399.944 110.210 C 398.238 106.520, 395.740 102.050, 394.392 100.277 C 389.571 93.941, 380.025 89.064, 369.156 87.385 C 364.354 86.644, 364.468 86.741, 359.443 79.064 L 355.885 73.628 357.103 66.814 C 358.156 60.920, 358.607 60, 360.441 60 C 362.039 60, 362.924 61.048, 364.031 64.250 C 365.124 67.411, 366.396 68.938, 369 70.211 C 372.221 71.785, 373.080 71.802, 379.772 70.415 C 391.505 67.984, 402.056 63.860, 404.297 60.829 C 406.605 57.708, 408.872 46.190, 408.947 37.205 C 408.992 31.848, 408.641 30.550, 406.593 28.502 C 403.865 25.774, 400.651 25.898, 391.285 29.091 C 385.396 31.098, 389.627 31.545, 333.500 22.988 C 295.147 17.141, 298.683 17.995, 297.948 14.402 C 296.875 9.155, 294.391 6.945, 290.500 7.778 M 288.500 16.780 C 287.950 17.273, 283.900 18.937, 279.500 20.477 C 264.706 25.656, 262 28.051, 262 35.965 C 262 40.969, 262.820 43.006, 264.564 42.337 C 265.589 41.944, 265.701 41.309, 264.982 39.966 C 262.186 34.742, 264.388 32.380, 279 24.929 C 284.775 21.984, 289.652 19.481, 289.838 19.366 C 290.025 19.251, 290.025 18.420, 289.838 17.520 C 289.629 16.506, 289.119 16.224, 288.500 16.780 M 286.831 26.826 C 283.760 28.442, 279.670 30.284, 277.744 30.919 C 275.818 31.555, 273.517 32.877, 272.630 33.856 C 270.780 35.900, 268.604 35.365, 303.500 41.454 C 314.500 43.374, 327.325 45.622, 332 46.451 C 336.675 47.279, 344.775 48.646, 350 49.488 C 355.225 50.330, 360.683 51.264, 362.128 51.562 C 364.287 52.008, 364.864 51.678, 365.357 49.715 C 366.166 46.492, 369.681 42.164, 373.258 39.989 L 376.193 38.204 369.347 36.666 C 365.581 35.820, 358.675 34.630, 354 34.023 C 349.325 33.415, 343.025 32.483, 340 31.950 C 336.975 31.417, 325.950 29.612, 315.500 27.938 C 305.050 26.264, 295.581 24.668, 294.458 24.391 C 293.290 24.103, 290.026 25.145, 286.831 26.826 M 393.853 36.064 C 389.645 37.059, 378.211 42.678, 376 44.838 C 371.143 49.582, 369.299 58.292, 372.286 62.377 C 373.429 63.940, 374.127 64.005, 378.536 62.964 C 385.378 61.347, 396.267 57.844, 397.610 56.828 C 398.594 56.083, 400.292 47.534, 401.301 38.250 C 401.693 34.638, 400.885 34.400, 393.853 36.064 M 277.487 46.859 L 272.575 48.427 278.395 49.848 C 283.347 51.056, 284.347 51.062, 285.093 49.884 C 287.642 45.859, 284.516 44.616, 277.487 46.859 M 292.052 49.902 C 290.535 52.737, 291.174 53.531, 296.407 55.314 L 300.812 56.815 301.471 53.305 C 301.833 51.375, 301.912 49.579, 301.647 49.314 C 301.382 49.049, 299.372 48.591, 297.181 48.297 C 293.827 47.848, 293.016 48.101, 292.052 49.902 M 310.038 52.929 C 307.641 57.407, 308.689 59.489, 314.750 62.287 C 320.622 64.999, 328.158 68.098, 328.928 68.118 C 329.240 68.126, 333.861 56.456, 333.983 55.350 C 334.013 55.083, 319.614 52.173, 315.288 51.573 C 311.786 51.087, 310.902 51.315, 310.038 52.929 M 225 54.995 C 222.525 55.491, 219.150 56.302, 217.500 56.795 C 214.508 57.690, 214.513 57.695, 219 58.397 C 232.689 60.540, 241.004 62.486, 245.114 64.510 L 249.729 66.781 255.614 64.779 C 260.253 63.201, 262.983 62.901, 268.500 63.366 C 283.416 64.621, 293.396 68.966, 296.856 75.711 C 298.642 79.191, 298.661 79.644, 297.156 82.798 C 293.742 89.958, 277.195 97.214, 236.500 109.395 C 222.750 113.511, 206.100 118.736, 199.500 121.008 C 177.241 128.668, 150.618 143.766, 130.500 160.137 C 114.886 172.843, 99.315 188, 101.876 188 C 102.471 188, 107.581 186.109, 113.229 183.798 C 122.299 180.088, 124.728 179.526, 134 178.989 C 139.775 178.655, 145.850 177.784, 147.500 177.055 C 149.150 176.326, 155.431 174.323, 161.458 172.604 L 172.415 169.477 173.229 165.561 C 174.195 160.912, 173.650 160.413, 166.548 159.442 C 157.276 158.174, 154.092 155.969, 154.032 150.773 C 154.010 148.915, 154.832 147.501, 156.611 146.335 C 158.951 144.802, 160.175 144.747, 168.361 145.803 C 176.528 146.856, 177.606 146.808, 178.500 145.354 C 186.044 133.076, 190.902 128.051, 199 124.150 C 203.941 121.769, 205.517 121.519, 214.500 121.687 C 230.459 121.986, 246.506 126.829, 254.507 133.761 C 261.838 140.112, 266.572 151.586, 267.651 165.615 L 268.295 174 273.898 173.997 C 285.967 173.990, 306.838 168.883, 309.614 165.258 C 310.675 163.873, 310.828 160.204, 310.337 147.984 C 309.682 131.686, 310.475 123.933, 313.842 113.727 L 315.674 108.173 313.429 107.150 C 312.194 106.587, 309.230 105.606, 306.842 104.970 C 297.850 102.575, 296.199 97.041, 303.007 92.110 C 310.632 86.586, 329 80.775, 329 83.886 C 329 84.522, 327.988 85.443, 326.750 85.931 C 308.326 93.207, 302.357 96.520, 304.034 98.541 C 304.579 99.198, 308.238 100.517, 312.165 101.471 C 319.059 103.147, 319.339 103.143, 320.295 101.353 C 321.999 98.166, 330.359 90.532, 334.081 88.766 C 336.039 87.837, 341.321 86.770, 345.820 86.395 C 350.319 86.019, 354 85.406, 354 85.031 C 354 84.655, 352.938 83.351, 351.641 82.132 C 349.522 80.141, 348.622 79.983, 342.813 80.578 C 336.585 81.216, 336.069 81.091, 328.922 77.196 C 322.127 73.493, 318.130 71.826, 296.186 63.536 C 292.164 62.017, 283.614 59.457, 277.186 57.848 C 266.988 55.296, 263.208 54.870, 247.500 54.508 C 237.600 54.279, 227.475 54.499, 225 54.995 M 341.202 57.362 C 340.072 58.862, 337.318 66.676, 336.518 70.655 C 335.718 74.631, 336.898 75.392, 342.548 74.545 C 346.606 73.937, 347.028 73.592, 347.881 70.192 C 350.010 61.704, 350.687 57.999, 350.111 57.976 C 349.775 57.963, 347.826 57.563, 345.780 57.088 C 343.238 56.498, 341.787 56.584, 341.202 57.362 M 201.177 64.057 C 196.332 66.260, 177.127 84.605, 174.213 89.816 L 171.925 93.905 174.361 95.501 C 178.337 98.106, 189.752 100.816, 201.531 101.950 C 214.212 103.171, 237.898 101.760, 239.202 99.705 C 240.744 97.277, 246.067 78.882, 246.280 75.246 C 246.487 71.720, 246.231 71.367, 241.924 69.228 C 236.854 66.710, 225.862 64.399, 213.177 63.183 C 206.321 62.526, 204.206 62.680, 201.177 64.057 M 255.368 69.924 C 253.874 70.571, 252.854 72.443, 251.960 76.174 C 251.258 79.103, 249.413 85.521, 247.861 90.436 C 246.308 95.350, 245.229 99.562, 245.463 99.796 C 247.309 101.642, 284.344 87.189, 289.805 82.491 C 293.656 79.179, 292.068 76.395, 284.236 72.730 C 278.526 70.058, 276.355 69.614, 267.585 69.328 C 262.038 69.147, 256.541 69.415, 255.368 69.924 M 165 84.999 C 158.258 86.481, 146.181 89.770, 145.155 90.404 C 144.480 90.822, 144.691 92.042, 145.760 93.905 C 146.953 95.983, 147.826 96.545, 148.951 95.957 C 149.803 95.513, 154.203 93.474, 158.729 91.427 C 163.254 89.380, 167.712 86.871, 168.634 85.852 C 170.435 83.862, 170.308 83.833, 165 84.999 M 341.913 93.882 C 334.060 95.524, 326.748 103.361, 321.951 115.278 C 318.772 123.175, 318.639 124.054, 318.573 137.500 C 318.507 151.016, 318.604 151.690, 321.363 157 C 326.443 166.777, 328.638 168.291, 343.993 172.611 C 348.664 173.925, 352.767 175, 353.111 175 C 353.455 175, 352.233 173.407, 350.397 171.459 C 339.435 159.837, 337.859 134.108, 346.999 116.002 C 351.013 108.051, 358.219 100.278, 364 97.665 L 368.500 95.630 365 94.887 C 359.248 93.666, 345.757 93.079, 341.913 93.882 M 139.409 96.506 C 139.052 97.929, 139.009 99.342, 139.313 99.647 C 140.292 100.625, 142 98.942, 142 97 C 142 94.014, 140.124 93.656, 139.409 96.506 M 155.500 100.771 C 144.287 106.026, 129.481 114.085, 123.107 118.404 C 109.475 127.639, 92.294 143.872, 81.727 157.500 C 75.538 165.481, 68.706 178.932, 69.180 182.199 C 69.676 185.610, 74.711 187.830, 84.531 188.968 L 93.500 190.008 104 179.141 C 117.629 165.038, 130.727 154.052, 146.384 143.597 C 167.442 129.534, 184.365 121.650, 212 113.026 C 219.425 110.709, 225.950 108.666, 226.500 108.486 C 227.050 108.305, 221.371 108.122, 213.881 108.079 C 193.800 107.963, 177.341 104.756, 169.497 99.433 C 167.525 98.095, 165.369 97.005, 164.706 97.011 C 164.043 97.017, 159.900 98.709, 155.500 100.771 M 364.873 101.866 C 360.117 104.882, 354.346 111.339, 351.639 116.672 C 347.372 125.081, 346.531 129.318, 346.515 142.500 C 346.501 154.778, 346.663 155.852, 349.426 161.839 C 353.445 170.544, 359.211 175.009, 366.394 174.978 C 378.875 174.924, 388.096 165.421, 393.886 146.645 C 399.179 129.480, 393.872 107.770, 382.720 100.971 C 377.765 97.950, 370.471 98.316, 364.873 101.866 M 63.485 102.102 C 55.411 106.362, 48.707 115.396, 44.993 127.023 C 42.050 136.235, 42.483 140, 46.485 140 C 47.733 140, 49.195 140.563, 49.733 141.250 C 50.924 142.771, 53 151.009, 53 154.210 C 53 156.173, 54.098 156.945, 60.075 159.185 C 66.015 161.410, 67.037 161.568, 66.443 160.168 C 66.053 159.250, 65.511 154.755, 65.238 150.179 C 64.002 129.450, 76.130 107.113, 90.667 103.346 L 93.500 102.611 89.500 101.382 C 87.300 100.707, 81.443 100.119, 76.485 100.077 C 69.154 100.014, 66.726 100.393, 63.485 102.102 M 90.500 107.933 C 76.830 114.055, 66.645 138.446, 70.475 155.885 L 71.173 159.062 74.086 155.040 C 76.574 151.606, 77 150.092, 77 144.690 C 77 132.492, 81.825 122.826, 90.198 118.250 C 95.015 115.617, 101.205 115.337, 105.467 117.559 C 107.882 118.819, 108.858 118.879, 110.717 117.884 C 113.434 116.430, 113.544 115.235, 111.228 112.344 C 106.359 106.268, 98.129 104.516, 90.500 107.933 M 368.500 110.508 C 363.346 113.273, 358.273 119.006, 355.345 125.374 C 352.959 130.565, 352.527 132.808, 352.514 140.065 C 352.502 147.633, 352.849 149.309, 355.500 154.468 C 359.402 162.060, 362.445 164.264, 369.737 164.774 C 374.549 165.110, 376.071 164.789, 378.958 162.827 C 387.959 156.710, 392.407 146.074, 391.836 132.032 C 391.416 121.686, 388.681 115.202, 383.347 111.906 C 378.709 109.039, 372.354 108.441, 368.500 110.508 M 304.747 114.573 C 301.045 116.582, 288.490 120.870, 283.329 121.889 C 280.325 122.482, 276.826 122.183, 270.829 120.820 C 261.399 118.679, 239.236 117.367, 237.122 118.825 C 234.221 120.827, 237.233 122, 245.309 122.015 C 252.155 122.028, 274.549 125.215, 275.670 126.337 C 275.856 126.522, 276.507 129.335, 277.118 132.587 C 278.179 138.239, 277.837 152.519, 276.383 163.250 C 275.855 167.153, 276.017 168, 277.292 168 C 280.294 168, 281.433 161.270, 281.467 143.328 L 281.500 126.156 287 124.683 C 290.025 123.874, 296.100 121.926, 300.500 120.355 C 306.976 118.044, 308.561 117.072, 308.820 115.250 C 309.191 112.638, 308.521 112.526, 304.747 114.573 M 370.500 114.943 C 367.034 116.357, 362.794 121.302, 360.163 127 C 355.305 137.521, 356.349 149.059, 362.804 156.204 C 365.723 159.435, 366.848 159.999, 370.366 159.996 C 376.636 159.991, 380.297 157.174, 384.115 149.419 C 387.098 143.358, 387.426 141.830, 387.402 134.094 C 387.373 124.473, 386.059 120.911, 380.959 116.619 C 377.828 113.984, 374.254 113.411, 370.500 114.943 M 90.710 123.144 C 86.817 126.047, 82.930 134.227, 82.277 140.887 L 81.726 146.500 83.863 143.842 C 85.038 142.381, 86 140.221, 86 139.043 C 86 133.825, 91.470 127.474, 95.329 128.212 C 98.636 128.844, 105.242 123.519, 103 122.028 C 100.401 120.300, 93.709 120.908, 90.710 123.144 M 365.442 125.765 C 360.476 129.214, 359.223 140.822, 363.304 145.567 C 365.222 147.797, 366.125 148.131, 368.700 147.566 C 370.401 147.192, 372.567 146.030, 373.515 144.984 C 375.444 142.852, 376.587 135.474, 375.598 131.534 C 374.336 126.508, 368.856 123.395, 365.442 125.765 M 202.822 130.579 C 197.522 132.210, 189.739 140.053, 186.225 147.305 C 183.218 153.509, 181 162.868, 181 169.351 C 181 174.696, 181.127 175.003, 182.934 174.035 C 185.686 172.562, 187.464 172.746, 189.950 174.759 C 191.729 176.199, 192.467 178.776, 194.031 189.009 C 195.082 195.879, 195.954 202.051, 195.971 202.724 C 196.009 204.323, 200.259 206.412, 206.500 207.899 C 209.250 208.554, 212.349 209.345, 213.386 209.656 C 214.884 210.105, 214.640 209.427, 212.199 206.361 C 207.458 200.404, 204.842 192.666, 204.253 182.854 C 203.194 165.203, 209.004 148.841, 219.920 138.735 C 223.410 135.504, 227.301 132.865, 229.212 132.433 C 232.481 131.696, 232.467 131.684, 227 130.388 C 219.810 128.684, 208.693 128.772, 202.822 130.579 M 367.041 130.450 C 365.128 132.755, 364.591 140.165, 366.183 142.284 C 367.375 143.872, 367.743 143.908, 369.512 142.615 C 372.042 140.765, 372.304 132.875, 369.914 130.486 C 368.483 129.054, 368.203 129.051, 367.041 130.450 M 92 134.059 C 92 134.641, 92.450 134.840, 93 134.500 C 93.550 134.160, 94 133.684, 94 133.441 C 94 133.198, 93.550 133, 93 133 C 92.450 133, 92 133.477, 92 134.059 M 232.095 135.507 C 223.040 138.330, 213.676 150.793, 210.506 164.240 C 208.295 173.614, 208.542 187.701, 211.032 194.357 C 213.792 201.732, 218.421 207.860, 222.530 209.577 C 235.554 215.019, 251.018 203.599, 257.065 184.072 C 259.766 175.350, 259.880 159.768, 257.298 152.293 C 255 145.638, 248.865 138.297, 243.605 135.908 C 238.787 133.720, 237.923 133.690, 232.095 135.507 M 230.027 146.752 C 222.119 150.733, 215.781 163.640, 215.665 176 C 215.547 188.564, 219.574 196.597, 227.821 200.245 C 232.165 202.167, 232.581 202.182, 237.580 200.606 C 246.124 197.913, 252.425 189.751, 254.876 178.201 C 257.801 164.412, 253.607 150.951, 244.998 146.499 C 241.115 144.491, 234.288 144.606, 230.027 146.752 M 41 148.195 C 26.655 156.936, 20.061 162.824, 16.776 169.826 C 14.873 173.883, 14.440 179, 16 179 C 16.550 179, 17 177.573, 17 175.829 C 17 170.006, 29.849 160.272, 41.775 157.061 C 46.254 155.854, 46.585 155.038, 45.132 148.781 L 44.500 146.063 41 148.195 M 159.199 151.096 C 159.475 151.924, 162.446 152.963, 166.580 153.679 C 175.632 155.246, 176 155.243, 176 153.608 C 176 151.996, 173.939 151.392, 165.119 150.417 C 159.909 149.841, 158.822 149.966, 159.199 151.096 M 231.389 151.905 C 217.250 160.526, 216.723 192.068, 230.653 195.915 C 241.076 198.793, 251.033 185.643, 250.978 169.072 C 250.928 154.168, 241.388 145.807, 231.389 151.905 M 227.724 162.250 C 225.470 163.948, 222.999 170.214, 223.004 174.218 C 223.009 179.193, 226.346 184, 229.794 184 C 236.656 184, 241.117 174.699, 238.084 166.720 C 236.088 161.472, 231.425 159.460, 227.724 162.250 M 37.142 164.474 C 33.409 166.164, 24 173.716, 24 175.022 C 24 175.482, 26.564 176.603, 29.698 177.514 C 36.761 179.568, 45.493 183.907, 54.012 189.597 C 66.896 198.203, 79.334 201.441, 104 202.611 C 116.173 203.188, 140.823 206.709, 145.242 208.501 C 146.457 208.994, 147.156 208.648, 147.555 207.354 C 148.886 203.042, 151.742 198.235, 155.271 194.365 C 158.055 191.313, 158.673 190.088, 157.631 189.689 C 156.854 189.391, 150.361 188.179, 143.201 186.996 L 130.182 184.844 122.390 187.031 C 118.104 188.233, 113.676 189.788, 112.549 190.486 C 107.510 193.605, 97.318 195.271, 86.314 194.773 C 74.048 194.219, 68.359 192.404, 64.496 187.813 C 61.561 184.325, 61.293 180.154, 63.572 173.440 C 64.436 170.894, 64.999 168.706, 64.822 168.579 C 64.645 168.452, 61.620 167.321, 58.100 166.065 C 49.799 163.105, 41.549 162.479, 37.142 164.474 M 229.035 167.934 C 227.559 170.693, 227.755 177.552, 229.348 178.874 C 232.313 181.334, 235.928 173.570, 234.080 168.711 C 232.876 165.543, 230.510 165.179, 229.035 167.934 M 162.239 178.253 C 157.695 179.385, 154.146 180.480, 154.352 180.686 C 154.558 180.892, 157.297 181.479, 160.439 181.990 C 165.546 182.821, 166.512 182.686, 169.563 180.710 C 172.934 178.527, 174.175 175.908, 171.750 176.097 C 171.063 176.151, 166.782 177.121, 162.239 178.253 M 175.915 185.081 C 161.138 194.002, 154.083 202.330, 153.715 211.286 L 153.500 216.500 157 216.201 C 158.925 216.036, 163.200 214.831, 166.500 213.523 C 169.800 212.215, 175.875 209.906, 180 208.392 C 184.125 206.878, 187.811 205.382, 188.192 205.069 C 188.572 204.756, 188.244 199.100, 187.462 192.500 C 186.681 185.900, 186.032 180.387, 186.021 180.250 C 185.946 179.356, 183.311 180.615, 175.915 185.081" stroke="none" fill="black" fill-rule="evenodd"/>
</svg>