<svg xmlns="http://www.w3.org/2000/svg" width="282" height="263" viewBox="0 0 282 263" version="1.1">
	<path d="M 130 8.068 C 126.975 8.600, 122.160 10.174, 119.299 11.567 C 113.419 14.430, 111.696 17.306, 106.159 33.500 C 104.466 38.450, 101.898 45.650, 100.452 49.500 C 99.006 53.350, 97.368 57.850, 96.813 59.500 C 96.257 61.150, 95.217 63.850, 94.501 65.500 C 93.785 67.150, 92.512 70.525, 91.673 73 C 90.833 75.475, 88.940 80.650, 87.466 84.500 C 85.991 88.350, 83.304 95.550, 81.495 100.500 C 79.686 105.450, 75.867 115.800, 73.010 123.500 C 70.152 131.200, 66.114 142.450, 64.036 148.500 C 59.591 161.440, 61.644 159.901, 35.986 169.534 C 26.528 173.085, 17.110 176.934, 15.055 178.089 C 9.912 180.980, 7.804 185.014, 7.227 193.067 C 6.832 198.592, 7.132 200.634, 8.857 204.169 C 12.388 211.405, 13.445 211.928, 60.435 229.653 C 75.871 235.475, 92.550 241.800, 97.500 243.708 C 102.450 245.616, 111.900 249.003, 118.500 251.235 C 129.744 255.037, 131.225 255.294, 142 255.316 C 154.870 255.341, 156.412 254.938, 183 244.592 C 190.975 241.489, 203.800 236.504, 211.500 233.515 C 269.589 210.966, 268.602 211.447, 272.403 203.818 C 276.840 194.916, 275.135 184.657, 268.257 178.870 C 266.592 177.469, 260.341 174.654, 254.365 172.614 C 248.389 170.574, 238.697 167.077, 232.826 164.843 C 223.306 161.220, 222.025 160.441, 220.981 157.640 C 217.719 148.887, 217.030 147.095, 215.015 142.125 C 213.817 139.169, 212.003 134.219, 210.983 131.125 C 209.963 128.031, 208.163 123.025, 206.984 120 C 205.805 116.975, 203.357 110.450, 201.544 105.500 C 198.442 97.028, 192.749 81.934, 190.984 77.500 C 190.547 76.400, 188.972 72.125, 187.485 68 C 180.569 48.808, 178.935 44.361, 178.116 42.500 C 177.633 41.400, 176.101 37.350, 174.713 33.500 C 173.324 29.650, 171.406 24.352, 170.450 21.727 C 168.195 15.539, 164.147 11.674, 157.758 9.611 C 151.403 7.558, 137.345 6.777, 130 8.068 M 129.120 16.478 C 125.610 17.275, 122.510 18.156, 122.231 18.436 C 120.969 19.697, 128.367 21.295, 137.571 21.749 C 145.430 22.137, 148.943 21.856, 153.571 20.470 L 159.500 18.693 155 17.316 C 148.091 15.202, 136.403 14.823, 129.120 16.478 M 160.296 23.104 C 158.578 24.822, 148.185 26.967, 141.500 26.983 C 135.914 26.997, 123.425 25.036, 120 23.608 C 118.379 22.932, 117.170 25.685, 109.940 46.500 C 105.514 59.243, 105.363 58.843, 115.558 61.404 C 133.426 65.892, 161.058 64.891, 172.187 59.351 L 174.874 58.014 172.859 51.757 C 171.750 48.316, 170.441 44.600, 169.948 43.500 C 169.456 42.400, 167.739 37.834, 166.134 33.354 C 162.349 22.789, 161.718 21.682, 160.296 23.104 M 103.241 65.250 C 102.637 66.487, 100.575 72, 98.659 77.500 C 96.742 83, 94.897 88.197, 94.557 89.049 C 93.168 92.536, 108.948 97.835, 127.408 100.081 C 138.746 101.461, 156.085 100.750, 166 98.500 C 177.554 95.878, 183.268 94.068, 185.033 92.470 C 186.670 90.989, 186.667 90.603, 184.972 85.159 C 182.534 77.325, 176.968 63, 176.362 63 C 176.090 63, 174.998 63.466, 173.934 64.036 C 170.287 65.987, 150.616 69, 141.557 68.994 C 131.227 68.987, 115.579 66.845, 109.124 64.553 C 106.718 63.699, 104.656 63, 104.543 63 C 104.430 63, 103.844 64.013, 103.241 65.250 M 87.312 108.417 L 82.261 121.500 86.380 124.193 C 94.549 129.534, 124.348 136, 140.788 136 C 161.558 136, 198.015 126.867, 197.996 121.668 C 197.990 120.258, 194.450 110.298, 189.836 98.712 C 189.226 97.179, 188.225 96.137, 187.613 96.396 C 174.547 101.928, 158.227 105.006, 142.026 104.992 C 124.878 104.977, 104.506 101.350, 94.932 96.607 L 92.364 95.335 87.312 108.417 M 79.966 127.886 C 79.947 128.774, 79.063 131.300, 78 133.500 C 76.937 135.700, 76.053 137.953, 76.034 138.507 C 76.015 139.061, 74.455 143.448, 72.567 148.257 L 69.135 157.001 72.348 159.452 C 74.115 160.799, 78.697 163.229, 82.530 164.850 C 115.273 178.701, 170.925 178.212, 202.039 163.800 C 206.142 161.899, 210.078 159.639, 210.784 158.778 C 212.090 157.186, 211.681 155.513, 207.541 145.500 C 206.858 143.850, 205.729 140.925, 205.032 139 C 204.334 137.075, 202.912 133.582, 201.871 131.238 L 199.979 126.977 195.239 129.358 C 189.349 132.318, 174.927 136.474, 165 138.071 C 154.081 139.829, 126.487 139.543, 115 137.554 C 103.546 135.570, 91.206 131.950, 84.750 128.679 C 80.696 126.625, 79.995 126.508, 79.966 127.886 M 64.214 169.849 C 59.409 181.285, 59.177 183.900, 62.656 187.402 C 66.910 191.684, 71.860 194.538, 81.663 198.363 C 108.829 208.963, 153.529 210.986, 185.362 203.056 C 205.468 198.047, 221 188.930, 221 182.137 C 221 180.598, 219.854 176.676, 218.454 173.420 C 217.053 170.164, 215.399 166.314, 214.778 164.865 L 213.649 162.231 207.502 165.609 C 199.650 169.926, 185.865 174.579, 175 176.582 C 163.365 178.727, 135.288 179.504, 120 178.103 C 112.906 177.454, 102.734 175.691, 96.480 174.027 C 85.540 171.117, 70.816 165.129, 69.545 163.073 C 68.287 161.038, 67.489 162.053, 64.214 169.849 M 46 174.044 C 40.775 176.104, 32.565 179.268, 27.755 181.075 C 22.945 182.882, 18.026 185.408, 16.824 186.687 C 14.677 188.973, 14.672 189.040, 16.569 190.429 C 17.631 191.208, 23.450 193.967, 29.500 196.561 C 35.550 199.155, 43.500 202.565, 47.168 204.139 C 50.835 205.712, 54.174 207, 54.587 207 C 55.811 207, 75.406 214.239, 76.554 215.115 C 77.134 215.558, 81.409 217.261, 86.054 218.899 C 90.699 220.538, 102.600 224.909, 112.500 228.614 C 130.392 235.309, 130.563 235.350, 141 235.425 C 152.157 235.505, 154.086 234.981, 181.500 224.415 C 185.350 222.931, 191.875 220.486, 196 218.982 C 200.125 217.477, 208 214.431, 213.500 212.212 C 219 209.993, 226.650 206.984, 230.500 205.525 C 243.254 200.691, 261.868 192.608, 264.070 190.948 C 265.848 189.606, 266.043 188.948, 265.153 187.286 C 264.557 186.172, 262.591 184.567, 260.785 183.718 C 257.328 182.095, 226.436 171, 225.373 171 C 225.033 171, 225.260 171.608, 225.876 172.351 C 226.493 173.094, 227.271 175.695, 227.604 178.130 C 229.148 189.394, 219.335 199.039, 199 206.243 C 186.890 210.533, 175.838 212.614, 157.388 214.077 C 118.155 217.190, 78.131 209.131, 61 194.671 C 53.545 188.378, 51.422 181.713, 54.513 174.314 C 55.345 172.323, 55.908 170.604, 55.763 170.496 C 55.618 170.387, 51.225 171.984, 46 174.044 M 263.649 196.501 C 262.632 197.253, 257.007 199.711, 251.149 201.965 C 245.292 204.218, 238.475 206.935, 236 208.002 C 233.525 209.070, 227.225 211.544, 222 213.500 C 216.775 215.456, 210.475 217.938, 208 219.016 C 205.525 220.093, 200.575 222.036, 197 223.334 C 193.425 224.631, 182.625 228.635, 173 232.231 C 143.547 243.236, 140.393 243.342, 115.500 234.168 C 111.100 232.547, 104.575 230.209, 101 228.973 C 97.425 227.737, 90.450 225.154, 85.500 223.233 C 74.819 219.087, 62.971 214.689, 54 211.540 C 50.425 210.285, 45.925 208.576, 44 207.744 C 42.075 206.911, 36.900 204.794, 32.500 203.038 C 28.100 201.283, 22.575 198.982, 20.223 197.924 C 17.871 196.866, 15.685 196, 15.365 196 C 14.504 196, 15.983 201.275, 17.284 202.842 C 19.478 205.486, 29.223 209.581, 58 219.953 C 65.425 222.629, 74.875 226.242, 79 227.981 C 83.125 229.721, 90.100 232.430, 94.500 234.002 C 98.900 235.575, 106.775 238.486, 112 240.473 C 124.606 245.266, 135.608 248, 142.289 248 C 148.189 248, 160.464 244.549, 176 238.521 C 181.225 236.494, 188.159 233.968, 191.408 232.908 C 194.658 231.849, 197.808 230.596, 198.408 230.123 C 199.452 229.302, 202.108 228.251, 219 221.974 C 232.591 216.924, 237.468 214.981, 240 213.611 C 241.375 212.867, 244.300 211.688, 246.500 210.991 C 254.748 208.378, 264.038 203.031, 265.077 200.298 C 266.561 196.394, 265.960 194.794, 263.649 196.501" stroke="none" fill="black" fill-rule="evenodd"/>
</svg>