<svg xmlns="http://www.w3.org/2000/svg" width="388" height="270" viewBox="0 0 388 270" version="1.1">
	<path d="M 244.500 7.635 C 242.300 7.878, 235.100 8.747, 228.500 9.567 C 221.900 10.387, 210.875 11.737, 204 12.568 C 190.147 14.240, 185.379 16.031, 182.875 20.500 C 179.835 25.926, 179.599 31.109, 182.214 34.990 L 184.529 38.425 181.305 51.962 C 179.533 59.408, 177.364 68.650, 176.485 72.500 C 174.059 83.136, 172.629 88, 171.929 88 C 171.580 88, 170.997 84.117, 170.632 79.371 C 169.902 69.880, 166.456 50.219, 164.694 45.500 C 163.050 41.097, 155.342 33.268, 151.354 31.952 C 143.993 29.522, 139.729 33.574, 139.599 43.122 C 139.532 48.051, 139.938 49.340, 142.601 52.661 C 146.794 57.890, 147.464 61.830, 144.670 64.827 C 142.702 66.939, 142.470 68.426, 142.179 80.827 C 142.002 88.347, 141.537 94.830, 141.146 95.233 C 140.755 95.636, 133.190 98.432, 124.336 101.447 C 106.677 107.459, 102.051 109.747, 99.411 113.776 C 96.977 117.492, 95.080 127.092, 95.020 136 C 94.992 140.125, 94.613 144.062, 94.176 144.749 C 93.361 146.032, 91.517 145.755, 53 138.549 C 28.064 133.884, 28.830 133.282, 27.800 158.325 C 26.681 185.495, 22.886 199.811, 11.815 218.622 C 9.167 223.121, 7 227.677, 7 228.746 C 7 233.245, 7.855 233.524, 58.500 245.558 C 64.550 246.995, 74.900 249.465, 81.500 251.047 C 112.368 258.443, 132.698 263.004, 134.782 263.002 C 137.912 262.999, 152.191 257.458, 159.564 253.385 C 165.669 250.013, 172.321 244.383, 175.035 240.292 C 176.186 238.557, 178.001 237.886, 183.500 237.162 C 189.877 236.324, 191.256 236.491, 199 239.043 C 211.134 243.043, 226.611 245.406, 235.905 244.678 C 240.082 244.351, 251.150 242.750, 260.500 241.122 C 269.850 239.493, 284.250 236.979, 292.500 235.536 C 300.750 234.093, 316.637 231.353, 327.804 229.448 C 358.938 224.137, 361.314 223.421, 368.064 217.324 C 373.638 212.287, 375.690 209.147, 378.538 201.297 C 382.537 190.270, 381.774 177.200, 376.540 167.078 C 374.353 162.849, 366.353 156.046, 360.546 153.478 C 357.626 152.186, 351.709 150.401, 347.397 149.511 C 343.086 148.620, 339.404 147.737, 339.215 147.548 C 339.026 147.360, 341.170 146.889, 343.978 146.503 C 351.260 145.501, 352.465 143.350, 351.705 132.704 C 350.608 117.347, 346.424 106.224, 339.663 100.692 C 337.373 98.819, 334.547 96.985, 333.381 96.617 C 331.716 96.092, 331.011 94.615, 330.087 89.724 C 329.441 86.301, 328.257 80.511, 327.456 76.857 C 326.655 73.203, 326 68.909, 326 67.315 C 326 65.720, 324.887 58.623, 323.528 51.544 L 321.055 38.672 323.528 36.200 C 325.458 34.270, 326 32.694, 326 29.017 C 326 18.561, 321.315 15.223, 303 12.632 C 296.675 11.738, 287.225 10.325, 282 9.493 C 272.048 7.908, 251.338 6.882, 244.500 7.635 M 240.500 16.691 C 230.080 17.614, 198.990 21.586, 200.043 21.859 C 200.342 21.937, 212.302 23.331, 226.622 24.957 C 254.643 28.140, 252.623 28.155, 283.494 24.527 C 290.641 23.687, 298.703 23, 301.411 23 C 304.118 23, 306.112 22.778, 305.841 22.508 C 305.180 21.847, 290.041 19.230, 276.564 17.447 C 266.590 16.127, 250.632 15.793, 240.500 16.691 M 189.698 24.636 C 188.681 25.653, 188.844 29.785, 189.927 30.455 C 190.438 30.770, 194.375 31.468, 198.677 32.006 C 202.980 32.544, 215.725 34.174, 227 35.629 C 248.206 38.366, 260.443 38.465, 275.500 36.021 C 278.800 35.486, 289.264 34.162, 298.754 33.080 C 316.533 31.053, 318.011 30.715, 317.985 28.691 C 317.938 25.034, 316.610 24.792, 305.391 26.401 C 299.401 27.260, 288.650 28.446, 281.500 29.037 C 274.350 29.628, 266.700 30.525, 264.500 31.031 C 258.083 32.507, 247.453 32.171, 233.500 30.051 C 226.350 28.965, 214.400 27.404, 206.945 26.582 C 199.490 25.760, 192.717 24.829, 191.893 24.513 C 191.069 24.196, 190.082 24.252, 189.698 24.636 M 192.249 42.240 C 191.593 44.583, 190.108 50.325, 188.950 55 C 187.793 59.675, 186.444 65.075, 185.954 67 C 185.463 68.925, 184.380 73.425, 183.546 77 C 179.447 94.563, 180.083 93.330, 174.339 94.864 C 169.649 96.116, 169.119 96.551, 168.544 99.618 C 168.100 101.982, 167.038 103.446, 165.005 104.498 C 161.255 106.437, 150.148 106.492, 147.426 104.586 C 145.636 103.332, 144.168 103.553, 134.454 106.539 C 128.429 108.391, 121.390 110.729, 118.811 111.735 L 114.122 113.563 127.311 115.837 C 147.263 119.276, 155.262 121.071, 157.834 122.688 C 162.284 125.486, 163.298 130.132, 162.761 145.250 L 162.273 159 165.202 159 C 166.813 159, 168.963 159.445, 169.978 159.988 C 171.585 160.848, 172.792 159.516, 179.260 149.738 C 185.848 139.779, 186.763 137.820, 187.298 132.522 C 187.687 128.676, 188.490 126.115, 189.549 125.341 C 191.073 124.226, 207.952 119.929, 222.804 116.874 C 233.290 114.717, 233.701 115.528, 233.882 138.715 C 233.988 152.410, 233.820 154.026, 232.201 154.892 C 231.212 155.422, 222.641 156.666, 213.155 157.658 L 195.907 159.461 187.954 171.753 C 183.579 178.514, 180 184.208, 180 184.406 C 180 184.604, 180.960 185.018, 182.133 185.324 C 183.802 185.761, 185.701 184.414, 190.883 179.114 C 194.522 175.391, 199.633 171.330, 202.241 170.088 C 207.799 167.441, 228.798 163.414, 263 158.435 C 329.786 148.713, 328 149.005, 328 147.805 C 328 147.288, 327.212 147.100, 326.250 147.388 C 325.288 147.675, 317.300 148.877, 308.500 150.058 C 296.893 151.616, 289.496 152.070, 281.559 151.714 C 273.795 151.365, 266.971 151.764, 258.059 153.088 C 242.133 155.454, 239.316 155.477, 238.171 153.250 C 237.676 152.287, 236.972 145.987, 236.607 139.249 C 235.969 127.471, 234.540 113.361, 233.432 107.892 L 232.904 105.285 227.502 106.541 C 224.531 107.231, 220.165 108.482, 217.800 109.321 C 215.435 110.159, 206.750 112.943, 198.500 115.506 C 190.250 118.070, 180.186 121.254, 176.136 122.584 C 172.086 123.913, 168.149 125, 167.386 125 C 165.073 125, 165.831 123.137, 168.750 121.651 C 172.233 119.877, 204.902 109.146, 219.808 104.880 C 226.308 103.020, 230.559 101.342, 229.808 100.934 C 227.578 99.724, 210.084 96.180, 197.500 94.389 C 190.900 93.449, 184.911 92.147, 184.191 91.496 C 183.119 90.525, 183.322 88.700, 185.314 81.405 C 188.736 68.871, 195.437 40.235, 195.231 39.025 C 195.186 38.764, 194.766 38.422, 194.296 38.265 C 193.827 38.109, 192.905 39.898, 192.249 42.240 M 310.661 38.740 C 310.350 39.243, 310.750 43.894, 311.549 49.077 C 312.349 54.260, 313.484 61.650, 314.073 65.500 C 314.662 69.350, 315.564 75.200, 316.078 78.500 C 318.228 92.302, 318.241 92.555, 316.852 93.707 C 316.104 94.329, 311.668 95.394, 306.995 96.075 C 293.968 97.973, 293.769 97.951, 292.895 94.500 C 291.995 90.947, 290 59.173, 290 48.393 C 290 41.748, 289.792 40.894, 288.250 41.198 C 286.881 41.468, 286.554 42.410, 286.747 45.522 C 286.882 47.710, 287.695 60.003, 288.553 72.839 C 289.974 94.089, 289.972 96.394, 288.534 98.589 C 287.665 99.915, 286.575 101, 286.113 101 C 284.014 101, 279.530 109.885, 274.721 123.575 C 270.404 135.862, 269.047 138.682, 266.992 139.626 C 263.515 141.225, 250.831 142.224, 249 141.043 C 247.767 140.248, 247.448 136.556, 247.209 120.288 C 246.922 100.771, 246.981 100.133, 251.459 73.705 C 253.957 58.968, 256 46.480, 256 45.955 C 256 45.430, 254.709 45, 253.132 45 C 250.584 45, 250.201 45.419, 249.701 48.750 C 246.760 68.381, 240.773 99.697, 239.627 101.446 C 238.525 103.128, 238.400 104.758, 239.089 108.446 C 239.583 111.090, 240.451 121.382, 241.018 131.318 C 241.585 141.254, 242.179 149.513, 242.338 149.671 C 242.626 149.959, 270.320 146.060, 270.589 145.693 C 270.667 145.587, 273.095 138.525, 275.983 130 C 282.058 112.071, 283.066 109.880, 286.467 107.205 C 288.910 105.283, 304.178 101.903, 317.250 100.390 C 320.413 100.024, 322.999 99.449, 322.998 99.112 C 322.997 98.440, 318.431 71.698, 314.954 52 C 312.813 39.869, 311.833 36.843, 310.661 38.740 M 199.131 42.750 C 198.611 44.813, 197.694 48.750, 197.093 51.500 C 196.492 54.250, 194.425 63.115, 192.500 71.201 C 190.575 79.286, 189 86.598, 189 87.451 C 189 88.425, 189.903 89, 191.434 89 C 197.753 89, 229.535 95.118, 232.594 96.923 C 236.652 99.317, 235.867 101.580, 240.546 74 C 245.733 43.417, 245.552 45.303, 243.368 44.656 C 240.772 43.887, 204.315 39.052, 200.789 39.009 C 200.397 39.004, 199.652 40.688, 199.131 42.750 M 147.628 41.527 C 146.853 43.546, 148.318 47.093, 150.880 49.400 C 153.135 51.432, 154.985 56.760, 154.994 61.250 C 154.999 63.486, 155.449 64, 157.405 64 C 159.646 64, 159.775 63.711, 159.306 59.750 C 158.432 52.372, 157.028 48.187, 154.366 45.023 C 150.888 40.889, 148.373 39.585, 147.628 41.527 M 294.330 47.750 C 294.669 52.013, 295.199 60.900, 295.508 67.500 C 295.816 74.100, 296.311 82.710, 296.609 86.634 L 297.149 93.767 300.324 92.918 C 302.071 92.450, 305.692 91.792, 308.371 91.455 L 313.242 90.841 312.582 86.671 C 312.220 84.377, 311.502 79.350, 310.988 75.500 C 310.474 71.650, 308.922 62.425, 307.539 55 C 306.155 47.575, 305.018 41.163, 305.012 40.750 C 305.005 40.337, 302.460 40, 299.356 40 L 293.712 40 294.330 47.750 M 272 43.127 C 260.956 44.623, 261.407 44.334, 260.125 50.734 C 258.527 58.716, 257.141 67.197, 256.031 75.779 C 255.514 79.783, 254.608 85.633, 254.017 88.779 C 252.087 99.064, 251.113 117.547, 252.002 127.019 C 252.475 132.066, 253.081 136.414, 253.347 136.680 C 254.258 137.591, 265.158 135.752, 265.530 134.625 C 265.939 133.384, 272.230 115.997, 274.739 109.175 C 275.613 106.797, 278.316 102.640, 280.745 99.939 L 285.161 95.027 284.054 75.763 C 282.174 43.084, 282.047 41.984, 280.165 42.123 C 279.249 42.191, 275.575 42.643, 272 43.127 M 150.675 73.250 C 149.597 79.641, 150.650 99.164, 152.123 100.097 C 153.749 101.127, 157.544 101.229, 160.898 100.331 L 163.297 99.689 162.664 85.774 C 162.316 78.121, 161.772 71.441, 161.456 70.930 C 161.140 70.418, 158.709 70, 156.052 70 C 151.382 70, 151.204 70.108, 150.675 73.250 M 308 107.682 C 292.653 110.538, 290.084 111.493, 288.304 115 C 284.820 121.864, 279.707 135.816, 278.502 141.750 C 277.899 144.713, 278.058 145, 280.296 145 C 281.645 145, 284.099 145.270, 285.747 145.599 C 288.440 146.138, 288.797 145.910, 289.270 143.349 C 290.133 138.681, 295.824 120.194, 297.149 117.758 C 297.825 116.516, 298.442 114.713, 298.521 113.750 C 298.691 111.694, 299.751 110.418, 300.592 111.258 C 300.917 111.584, 300.690 113.346, 300.088 115.175 C 298.005 121.493, 292.157 144.490, 292.536 144.869 C 293.262 145.596, 340.192 139.631, 343.382 138.407 C 344.386 138.022, 344.481 136.605, 343.800 132.204 C 342.017 120.678, 339.687 114.094, 335.324 108.250 C 333.065 105.223, 332.507 105.006, 327.199 105.084 C 324.065 105.131, 315.425 106.299, 308 107.682 M 105.618 120.996 C 103.436 126.449, 101.695 147.185, 103.332 148.226 C 105.513 149.614, 105.698 149.006, 106.291 138.544 C 106.616 132.793, 107.375 127.168, 107.977 126.044 C 109.406 123.372, 112.092 123.422, 127.266 126.403 C 133.995 127.724, 141.826 129.111, 144.670 129.485 C 152.746 130.548, 153.500 131.946, 153.500 145.857 C 153.500 157.211, 153.557 157.508, 155.777 157.823 L 158.054 158.146 157.777 143.429 C 157.506 129.031, 157.446 128.673, 155 126.886 C 152.677 125.188, 125.295 119.161, 112.389 117.506 L 107.277 116.850 105.618 120.996 M 222.500 121.117 C 220.850 121.637, 217.025 122.528, 214 123.097 C 202.376 125.283, 192.892 128.334, 191.887 130.210 C 190.374 133.038, 191.737 136, 194.552 136 C 195.881 136, 198.416 137.293, 200.184 138.873 C 204.204 142.465, 204.546 147.418, 201.094 152.087 L 198.788 155.205 201.644 154.616 C 203.215 154.293, 208.775 153.562, 214 152.993 C 219.225 152.424, 224.963 151.722, 226.750 151.434 L 230 150.909 229.994 143.705 C 229.991 139.742, 229.699 132.787, 229.346 128.250 C 228.649 119.300, 228.560 119.208, 222.500 121.117 M 111.900 129.750 C 111.845 130.162, 111.507 134.888, 111.150 140.251 C 110.577 148.851, 110.692 150.001, 112.125 150.001 C 114.173 150, 115 146.080, 115 136.375 C 115 130.486, 114.698 129, 113.500 129 C 112.675 129, 111.955 129.338, 111.900 129.750 M 119.648 135.250 C 119.301 138.137, 119.013 143.088, 119.009 146.250 C 119.001 151.336, 119.231 152, 121 152 C 122.879 152, 123 151.333, 123 141 C 123 132.389, 122.704 130, 121.639 130 C 120.745 130, 120.063 131.798, 119.648 135.250 M 127.991 136.750 C 127.987 139.912, 127.699 144.863, 127.352 147.750 C 126.764 152.644, 126.867 153, 128.861 153 C 130.398 153, 131.014 152.367, 131.049 150.750 C 131.076 149.512, 131.335 144.948, 131.626 140.606 C 132.022 134.678, 131.823 132.503, 130.827 131.872 C 128.379 130.320, 128 130.972, 127.991 136.750 M 136 143 C 136 148.500, 135.887 153.338, 135.750 153.750 C 135.613 154.162, 136.512 154.644, 137.750 154.820 C 139.967 155.134, 140 154.977, 140 144.070 C 140 133.667, 139.880 133, 138 133 C 136.133 133, 136 133.667, 136 143 M 145.593 135.137 C 145.356 135.887, 144.937 140.887, 144.661 146.250 C 144.173 155.752, 144.216 156, 146.338 156 C 148.410 156, 148.530 155.518, 148.791 146.149 C 149.009 138.312, 148.754 136.041, 147.544 135.037 C 146.312 134.014, 145.942 134.033, 145.593 135.137 M 189.043 146.155 C 187.724 147.940, 183.912 153.473, 180.572 158.450 C 174.516 167.477, 174.501 167.515, 175 173.493 L 175.500 179.487 178.991 173.993 C 180.910 170.972, 185.766 163.791, 189.782 158.035 C 197.530 146.929, 198.435 143.726, 193.971 143.205 C 192.090 142.985, 190.829 143.740, 189.043 146.155 M 36.997 149.550 C 36.991 159.602, 34.972 178.058, 32.899 187 C 31.816 191.675, 30.490 197.515, 29.952 199.978 C 28.905 204.777, 24.513 214.449, 20.974 219.750 C 18.128 224.012, 19.587 223.859, 25.606 219.264 C 32.245 214.196, 34.479 211.537, 38.007 204.500 C 44.504 191.540, 45.416 176.214, 40.925 155.464 C 38.319 143.424, 37.001 141.440, 36.997 149.550 M 43.580 147.252 C 43.921 148.328, 44.566 151.523, 45.013 154.354 C 45.460 157.184, 46.369 162.650, 47.034 166.500 C 49.735 182.145, 45.830 201.856, 37.760 213.308 C 36.672 214.852, 35.973 216.306, 36.206 216.540 C 36.846 217.179, 135.368 239, 137.615 239 C 139.639 239, 140.019 238.281, 144.482 226 C 147.821 216.815, 149.774 208.018, 150.968 196.789 C 152.165 185.524, 152.347 165.003, 151.250 164.993 C 150.359 164.985, 120.040 159.425, 97.500 155.137 C 68.919 149.699, 54.612 147.070, 48.730 146.175 C 43.266 145.343, 42.992 145.400, 43.580 147.252 M 332.500 156.566 C 335.053 157.533, 337.881 157.849, 340.317 157.441 C 342.417 157.089, 343.992 156.680, 343.817 156.531 C 343.643 156.382, 340.125 155.989, 336 155.656 L 328.500 155.052 332.500 156.566 M 310 157.929 L 304.500 158.533 309.977 159.805 C 313.607 160.648, 317.822 160.828, 322.477 160.341 L 329.500 159.605 324.500 158.398 C 319.016 157.075, 318.066 157.044, 310 157.929 M 289 160.985 C 284.350 161.404, 283.069 161.797, 284.500 162.367 C 285.600 162.805, 287.606 163.609, 288.957 164.154 C 290.641 164.834, 294.099 164.742, 299.957 163.863 L 308.500 162.580 304 161.817 C 301.525 161.398, 298.600 160.907, 297.500 160.726 C 296.400 160.546, 292.575 160.662, 289 160.985 M 341.500 161.546 C 340.950 161.759, 330.150 163.533, 317.500 165.489 C 304.850 167.445, 287.075 170.195, 278 171.602 C 238.890 177.663, 230.970 179.622, 225.035 184.702 C 221.256 187.937, 217.762 193.842, 216.468 199.180 C 215.912 201.474, 216.095 201.788, 217.734 201.359 C 218.787 201.084, 220.218 199.285, 220.913 197.363 C 222.428 193.175, 227.302 187.411, 230.898 185.556 C 236.025 182.911, 252.702 179.652, 295.500 172.932 C 302.650 171.810, 315.700 169.761, 324.500 168.379 C 348.703 164.580, 354.608 164.386, 359.500 167.228 C 364.158 169.935, 368.463 177.064, 369.351 183.541 C 370.102 189.026, 367.712 198.336, 364.274 203.313 C 361.281 207.647, 355.585 211.208, 349 212.863 C 344.506 213.992, 334.950 215.740, 293.500 223.011 C 281.400 225.133, 264.075 228.242, 255 229.919 C 234.298 233.746, 230.138 233.829, 226.177 230.495 C 223.865 228.550, 222.686 228.181, 220.897 228.842 C 218.677 229.664, 218.751 229.807, 222.987 232.875 C 230.262 238.146, 231.193 238.153, 260 233.178 C 308.594 224.785, 347.024 218.005, 350.762 217.165 C 367.318 213.445, 376.625 195.292, 371.175 177.349 C 367.756 166.095, 360.648 160.930, 348.782 161.079 C 345.327 161.122, 342.050 161.332, 341.500 161.546 M 263 164.765 L 258.500 165.181 264.277 166.990 C 269.397 168.594, 270.875 168.659, 277.277 167.560 L 284.500 166.320 279.201 165.160 C 273.955 164.012, 271.741 163.958, 263 164.765 M 158 176.710 C 158 202.741, 152.589 226.750, 142.192 246.851 L 138.885 253.246 141.692 252.563 C 147.123 251.241, 161.018 243.915, 164.279 240.654 C 168.636 236.297, 170 231.282, 170 219.615 C 170 203.653, 167.077 167.668, 165.710 166.799 C 165.044 166.377, 163.037 166.024, 161.250 166.015 L 158 166 158 176.710 M 242.500 167.924 L 236.500 168.512 242.073 170.232 C 246.587 171.626, 248.771 171.768, 253.573 170.982 C 256.833 170.448, 259.950 169.971, 260.500 169.922 C 261.050 169.873, 258.800 169.224, 255.500 168.480 C 252.200 167.737, 249.275 167.175, 249 167.232 C 248.725 167.289, 245.800 167.601, 242.500 167.924 M 344.500 170.661 C 343.400 170.955, 341.206 172.388, 339.624 173.847 C 331.275 181.548, 330.697 197.015, 338.503 203.868 C 343.121 207.923, 347.969 208.769, 353.163 206.427 C 369.238 199.178, 367.789 171.429, 351.283 170.421 C 348.652 170.260, 345.600 170.368, 344.500 170.661 M 217.180 172.224 C 213.704 172.757, 211.051 173.384, 211.284 173.618 C 211.518 173.851, 215.445 174.699, 220.012 175.502 C 227.558 176.829, 228.897 176.807, 234.701 175.260 L 241.088 173.558 235.794 172.322 C 229.685 170.894, 225.978 170.875, 217.180 172.224 M 328.500 172.689 C 326.850 172.903, 307.725 176.029, 286 179.636 C 250.950 185.454, 242.725 187, 246.830 187 C 247.471 187, 249.823 188.652, 252.058 190.671 L 256.121 194.342 277.310 190.643 C 288.965 188.608, 300.075 186.958, 302 186.976 C 316.197 187.105, 320.079 207.491, 306.835 212.365 C 304.451 213.243, 291.475 215.998, 278 218.488 C 255.221 222.697, 248.098 224.432, 249.175 225.508 C 249.555 225.888, 263.144 223.667, 301 217.037 C 320.638 213.597, 335.494 211.091, 338 210.795 C 340.412 210.510, 340.371 210.419, 336.821 208.212 C 327.681 202.529, 325.468 185.957, 332.471 175.637 C 335.147 171.694, 335.298 171.806, 328.500 172.689 M 199.693 179.231 C 195.454 182.632, 195.047 183.986, 198.250 184.034 C 199.488 184.053, 203.977 184.893, 208.228 185.901 L 215.955 187.733 219.933 183.949 L 223.910 180.166 216.705 179.004 C 212.742 178.366, 208.125 177.489, 206.443 177.055 C 203.888 176.397, 202.781 176.754, 199.693 179.231 M 344.656 179.133 C 342.375 180.459, 340 185.946, 340 189.891 C 340 193.125, 343.919 198.522, 346.971 199.491 C 352.016 201.092, 359 194.711, 359 188.500 C 359 185.127, 356.499 180.337, 354.055 179.030 C 351.587 177.709, 347.020 177.759, 344.656 179.133 M 346.789 183.750 C 343.170 187.915, 344.501 195, 348.902 195 C 353.048 195, 356.037 188.232, 353.560 184.451 C 351.675 181.575, 348.927 181.290, 346.789 183.750 M 192.618 187.715 C 191.006 189.327, 192.502 191.120, 198.250 194.464 C 201.688 196.464, 205.850 198.947, 207.500 199.982 L 210.500 201.865 212.620 196.432 C 214.713 191.071, 214.715 191, 212.765 191 C 211.678 191, 208.249 190.373, 205.144 189.607 C 196.817 187.552, 193.311 187.023, 192.618 187.715 M 176.250 191.495 C 176.250 194.206, 178.703 196.347, 188.671 202.339 C 194.062 205.580, 195.363 205.966, 198.961 205.390 L 203.081 204.731 197.699 202.017 C 194.739 200.524, 189.209 197.298, 185.409 194.849 C 181.609 192.400, 177.994 190.090, 177.375 189.716 C 176.662 189.286, 176.250 189.938, 176.250 191.495 M 236.140 189.711 C 233.773 190.169, 224.391 198.725, 225.281 199.614 C 225.541 199.875, 230.268 199.168, 235.784 198.044 C 241.301 196.920, 246.793 196, 247.990 196 C 250.669 196, 250.213 194.218, 246.937 191.888 C 244.199 189.939, 239.674 189.027, 236.140 189.711 M 265.500 200.051 C 248.450 203.240, 222.575 207.934, 208 210.480 C 193.425 213.027, 180.545 215.305, 179.378 215.543 C 177.951 215.833, 177.051 216.996, 176.632 219.089 C 175.739 223.554, 176.950 230, 178.682 230 C 179.466 230, 195.271 227.107, 213.804 223.570 C 242.360 218.121, 290.641 209.204, 301.685 207.340 C 311.179 205.737, 310.197 193.830, 300.595 194.126 C 298.343 194.196, 282.550 196.862, 265.500 200.051 M 298.228 196.230 C 295.833 197.385, 294.399 200.990, 295.349 203.468 C 296.005 205.177, 300.306 206.480, 302.506 205.636 C 303.337 205.317, 304.527 203.937, 305.151 202.569 C 306.063 200.566, 305.960 199.587, 304.619 197.541 C 302.811 194.781, 301.705 194.555, 298.228 196.230 M 299.143 199.907 C 298.137 200.532, 298.090 200.937, 298.960 201.475 C 300.332 202.323, 301.362 201.572, 300.854 200.095 C 300.646 199.489, 299.940 199.412, 299.143 199.907 M 176.766 206.558 C 177.096 208.284, 177.728 208.935, 178.709 208.558 C 179.509 208.251, 181.133 208, 182.317 208 C 183.995 208, 183.647 207.559, 180.739 206 C 176.077 203.501, 176.179 203.487, 176.766 206.558 M 26.058 224.002 C 22.155 226.373, 20.185 228.096, 21.058 228.373 C 23.422 229.123, 47.418 234.898, 63.500 238.588 C 71.750 240.481, 83.900 243.393, 90.500 245.059 C 104.709 248.646, 131.080 254.306, 131.376 253.832 C 131.490 253.650, 132.802 251.597, 134.292 249.271 C 135.781 246.946, 137 244.657, 137 244.185 C 137 243.713, 133.512 242.582, 129.250 241.671 C 124.987 240.760, 114.075 238.432, 105 236.499 C 95.925 234.565, 84.900 232.119, 80.500 231.062 C 72.482 229.137, 64.109 227.243, 40.500 222.016 C 37.750 221.408, 34.825 220.725, 34 220.499 C 33.175 220.273, 29.601 221.849, 26.058 224.002 M 237 226 C 232.224 227.327, 231.296 227.831, 233.500 227.898 C 237.416 228.017, 244 226.170, 244 224.953 C 244 224.429, 243.887 224.044, 243.750 224.097 C 243.613 224.150, 240.575 225.006, 237 226 M 210.757 230.577 C 210.492 230.841, 208.302 231.418, 205.888 231.858 L 201.500 232.660 205.750 233.830 C 215.306 236.461, 218.214 237.119, 218.597 236.736 C 218.818 236.515, 217.253 234.931, 215.118 233.215 C 212.984 231.500, 211.021 230.312, 210.757 230.577" stroke="none" fill="black" fill-rule="evenodd"/>
</svg>