<svg xmlns="http://www.w3.org/2000/svg" width="373" height="270" viewBox="0 0 373 270" version="1.1">
	<path d="M 91.331 9.392 C 88.841 11.534, 88.511 12.560, 88.175 19.206 C 87.802 26.592, 87.816 26.642, 91.150 29.364 C 92.993 30.869, 97.425 33.990, 101 36.300 C 105.338 39.103, 107.606 41.249, 107.820 42.750 C 108.126 44.908, 107.840 45, 100.779 45 C 86.130 45, 57.792 50.025, 49.987 54.007 C 39.434 59.391, 34.379 68.236, 24.507 98.594 C 15.252 127.056, 13.218 138.426, 12.496 165.743 C 12.064 182.095, 11.812 184.188, 10.072 185.928 C 4.230 191.770, 5.002 209.221, 11.383 215.565 C 14.461 218.626, 17.868 220.163, 29.398 223.694 C 34.260 225.183, 35.617 226.104, 37.126 228.943 C 40.301 234.916, 47.989 241.852, 53.877 244.055 C 60.992 246.717, 73.167 247.639, 79.895 246.025 C 82.989 245.283, 87.201 243.175, 90.297 240.819 C 96.009 236.473, 95.466 236.521, 110.464 239.049 C 114.315 239.698, 123.033 240.055, 129.964 239.846 L 142.500 239.470 145.324 245.246 C 148.595 251.935, 154.267 256.767, 162.847 260.173 C 167.406 261.983, 170.532 262.425, 179 262.459 C 188.252 262.495, 190.154 262.193, 195.005 259.918 C 204.087 255.657, 209.321 249.691, 212.482 240 C 216.332 228.194, 214.242 229.511, 229.269 229.421 C 238.125 229.368, 244.980 228.761, 250 227.585 C 254.125 226.619, 259.562 225.592, 262.083 225.303 C 266.498 224.797, 266.714 224.896, 268.011 228.027 C 269.818 232.389, 276.571 238.927, 281.496 241.082 C 292.261 245.793, 307.091 246.031, 315.700 241.632 C 333.656 232.456, 339.682 203.255, 327.324 185.308 C 325.221 182.254, 322.249 178.775, 320.719 177.578 L 317.939 175.401 324.219 175.761 C 332.590 176.240, 336.638 174.088, 339.913 167.416 C 343.608 159.887, 343.695 159.669, 344.488 155.967 C 344.897 154.060, 345.564 152.050, 345.971 151.500 C 346.378 150.950, 346.962 149.600, 347.268 148.500 C 349.249 141.389, 358.189 117.444, 358.961 117.183 C 366.125 114.767, 369.535 101.058, 364.742 93.945 C 362.268 90.274, 358.664 88.846, 327 78.989 C 318.475 76.335, 304.975 72.085, 297 69.544 C 289.025 67.004, 277.325 63.340, 271 61.402 C 264.675 59.464, 258.698 57.091, 257.718 56.129 C 256.738 55.168, 254.641 50.756, 253.057 46.325 C 247.715 31.377, 244.454 26.707, 238.246 25.113 C 236.186 24.584, 231.575 23.391, 228 22.463 C 213.278 18.639, 202.583 16.877, 182.578 14.979 C 170.985 13.879, 151.825 12.069, 140 10.958 C 128.175 9.846, 114.675 8.503, 110 7.971 C 96.999 6.494, 94.476 6.686, 91.331 9.392 M 96.390 17.584 C 96.078 18.826, 95.981 20.662, 96.174 21.664 C 96.545 23.591, 94.335 23.304, 175.500 31.975 C 186.500 33.150, 197.170 34.348, 199.211 34.637 C 203.188 35.200, 203.160 35.238, 204.277 27.873 C 204.654 25.386, 204.405 25.216, 199.588 24.684 C 188.854 23.497, 173.857 21.997, 157.500 20.475 C 148.150 19.605, 135.550 18.270, 129.500 17.508 C 123.450 16.746, 113.653 15.943, 107.728 15.724 C 97.227 15.336, 96.942 15.383, 96.390 17.584 M 206.493 28.022 C 205.029 32.634, 206.819 35.546, 212.906 38.455 C 219.465 41.590, 224.685 46.040, 226.067 49.677 C 226.579 51.023, 227.290 55.922, 227.646 60.562 C 228.003 65.203, 228.818 69.434, 229.457 69.964 C 230.096 70.495, 236.667 72.756, 244.060 74.989 C 274.574 84.208, 285.420 87.529, 303.500 93.191 C 319.787 98.291, 356.444 109, 357.614 109 C 358.659 109, 357.854 98.139, 356.750 97.345 C 356.063 96.849, 350.325 94.789, 344 92.767 C 319.738 85.008, 281.886 72.976, 267.788 68.541 C 251.685 63.475, 250.648 62.746, 247.559 54.324 C 243.004 41.906, 240.671 36.372, 239.364 34.891 C 237.987 33.329, 234.724 32.328, 217.060 28.046 C 206.773 25.553, 207.276 25.554, 206.493 28.022 M 112.037 33.918 C 115.035 37.070, 116 38.899, 116 41.431 C 116 45.367, 114.558 44.958, 139 47.957 C 154.836 49.900, 161.757 50.966, 181.500 54.502 C 202.170 58.204, 208.321 61.742, 211.923 72 C 213.127 75.428, 214.451 94.626, 215.816 128.452 L 216.500 145.405 223.273 146.846 C 226.997 147.639, 230.258 148.075, 230.519 147.814 C 231.134 147.199, 225.996 86.815, 223.048 60 C 222.055 50.973, 221.830 50.347, 218.534 47.422 C 212.002 41.626, 203.551 39.266, 183 37.497 C 172.825 36.622, 163.825 35.716, 163 35.485 C 162.175 35.253, 151.600 34.149, 139.500 33.030 C 127.400 31.912, 115.379 30.716, 112.787 30.374 L 108.074 29.752 112.037 33.918 M 88.500 53.543 C 62.440 57.209, 50.830 61.281, 45.814 68.512 C 39.628 77.430, 26.244 117.498, 22.967 136.912 C 21.831 143.639, 21.018 153.114, 21.028 159.500 C 21.045 170.081, 21.104 170.381, 22.581 167.388 C 24.822 162.845, 28.054 161.400, 32.797 162.821 C 38.629 164.568, 41.215 167.912, 41.304 173.823 C 41.399 180.113, 39.204 183.559, 34.137 185.077 C 29.102 186.586, 25.166 184.830, 22.752 179.999 L 21.003 176.500 21.002 181.737 C 21 186.708, 21.166 187.043, 24.274 188.341 C 37.141 193.717, 102.007 205.856, 122.589 206.739 L 134.679 207.258 135.294 180.879 C 135.950 152.759, 136.929 143.982, 143.589 106.553 C 148.053 81.460, 149.468 77.878, 156.317 74.336 C 159.960 72.452, 179.480 68.407, 189.423 67.475 C 193.674 67.077, 196.779 66.389, 196.325 65.946 C 195.014 64.667, 155.113 57.309, 137 55.006 C 115.254 52.241, 100.840 51.806, 88.500 53.543 M 53.114 67.110 C 46.209 68.523, 44.197 72.114, 35.491 98.565 C 27.229 123.669, 25.226 132.717, 26.990 136.975 C 28.617 140.905, 33.735 143.598, 42.137 144.947 C 45.637 145.509, 52.775 146.909, 58 148.059 C 74.524 151.694, 109.881 156.948, 118 156.975 C 123.962 156.994, 129.027 154.686, 130.964 151.067 C 131.564 149.946, 132.980 144.184, 134.109 138.264 C 135.239 132.344, 137.262 121.904, 138.606 115.065 C 139.949 108.226, 141.322 98.769, 141.657 94.050 C 142.242 85.807, 142.162 85.346, 139.619 82.324 C 136.344 78.431, 130.966 76.543, 116.033 74.042 C 84.333 68.732, 58.890 65.929, 53.114 67.110 M 196.674 69.109 C 195.670 69.701, 188.695 71.248, 181.174 72.548 C 173.653 73.847, 164.800 75.723, 161.500 76.716 C 152.735 79.353, 152.130 80.945, 146.022 117.460 C 140.707 149.228, 139.041 166.899, 139.015 191.750 C 139.001 206.216, 139.100 207, 140.953 207 C 147.285 207, 151.451 213.268, 150.854 221.894 C 150.355 229.101, 151.579 228.238, 152.940 220.424 C 155.936 203.220, 164.506 190.447, 176.383 185.484 C 178.459 184.617, 185.984 183.092, 193.103 182.096 C 200.223 181.100, 206.375 179.956, 206.774 179.554 C 207.874 178.446, 207.408 99.195, 206.222 85.611 C 204.922 70.725, 202.129 65.897, 196.674 69.109 M 52.223 72.671 C 49.842 73.629, 44.838 85.556, 39.918 102 C 36.301 114.092, 32.746 125.489, 31.871 127.797 C 28.612 136.395, 32.284 138.503, 59.102 143.433 C 102.533 151.416, 119.503 153.407, 123.929 151.038 C 126.650 149.582, 127.577 146.340, 131.949 123 C 134.164 111.175, 136.432 99.328, 136.988 96.674 C 139.822 83.156, 136.853 81.480, 101.500 76.627 C 67.637 71.979, 56.223 71.063, 52.223 72.671 M 229.368 78.750 C 229.658 80.263, 230.163 84.875, 230.490 89 C 231.813 105.664, 234.091 130.002, 235.098 138.212 C 235.685 143.003, 235.897 147.358, 235.568 147.890 C 235.240 148.421, 235.765 149.107, 236.735 149.414 C 238.452 149.957, 319.814 166.165, 327.196 167.435 C 331.711 168.211, 331.352 168.790, 338.140 149.774 C 350.820 114.246, 351.015 113.627, 349.736 112.830 C 349.056 112.405, 345.575 111.387, 342 110.567 C 338.425 109.747, 331.470 107.726, 326.543 106.078 C 321.617 104.429, 317.485 103.181, 317.361 103.306 C 317.237 103.430, 317.566 106.899, 318.092 111.016 C 322.459 145.178, 323.954 160.446, 323.024 161.376 C 320.921 163.479, 320.033 160.073, 317.575 140.492 C 316.194 129.496, 314.540 116.318, 313.898 111.207 L 312.731 101.915 309.212 100.444 C 307.277 99.635, 305.550 99.116, 305.376 99.291 C 305.117 99.549, 308.261 127.919, 311.562 155.116 C 311.981 158.566, 311.855 160.972, 311.235 161.355 C 308.548 163.015, 307.628 158.290, 302.983 119 C 301.910 109.925, 301.025 101.478, 301.016 100.229 C 300.998 97.695, 300.037 97.194, 289.500 94.227 C 285.650 93.143, 281.690 91.916, 280.699 91.501 C 279.190 90.869, 278.988 91.132, 279.449 93.124 C 279.752 94.431, 280.694 103.600, 281.541 113.500 C 282.389 123.400, 283.489 135.100, 283.987 139.500 C 285.303 151.136, 285.236 153, 283.500 153 C 282.675 153, 282 152.887, 282 152.750 C 281.999 149.873, 274.909 90.576, 274.519 90.186 C 274.213 89.880, 272.348 89.074, 270.373 88.395 L 266.784 87.162 267.460 93.831 C 267.831 97.499, 269.455 111.254, 271.068 124.397 C 274.179 149.750, 274.531 155, 273.122 155 C 270.980 155, 270.057 151.566, 268.549 137.993 C 265.426 109.893, 262.249 86.849, 261.380 85.994 C 260.603 85.231, 249.407 81.706, 243.250 80.286 C 240.494 79.650, 240.458 80.491, 242.510 97.500 C 243.307 104.100, 243.978 112.200, 244.003 115.500 C 244.028 118.800, 244.451 123.237, 244.943 125.359 C 245.436 127.482, 246.153 132.994, 246.538 137.609 C 247.147 144.924, 247.031 146, 245.637 146 C 243.510 146, 243.500 145.940, 240.017 112 C 238.353 95.775, 236.770 81.532, 236.501 80.350 C 236.209 79.065, 234.742 77.757, 232.857 77.100 C 228.674 75.642, 228.764 75.599, 229.368 78.750 M 175.567 80.537 C 166.283 82.095, 159.900 84.348, 157.614 86.874 C 156.064 88.587, 150.024 116.772, 146.904 136.854 C 145.785 144.053, 145.811 145.572, 147.087 147.847 C 147.902 149.298, 149.338 150.634, 150.279 150.815 C 151.220 150.996, 156.604 149.717, 162.245 147.972 C 196.760 137.294, 198.653 136.364, 199.915 129.463 C 200.932 123.902, 199.304 87.149, 197.890 83.734 C 197.250 82.188, 195.917 80.491, 194.929 79.962 C 192.547 78.687, 185.305 78.902, 175.567 80.537 M 176.500 84.981 C 170.616 85.890, 164.018 87.665, 162.239 88.816 C 161.150 89.520, 159.421 96.900, 155.048 119.500 C 152.563 132.344, 151.085 144.485, 151.906 145.306 C 153.029 146.429, 190.286 134.403, 193.306 131.943 C 195.442 130.202, 195.492 129.665, 195.209 111.644 C 195.049 101.463, 194.588 91.191, 194.185 88.817 L 193.452 84.500 187.476 84.354 C 184.189 84.274, 179.250 84.556, 176.500 84.981 M 188.259 147.705 C 185.962 148.148, 183 151.497, 183 153.651 C 183 156.343, 186.181 158, 191.349 158 C 197.430 158, 201 155.965, 201 152.500 C 201 148.150, 195.901 146.231, 188.259 147.705 M 187.543 152.931 C 187.226 153.443, 187.441 154.155, 188.020 154.513 C 189.451 155.397, 197 154.051, 197 152.912 C 197 151.710, 188.286 151.728, 187.543 152.931 M 216.622 154.802 C 216.349 155.244, 216.168 159.406, 216.220 164.052 C 216.272 168.699, 215.989 174.075, 215.592 176 C 214.997 178.883, 215.928 177.878, 220.874 170.298 C 228.967 157.895, 229.387 157.063, 227.793 156.573 C 227.082 156.355, 224.970 155.687, 223.101 155.088 C 219.056 153.793, 217.294 153.716, 216.622 154.802 M 233.479 161.701 C 232.390 163.739, 230.574 166.553, 229.441 167.953 C 228.309 169.354, 226.432 172.153, 225.270 174.174 L 223.157 177.849 226.828 177.291 C 239.068 175.433, 238.025 176.013, 242.652 168.484 C 245.013 164.643, 246.957 161.171, 246.972 160.769 C 247 160.028, 245.330 159.565, 238.979 158.555 C 235.717 158.037, 235.311 158.269, 233.479 161.701 M 248.793 168.177 C 246.754 171.610, 245.223 174.556, 245.391 174.724 C 245.664 174.997, 257.064 173.414, 283 169.501 C 287.675 168.796, 290.077 168.170, 288.339 168.110 C 286.600 168.049, 280.525 166.917, 274.839 165.593 C 269.152 164.269, 261.800 162.904, 258.500 162.561 L 252.500 161.935 248.793 168.177 M 27.090 169.131 C 25.303 170.796, 24.936 171.930, 25.413 174.315 C 26.495 179.727, 29.986 182.094, 34.391 180.403 C 36.528 179.583, 37.474 173.762, 35.942 170.855 C 33.598 166.408, 30.633 165.830, 27.090 169.131 M 46.689 168.791 C 45.422 170.191, 45 172.518, 45 178.106 C 45 187.050, 46.425 189.659, 51.779 190.515 C 53.825 190.843, 59.325 191.983, 64 193.048 C 74.446 195.430, 84.325 196.982, 89.095 196.992 C 94.285 197.003, 95.982 194.601, 96.682 186.252 C 97.201 180.064, 97.031 179.031, 95.190 177.190 C 94.047 176.047, 91.399 174.831, 89.306 174.489 C 87.213 174.146, 81.450 173.023, 76.500 171.994 C 71.550 170.965, 64.350 169.634, 60.500 169.037 C 56.650 168.440, 52.348 167.720, 50.939 167.438 C 49.219 167.093, 47.824 167.537, 46.689 168.791 M 20.232 173 C 20.232 174.925, 20.438 175.713, 20.689 174.750 C 20.941 173.787, 20.941 172.213, 20.689 171.250 C 20.438 170.287, 20.232 171.075, 20.232 173 M 49.610 173.574 C 48.529 176.390, 47.732 176.147, 77.500 182.067 C 92.350 185.021, 92.500 185.020, 92.500 182 C 92.500 179.173, 91.196 178.795, 68.500 175.045 C 61.900 173.955, 55.102 172.780, 53.394 172.435 C 50.977 171.947, 50.137 172.199, 49.610 173.574 M 298.500 172.872 C 296.097 173.462, 296.993 173.726, 303 174.199 C 307.125 174.524, 310.688 174.613, 310.917 174.395 C 312.603 172.796, 303.406 171.667, 298.500 172.872 M 290.750 174.662 C 291.438 174.940, 292.563 174.940, 293.250 174.662 C 293.938 174.385, 293.375 174.158, 292 174.158 C 290.625 174.158, 290.063 174.385, 290.750 174.662 M 107.468 176.856 C 103.493 179.280, 100.547 185.770, 101.387 190.250 C 101.758 192.227, 103.491 195.053, 105.566 197.064 C 108.472 199.881, 109.875 200.500, 113.350 200.500 C 118.683 200.500, 122.718 197.918, 124.664 193.261 C 127.549 186.356, 123.464 178.056, 116.186 176.035 C 111.301 174.678, 110.992 174.707, 107.468 176.856 M 268 177.545 C 244.219 180.917, 218.443 185.009, 211.500 186.515 C 208.200 187.230, 202.800 188.152, 199.500 188.564 L 193.500 189.314 197.415 190.295 C 199.844 190.904, 202.964 192.912, 205.638 195.586 L 209.947 199.895 209.367 195.659 C 208.963 192.715, 209.200 191.084, 210.143 190.312 C 211.565 189.148, 230.916 186.521, 249.311 184.994 C 261.397 183.990, 264.277 184.582, 267.745 188.782 C 269.233 190.583, 270.005 190.994, 270.033 190 C 270.057 189.175, 271.995 186.324, 274.340 183.664 C 277.477 180.104, 280.042 178.330, 284.052 176.946 C 291.024 174.539, 288.550 174.632, 268 177.545 M 108.452 182.646 C 105.265 186.085, 105.266 190.357, 108.455 193.545 C 111.836 196.927, 116.217 196.811, 119.006 193.266 C 121.570 190.006, 121.113 185.814, 117.810 182.298 C 114.957 179.261, 111.469 179.391, 108.452 182.646 M 49 182.378 C 49 185.672, 53.793 187.211, 75.668 190.943 C 90.443 193.464, 90.645 193.465, 91.281 191.035 C 91.912 188.621, 92.186 188.708, 74 185.543 C 66.025 184.155, 57.928 182.565, 56.007 182.010 C 51.223 180.627, 49 180.744, 49 182.378 M 288.627 182.468 C 278.142 186.206, 273.778 193.914, 273.608 209 C 273.438 223.957, 277.319 231.105, 287.722 234.997 C 294.626 237.580, 294.874 237.535, 291.801 234.250 C 288.195 230.395, 286.466 226.518, 285 219 C 282.522 206.284, 287.419 190.567, 295.828 184.251 L 300.155 181 296.328 181.044 C 294.222 181.068, 290.757 181.709, 288.627 182.468 M 302.390 185.432 C 294.413 188.904, 289.708 198.739, 289.679 212 C 289.658 221.571, 290.979 225.629, 295.968 231.310 C 300.597 236.583, 305.397 237.802, 311.281 235.200 C 319.822 231.422, 325 220.991, 325 207.562 C 325 199.350, 323.936 194.990, 320.823 190.447 C 316.591 184.270, 309.495 182.340, 302.390 185.432 M 242.500 190.100 C 238.650 190.566, 233.586 191.212, 231.247 191.535 L 226.993 192.124 229.907 194.576 C 234.660 198.575, 237.358 209.187, 235.146 215.185 C 234.677 216.458, 234.011 218.667, 233.667 220.092 L 233.041 222.685 246.771 220.376 C 254.322 219.107, 261.448 217.642, 262.608 217.120 C 265.054 216.020, 266 212.310, 266 203.809 C 266 197.592, 265.110 194.993, 261.701 191.250 C 259.427 188.753, 255.549 188.521, 242.500 190.100 M 14.630 195.250 C 13.003 201.324, 15.105 208.712, 19.231 211.416 C 22.239 213.387, 31.790 215.840, 54.054 220.360 C 88.470 227.347, 110.952 231.393, 121.500 232.499 C 129.137 233.300, 141.074 231.486, 142.750 229.270 C 144.038 227.567, 144.469 218.387, 143.393 215.582 C 142.890 214.271, 140.877 213.999, 131.643 213.992 C 120.189 213.984, 104.121 212.312, 88.422 209.494 C 49.101 202.437, 25.198 197.177, 19.800 194.393 C 16.125 192.497, 15.333 192.629, 14.630 195.250 M 214 202.134 C 214 216.975, 216.272 221.690, 223.919 222.716 C 227.875 223.247, 228.039 223.152, 229.595 219.426 C 230.720 216.734, 231.089 213.435, 230.833 208.359 C 230.529 202.343, 230.050 200.674, 227.984 198.434 C 225.127 195.338, 220.201 193, 216.532 193 C 214.007 193, 214 193.027, 214 202.134 M 303.841 195.524 C 297.162 199.152, 294.168 210.583, 297.885 218.263 C 300.267 223.182, 303.227 225, 308.856 225 C 315.638 225, 319.990 219.003, 319.996 209.651 C 320.004 197.161, 312.657 190.736, 303.841 195.524 M 173.500 196.861 C 167.294 200.694, 162.966 208.496, 160.341 220.586 C 159.005 226.736, 157.940 229.189, 155.561 231.589 C 153.878 233.288, 151.876 234.884, 151.113 235.135 C 149.985 235.506, 150.102 236.423, 151.739 240.046 C 152.846 242.496, 154.728 245.515, 155.920 246.755 C 158.401 249.337, 166.076 253.375, 170.500 254.427 L 173.500 255.141 169.951 251.320 C 164.543 245.500, 162.674 238.467, 163.187 225.880 C 163.547 217.037, 164.033 214.621, 166.466 209.562 C 168.037 206.296, 171.263 201.684, 173.635 199.312 C 178.285 194.662, 178.245 193.930, 173.500 196.861 M 182.500 198.896 C 177.155 201.370, 173.676 205.270, 170.377 212.483 C 168.025 217.624, 167.633 219.805, 167.587 227.983 C 167.528 238.496, 169.573 244.854, 174.756 250.266 C 183.009 258.884, 196.907 254.036, 203.720 240.161 C 206.249 235.009, 206.499 233.511, 206.493 223.500 C 206.488 214.180, 206.160 211.889, 204.346 208.500 C 198.632 197.823, 191.547 194.707, 182.500 198.896 M 305.707 200.016 C 300.421 204.174, 299.769 214.556, 304.514 219.013 C 309.274 223.485, 315 218.671, 315 210.199 C 315 205.082, 313.242 200.200, 310.961 198.979 C 308.571 197.700, 308.678 197.679, 305.707 200.016 M 184.500 209.878 C 174.539 214.409, 171.918 232.546, 180.214 239.527 C 184.081 242.781, 190.564 242.918, 194.491 239.829 C 200.718 234.930, 202.721 224.187, 198.886 216.264 C 195.476 209.221, 190.652 207.080, 184.500 209.878 M 184.251 215.537 C 179.913 218.575, 178.926 229.186, 182.477 234.606 C 184.162 237.177, 187.738 237.746, 191.055 235.970 C 198.474 232, 196.984 214, 189.237 214 C 187.701 214, 185.458 214.691, 184.251 215.537 M 46 227.813 C 46 229.594, 51.818 234.032, 57.374 236.488 C 63.327 239.119, 65.299 239.323, 62.524 237.020 C 61.686 236.324, 61 235.299, 61 234.742 C 61 233.097, 56.426 229.344, 52.937 228.128 C 49.143 226.805, 46 226.662, 46 227.813 M 62.765 231.790 C 62.386 233.241, 63.545 234.233, 68.181 236.422 C 74.287 239.305, 77.861 239.387, 83.589 236.777 C 88.172 234.690, 87.620 234.448, 72.500 231.925 C 69.200 231.375, 65.768 230.704, 64.874 230.434 C 63.866 230.130, 63.065 230.645, 62.765 231.790" stroke="none" fill="black" fill-rule="evenodd"/>
</svg>