<svg xmlns="http://www.w3.org/2000/svg" width="365" height="251" viewBox="0 0 365 251" version="1.1">
	<path d="M 149.003 7.197 C 139.689 9.306, 135.509 15.067, 133.613 28.410 L 132.476 36.410 125.227 39.177 C 121.240 40.698, 116.394 43.019, 114.459 44.334 C 105.029 50.742, 93.754 64.527, 87.084 77.804 C 84.586 82.776, 83.538 83.988, 82.126 83.540 C 78.829 82.494, 70.367 82.733, 68.118 83.937 C 62.537 86.924, 60.373 95.833, 63.852 101.500 L 65.694 104.500 50.033 112.190 C 22.187 125.864, 14.622 135.718, 12.436 161.169 C 11.866 167.795, 11.237 170.079, 9.360 172.327 C 7.278 174.821, 7 176.175, 7.004 183.827 C 7.007 190.727, 7.415 193.169, 9.002 195.771 C 11.780 200.328, 18.495 204.294, 28.028 207.008 C 34.742 208.920, 36.589 209.906, 38.743 212.730 C 47.738 224.522, 67.619 229.417, 82.440 223.487 L 88.722 220.974 98.809 222.962 C 114.310 226.018, 130.324 227.350, 139.079 226.313 L 146.659 225.415 149.579 229.769 C 153.100 235.018, 161.774 240.215, 170.926 242.560 C 179.936 244.868, 192.967 244.243, 199.144 241.207 C 208.515 236.601, 216.496 226.106, 217.761 216.726 C 218.041 214.650, 218.673 212.702, 219.166 212.398 C 220.094 211.824, 248.318 205.432, 262.727 202.533 L 270.954 200.878 274.227 204.621 C 282.101 213.625, 287.703 216.026, 302.532 216.752 C 311.393 217.185, 313.179 216.979, 317.820 214.982 C 326.072 211.432, 336 198.289, 336 190.914 C 336 187.218, 338.691 184.522, 343.807 183.090 C 349.671 181.450, 355.355 175.617, 356.841 169.716 C 358.976 161.237, 358.003 154.781, 353.935 150.438 C 352.360 148.756, 351.899 146.357, 351.436 137.438 C 350.482 119.080, 348.249 112.168, 341.226 105.823 C 337.416 102.381, 334.417 100.954, 323 97.154 L 317.500 95.322 310.500 83.271 C 293.999 54.865, 284.362 46.438, 258.802 38.066 L 252.105 35.872 250.570 30.593 C 248.780 24.434, 246.013 20.575, 241.840 18.417 C 237.311 16.075, 222.239 13.659, 183.500 9.064 C 161.052 6.401, 154.165 6.028, 149.003 7.197 M 150.500 14.791 C 145.518 16.557, 142 21.354, 142 26.379 C 142 28.991, 144.114 29.715, 157 31.517 C 159.475 31.863, 162.349 32.388, 163.386 32.684 C 164.998 33.143, 165.176 32.835, 164.608 30.573 C 163.759 27.191, 165.414 21.015, 168.076 17.631 L 170.145 15 167.219 15 C 165.610 15, 161.640 14.793, 158.397 14.541 C 155.154 14.288, 151.600 14.401, 150.500 14.791 M 175.144 17.596 C 170.478 20.895, 168.015 32.321, 171.750 33.345 C 175.400 34.347, 183.681 35.887, 188.250 36.414 L 193 36.962 193 32.797 C 193 28.301, 196.447 20.019, 198.339 19.970 C 201.459 19.888, 195.779 18.166, 190.500 17.593 C 187.200 17.235, 182.925 16.714, 181 16.436 C 178.665 16.099, 176.716 16.485, 175.144 17.596 M 204.182 21.332 C 200.858 22.815, 197.591 30.008, 198.366 34.139 C 199.007 37.556, 199.209 37.692, 205.263 38.780 C 208.694 39.396, 214.242 40.198, 217.593 40.562 L 223.686 41.223 223.256 38.292 C 222.664 34.254, 224.745 27, 226.496 27 C 227.624 27, 227.849 28.551, 227.595 34.574 C 227.288 41.843, 227.360 42.128, 229.387 41.660 C 230.549 41.391, 234.136 40.601, 237.357 39.903 L 243.214 38.634 242.697 34.779 C 242.051 29.960, 239.641 26.194, 236.419 24.969 C 234.126 24.097, 218.303 21.602, 209.856 20.781 C 207.852 20.586, 205.298 20.834, 204.182 21.332 M 141 35.812 C 141 37.027, 141.936 37.235, 161.500 40.373 C 170.300 41.785, 186.275 44.354, 197 46.084 C 222.900 50.260, 230.829 50.687, 238.422 48.315 C 241.680 47.298, 244.515 45.955, 244.723 45.332 C 244.974 44.577, 243.669 44.702, 240.800 45.709 C 234.962 47.757, 216.322 46.843, 196.500 43.536 C 188.250 42.159, 173.625 39.896, 164 38.506 C 154.375 37.116, 145.262 35.723, 143.750 35.410 C 142.238 35.097, 141 35.278, 141 35.812 M 133.500 44.406 C 125.951 46.806, 116.673 52.196, 111.228 57.346 C 105.433 62.826, 97.585 75.223, 87.458 94.896 L 81.592 106.292 74.546 109.557 C 70.671 111.353, 63.675 114.506, 59 116.564 C 54.325 118.622, 48.933 121.362, 47.018 122.653 C 45.103 123.944, 43.137 125, 42.649 125 C 42.161 125, 39.166 127.102, 35.993 129.670 L 30.223 134.341 34.111 139.260 C 36.250 141.966, 38.020 144.927, 38.044 145.840 C 38.069 146.753, 39.033 145.700, 40.188 143.500 C 46.720 131.059, 57.735 121.293, 75.750 111.974 C 84.089 107.661, 86 106.258, 86 104.448 C 86 100.255, 101.509 72.086, 108.678 63.256 C 117.038 52.960, 127.522 51.058, 154.500 54.943 C 201.640 61.732, 203.619 64.139, 192.360 101 C 186.741 119.394, 186.053 120.800, 180.248 125.759 C 175.504 129.813, 170.550 132.822, 149.188 144.627 C 146.817 145.937, 142.092 148.920, 138.688 151.255 L 132.500 155.500 139.417 156.094 C 145.398 156.607, 146.665 157.072, 148.778 159.528 C 150.832 161.916, 151.128 163.053, 150.633 166.663 C 148.962 178.850, 138.675 187, 124.960 187 C 107.320 187, 100.435 180.320, 105.890 168.500 C 106.905 166.300, 108.831 163.493, 110.170 162.262 C 112.557 160.067, 120.731 157.032, 124.315 157.011 C 125.313 157.005, 127.208 155.718, 128.526 154.152 C 132.411 149.535, 144.431 141.840, 160.935 133.406 L 176.370 125.517 170.435 124.299 C 167.171 123.629, 162.581 122.612, 160.236 122.040 C 157.890 121.468, 154.810 121, 153.390 121 C 151.970 121, 148.489 120.331, 145.654 119.513 C 142.819 118.696, 135.550 117.136, 129.500 116.046 C 123.450 114.957, 116.250 113.589, 113.500 113.006 C 110.750 112.424, 104.184 111.294, 98.909 110.496 L 89.319 109.046 80.409 113.787 C 61.852 123.662, 51.271 132.467, 46.508 142 C 45.546 143.925, 44.035 146.325, 43.150 147.333 C 42.091 148.538, 41.316 152.049, 40.885 157.592 C 40.525 162.226, 39.673 166.689, 38.992 167.509 C 36.962 169.955, 28.916 169.432, 24.715 166.582 C 20.871 163.973, 20 164.503, 20 169.451 C 20 171.288, 21.168 172.245, 25.932 174.311 C 29.195 175.726, 33.582 177.182, 35.682 177.546 C 37.782 177.911, 45.800 179.696, 53.500 181.513 C 84.775 188.895, 88.643 189.623, 120.500 194.106 C 124.350 194.647, 132.948 194.795, 139.606 194.433 C 153.162 193.697, 155.376 194.287, 157.434 199.181 L 158.705 202.204 159.290 198.603 C 160.296 192.402, 166.191 181.775, 171.715 176.201 C 178.618 169.237, 184.453 166.666, 193.569 166.573 C 199.757 166.509, 201.253 166.878, 205.569 169.529 C 211.381 173.100, 216.377 180.048, 218.580 187.626 C 220.092 192.827, 222 194.841, 222 191.236 C 222 188.174, 218.218 178.975, 215.488 175.395 C 211.297 169.900, 207.895 167.150, 201.810 164.336 C 194.925 161.152, 194.435 160.106, 193.053 145.650 C 192.119 135.889, 191.763 134.601, 189.507 132.827 C 185.730 129.856, 186.353 126.545, 192.443 117.229 C 196.468 111.071, 198.268 107.111, 199.488 101.729 C 201.527 92.738, 205.512 80.986, 208.618 74.806 C 212.789 66.507, 223.966 61.048, 236.960 60.964 C 240.007 60.945, 245.200 60.277, 248.500 59.480 C 263.696 55.811, 274.747 58.475, 283.165 67.839 C 288.415 73.678, 302 99.961, 302 104.279 C 302 105.091, 302.680 106.319, 303.510 107.008 C 305.761 108.876, 307.825 117.359, 308.496 127.500 C 309.220 138.438, 308.366 140.468, 301.475 144.181 C 292.380 149.081, 285.860 158.437, 282.470 171.455 C 281.661 174.558, 281 178.624, 281 180.490 C 281 182.355, 280.630 184.111, 280.177 184.391 C 279.199 184.995, 266.769 187.813, 259 189.191 C 255.975 189.728, 248.775 191.268, 243 192.613 C 237.225 193.959, 229.800 195.642, 226.500 196.353 C 220.747 197.593, 220.487 197.783, 220.177 200.958 C 219.906 203.727, 220.131 204.164, 221.549 203.620 C 222.482 203.262, 227.127 202.329, 231.872 201.548 C 236.618 200.766, 241.850 199.652, 243.500 199.073 C 245.150 198.494, 251 197.120, 256.500 196.021 C 262 194.922, 269.929 193.051, 274.119 191.863 L 281.739 189.703 282.340 183.261 C 283.129 174.814, 287.384 162.634, 291.515 157 C 296.828 149.752, 304.541 144.909, 310.909 144.821 C 318.917 144.710, 322.830 146.042, 327.903 150.603 L 332.832 155.035 338.216 153.020 C 343.399 151.081, 343.585 150.883, 343.214 147.703 C 342.964 145.569, 342.090 144.064, 340.742 143.450 C 336.929 141.713, 334.816 137.586, 334.299 130.870 C 333.743 123.628, 335.094 119.050, 338.012 118.287 C 340.418 117.657, 340.425 117.578, 338.344 114.403 C 336.605 111.748, 330.241 108.145, 323.500 106 C 315.222 103.366, 310.320 100.224, 308.363 96.298 C 305.013 89.581, 295.767 74.665, 291.386 68.911 C 283.307 58.300, 273.740 51.560, 260.386 47.073 L 251.675 44.146 250.088 47.323 C 247.786 51.928, 240.591 55.198, 231.473 55.783 C 223.908 56.269, 214.730 55.258, 197.500 52.042 C 192 51.016, 183.675 49.650, 179 49.009 C 174.325 48.367, 164.161 46.752, 156.414 45.421 C 140.537 42.692, 139.091 42.628, 133.500 44.406 M 128.461 58.108 C 121.549 58.961, 117.959 61.045, 112.756 67.224 C 107.733 73.190, 93.487 97.067, 92.461 101.241 C 91.636 104.599, 90.922 104.322, 108.500 107.451 C 116.200 108.821, 127 110.860, 132.500 111.982 C 166.197 118.854, 173.208 120.099, 176.619 119.816 C 180.347 119.506, 180.463 119.369, 183.297 112 C 186.282 104.239, 190.027 91.223, 192.479 80.094 C 194.139 72.556, 193 69.036, 188.297 67.175 C 175.897 62.268, 139.472 56.748, 128.461 58.108 M 254.936 63.597 C 253.528 64.027, 253.555 65.147, 255.208 74.788 C 256.218 80.679, 257.438 87.975, 257.918 91 C 259.594 101.556, 261.238 109.505, 261.895 110.229 C 262.259 110.630, 269.745 109.621, 278.529 107.987 C 287.313 106.353, 294.894 105.012, 295.375 105.008 C 298.128 104.983, 289.137 84.707, 281.879 74.571 C 276.693 67.328, 271.387 64.248, 263 63.612 C 259.425 63.341, 255.796 63.334, 254.936 63.597 M 245.015 65.750 C 245.023 66.713, 245.663 70.200, 246.437 73.500 C 247.789 79.261, 251.767 104.548, 252.218 110.250 C 252.443 113.084, 252.845 113.380, 255.227 112.466 C 256.382 112.023, 256.143 109.176, 253.825 95.716 C 252.289 86.797, 250.570 76.712, 250.005 73.304 C 249.441 69.897, 248.711 66.409, 248.383 65.554 C 247.569 63.434, 244.996 63.583, 245.015 65.750 M 227.230 67.550 C 216.767 70.367, 215.198 71.844, 210.811 83 C 207.491 91.443, 206.220 95.593, 205.454 100.500 L 204.830 104.500 211.769 104.573 C 220.437 104.664, 224.621 106.864, 227.469 112.831 C 229.090 116.227, 229.904 116.975, 231.500 116.533 C 232.600 116.229, 236.585 115.435, 240.355 114.769 L 247.211 113.557 246.711 108.528 C 245.904 100.400, 242.068 75.903, 240.795 70.750 C 239.664 66.172, 239.493 66.002, 236.061 66.066 C 234.102 66.102, 230.129 66.770, 227.230 67.550 M 71.750 91.039 C 70.787 91.622, 70 92.993, 70 94.085 C 70 96.663, 72.946 101.151, 74.150 100.407 C 75.435 99.613, 80.236 91.903, 79.749 91.416 C 78.689 90.356, 73.296 90.102, 71.750 91.039 M 291.500 110.782 C 269.301 114.723, 259.517 116.836, 259.676 117.653 C 263 134.701, 263.912 158.256, 261.865 174.214 C 261.241 179.081, 260.986 183.319, 261.298 183.631 C 261.610 183.943, 264.993 183.392, 268.816 182.408 L 275.767 180.617 276.971 175.058 C 278.530 167.864, 280.534 161.833, 282.924 157.148 C 285.866 151.382, 293.602 143.342, 299.072 140.365 C 301.782 138.889, 304.063 136.966, 304.139 136.091 C 304.836 128.133, 302.437 111.824, 300.308 110.038 C 299.864 109.666, 295.900 110.001, 291.500 110.782 M 203.841 111.524 C 202.379 112.318, 200.179 114.663, 198.951 116.734 C 197.724 118.805, 195.591 122.196, 194.211 124.268 C 191.079 128.974, 191.932 130.077, 196.034 126.624 C 198.935 124.184, 199.838 124, 208.922 124 C 217.415 124, 218.926 123.739, 220.497 122.003 C 222.975 119.266, 222.692 113.979, 219.949 111.758 C 217.245 109.568, 207.698 109.430, 203.841 111.524 M 290.108 117.330 C 284.487 118.827, 282.379 121.669, 284.570 124.796 C 285.773 126.514, 287.108 127, 290.622 127 C 299.150 127, 303.838 121.981, 299.429 117.571 C 297.613 115.756, 296.161 115.719, 290.108 117.330 M 248.500 118.465 C 247.950 118.634, 243.058 119.598, 237.628 120.607 C 229.712 122.078, 227.468 122.883, 226.297 124.669 C 223.863 128.384, 217.014 130.375, 208.987 129.702 C 202.494 129.158, 201.799 129.298, 198.899 131.738 C 196.039 134.145, 195.844 134.691, 196.512 138.429 C 196.912 140.668, 197.523 145.869, 197.870 149.987 L 198.500 157.474 205.500 161.139 C 214.748 165.980, 220.157 172.184, 224.123 182.499 C 225.815 186.900, 227.323 190.631, 227.474 190.791 C 227.625 190.951, 231.517 190.178, 236.124 189.073 C 240.731 187.968, 247.041 186.578, 250.146 185.983 C 256.918 184.686, 256.621 185.401, 258.160 166.695 C 259.327 152.514, 258.415 134.697, 255.930 123.111 C 254.937 118.481, 254.583 118.007, 252.167 118.079 C 250.700 118.122, 249.050 118.296, 248.500 118.465 M 292.500 120.675 C 288.319 121.600, 287.635 122.035, 288.697 123.097 C 289.979 124.379, 296.193 122.922, 296.765 121.204 C 297.170 119.989, 296.162 119.864, 292.500 120.675 M 339.667 122.667 C 337.900 124.433, 340.007 138, 342.047 138 C 343.148 138, 343.278 133.310, 342.364 126.640 C 341.753 122.185, 341.105 121.229, 339.667 122.667 M 242.419 126.075 C 240.724 126.567, 238.515 127.878, 237.510 128.989 C 236.006 130.651, 235.882 131.445, 236.807 133.476 C 238.194 136.519, 241.844 137.529, 247.285 136.377 C 252.461 135.281, 254.733 131.920, 253.116 127.750 C 252.241 125.493, 251.462 125.016, 248.775 125.090 C 246.974 125.140, 244.113 125.583, 242.419 126.075 M 246.500 129.491 C 245.950 129.675, 244.197 130.114, 242.605 130.468 C 238.085 131.472, 240.949 133.192, 245.838 132.410 C 248.375 132.004, 250 131.209, 250 130.372 C 250 129.072, 248.722 128.750, 246.500 129.491 M 24.293 143.750 C 23.410 145.813, 22.487 149.754, 22.240 152.510 C 21.844 156.938, 22.108 157.835, 24.508 160.235 C 27.059 162.786, 33.402 164.931, 34.664 163.669 C 35.598 162.735, 36.294 154.307, 35.649 151.737 C 34.929 148.870, 28.320 140, 26.903 140 C 26.350 140, 25.176 141.688, 24.293 143.750 M 44.424 151.147 C 43.227 153.461, 42.894 156.230, 43.165 161.599 C 43.490 168.034, 43.879 169.264, 46.427 171.924 C 49.726 175.368, 57.951 178.348, 68.500 179.923 C 72.350 180.497, 77.072 181.425, 78.993 181.984 C 80.915 182.543, 84.912 183, 87.875 183 C 92.680 183, 93.602 182.641, 96.382 179.690 C 98.097 177.869, 100.063 174.262, 100.750 171.675 C 103.613 160.902, 101.650 158.081, 89.269 155.176 C 73.781 151.541, 54.510 148, 50.220 148 C 46.556 148, 45.854 148.381, 44.424 151.147 M 49.200 153.200 C 47.068 155.332, 47.815 157.921, 50.750 158.571 C 52.263 158.906, 54.850 159.575, 56.500 160.059 C 60.256 161.160, 94.054 167.997, 95.750 167.999 C 97.726 168.001, 97.289 162.330, 95.250 161.514 C 91.402 159.974, 82.717 158.007, 71.334 156.096 C 64.747 154.991, 58.122 153.617, 56.613 153.043 C 53.015 151.675, 50.676 151.724, 49.200 153.200 M 307.392 156.526 C 299.010 160.805, 294 171.192, 294 184.287 C 294 194.135, 296.069 200.705, 300.530 205.027 C 303.711 208.108, 304.700 208.494, 309.308 208.446 C 315.734 208.378, 318.724 206.517, 323.377 199.686 C 329.375 190.880, 330.600 175.546, 326.101 165.579 C 322.172 156.874, 314.233 153.032, 307.392 156.526 M 339.697 158.594 C 336.027 159.738, 334.999 160.493, 335.340 161.796 C 336.670 166.878, 337.986 172.766, 338.226 174.711 L 338.500 176.923 342.684 175.040 C 347.946 172.672, 350.214 168.580, 349.803 162.198 C 349.532 157.999, 349.235 157.479, 347 157.298 C 345.625 157.187, 342.339 157.770, 339.697 158.594 M 122.217 162.063 C 117.148 163.062, 113.149 165.955, 110.792 170.330 C 106.397 178.487, 109.947 181.500, 123.954 181.500 C 135.131 181.500, 138.150 180.339, 142.158 174.500 C 145.525 169.594, 146.485 165.774, 145.031 163.059 C 144.041 161.208, 143.050 161.011, 135.215 161.110 C 130.422 161.170, 124.573 161.599, 122.217 162.063 M 47.657 164.750 C 49.111 170.167, 53.521 172.317, 69.667 175.479 C 85.255 178.532, 91.055 178.702, 93.345 176.171 C 96.748 172.412, 97.378 172.643, 68.241 166.949 C 62.599 165.846, 56.832 164.506, 55.426 163.972 C 54.020 163.437, 51.591 163, 50.029 163 C 47.810 163, 47.290 163.384, 47.657 164.750 M 308 166.795 C 297.963 172.108, 297.139 191.991, 306.766 196.559 C 315.455 200.682, 323.151 193.468, 323.263 181.094 C 323.369 169.503, 315.973 162.575, 308 166.795 M 308.051 173.175 C 302.875 178.732, 304.974 193, 310.968 193 C 311.880 193, 313.835 191.738, 315.313 190.195 C 317.616 187.791, 318 186.537, 318 181.418 C 318 174.534, 316.128 171, 312.482 171 C 311.160 171, 309.166 171.979, 308.051 173.175 M 186.446 178.493 C 176.638 183.438, 170.622 195.573, 170.579 210.500 C 170.514 233.290, 188.080 243.538, 202.209 228.953 C 208.409 222.552, 210.513 215.926, 210.464 202.948 C 210.432 194.555, 210.088 192.700, 207.626 187.667 C 205.352 183.020, 203.850 181.381, 199.662 178.979 C 193.381 175.377, 192.680 175.351, 186.446 178.493 M 15.022 184.271 C 15.054 193.211, 17.241 195.409, 30 199.330 C 37.194 201.540, 61.751 207.322, 80 211.102 C 118.405 219.058, 131.432 220.397, 143.285 217.607 C 151.070 215.776, 153.004 213.879, 152.985 208.095 C 152.959 200.375, 153.162 200.459, 135.286 200.811 C 124.080 201.032, 117.034 200.669, 111 199.560 C 106.325 198.701, 99.575 197.548, 96 196.999 C 73.453 193.533, 33.328 184.592, 21.750 180.455 L 15 178.043 15.022 184.271 M 184.131 192.869 C 175.403 201.597, 176.853 218.332, 186.661 222.061 C 190.920 223.680, 194.707 223.117, 197.959 220.381 C 206.273 213.385, 207.023 199.823, 199.510 192.310 C 196.840 189.640, 195.408 189, 192.100 189 C 188.673 189, 187.365 189.635, 184.131 192.869 M 288.079 192.390 C 287.988 194.567, 285.277 196.922, 282.809 196.968 C 277.977 197.059, 282.125 202.790, 289.421 206.103 C 295.447 208.840, 296.264 208.479, 293.445 204.323 C 292.072 202.301, 290.696 199.488, 290.387 198.073 C 290.078 196.658, 289.450 194.375, 288.991 193 C 288.357 191.098, 288.139 190.952, 288.079 192.390 M 188.750 195.080 C 183.856 197.930, 182.204 210.447, 186.073 215.365 C 192.901 224.046, 203.927 209.495, 198.490 198.980 C 196.157 194.469, 192.389 192.960, 188.750 195.080 M 166.158 201 C 166.158 202.375, 166.385 202.938, 166.662 202.250 C 166.940 201.563, 166.940 200.438, 166.662 199.750 C 166.385 199.063, 166.158 199.625, 166.158 201 M 164.141 208.994 C 163.026 214.406, 162.157 216.085, 158.931 219.064 C 155.143 222.561, 155.095 222.692, 156.733 225.069 C 157.655 226.406, 159.104 228.089, 159.954 228.809 C 161.797 230.370, 170.475 234.516, 174 235.519 C 176.446 236.215, 176.432 236.157, 173.362 232.865 C 168.140 227.265, 166.775 223.444, 166.099 212.529 L 165.478 202.500 164.141 208.994 M 51.009 213.848 C 53.151 215.241, 68.687 219, 72.304 219 C 76.549 219, 74.945 217.868, 69.271 216.860 C 66.647 216.394, 62.700 215.606, 60.500 215.109 C 51.884 213.163, 49.461 212.841, 51.009 213.848" stroke="none" fill="black" fill-rule="evenodd"/>
</svg>