<svg xmlns="http://www.w3.org/2000/svg" width="293" height="306" viewBox="0 0 293 306" version="1.1">
	<path d="M 22.571 8.571 C 20.470 10.673, 20.591 13.758, 23.071 21.246 C 25.361 28.157, 25.359 28.152, 29.946 39.500 C 37.329 57.766, 38.319 61.028, 37.175 63.323 C 36.578 64.520, 35.438 67.138, 34.642 69.140 C 33.846 71.141, 31.544 74.606, 29.527 76.839 C 24.976 81.875, 19.288 83.180, 13.615 80.487 C 8.892 78.246, 7 79.059, 7 83.329 C 7 89.521, 15.020 99.254, 23.771 103.682 L 29.226 106.442 28.688 110.991 C 27.789 118.579, 25.543 123.533, 20.226 129.658 C 9.292 142.254, 6.870 153.508, 12.524 165.458 C 20.366 182.035, 36.484 188.872, 61.305 186.149 C 67.542 185.465, 73.562 184.666, 74.683 184.373 C 76.667 183.854, 76.708 184.150, 76.251 195.670 C 75.993 202.176, 76.262 209.975, 76.848 213 L 77.915 218.500 74.708 221 C 64.825 228.703, 61.574 234.746, 61.532 245.500 C 61.505 252.271, 62.027 254.858, 64.928 262.339 C 68.851 272.456, 74.983 280.179, 80.553 282.018 C 88.372 284.598, 96.740 280.300, 100.990 271.521 C 103.589 266.151, 103.049 262.045, 98.875 255.464 C 97.273 252.938, 96.222 250.450, 96.540 249.935 C 97.401 248.542, 100.718 248.803, 104.050 250.526 C 106.966 252.034, 107 252.149, 107 260.565 C 107 265.248, 106.517 273.414, 105.926 278.712 C 104.990 287.103, 105.067 288.823, 106.526 292.057 C 108.861 297.235, 111.818 298.500, 121.585 298.500 C 128.410 298.500, 130.343 298.135, 132.649 296.414 C 137.413 292.855, 139.928 286.218, 141.803 272.253 L 143.516 259.500 152.508 258.868 C 157.454 258.521, 161.650 258.371, 161.833 258.535 C 162.017 258.699, 161.281 262.134, 160.199 266.167 C 156.931 278.348, 156.688 280.874, 158.517 283.666 C 161.707 288.535, 169.513 290.159, 178.660 287.855 C 183.763 286.570, 186.278 283.486, 188.152 276.212 C 189.958 269.201, 190.216 272.154, 188.469 279.838 C 186.455 288.692, 187.483 291.483, 193.962 294.750 C 202.235 298.922, 214.410 296.883, 218.500 290.640 C 221.380 286.244, 223.796 274.339, 225.653 255.380 C 226.193 249.867, 225.936 248.616, 223.065 242.783 L 219.877 236.307 221.357 229.404 L 222.837 222.500 222.933 228 C 223.104 237.800, 228.026 249.092, 234.678 254.947 C 244.300 263.418, 259.962 265.618, 271.562 260.131 C 278.508 256.845, 282.951 251.888, 285.380 244.715 C 288.605 235.191, 286.573 224, 281.618 224 C 280.024 224, 278.910 224.707, 278.508 225.974 C 277.879 227.957, 273.448 232, 271.904 232 C 270.166 232, 267.001 227.509, 267.013 225.061 C 267.020 223.653, 267.885 219.761, 268.934 216.414 C 274.309 199.271, 273.745 184.036, 267.333 173.189 C 263.132 166.082, 258.366 161.798, 250.174 157.765 C 244.553 154.998, 242.745 154.612, 235.142 154.560 C 227.491 154.507, 225.833 154.838, 220.686 157.446 C 215.422 160.113, 209.295 165.400, 205.694 170.382 C 204.365 172.221, 204.210 172.218, 198.917 170.251 C 194.541 168.624, 193.441 167.753, 193.194 165.722 C 192.832 162.753, 189.606 159.508, 188.001 160.499 C 187.383 160.881, 186.462 162.284, 185.956 163.615 C 184.747 166.796, 180.373 168.491, 177.156 167.025 C 175.052 166.067, 174.830 165.464, 175.359 162.157 C 175.691 160.081, 176.611 157.059, 177.403 155.441 C 178.196 153.824, 179.824 147.877, 181.022 142.227 C 182.846 133.622, 183.114 129.885, 182.671 119.227 C 181.922 101.187, 180.867 96.387, 175.092 84.741 C 168.376 71.197, 160.957 63.394, 149.186 57.494 C 146.263 56.029, 143.635 54.081, 143.345 53.165 C 143.056 52.249, 142.438 50.600, 141.972 49.500 C 141.507 48.400, 140.869 46.573, 140.555 45.439 C 140.242 44.305, 138.458 41.898, 136.592 40.089 C 132.311 35.939, 127.443 35.654, 122.380 39.256 L 118.928 41.713 111.214 37.868 C 97.686 31.125, 84.248 30.386, 68.638 35.528 L 60.777 38.117 45.638 22.549 C 32.343 8.876, 30.113 6.982, 27.321 6.991 C 25.573 6.996, 23.436 7.707, 22.571 8.571 M 32.567 25.750 C 34.377 30.563, 36.194 34.500, 36.606 34.500 C 37.017 34.500, 37.948 33.042, 38.675 31.260 C 39.966 28.098, 39.883 27.890, 35.249 22.592 C 32.637 19.606, 30.224 17.127, 29.888 17.082 C 29.551 17.037, 30.756 20.938, 32.567 25.750 M 43 33.423 C 43 34.206, 41.879 36.179, 40.509 37.807 L 38.018 40.768 40.846 46.998 L 43.675 53.229 45.694 50.662 C 46.805 49.250, 48.285 46.053, 48.984 43.558 C 50.195 39.231, 50.130 38.859, 47.576 35.511 C 44.768 31.829, 43 31.023, 43 33.423 M 76.197 40.493 C 70.243 42.169, 67 43.700, 67 44.832 C 67 45.251, 68.792 47.344, 70.982 49.482 L 74.963 53.370 81.480 50.694 C 90.634 46.935, 97.527 46.304, 105.598 48.489 C 113.972 50.756, 116.075 49.402, 110.209 45.520 C 101.875 40.005, 86.172 37.684, 76.197 40.493 M 53.553 45.758 C 53.172 47.494, 51.127 51.091, 49.010 53.750 L 45.160 58.585 48.377 63.800 L 51.593 69.015 54.746 65.757 C 58.282 62.104, 61 56.349, 61 52.517 C 61 51.019, 59.610 48.454, 57.623 46.286 L 54.246 42.601 53.553 45.758 M 122.765 48.750 C 117.935 53.674, 112.649 63.644, 110.590 71.713 C 109.333 76.643, 106.554 79.478, 105.162 77.250 C 104.432 76.081, 102.261 78.221, 93.431 88.818 C 90.319 92.552, 78.967 100.547, 72.820 103.334 C 64.067 107.302, 56.066 109, 46.125 109 L 37.038 109 36.448 111.750 C 34.234 122.071, 32.643 125.230, 23.764 136.937 C 18.326 144.107, 16.544 149.472, 17.494 155.809 C 18.336 161.423, 19.674 164.538, 23.243 169.190 C 26.283 173.153, 36.687 179, 40.700 179 C 46.497 179, 55 171.985, 55 167.203 C 55 165.158, 57.474 163.557, 59.090 164.556 C 61.609 166.113, 58.261 174.539, 53.656 178.228 L 51.500 179.956 54 179.979 C 58.243 180.020, 87.213 174.983, 92.500 173.285 C 95.250 172.402, 99.848 170.123, 102.717 168.220 C 107.486 165.058, 111 164.473, 111 166.841 C 111 167.338, 108.950 169.635, 106.445 171.944 C 101.709 176.310, 93.757 180.551, 88.382 181.577 C 85.400 182.147, 85.215 182.471, 84.132 189.029 C 83.510 192.800, 83 198.283, 83 201.213 C 83 208.567, 86.451 220.335, 90.621 227.199 C 93.846 232.508, 103.297 242, 105.358 242 C 105.849 242, 105.981 240.655, 105.652 239.011 C 104.878 235.139, 105.744 233, 108.088 233 C 109.320 233, 110.168 233.942, 110.562 235.750 C 110.892 237.262, 111.549 239.625, 112.022 241 C 113.238 244.541, 114.403 259.122, 114.190 268.145 C 113.978 277.118, 113.740 276.911, 125.221 277.731 C 132.678 278.263, 132.973 278.200, 133.830 275.891 C 134.716 273.504, 136.505 260.739, 137.810 247.500 C 138.412 241.397, 138.756 240.500, 140.500 240.500 C 142.179 240.500, 142.549 241.269, 142.807 245.296 C 143.072 249.445, 143.475 250.230, 145.788 251.109 C 150.190 252.783, 173.750 248.831, 175.414 246.140 C 175.688 245.695, 175.049 243.569, 173.994 241.416 C 172.938 239.262, 171.775 235.588, 171.409 233.250 C 170.800 229.357, 170.926 229, 172.904 229 C 174.091 229, 175.317 229.787, 175.628 230.750 C 177.684 237.111, 182.137 243.349, 189.872 250.706 L 198.500 258.912 198.500 267.206 L 198.500 275.500 204.187 276.354 C 213.110 277.694, 215.113 276.581, 216.619 269.439 C 217.308 266.173, 217.900 260.019, 217.936 255.765 C 217.994 248.790, 217.692 247.530, 214.868 242.940 L 211.736 237.849 213.430 229.084 C 217.261 209.258, 214.808 194.684, 205.938 184.582 C 203.339 181.622, 194.109 175.432, 193.493 176.235 C 192.777 177.168, 190 186.689, 190 188.211 C 190 191.495, 185.272 199.522, 181.137 203.257 C 176.090 207.817, 168.928 210, 159.013 210 C 147.080 210, 140.213 207.225, 132.059 199.107 C 126.230 193.305, 125.090 191.526, 122.699 184.500 C 121.130 179.888, 119.988 174.382, 120.003 171.500 C 120.039 164.745, 122.562 154.477, 125.461 149.290 L 127.840 145.034 124.170 143.996 C 118.813 142.480, 116.360 140.876, 113.525 137.034 C 110.198 132.525, 110.267 130.200, 113.750 129.432 C 122.619 127.476, 126.804 125.805, 129.136 123.287 C 134.730 117.247, 137 110.497, 137 99.910 C 137 91.928, 136.169 89.886, 133.991 92.511 C 132.620 94.162, 129.429 94.503, 128.556 93.091 C 128.248 92.591, 129.551 89.819, 131.454 86.930 C 135.607 80.624, 138.349 69.815, 137.493 63.119 C 136.037 51.715, 132.668 44, 129.144 44 C 128.199 44, 125.328 46.138, 122.765 48.750 M 89.769 52.954 C 87.717 53.353, 84.199 54.508, 81.950 55.522 C 78.576 57.044, 77.976 57.726, 78.512 59.433 C 80.908 67.058, 80.316 69.617, 74.761 75.643 C 69.174 81.705, 63.894 84.286, 57.081 84.286 C 52.474 84.286, 50.985 84.788, 47.342 87.569 C 42.271 91.439, 41.861 91.580, 31.568 92.964 C 27.206 93.550, 23.449 94.217, 23.221 94.445 C 22.993 94.674, 24.537 95.742, 26.653 96.820 C 43.713 105.510, 64.274 103.045, 80.952 90.310 C 83.408 88.436, 88.685 83.286, 92.679 78.867 C 96.674 74.449, 101.052 69.961, 102.408 68.894 C 104.359 67.359, 109 57.867, 109 55.411 C 109 55.129, 107.439 54.246, 105.532 53.449 C 101.885 51.925, 96.018 51.741, 89.769 52.954 M 64 60.733 C 62.875 64.274, 61.375 66.306, 58 68.859 C 53.284 72.426, 52.429 74.606, 55.087 76.283 C 59.846 79.285, 72 71.700, 72 65.728 C 72 62.930, 67.861 55.993, 66.199 56.005 C 65.815 56.008, 64.825 58.135, 64 60.733 M 121.844 59.255 C 118.132 62.393, 116.472 65.882, 117.990 67.357 C 118.877 68.221, 119.834 67.706, 121.905 65.250 C 125.130 61.425, 126.543 61.167, 127.370 64.250 C 128.592 68.809, 127.535 74.061, 123.546 83.250 C 122.962 84.595, 123.261 85, 124.836 85 C 131.435 85, 135.448 64.448, 129.928 58.928 C 127.406 56.406, 125.104 56.499, 121.844 59.255 M 144.986 66.750 C 144.979 68.263, 144.742 70.400, 144.461 71.500 C 144.082 72.980, 144.844 74.074, 147.392 75.705 C 151.534 78.358, 159.434 89.144, 161.478 94.938 C 162.289 97.236, 163.404 102.720, 163.957 107.126 C 165.978 123.248, 162.379 135.569, 149.694 155.952 C 142.002 168.312, 139.995 173.569, 140.022 181.287 C 140.084 198.773, 154.525 208.119, 171 201.335 C 174.302 199.975, 180 195.343, 180 194.018 C 180 193.684, 177.524 193.353, 174.498 193.282 C 164.120 193.039, 159.799 190.363, 156.652 182.230 C 153.185 173.268, 154.447 167.915, 164.960 147 C 169.246 138.475, 173.258 129.115, 173.876 126.201 C 178.577 104.039, 168.670 78.658, 150.610 66.597 C 145.713 63.327, 145.003 63.346, 144.986 66.750 M 41.123 72.537 C 39.684 76.516, 30.461 87, 28.400 87 C 27.630 87, 27 87.501, 27 88.114 C 27 91.088, 42.779 86.228, 46.415 82.134 C 48.308 80.003, 48.302 79.915, 45.964 74.923 C 44.662 72.143, 43.319 69.697, 42.980 69.488 C 42.641 69.278, 41.805 70.650, 41.123 72.537 M 142.223 82.220 C 141.286 84.703, 141.369 86.253, 142.651 90.171 C 144.889 97.013, 144.120 110.728, 141.114 117.599 C 138.433 123.728, 132.307 129.887, 125.500 133.298 L 120.500 135.804 124.273 136.518 C 126.463 136.932, 129.821 136.732, 132.273 136.042 C 140.899 133.616, 141 133.613, 141 135.807 C 141 136.929, 139.866 139.194, 138.481 140.841 C 137.095 142.487, 134.093 148.034, 131.809 153.167 C 128.106 161.489, 127.648 163.367, 127.583 170.500 C 127.494 180.246, 129.642 187.053, 134.652 192.907 C 138.925 197.899, 139.940 197.708, 136.863 192.492 C 135.115 189.529, 134.630 187.108, 134.580 181.078 C 134.506 172.188, 136.196 168.133, 147.741 149.500 C 155.602 136.813, 157.477 132.313, 159.127 122.167 C 161.282 108.925, 157.837 94.895, 150.003 85.003 C 145.282 79.043, 143.644 78.457, 142.223 82.220 M 95.029 113.946 C 94.061 115.754, 93.740 115.789, 90.526 114.446 C 81.215 110.556, 73.407 114.973, 71.487 125.217 C 70.598 129.957, 73.717 136.811, 77.883 139.272 C 82.318 141.892, 88.232 141.517, 91.959 138.381 C 95.649 135.276, 98 131.070, 98 127.573 C 98 125.981, 98.925 124.440, 100.500 123.408 C 102.967 121.792, 103.839 118.636, 102.113 117.570 C 101.626 117.269, 100.671 117.692, 99.991 118.511 C 98.702 120.064, 96 120.558, 96 119.241 C 96 118.823, 96.900 117.919, 98 117.232 C 100.640 115.584, 100.664 112, 98.035 112 C 96.955 112, 95.602 112.876, 95.029 113.946 M 84.473 121.044 C 83.772 122.179, 85.684 125, 87.154 125 C 88.762 125, 89.338 121.828, 87.896 120.914 C 86.056 119.750, 85.254 119.780, 84.473 121.044 M 165.950 157.235 C 162.402 164.783, 161.522 167.811, 161.197 173.572 C 160.805 180.536, 160.854 180.703, 164.389 184.451 C 167.776 188.042, 168.252 188.230, 172.837 187.790 C 179.788 187.122, 186 181.709, 186 176.319 C 186 174.736, 185.378 174.506, 181.968 174.832 C 173.983 175.593, 168 170.854, 168 163.769 C 168 161.590, 168.717 157.343, 169.593 154.330 C 170.468 151.317, 170.987 148.653, 170.744 148.411 C 170.502 148.169, 168.344 152.140, 165.950 157.235 M 31.500 154 C 29.733 155.952, 29.753 156, 32.345 156 C 34.333 156, 35 155.498, 35 154 C 35 152.900, 34.620 152, 34.155 152 C 33.690 152, 32.495 152.900, 31.500 154 M 223.470 164.404 C 220.553 165.731, 216.669 168.705, 214.220 171.487 C 209.107 177.297, 208.694 179.354, 213.486 175.147 C 217.061 172.008, 225.206 169, 230.132 169 C 237.692 169, 243.339 171.207, 248.664 176.243 C 257.519 184.618, 259.994 195.237, 257.286 213.238 C 255.247 226.788, 256.866 234.717, 262.414 238.352 C 265.174 240.160, 272.518 240.589, 273.500 239 C 273.871 238.399, 272.573 238, 270.246 238 C 262.520 238, 258.148 229.621, 260.479 219.278 C 261.195 216.100, 262.546 210.125, 263.481 206 C 265.286 198.041, 265.110 187.653, 263.056 180.831 C 261.483 175.611, 253.495 167.139, 247.520 164.357 C 240.663 161.164, 230.548 161.183, 223.470 164.404 M 222.869 175.116 C 220.872 175.680, 217.990 177.444, 216.466 179.035 L 213.695 181.928 220.097 181.886 C 230.193 181.819, 235.037 184.490, 239.347 192.500 C 241.340 196.202, 241.504 197.990, 241.554 216.500 C 241.614 238.700, 242.215 241.491, 248.301 247.835 C 252.762 252.487, 256.553 254.231, 262.200 254.231 C 268.325 254.231, 274.134 250.618, 276.980 245.039 C 279.616 239.871, 279.531 239.437, 276.365 241.927 C 273.144 244.461, 264.380 244.765, 259.989 242.494 C 258.388 241.666, 255.825 238.854, 254.293 236.244 C 251.163 230.913, 250.889 226.318, 252.452 205.439 C 253.358 193.328, 252.656 189.403, 248.394 182.770 C 247.076 180.718, 244.118 178.081, 241.821 176.909 C 237.016 174.458, 228.159 173.619, 222.869 175.116 M 218.118 186.869 C 216.719 187.793, 216.912 187.963, 224.666 192.632 C 225.858 193.349, 227.766 196.431, 228.906 199.479 C 230.704 204.283, 230.954 206.988, 230.784 219.761 C 230.594 234.005, 230.681 234.692, 233.349 240.214 C 235.881 245.451, 243.866 254, 246.226 254 C 246.745 254, 245.352 251.935, 243.130 249.410 C 236.900 242.332, 235.904 237.481, 236.228 215.770 C 236.491 198.102, 236.423 197.376, 234.153 193.726 C 232.863 191.650, 230.597 189.326, 229.119 188.561 C 225.403 186.640, 219.777 185.775, 218.118 186.869 M 223.349 212 C 223.349 216.675, 223.522 218.588, 223.732 216.250 C 223.943 213.912, 223.943 210.088, 223.732 207.750 C 223.522 205.412, 223.349 207.325, 223.349 212 M 76.476 229.155 C 71.390 233.621, 69 238.826, 69 245.439 C 69 251.681, 72.635 263.923, 74.727 264.725 C 76.737 265.497, 83.656 262.109, 86.950 258.740 C 89.596 256.034, 89.697 255.646, 88.403 253.166 C 85.691 247.967, 86.867 244.822, 92.006 243.537 C 94.462 242.922, 94.420 242.829, 89.203 237.316 C 86.289 234.237, 83.240 230.432, 82.427 228.859 C 81.614 227.287, 80.751 226, 80.509 226 C 80.267 226, 78.452 227.420, 76.476 229.155 M 173.844 254.697 C 170.783 255.955, 170.009 256.908, 169.094 260.543 C 167.335 267.525, 167.436 267.704, 173.750 268.796 C 176.912 269.344, 180.206 269.416, 181.068 268.958 C 181.931 268.499, 183.328 265.639, 184.174 262.601 C 185.668 257.232, 185.650 257.020, 183.541 255.039 C 181.030 252.680, 178.932 252.606, 173.844 254.697 M 90.046 262.445 C 89.386 263.240, 86.518 265.350, 83.673 267.135 C 80.828 268.919, 78.315 270.516, 78.089 270.684 C 77.864 270.851, 78.496 271.890, 79.494 272.994 C 82.304 276.099, 88.057 275.684, 91.894 272.099 C 95.006 269.192, 95.494 267.447, 94.370 263.250 C 93.681 260.680, 91.801 260.330, 90.046 262.445 M 165.186 275.896 C 164.249 278.585, 164.385 279.156, 166.280 280.484 C 167.471 281.318, 170.376 282, 172.737 282 C 176.506 282, 177.271 281.604, 179.012 278.750 L 180.995 275.500 177.248 274.905 C 175.186 274.577, 171.870 273.975, 169.878 273.567 C 166.472 272.870, 166.193 273.008, 165.186 275.896 M 112.587 283.509 C 111.662 287.195, 112.596 289.495, 115.566 290.848 C 121.449 293.528, 128.913 291.503, 131.255 286.591 L 132.843 283.262 125.171 282.577 C 120.952 282.200, 116.545 281.656, 115.378 281.369 C 113.711 280.959, 113.112 281.419, 112.587 283.509 M 194.793 283.556 C 192.965 287.567, 195.642 289.467, 203.120 289.467 C 208.535 289.467, 209.465 289.161, 211.601 286.678 C 215.565 282.069, 214.895 281.523, 204.968 281.269 C 196.192 281.044, 195.908 281.108, 194.793 283.556" stroke="none" fill="black" fill-rule="evenodd"/>
</svg>