<svg xmlns="http://www.w3.org/2000/svg" width="314" height="257" viewBox="0 0 314 257" version="1.1">
	<path d="M 235.994 7.875 C 229.092 10.138, 220 17.885, 220 21.503 C 220 22.503, 218.994 23, 216.968 23 C 208.769 23, 199.745 30.311, 197.929 38.426 C 196.294 45.733, 197.859 50.693, 203.416 55.816 C 208.370 60.383, 212.201 61.480, 220.726 60.773 C 225.713 60.359, 226.926 60.658, 231.299 63.377 C 239.472 68.458, 250.997 68.298, 259 62.994 C 260.698 61.869, 262.467 61.548, 264.516 61.994 C 266.175 62.356, 270.203 62.118, 273.467 61.467 C 278.230 60.516, 279.960 59.613, 282.228 56.896 C 287.786 50.238, 288.248 40.635, 283.320 34.175 C 280.525 30.511, 274.062 27.057, 269.934 27.022 C 267.782 27.004, 267.010 26.135, 265.146 21.638 C 262.653 15.625, 260.352 13.140, 254.456 10.099 C 250.004 7.802, 239.920 6.588, 235.994 7.875 M 165 11 C 163.732 12.100, 162.347 13, 161.924 13 C 161.500 13, 159.769 14.165, 158.077 15.589 C 155.647 17.634, 155 18.967, 155 21.934 C 155 24.299, 155.675 26.301, 156.823 27.340 C 160.783 30.924, 174.845 30.657, 178.854 26.922 C 182.189 23.814, 181.893 15.542, 178.313 11.805 C 174.937 8.281, 168.578 7.897, 165 11 M 234.500 13.889 C 229.671 16.140, 226.605 19.308, 224.590 24.130 C 223.156 27.564, 222.802 27.764, 217.031 28.417 C 211.855 29.003, 210.399 29.652, 206.989 32.896 C 203.277 36.427, 203 37.074, 203 42.210 C 203 50.115, 206.468 54.148, 214.976 56.136 C 217.490 56.724, 219.859 56.480, 223.242 55.285 L 227.984 53.611 230.742 56.252 C 234.475 59.828, 240.016 62, 245.403 62 C 251.043 62, 253.784 60.952, 257.267 57.465 C 259.705 55.023, 260.333 54.831, 262.564 55.847 C 263.955 56.481, 267.063 57, 269.470 57 C 274.794 57, 279.486 53.522, 280.856 48.560 C 282.142 43.900, 281.275 40.651, 277.613 36.415 C 274.881 33.255, 273.708 32.678, 269.106 32.236 L 263.768 31.723 261.296 26.112 C 258.302 19.311, 256.649 17.374, 251.682 14.838 C 246.124 12.002, 239.352 11.627, 234.500 13.889 M 168.053 15.436 C 167.398 16.225, 165.542 17.161, 163.930 17.515 C 161.902 17.961, 160.803 18.938, 160.364 20.687 C 159.506 24.106, 161.177 24.966, 168.715 24.985 C 173.845 24.997, 175.110 24.662, 175.965 23.066 C 177.501 20.195, 177.233 18.233, 175 16 C 172.652 13.652, 169.731 13.415, 168.053 15.436 M 111 43.043 C 80.691 50.852, 56.989 76.969, 54.413 105.395 L 53.752 112.693 47.702 113.818 C 24.383 118.155, 7 138.509, 7 161.477 C 7 173.794, 12.036 186.394, 20.675 195.693 C 34.341 210.401, 56.629 214.981, 76.459 207.155 L 84.419 204.014 87.459 206.853 C 110.928 228.769, 151.106 232.235, 177.388 214.611 L 183.534 210.490 190.649 214.149 C 206.269 222.181, 226.105 219.665, 239.269 207.984 L 243.295 204.410 248.898 206.392 C 252.916 207.814, 257.211 208.392, 264.089 208.437 C 273.317 208.498, 273.967 208.353, 281.395 204.584 C 289.580 200.432, 297.088 193.295, 299.632 187.250 C 300.384 185.463, 301.675 182.410, 302.500 180.466 C 304.476 175.811, 304.553 158.063, 302.617 153.651 C 301.857 151.918, 300.701 149.096, 300.050 147.380 C 298.448 143.162, 289.331 133.915, 283.637 130.733 C 279.533 128.439, 273.672 126.749, 266.062 125.666 C 263.911 125.361, 263.402 124.395, 261.751 117.494 C 256.258 94.539, 231.870 78.508, 209 82.818 C 205.975 83.388, 202.803 84.126, 201.951 84.457 C 200.858 84.882, 199.712 83.801, 198.058 80.780 C 184.098 55.284, 159.162 40.901, 129.188 41.055 C 122.039 41.092, 116.016 41.750, 111 43.043 M 116.469 49.458 C 108.516 50.903, 96.692 55.770, 90 60.355 C 83.403 64.874, 73.920 75.062, 70.625 81.170 C 63.983 93.486, 63.176 95.691, 62.092 104.500 C 61.482 109.450, 60.875 114.850, 60.742 116.500 C 60.518 119.280, 60.134 119.558, 55.500 120.290 C 41.096 122.566, 33.447 125.917, 26.601 132.952 C 18.534 141.241, 15.036 149.747, 15.015 161.124 C 14.977 180.829, 27.951 197.409, 47.500 202.639 C 57.243 205.245, 68.548 203.529, 78.449 197.942 C 81.316 196.324, 84.329 195, 85.144 195 C 85.959 195, 87.948 196.402, 89.563 198.116 C 93.853 202.667, 101.751 208.341, 108.634 211.815 C 117.953 216.519, 126.069 218.316, 138 218.316 C 153.816 218.316, 165.057 214.697, 176.592 205.888 C 182.582 201.315, 184.181 201.138, 188.656 204.551 C 198.876 212.347, 214.490 213.711, 226.854 207.890 C 229.409 206.687, 233.775 203.307, 236.555 200.379 L 241.609 195.055 248.055 198.232 C 253.726 201.027, 255.521 201.414, 263 201.454 C 270.058 201.492, 272.348 201.084, 276.500 199.046 C 282.745 195.981, 290.567 188.769, 293.162 183.682 C 296.531 177.079, 297.874 167.475, 296.424 160.365 C 293.155 144.339, 282.180 135.043, 264.460 133.288 L 256.500 132.500 255.869 126.626 C 255.522 123.395, 254.654 118.895, 253.941 116.626 C 252.122 110.842, 244.848 100.796, 239.778 97.068 C 230.649 90.354, 214.289 88.067, 203.081 91.936 C 200.100 92.965, 197.144 93.609, 196.512 93.366 C 195.879 93.123, 194.343 90.804, 193.097 88.212 C 185.186 71.755, 173.199 60.118, 157.628 53.782 C 150.272 50.788, 135.491 47.951, 128 48.094 C 125.525 48.142, 120.336 48.755, 116.469 49.458 M 112 63.928 C 96.013 69.001, 82.430 81.468, 76.829 96.207 C 74.995 101.034, 74.416 107.083, 75.669 108.336 C 76.789 109.456, 80 105.837, 80 103.454 C 80 98.010, 86.506 87.229, 94.397 79.597 C 101.497 72.730, 109.965 68.520, 120.016 66.860 C 127.610 65.606, 129.578 64.744, 128.569 63.112 C 127.555 61.471, 118.306 61.927, 112 63.928 M 280.418 82.969 C 272.572 86.143, 269.452 99.425, 275.302 104.749 C 279.068 108.177, 281.223 108.749, 290.500 108.784 C 302.924 108.831, 307 106.375, 307 98.841 C 307 95.360, 302.268 90, 299.195 90 C 298.117 90, 295.435 88.200, 293.235 86 C 289.091 81.856, 285.354 80.972, 280.418 82.969 M 280.328 89.394 C 278.128 91.287, 277.545 92.644, 277.545 95.881 C 277.545 102.276, 279.437 103.474, 289.786 103.637 C 294.579 103.713, 299.288 103.359, 300.250 102.852 C 304.227 100.756, 301.077 95, 295.952 95 C 293.862 95, 292.568 94.228, 291.343 92.250 C 287.716 86.393, 284.720 85.616, 280.328 89.394 M 64.857 225.277 C 62.854 227.050, 59.721 229.400, 57.896 230.500 C 55.926 231.687, 54.015 233.981, 53.193 236.146 C 51.982 239.333, 52.009 240.216, 53.404 243.155 C 55.995 248.616, 58.127 249.380, 71.500 249.641 C 89.169 249.985, 93.333 248.042, 93.333 239.451 C 93.333 235.172, 92.970 234.581, 86.576 228.464 C 79.877 222.055, 79.771 222, 74.160 222.027 C 69.224 222.051, 68.034 222.466, 64.857 225.277 M 71.736 226.692 C 70.766 226.945, 69.323 228.408, 68.530 229.942 C 67.616 231.710, 65.999 232.950, 64.120 233.326 C 61.412 233.868, 57 237.417, 57 239.054 C 57 239.426, 57.887 240.859, 58.972 242.237 C 60.898 244.686, 61.234 244.742, 73.319 244.622 C 86.164 244.495, 89 243.669, 89 240.052 C 89 238.159, 85.022 234, 83.211 234 C 82.573 234, 81.360 232.663, 80.515 231.030 C 79.058 228.212, 76.094 225.863, 74.316 226.116 C 73.867 226.180, 72.706 226.439, 71.736 226.692" stroke="none" fill="black" fill-rule="evenodd"/>
</svg>