<svg xmlns="http://www.w3.org/2000/svg" width="340" height="191" viewBox="0 0 340 191" version="1.1">
	<path d="M 152.500 7.691 C 121.066 11.787, 95.945 21.453, 73.212 38.201 C 64.161 44.869, 50.819 57.363, 44.122 65.441 C 35.428 75.928, 23.194 96.341, 18.303 108.520 C 11.162 126.304, 7.190 145.879, 6.661 165.890 C 6.312 179.115, 6.439 180.439, 8.232 182.232 C 10.129 184.129, 11.676 184.172, 64.064 183.772 C 113.026 183.397, 118.117 183.204, 119.824 181.659 C 121.284 180.338, 121.846 177.946, 122.343 170.942 C 123.120 160.002, 125.164 153.269, 129.910 146.011 C 135.066 138.129, 140.260 133.475, 148.381 129.462 C 171.846 117.867, 200.688 126.961, 211.350 149.315 C 215.447 157.907, 217 164.697, 217 174.026 C 217 180.112, 217.273 181.131, 219.250 182.410 C 221.145 183.636, 229.859 183.873, 274.500 183.911 C 315.119 183.947, 328.084 183.664, 330 182.701 C 332.407 181.492, 332.511 181.036, 332.807 170.473 C 333.607 141.909, 324.296 109.506, 307.528 82.500 C 296.011 63.951, 277.289 44.841, 259.441 33.416 C 237.762 19.539, 219.516 12.663, 194.500 8.943 C 182.537 7.163, 161.384 6.533, 152.500 7.691 M 152.883 15.103 C 127.594 17.548, 100.807 27.653, 79.760 42.688 C 71.996 48.235, 54.934 64.263, 48.281 72.260 C 36.408 86.531, 25.050 108.562, 20.058 127 C 18.346 133.325, 16.535 139.850, 16.034 141.500 C 14.641 146.084, 12.590 171.232, 13.359 174.294 C 13.946 176.633, 14.544 176.999, 17.769 176.989 C 19.821 176.983, 23.121 176.710, 25.101 176.382 L 28.703 175.787 29.849 162.643 C 32.332 134.169, 39.374 113.327, 53.821 91.692 C 60.483 81.715, 73.459 67.518, 82.500 60.314 C 100.613 45.882, 119.974 37.145, 144.500 32.335 C 157.348 29.816, 185.480 29.831, 196.500 32.363 C 221.949 38.211, 235.751 44.463, 255 58.859 C 278.672 76.563, 297.729 104.756, 304.103 131.500 C 308.695 150.768, 309.982 158.918, 309.992 168.792 L 310 176.084 317.750 175.792 L 325.500 175.500 325.281 165.500 C 324.984 151.981, 324.038 146.359, 317.938 121.826 C 317.154 118.676, 312.631 107.465, 308.727 99 C 308.093 97.625, 306.173 94.250, 304.461 91.500 C 302.749 88.750, 300.528 85.150, 299.525 83.500 C 293.645 73.828, 273.106 51.794, 264.649 46.086 C 233.698 25.195, 214.238 17.623, 184.800 15.017 C 172.026 13.887, 165.281 13.905, 152.883 15.103 M 153.500 36.174 C 143.194 37.209, 125.888 41.735, 115.562 46.096 C 99.242 52.988, 81.441 66.293, 67.500 82.020 C 58.707 91.939, 44.433 116.398, 42.084 125.571 C 35.948 149.535, 34.377 159.681, 34.857 172.250 L 35 176 43 176 C 47.400 176, 51.011 175.662, 51.025 175.250 C 51.892 149.003, 55.332 134.116, 64.812 115.585 C 78.500 88.828, 102.122 68.393, 130.262 58.966 C 174.872 44.020, 219.905 53.837, 252.587 85.633 C 269.115 101.713, 281.418 123.888, 284.969 144 C 285.600 147.575, 286.540 152.419, 287.058 154.764 C 287.576 157.110, 288 162.847, 288 167.514 L 288 176 296.650 176 L 305.301 176 304.656 166.164 C 302.845 138.522, 295.331 114.929, 282.160 95.526 C 259.186 61.680, 226.084 40.922, 188 36.479 C 174.259 34.875, 167.058 34.812, 153.500 36.174 M 155.867 58.075 C 134.982 60.290, 115.243 68.557, 98.456 82.121 C 80.022 97.016, 66.401 117.789, 60.831 139.500 C 57.977 150.628, 55.297 171.727, 56.381 174.549 C 56.854 175.784, 58.489 176.027, 64.735 175.792 C 72.322 175.507, 72.496 175.443, 72.340 173 C 72.104 169.299, 74.670 151.325, 76.338 145 C 80.307 129.946, 87.700 116.821, 99.031 104.710 C 115.612 86.988, 135.380 77.357, 161.946 74.056 C 181.537 71.622, 206.486 78.204, 224.549 90.570 C 249.798 107.856, 266 137.471, 266 166.336 C 266 174.668, 267.556 177.623, 271.399 176.591 C 272.555 176.281, 275.637 176.021, 278.250 176.014 L 283 176 283 170.432 C 283 161.259, 279.949 143.034, 276.985 134.500 C 270.558 115.996, 264.702 105.986, 253.026 93.547 C 239.781 79.437, 228.468 71.854, 208.500 63.702 C 194.742 58.085, 175.339 56.011, 155.867 58.075 M 151.500 80.984 C 146 81.985, 138.718 83.965, 135.317 85.383 C 108.914 96.395, 87.053 121.258, 81.140 147 C 78.935 156.600, 76.806 173.868, 77.657 175.250 C 77.910 175.662, 81.630 176, 85.923 176 L 93.728 176 94.364 171.360 C 94.714 168.809, 95 165.215, 95 163.375 C 95 156.291, 99.317 142.764, 104.611 133.260 C 110.719 122.294, 124.105 109.564, 135.579 103.809 C 147.012 98.074, 154.407 96.505, 170 96.502 C 182.581 96.500, 185.492 96.819, 192 98.909 C 199.284 101.248, 207.843 105.597, 215 110.595 C 219.942 114.046, 230.530 124.727, 232.120 127.865 C 232.854 129.314, 234.406 132.075, 235.569 134 C 240.893 142.812, 242.908 150.349, 245.527 171.250 L 246.123 176 251.979 176 C 255.201 176, 258.617 176.300, 259.571 176.666 C 261.179 177.283, 261.261 176.425, 260.698 164.916 C 260.365 158.087, 259.353 149.800, 258.449 146.500 C 254.132 130.728, 243.405 113.237, 231.563 102.664 C 216.829 89.510, 203.810 83.242, 185.605 80.539 C 172.463 78.587, 164.064 78.697, 151.500 80.984 M 154.500 102.575 C 133.814 106.673, 116.652 120.529, 105.248 142.342 C 102.932 146.771, 100 161.699, 100 169.062 L 100 175.726 106.750 176.268 C 114.295 176.874, 114.961 176.448, 114.985 171 C 115.026 161.602, 119.243 148.478, 124.897 140.151 C 135.725 124.207, 152.645 116.177, 173 117.321 C 192.593 118.423, 207.093 126.789, 215.908 142.077 C 221.171 151.206, 222.765 156.098, 224.213 167.567 L 225.405 177 230.452 176.986 C 239.489 176.962, 240 176.587, 240 169.971 C 240 149.098, 228.463 126.453, 211.654 114.333 C 195.554 102.726, 175.042 98.505, 154.500 102.575" stroke="none" fill="black" fill-rule="evenodd"/>
</svg>