<svg xmlns="http://www.w3.org/2000/svg" width="277" height="245" viewBox="0 0 277 245" version="1.1">
	<path d="M 69.500 8.189 C 59.967 9.155, 51.264 12.021, 43.058 16.896 C 19.972 30.612, 7 53.786, 7 81.315 C 7 92.248, 8.817 102.258, 13.022 114.500 C 16.911 125.823, 19.123 130.386, 25.836 140.944 C 43.859 169.287, 73.557 197.740, 110.515 222.074 C 138.905 240.767, 138.805 240.724, 144.762 236.781 C 146.818 235.421, 150.975 232.800, 154 230.958 C 160.194 227.185, 178.135 214.717, 186.783 208.175 C 189.927 205.796, 194.130 202.624, 196.123 201.126 C 211.566 189.514, 237.014 163.745, 245.571 151.055 C 247.260 148.550, 250.009 144.475, 251.680 142 C 255.673 136.084, 262.418 122.662, 264.243 117 C 265.041 114.525, 266.226 110.856, 266.877 108.847 C 269.048 102.141, 270.997 88.591, 270.999 80.197 C 271 72.570, 269.052 60.353, 267.060 55.500 C 266.609 54.400, 265.411 51.475, 264.398 49 C 259.616 37.318, 248.112 24.026, 237.370 17.772 C 226.514 11.452, 216.964 8.682, 204.404 8.210 C 195.243 7.867, 191.941 8.169, 185.461 9.947 C 169.214 14.404, 153.628 25.300, 143.405 39.348 L 139.149 45.196 136.712 41.348 C 135.372 39.232, 132.130 35.119, 129.507 32.208 C 113.827 14.805, 91.679 5.939, 69.500 8.189 M 194.789 16.163 C 187.161 16.918, 179.672 19.479, 171.279 24.203 C 163.579 28.536, 149.329 43.048, 145.475 50.480 C 141.304 58.525, 139.601 59.392, 136.101 55.250 C 134.590 53.463, 132.299 49.863, 131.009 47.250 C 128.281 41.729, 116.861 30.270, 109.170 25.340 C 99.758 19.306, 91.754 16.816, 79.981 16.259 C 73.796 15.967, 67.155 16.241, 63.862 16.925 C 54.081 18.955, 38.916 27.295, 34 33.346 C 33.175 34.362, 30.362 37.695, 27.750 40.752 C 25.137 43.810, 23 46.720, 23 47.220 C 23 47.719, 21.837 50.671, 20.415 53.780 C 15.142 65.308, 14.800 67.251, 15.205 83.390 C 15.563 97.671, 15.785 99.092, 19.258 109.288 C 23.799 122.617, 26.202 127.447, 34.436 139.785 C 41.604 150.528, 43.262 152.652, 53.653 164.408 C 70.510 183.478, 109.130 214.076, 133.087 227.342 L 139.673 230.989 144.587 227.821 C 183.499 202.727, 212.373 179.336, 228.922 159.500 C 253.301 130.278, 263 107.741, 263 80.316 C 263 52.241, 247.553 29.132, 222 18.978 C 215.523 16.405, 204.192 15.233, 194.789 16.163 M 64.024 32.603 C 45.637 37.544, 31.713 55.462, 29.486 77.049 C 28.948 82.262, 29.117 83.852, 30.316 84.847 C 32.308 86.501, 32.691 85.701, 34.362 76.389 C 38.286 54.517, 52.667 38.643, 70.523 36.475 C 78.161 35.548, 80.569 34.391, 78.942 32.430 C 77.431 30.610, 71.173 30.682, 64.024 32.603" stroke="none" fill="black" fill-rule="evenodd"/>
</svg>