<svg xmlns="http://www.w3.org/2000/svg" width="310" height="301" viewBox="0 0 310 301" version="1.1">
	<path d="M 76.075 9.590 C 74.382 11.015, 71.366 15.098, 69.372 18.663 L 65.746 25.146 62.623 22.134 C 56.276 16.013, 49.574 15.717, 46.060 21.403 C 44.785 23.467, 43.796 27.385, 43.366 32.081 C 42.735 38.960, 42.410 39.769, 38.901 43.192 C 32.986 48.963, 28.261 59.757, 26.102 72.430 C 24.993 78.937, 23.703 83.590, 22.877 84.057 C 18.001 86.815, 12.908 91.424, 10.173 95.552 C 7.278 99.923, 7 101.038, 7 108.276 C 7 117.217, 9.487 123.676, 15.319 129.887 C 20.560 135.468, 35.339 141.816, 46.851 143.432 C 52.212 144.184, 58.714 144.620, 61.299 144.400 C 75.954 143.153, 74.707 143.010, 74.301 145.892 C 73.680 150.290, 71.819 159.333, 70.871 162.558 C 70.204 164.825, 68.755 166.206, 65.266 167.902 C 56.519 172.151, 47.095 178.887, 44.088 183.037 C 38.615 190.592, 39.017 199.740, 45.009 204.007 C 50.838 208.157, 63.003 209.773, 66.613 206.876 C 67.386 206.255, 67.921 207.434, 68.366 210.741 C 69.136 216.468, 71.553 224.110, 74.244 229.330 C 75.448 231.666, 76.010 234.202, 75.684 235.831 C 74.270 242.898, 78.593 255, 85.254 262.622 C 87.080 264.712, 87.054 264.800, 83.578 268.486 C 79.626 272.676, 78.165 277.872, 79.880 281.635 C 80.532 283.067, 83.018 285.044, 85.755 286.309 C 89.768 288.162, 92.275 288.500, 102 288.500 C 120.222 288.500, 128.638 284.592, 131.100 274.986 C 132.522 269.439, 132.249 269.535, 141.913 271.192 L 148.863 272.384 146.765 275.330 C 142.151 281.810, 144.969 290.603, 152.397 292.902 C 157.926 294.614, 169.319 295.135, 176.971 294.027 C 193.043 291.699, 202.641 283.728, 202.924 272.471 C 202.997 269.582, 203.314 269.362, 209.838 267.681 C 218.163 265.537, 237.522 256.671, 244.905 251.623 C 265.338 237.650, 277.693 219.724, 283.909 195.034 L 286.795 183.568 290.855 182.215 C 300.337 179.054, 304.206 169.351, 302.147 153.890 C 301.489 148.943, 300.174 142.557, 299.225 139.698 C 297.601 134.804, 297.286 134.482, 293.831 134.194 C 287.197 133.642, 269.801 143.748, 263.528 151.799 C 257.901 159.022, 257.507 167.788, 262.572 173.075 C 264.027 174.594, 264.918 176.324, 264.550 176.919 C 264.164 177.543, 260.607 178, 256.128 178 C 248.966 178, 248.172 178.211, 245.727 180.763 C 244.270 182.283, 242.472 185.905, 241.726 188.818 C 240.413 193.950, 240.336 194.033, 239.206 191.553 C 237.744 188.344, 232.386 185.009, 228.684 185.004 C 224.732 184.998, 222.385 186.485, 219.027 191.121 L 216.117 195.139 215.401 191.319 C 214.457 186.275, 212.475 181.639, 210.597 180.080 C 208.117 178.022, 201.782 177.646, 197.777 179.320 L 194.125 180.846 193.436 175.331 C 192.428 167.270, 189.906 164.765, 182.233 164.210 C 177.916 163.898, 175.228 164.239, 172.920 165.390 C 171.135 166.280, 169.454 166.787, 169.183 166.516 C 168.912 166.246, 170.847 165.071, 173.482 163.905 C 180.826 160.657, 188.080 160.384, 197.747 162.992 C 202.282 164.216, 206.643 164.967, 207.439 164.662 C 208.235 164.356, 210.127 161.573, 211.643 158.477 C 214.804 152.022, 218.773 147.757, 224.500 144.662 C 227.975 142.784, 230.097 142.500, 240.666 142.500 C 247.358 142.500, 253.132 142.200, 253.499 141.834 C 253.866 141.467, 254.572 137.933, 255.069 133.981 C 257.221 116.842, 268.477 106.955, 288.515 104.603 C 299.510 103.312, 300.820 102.487, 298.625 98.241 C 294.612 90.482, 275.523 78.780, 255.750 71.959 C 252.037 70.678, 249 69.254, 249 68.794 C 249 66.317, 255.193 59.279, 261.648 54.421 C 265.692 51.378, 269 48.495, 269 48.015 C 269 46.126, 265.614 43.942, 260.189 42.333 C 252.147 39.948, 222.600 39.973, 212.014 42.374 C 196.858 45.811, 178.730 53.059, 169.610 59.327 C 167.471 60.797, 165.413 62, 165.037 62 C 164.661 62, 162.425 64.362, 160.069 67.250 C 155.299 73.094, 155.394 72.030, 157.874 91.870 C 159.451 104.489, 154.327 122.968, 147.653 128.728 C 145.767 130.355, 145.779 130.265, 147.800 127.615 C 150.939 123.499, 150.728 118.039, 147.266 113.827 C 145.762 111.997, 144.075 110.154, 143.516 109.732 C 142.888 109.257, 143.264 108.522, 144.500 107.808 C 145.600 107.172, 147.963 105.200, 149.750 103.426 C 154.053 99.155, 154.210 93.990, 150.207 88.400 C 147.462 84.566, 147.447 84.468, 149.323 82.634 C 150.871 81.121, 151.100 79.986, 150.532 76.634 C 148.655 65.560, 148.420 66.655, 153.905 60.905 C 156.707 57.967, 159 54.842, 159 53.961 C 159 53.081, 156.934 50.503, 154.409 48.234 C 150.206 44.458, 149.876 43.829, 150.517 40.804 C 150.902 38.987, 152.124 35.363, 153.232 32.751 C 154.792 29.072, 154.983 27.685, 154.082 26.599 C 150.983 22.864, 140.887 24.051, 129.750 29.458 C 123.051 32.711, 123 32.718, 123 30.482 C 123 26.168, 119.656 17.821, 117.312 16.285 C 112.677 13.248, 104.012 15.014, 99.593 19.898 C 98.546 21.054, 97.390 22, 97.022 22 C 96.655 22, 95.346 19.981, 94.114 17.514 C 88.990 7.254, 82.329 4.328, 76.075 9.590 M 78.195 18.580 C 72.886 25.021, 73.211 25.829, 80.876 25.242 C 84.519 24.964, 87.661 24.597, 87.858 24.427 C 88.486 23.885, 83.546 15.662, 82.361 15.277 C 81.735 15.074, 79.860 16.560, 78.195 18.580 M 107 24.150 L 103.500 26.293 107.951 28.191 C 110.399 29.235, 112.986 30.574, 113.700 31.166 C 114.739 32.028, 114.871 31.568, 114.359 28.872 C 113.622 24.993, 112.251 21.998, 111.215 22.004 C 110.822 22.006, 108.925 22.972, 107 24.150 M 51.625 28.125 C 51.281 29.844, 51 33.667, 51 36.622 L 51 41.993 56.073 36.747 L 61.147 31.500 57.407 28.250 C 55.350 26.462, 53.348 25, 52.958 25 C 52.569 25, 51.969 26.406, 51.625 28.125 M 75 32.882 C 66.581 35.599, 63.969 37.283, 57.912 43.897 C 53.721 48.473, 51.649 50, 49.630 50 C 48.117 50, 46.676 49.319, 46.341 48.446 C 45.836 47.131, 45.357 47.246, 43.231 49.196 C 39.115 52.968, 35.357 62.589, 33.549 73.981 C 31.713 85.547, 29.789 89.183, 23.797 92.410 C 16.954 96.095, 13.278 104.802, 15.107 112.994 C 16.333 118.487, 20.308 125.501, 23.310 127.467 C 30.198 131.981, 43.685 131.430, 53.267 126.244 C 59.226 123.019, 60.745 121.345, 59.158 119.758 C 57.537 118.137, 57.714 116, 59.469 116 C 60.277 116, 62.771 116.955, 65.012 118.123 C 69.137 120.274, 69.783 122.219, 66.576 122.841 C 65.609 123.028, 63.019 124.981, 60.821 127.179 C 56.365 131.635, 50.046 134.893, 45.500 135.078 C 42.722 135.192, 42.796 135.274, 46.500 136.189 C 52.683 137.717, 75.310 136.448, 83.218 134.129 C 91.818 131.608, 99.177 127.588, 103.973 122.792 C 107.953 118.812, 109.538 118.173, 110.279 120.250 C 110.920 122.046, 108.666 126.037, 105.089 129.437 L 102 132.374 102.007 144.937 C 102.014 156.381, 104.019 175.352, 105.364 176.698 C 105.873 177.206, 107.108 174.753, 109.890 167.712 C 110.858 165.263, 111.248 165.062, 113.108 166.058 C 114.934 167.035, 115.134 167.762, 114.562 171.340 C 113.536 177.757, 111.036 181.101, 103.471 186.178 C 94.415 192.256, 90.981 196.348, 91.063 200.962 C 91.119 204.088, 91.232 204.238, 92.031 202.250 C 92.529 201.012, 93.625 200, 94.468 200 C 95.618 200, 96.020 201.184, 96.079 204.750 C 96.150 209.031, 96.254 209.237, 97.134 206.836 C 98.961 201.845, 103.583 202.070, 102.479 207.095 C 101.633 210.947, 103.104 210.758, 105.073 206.762 C 106.384 204.102, 107.908 203.127, 114.209 200.918 C 124.137 197.437, 126.459 195.626, 129.751 188.800 C 133.882 180.235, 138.722 181.310, 136.058 190.200 C 134.465 195.518, 126.873 203.037, 120.750 205.362 C 118.137 206.354, 116 207.490, 116 207.887 C 116 209.126, 121.527 217.392, 125.002 221.350 C 126.828 223.430, 130.902 227.116, 134.054 229.542 L 139.786 233.952 140.418 230.587 C 142.271 220.710, 152.019 208.111, 155.545 211.038 C 156.904 212.165, 156.740 212.681, 154.151 215.408 C 146.836 223.114, 144.107 235.977, 147.391 247.272 C 149.424 254.266, 156.170 261.790, 163.996 265.791 C 167.122 267.389, 169.646 269.398, 169.848 270.450 C 170.165 272.096, 169.714 272.233, 165.741 271.688 C 161.488 271.105, 161.060 271.285, 156.639 275.521 C 153.584 278.448, 152 280.806, 152 282.424 C 152 286.546, 153.882 286.336, 155.608 282.022 C 157.249 277.921, 160.199 275.387, 162.021 276.513 C 163.417 277.376, 163.237 279.218, 161.396 282.909 C 159.560 286.588, 159.566 286.602, 163.252 287.527 C 165.562 288.107, 166 287.899, 166 286.219 C 166 283.161, 169.357 279.539, 171.448 280.342 C 172.651 280.803, 172.980 281.568, 172.490 282.758 C 170.460 287.690, 170.564 287.867, 175.155 287.280 C 181.744 286.437, 189.328 283.314, 192.234 280.247 C 195.255 277.058, 195.744 273.988, 194.668 264.975 C 193.866 258.256, 194.004 257.384, 198.312 242 C 200.232 235.143, 201.060 233.500, 202.596 233.500 C 204.161 233.500, 204.489 234.212, 204.436 237.500 C 204.401 239.700, 203.989 242.357, 203.520 243.405 C 202.711 245.211, 203.026 245.274, 209.583 244.612 C 235.780 241.967, 259.990 226.151, 272.463 203.533 C 275.706 197.653, 279.978 179.773, 279.991 172.026 L 280 166.552 275.372 173.989 C 262.418 194.804, 248.116 204.704, 229.500 205.744 C 214.384 206.587, 210.476 205.227, 192.345 192.813 C 177.640 182.745, 170.884 178.363, 164.880 175 C 156.456 170.281, 149.749 164.429, 142.189 155.203 C 130.339 140.741, 127.051 128.892, 130.320 112.440 C 132.695 100.486, 134.207 87.962, 133.578 85.456 C 133.168 83.821, 132.016 83.049, 129.259 82.563 C 121.876 81.261, 119 79.940, 119 77.850 C 119 75.934, 119.444 75.883, 130.308 76.552 L 141.615 77.248 141.558 70.283 C 141.503 63.706, 141.704 63.068, 145.164 58.846 C 148.512 54.759, 148.676 54.279, 147.070 53.276 C 142.645 50.512, 140.884 41.147, 143.557 34.591 C 144.259 32.871, 143.999 32.747, 140.918 33.336 C 139.038 33.695, 134.245 35.624, 130.267 37.623 C 123.711 40.917, 119.006 45, 112.778 52.801 C 110.840 55.228, 108 54.773, 108 52.037 C 108 51.075, 109.575 48.225, 111.500 45.704 C 113.425 43.183, 115 40.652, 115 40.080 C 115 38.522, 108.127 35.319, 99.872 33.032 C 90.964 30.563, 82.347 30.511, 75 32.882 M 224 48.039 C 204.241 49.802, 178.820 59.834, 168.163 70.074 L 163.831 74.237 164.666 80.368 C 165.124 83.741, 165.469 91.450, 165.430 97.500 C 165.351 110.094, 163.679 117.032, 158.354 126.870 C 156.458 130.373, 155.131 133.464, 155.405 133.738 C 156.373 134.707, 161.046 130.429, 165.413 124.576 C 171.785 116.035, 173.924 108.769, 176.562 86.708 C 177.658 77.540, 183.735 73.425, 202.914 68.863 C 210.129 67.147, 213.834 66.890, 226.121 67.252 L 240.743 67.683 243.393 62.449 C 244.851 59.570, 248.002 55.409, 250.396 53.202 L 254.750 49.190 250.625 48.636 C 241.578 47.423, 233.051 47.232, 224 48.039 M 127.500 50.912 C 122.878 52.073, 118.173 54.809, 116.987 57.025 C 115.299 60.177, 118.466 60.668, 123.227 57.993 C 125.462 56.736, 129.723 54.987, 132.695 54.104 C 135.667 53.222, 138.189 52.050, 138.299 51.500 C 138.547 50.268, 131.577 49.888, 127.500 50.912 M 120.441 65.096 C 119.196 67.109, 122.626 69.106, 128.342 69.696 C 133.031 70.180, 134 70.015, 134 68.734 C 134 67.787, 132.188 66.571, 129.322 65.594 C 123.829 63.723, 121.375 63.585, 120.441 65.096 M 217.500 73.630 C 200.311 76.179, 186.850 80.164, 184.840 83.298 C 184.476 83.865, 183.895 87.967, 183.547 92.414 C 182.017 112.012, 176.218 125.797, 165.121 136.219 C 158.933 142.030, 153.938 145.198, 146.587 147.974 C 144.499 148.763, 143.980 149.380, 144.756 150.156 C 146.478 151.878, 156.330 148.270, 164.536 142.913 C 169.754 139.506, 172.994 136.438, 176.216 131.850 C 182.938 122.278, 185.591 114.454, 188.977 94.209 C 190.441 85.453, 190.835 85.132, 204 81.932 C 214.545 79.369, 232.648 78.833, 241.626 80.819 C 244.307 81.412, 250.125 82.591, 254.556 83.440 C 258.986 84.288, 265.449 86.135, 268.918 87.545 C 278.101 91.276, 277.698 89.636, 268.409 85.470 C 264.059 83.519, 259.746 81.507, 258.824 80.999 C 257.903 80.491, 251.505 78.703, 244.607 77.026 C 231.915 73.940, 222.969 72.819, 217.500 73.630 M 76.418 74.922 C 75.274 75.411, 73.136 77.238, 71.668 78.982 C 67.995 83.348, 67.909 90.550, 71.480 94.794 C 75.103 99.099, 78.847 100.388, 83.834 99.045 C 88.916 97.676, 90.620 96.001, 92.160 90.861 C 93.665 85.837, 91.826 79.662, 87.977 76.814 C 84.985 74.602, 79.336 73.677, 76.418 74.922 M 81.364 82.494 C 80.452 84.871, 83.559 87.841, 85.220 86.180 C 86.109 85.291, 86.161 84.478, 85.406 83.282 C 83.910 80.911, 82.106 80.559, 81.364 82.494 M 215 84.998 C 211.975 85.403, 207.488 86.288, 205.030 86.965 L 200.560 88.196 204.030 89.650 C 215.681 94.533, 234.720 110.811, 242.953 122.928 C 245.729 127.013, 248 129.554, 248 128.574 C 248 125.673, 254.876 113.458, 258.611 109.722 C 262.683 105.650, 273.478 99.939, 278.773 99.056 L 282.500 98.434 279 96.636 C 271.734 92.903, 255.082 87.910, 243.506 85.995 C 231.151 83.950, 224.554 83.720, 215 84.998 M 140.370 95.574 C 140.229 101.447, 140.749 102.040, 143.435 99.072 C 145.384 96.919, 144.928 94.148, 142.224 91.706 C 140.613 90.251, 140.491 90.506, 140.370 95.574 M 197 92.537 C 197 92.846, 197.643 94.342, 198.428 95.861 C 202.026 102.819, 206.830 128.609, 207.180 142.847 C 207.354 149.919, 207.581 150.925, 208.670 149.437 C 212.233 144.564, 215.504 141.776, 220.741 139.150 C 226.821 136.100, 238.837 133.496, 242.079 134.525 C 243.819 135.077, 243.901 134.868, 242.934 132.318 C 242.347 130.768, 241.070 128.600, 240.095 127.500 C 239.121 126.400, 237.369 123.925, 236.203 122 C 231.674 114.522, 215.729 101.448, 203.750 95.389 C 200.037 93.511, 197 92.228, 197 92.537 M 192.646 103.152 C 191.958 109.870, 189.044 120.053, 186.253 125.500 C 183.249 131.360, 175.929 140.817, 171.741 144.249 C 169.403 146.165, 163.587 149.705, 158.817 152.116 C 150.374 156.383, 150.188 156.554, 151.821 158.510 C 152.745 159.615, 154.773 161.436, 156.328 162.555 L 159.156 164.589 162.450 161.482 C 167.671 156.558, 175.670 154, 185.846 154 C 190.613 154, 196.055 154.442, 197.940 154.983 C 199.825 155.523, 201.622 155.711, 201.934 155.399 C 203.027 154.305, 202.109 132.411, 200.617 124 C 198.252 110.665, 196.884 104.920, 195.036 100.569 L 193.324 96.537 192.646 103.152 M 136.579 122.117 C 135.785 128.100, 136.261 128.979, 138.968 126.529 C 141.918 123.860, 142.442 121.145, 140.435 118.928 C 137.843 116.064, 137.325 116.493, 136.579 122.117 M 94.403 136.430 C 93.256 137.234, 90.182 138.429, 87.573 139.086 C 82.411 140.386, 82.436 140.352, 81.524 147.181 L 80.898 151.862 85.357 152.531 C 87.809 152.899, 91.171 152.902, 92.828 152.538 C 95.761 151.894, 95.859 151.680, 96.530 144.518 C 97.380 135.453, 97.134 134.517, 94.403 136.430 M 140 139.834 C 140 141.555, 141.864 142.178, 143.742 141.085 C 144.709 140.521, 144.974 140.047, 144.332 140.030 C 143.689 140.014, 142.452 139.727, 141.582 139.393 C 140.712 139.059, 140 139.258, 140 139.834 M 285.500 144.388 C 278.437 147.732, 272.500 152.328, 269.004 157.154 C 265.543 161.931, 265.296 163.909, 267.777 166.973 L 269.554 169.168 272.848 164.085 C 279.375 154.011, 285.678 156.689, 287.498 170.310 C 288.204 175.597, 289.245 175.892, 292.381 171.692 C 295.283 167.804, 295.933 153.009, 293.482 146.592 C 292.517 144.066, 291.452 142.004, 291.114 142.010 C 290.776 142.015, 288.250 143.085, 285.500 144.388 M 79.109 161.250 C 76.790 169.815, 76.112 175.451, 77.313 176.194 C 80.675 178.271, 94.355 178.253, 97.731 176.166 C 98.675 175.583, 98.693 173.362, 97.812 166.208 L 96.678 157 88.469 157 L 80.260 157 79.109 161.250 M 177.183 172.866 C 176.222 173.475, 176.667 174.034, 178.827 174.929 C 180.457 175.603, 182.737 177.038, 183.895 178.117 C 185.989 180.068, 186 180.067, 186 177.973 C 186 172.931, 181.338 170.231, 177.183 172.866 M 66.486 175.022 C 66.139 175.585, 63.300 177.340, 60.177 178.922 C 53.591 182.260, 50.706 185.066, 48.548 190.232 C 46.754 194.525, 46.688 195, 47.883 195 C 48.369 195, 49.012 194.061, 49.312 192.913 C 49.669 191.551, 50.491 190.954, 51.679 191.194 C 53.465 191.555, 53.664 192.675, 52.866 197.890 C 52.665 199.204, 53.063 200.479, 53.750 200.723 C 54.489 200.985, 55 200.325, 55 199.106 C 55 196.848, 59.311 193.456, 60.918 194.450 C 61.584 194.861, 61.544 195.907, 60.800 197.540 C 59.107 201.256, 60.648 201.712, 64.010 198.490 C 66.771 195.845, 67.002 195.085, 67.024 188.563 C 67.037 184.678, 67.440 179.813, 67.919 177.750 C 68.731 174.250, 67.919 172.703, 66.486 175.022 M 75 183.171 C 75 184.386, 74.472 187.937, 73.826 191.063 C 71.961 200.093, 75.235 205, 83.125 205 C 83.606 205, 84.032 203.088, 84.070 200.750 C 84.165 195.007, 84.693 193.959, 90.656 187.672 L 95.812 182.237 88.156 182.368 C 83.945 182.441, 79.263 182.154, 77.750 181.731 C 75.348 181.059, 75 181.241, 75 183.171 M 200.626 187.284 C 199.028 188.453, 199.280 188.862, 203.435 191.846 C 207.953 195.091, 208 195.100, 208 192.785 C 208 190.019, 205.414 186, 203.634 186 C 202.946 186, 201.592 186.578, 200.626 187.284 M 250.123 188.629 C 249.464 190.075, 249.054 191.365, 249.213 191.495 C 249.371 191.625, 251.254 190.442, 253.399 188.866 L 257.297 186 254.309 186 C 252.053 186, 251.028 186.644, 250.123 188.629 M 224.951 195.553 C 222.918 197.716, 222.777 198.255, 224.026 199.088 C 225.382 199.991, 232.823 199.510, 233.883 198.450 C 234.559 197.774, 229.844 193, 228.500 193 C 227.867 193, 226.269 194.149, 224.951 195.553 M 76.633 212 C 78.724 221.560, 82.212 229.231, 85.737 232.024 C 88.055 233.860, 89.386 234.132, 94 233.713 C 101.190 233.060, 111.121 229.649, 115.889 226.196 L 119.690 223.442 116.334 218.472 C 114.487 215.739, 112.727 212.715, 112.421 211.752 C 111.689 209.444, 110 209.500, 110 211.831 C 110 214.520, 105.429 216.507, 99.382 216.448 C 94.993 216.405, 93.412 215.862, 90.233 213.307 C 87.303 210.953, 85.166 210.134, 81.238 209.860 C 76.195 209.508, 76.097 209.553, 76.633 212 M 120.964 228.441 C 116.543 232.793, 101.647 237.945, 93.201 238.043 L 89.500 238.086 96.500 244.693 C 100.462 248.433, 105.795 252.322, 108.789 253.655 C 113.503 255.753, 114.568 255.886, 118.586 254.874 C 124.315 253.432, 134.011 247.197, 136.954 243.064 C 138.199 241.316, 139.057 239.771, 138.859 239.631 C 138.662 239.491, 135.017 236.592, 130.760 233.188 C 126.503 229.785, 122.887 227, 122.724 227 C 122.562 227, 121.770 227.649, 120.964 228.441 M 252.394 233.327 C 250.136 235.072, 247.496 236.961, 246.528 237.525 C 245.559 238.089, 244.932 239.375, 245.133 240.384 C 245.430 241.870, 246.733 241.068, 252 236.153 C 258.945 229.674, 259.165 228.095, 252.394 233.327 M 236.500 242.280 C 235.400 242.951, 231.801 244.438, 228.503 245.584 C 222.887 247.536, 222.469 247.900, 221.911 251.334 C 221.583 253.350, 221.483 255, 221.688 255 C 221.893 255, 224.807 253.844, 228.164 252.431 C 236.324 248.996, 240 246.164, 240 243.312 C 240 240.709, 239.378 240.526, 236.500 242.280 M 83.372 244.346 C 85.197 251.617, 90.205 258.211, 97.310 262.696 C 101.703 265.469, 101.682 267.066, 97.238 268.218 C 93.211 269.262, 87 275.115, 87 277.868 C 87 279.041, 87.450 280, 88 280 C 88.550 280, 89 279.507, 89 278.904 C 89 276.748, 93.173 272, 95.068 272 C 97.093 272, 97.738 274.810, 96.112 276.550 C 95.624 277.072, 94.919 278.512, 94.545 279.750 C 93.963 281.676, 94.235 282, 96.433 282 C 98.261 282, 99 281.469, 99 280.155 C 99 278.095, 101.966 275, 103.940 275 C 104.864 275, 105.039 275.978, 104.566 278.500 C 103.797 282.601, 104.077 282.664, 113.795 280.580 C 121.120 279.008, 123.716 277.030, 124.594 272.352 C 125.355 268.292, 124.021 266.383, 119.767 265.449 C 110.787 263.476, 95.128 254.364, 87.614 246.739 C 83.413 242.476, 82.818 242.140, 83.372 244.346 M 135.500 250.696 C 130.976 254.642, 124.955 257.985, 122.290 258.030 C 116.338 258.132, 134.107 263.233, 144.470 264.398 L 150.441 265.069 147.924 262.285 C 145.380 259.470, 141 251.192, 141 249.199 C 141 246.893, 139.344 247.344, 135.500 250.696 M 208.839 250.242 C 201.638 251.290, 201.043 251.927, 201.014 258.621 L 201 261.742 205.486 260.904 C 212.259 259.638, 216 257.380, 216 254.556 C 216 253.240, 216.273 251.452, 216.607 250.582 C 216.941 249.712, 216.828 249.061, 216.357 249.136 C 215.886 249.210, 212.503 249.708, 208.839 250.242" stroke="none" fill="black" fill-rule="evenodd"/>
</svg>