<svg xmlns="http://www.w3.org/2000/svg" width="208" height="300" viewBox="0 0 208 300" version="1.1">
	<path d="M 86 7.170 C 77.991 8.307, 69.723 11.967, 67.501 15.358 C 65.933 17.751, 65.958 18.558, 67.916 28.794 C 69.062 34.784, 69.998 40.093, 69.996 40.592 C 69.994 41.091, 68.038 42.304, 65.649 43.286 C 63.260 44.268, 59.999 46.434, 58.403 48.100 C 55.686 50.934, 55.478 51.733, 55.153 60.591 C 54.754 71.449, 55.520 73.330, 62.116 77.695 L 66.183 80.387 65.842 93.943 C 65.400 111.458, 64.376 113.485, 51.550 122.216 C 36.565 132.418, 24.820 144.685, 18.727 156.500 C 10.197 173.039, 7.489 183.922, 7.531 201.500 C 7.586 224.494, 13.760 241.389, 28.632 259.244 C 41.084 274.191, 57.915 284.793, 77.776 290.197 C 84.277 291.966, 88.508 292.313, 104.500 292.391 C 122.486 292.479, 124.031 292.333, 133.440 289.659 C 149.824 285.002, 163.449 277.376, 174.154 266.870 C 182.680 258.503, 188.899 249.926, 193.804 239.769 C 200.229 226.464, 201.500 220.061, 201.500 201 C 201.500 182.360, 200.145 175.119, 194.574 164 C 187.375 149.630, 183.956 144.756, 174.580 135.494 C 169.232 130.212, 165.114 126.927, 152.350 117.762 C 145.048 112.519, 143.041 106.736, 143.062 91 L 143.076 80.500 146.983 77.799 C 152.329 74.103, 153.889 71.368, 154.608 64.431 C 155.715 53.749, 151.584 45.668, 143.684 43.061 C 139.613 41.717, 138.745 40.139, 139.955 36.278 C 140.433 34.750, 141.357 29.952, 142.007 25.615 C 143.102 18.310, 143.045 17.538, 141.240 15.115 C 140.168 13.677, 137.978 11.731, 136.373 10.791 C 129.570 6.806, 102.346 4.849, 86 7.170 M 96 13.076 C 82.604 14.340, 79.671 14.943, 77 16.982 L 74.500 18.890 78.011 20.359 C 82.652 22.300, 95.275 24.005, 104.822 23.980 C 116.780 23.949, 134 20.985, 134 18.957 C 134 17.139, 128.423 14.907, 121.775 14.065 C 108.785 12.420, 104.638 12.261, 96 13.076 M 76.106 30.156 C 76.586 32.545, 77.677 38.306, 78.530 42.958 C 79.384 47.610, 80.253 51.587, 80.462 51.795 C 81.452 52.785, 95.767 53.933, 107 53.924 C 119.522 53.913, 127.409 52.998, 129.022 51.370 C 129.496 50.891, 130.341 47.800, 130.900 44.500 C 131.459 41.200, 132.375 35.828, 132.936 32.562 C 133.497 29.295, 133.808 26.475, 133.627 26.294 C 133.446 26.113, 130.052 26.648, 126.084 27.482 C 114.507 29.918, 90.820 29.394, 77.867 26.417 C 75.241 25.813, 75.236 25.823, 76.106 30.156 M 67 51.208 C 63.574 53.522, 63.494 53.731, 63.210 61.145 C 62.942 68.165, 63.094 68.832, 65.288 70.269 C 77.051 77.977, 127.771 78.858, 141.809 71.599 C 145.859 69.504, 147.003 67.231, 146.985 61.316 C 146.967 55.203, 145.352 52.143, 141.250 50.443 C 138.032 49.110, 138 49.124, 138 51.926 C 138 55.442, 136.911 56.270, 130 58.003 C 119.049 60.750, 79.735 59.258, 72.813 55.832 C 71.886 55.373, 70.986 53.613, 70.813 51.921 L 70.500 48.844 67 51.208 M 74.152 93.250 C 74.149 112.048, 71.071 118.254, 57 127.833 C 35.854 142.229, 27.954 151.684, 19.682 172.500 C 17.644 177.629, 14.998 193.720, 15.008 200.926 C 15.019 209.120, 16.726 218.345, 20.097 228.430 C 29.991 258.027, 58.741 280.896, 91.166 284.962 C 118.910 288.440, 140.749 282.892, 161.827 267.010 C 171.954 259.378, 180.351 249.011, 186.210 236.902 C 192.534 223.831, 193.508 218.658, 193.456 198.415 L 193.413 181.330 189.540 171.915 C 182.019 153.631, 172.466 141.840, 155.581 130 C 138.952 118.339, 135.926 113.038, 135.204 94.309 C 134.736 82.167, 134.698 82, 132.365 82 C 130.244 82, 130 82.445, 130 86.311 C 130 94.553, 125.071 96.989, 106.895 97.729 C 93.948 98.257, 84.883 96.883, 81.950 93.950 C 80.897 92.897, 79.787 89.877, 79.411 87.040 C 78.828 82.645, 78.448 82, 76.448 82 C 74.192 82, 74.154 82.186, 74.152 93.250 M 84 83.641 C 84 83.874, 84.641 85.598, 85.424 87.473 C 87.165 91.640, 90.030 92.385, 104.500 92.431 C 120.050 92.480, 125 90.812, 125 85.524 L 125 83.190 104.500 83.205 C 93.225 83.212, 84 83.409, 84 83.641 M 106.455 117.455 C 102.408 121.501, 103.215 128.025, 108.072 130.537 C 111.985 132.561, 115.264 132.367, 118.365 129.927 C 121.723 127.286, 121.987 121.524, 118.927 117.635 C 116.087 114.024, 109.973 113.936, 106.455 117.455 M 109.632 121.115 C 107.904 123.582, 108.440 125.630, 111.201 127.107 C 112.719 127.920, 113.603 127.765, 115.083 126.425 C 117.482 124.254, 117.505 122.767, 115.171 120.655 C 112.744 118.458, 111.416 118.568, 109.632 121.115 M 75.500 139.208 C 72.852 140.726, 71.216 142.780, 69.369 146.903 C 67.990 149.982, 68.003 150.719, 69.500 154.640 C 71.601 160.142, 75.523 163, 80.970 163 C 89.921 163, 95.756 156.414, 93.956 148.342 C 92.241 140.651, 81.904 135.535, 75.500 139.208 M 76.025 144.975 C 71.553 149.447, 72.811 155.436, 78.739 157.892 C 82.346 159.386, 86.238 158.093, 88.493 154.651 C 93.051 147.695, 81.933 139.067, 76.025 144.975 M 133.329 147.458 C 127.573 149.961, 126.321 155.710, 130.540 160.260 C 135.969 166.115, 145.466 162.126, 144.810 154.268 C 144.565 151.345, 143.784 150.084, 141.102 148.282 C 137.163 145.636, 137.447 145.666, 133.329 147.458 M 134.040 152.452 C 131.958 154.961, 133.195 157.500, 136.500 157.500 C 138.566 157.500, 139.578 156.952, 139.819 155.702 C 140.216 153.640, 138.352 151, 136.500 151 C 135.810 151, 134.703 151.653, 134.040 152.452 M 133.500 174.512 C 121.480 178.051, 117.284 179.484, 114 181.170 C 108.268 184.114, 96.729 188.740, 93.340 189.454 C 90.925 189.962, 88.797 189.422, 84.318 187.161 C 73.949 181.926, 66.590 179.334, 58.259 177.981 C 42.879 175.483, 31.228 179.678, 26.630 189.368 C 23.639 195.671, 24.919 215.441, 28.905 224.500 C 29.389 225.600, 30.736 228.927, 31.897 231.894 C 36.681 244.114, 51.727 259.559, 65.977 266.877 C 80.143 274.152, 86.285 275.504, 105 275.470 C 121.025 275.441, 121.774 275.345, 131 272.152 C 150.619 265.361, 162.607 256.215, 173.142 240 C 178.345 231.992, 178.761 231.037, 181.501 220.809 C 184.704 208.854, 184.975 194.414, 182.121 187.833 C 179.645 182.126, 176.736 179.583, 168.946 176.316 C 163.363 173.975, 160.894 173.575, 150.500 173.326 C 142.117 173.126, 136.993 173.483, 133.500 174.512 M 130 180.841 C 124.775 182.395, 115.885 185.767, 110.244 188.334 C 104.603 190.900, 99.567 193, 99.053 193 C 92.178 193, 114.457 204.643, 127.667 207.953 C 146.017 212.552, 163.920 209.080, 174.041 198.959 C 178.617 194.383, 178.984 191.770, 175.733 186.898 C 172.427 181.944, 162.716 178.777, 149.500 178.343 C 140.839 178.058, 138.228 178.393, 130 180.841 M 43.500 182.872 C 38.548 184.182, 34.125 186.880, 32.259 189.727 C 30.831 191.907, 30.517 194.493, 30.591 203.456 C 30.689 215.222, 32.031 220.234, 38.509 233.019 C 55.737 267.015, 102.987 281.010, 139.569 262.952 C 162.508 251.629, 175.774 232.681, 178.571 207.246 L 179.259 200.993 175.548 204.392 C 173.507 206.261, 168.509 209.188, 164.442 210.895 C 157.372 213.863, 156.438 213.999, 143.273 213.988 C 130.680 213.977, 128.743 213.722, 120.665 211.013 C 111.807 208.042, 96.879 200.997, 93.921 198.391 C 93.053 197.626, 92.049 197, 91.691 197 C 91.332 197, 88.645 195.468, 85.718 193.597 C 72.614 185.214, 53.244 180.293, 43.500 182.872 M 142.500 186.403 C 138.998 187.948, 136.518 190.576, 135.543 193.775 C 135.001 195.553, 135.607 196.807, 138.325 199.525 C 141.406 202.606, 142.393 203, 147.032 203 C 152.842 203, 158.463 200.268, 159.523 196.928 C 160.864 192.703, 159.016 188.911, 154.650 186.928 C 149.780 184.717, 146.627 184.581, 142.500 186.403 M 144.465 190.952 C 143.346 191.405, 141.862 192.461, 141.168 193.298 C 140.119 194.562, 140.289 195.089, 142.175 196.410 C 143.423 197.284, 145.717 198, 147.272 198 C 150.444 198, 156 195.454, 156 194 C 156 192.749, 150.589 189.983, 148.300 190.063 C 147.310 190.098, 145.584 190.498, 144.465 190.952 M 42.655 195.829 C 39.104 199.753, 41.520 204.333, 47.141 204.333 C 52.162 204.333, 53.925 198.462, 49.777 195.557 C 46.852 193.507, 44.681 193.590, 42.655 195.829 M 45.177 199.553 C 45.629 201.725, 47.404 201.858, 47.810 199.750 C 48.020 198.655, 47.530 198, 46.500 198 C 45.539 198, 44.988 198.647, 45.177 199.553 M 62.020 207.687 C 54.654 211.524, 51.644 219.857, 54.431 228.698 C 55.927 233.444, 56.803 234.539, 61.521 237.557 C 65.961 240.397, 67.855 241, 72.330 241 C 75.971 241, 78.171 240.499, 79.020 239.476 C 80.849 237.272, 79.515 236.511, 73.667 236.420 C 66.496 236.309, 62.269 233.862, 59.867 228.431 C 57.423 222.907, 58.132 218.141, 62.016 213.983 C 64.335 211.501, 65.582 211, 69.447 211 C 77.192 211, 81.376 217.162, 77.443 222.777 C 75.589 225.425, 71.225 225.750, 70.289 223.310 C 69.927 222.366, 70.161 221.446, 70.820 221.227 C 72.437 220.688, 72.303 218.496, 70.564 217.053 C 67.965 214.896, 65 217.468, 65 221.880 C 65 228.945, 72.547 232.169, 78.931 227.831 C 84.793 223.849, 85.357 216.241, 80.243 210.129 C 77.833 207.248, 76.771 206.791, 71.500 206.362 C 66.938 205.992, 64.666 206.309, 62.020 207.687 M 133.822 227.918 C 130.675 230.402, 128.653 235.768, 129.537 239.290 C 129.880 240.660, 131.451 243.016, 133.028 244.526 C 135.536 246.929, 136.467 247.207, 140.487 246.754 C 147.327 245.983, 149 243.968, 149 236.500 C 149 229.106, 147.319 227.013, 140.791 226.284 C 137.447 225.911, 135.909 226.271, 133.822 227.918 M 135.557 233.223 C 134.701 234.445, 134 236.175, 134 237.068 C 134 240.935, 140.999 243.601, 143.800 240.800 C 145.593 239.007, 145.248 234.534, 143.171 232.655 C 140.625 230.350, 137.400 230.591, 135.557 233.223 M 100.223 244.557 C 98.574 245.711, 98 247.117, 98 250 C 98 252.883, 98.574 254.289, 100.223 255.443 C 105.418 259.083, 111 256.174, 111 249.826 C 111 243.784, 105.303 240.998, 100.223 244.557 M 103.213 248.188 C 101.614 249.786, 101.672 251.660, 103.341 252.300 C 105.330 253.064, 107.246 251.514, 106.848 249.463 C 106.408 247.189, 104.782 246.618, 103.213 248.188" stroke="none" fill="black" fill-rule="evenodd"/>
</svg>