<svg xmlns="http://www.w3.org/2000/svg" width="315" height="260" viewBox="0 0 315 260" version="1.1">
	<path d="M 228.865 9.250 C 227.775 10.488, 224.850 15.994, 222.366 21.488 C 211.652 45.185, 209.104 50, 207.279 50 C 206.290 50, 196.298 51.099, 185.076 52.442 C 168.270 54.454, 164.328 55.228, 162.724 56.832 C 160.270 59.286, 160.684 60.043, 169.407 69.049 C 173.162 72.926, 176.070 76.237, 175.867 76.405 C 175.665 76.574, 171.450 77.721, 166.500 78.954 C 158.548 80.935, 145.254 84.676, 138 86.973 C 136.625 87.409, 130.879 89.618, 125.230 91.882 C 83.111 108.769, 43.106 138.274, 14.999 173.184 C 6.513 183.723, 5.071 187.549, 9.250 188.443 C 10.488 188.708, 19.680 189.058, 29.677 189.223 C 39.675 189.387, 48.105 189.772, 48.410 190.077 C 49.055 190.722, 48.166 193.788, 44.515 203.500 C 41.549 211.390, 40.062 216.502, 35.933 233 C 32.572 246.434, 32.495 247.336, 34.558 249.048 C 36.615 250.755, 41.042 248.487, 55 238.573 C 60.775 234.472, 67.750 229.717, 70.500 228.007 C 73.250 226.297, 77.975 223.328, 81 221.408 C 85.164 218.767, 86.688 218.232, 87.275 219.209 C 87.701 219.919, 89.683 223.200, 91.679 226.500 C 93.674 229.800, 97.227 236.100, 99.574 240.500 C 104.809 250.315, 107.120 253, 110.332 253 C 112.583 253, 113.110 252.105, 115.984 243.395 C 117.726 238.112, 119.944 232.374, 120.911 230.645 C 121.878 228.915, 122.996 226.150, 123.394 224.500 C 124.859 218.433, 140.692 187.897, 148.106 176.838 C 149.423 174.875, 152.249 170.628, 154.386 167.402 C 158.449 161.269, 163.716 154.596, 170.489 147 C 172.696 144.525, 176.302 140.349, 178.501 137.720 C 180.700 135.090, 183.557 132.238, 184.849 131.382 C 187.168 129.844, 187.189 129.863, 186.532 132.854 C 185.745 136.439, 187.198 139.611, 190.042 140.513 C 191.913 141.107, 197.973 138.076, 215.500 127.779 C 222.559 123.632, 230.060 120, 231.566 120 C 232.459 120, 239.335 123.350, 246.845 127.446 C 273.400 141.925, 276 142.515, 276 134.059 C 276 131.415, 274.416 121.208, 272.480 111.376 L 268.959 93.500 286.094 76.898 C 301.990 61.495, 303.143 60.137, 302.053 58.100 C 300.152 54.547, 299.276 54.357, 271.554 51.474 C 263.334 50.619, 255.959 49.381, 255.167 48.723 C 253.774 47.567, 250.227 40.367, 241.758 21.500 C 235.155 6.791, 232.912 4.659, 228.865 9.250 M 270.060 25.566 C 266.177 30.277, 263 34.777, 263 35.566 C 263 37.893, 266.499 37.210, 269.739 34.250 C 273.322 30.976, 281 20.760, 281 19.266 C 281 18.394, 278.833 17, 277.478 17 C 277.281 17, 273.942 20.855, 270.060 25.566 M 183 19.202 C 183 19.936, 184.688 22.621, 186.750 25.170 C 188.813 27.718, 191.757 31.422, 193.293 33.401 C 196.160 37.097, 199.633 38.120, 200.615 35.560 C 201.510 33.229, 188.904 18.565, 185.678 18.184 C 183.953 17.980, 183 18.342, 183 19.202 M 229.949 23.263 C 226.967 30.784, 215.035 54.726, 213.727 55.811 C 212.945 56.461, 206.049 57.682, 198.402 58.525 C 175.403 61.062, 174 61.256, 174.005 61.890 C 174.011 62.620, 176.898 65.522, 191.862 79.843 C 200.581 88.186, 203.091 91.157, 202.650 92.608 C 202.334 93.649, 201.623 97.200, 201.070 100.500 C 200.517 103.800, 199.150 110.731, 198.032 115.902 C 196.915 121.073, 196 126.367, 196 127.666 L 196 130.029 201.750 127.006 C 207.539 123.963, 209.345 122.945, 218.501 117.560 C 221.250 115.943, 225.525 113.841, 228 112.890 L 232.500 111.160 245 117.761 C 251.875 121.392, 259.692 125.651, 262.371 127.227 C 265.050 128.802, 267.453 129.880, 267.710 129.623 C 267.968 129.366, 267.710 126.758, 267.137 123.828 C 266.565 120.897, 264.865 112.264, 263.361 104.642 L 260.625 90.783 268.069 83.642 C 272.163 79.714, 278.209 73.975, 281.506 70.889 C 284.803 67.802, 288.295 64.384, 289.267 63.291 C 290.986 61.359, 290.952 61.303, 288.015 61.219 C 286.355 61.172, 284.210 60.888, 283.248 60.588 C 282.287 60.289, 275.082 59.372, 267.239 58.551 C 259.395 57.730, 252.055 56.565, 250.929 55.962 C 249.133 55.001, 243.214 43.863, 235.095 26.168 C 233.772 23.285, 232.361 20.723, 231.961 20.476 C 231.560 20.228, 230.655 21.482, 229.949 23.263 M 174.500 84.672 C 134.431 92.716, 94.014 111.368, 63.519 135.887 C 47.065 149.117, 41.830 154.081, 29.129 168.500 L 18.558 180.500 27.029 181.151 C 31.688 181.509, 40.071 181.846, 45.659 181.901 L 55.817 182 60.758 175.750 C 82.643 148.063, 110.473 125.094, 143.858 107.164 C 155.487 100.919, 174.395 92.563, 183.737 89.542 L 188.973 87.848 186.092 85.424 C 184.508 84.091, 182.826 83.060, 182.356 83.133 C 181.885 83.207, 178.350 83.899, 174.500 84.672 M 186.500 94.083 C 182.650 95.063, 177.700 96.781, 175.500 97.901 C 173.300 99.020, 168.276 101.300, 164.336 102.967 C 151.061 108.582, 124.369 123.718, 114.856 131.026 C 113.401 132.143, 110.846 134.057, 109.178 135.279 C 94.110 146.315, 73.087 167.293, 62.354 182 C 60.147 185.025, 57.107 190.875, 55.599 195 C 54.091 199.125, 51.806 205.200, 50.521 208.500 C 49.236 211.800, 47.895 215.625, 47.541 217 C 46.802 219.871, 43.033 237.286, 43.013 237.924 C 43.006 238.158, 44.013 237.441, 45.250 236.332 C 48.388 233.520, 72.095 218.108, 80.262 213.571 C 85.546 210.636, 87.605 208.795, 89.677 205.157 C 107.959 173.054, 132.199 144.135, 157.842 123.834 C 166.396 117.062, 190.262 101, 191.771 101 C 192.628 101, 194.509 93.071, 193.783 92.517 C 193.627 92.398, 190.350 93.103, 186.500 94.083 M 284 98.480 C 284 100.414, 289.733 103.265, 298.703 105.791 C 304.746 107.493, 306.088 107.599, 307.039 106.453 C 308.795 104.337, 307.576 103.368, 299.014 100.066 C 290.301 96.705, 284 96.040, 284 98.480 M 190 107.801 C 190 108.241, 188.088 109.535, 185.750 110.676 C 181.577 112.714, 163.857 125.411, 155 132.712 C 148.971 137.681, 129.594 157.149, 123.858 164 C 118.565 170.321, 103 191.641, 103 192.570 C 103 192.912, 102.164 194.386, 101.142 195.846 C 98.056 200.252, 92.999 209.805, 93.015 211.196 C 93.048 214.212, 107.474 239.969, 109.142 239.991 C 109.494 239.996, 110.094 238.762, 110.473 237.250 C 111.505 233.135, 121.588 209.819, 127.013 199 C 140.228 172.649, 158.490 147.428, 179.137 127.016 C 188.981 117.284, 189.824 116.146, 190.448 111.750 C 190.819 109.138, 190.870 107, 190.561 107 C 190.253 107, 190 107.360, 190 107.801 M 230.219 137.750 C 229.823 138.713, 229.500 143.766, 229.500 148.981 C 229.500 157.207, 229.731 158.507, 231.247 158.804 C 233.922 159.327, 234.750 155.561, 234.226 145.250 C 233.866 138.182, 233.423 136, 232.346 136 C 231.571 136, 230.614 136.787, 230.219 137.750" stroke="none" fill="black" fill-rule="evenodd"/>
</svg>