<svg xmlns="http://www.w3.org/2000/svg" width="288" height="290" viewBox="0 0 288 290" version="1.1">
	<path d="M 132.500 7.631 C 124.731 8.474, 107.865 12.165, 100.796 14.569 C 60.115 28.406, 26.448 62.968, 13.683 104 C 3.333 137.270, 5.574 172.110, 20.095 203.713 C 30.060 225.398, 48.205 246.322, 69.500 260.684 C 83.728 270.280, 104.036 278.300, 122.237 281.513 C 135.415 283.839, 161.474 283.176, 174.500 280.184 C 209.728 272.091, 240.104 250.888, 260.565 220.111 C 269.342 206.909, 277.903 185.205, 280.134 170.500 C 281.893 158.911, 281.908 129.788, 280.161 120 C 278.889 112.872, 275.239 100.405, 272.841 95 C 272.231 93.625, 271.363 91.600, 270.911 90.500 C 266.246 79.142, 261.808 71.723, 252.247 59.305 C 232.850 34.110, 202.652 15.837, 169.986 9.528 C 161.521 7.893, 140.083 6.808, 132.500 7.631 M 126.010 16.589 C 114.326 18.404, 106.128 20.699, 95.144 25.232 C 85.560 29.187, 84.475 29.761, 75 35.891 C 51.883 50.849, 32.627 74.733, 22.910 100.500 C 20.640 106.518, 16.962 122.723, 15.872 131.500 C 14.592 141.818, 15.308 160.352, 17.360 170 C 25.246 207.075, 47.773 238.743, 79.712 257.651 C 95.669 267.098, 110.210 271.959, 130.309 274.566 C 143.167 276.234, 144.667 276.238, 158.342 274.637 C 182.593 271.798, 197.509 266.287, 218.500 252.412 C 229.403 245.204, 236.512 238.648, 245.264 227.730 C 259.337 210.172, 267.473 192.974, 272.103 171 C 274.941 157.528, 274.926 132.214, 272.073 119.395 C 265.306 88.995, 249.392 62.886, 226 43.804 C 198.820 21.632, 160.568 11.220, 126.010 16.589 M 134.077 29.589 C 132.385 31.013, 131 32.998, 131 34 C 131 35.002, 132.385 36.987, 134.077 38.411 C 138.392 42.042, 146.510 42.110, 150.354 38.548 C 151.809 37.199, 153 35.153, 153 34 C 153 32.847, 151.809 30.801, 150.354 29.452 C 146.510 25.890, 138.392 25.958, 134.077 29.589 M 137.500 32.424 L 135.500 34 137.500 35.576 C 139.558 37.198, 146.366 37.034, 148.079 35.321 C 151.039 32.361, 141.050 29.626, 137.500 32.424 M 104.500 56.871 C 87.452 61.331, 75.931 79.297, 82.266 91.547 C 85.761 98.305, 93.699 103, 101.633 103 C 106.929 103, 117.492 98.611, 122.710 94.243 C 135.428 83.594, 136.170 65.696, 124.165 59.128 C 119.488 56.569, 109.873 55.466, 104.500 56.871 M 199.898 61.285 C 196.623 63.488, 196.489 63.832, 196.207 70.752 C 195.859 79.270, 197.030 82.056, 203.672 88.511 C 208.657 93.356, 212.835 94.986, 220.295 94.994 C 224.022 94.999, 225.623 94.468, 227.479 92.612 C 232.931 87.159, 231.155 75.883, 223.558 67.726 C 215.771 59.364, 206.504 56.842, 199.898 61.285 M 106.500 60.938 C 89.885 65.001, 80.365 81.278, 88.184 92.258 C 90.920 96.100, 95.625 98.011, 102.218 97.956 C 112.399 97.872, 120.809 92.683, 125.367 83.675 C 132.733 69.116, 122.667 56.985, 106.500 60.938 M 200.557 66.223 C 197.332 70.826, 199.249 77.371, 205.860 84.332 C 210.522 89.241, 213.935 91, 218.795 91 C 223.841 91, 226 88.650, 226 83.158 C 226 78.340, 224.880 76.008, 220.001 70.668 C 215.423 65.657, 212.095 64, 206.606 64 C 203.097 64, 201.773 64.487, 200.557 66.223 M 44 102.709 C 37.646 105.046, 33.110 116.118, 35.026 124.614 C 38.089 138.195, 54 128.474, 54 113.022 C 54 108.635, 53.555 107.401, 51.077 104.923 C 48.186 102.032, 46.919 101.636, 44 102.709 M 42.669 109.981 C 39.840 113.344, 38.666 117.739, 39.173 123.067 C 39.448 125.959, 39.888 126.500, 41.960 126.500 C 43.651 126.500, 45.150 125.417, 46.752 123.039 C 48.673 120.190, 49.033 118.514, 48.792 113.549 C 48.442 106.333, 46.629 105.276, 42.669 109.981 M 243.306 129.413 C 240.716 131.641, 240.500 132.380, 240.500 139 C 240.500 145.620, 240.716 146.359, 243.306 148.587 C 248.496 153.051, 254.294 151.336, 256.049 144.817 C 257.616 138.999, 255.748 132.672, 251.508 129.439 C 247.538 126.411, 246.799 126.408, 243.306 129.413 M 246.200 133.200 C 244.181 135.219, 244.703 143.421, 246.981 145.483 C 248.603 146.950, 249.238 147.047, 250.481 146.016 C 252.483 144.355, 252.459 137.101, 250.443 134.223 C 248.670 131.690, 247.896 131.504, 246.200 133.200 M 155.389 157.905 C 142.238 165.924, 145.911 184.324, 160.951 185.769 C 177.659 187.375, 184.403 165.731, 169.670 157.792 C 165.444 155.515, 159.227 155.564, 155.389 157.905 M 156.397 162.825 C 151.147 167.213, 150.501 173.655, 154.872 178.026 C 158.432 181.586, 162.154 182.593, 165.947 181.022 C 169.991 179.347, 171.986 176.860, 172.671 172.641 C 173.412 168.072, 171.584 163.587, 168.385 162.130 C 164.740 160.469, 158.803 160.813, 156.397 162.825 M 62.030 172.533 C 54.637 175.848, 51 181.818, 51 190.639 C 51 197.454, 52.340 201.734, 56.631 208.632 C 60.408 214.703, 65.002 218.433, 71.955 221.075 C 76.226 222.698, 77.776 222.835, 81.764 221.946 C 94.565 219.091, 99.934 203.790, 93.150 189.500 C 86.775 176.072, 72.046 168.041, 62.030 172.533 M 62.205 177.345 C 52.214 182.890, 53.923 202.887, 65.174 212.074 C 71.434 217.185, 73.060 217.926, 78.115 217.965 C 86.536 218.029, 91.361 211.884, 91.181 201.323 C 91.009 191.214, 85 182.174, 75.618 177.914 C 70.852 175.750, 65.489 175.522, 62.205 177.345 M 219.685 192.017 C 216.596 192.944, 210.839 197.050, 207.115 200.982 C 203.910 204.365, 199.002 214.831, 199.001 218.282 C 199 222.789, 201.610 227.747, 204.872 229.434 C 214.986 234.664, 229.311 227.050, 236.501 212.623 C 243.478 198.622, 234.467 187.580, 219.685 192.017 M 219.493 197.311 C 207.070 203.196, 199.790 219.800, 207.213 225.318 C 213.481 229.978, 226.552 222.754, 231.921 211.663 C 237.775 199.570, 231.071 191.827, 219.493 197.311 M 127.198 238.610 C 123.353 240.578, 120.596 245.253, 121.397 248.445 C 122.527 252.950, 125.775 255.673, 132.147 257.461 C 142.624 260.401, 152.548 257.919, 155.118 251.716 C 156.817 247.613, 155.313 244.166, 150.278 240.627 C 146.678 238.098, 144.957 237.619, 138.287 237.297 C 132.374 237.011, 129.706 237.327, 127.198 238.610 M 131.096 242.306 C 121.164 245.789, 126.533 252.932, 139.748 253.815 C 149.565 254.471, 154.075 250.190, 148.750 245.270 C 146.456 243.151, 140.108 240.970, 136.500 241.062 C 135.400 241.090, 132.968 241.650, 131.096 242.306" stroke="none" fill="black" fill-rule="evenodd"/>
</svg>