<svg xmlns="http://www.w3.org/2000/svg" width="318" height="299" viewBox="0 0 318 299" version="1.1">
	<path d="M 285.360 11.417 C 282.137 13.846, 276.593 18.605, 273.039 21.993 C 265.954 28.749, 266.457 28.656, 256.523 25.014 C 252.369 23.491, 248.215 22.812, 242.907 22.789 C 234.640 22.753, 230.348 23.780, 222.320 27.716 L 217.141 30.256 214.435 28.128 C 212.756 26.807, 210.292 26, 207.938 26 C 204.773 26, 203.633 26.620, 201.048 29.750 C 199.345 31.812, 197.510 35.075, 196.972 37 C 196.121 40.044, 195.062 40.948, 188.840 43.940 C 179.036 48.655, 170.617 57.155, 165.448 67.555 C 163.277 71.925, 161.399 75.676, 161.275 75.891 C 160.942 76.472, 151.383 68.943, 144.206 62.448 C 136.362 55.350, 126.608 42.838, 121.198 32.937 C 116.329 24.024, 113.280 21.771, 109.194 24.065 C 103.181 27.440, 100.133 36.627, 101.232 48.065 C 101.549 51.367, 101.340 52.952, 100.604 52.814 C 98.130 52.352, 94.886 54.319, 93.408 57.178 L 91.838 60.215 82.059 50.607 C 71.345 40.081, 68.861 39.048, 64.572 43.337 C 60.015 47.894, 60.495 62.322, 65.526 72.051 C 66.999 74.899, 66.973 75.001, 64.776 75.015 C 59.145 75.053, 56.640 81.088, 58.519 90.090 C 59.776 96.114, 62.080 99.846, 69.091 107.216 C 72.850 111.167, 72.921 111.367, 71.036 112.687 C 68.335 114.579, 67.514 119.902, 69.274 124.112 C 71.246 128.832, 79.382 136.385, 85.461 139.138 C 88.232 140.394, 90.615 141.478, 90.755 141.548 C 90.894 141.618, 90.516 143.091, 89.913 144.821 C 88.980 147.497, 89.146 148.528, 91.030 151.733 L 93.244 155.500 90.658 152.500 C 89.236 150.850, 88.056 149.258, 88.036 148.961 C 87.938 147.500, 76.734 141.879, 71.002 140.416 C 55.168 136.374, 38.255 143.086, 29.609 156.843 C 23.111 167.182, 21.747 182.135, 26.037 196 C 27.349 200.240, 28.527 207.031, 28.749 211.622 C 29.126 219.469, 29.048 219.817, 26.435 221.872 C 22.475 224.988, 20.391 224.522, 16.934 219.750 C 12.922 214.211, 11.675 213.597, 9.444 216.062 C 6.570 219.238, 6.354 228.270, 8.985 235.262 C 13.527 247.335, 24.999 254.981, 38.933 255.223 C 51.322 255.438, 60.904 250.220, 68.480 239.132 C 75.132 229.396, 76.126 224.414, 75.385 204.500 C 75.025 194.821, 75.180 187.512, 75.777 186 C 76.536 184.080, 76.788 185.821, 76.864 193.500 C 76.963 203.569, 79.209 214.419, 82.730 221.842 C 84.274 225.097, 84.227 225.356, 80.929 231.785 C 76.731 239.971, 76.045 247.866, 78.470 260.070 C 83.509 285.418, 88.294 291.713, 102.685 291.924 C 108.637 292.011, 112.539 290.767, 115.750 287.759 C 118.886 284.821, 118.766 276.504, 115.390 262.792 C 112.898 252.670, 112.733 246.418, 115.054 250.028 C 115.575 250.838, 116.493 253.300, 117.096 255.500 C 119.566 264.523, 124.165 274.784, 126.924 277.427 C 130.913 281.249, 139.649 283.269, 146.155 281.873 C 154.914 279.995, 158.171 272.804, 154.580 263.270 C 153.799 261.197, 151.999 256.498, 150.580 252.829 C 149.161 249.161, 148 244.939, 148 243.449 C 148 240.873, 148.187 240.769, 151.750 241.358 C 153.813 241.699, 161.575 241.983, 169 241.989 L 182.500 242.001 184.860 252.250 C 191.120 279.430, 193.884 285.873, 200.782 289.353 C 207.710 292.848, 219.690 291.815, 225.110 287.254 C 227.975 284.843, 228.135 284.345, 227.719 279.093 C 227.476 276.017, 226.341 269.225, 225.198 264 C 222.906 253.527, 221 240.636, 221 235.613 C 221 232.886, 221.562 232.103, 224.534 230.685 C 228.059 229.004, 233 228.407, 233 229.662 C 233 230.026, 231.889 232.219, 230.532 234.535 C 226.591 241.260, 226.278 246.004, 229.360 252.304 C 232.980 259.703, 239.034 264, 245.837 264 C 249.731 264, 251.513 263.439, 253.839 261.482 C 261.414 255.108, 268 236.565, 268 221.608 C 268 208.977, 264.325 203.595, 249.740 194.870 C 246.190 192.746, 246.023 192.422, 246.740 189.060 C 247.646 184.817, 247.515 170.228, 246.486 160.602 L 245.748 153.704 250.124 154.380 C 252.531 154.752, 256.750 155.825, 259.500 156.763 C 263.061 157.979, 267.810 158.475, 276 158.485 C 287.008 158.499, 287.762 158.363, 293.620 155.301 C 305.010 149.348, 311.369 139.071, 311.197 126.896 C 311.104 120.351, 308.796 115.011, 303.031 108 C 297.196 100.904, 294 93.798, 294 87.921 C 294 85.711, 295.175 84.248, 299.732 80.784 C 306.287 75.802, 310.956 67.891, 310.983 61.719 C 311.004 56.977, 309.509 56.319, 302.523 57.994 C 297.762 59.137, 296.829 59.074, 293.458 57.384 C 291.387 56.346, 288.797 53.906, 287.687 51.948 L 285.673 48.396 290.335 38.685 C 295.607 27.701, 300 15.753, 300 12.397 C 300 11.157, 299.293 9.436, 298.429 8.571 C 295.677 5.820, 291.612 6.705, 285.360 11.417 M 288.580 18.917 C 286.461 21.129, 285.978 22.354, 286.534 24.106 C 287.201 26.209, 287.463 26.002, 289.700 21.602 C 291.041 18.963, 291.961 16.628, 291.746 16.413 C 291.530 16.197, 290.106 17.324, 288.580 18.917 M 278.061 28.386 C 276.641 31.039, 277.097 34.384, 279.284 37.375 C 280.574 39.138, 280.790 39.021, 282.925 35.403 C 285.024 31.845, 285.080 31.367, 283.666 29.028 C 281.613 25.634, 279.654 25.409, 278.061 28.386 M 233.920 31.132 C 231.400 31.694, 228.116 33.132, 226.621 34.327 L 223.903 36.500 232.756 36.521 C 241.079 36.540, 241.923 36.742, 246.838 39.896 C 251.983 43.197, 252.099 43.221, 254.141 41.375 C 255.282 40.344, 257.104 38.255, 258.188 36.733 L 260.161 33.965 256.582 32.470 C 251.966 30.541, 239.789 29.822, 233.920 31.132 M 109.548 35.230 C 107.228 40.784, 107.592 48.650, 110.500 55.808 C 114.545 65.762, 113.342 68.683, 107.294 63.594 C 103.068 60.038, 100.570 59.891, 100.191 63.175 C 99.933 65.402, 100.770 66.501, 105.191 69.742 C 108.111 71.883, 115 75.926, 120.500 78.725 C 131.242 84.193, 141.926 90.112, 144.832 92.206 C 145.820 92.918, 148.929 96.056, 151.742 99.181 L 156.856 104.862 157.455 98.181 C 157.785 94.506, 158.232 90.081, 158.449 88.346 C 158.804 85.502, 158.139 84.572, 151.672 78.871 C 138.342 67.121, 121.546 49.386, 118.082 43.403 C 116.202 40.156, 113.861 36.156, 112.880 34.512 L 111.097 31.525 109.548 35.230 M 204.956 38.750 C 201.401 46.208, 201.183 56.524, 204.370 66.465 C 206.299 72.479, 206.627 74.618, 205.712 75.199 C 204.038 76.263, 203 76.187, 203 75 C 203 74.450, 202.612 74, 202.138 74 C 201.664 74, 200.779 76.474, 200.172 79.499 C 198.566 87.493, 200.186 94.544, 206.720 108 C 216.745 128.646, 217.346 136.672, 209.798 149.111 C 208.259 151.646, 206.989 155.021, 206.976 156.611 C 206.824 174.501, 192.614 189.857, 175.776 190.327 C 170.562 190.472, 169.510 190.217, 169.207 188.735 C 169.009 187.764, 169.969 185.637, 171.339 184.009 C 176.591 177.767, 175.530 171.954, 166.938 159.913 C 164.055 155.872, 160.863 150.685, 159.846 148.385 C 157.950 144.099, 155.680 133.148, 154.481 122.500 C 152.695 106.645, 146.898 100.592, 120.590 87.109 C 101.402 77.275, 94.138 72.300, 80.622 59.732 C 74.867 54.379, 69.835 50, 69.442 50 C 69.048 50, 68.966 52.813, 69.260 56.250 C 70.138 66.532, 74.586 74.458, 85.736 85.608 C 90.958 90.830, 94.939 95.394, 94.582 95.751 C 94.226 96.108, 90.236 94.437, 85.717 92.039 C 69.600 83.487, 68.028 82.775, 66.523 83.353 C 64.497 84.130, 64.589 88.416, 66.705 91.785 C 72.503 101.020, 82.719 109.975, 93.350 115.139 C 99.673 118.211, 98.805 119.601, 90.895 119.073 C 77.015 118.146, 76.466 118.221, 76.808 121 C 77.488 126.527, 88.361 133.622, 102.935 138.049 C 111.717 140.716, 112.283 142.990, 104.490 144.288 C 98.357 145.310, 97.590 146.007, 99.055 149.222 C 101.165 153.852, 112.045 158, 122.081 158 C 126.595 158, 128.142 160.001, 125.597 162.546 C 120.851 167.291, 126.488 170.146, 140.078 169.878 C 147.584 169.731, 150.464 170.036, 151.519 171.090 C 154.512 174.085, 151.719 175.091, 138.908 175.630 C 123.996 176.257, 120.720 175.127, 117.526 168.250 C 116.239 165.479, 114.904 164, 113.690 164 C 112.666 164, 108.997 163.245, 105.536 162.323 L 99.243 160.647 96.275 163.073 C 84.291 172.873, 80.744 197.063, 88.626 215.236 C 92.331 223.777, 92.200 227.454, 87.957 234.071 C 84.513 239.443, 84.501 239.503, 84.703 250.283 C 84.876 259.476, 85.255 261.734, 87.220 265.302 L 89.532 269.500 97.525 269.787 C 108.980 270.197, 109.390 269.728, 106.787 259.190 C 104.207 248.751, 104.725 247.445, 113.741 241.666 C 117.478 239.271, 122.606 235.008, 125.137 232.192 C 129.520 227.318, 131.016 223.886, 135.611 208.167 C 135.826 207.434, 136.563 207.018, 137.251 207.244 C 139.287 207.913, 139.256 214.504, 137.183 221.830 C 135.265 228.608, 135.265 228.685, 137.196 229.890 C 143.036 233.537, 169.905 236.369, 179.832 234.384 C 182.864 233.777, 182.919 233.660, 183.207 227.134 C 183.466 221.264, 183.730 220.500, 185.500 220.500 C 187.310 220.500, 187.657 221.719, 189.156 233.349 C 190.067 240.416, 191.305 248.153, 191.906 250.542 C 192.508 252.931, 193 256.279, 193 257.983 C 193 262.602, 196.544 268.847, 199.601 269.615 C 202.939 270.452, 211.762 269.528, 215.135 267.988 L 217.769 266.784 216.422 261.142 C 214.301 252.262, 213.594 235.598, 214.911 225.500 C 216.469 213.554, 216.732 212.821, 219.336 213.192 C 221.266 213.467, 221.473 214.041, 221.246 218.500 L 220.993 223.500 225.555 218.500 C 235.926 207.134, 240.669 190.758, 239.633 169.891 C 238.752 152.164, 238.547 151.436, 233.909 149.580 C 228.263 147.321, 221.659 141.115, 223.080 139.404 C 223.987 138.310, 225.269 138.612, 230.121 141.061 C 233.459 142.746, 240.958 145.095, 247.276 146.434 C 253.449 147.743, 261.200 149.523, 264.500 150.391 C 267.800 151.259, 272.300 151.971, 274.500 151.973 L 278.500 151.978 275.222 149.395 C 271.537 146.490, 267.580 139.537, 268.399 137.403 C 269.293 135.073, 271.741 135.823, 272.794 138.750 C 274.128 142.458, 277.579 145.926, 281.610 147.610 C 286.291 149.566, 288.720 149.354, 293.462 146.575 C 299.320 143.142, 303.003 136.103, 302.991 128.365 C 302.981 122.074, 300.652 117.093, 293.667 108.423 C 290.736 104.784, 288.290 98.713, 286.580 90.825 L 286 88.150 275.250 88.175 C 258.293 88.214, 246.862 82.947, 233.805 69.079 C 229.787 64.812, 225.886 61.119, 225.136 60.872 C 224.385 60.626, 223.643 59.316, 223.487 57.962 C 222.741 51.521, 215.935 38.469, 211.819 35.586 C 208.362 33.164, 207.409 33.603, 204.956 38.750 M 269.750 36.543 C 267.114 40.057, 267.481 45.961, 270.540 49.260 C 271.938 50.767, 273.410 52, 273.813 52 C 274.216 52, 275.393 50.426, 276.429 48.502 C 278.190 45.233, 278.204 44.883, 276.649 43.164 C 275.734 42.153, 274.201 39.725, 273.242 37.768 L 271.500 34.210 269.750 36.543 M 228.173 41.872 C 224.486 44.210, 234.204 61.165, 244 69.485 C 250.804 75.264, 260.626 79.982, 267.951 80.991 C 274.885 81.946, 284.940 80.597, 290.365 77.983 L 294.500 75.991 290.408 76.482 C 285.230 77.103, 275.555 74.629, 271 71.517 C 269.075 70.202, 266.252 68.822, 264.727 68.449 C 263.201 68.076, 261.401 67.017, 260.727 66.095 C 260.052 65.173, 258.031 63.389, 256.235 62.130 C 252.540 59.541, 250 55.273, 250 51.653 C 250 45.375, 233.975 38.194, 228.173 41.872 M 205.934 46.250 C 204.307 48.847, 204.020 50.486, 204.504 54.406 C 205.191 59.966, 207.388 64.828, 209.595 65.675 C 212.063 66.622, 212.307 65.349, 210.612 60.376 C 208.618 54.522, 208.486 49, 210.341 49 C 211.079 49, 212.899 51.236, 214.387 53.969 C 217.420 59.543, 218.703 60.697, 220.201 59.199 C 222.419 56.981, 212.709 43, 208.951 43 C 208.412 43, 207.054 44.462, 205.934 46.250 M 259.250 46.062 C 256.494 49.436, 256.429 51.551, 258.956 55.696 C 262.498 61.504, 268.079 63.564, 269.592 59.621 C 269.892 58.838, 268.592 56.015, 266.702 53.349 C 264.811 50.682, 262.868 47.332, 262.382 45.904 L 261.500 43.307 259.250 46.062 M 189.567 52.162 C 182.919 55.667, 175.212 64.255, 171.540 72.250 C 161.512 94.088, 164.538 118.879, 179.737 139.389 C 182.228 142.750, 186.035 149.100, 188.197 153.500 C 191.902 161.042, 192.109 161.944, 191.806 169.254 C 191.494 176.788, 191.534 176.945, 193.222 174.754 C 198.116 168.401, 199.444 163.826, 199.391 153.500 C 199.328 140.992, 197.589 136.226, 188.715 124.238 C 181.505 114.497, 179.642 111.179, 176.890 103.181 C 174.472 96.152, 174.356 83.279, 176.650 76.428 C 178.984 69.458, 184.569 61.374, 189.614 57.667 C 192.428 55.598, 193.936 53.720, 193.961 52.250 C 193.982 51.013, 193.887 50.020, 193.750 50.044 C 193.613 50.069, 191.730 51.021, 189.567 52.162 M 278.081 60.691 C 276.387 63.250, 275 65.857, 275 66.486 C 275 70.737, 293.632 72.788, 298.139 69.033 C 300.362 67.181, 300.383 67.064, 298.500 67.024 C 295.019 66.949, 286.520 62.406, 283.790 59.163 L 281.162 56.039 278.081 60.691 M 189.725 63.937 C 185.194 67.915, 180.113 78.629, 179.365 85.779 C 178.259 96.365, 183.064 109.501, 191.529 119.033 C 197.177 125.392, 200.706 130.938, 203.548 137.924 C 205.562 142.874, 205.822 143.137, 206.521 140.934 C 207.663 137.337, 207.195 126.989, 205.710 123 C 204.994 121.075, 202.340 115.444, 199.813 110.488 C 191.563 94.304, 190.316 86.161, 194.122 73.318 C 196.172 66.401, 196.126 61, 194.016 61 C 193.495 61, 191.564 62.322, 189.725 63.937 M 237.477 91.766 C 235.805 92.965, 233 97.809, 233 99.496 C 233 100.358, 233.675 101.322, 234.500 101.638 C 235.325 101.955, 236.003 102.728, 236.006 103.357 C 236.009 103.986, 236.486 106.211, 237.067 108.302 C 239.183 115.924, 249.126 118.540, 255.234 113.082 C 258.180 110.450, 258.500 109.620, 258.500 104.605 C 258.500 99.955, 258.076 98.621, 255.907 96.453 C 252.495 93.040, 247.222 91.867, 243.095 93.602 C 240.284 94.784, 239.960 94.752, 240.214 93.321 C 240.535 91.508, 239.030 90.653, 237.477 91.766 M 109.073 98.635 C 107.933 100.084, 107.010 101.997, 107.022 102.885 C 107.058 105.527, 110.932 113.306, 113.606 116.104 L 116.094 118.708 113.547 120.377 C 108.075 123.963, 111.511 133.645, 120.045 138.686 C 122.565 140.174, 122.723 140.558, 121.520 142.275 C 117.408 148.145, 128.963 157.732, 137.551 155.576 C 139.658 155.048, 139.948 154.642, 139.019 153.523 C 138.383 152.756, 136.614 151.855, 135.090 151.520 C 131.289 150.685, 125.452 145.695, 126.428 144.116 C 126.850 143.434, 128.303 142.455, 129.657 141.940 C 131.012 141.425, 131.866 140.592, 131.555 140.089 C 131.244 139.585, 127.876 137.123, 124.071 134.616 C 114.417 128.256, 113.151 123.511, 121.412 124.643 C 128.226 125.577, 128.320 123.528, 121.739 117.570 C 114.029 110.591, 110.005 103.351, 112.856 101.589 C 114.576 100.526, 126.653 106.138, 132.285 110.617 C 139.441 116.308, 141.417 120.105, 145.580 136.167 C 150.039 153.370, 153.011 159, 157.636 159 C 159.954 159, 159.950 158.979, 156.542 152.750 C 154.661 149.313, 152.392 143.350, 151.499 139.500 C 146.851 119.459, 145.118 115.332, 138.806 109.268 C 133.779 104.438, 124.469 99.176, 117.973 97.493 C 110.771 95.627, 111.514 95.532, 109.073 98.635 M 237 97.500 C 237 98.325, 237.177 99, 237.393 99 C 237.609 99, 238.045 98.325, 238.362 97.500 C 238.678 96.675, 238.501 96, 237.969 96 C 237.436 96, 237 96.675, 237 97.500 M 245.534 99.945 C 244.569 101.506, 245.839 103, 248.132 103 C 249.507 103, 250.040 102.448, 249.812 101.261 C 249.428 99.269, 246.507 98.370, 245.534 99.945 M 162.074 118 C 161.938 123.743, 164.021 137.124, 165.935 142.806 C 167.065 146.162, 170.447 152.516, 173.449 156.925 C 179.644 166.024, 181.445 171.345, 180.557 177.929 L 179.940 182.500 182.423 179.748 C 185.021 176.870, 186.985 171.340, 186.994 166.876 C 187.004 162.359, 184.479 156.806, 177.259 145.467 C 169.408 133.136, 165.275 125.389, 163.404 119.500 C 162.412 116.377, 162.121 116.048, 162.074 118 M 53.192 147.649 C 47.777 148.949, 46.056 149.974, 41.045 154.877 C 36.111 159.704, 34.872 161.666, 33.041 167.545 C 30.150 176.824, 30.349 183.253, 33.951 197 C 37.242 209.555, 37.775 217.609, 35.595 221.800 C 34.046 224.777, 30.332 228.441, 28 229.294 C 26.929 229.685, 27.072 229.864, 28.500 229.917 C 31.448 230.028, 36.692 226.497, 38.355 223.281 C 40.865 218.426, 41.171 211.929, 39.515 198.636 C 38.608 191.359, 38.201 183.758, 38.579 181.136 C 39.534 174.497, 43.345 166.960, 48.156 162.197 C 54.505 155.911, 58.116 154.511, 68 154.505 C 75.440 154.501, 77.111 154.845, 81.402 157.265 C 84.098 158.785, 86.482 159.851, 86.700 159.634 C 86.917 159.416, 84.721 157.162, 81.820 154.624 C 73.632 147.461, 63.871 145.083, 53.192 147.649 M 58 160.073 C 54.720 161.440, 50.341 165.613, 47.453 170.124 C 43.482 176.329, 42.697 184.064, 44.567 198.563 C 46.560 214.019, 45.971 220.191, 41.920 226.307 C 36.482 234.517, 24.919 237.273, 17.846 232.045 C 14.561 229.615, 14.400 229.910, 16.614 234.300 C 22.183 245.340, 32.330 248.907, 42.915 243.543 C 49.101 240.408, 53.332 234.649, 55.598 226.277 C 57.210 220.320, 57.267 218.227, 56.203 204.100 C 55.221 191.077, 55.260 187.622, 56.439 183.187 C 59.706 170.902, 68.092 164.903, 80.023 166.316 C 82.761 166.641, 85 166.589, 85 166.203 C 85 165.816, 83.312 164.150, 81.250 162.500 C 77.822 159.758, 76.769 159.480, 69 159.265 C 64.325 159.137, 59.375 159.500, 58 160.073 M 69.030 172.255 C 65.970 173.834, 62.347 179.090, 61.016 183.882 C 59.715 188.567, 59.743 193.052, 61.153 205.954 C 63.133 224.070, 59.223 237.204, 49.822 244.014 C 45.149 247.399, 46.213 247.952, 51.858 245.072 C 56.690 242.607, 62.533 236.139, 65.320 230.170 C 67.332 225.859, 67.500 223.958, 67.500 205.428 L 67.500 185.357 70.338 181.067 C 72.139 178.344, 74.602 176.178, 77.077 175.138 C 79.222 174.237, 80.835 173.050, 80.661 172.500 C 80.180 170.984, 71.834 170.808, 69.030 172.255 M 243 202.533 C 243 204.524, 238.380 213.629, 235.358 217.594 C 232.472 221.381, 232.429 222, 235.050 222 C 237.587 222, 243 224.717, 243 225.991 C 243 226.507, 242.286 229.033, 241.414 231.603 C 240.489 234.327, 240.212 236.531, 240.751 236.888 C 255.557 246.708, 255.425 246.701, 258.132 237.803 C 261.131 227.947, 261.314 215.703, 258.526 211.583 C 256.697 208.881, 245.764 201, 243.845 201 C 243.380 201, 243 201.690, 243 202.533 M 126.761 239.979 C 122.359 243.854, 122.255 244.082, 122.775 248.699 C 123.069 251.307, 124.257 255.254, 125.414 257.470 C 127.277 261.040, 127.973 261.532, 131.509 261.778 C 136.771 262.144, 144.557 259.805, 144.315 257.931 C 144.213 257.144, 143.392 254.484, 142.490 252.020 C 141.589 249.556, 140.603 245.448, 140.301 242.891 C 139.787 238.551, 139.501 238.167, 136.009 237.121 C 131.155 235.667, 131.934 235.426, 126.761 239.979 M 235.572 242.773 C 234.895 244.906, 236.353 250.364, 238.458 253.576 C 239.365 254.960, 241.436 256.179, 243.559 256.577 C 246.608 257.149, 247.563 256.835, 250.066 254.437 C 253.066 251.562, 253.907 249, 251.850 249 C 251.218 249, 247.578 247.200, 243.762 245 C 239.946 242.800, 236.669 241, 236.480 241 C 236.290 241, 235.882 241.798, 235.572 242.773 M 140.500 265.570 C 137.750 266.335, 134.026 266.970, 132.224 266.981 L 128.949 267 130.444 269.892 C 132.735 274.322, 140.426 276.309, 146.435 274.025 C 147.995 273.432, 149 272.275, 149 271.072 C 149 268.814, 146.975 263.955, 146.089 264.089 C 145.765 264.139, 143.250 264.805, 140.500 265.570 M 216.659 273.149 C 215.646 273.728, 211.258 274.446, 206.909 274.744 C 202.559 275.042, 199 275.417, 199 275.578 C 199 275.738, 199.431 277.003, 199.957 278.387 C 201.225 281.723, 206.287 284.222, 211.929 284.297 C 220.156 284.407, 222.638 281.375, 219.705 274.798 C 218.703 272.551, 218.191 272.273, 216.659 273.149 M 108.715 273.618 C 107.405 274.929, 98.377 275.800, 94.139 275.025 C 89.871 274.245, 89.847 274.257, 90.483 276.870 C 90.835 278.316, 92.230 280.625, 93.584 282 C 95.713 284.162, 96.931 284.500, 102.603 284.500 C 110.057 284.500, 112.447 282.746, 111.344 278.088 C 110.491 274.491, 109.510 272.823, 108.715 273.618" stroke="none" fill="black" fill-rule="evenodd"/>
</svg>