<svg xmlns="http://www.w3.org/2000/svg" width="298" height="295" viewBox="0 0 298 295" version="1.1">
	<path d="M 146.758 7.386 C 145.800 8.114, 143.265 12.037, 141.126 16.104 C 138.986 20.172, 134.932 27.473, 132.118 32.329 C 129.303 37.185, 127 41.356, 127 41.599 C 127 41.841, 125.790 43.943, 124.312 46.270 C 122.833 48.596, 120.189 53.200, 118.434 56.500 C 116.680 59.800, 112.111 67.900, 108.281 74.500 C 95.274 96.912, 93.075 101.382, 94.130 103.268 C 94.663 104.221, 96.090 105.007, 97.300 105.015 C 102.352 105.050, 102.231 103.953, 101.853 146.370 C 101.524 183.305, 101.381 185.994, 99.750 185.997 C 98.347 185.999, 98 185.124, 98 181.582 C 98 174.095, 97.874 174, 88.010 174 C 79.353 174, 79.226 173.965, 78.736 171.400 C 78.009 167.594, 78.864 165.383, 81.537 164.165 C 85.893 162.181, 87.247 157.705, 87.473 144.543 C 87.587 137.919, 87.320 131.505, 86.880 130.289 C 86.396 128.953, 84.800 127.746, 82.848 127.240 C 79.962 126.493, 78.966 125.127, 73.517 114.452 C 70.162 107.878, 63.498 94.839, 58.708 85.476 C 51.154 70.709, 50 67.782, 50 63.393 C 50 60.051, 50.424 58.308, 51.250 58.259 C 61.541 57.649, 71.501 55.779, 75.641 53.680 C 84.547 49.164, 86.331 44.828, 79.818 43.525 C 77.993 43.160, 70.315 40.388, 62.756 37.364 C 54.614 34.107, 47.888 31.995, 46.256 32.183 L 43.500 32.500 43.234 50.972 C 42.951 70.665, 42.803 71.323, 35.688 84.500 C 32.688 90.057, 21.401 112.127, 19.323 116.500 C 15.207 125.161, 14.251 126.406, 10.833 127.555 L 7.500 128.676 7.219 142.057 C 6.909 156.852, 7.616 159.878, 12.132 163.094 L 15 165.136 15 225.961 C 15 280.503, 15.163 286.849, 16.582 287.393 C 17.452 287.727, 77.212 288, 149.382 288 C 250.107 288, 280.879 287.721, 281.800 286.800 C 282.707 285.893, 283 270.867, 283 225.300 C 283 186.020, 283.346 165, 283.994 165 C 284.540 165, 286.277 163.220, 287.852 161.045 C 290.517 157.367, 290.753 156.273, 291.233 145.399 C 291.860 131.181, 291.350 128.819, 287.405 127.687 C 284.165 126.758, 283.492 125.778, 275.260 110 C 251.837 65.108, 252.735 67.022, 253.346 63.257 C 253.666 61.286, 254.316 59.284, 254.791 58.809 C 255.266 58.334, 260.133 57.557, 265.607 57.081 C 284.235 55.463, 295.050 46.791, 282.991 43.140 C 280.521 42.393, 273.325 39.742, 267 37.250 C 260.675 34.759, 253.700 32.670, 251.500 32.610 L 247.500 32.500 247.216 50.500 L 246.932 68.500 232.244 97.750 C 218.534 125.054, 217.380 127, 214.901 127 C 210.261 127, 209.823 128.627, 210.175 144.562 L 210.500 159.239 214.750 162.897 C 219.173 166.703, 220.343 170.641, 217.703 172.832 C 216.989 173.424, 212.827 174.042, 208.453 174.204 L 200.500 174.500 200.200 180.250 C 199.942 185.194, 199.625 186, 197.939 186 C 196.018 186, 195.983 185.158, 196.239 145.750 L 196.500 105.500 199.676 105.192 C 204.189 104.755, 205.617 102.730, 203.866 99.248 C 202.646 96.820, 196.505 86.086, 193.999 82 C 193.493 81.175, 191.205 77.125, 188.914 73 C 181.123 58.969, 179.699 56.502, 176.349 51.231 C 174.507 48.332, 173 45.699, 173 45.379 C 173 45.060, 170.019 39.556, 166.375 33.149 C 162.731 26.742, 158.861 19.925, 157.776 18 C 150.741 5.524, 150.067 4.874, 146.758 7.386 M 142.500 28.682 C 139.200 34.538, 135.590 40.943, 134.477 42.915 C 133.365 44.887, 130.778 49.337, 128.727 52.804 C 126.677 56.271, 125 59.265, 125 59.458 C 125 59.650, 123.375 62.664, 121.389 66.154 C 119.404 69.644, 115.950 75.875, 113.715 80 C 111.480 84.125, 108.604 89.179, 107.325 91.230 C 104.438 95.862, 104.428 96.614, 107.250 97.370 C 110.022 98.113, 194 98.208, 194 97.468 C 194 97.175, 190.933 91.438, 187.183 84.718 C 183.434 77.998, 180.042 71.825, 179.644 71 C 179.247 70.175, 178.373 68.600, 177.703 67.500 C 174.948 62.978, 167 48.753, 167 48.344 C 167 48.102, 165.531 45.563, 163.736 42.702 C 161.941 39.841, 159.164 35.025, 157.564 32 C 155.965 28.975, 153.608 25.108, 152.328 23.406 C 151.048 21.704, 150 19.791, 150 19.156 C 150 16.333, 148.095 18.752, 142.500 28.682 M 48.882 41.775 C 48.746 46.020, 48.862 47.603, 49.529 50.678 C 49.963 52.678, 50.469 52.817, 55.751 52.381 C 62.969 51.787, 74.141 49.036, 73.507 48.011 C 73.244 47.586, 72.010 47.003, 70.765 46.715 C 69.519 46.426, 65.125 44.757, 61 43.005 C 47.846 37.419, 49.016 37.538, 48.882 41.775 M 253.681 41.579 C 253.395 43.341, 253.410 46.640, 253.715 48.911 C 254.247 52.880, 254.390 53.022, 257.384 52.570 C 259.098 52.311, 262.975 51.826, 266 51.491 C 269.025 51.157, 273.463 50.393, 275.863 49.795 L 280.226 48.706 275.863 47.245 C 273.463 46.442, 270.695 44.933, 269.711 43.892 C 268.727 42.852, 267.152 41.985, 266.211 41.967 C 265.270 41.949, 262.183 41.134, 259.350 40.155 L 254.201 38.375 253.681 41.579 M 34.506 102.593 C 27.946 115.418, 22.786 126.062, 23.039 126.246 C 23.293 126.430, 24.850 127.021, 26.500 127.560 C 29.264 128.462, 29.524 128.950, 29.802 133.769 C 30.078 138.537, 30.317 139, 32.500 139 C 34.685 139, 34.922 138.538, 35.198 133.750 L 35.500 128.500 46.486 128.500 C 55.498 128.500, 57.508 128.770, 57.670 130 C 58.744 138.175, 59.095 139, 61.493 139 C 63.684 139, 63.922 138.541, 64.198 133.783 C 64.484 128.849, 64.677 128.515, 67.750 127.638 C 69.537 127.128, 70.995 126.438, 70.989 126.105 C 70.984 125.772, 68.961 121.675, 66.495 117 C 64.029 112.325, 60.269 104.900, 58.139 100.500 C 56.009 96.100, 52.504 89.524, 50.350 85.887 L 46.434 79.274 34.506 102.593 M 247.299 84.774 C 246.089 87.373, 240.823 97.809, 235.597 107.965 L 226.096 126.430 229.298 127.465 C 232.301 128.436, 232.519 128.827, 232.802 133.750 C 233.093 138.805, 233.212 139, 236 139 C 238.788 139, 238.907 138.805, 239.198 133.750 L 239.500 128.500 245.353 127.773 C 248.572 127.373, 253.519 127.379, 256.346 127.786 L 261.485 128.525 262.319 133.763 C 263.059 138.409, 263.426 139, 265.576 139 C 267.845 139, 268 138.651, 268 133.545 C 268 128.103, 268.008 128.089, 271.500 127.434 C 273.425 127.073, 275 126.636, 275 126.464 C 275 126.292, 272.018 120.380, 268.373 113.325 C 264.728 106.271, 260.621 98.250, 259.247 95.500 C 255.770 88.542, 250.684 79.995, 250.039 80.024 C 249.742 80.037, 248.510 82.174, 247.299 84.774 M 108.689 106.368 C 107.836 108.592, 107.517 171.410, 108.353 172.761 C 108.878 173.612, 112.240 174, 119.090 174 C 130.184 174, 129.939 173.840, 130.284 181.302 C 130.486 185.691, 130.673 185.987, 133.250 185.993 C 135.836 186, 136 185.737, 136 181.582 C 136 173.895, 135.824 174, 148.638 174 C 161.341 174, 161.058 173.839, 161.337 181.197 C 161.485 185.100, 161.756 185.529, 164.250 185.816 C 166.888 186.120, 167 185.951, 167 181.648 C 167 173.954, 166.930 174, 178.607 174 L 189 174 189 139.500 L 189 105 149.107 105 C 116.286 105, 109.121 105.242, 108.689 106.368 M 140.898 119.263 C 134.787 123.334, 133.500 127.549, 133.500 143.500 L 133.500 157.500 149 157.500 L 164.500 157.500 164.819 146.500 C 165.320 129.208, 163.066 122.186, 155.800 118.405 C 151.640 116.241, 144.849 116.632, 140.898 119.263 M 142.940 124.763 C 140.176 127.232, 139.740 128.417, 138.833 135.916 C 138.275 140.531, 138.112 146.262, 138.471 148.653 L 139.123 153 148.954 153 C 160.377 153, 160.003 153.350, 159.994 142.668 C 159.987 133.531, 158.543 128.389, 154.983 124.829 C 151.258 121.105, 147.059 121.082, 142.940 124.763 M 42.504 135.250 C 42.265 135.938, 41.942 138.298, 41.785 140.496 L 41.500 144.492 36.149 145.338 C 25.964 146.949, 22 144.735, 22 137.435 C 22 135.261, 21.571 135, 18 135 L 14 135 14 144.826 C 14 159.845, 12.028 159, 47.092 159 C 70.873 159, 75.910 158.751, 77.713 157.488 C 79.652 156.131, 79.904 154.907, 80.186 145.486 L 80.500 134.996 76 135.001 L 71.500 135.006 71.449 139.071 C 71.419 141.485, 70.809 143.508, 69.949 144.053 C 69.152 144.557, 64.836 144.976, 60.357 144.985 C 51.285 145.002, 51 144.786, 51 137.918 C 51 134.009, 50.991 134, 46.969 134 C 44.641 134, 42.754 134.528, 42.504 135.250 M 248.206 134.711 C 246.459 135.046, 246.060 135.614, 246.531 137.098 C 246.871 138.169, 246.869 140.322, 246.526 141.883 C 245.920 144.640, 245.672 144.740, 237.827 145.394 C 231.233 145.944, 229.295 145.768, 227.258 144.433 C 225.112 143.027, 224.837 142.255, 225.287 138.900 L 225.810 135 221.905 135 L 218 135 217.800 142.250 C 217.479 153.904, 217.692 155.333, 220.033 157.228 C 222.013 158.831, 224.930 159, 250.656 159 L 279.091 159 281.545 156.545 C 283.809 154.282, 284 153.347, 284 144.545 L 284 135 279.724 135 L 275.447 135 275.810 138.806 C 276.050 141.322, 275.668 143.030, 274.683 143.848 C 273.019 145.229, 258.222 145.873, 256.243 144.650 C 255.524 144.206, 255 141.801, 255 138.941 C 255 133.633, 254.728 133.463, 248.206 134.711 M 26 166 L 22.500 166.500 22.207 221.500 C 22.046 251.750, 22.167 277.512, 22.476 278.750 L 23.038 281 47.510 281 L 71.981 281 71.974 223.962 C 71.969 179.623, 71.693 166.834, 70.734 166.515 C 68.830 165.883, 29.951 165.436, 26 166 M 242.750 165.700 L 226 166.048 226 223.524 L 226 281 250.500 281 L 275 281 275 223.500 L 275 166 271.640 166 C 269.791 166, 266.304 165.854, 263.890 165.676 C 261.475 165.498, 251.963 165.508, 242.750 165.700 M 78.443 185.531 C 78.069 188.023, 78.034 209.510, 78.364 233.281 C 78.694 257.051, 78.972 277.512, 78.982 278.750 C 79 280.967, 79.191 281, 92 281 L 105 281 105.007 267.250 C 105.015 251.630, 106.853 237.627, 109.772 230.945 C 115.487 217.863, 129.208 207.618, 142.608 206.429 C 160.027 204.883, 175.942 211.775, 184.340 224.500 C 190.314 233.553, 191.318 238.309, 191.940 260.500 L 192.500 280.500 205.767 280.779 L 219.033 281.058 218.982 230.980 L 218.930 180.902 213.215 181.201 L 207.500 181.500 207 187 L 206.500 192.500 196.500 192.500 L 186.500 192.500 186 187 L 185.500 181.500 180.250 181.198 L 175 180.895 175 186.429 C 175 193.007, 174.526 193.259, 162.988 192.799 C 155.831 192.513, 155.488 192.389, 155.230 190 C 154.245 180.866, 154.339 181, 148.955 181 C 144.067 181, 143.998 181.044, 143.829 184.250 C 143.531 189.909, 143.442 190.475, 142.654 191.751 C 141.846 193.059, 127.632 193.563, 124.582 192.393 C 123.410 191.943, 123 190.388, 123 186.393 L 123 181 118 181 L 113 181 113 185.800 C 113 188.440, 112.460 191.140, 111.800 191.800 C 109.954 193.646, 93.584 193.408, 92.011 191.513 C 91.332 190.695, 91.039 189.340, 91.361 188.502 C 91.683 187.664, 91.677 185.633, 91.348 183.989 C 90.766 181.082, 90.591 181, 84.936 181 L 79.123 181 78.443 185.531 M 41 183.294 C 36.774 185.431, 35.530 189.437, 35.171 202.062 C 34.910 211.216, 35.142 213.873, 36.284 214.821 C 38.540 216.693, 55.625 216.803, 57.471 214.957 C 58.421 214.008, 59.178 210.432, 59.581 204.988 C 60.121 197.715, 59.900 195.678, 58.037 190.759 C 56.841 187.601, 54.894 184.338, 53.709 183.509 C 51.095 181.678, 44.418 181.565, 41 183.294 M 245.001 183.752 C 243.077 184.713, 240.829 186.850, 240.006 188.500 C 238.037 192.447, 237.290 212.440, 239.033 214.540 C 239.959 215.656, 242.800 216, 251.087 216 C 260.461 216, 262.059 215.759, 262.883 214.219 C 264.236 211.690, 263.034 192.100, 261.317 188.706 C 259.624 185.360, 254.464 182.008, 251 182.005 C 249.625 182.004, 246.926 182.790, 245.001 183.752 M 42.273 189.703 C 40.982 191.670, 40.406 194.935, 40.153 201.703 L 39.807 211 46.820 211 C 51.509 211, 53.992 210.586, 54.311 209.750 C 54.574 209.063, 54.546 204.900, 54.250 200.500 C 53.605 190.924, 51.485 187, 46.955 187 C 44.898 187, 43.527 187.792, 42.273 189.703 M 247.736 188.250 C 245.090 190.259, 244 194.583, 244 203.065 L 244 211 251 211 L 258 211 258 204.125 C 258 195.278, 257.237 191.632, 254.850 189.069 C 252.658 186.716, 250.138 186.426, 247.736 188.250 M 140 212.877 L 137.500 213.590 137.237 247.295 L 136.973 281 141.487 281 L 146 281 146.163 253.250 C 146.253 237.988, 146.355 222.575, 146.390 219 C 146.459 211.926, 145.742 211.239, 140 212.877 M 152.028 212.683 C 152.043 213.132, 151.954 224.300, 151.831 237.500 C 151.708 250.700, 151.695 265.887, 151.803 271.250 L 152 281 156.500 281 L 161 281 161 247.608 L 161 214.217 158.250 213.561 C 156.738 213.200, 154.713 212.671, 153.750 212.385 C 152.787 212.099, 152.012 212.233, 152.028 212.683 M 127.165 219.591 L 122.970 223.182 123.235 251.841 L 123.500 280.500 127.750 280.807 L 132 281.115 132 248.557 C 132 230.651, 131.856 216, 131.680 216 C 131.504 216, 129.472 217.616, 127.165 219.591 M 166 249 L 166 281 170.500 281 L 175 281 175 252.616 L 175 224.233 170.997 220.616 C 168.796 218.627, 166.771 217, 166.497 217 C 166.224 217, 166 231.400, 166 249 M 115.628 234 C 113.418 239.313, 112.367 252.467, 112.811 269.250 C 113.099 280.170, 113.260 281, 115.092 281 C 116.176 281, 117.282 280.429, 117.550 279.731 C 117.817 279.033, 117.916 267.446, 117.768 253.981 L 117.500 229.500 115.628 234 M 180.063 255.750 L 180 281 182.500 281 L 185 281 184.988 263.250 C 184.980 251.288, 184.527 243.870, 183.598 240.500 C 180.357 228.744, 180.129 229.731, 180.063 255.750" stroke="none" fill="black" fill-rule="evenodd"/>
</svg>