<svg xmlns="http://www.w3.org/2000/svg" width="338" height="253" viewBox="0 0 338 253" version="1.1">
	<path d="M 148 8.959 C 118.371 14.381, 97.322 24.827, 76.386 44.500 C 62.439 57.606, 50.759 76.685, 43.131 98.823 C 39.726 108.704, 37.231 124.236, 36.634 139.257 C 36.214 149.815, 35.636 154.035, 34.146 157.403 C 33.078 159.817, 31.902 163.170, 31.532 164.855 C 30.979 167.373, 29.848 168.379, 25.180 170.510 C 18.243 173.675, 11.588 179.976, 8.820 186 C 5.888 192.381, 5.878 206.625, 8.800 213 C 11.724 219.379, 19.112 226.693, 25.792 229.825 C 30.950 232.242, 32.560 232.491, 42.500 232.411 C 51.281 232.340, 54.408 231.913, 58 230.290 L 62.500 228.258 67.500 232.461 C 85.924 247.947, 108.845 250.191, 129.152 238.494 L 136.804 234.087 140.739 235.988 C 147.546 239.277, 153.610 240.294, 163.308 239.772 C 173.745 239.211, 178.710 237.336, 186.248 231.107 C 190.875 227.283, 191.014 227.241, 194.726 228.566 C 202.862 231.468, 214.518 229.685, 222.198 224.363 C 226.352 221.484, 232.474 212.944, 233.600 208.457 C 234.080 206.543, 234.665 206.067, 235.873 206.604 C 245.511 210.891, 251.962 212.357, 261 212.316 C 272.027 212.265, 277.321 210.429, 285.011 203.991 L 289.741 200.031 295.120 201.630 C 306.352 204.970, 317.967 201.716, 324.919 193.282 C 328.113 189.408, 331 181.318, 331 176.245 C 331 168.713, 325.222 159.527, 318.016 155.605 C 314.654 153.776, 313.011 152.169, 312.537 150.246 C 311.651 146.660, 306.378 138.442, 303.520 136.194 C 301.620 134.700, 301 132.496, 299.514 121.963 C 291.156 62.708, 246.056 16.956, 187.720 8.553 C 174.095 6.590, 160.164 6.733, 148 8.959 M 150.500 15.595 C 149.400 15.858, 144.450 17.027, 139.500 18.194 C 115.250 23.907, 94.892 35.561, 78.970 52.846 C 68.894 63.784, 64.692 69.662, 58.843 81 C 49.169 99.754, 45.317 113.180, 44.356 131.500 C 43.731 143.422, 43.809 144.389, 45.297 143.161 C 46.189 142.424, 49.975 140.796, 53.710 139.541 L 60.500 137.261 61.306 131.881 C 64.239 112.296, 72.318 88.944, 78.590 81.921 C 79.365 81.053, 80 79.992, 80 79.563 C 80 76.701, 97.182 58.836, 107.124 51.361 C 113.506 46.562, 132.335 38.318, 143.500 35.433 C 153.216 32.923, 156.193 32.598, 169 32.652 C 176.975 32.686, 185.300 33.175, 187.500 33.739 C 207.025 38.745, 217.288 43.111, 231.126 52.295 C 238.641 57.284, 250.767 69.916, 257.240 79.500 C 263.317 88.497, 271.531 107.104, 273.250 115.766 C 273.956 119.324, 275.675 123.303, 277.779 126.250 C 281.170 130.999, 281.172 131, 287.085 131 C 290.404 131, 293 130.556, 293 129.989 C 293 125.582, 289.387 108.349, 286.877 100.783 C 279.203 77.656, 268.441 61.551, 248.599 43.500 C 240.780 36.386, 225.205 27.323, 212 22.202 C 198.429 16.938, 191.436 15.770, 171.500 15.436 C 161.050 15.260, 151.600 15.332, 150.500 15.595 M 156 37.652 C 125.239 43.832, 106.049 54.792, 88.853 76.002 C 84.598 81.250, 75.532 96.748, 74.035 101.333 C 67.848 120.287, 65.347 135.340, 68.097 137.081 C 70.884 138.845, 72.856 137.922, 75.334 133.692 C 76.723 131.323, 79.844 127.555, 82.270 125.318 C 86.448 121.468, 89.985 115.031, 90.013 111.230 C 90.020 110.278, 91.375 106.839, 93.024 103.586 C 105.004 79.961, 124.575 64.181, 149.500 58.048 C 172.822 52.309, 195.686 56.998, 218 72.096 C 230.048 80.248, 243.511 97.947, 246.391 109.422 C 246.888 111.401, 247.673 112.003, 249.769 112.012 C 252.236 112.023, 258.798 113.514, 264.750 115.416 C 267.911 116.426, 267.664 114.444, 263.204 102.989 C 257.846 89.229, 249.980 77.022, 240 66.978 C 232.993 59.926, 219.732 49.720, 215.500 48.122 C 214.950 47.915, 212.161 46.694, 209.302 45.410 C 204.006 43.031, 198.439 41.228, 189.500 38.999 C 184.359 37.717, 160.460 36.756, 156 37.652 M 155.500 61.588 C 130.790 67.468, 114.626 78.487, 102.435 97.764 C 99.908 101.759, 96.767 107.767, 95.455 111.114 L 93.071 117.199 95.785 116.491 C 97.278 116.101, 102.193 115.022, 106.707 114.094 C 114.303 112.532, 115.103 112.127, 117.457 108.659 C 118.856 106.597, 120 104.434, 120 103.852 C 120 101.599, 132.140 91.065, 139.144 87.239 C 170.250 70.251, 209.506 82.953, 223.469 114.525 C 224.843 117.634, 226.313 120.002, 226.734 119.788 C 227.155 119.574, 230.672 117.847, 234.548 115.950 L 241.596 112.500 240.548 108.951 C 238.769 102.926, 229.896 89.816, 223.088 83.154 C 213.793 74.057, 205.749 69.201, 191 63.782 C 186.689 62.198, 182.473 61.691, 171.500 61.437 C 163.800 61.258, 156.600 61.326, 155.500 61.588 M 154.760 86.083 C 148.196 87.630, 137.374 93.759, 131.345 99.343 C 124.729 105.470, 120.035 112.715, 122.183 113.481 C 122.907 113.740, 126.362 114.975, 129.860 116.226 L 136.220 118.500 140.512 114.361 C 152.835 102.477, 172.091 99.759, 187.782 107.690 C 193.880 110.772, 202.014 119.981, 204.028 126.084 C 205.290 129.909, 205.431 130, 210.078 130 C 212.695 130, 215.446 130.234, 216.191 130.520 C 216.986 130.825, 218.300 129.762, 219.371 127.949 C 222.469 122.704, 220.326 116.470, 211.466 104.956 C 209.076 101.850, 206.032 98.596, 204.701 97.724 C 203.370 96.851, 201.623 95.480, 200.819 94.676 C 198.554 92.411, 189.041 87.844, 183.500 86.361 C 177.957 84.879, 160.582 84.710, 154.760 86.083 M 159.844 111.333 C 153.882 113.562, 147.404 117.735, 145.576 120.524 C 143.887 123.103, 143.915 123.186, 148.260 128.315 C 150.675 131.167, 153.448 134.872, 154.422 136.549 L 156.193 139.597 163.347 138.804 C 171.085 137.946, 177.296 138.513, 183.334 140.627 L 187.168 141.970 192.634 137.252 C 197.290 133.232, 198.007 132.160, 197.472 130.016 C 196.183 124.850, 188.256 116.289, 181.500 112.768 C 176.456 110.140, 165.057 109.384, 159.844 111.333 M 240.922 120.930 C 236.282 121.837, 229.654 127.212, 225.754 133.229 L 222.663 138 214.582 138.022 C 205.650 138.046, 200.193 139.897, 196.172 144.266 L 193.843 146.796 198.225 152.648 C 202.317 158.114, 204.515 162.525, 205.696 167.637 C 206.067 169.241, 207.216 169.939, 210.303 170.432 C 221.896 172.286, 231.217 180.771, 233.998 192.002 C 234.838 195.396, 235.964 197.062, 238.577 198.774 C 245.107 203.055, 251.644 205, 259.500 205 C 269.056 205, 276.087 202.405, 282.566 196.488 C 285.950 193.396, 288.128 192.127, 289.500 192.445 C 290.600 192.701, 294.200 193.677, 297.500 194.616 C 304.737 196.673, 308.909 196.078, 315.200 192.088 C 320.640 188.638, 323 184.366, 323 177.968 C 323 168.950, 319.322 163.816, 310.426 160.418 C 307.242 159.203, 305.828 158.041, 305.483 156.358 C 305.218 155.061, 304.788 152.961, 304.529 151.691 C 303.779 148.014, 299.786 142.779, 296.083 140.616 C 293.684 139.216, 290.246 138.497, 284.500 138.195 C 276.354 137.768, 276.323 137.756, 274.452 134.281 C 268.614 123.441, 255.264 118.125, 240.922 120.930 M 97.277 124.957 C 88.581 129.335, 84.183 133.646, 80.055 141.838 L 77.869 146.177 68.615 145.483 C 59.601 144.807, 59.200 144.870, 53.187 147.905 C 49.100 149.969, 46.180 152.285, 44.546 154.761 C 41.507 159.365, 39 166.300, 39 170.103 C 39 173.494, 36.297 175.515, 30.500 176.459 C 27.795 176.899, 25.149 178.375, 22.328 181.018 C 18.633 184.480, 17.060 186.749, 13.857 193.236 C 12.273 196.445, 12.981 202.825, 15.571 208.684 C 19.080 216.621, 25.562 221.898, 34.698 224.254 C 42.731 226.326, 48.695 225.595, 58.063 221.391 L 63.958 218.746 69.975 224.316 C 73.284 227.380, 79.340 231.542, 83.435 233.565 C 89.852 236.737, 92.112 237.315, 99.825 237.754 C 112.879 238.499, 120.932 235.804, 133.763 226.398 C 135.924 224.813, 136.350 224.902, 143.263 228.383 C 158.282 235.944, 171.401 234.088, 185.785 222.367 L 189.070 219.689 195.915 221.342 C 207.770 224.203, 217.821 220.762, 223.741 211.814 C 226.145 208.183, 226.500 206.668, 226.500 200.050 C 226.500 193.100, 226.208 191.999, 223.060 187.093 C 219.080 180.892, 212.274 177.026, 205.307 177.010 C 200.514 176.999, 198 174.497, 198 169.738 C 198 162.792, 190.258 152.983, 181.509 148.844 C 174.534 145.545, 165.558 145.025, 157.488 147.454 C 154.832 148.253, 152.287 148.677, 151.833 148.397 C 151.378 148.116, 150.049 145.661, 148.880 142.942 C 145.949 136.130, 135.948 126.893, 128.317 123.951 C 124.565 122.504, 119.483 121.550, 114 121.263 C 105.645 120.825, 105.360 120.888, 97.277 124.957" stroke="none" fill="black" fill-rule="evenodd"/>
</svg>