<svg xmlns="http://www.w3.org/2000/svg" width="344" height="253" viewBox="0 0 344 253" version="1.1">
	<path d="M 21.275 6.904 C 12.982 9.046, 6 18.227, 6 26.989 C 6 32.642, 10.217 45.766, 15.571 56.776 C 20.866 67.667, 24.961 80.274, 25.033 85.910 C 25.071 88.824, 28.290 104.776, 29.845 109.751 C 31.784 115.957, 39.221 128.124, 44.673 134.014 C 55.120 145.297, 69.321 153.431, 86.500 157.971 C 90.900 159.133, 95.331 160.335, 96.347 160.641 C 97.633 161.027, 96.242 161.878, 91.773 163.440 C 69.333 171.281, 54.822 187.738, 54.688 205.500 C 54.542 224.795, 70.242 241.847, 91.139 245.089 C 99.916 246.451, 110.481 245.570, 117.221 242.913 C 139.971 233.946, 159.223 208.577, 167.620 176.500 C 171.699 160.922, 168.859 139.500, 160.065 119.500 C 159.582 118.400, 158.435 115.475, 157.518 113 C 155.115 106.519, 145.631 88.843, 139.446 79.317 C 117.520 45.550, 83.589 18.899, 50.552 9.497 C 41.007 6.780, 26.669 5.510, 21.275 6.904 M 305.388 6.936 C 291.185 9.192, 271.302 17.720, 254.830 28.622 C 242.533 36.761, 219.274 59.405, 211.490 70.816 C 197.272 91.662, 188.583 108.175, 182.884 125.187 C 175.789 146.364, 174.348 161.449, 178.066 175.623 C 179.202 179.956, 180.573 185.268, 181.111 187.429 C 182.681 193.725, 190.846 208.791, 197.727 218.085 C 203.418 225.772, 212.711 234.535, 220.181 239.260 C 228.613 244.593, 243.147 247.074, 254.711 245.155 C 269.365 242.722, 282.311 232.402, 287.591 218.945 C 289.930 212.984, 290.202 211.121, 289.801 203.823 C 289.052 190.179, 283.367 181.025, 269.938 171.842 C 266.397 169.420, 260.018 166.103, 255.762 164.470 C 251.507 162.836, 248.019 161.230, 248.012 160.899 C 248.006 160.569, 251.488 159.524, 255.750 158.577 C 285.194 152.037, 304.868 136.206, 314.333 111.438 C 315.800 107.599, 317 103.503, 317 102.336 C 317 100.377, 318.360 92.704, 321.137 79 C 322.342 73.051, 326.459 62.458, 332.796 49 C 337.168 39.716, 338.773 30.252, 337.519 21.141 C 336.795 15.875, 333.251 11.215, 327.841 8.418 C 324.414 6.646, 312.266 5.844, 305.388 6.936 M 20.256 15.029 C 19.022 15.525, 17.080 17.409, 15.940 19.215 C 14.239 21.912, 13.959 23.574, 14.378 28.500 C 14.921 34.878, 18.305 44.963, 22.935 54 C 27.477 62.865, 30.660 72.797, 32.390 83.500 C 35.449 102.419, 36.249 105.524, 40.255 114 C 43.559 120.991, 45.802 124.023, 52.886 131.076 C 60.107 138.265, 63.036 140.390, 71 144.222 C 80.671 148.874, 92.074 152.012, 106.322 153.941 C 117.379 155.438, 117.619 155.224, 108.058 152.399 C 91.487 147.501, 76.428 140.258, 70.257 134.218 C 66.460 130.500, 65.924 129.459, 66.192 126.317 C 66.413 123.725, 67.300 122.103, 69.321 120.599 C 71.793 118.760, 73.529 118.500, 83.321 118.500 C 89.470 118.500, 95.968 118.827, 97.762 119.227 C 100.899 119.927, 100.764 119.695, 94.262 113.227 C 90.543 109.527, 85.475 104.111, 83 101.190 C 78.933 96.391, 77.921 95.762, 72.477 94.656 L 66.455 93.433 66.455 97.190 C 66.455 101.973, 64.011 103.926, 57.973 103.968 C 52.378 104.007, 46.861 100.557, 44.136 95.316 C 39.893 87.154, 49.494 82.132, 60.223 86.901 C 65.681 89.326, 75.281 91.117, 74.618 89.586 C 74.360 88.989, 73.159 86.025, 71.949 83 C 70.739 79.975, 69.437 76.853, 69.055 76.063 C 68.673 75.272, 65.687 73.472, 62.419 72.063 C 47.968 65.830, 37.204 57.020, 32.472 47.554 C 29.077 40.760, 29.214 35.911, 32.919 31.766 C 35.702 28.652, 36.156 28.505, 42.669 28.614 C 49.788 28.733, 54.673 30.269, 67 36.268 C 70.575 38.007, 74.850 40.390, 76.500 41.563 C 78.150 42.735, 80.698 44.326, 82.162 45.097 C 87.890 48.116, 110.559 70.012, 121.745 83.330 C 131.397 94.823, 146.675 118.462, 154.523 134.045 C 156.506 137.983, 158.349 140.985, 158.618 140.715 C 159.962 139.371, 147.940 109.171, 142.038 99.065 C 139.817 95.262, 138 91.882, 138 91.554 C 138 90.849, 128.384 76.891, 122.071 68.434 C 105.509 46.243, 70.925 22.247, 46.503 16.001 C 38.291 13.900, 24.347 13.384, 20.256 15.029 M 301 15.033 C 287.438 18.258, 267.022 28.339, 255 37.747 C 251.975 40.115, 247.250 43.799, 244.500 45.935 C 239.971 49.453, 236.777 52.675, 226.022 64.576 C 215.050 76.718, 204.308 94.524, 193.492 118.500 C 191.724 122.417, 185.992 140.664, 186.027 142.262 C 186.041 142.943, 188.100 139.450, 190.601 134.500 C 204.403 107.184, 218.132 87.920, 238.480 67.316 C 253.665 51.940, 261.245 45.727, 273.090 38.949 C 288.172 30.318, 300.151 26.887, 307.909 28.976 C 312.970 30.338, 315.003 33.208, 314.991 38.973 C 314.970 49.043, 303.665 61.253, 286.327 69.933 C 277.403 74.401, 276.314 75.250, 275.095 78.690 C 274.352 80.786, 272.902 84.272, 271.872 86.438 C 270.843 88.604, 270 90.456, 270 90.554 C 270 91.141, 282.221 87.765, 284.613 86.518 C 286.201 85.690, 290.036 85.010, 293.135 85.006 C 298.024 85.001, 298.984 85.326, 300.385 87.465 C 302.871 91.259, 302.366 94.630, 298.714 98.615 C 296.434 101.103, 293.909 102.586, 290.464 103.461 C 282.140 105.575, 277.425 102.459, 278.717 95.699 C 279.323 92.531, 279.656 92.594, 272.347 94.498 C 267.484 95.765, 265.895 96.803, 262.048 101.229 C 259.547 104.108, 254.910 109.131, 251.745 112.393 C 248.580 115.655, 246.170 118.503, 246.390 118.724 C 246.611 118.944, 250.442 118.624, 254.905 118.013 C 265.746 116.529, 273.590 117.868, 276.745 121.743 C 279.386 124.986, 279.454 125.668, 277.585 130.142 C 275.433 135.292, 267.740 140.975, 257.500 144.980 C 254.200 146.271, 251.002 147.705, 250.393 148.167 C 249.785 148.629, 244.385 150.345, 238.393 151.980 C 228.402 154.708, 227.997 154.907, 233.500 154.390 C 244.515 153.355, 264.439 149.004, 269.687 146.488 C 272.540 145.119, 275.148 144, 275.482 144 C 275.817 144, 279.389 141.774, 283.421 139.053 C 298.698 128.745, 307.535 114.214, 310.519 94.500 C 313.436 75.229, 314.962 69.814, 321.534 55.430 C 329.846 37.236, 331.007 33.811, 330.965 27.624 C 330.923 21.641, 329.494 18.623, 325.433 15.946 C 323.046 14.373, 320.825 14.031, 313.500 14.107 C 308.550 14.159, 302.925 14.575, 301 15.033 M 35.557 35.223 C 33.323 38.411, 33.606 40.567, 37.046 46.580 C 41.490 54.348, 53.854 64.052, 64.426 68.071 C 70.516 70.385, 70 70.358, 70 68.368 C 70 67.470, 70.919 65.249, 72.042 63.432 C 74.572 59.339, 79.523 57.547, 86.138 58.330 C 88.812 58.647, 91 58.741, 91 58.539 C 91 57.500, 77.470 47.680, 70.413 43.598 C 53.707 33.933, 38.944 30.386, 35.557 35.223 M 292 35.033 C 281.973 38.608, 268.118 46.776, 257 55.668 L 252.500 59.266 256 58.398 C 265.024 56.158, 272.532 59.300, 275.096 66.389 L 276.320 69.773 282.840 66.847 C 300.620 58.870, 314.333 42.735, 309.544 35.427 C 308.190 33.360, 307.178 33.005, 302.727 33.036 C 299.852 33.056, 295.025 33.955, 292 35.033 M 79.356 63.492 C 71.519 66.788, 72.596 77.677, 82.154 91.781 C 87.688 99.947, 106.203 119.134, 112.663 123.398 C 114.773 124.791, 119.425 128.039, 123 130.617 C 131.241 136.559, 157.150 152.184, 157.756 151.578 C 158.705 150.628, 143.019 122.601, 133.494 108.230 C 122.982 92.368, 120.496 89.104, 111.514 79.375 C 104.954 72.269, 101.500 69.396, 96.727 67.078 C 88.402 63.034, 83.065 61.933, 79.356 63.492 M 256.872 63.042 C 251.038 63.997, 248.795 65.177, 242.179 70.774 C 232.752 78.750, 215.327 100.863, 205.359 117.500 C 197.876 129.990, 186.958 152.230, 188.623 151.591 C 189.531 151.243, 194.825 148.205, 200.387 144.840 C 234.134 124.426, 253.025 108.068, 264.298 89.500 C 271.234 78.075, 272.740 70.011, 268.750 65.655 C 266.041 62.697, 263.031 62.035, 256.872 63.042 M 49.053 90.436 C 46.400 93.632, 52.147 99, 58.223 99 C 61.213 99, 62 98.620, 62 97.174 C 62 94.933, 58.466 91.499, 54.685 90.067 C 51.029 88.681, 50.479 88.717, 49.053 90.436 M 288.383 90.583 C 285.574 91.969, 283 95.538, 283 98.047 C 283 99.544, 289.788 99.161, 293.035 97.482 C 295.951 95.974, 297.786 92.081, 296.535 90.057 C 295.607 88.556, 292.024 88.787, 288.383 90.583 M 76.966 122.878 C 72.554 123.798, 71 124.737, 71 126.482 C 71 135.965, 113.264 152.077, 144.500 154.501 L 152.500 155.122 148.500 152.641 C 146.300 151.276, 142.354 148.886, 139.730 147.330 C 137.107 145.773, 132.157 142.567, 128.730 140.204 C 113.079 129.413, 109.324 127.353, 101.500 125.271 C 92.266 122.813, 82.053 121.817, 76.966 122.878 M 253 122.645 C 242.546 124.729, 234.049 128.388, 223.636 135.288 C 208.840 145.095, 202.366 149.201, 197.261 152.017 C 194.930 153.303, 193.188 154.521, 193.391 154.724 C 193.593 154.927, 198.605 154.600, 204.528 153.997 C 224.339 151.982, 253.616 143.145, 265.350 135.639 C 273.563 130.385, 275.958 126.118, 271.909 123.951 C 269.617 122.725, 256.981 121.852, 253 122.645 M 130 164.052 C 105.237 165.318, 87.832 170.769, 74.886 181.315 C 68.593 186.442, 63.084 196.071, 62.260 203.389 C 61.186 212.918, 68.926 227.083, 78.410 232.944 C 83.327 235.983, 93.597 239, 99.025 239 C 105.346 239, 116.185 235.593, 123.052 231.447 C 133.163 225.344, 143.830 212.519, 151.328 197.453 C 155.492 189.086, 161.681 171.347, 160.758 170.425 C 160.531 170.197, 158.144 173.233, 155.453 177.171 C 149.100 186.469, 136.269 199.982, 128.856 205.182 C 124.138 208.492, 123 209.822, 123 212.031 C 123 215.920, 115.844 226.227, 111.806 228.153 C 105.879 230.979, 102.783 231.194, 99.250 229.025 C 96.450 227.306, 96 226.471, 96 222.995 C 96 218.944, 98.984 212.918, 102.389 210.092 C 103.922 208.820, 103.925 208.575, 102.428 206.921 C 100.878 205.208, 100.623 205.260, 96.717 208.090 C 91.863 211.606, 83.197 214.339, 79.691 213.458 C 70.089 211.049, 70.514 198.311, 80.504 189.103 C 85.582 184.423, 90.774 182.781, 99.503 183.098 C 105.325 183.309, 106.192 183.050, 110.844 179.708 C 118.496 174.210, 127.402 169.995, 139 166.383 C 144.775 164.584, 148.375 163.157, 147 163.212 C 145.625 163.267, 137.975 163.645, 130 164.052 M 199 163.260 C 199 163.572, 202.037 164.803, 205.750 165.997 C 216.441 169.436, 225.987 173.892, 232.798 178.624 C 238.867 182.841, 239.368 183, 246.580 183 C 254.610 183, 258.942 184.329, 264.341 188.447 C 271.625 194.002, 274.824 206.623, 270.137 211.306 C 266.683 214.756, 259.401 214.096, 250.681 209.541 C 242.355 205.192, 239.995 205.953, 244.809 211.436 C 248.284 215.393, 250.463 221.960, 249.409 225.299 C 248.552 228.014, 245.240 231.002, 243.097 230.994 C 239.292 230.981, 233.677 228.655, 230.308 225.697 C 226.939 222.740, 222 213.748, 222 210.573 C 222 209.820, 220.238 208.145, 218.084 206.852 C 210.906 202.541, 199.763 190.900, 189.508 177 C 184.037 169.583, 184.013 170.158, 189.137 185.928 C 193.386 199.005, 201.668 212.626, 211.148 222.130 C 219.713 230.715, 224.509 233.844, 234 237.036 C 251.389 242.884, 272.901 233.613, 280.266 217.096 C 282.768 211.485, 282.382 197.436, 279.578 192.098 C 273.031 179.632, 253.922 169.384, 230 165.509 C 219.718 163.843, 199 162.341, 199 163.260 M 149.500 168.044 C 122.658 174.904, 104.401 187.076, 104.081 198.327 C 103.972 202.149, 108.828 207, 112.763 207 C 116.961 207, 126.606 201.815, 133.079 196.079 C 137.994 191.722, 157.657 167.252, 156.820 166.532 C 156.644 166.380, 153.350 167.061, 149.500 168.044 M 194.438 175.620 C 212.794 199.381, 226.460 209.342, 235.512 205.559 C 242.820 202.506, 242.189 194.284, 234.020 186.115 C 226.888 178.983, 205.324 169.215, 190.625 166.457 L 186.805 165.741 194.438 175.620 M 244.209 187.764 C 243.322 188.059, 243.296 188.685, 244.108 190.202 C 244.709 191.325, 245.496 194.311, 245.858 196.839 C 246.422 200.785, 247.092 201.821, 250.604 204.180 C 255.966 207.781, 263.470 209.833, 265.792 208.334 C 269.933 205.660, 266.213 196.161, 258.942 190.843 C 256.533 189.081, 246.529 186.990, 244.209 187.764 M 88.500 189.421 C 82.238 192.225, 76.424 201.081, 77.684 205.899 C 78.804 210.182, 85.174 209.382, 93.871 203.867 C 97.968 201.268, 98.530 200.421, 100.069 194.505 L 101.761 188 96.631 188.039 C 93.809 188.061, 90.150 188.683, 88.500 189.421 M 111.316 211.729 C 105.795 212.230, 101 216.874, 101 221.721 C 101 225.721, 102.839 226.724, 107.007 224.997 C 109.983 223.764, 117 216.800, 117 215.079 C 117 214.575, 117.273 213.452, 117.607 212.582 C 117.989 211.588, 117.710 211.065, 116.857 211.175 C 116.111 211.271, 113.617 211.520, 111.316 211.729 M 227 211.521 C 227 213.016, 232.108 220.754, 234.327 222.622 C 240.671 227.960, 246.253 226.328, 244.088 219.768 C 242.202 214.053, 238.367 211.297, 232.250 211.262 C 229.363 211.245, 227 211.362, 227 211.521" stroke="none" fill="black" fill-rule="evenodd"/>
</svg>