<svg xmlns="http://www.w3.org/2000/svg" width="243" height="312" viewBox="0 0 243 312" version="1.1">
	<path d="M 112.994 7.934 C 106.148 10.017, 97.006 17.936, 93.582 24.750 C 92.684 26.538, 91.736 28, 91.476 28 C 91.215 28, 87.739 26.335, 83.751 24.300 C 64.566 14.509, 52.253 21.842, 53.175 42.509 L 53.500 49.796 46.961 50.438 C 30.691 52.035, 18 63.942, 18 77.611 C 18 82.467, 22.603 95.782, 25.676 99.816 C 27.065 101.639, 28.044 103.214, 27.851 103.316 C 8.060 113.709, 2.860 122.976, 10.574 134.107 C 13.527 138.368, 20.077 142.856, 27.183 145.487 C 31.538 147.099, 31.801 147.393, 30.933 149.675 C 30.420 151.026, 30 155.308, 30 159.192 C 30 165.098, 30.518 167.306, 33.160 172.673 C 36.749 179.963, 40.123 183.200, 48 186.910 C 53.064 189.295, 54.530 189.495, 66.500 189.443 C 78.160 189.391, 80.190 189.111, 86.195 186.722 L 92.889 184.059 95.051 188.387 C 99.189 196.673, 110.592 206, 116.583 206 C 117.627 206, 117.998 207.383, 117.992 211.250 C 117.979 219.379, 116.145 233.588, 113.836 243.448 L 111.740 252.396 109.620 246.802 C 104.558 233.446, 92.721 221.434, 79.860 216.605 C 68.121 212.196, 50.153 210.837, 40.239 213.607 C 35.543 214.920, 36.572 220.846, 44.301 236.994 C 49.701 248.276, 60.072 258.843, 71 264.198 C 79.232 268.232, 83.007 269.372, 93.500 270.992 C 103.876 272.594, 103.966 272.639, 103.044 275.791 C 102.608 277.281, 100.419 281.963, 98.180 286.195 C 94.632 292.900, 94.227 294.306, 95.036 297.125 C 95.995 300.471, 96.513 301, 101.413 303.646 C 107.613 306.996, 116.965 302.905, 120.479 295.306 C 121.447 293.213, 123.334 289.279, 124.672 286.565 C 127.529 280.766, 131 270.786, 131 268.368 C 131 267.435, 131.712 265.058, 132.582 263.086 L 134.164 259.500 151.332 259.485 C 166.246 259.472, 169.378 259.183, 175.189 257.286 C 190.302 252.353, 201.103 244.366, 211.411 230.500 C 218.731 220.655, 221.226 215.870, 220.834 212.429 C 220.544 209.882, 219.823 209.275, 215.310 207.778 C 198.095 202.065, 175.100 203.455, 159.360 211.161 C 153.926 213.821, 144.584 221.913, 140.762 227.270 C 139.722 228.728, 139.500 226.529, 139.500 214.770 L 139.500 200.500 143.298 196.500 C 145.387 194.300, 148.214 190.636, 149.580 188.358 L 152.063 184.216 157.031 186.104 C 168.546 190.479, 182.524 191.443, 192.479 188.549 C 199.424 186.530, 207.193 180.321, 211.013 173.737 C 213.902 168.757, 214.036 168.034, 213.746 159 C 213.578 153.775, 213.098 148.789, 212.679 147.921 C 212.082 146.683, 212.845 146.064, 216.209 145.058 C 218.569 144.352, 221.694 142.925, 223.154 141.887 C 224.614 140.849, 226.264 140, 226.819 140 C 227.375 140, 229.620 137.967, 231.807 135.482 C 235.803 130.943, 237.580 125.889, 236.413 122.384 C 233.736 114.340, 230.386 110.647, 222 106.487 C 215.136 103.083, 215.379 103.350, 217.240 101.256 C 220.482 97.609, 223.772 90.273, 224.980 84 C 226.040 78.489, 225.996 76.611, 224.685 71.655 C 221.364 59.093, 213.643 52.666, 199.617 50.789 L 191 49.636 191 40.940 C 191 28.323, 188.742 23.879, 180.604 20.479 C 175.743 18.448, 169.620 19.605, 160.737 24.235 C 157.307 26.023, 154.232 27.616, 153.904 27.775 C 153.576 27.934, 152.107 26.248, 150.638 24.029 C 146.733 18.128, 138.582 10.801, 133.730 8.830 C 129.302 7.031, 117.621 6.527, 112.994 7.934 M 112 16.101 C 105.521 19.978, 101.124 25.150, 98.069 32.489 C 93.395 43.715, 91.684 58.720, 94.089 67.381 C 94.948 70.475, 94.880 71.548, 93.756 72.673 C 92.542 73.887, 91.653 73.607, 87.376 70.665 C 74.859 62.055, 61.317 57, 50.765 57 C 40.465 57, 30.509 62.453, 27.453 69.767 C 24.993 75.653, 26.149 86.895, 29.840 93 C 35.021 101.569, 46.792 110.302, 58.827 114.507 C 65.257 116.753, 66.686 116.881, 79.122 116.320 C 91.842 115.746, 92.807 115.840, 98.750 118.242 C 102.188 119.631, 105 120.355, 105 119.852 C 105 119.348, 101.467 115.350, 97.148 110.967 L 89.296 102.998 84.719 103.625 C 78.498 104.478, 75.797 103.620, 73.740 100.137 C 68.802 91.777, 75.479 83.023, 84.519 86.006 C 88.587 87.349, 91 90.820, 91 95.329 C 91 98.177, 91.661 99.186, 95.079 101.554 C 99.837 104.852, 106.494 112.041, 111.014 118.763 L 114.199 123.500 113.477 120 C 112.490 115.222, 107.638 100.549, 105.128 94.750 C 103.429 90.828, 102.618 90, 100.470 90 C 96.769 90, 94.260 88.404, 92.447 84.897 C 88.332 76.939, 97.208 68.845, 105.316 73.163 C 109.886 75.597, 111.225 80.216, 108.864 85.399 C 107.940 87.428, 108.095 88.691, 109.699 92.196 C 112.780 98.928, 117.575 113.519, 119.329 121.500 C 119.570 122.600, 119.820 112.813, 119.884 99.750 C 119.984 79.254, 119.794 76, 118.500 76 C 113.016 76, 110.869 65.040, 115.455 60.455 C 117.981 57.928, 124.008 57.084, 126.816 58.865 C 128.958 60.223, 131 64.982, 131 68.614 C 131 71.857, 128.224 76, 126.051 76 C 125.474 76, 125.180 85.193, 125.301 99.477 C 125.410 112.389, 125.577 122.626, 125.671 122.227 C 127.396 114.900, 131.943 99.974, 134.005 94.871 C 136.449 88.822, 136.558 88.004, 135.251 85.510 C 134.330 83.751, 134.051 81.539, 134.471 79.305 C 135.014 76.406, 135.848 75.513, 139.522 73.887 C 143.493 72.131, 144.255 72.080, 147.326 73.363 C 150.780 74.806, 153 78.763, 153 83.475 C 153 86.527, 149.038 89.905, 144.950 90.339 C 141.793 90.673, 141.305 91.188, 139.200 96.412 C 137.198 101.381, 132 118.088, 132 119.554 C 132 119.842, 134.066 117.473, 136.592 114.289 C 139.118 111.105, 143.902 106.002, 147.224 102.949 C 151.936 98.618, 153.320 96.683, 153.520 94.152 C 154.005 87.983, 161.283 83.559, 166.632 86.182 C 173.142 89.374, 174.458 95.605, 169.858 101.453 C 168.309 103.423, 166.950 104, 163.862 104 C 161.665 104, 158.943 103.505, 157.812 102.900 C 156.008 101.934, 155 102.549, 149.583 107.918 C 143.898 113.552, 139.047 120, 140.493 120 C 140.827 120, 142.539 119.213, 144.300 118.250 C 146.965 116.793, 150.258 116.489, 164 116.433 C 182.003 116.360, 186.311 115.402, 197.500 108.981 C 203.051 105.796, 211.883 97.129, 214.296 92.500 C 219.960 81.633, 219.151 70.298, 212.239 63.714 C 200.926 52.935, 178.149 55.781, 157.595 70.541 C 154.897 72.478, 152.197 73.895, 151.595 73.689 C 150.856 73.436, 150.618 69.430, 150.864 61.364 C 151.080 54.269, 150.726 46.993, 149.993 43.457 C 147.449 31.190, 140.331 20.363, 131.777 15.750 C 127.027 13.189, 116.557 13.375, 112 16.101 M 64.895 27.611 C 58.339 29.570, 58.170 52, 64.710 52 C 66.717 52, 82.126 58.827, 84.079 60.582 C 84.947 61.362, 85.847 62.001, 86.079 62.002 C 86.310 62.003, 86.362 59.415, 86.193 56.252 C 86.024 53.088, 86.547 47.390, 87.355 43.589 C 88.789 36.842, 88.772 36.633, 86.662 34.814 C 80.813 29.773, 69.826 26.138, 64.895 27.611 M 169.500 27.935 C 165.892 28.813, 161.355 31.228, 158.137 33.982 C 156.370 35.493, 155.903 36.698, 156.287 38.752 C 158.513 50.656, 158.827 53.543, 158.332 57.582 L 157.770 62.170 161.635 59.791 C 165.731 57.270, 178.694 52, 180.800 52 C 185.503 52, 184.809 30.574, 180.022 28.012 C 177.899 26.875, 173.970 26.847, 169.500 27.935 M 120.308 63.265 C 117.558 64.506, 116.716 66.601, 118.003 69.005 C 119.565 71.924, 122.926 72.518, 125.172 70.272 C 126.827 68.618, 126.936 67.953, 125.919 65.722 C 124.469 62.539, 123.174 61.972, 120.308 63.265 M 97.615 78.873 C 95.126 81.623, 97.022 85.253, 100.716 84.810 C 104.066 84.408, 105.893 81.644, 104.393 79.250 C 102.830 76.757, 99.688 76.582, 97.615 78.873 M 140.523 78.974 C 138.850 80.823, 138.842 81.109, 140.391 83.474 C 142.292 86.375, 144.183 86.674, 146.429 84.429 C 148.489 82.368, 148.414 80.684, 146.171 78.655 C 143.797 76.506, 142.701 76.568, 140.523 78.974 M 79.250 91.086 C 75.915 92.345, 76.106 97.636, 79.542 99.201 C 81.709 100.188, 82.390 100.055, 84.147 98.297 C 87.805 94.639, 84.139 89.240, 79.250 91.086 M 160.200 92.200 C 158.363 94.037, 158.772 97.808, 160.934 98.965 C 163.803 100.500, 164.786 100.256, 166.548 97.567 C 167.788 95.675, 167.896 94.675, 167.036 93.067 C 165.815 90.787, 162.086 90.314, 160.200 92.200 M 26.524 112.520 C 22.688 114.452, 18.541 117.263, 17.310 118.767 C 11.376 126.013, 17.043 134.313, 30.852 138.600 L 35.500 140.043 40 135.188 C 45.152 129.630, 55.004 122.013, 57.091 121.974 C 57.866 121.959, 55.116 120.462, 50.979 118.646 C 46.842 116.830, 41.487 113.917, 39.079 112.172 C 36.670 110.427, 34.430 109.001, 34.100 109.003 C 33.770 109.005, 30.361 110.587, 26.524 112.520 M 203.929 112.643 C 201.064 114.613, 196.083 117.116, 192.860 118.205 C 189.637 119.293, 187.009 120.480, 187.020 120.842 C 187.031 121.204, 189.263 122.820, 191.979 124.432 C 194.696 126.045, 199.707 130.178, 203.114 133.615 L 209.310 139.866 215.899 137.386 C 222.790 134.792, 227.582 131.094, 229.094 127.202 C 231.228 121.710, 225.224 115.173, 214.199 110.984 L 209.137 109.060 203.929 112.643 M 73.500 122.598 C 59.661 125.996, 45.427 136.413, 39.878 147.205 C 36.850 153.094, 36.666 164.937, 39.524 170 C 45.276 180.189, 59.418 185.688, 73.278 183.126 C 80.384 181.812, 92.082 176.471, 98.740 171.500 C 107.004 165.330, 114.147 154.594, 116.975 144.093 C 118.381 138.872, 117.078 136.959, 110.371 134.397 C 102.313 131.320, 93.761 133.854, 84.215 142.146 C 80.750 145.157, 77 145.931, 77 143.637 C 77 142.081, 85.401 133.938, 89.062 131.945 C 90.403 131.215, 94.163 129.880, 97.418 128.979 L 103.335 127.341 98.552 125.025 C 94.848 123.232, 91.705 122.641, 84.634 122.408 C 79.610 122.243, 74.600 122.328, 73.500 122.598 M 150.876 122.937 C 148.883 123.326, 145.733 124.617, 143.876 125.805 C 140.929 127.692, 140.781 127.968, 142.712 127.983 C 147.456 128.019, 156.120 132.257, 161.497 137.171 C 164.523 139.937, 167 142.606, 167 143.100 C 167 145.248, 162.553 143.667, 156.912 139.514 C 146.930 132.165, 136.664 130.968, 129.632 136.331 L 126.180 138.964 127.672 144.678 C 129.937 153.350, 133.236 159.021, 140.184 166.188 C 151.119 177.467, 164.822 183.458, 179.500 183.377 C 189.493 183.322, 196.521 180.545, 201.558 174.661 C 205.907 169.580, 207.388 164.243, 206.655 156.292 C 205.885 147.939, 203.361 143.424, 195.361 136.094 C 182.728 124.518, 166.846 119.821, 150.876 122.937 M 120.492 154.365 C 118.213 159.818, 109.652 171.256, 104.365 175.910 C 99.350 180.325, 99.279 181.346, 103.526 188 C 112.063 201.372, 127.769 202.778, 138.287 191.112 C 141.920 187.084, 145.827 180.374, 144.929 179.705 C 135.257 172.502, 128.665 164.793, 124.511 155.827 L 122.077 150.572 120.492 154.365 M 128.323 205.696 C 126.422 206.066, 126.072 206.967, 125.561 212.810 C 123.820 232.708, 120.717 251.720, 118.110 258.476 C 117.043 261.239, 114.948 266.875, 113.454 271 C 111.960 275.125, 108.787 282.157, 106.402 286.626 C 102.140 294.616, 102.100 294.781, 104.008 296.508 C 105.677 298.017, 106.370 298.090, 108.947 297.022 C 116.071 294.071, 127 263.662, 130.497 237.064 C 132.067 225.116, 132.544 204.901, 131.250 205.136 C 130.838 205.211, 129.520 205.463, 128.323 205.696 M 173.500 213.421 C 164.764 215.607, 158.749 219.127, 152.250 225.859 C 148.813 229.419, 146 232.692, 146 233.131 C 146 233.570, 144.686 235.856, 143.080 238.211 C 139.983 242.754, 139.839 244.295, 142.744 241.831 C 146.705 238.472, 158.024 232.125, 166 228.792 C 175.284 224.913, 189.436 222.036, 191.092 223.692 C 192.653 225.253, 190.260 226.513, 182.031 228.466 C 177.923 229.441, 172.748 231.034, 170.531 232.005 C 163.108 235.258, 159.515 236.978, 157.500 238.242 C 147.481 244.527, 142.244 248.169, 140.863 249.812 C 139.286 251.688, 139.392 251.782, 143.752 252.380 C 156.237 254.091, 171.122 251.918, 181.852 246.819 C 189.769 243.057, 200.922 232.645, 207.996 222.412 C 210.862 218.266, 213.048 214.737, 212.854 214.570 C 212.659 214.403, 208.994 213.757, 204.709 213.133 C 194.725 211.681, 179.908 211.818, 173.500 213.421 M 50.656 219.789 C 46.084 220.099, 45.847 220.253, 46.423 222.548 C 46.758 223.885, 48.468 228.021, 50.221 231.739 C 59.209 250.798, 71.754 259.935, 93.935 263.578 C 98.574 264.340, 102.527 264.806, 102.719 264.614 C 102.911 264.423, 101.320 262.054, 99.183 259.351 C 92.360 250.718, 81.068 242.420, 68.517 236.811 C 57.857 232.048, 62.187 228.949, 73.090 233.538 C 81.476 237.067, 90.033 242.954, 98.250 250.845 C 101.963 254.411, 105 257.076, 105 256.768 C 105 254.338, 98.399 240.906, 95.109 236.642 C 85.786 224.557, 69.786 218.491, 50.656 219.789" stroke="none" fill="black" fill-rule="evenodd"/>
</svg>