<svg xmlns="http://www.w3.org/2000/svg" width="327" height="243" viewBox="0 0 327 243" version="1.1">
	<path d="M 156.386 8.084 C 151.779 9.420, 145.024 15.889, 143.421 20.500 C 140.466 29, 142.696 38.422, 148.970 43.937 L 153.023 47.500 149.723 54 C 147.908 57.575, 144.240 64.550, 141.571 69.500 C 138.902 74.450, 134.902 82.100, 132.683 86.500 C 130.463 90.900, 127.791 95.744, 126.745 97.264 L 124.843 100.029 114.672 90.436 C 109.077 85.161, 104.146 80.214, 103.713 79.444 C 103.262 78.642, 103.582 76.775, 104.463 75.072 C 106.945 70.271, 106.459 63.290, 103.358 59.226 C 99.574 54.264, 93.311 51.695, 87.942 52.902 C 79.994 54.687, 73.891 63.675, 75.537 71.168 C 75.900 72.819, 78.151 76.210, 80.541 78.704 L 84.886 83.238 81.566 93.869 C 79.740 99.716, 77.723 106.410, 77.084 108.745 L 75.923 112.991 68.211 107.590 C 63.970 104.619, 56.900 99.729, 52.500 96.722 C 47.741 93.470, 44.651 90.697, 44.874 89.878 C 47.794 79.109, 46.505 71.641, 40.801 66.283 C 33.363 59.295, 18.146 59.486, 11.788 66.645 C 6.807 72.255, 5.602 82.482, 9.078 89.661 C 12.010 95.719, 15.994 98.701, 22.991 100.078 L 28.938 101.248 30.909 107.874 C 36.199 125.660, 40.458 142.598, 41.124 148.500 C 41.248 149.600, 40.596 152.944, 39.675 155.932 C 37.484 163.036, 37.562 166.367, 40.111 174.645 C 41.748 179.960, 43.172 182.398, 46.452 185.500 C 50.552 189.378, 50.716 189.778, 51.840 198.613 C 52.478 203.626, 53 209.329, 53 211.287 C 53 215.291, 56.472 220.158, 60.998 222.499 C 68.834 226.551, 92.619 231.159, 118 233.543 C 170.076 238.433, 227.249 234.879, 260.210 224.704 C 272.105 221.031, 273.955 218.178, 275.097 201.737 L 275.923 189.850 281.300 184.043 C 285.801 179.182, 286.866 177.293, 287.838 172.451 C 289.413 164.610, 289.266 161.455, 287.026 155 C 285.554 150.760, 285.319 148.584, 285.998 145.500 C 286.483 143.300, 287.627 137.900, 288.541 133.500 C 289.455 129.100, 290.572 124.375, 291.024 123 C 291.475 121.625, 293.053 116.450, 294.529 111.500 C 296.006 106.550, 297.577 102.112, 298.020 101.637 C 298.463 101.163, 300.979 100.372, 303.611 99.880 C 310.377 98.616, 314.626 95.389, 317.525 89.312 C 320.497 83.083, 320.690 77.261, 318.092 72.210 C 314.268 64.777, 307.943 61, 299.319 61 C 293.371 61, 288.941 63.035, 285.317 67.432 C 280.573 73.186, 279.383 77.949, 280.878 85.187 C 282.086 91.038, 282.054 91.275, 279.812 92.862 C 278.541 93.763, 276.150 95.495, 274.500 96.712 C 272.850 97.929, 269.250 100.507, 266.500 102.441 C 263.750 104.375, 259.269 107.535, 256.543 109.463 L 251.585 112.968 249.309 106.734 C 248.057 103.305, 247.026 100.045, 247.017 99.488 C 247.007 98.931, 245.861 94.886, 244.468 90.498 C 242.610 84.644, 242.262 82.413, 243.159 82.114 C 245.676 81.275, 249.847 75.620, 251.008 71.470 C 253.222 63.564, 248.123 55.615, 239.105 52.913 C 235.635 51.874, 234.636 51.998, 230.552 53.975 C 222.197 58.019, 218.659 66.987, 222.506 74.364 C 223.328 75.940, 224 77.555, 224 77.955 C 224 78.647, 208.635 94.509, 204.286 98.307 C 202.238 100.095, 202.162 100.020, 197.203 91.307 C 194.446 86.463, 188.117 74.520, 183.139 64.768 L 174.087 47.035 177.436 44.481 C 187.068 37.135, 187.020 20.433, 177.343 11.788 C 172.548 7.504, 163.747 5.949, 156.386 8.084 M 156.457 16.863 C 143.711 24.636, 150.886 43.658, 165.795 41.615 C 168.272 41.275, 170.939 40.466, 171.722 39.816 C 173.913 37.997, 177 31.379, 177 28.500 C 177 25.083, 173.588 18.525, 170.791 16.566 C 167.728 14.421, 160.206 14.577, 156.457 16.863 M 151.725 66.759 C 146.898 75.966, 141.096 86.875, 138.831 91 C 136.565 95.125, 132.380 103, 129.529 108.500 C 126.679 114, 123.308 120.300, 122.038 122.500 C 120.769 124.700, 118.844 128.190, 117.761 130.255 C 115.008 135.507, 110.798 139.762, 107.547 140.578 C 103.152 141.681, 101.849 140.912, 70.593 118.766 C 62.855 113.285, 46.508 102.278, 40.802 98.710 C 36.125 95.784, 36.215 96.958, 42.485 120.500 C 43.949 126, 46.041 134.162, 47.133 138.637 C 48.980 146.206, 49.322 146.814, 52.028 147.356 C 53.628 147.676, 56.707 149.707, 58.869 151.869 C 67.348 160.348, 68.584 179.636, 61.083 186.425 C 58.946 188.359, 58.225 194.232, 59.817 196.738 C 60.893 198.433, 68.156 200.531, 83.119 203.469 C 99.782 206.740, 116.116 208.624, 140.686 210.108 C 175.316 212.200, 223.718 208.655, 251.776 201.973 C 258.774 200.306, 264.997 198.618, 265.605 198.221 C 266.884 197.387, 268.142 188, 266.976 188 C 266.548 188, 265.151 186.313, 263.873 184.250 C 260.575 178.932, 260.486 165.635, 263.702 158.862 C 265.957 154.114, 271.918 148.337, 275.510 147.418 C 277.204 146.985, 278.122 144.350, 281.337 130.702 C 283.435 121.791, 286.018 111.979, 287.076 108.897 C 288.134 105.816, 289 101.893, 289 100.180 C 289 97.604, 288.697 97.190, 287.250 97.786 C 284.906 98.753, 270.980 107.877, 269.330 109.527 C 268.076 110.781, 259.923 116.644, 239.160 131.225 C 221.498 143.628, 218.321 143.627, 210.309 131.221 C 207.566 126.975, 204.630 122.150, 203.784 120.500 C 201.447 115.938, 194.183 102.289, 190.215 95 C 186.051 87.351, 178.720 73.389, 171.708 59.750 C 166.997 50.586, 166.510 50.001, 163.598 50.009 C 160.609 50.017, 160.192 50.606, 151.725 66.759 M 85.733 62.750 C 79.391 69.787, 87.966 78.915, 95.777 73.443 C 97.426 72.289, 98 70.883, 98 68 C 98 65.117, 97.426 63.711, 95.777 62.557 C 92.816 60.482, 87.688 60.581, 85.733 62.750 M 230.571 62.571 C 228.292 64.851, 228.542 71.276, 230.997 73.497 C 235.793 77.838, 244.806 73.243, 243.370 67.190 C 243.019 65.710, 242.047 63.712, 241.211 62.750 C 239.282 60.531, 232.722 60.421, 230.571 62.571 M 21 69.752 C 18.842 70.830, 16.776 72.983, 15.611 75.368 C 13.890 78.893, 13.847 79.648, 15.128 83.868 C 16.346 87.880, 17.177 88.820, 21.334 90.888 C 25.598 93.010, 26.566 93.147, 30.013 92.114 C 40.227 89.054, 41.768 75.540, 32.500 70.296 C 27.669 67.563, 25.580 67.464, 21 69.752 M 293.253 70.646 C 290.919 71.797, 289.680 73.336, 288.845 76.123 C 285.648 86.793, 295.704 96.081, 305.447 91.458 C 309.821 89.382, 312 85.556, 312 79.950 C 312 76.564, 311.374 75.174, 308.600 72.400 C 305.763 69.563, 304.480 69.004, 300.850 69.023 C 298.457 69.035, 295.039 69.766, 293.253 70.646 M 92.356 85.580 C 90.661 88.167, 88.584 94.756, 86.925 102.815 C 86.436 105.188, 85.263 109.308, 84.317 111.970 C 82.269 117.737, 82.639 118.414, 90.849 123.916 C 93.790 125.887, 98.043 128.738, 100.300 130.250 C 102.556 131.762, 104.917 133, 105.546 133 C 107.501 133, 109.653 129.887, 115.570 118.501 L 121.286 107.501 108.393 95.255 C 101.302 88.520, 95.173 83.007, 94.773 83.005 C 94.373 83.002, 93.286 84.161, 92.356 85.580 M 221.833 91.750 C 216.700 96.563, 211 102.171, 209.167 104.213 L 205.835 107.926 209.783 115.213 C 216.304 127.248, 218.997 131.752, 220.334 132.863 C 221.722 134.014, 226.692 131.215, 237.840 123 C 244.162 118.342, 245.004 116.533, 243.055 111.797 C 242.535 110.534, 240.271 103.537, 238.024 96.250 C 235.353 87.585, 233.459 83, 232.552 83 C 231.790 83, 226.966 86.938, 221.833 91.750 M 159.500 122.893 C 149.453 125.437, 141.065 134.307, 137.566 146.089 C 135.440 153.250, 135.584 169.901, 137.828 176.186 C 141.572 186.674, 151.744 196.092, 161.237 197.856 C 167.208 198.966, 173.091 196.472, 180.694 189.606 C 188.364 182.679, 190.278 177.014, 190.358 161 C 190.415 149.514, 190.195 147.959, 187.637 141.834 C 182.321 129.100, 169.383 120.391, 159.500 122.893 M 154.946 130.821 C 151.132 133.240, 144.201 141.534, 145.177 142.510 C 145.357 142.690, 146.628 143.114, 148.002 143.453 C 150.007 143.947, 151.537 143.158, 155.750 139.457 C 160.162 135.581, 161 134.299, 161 131.422 C 161 129.540, 160.638 128, 160.196 128 C 159.753 128, 157.391 129.269, 154.946 130.821 M 166 131.329 C 166 134.125, 166.941 135.600, 171.440 139.855 C 174.432 142.685, 177.245 144.986, 177.690 144.968 C 178.136 144.951, 179.340 144.301, 180.366 143.523 C 182.180 142.149, 182.175 142.020, 180.179 138.790 C 177.998 135.261, 174.547 132.368, 169.250 129.629 L 166 127.949 166 131.329 M 158.805 143.490 C 153.773 148.169, 152.999 149.933, 153.009 156.684 C 153.028 169.553, 153.959 173.011, 158.673 177.726 L 163.023 182.076 167.115 178.788 C 173.140 173.947, 174 171.606, 174 160.046 L 174 149.993 169.184 144.997 C 166.535 142.249, 163.947 140.012, 163.434 140.027 C 162.920 140.042, 160.837 141.600, 158.805 143.490 M 142.584 148.642 C 141.824 150.622, 141.851 169.844, 142.618 172.704 C 143.177 174.786, 143.343 174.822, 145.605 173.339 C 147.896 171.838, 148 171.284, 148 160.546 C 148 149.647, 147.930 149.289, 145.584 148.220 C 143.638 147.334, 143.054 147.416, 142.584 148.642 M 181.255 148.670 C 179.314 150.312, 179.068 151.614, 178.860 161.365 C 178.634 171.962, 178.688 172.263, 181.064 173.540 C 183.174 174.674, 183.591 174.625, 184.180 173.174 C 185.086 170.941, 185.053 150.991, 184.139 148.670 C 183.440 146.898, 183.351 146.898, 181.255 148.670 M 48.590 153.854 C 48.300 154.323, 49.116 155.188, 50.404 155.774 C 54.072 157.446, 57 164.595, 57 171.881 C 57 175.319, 56.549 178.975, 55.997 180.005 C 54.159 183.441, 56.875 183.253, 58.981 179.799 C 62.986 173.230, 60.592 160.079, 54.552 155.472 C 51.156 152.882, 49.473 152.425, 48.590 153.854 M 272.743 155.363 C 268.332 159.450, 266.653 163.882, 266.573 171.639 C 266.515 177.296, 266.891 179.212, 268.384 180.866 C 270.408 183.109, 272.865 182.748, 270.986 180.483 C 269.364 178.529, 269.636 167.090, 271.405 162.870 C 272.242 160.873, 274.268 158.111, 275.908 156.731 C 278.778 154.316, 278.980 153, 276.479 153 C 275.826 153, 274.145 154.063, 272.743 155.363 M 94.303 159.501 C 93.124 160.326, 91.401 163.287, 90.473 166.082 C 86.931 176.745, 93.201 187, 103.263 187 C 113.255 187, 116.181 170.089, 107.719 161.250 C 105.204 158.622, 103.826 158, 100.526 158 C 98.282 158, 95.481 158.675, 94.303 159.501 M 222.334 159.285 C 221.143 159.953, 219.118 161.839, 217.834 163.476 C 215.868 165.982, 215.500 167.615, 215.500 173.835 C 215.500 181.036, 215.586 181.291, 218.962 184.110 C 223.051 187.523, 227.209 187.838, 231.433 185.054 C 235.717 182.229, 236.925 179.317, 236.965 171.715 C 237.005 163.880, 235.452 160.702, 230.785 159.075 C 226.887 157.716, 225.051 157.762, 222.334 159.285 M 46 164.148 C 46 169.024, 48.641 178, 50.075 178 C 51.520 178, 52.271 173.293, 51.571 168.623 C 51.163 165.905, 49.995 163.405, 48.459 161.962 L 46 159.651 46 164.148 M 277.218 163.387 C 275.573 165.787, 275 168.079, 275 172.253 C 275 178.864, 275.986 179.986, 278.323 176.030 C 280.244 172.778, 281.725 161.566, 280.346 160.714 C 279.845 160.404, 278.437 161.607, 277.218 163.387 M 96.557 165.223 C 94.400 168.301, 94.610 174.848, 96.989 178.750 C 98.531 181.279, 99.651 182, 102.036 182 C 104.601 182, 105.344 181.422, 106.580 178.463 C 110.249 169.681, 101.515 158.143, 96.557 165.223 M 222.540 165.740 C 217.894 170.750, 219.971 182, 225.542 182 C 229.108 182, 232 177.561, 232 172.088 C 232 163.606, 227.388 160.511, 222.540 165.740 M 146.534 178.352 C 144.790 179.627, 144.915 179.953, 148.755 184.118 C 150.993 186.546, 154.664 189.567, 156.912 190.830 L 161 193.128 161 190.268 C 161 188.160, 159.639 186.040, 155.823 182.204 C 150.274 176.626, 149.393 176.261, 146.534 178.352 M 171.225 182.063 C 167.211 185.953, 166 187.821, 166 190.127 L 166 193.128 169.750 191.002 C 174.457 188.333, 178.275 185.036, 180.383 181.819 C 181.957 179.417, 181.923 179.286, 179.461 178.164 C 178.055 177.524, 176.803 177, 176.678 177 C 176.553 177, 174.099 179.278, 171.225 182.063 M 60 207.949 C 60 211.262, 60.545 212.314, 63.389 214.483 C 70.288 219.746, 100.458 225.357, 131.500 227.151 C 152.472 228.363, 201.184 227.644, 212.500 225.956 C 216.350 225.381, 224.484 224.287, 230.575 223.524 C 243.138 221.951, 256.729 218.793, 261.955 216.232 C 265.039 214.720, 265.590 213.880, 266.288 209.627 C 266.728 206.947, 266.910 204.577, 266.693 204.360 C 266.260 203.927, 259.788 205.175, 247.500 208.061 C 239.230 210.004, 234.580 210.754, 212.500 213.709 C 202.084 215.103, 192.445 215.432, 164 215.366 C 143.166 215.317, 124.782 214.798, 119.500 214.110 C 114.550 213.466, 106.450 212.473, 101.500 211.905 C 91.629 210.771, 69.492 206.518, 65.432 204.974 C 60.840 203.228, 60 203.688, 60 207.949" stroke="none" fill="black" fill-rule="evenodd"/>
</svg>