<svg xmlns="http://www.w3.org/2000/svg" width="299" height="291" viewBox="0 0 299 291" version="1.1">
	<path d="M 176.466 9.684 C 174.525 18.721, 173.844 19.506, 164.060 23.984 C 161.048 25.362, 162.084 26.821, 166.895 27.975 C 172.480 29.315, 174.459 31.514, 175.558 37.604 C 176.277 41.589, 177.601 44, 179.071 44 C 179.525 44, 180.654 41.300, 181.580 38 C 182.921 33.220, 183.921 31.594, 186.500 30 C 188.280 28.900, 190.583 27.993, 191.618 27.985 C 192.653 27.976, 194.146 27.561, 194.936 27.061 C 197.042 25.728, 194.753 23.364, 190.602 22.585 C 186.311 21.780, 184.143 19.303, 182.016 12.774 C 180.042 6.715, 177.418 5.253, 176.466 9.684 M 178 21.339 C 178 22.214, 177.069 23.428, 175.931 24.037 C 173.882 25.134, 173.886 25.165, 176.433 27.525 L 179.002 29.907 181.251 27.703 L 183.500 25.500 180.750 22.624 C 178.775 20.559, 178 20.197, 178 21.339 M 229.643 29.769 C 229.382 30.191, 228.173 34.804, 226.957 40.019 C 223.693 54.013, 222.535 55.998, 215.706 59.308 C 212.519 60.852, 207.258 62.583, 204.015 63.154 C 200.772 63.725, 197.304 64.798, 196.309 65.538 C 193.669 67.501, 195.745 70.300, 200.598 71.320 C 213.859 74.107, 220.074 77.216, 223.039 82.549 C 223.972 84.226, 225.518 89.176, 226.475 93.549 C 228.678 103.617, 229.612 106, 231.356 106 C 233.671 106, 234.838 103.742, 235.502 97.975 C 235.850 94.964, 237.244 89.800, 238.600 86.500 C 242.146 77.877, 247.853 74.233, 262 71.559 C 265.661 70.867, 268.423 68.545, 267.731 66.740 C 267.366 65.790, 264.365 64.561, 259.965 63.560 C 256.021 62.663, 250.607 60.821, 247.934 59.467 C 243.043 56.988, 238 51.079, 238 47.827 C 238 46.887, 237.616 45.880, 237.146 45.590 C 236.676 45.300, 236.006 42.327, 235.656 38.985 C 235.307 35.643, 234.550 32.029, 233.975 30.954 C 232.925 28.991, 230.529 28.335, 229.643 29.769 M 110.730 38.697 C 110.481 39.139, 109.973 40.766, 109.603 42.314 C 109.145 44.230, 107.983 45.459, 105.965 46.162 C 102.207 47.472, 102.195 48.823, 105.927 50.125 C 107.784 50.772, 109.228 52.216, 109.875 54.073 C 111.188 57.838, 113.657 57.839, 114.483 54.076 C 114.933 52.027, 116.005 50.845, 118.063 50.128 C 121.806 48.823, 121.786 47.568, 117.997 45.999 C 115.970 45.159, 114.736 43.760, 114.201 41.695 C 113.420 38.683, 111.617 37.126, 110.730 38.697 M 52.082 41.285 C 51.559 42.661, 50.816 45.522, 50.431 47.643 C 48.541 58.054, 46.249 60.364, 34.686 63.511 C 26.925 65.623, 27.227 67.763, 35.672 70.500 C 45.143 73.569, 47.569 75.837, 49.957 83.856 C 51.081 87.629, 52 91.428, 52 92.299 C 52 93.170, 52.414 94.138, 52.919 94.450 C 54.628 95.506, 56.877 92.003, 57.549 87.238 C 58.358 81.494, 61.991 74.839, 65.167 73.285 C 66.450 72.657, 69.828 71.411, 72.673 70.517 C 78.010 68.839, 80.870 66.655, 79.134 65.583 C 78.605 65.256, 75.270 64.092, 71.724 62.996 C 61.453 59.824, 60.221 58.347, 57.009 45.366 C 56.446 43.093, 55.321 40.682, 54.509 40.008 C 53.291 38.997, 52.867 39.220, 52.082 41.285 M 230.069 51.162 C 229.361 53.528, 227.893 56.596, 226.807 57.981 C 224.470 60.962, 214.356 66.947, 211.500 67.040 C 210.400 67.075, 211.824 67.998, 214.664 69.090 C 222.078 71.941, 227.784 77.392, 229.885 83.633 L 231.614 88.766 233.319 83.965 C 235.413 78.068, 243.481 70.376, 248.573 69.420 C 250.458 69.067, 251.998 68.490, 251.996 68.139 C 251.994 67.787, 250.025 66.691, 247.621 65.702 C 240.862 62.924, 235.391 57.675, 233.239 51.904 L 231.358 46.862 230.069 51.162 M 53.601 57 C 52.522 60.266, 48.156 64.938, 45 66.204 L 42.500 67.206 45 68.160 C 48.450 69.478, 53 74.009, 53 76.128 C 53 77.093, 53.450 78.160, 54 78.500 C 54.550 78.840, 55 78.252, 55 77.194 C 55 74.477, 58.785 69.994, 62.341 68.499 L 65.351 67.233 62.426 65.712 C 58.427 63.632, 55.251 60.003, 54.801 57 L 54.426 54.500 53.601 57 M 146.522 64.250 C 146.238 65.487, 145.099 72.575, 143.991 80 C 141.507 96.657, 140.396 101.665, 137.296 110.203 C 130.475 128.982, 120.806 134.141, 83.172 139.081 C 77.193 139.866, 73.065 140.945, 71.672 142.088 C 67.853 145.223, 71.006 146.721, 86.006 148.898 C 113.596 152.903, 121.674 155.668, 128.996 163.612 C 136.482 171.733, 140.249 182.480, 143.505 205 C 146.217 223.763, 146.386 224.451, 148.386 224.836 C 151.228 225.383, 152.142 223.729, 153.078 216.345 C 157.243 183.450, 158.243 179.319, 164.317 169.893 C 172.251 157.582, 179.806 153.887, 205 149.994 C 212.975 148.761, 221.211 147.335, 223.301 146.824 C 227.182 145.876, 229.023 143.623, 227.313 141.913 C 226.789 141.389, 219.642 139.841, 211.430 138.473 C 191.649 135.177, 185.881 133.655, 177.335 129.477 C 171.836 126.789, 169.384 124.872, 166.794 121.237 C 162.744 115.553, 160.585 111.037, 159.030 105 C 158.393 102.525, 157.476 99.150, 156.994 97.500 C 156.175 94.700, 155.082 87.747, 152.981 71.978 C 152.503 68.391, 151.814 64.678, 151.449 63.728 C 150.482 61.208, 147.139 61.562, 146.522 64.250 M 149.160 90.140 C 149.072 90.491, 148.288 94.532, 147.418 99.119 C 145.446 109.512, 138.655 124.131, 133.348 129.406 C 128.386 134.338, 121.025 137.751, 108.213 141.061 L 97.925 143.719 102.213 144.773 C 116.319 148.239, 120.072 149.454, 125.322 152.253 C 128.529 153.961, 132.710 157.180, 134.614 159.405 C 139.742 165.396, 144.974 177.110, 147.053 187.258 C 148.980 196.665, 150 199.200, 150 194.583 C 150 189.737, 154.020 175.700, 157.288 169.135 C 163.272 157.116, 172.193 150.695, 188.068 146.982 C 193.256 145.769, 198.625 144.412, 200 143.967 C 202.449 143.174, 202.439 143.156, 199.493 143.079 C 195.273 142.968, 180.442 138.735, 174.660 135.992 C 162.208 130.083, 151.630 111.877, 149.681 93 C 149.483 91.075, 149.248 89.788, 149.160 90.140 M 99.667 94.667 C 97.973 96.360, 99.530 98.987, 106.225 105.726 C 113.266 112.814, 115.246 114.029, 116.487 112.021 C 117.483 110.409, 115.123 106.857, 108.666 100.250 C 102.805 94.253, 101.123 93.210, 99.667 94.667 M 190.411 100.527 C 188.932 102.467, 187.979 104.313, 188.295 104.628 C 189.167 105.500, 196 99.960, 196 98.381 C 196 95.855, 193.137 96.954, 190.411 100.527 M 183.653 108.059 C 180.709 110.374, 180.224 112, 182.477 112 C 184.002 112, 187.646 107.313, 186.788 106.455 C 186.523 106.189, 185.112 106.911, 183.653 108.059 M 52.667 115.667 C 51.424 116.909, 51.992 121.748, 53.530 123.025 C 57.286 126.142, 62.278 119.678, 58.800 116.200 C 57.506 114.906, 53.753 114.580, 52.667 115.667 M 249.447 121.059 C 248.056 122.595, 247.844 123.529, 248.609 124.742 C 250.253 127.348, 252.505 128.341, 255.226 127.658 C 258.317 126.882, 259.285 123.852, 257.333 121.065 C 255.482 118.423, 251.835 118.420, 249.447 121.059 M 18.550 135.476 C 16.935 141.032, 15.614 142.368, 9.560 144.569 C 7.944 145.157, 6.483 146.057, 6.314 146.569 C 6.146 147.081, 8.369 148.625, 11.254 150 C 16.141 152.329, 16.628 152.893, 18.368 158.250 C 19.406 161.446, 20.829 164, 21.571 164 C 22.864 164, 24.983 158.288, 24.994 154.773 C 25.001 152.811, 28.208 150.453, 32.209 149.470 C 33.699 149.103, 35.432 148.184, 36.061 147.427 C 36.969 146.332, 36.619 145.822, 34.352 144.937 C 26.293 141.792, 25.717 141.198, 23.984 134.250 C 22.513 128.359, 20.486 128.817, 18.550 135.476 M 275.287 148.160 C 274.678 148.897, 273.879 151.104, 273.513 153.065 C 272.580 158.057, 272.023 158.709, 266.051 161.795 C 263.140 163.300, 260.830 164.974, 260.919 165.515 C 261.008 166.057, 262.731 167.071, 264.746 167.769 C 269.657 169.469, 272.680 172.482, 273.417 176.411 C 274.106 180.083, 276.498 183.835, 277.507 182.826 C 277.876 182.457, 278.613 180.208, 279.145 177.828 C 280.503 171.749, 282.348 169.357, 286.715 168.013 C 288.797 167.372, 291.113 166.652, 291.863 166.412 C 294.001 165.728, 291.502 163.350, 287.885 162.627 C 283.879 161.826, 279 156.586, 279 153.085 C 279 151.599, 278.414 149.581, 277.697 148.601 C 276.626 147.136, 276.198 147.058, 275.287 148.160 M 106.782 181.229 C 99.229 189.156, 97.760 192.137, 101.090 192.779 C 103.547 193.252, 118 178.456, 118 175.468 C 118 171.101, 114.929 172.678, 106.782 181.229 M 179 174.587 C 179 175.956, 187.449 185.713, 193.453 191.276 C 195.569 193.237, 199.099 193.241, 199.744 191.283 C 200.386 189.332, 183.876 173.016, 181.250 173.007 C 179.859 173.003, 179 173.606, 179 174.587 M 60.288 176.250 C 59.761 176.938, 58.776 180.200, 58.098 183.500 C 54.198 202.492, 50.295 206.800, 33.687 210.448 C 25.488 212.249, 23.180 214.196, 26.430 216.572 C 27.395 217.278, 30.055 218.138, 32.342 218.483 C 37.932 219.326, 46.993 222.687, 49.697 224.920 C 52.942 227.601, 55.598 233.391, 58.218 243.500 C 60.100 250.764, 60.934 252.556, 62.541 252.789 C 64.284 253.042, 64.769 251.984, 66.436 244.289 C 67.482 239.455, 69.124 233.640, 70.084 231.366 C 72.891 224.717, 80.424 219.979, 90.500 218.524 C 96.433 217.668, 99 216.452, 99 214.500 C 99 212.574, 96.647 211.459, 89.500 209.996 C 78.618 207.770, 72.033 203.046, 69.487 195.641 C 68.821 193.703, 67.481 188.829, 66.510 184.809 C 65.539 180.789, 64.591 176.938, 64.403 176.250 C 64.216 175.563, 63.429 175, 62.654 175 C 61.879 175, 60.814 175.563, 60.288 176.250 M 236 188.537 C 236 193.006, 232.492 204.129, 230.489 206.011 C 229.280 207.146, 225.189 209.072, 221.396 210.290 C 215.932 212.045, 214.500 212.917, 214.500 214.488 C 214.500 216.076, 215.762 216.810, 220.845 218.182 C 224.335 219.124, 228.249 220.588, 229.543 221.436 C 232.514 223.383, 234.639 228.095, 235.415 234.460 C 236.084 239.950, 237.107 241.556, 239.380 240.684 C 240.741 240.162, 241.483 238.180, 243.379 230 C 244.281 226.108, 247.764 221.054, 250.248 220.033 C 251.486 219.524, 255.088 218.396, 258.250 217.526 C 262.664 216.312, 264 215.505, 264 214.054 C 264 212.551, 262.558 211.792, 256.967 210.352 C 247.862 208.006, 245.398 205.446, 242.479 195.301 C 240.669 189.008, 239.826 187.438, 238.117 187.180 C 236.676 186.963, 236 187.396, 236 188.537 M 61.433 194.522 C 59.688 201.747, 56.261 206.555, 50.180 210.308 C 46.890 212.339, 43.366 214.032, 42.349 214.070 C 41.325 214.109, 42.119 214.736, 44.129 215.476 C 53.270 218.840, 59.715 225.705, 61.518 234 L 62.279 237.500 63.650 233 C 64.404 230.525, 66.271 226.700, 67.799 224.500 C 70.594 220.474, 78.785 215.144, 82.500 214.933 C 83.761 214.862, 83.258 214.462, 81.139 213.853 C 72.778 211.446, 66.898 205.561, 63.845 196.543 C 62.168 191.587, 62.146 191.570, 61.433 194.522 M 237.621 205.375 C 237.269 206.776, 234.896 209.515, 232.347 211.461 C 229.387 213.722, 228.342 215, 229.456 215 C 231.969 215, 237.986 221.382, 238.082 224.150 C 238.156 226.282, 238.290 226.210, 239.531 223.382 C 241.114 219.772, 246.388 215.008, 248.827 214.984 C 249.747 214.975, 248.709 213.953, 246.520 212.713 C 244.332 211.474, 241.578 208.742, 240.400 206.644 C 238.278 202.861, 238.255 202.850, 237.621 205.375 M 187.096 235.250 C 186.626 236.488, 186.075 238.356, 185.871 239.403 C 185.667 240.450, 183.813 242.181, 181.750 243.251 C 178.035 245.178, 176.841 246.979, 179.250 247.022 C 181.570 247.064, 185.428 250.815, 186.536 254.108 C 188.130 258.841, 189.589 258.718, 191.826 253.660 C 193.350 250.214, 194.615 248.907, 197.399 247.900 C 199.380 247.184, 201 246.235, 201 245.791 C 201 245.347, 199.241 244.280, 197.092 243.420 C 193.401 241.943, 192.585 240.849, 190.625 234.750 C 189.844 232.319, 188.116 232.564, 187.096 235.250 M 112.583 246.250 C 112.388 246.938, 111.681 249.525, 111.011 252 C 109.426 257.858, 108.604 258.758, 102.290 261.550 C 99.381 262.837, 97 264.145, 97 264.458 C 97 264.770, 99.362 266.072, 102.250 267.351 C 108.717 270.216, 109.593 271.249, 111.339 278.072 C 112.106 281.069, 113.298 283.500, 114 283.500 C 114.704 283.500, 115.898 281.054, 116.673 278.025 C 118.335 271.531, 120.958 268.418, 125.484 267.569 C 132.207 266.308, 132.023 263.477, 125.065 261.133 C 120.002 259.426, 118.366 257.499, 116.395 250.921 C 114.694 245.243, 113.339 243.583, 112.583 246.250 M 113 259.961 C 113 260.490, 112.205 261.727, 111.234 262.711 C 109.544 264.423, 109.587 264.624, 112.234 267.376 C 114.191 269.411, 115 269.793, 115 268.682 C 115 267.819, 115.871 266.503, 116.936 265.757 C 118.851 264.416, 118.851 264.388, 116.936 263.192 C 115.871 262.527, 115 261.312, 115 260.492 C 115 259.671, 114.550 259, 114 259 C 113.450 259, 113 259.432, 113 259.961" stroke="none" fill="black" fill-rule="evenodd"/>
</svg>