<svg xmlns="http://www.w3.org/2000/svg" width="262" height="302" viewBox="0 0 262 302" version="1.1">
	<path d="M 115.507 9.750 C 113.152 12.091, 106.957 19.538, 88.254 42.512 C 86.468 44.706, 81.311 51.225, 76.795 57 C 72.278 62.775, 68.329 67.725, 68.019 68 C 65.765 70.003, 56.932 82.330, 56.740 83.742 C 56.608 84.709, 57.033 88.650, 57.683 92.500 C 58.334 96.350, 59.603 104.450, 60.504 110.500 C 61.404 116.550, 62.756 124.650, 63.508 128.500 C 64.261 132.350, 65.544 140, 66.360 145.500 C 67.176 151, 68.141 156.400, 68.505 157.500 C 68.868 158.600, 67.548 156.586, 65.570 153.023 C 61.085 144.942, 60.623 144.510, 54.500 142.663 C 51.750 141.833, 44.325 138.834, 38 135.999 C 18.315 127.173, 15.824 126.688, 14.067 131.336 C 13.617 132.526, 12.246 140.700, 11.021 149.500 C 9.795 158.300, 8.232 168.974, 7.548 173.221 L 6.305 180.941 10.173 187.721 C 12.300 191.449, 17.016 198.775, 20.652 204 C 24.288 209.225, 28.155 215.075, 29.245 217 C 30.336 218.925, 34.814 226.232, 39.197 233.239 C 48.227 247.672, 47.860 244.711, 42.849 262.641 C 40.940 269.473, 40.787 271.038, 41.899 272.378 C 43.476 274.279, 85.298 287.614, 110.136 294.136 C 115.017 295.418, 115.286 295.373, 166.599 284.547 C 192.169 279.152, 208.889 274.111, 212.201 270.799 C 214.775 268.225, 214.432 263.905, 211.014 255.875 L 208.029 248.859 211.514 243.410 C 213.432 240.413, 215 237.693, 215 237.365 C 215 237.037, 216.947 233.783, 219.326 230.134 C 221.706 226.486, 227.408 217.425, 231.998 210 C 236.588 202.575, 242.066 193.970, 244.172 190.879 C 246.277 187.787, 248 184.953, 248 184.581 C 248 184.208, 249.575 181.442, 251.500 178.433 C 253.425 175.423, 255 172.130, 255 171.115 C 255 168.523, 249.769 145.110, 243.803 121 C 242.388 115.279, 241.366 114, 238.211 114 C 236.811 114, 227.754 118.140, 218.083 123.200 C 208.412 128.260, 198.321 133.472, 195.657 134.783 C 190.376 137.383, 190.539 137.108, 183.498 155.250 C 179.698 165.044, 178.347 167.360, 179.417 162.250 C 179.962 159.645, 183.082 124.953, 185.015 100 C 185.505 93.675, 186.189 85.125, 186.536 81 L 187.166 73.500 181.932 68 C 150.763 35.247, 122.277 7, 120.416 7 C 119.237 7, 117.028 8.238, 115.507 9.750 M 117.604 30.772 C 116.011 36.672, 113.650 44.875, 112.357 49 C 108.193 62.281, 105.561 71.773, 104.038 79 C 103.517 81.475, 102.170 86.371, 101.045 89.880 C 97.887 99.733, 97.985 100, 104.755 100 C 111.470 100, 148.015 96.318, 148.767 95.566 C 149.048 95.285, 146.247 87.280, 142.543 77.777 C 138.839 68.275, 134.515 56.794, 132.935 52.263 C 131.355 47.733, 129.198 42.108, 128.142 39.763 C 126.189 35.428, 121.488 23.506, 120.850 21.272 C 120.658 20.597, 119.197 24.872, 117.604 30.772 M 108.711 29.298 C 106.115 32.709, 100.809 39.325, 96.918 44 C 93.028 48.675, 88.417 54.348, 86.672 56.607 C 84.928 58.866, 80.575 64.405, 77 68.915 C 73.425 73.425, 69.459 78.549, 68.186 80.301 L 65.872 83.486 68.452 85.543 C 70.878 87.478, 92.108 99, 93.247 99 C 93.536 99, 93.990 97.763, 94.255 96.250 C 94.902 92.566, 101.274 68.377, 105.518 53.500 C 110.492 36.062, 113.858 23.530, 113.629 23.298 C 113.519 23.187, 111.306 25.887, 108.711 29.298 M 128.047 24.325 C 128.021 24.779, 129.773 29.729, 131.940 35.325 C 134.107 40.921, 136.750 47.975, 137.813 51 C 138.876 54.025, 140.991 59.650, 142.514 63.500 C 144.036 67.350, 147.305 75.675, 149.777 82 C 152.250 88.325, 154.425 93.676, 154.610 93.890 C 154.796 94.105, 156.663 92.755, 158.760 90.890 C 160.856 89.026, 166.015 84.828, 170.223 81.563 L 177.874 75.625 171.994 69.063 C 162.378 58.329, 128.097 23.432, 128.047 24.325 M 173.500 85.536 C 158.603 96.915, 156.027 99.340, 155.565 102.418 C 155.310 104.113, 154.838 115.407, 154.516 127.516 C 154.194 139.624, 153.249 160.324, 152.416 173.516 C 151.583 186.707, 150.645 202.900, 150.330 209.500 L 149.759 221.500 153.129 222.923 C 154.983 223.705, 156.751 224.501, 157.058 224.692 C 157.365 224.883, 158.683 221.993, 159.988 218.269 C 161.292 214.546, 163.675 208.350, 165.285 204.500 C 167.839 198.389, 168.517 194.516, 170.620 174 C 171.945 161.075, 173.458 144.875, 173.984 138 C 175.505 118.083, 176.967 103.046, 178.115 95.500 C 178.701 91.650, 179.027 86.974, 178.840 85.108 L 178.500 81.717 173.500 85.536 M 65.465 92.166 C 65.764 93.450, 66.446 98.100, 66.980 102.500 C 67.513 106.900, 68.419 112.975, 68.994 116 C 73.052 137.387, 74.099 143.369, 74.945 150 C 75.471 154.125, 76.337 159.525, 76.870 162 C 77.778 166.218, 78.656 170.941, 82.448 192 C 83.290 196.675, 84.438 204.325, 84.999 209 C 87.936 233.459, 87.773 233.090, 98.932 240.664 C 104.066 244.149, 108.650 247, 109.118 247 C 110.125 247, 109.503 239.469, 106.972 221 C 105.172 207.874, 103.453 194.138, 100.524 169.500 C 98.465 152.179, 98.278 150.708, 95.070 126.662 C 93.468 114.651, 92.010 104.710, 91.829 104.571 C 91.648 104.431, 85.875 101.261, 79 97.526 C 72.125 93.791, 66.144 90.532, 65.710 90.284 C 65.275 90.036, 65.165 90.883, 65.465 92.166 M 138.500 102.137 C 124.348 103.675, 100.543 106.014, 99.105 106.007 C 97.995 106.001, 97.837 107.272, 98.332 112.250 C 99.306 122.037, 100.801 133.612, 102.497 144.500 C 103.355 150, 104.483 159, 105.005 164.500 C 106.446 179.665, 107.820 191.449, 109.439 202.500 C 110.245 208, 111.867 220.150, 113.043 229.500 C 114.220 238.850, 115.372 247.113, 115.603 247.862 C 116.042 249.284, 125.360 241.527, 138.224 229.031 L 144.948 222.500 146.941 181.500 C 148.038 158.950, 149.189 134.425, 149.499 127 C 149.810 119.575, 150.327 110.688, 150.648 107.250 C 151.320 100.065, 152.600 100.604, 138.500 102.137 M 220.413 130.590 C 206.087 137.939, 198.998 141.990, 199.008 142.823 C 199.013 143.196, 201.883 149.308, 205.387 156.407 L 211.757 169.315 217.487 157.407 C 225.812 140.110, 232.157 125.824, 231.713 125.379 C 231.500 125.167, 226.415 127.512, 220.413 130.590 M 232.873 136.303 C 230.337 141.361, 227.448 147.525, 226.452 150 C 225.457 152.475, 222.923 158.186, 220.821 162.690 C 218.720 167.195, 217 171.193, 217 171.575 C 217 171.956, 220.037 172.004, 223.750 171.681 C 245.238 169.810, 246 169.697, 246 168.371 C 246 166.938, 240.746 140.942, 238.710 132.303 L 237.485 127.105 232.873 136.303 M 25.213 138.810 C 25.399 139.189, 26.383 141.300, 27.397 143.500 C 28.412 145.700, 29.636 148.175, 30.117 149 C 30.598 149.825, 34.074 156.543, 37.842 163.929 C 43.964 175.928, 44.766 177.070, 45.373 174.652 C 45.746 173.163, 47.129 169.595, 48.446 166.723 C 52.266 158.388, 55.046 151.704, 54.762 151.535 C 54.618 151.449, 50 149.433, 44.500 147.055 C 39 144.677, 32.334 141.694, 29.687 140.425 C 27.039 139.157, 25.026 138.430, 25.213 138.810 M 18.612 152.194 C 17.670 158.412, 16.421 166.593, 15.838 170.372 C 14.426 179.525, 13.865 179.196, 31.245 179.398 C 36.054 179.454, 39.992 179.366, 39.995 179.203 C 39.998 179.039, 38.234 175.664, 36.075 171.703 C 33.916 167.741, 29.489 159.187, 26.238 152.694 L 20.326 140.887 18.612 152.194 M 191.761 156.179 C 189.817 160.205, 186.342 168.675, 184.038 175 C 181.735 181.325, 178.811 189.200, 177.542 192.500 C 176.272 195.800, 173.354 203.450, 171.058 209.500 C 168.761 215.550, 166.478 221.400, 165.984 222.500 C 165.107 224.454, 164.654 227.383, 164.885 229.610 C 164.948 230.221, 166.205 232.471, 167.678 234.610 C 169.151 236.750, 171.344 240.516, 172.551 242.980 L 174.746 247.460 179.766 236.980 C 182.527 231.216, 190.270 215.025, 196.972 201 L 209.157 175.500 205.329 168.058 C 203.223 163.964, 200.104 157.970, 198.397 154.736 L 195.295 148.857 191.761 156.179 M 57.495 159.020 C 56.660 161.658, 49.635 177.358, 48.027 180.180 C 47.315 181.431, 48.083 183.829, 51.035 189.568 C 53.216 193.808, 55 197.839, 55 198.527 C 55 199.215, 56.830 203.091, 59.066 207.139 C 61.303 211.188, 63.833 216.155, 64.690 218.179 C 65.547 220.202, 68.847 227.119, 72.024 233.549 L 77.801 245.239 79.900 240.493 C 81.055 237.882, 82 234.982, 82 234.049 C 82 231.917, 79.470 216.193, 77.326 205 C 75.836 197.219, 68.250 177.365, 60.904 162.020 C 58.443 156.880, 58.232 156.694, 57.495 159.020 M 225 176.374 C 219.775 176.999, 215.038 177.810, 214.474 178.176 C 213.446 178.843, 209.812 185.991, 200.078 206.500 C 197.206 212.550, 192.700 222, 190.065 227.500 C 180.135 248.225, 179.834 249.002, 181.761 248.980 C 185.611 248.936, 200.199 246.196, 200.947 245.377 C 201.652 244.606, 230.828 198.059, 241.143 181.250 L 244.978 175 239.739 175.119 C 236.858 175.184, 230.225 175.749, 225 176.374 M 18.317 186.250 C 18.976 187.488, 23.449 194.409, 28.258 201.630 C 33.066 208.852, 37 215.038, 37 215.378 C 37 215.717, 38.524 218.134, 40.387 220.748 C 42.250 223.361, 44.662 227.175, 45.746 229.222 C 46.831 231.269, 49.387 235.367, 51.426 238.328 C 55.331 243.998, 56.574 244.569, 69.234 246.512 L 72.967 247.084 65.984 233.037 C 62.143 225.311, 59 218.796, 59 218.559 C 59 218.322, 55.418 210.738, 51.040 201.705 L 43.080 185.283 38.401 184.641 C 35.827 184.289, 29.985 184, 25.420 184 C 17.123 184, 17.119 184.001, 18.317 186.250 M 150 239.532 C 150 251.912, 150.430 253.089, 159.384 265.223 L 165.821 273.947 168.013 266.732 C 171.796 254.277, 171.846 254.647, 164.818 243.314 C 160.291 236.015, 157.469 232.543, 154.864 231.064 C 152.864 229.929, 150.951 229, 150.614 229 C 150.276 229, 150 233.739, 150 239.532 M 142.583 235.192 C 141.528 237.011, 138.699 241.539, 136.296 245.254 C 132.475 251.158, 128 260.051, 128 261.738 C 128 262.053, 128.787 261.604, 129.750 260.741 C 130.713 259.878, 134.650 257.942, 138.500 256.437 C 142.350 254.933, 145.877 253.370, 146.337 252.964 C 146.797 252.558, 146.572 247.649, 145.837 242.055 L 144.500 231.883 142.583 235.192 M 126.080 247.420 L 117.765 255.778 119.463 260.889 C 120.397 263.700, 121.278 266, 121.422 266 C 121.566 266, 122.912 262.871, 124.412 259.047 C 125.913 255.222, 128.932 249.321, 131.122 245.932 C 133.312 242.544, 134.945 239.611, 134.750 239.416 C 134.554 239.221, 130.653 242.823, 126.080 247.420 M 84.160 247.482 L 80.868 253.963 84.456 264.573 C 89.860 280.555, 89.611 280.233, 98.672 282.923 C 102.977 284.201, 107.805 285.641, 109.399 286.123 C 110.994 286.605, 112.645 287, 113.068 287 C 113.802 287, 118.596 274.040, 118.247 273 C 113.031 257.491, 112.978 257.409, 104.186 251.545 C 99.613 248.495, 95.606 246, 95.280 246 C 94.955 246, 93.214 244.875, 91.411 243.500 C 89.608 242.125, 87.980 241, 87.793 241 C 87.606 241, 85.971 243.917, 84.160 247.482 M 52.983 255.769 C 51.796 259.283, 50.977 262.269, 51.163 262.405 C 51.348 262.541, 55.754 260.501, 60.954 257.873 C 66.154 255.244, 69.754 252.892, 68.954 252.645 C 68.154 252.399, 64.719 251.563, 61.321 250.788 L 55.142 249.380 52.983 255.769 M 193.500 253.682 C 191.300 253.873, 186.503 254.506, 182.839 255.090 L 176.178 256.151 174.024 264.325 C 172.840 268.821, 171.630 273.332, 171.336 274.349 C 170.923 275.781, 171.219 276.075, 172.651 275.656 C 173.668 275.358, 179 273.986, 184.500 272.607 C 200.314 268.640, 205.533 266.576, 205.305 264.378 C 204.882 260.298, 200.910 253, 199.203 253.168 C 198.266 253.261, 195.700 253.492, 193.500 253.682 M 63.646 262.470 L 51.795 268.474 55.148 269.850 C 56.991 270.607, 63.542 272.714, 69.703 274.531 C 75.865 276.349, 81.856 278.137, 83.016 278.505 C 84.855 279.089, 84.984 278.939, 84.020 277.337 C 83.412 276.327, 81.245 271.217, 79.205 265.983 L 75.497 256.466 63.646 262.470 M 135.622 263.291 L 125.744 268.551 122.899 276.526 C 121.334 280.912, 120.042 284.982, 120.027 285.570 C 120.006 286.386, 156.753 279.572, 162.305 277.731 C 162.747 277.584, 160.947 274.756, 158.305 271.446 C 155.662 268.137, 152.375 263.761, 151 261.721 C 149.625 259.682, 147.825 258.018, 147 258.023 C 146.175 258.028, 141.055 260.399, 135.622 263.291" stroke="none" fill="black" fill-rule="evenodd"/>
</svg>