<svg xmlns="http://www.w3.org/2000/svg" width="326" height="271" viewBox="0 0 326 271" version="1.1">
	<path d="M 242.503 7.782 C 238.327 9.217, 236.858 10.446, 233.567 15.250 C 231.158 18.767, 228.909 21, 227.775 21 C 224.904 21, 218.474 24.627, 216.797 27.192 C 212.842 33.241, 213.397 41.105, 218.162 46.531 C 222.785 51.797, 236.506 54.812, 243.466 52.091 C 244.727 51.598, 246.520 51.947, 248.466 53.064 C 255.498 57.102, 263.432 56.290, 268.485 51.016 C 270.364 49.054, 272.362 48, 274.201 48 C 277.682 48, 283.539 44.297, 284.952 41.203 C 286.571 37.655, 286.189 31.822, 284.114 28.420 C 281.968 24.899, 276.590 22, 272.207 22 C 269.857 22, 269.083 21.468, 268.594 19.518 C 267.812 16.401, 262.534 10.319, 259.102 8.579 C 254.482 6.237, 247.915 5.921, 242.503 7.782 M 241.708 13.777 C 240.173 14.724, 237.797 17.862, 236.429 20.750 C 234.224 25.403, 233.592 26, 230.872 26 C 226.249 26, 221.347 28.748, 219.949 32.122 C 218.534 35.538, 220.075 41.907, 222.905 44.344 C 227.093 47.949, 237.199 49.081, 243.089 46.605 C 246.157 45.315, 246.638 45.382, 249.454 47.489 C 255.587 52.078, 260.784 51.873, 266.182 46.830 C 268.012 45.121, 270.958 43.574, 272.959 43.271 C 285.078 41.438, 282.799 27, 270.392 27 C 267.035 27, 265.795 26.569, 265.362 25.250 C 262.361 16.129, 257.396 11.985, 249.518 12.027 C 246.557 12.042, 243.355 12.760, 241.708 13.777 M 136.757 25.965 C 118.491 29.305, 101.702 40.301, 91.884 55.354 C 88.010 61.294, 84.001 70.667, 83.999 73.788 C 83.999 75.282, 82.758 75.509, 74.249 75.572 C 63.584 75.650, 59.251 77.023, 51.337 82.831 C 43.020 88.935, 37 101.248, 37 112.157 C 37 116.636, 36.656 118, 35.527 118 C 33.102 118, 23.665 122.827, 19.697 126.098 C -1.067 143.213, 4.500 177.409, 30 189.386 C 33.727 191.137, 36.389 191.500, 45.500 191.500 C 56.169 191.500, 56.676 191.399, 62.327 188.133 L 68.153 184.766 73.067 187.440 C 78.721 190.517, 88.972 191.774, 95.687 190.214 L 99.873 189.241 105.187 195.011 C 112.047 202.460, 121.999 209.151, 130.641 212.125 C 136.574 214.166, 139.391 214.485, 151.500 214.484 C 162.491 214.484, 166.682 214.085, 171 212.629 C 178.538 210.086, 187.890 204.809, 191.500 201.060 C 196.498 195.871, 197.494 195.623, 202.256 198.383 C 209.880 202.802, 217.064 204.247, 229.365 203.837 C 239.897 203.486, 240.914 203.259, 248.151 199.662 C 252.643 197.430, 257.924 193.759, 260.942 190.773 L 266.083 185.686 273.602 187.558 C 280.753 189.339, 281.514 189.350, 289.131 187.775 C 302.141 185.085, 310.076 179.032, 316.140 167.176 C 319.214 161.165, 319.375 160.298, 319.380 149.676 C 319.386 139.029, 319.232 138.201, 316.137 132.168 C 312.597 125.268, 306.144 118.182, 300.858 115.389 C 299.011 114.413, 294.153 112.887, 290.062 111.998 L 282.624 110.382 280.502 103.441 C 277.642 94.081, 274.118 88.370, 267.024 81.605 C 254.367 69.532, 236.422 65.391, 219.685 70.682 C 217.037 71.519, 214.601 71.935, 214.272 71.606 C 213.944 71.277, 212.480 68.176, 211.019 64.714 C 204.275 48.729, 188.323 34.677, 170.071 28.645 C 161.134 25.691, 145.246 24.413, 136.757 25.965 M 129.717 35.520 C 109.714 42.512, 96.290 56.490, 91.412 75.404 C 89.058 84.536, 89.975 84.054, 77.925 82.483 C 66.193 80.954, 54.312 87.007, 48.502 97.475 C 44.663 104.392, 43.519 110.493, 44.810 117.173 C 45.307 119.743, 45.440 122.266, 45.107 122.779 C 44.773 123.292, 42.700 124.037, 40.500 124.435 C 35.289 125.377, 28.477 128.399, 24.186 131.671 C 19.004 135.624, 14.501 145.911, 14.631 153.500 C 14.905 169.504, 26.242 182.569, 41.580 184.555 C 48.981 185.513, 57.187 183.504, 62.531 179.424 C 64.998 177.541, 67.526 176, 68.148 176 C 68.770 176, 71.422 177.319, 74.042 178.931 C 81.458 183.494, 85.913 184.510, 92.198 183.073 C 104.043 180.364, 103.346 180.220, 107.962 186.334 C 114.989 195.641, 126.237 203.241, 137.275 206.139 C 156.269 211.125, 175.840 205.741, 190.566 191.478 C 193.677 188.465, 196.654 186, 197.181 186 C 197.708 186, 200.198 187.416, 202.713 189.147 C 215.912 198.228, 232.723 199.305, 247 191.985 C 250.573 190.153, 256.720 184.680, 260.743 179.749 C 263.358 176.545, 266.632 176.220, 271.300 178.701 C 276.458 181.443, 289.274 181.127, 295.171 178.112 C 308.205 171.449, 315.507 156.293, 311.971 143.243 C 309.142 132.802, 304.394 126.641, 295.648 122.063 C 290.929 119.593, 288.583 119, 283.521 119 C 279.671 119, 276.879 118.517, 276.299 117.750 C 275.779 117.063, 274.766 113.350, 274.048 109.500 C 271.737 97.103, 261.107 83.701, 250.317 79.579 C 239.156 75.316, 226.227 75.523, 215.110 80.143 C 209.845 82.331, 209.719 82.337, 208.344 80.455 C 207.573 79.401, 206.455 76.730, 205.861 74.519 C 202.060 60.388, 190.429 46.766, 175.930 39.465 C 166.319 34.625, 158.872 32.988, 146.856 33.074 C 138.670 33.133, 135.078 33.646, 129.717 35.520 M 132.263 47.422 C 120.686 51.723, 111.890 59.367, 106.629 69.700 C 104.086 74.696, 104.708 80.160, 107.595 78.184 C 108.145 77.808, 109.790 75.023, 111.251 71.994 C 116.862 60.367, 128.946 51.546, 141.102 50.206 C 146.721 49.586, 147.539 49.226, 147.820 47.250 C 148.114 45.178, 147.758 45.004, 143.320 45.052 C 140.669 45.081, 135.693 46.147, 132.263 47.422 M 70.741 94.429 C 64.144 96.783, 58.542 102.403, 56.940 108.273 C 55.237 114.515, 58.690 116.576, 61.101 110.757 C 63.523 104.908, 68.768 100.123, 74.624 98.421 C 79.919 96.882, 81.552 94.810, 78.418 93.607 C 76.222 92.764, 75.057 92.889, 70.741 94.429 M 71.330 209.519 C 69.036 210.893, 66.564 213.364, 65.836 215.009 C 64.693 217.590, 63.979 218, 60.624 218 C 57.461 218, 56.108 218.666, 53.368 221.571 C 50.515 224.596, 50 225.871, 50 229.905 C 50 233.846, 50.560 235.309, 53.250 238.394 C 56.152 241.722, 57.143 242.182, 62.500 242.692 C 65.854 243.012, 69.318 243.977, 70.355 244.882 C 71.666 246.026, 74.166 246.500, 78.879 246.500 C 84.282 246.500, 86.092 246.073, 88.409 244.250 C 90.269 242.787, 92.639 242, 95.185 242 C 102.342 242, 108.006 237.048, 107.996 230.800 C 107.990 227.005, 104.429 222.334, 100.080 220.415 C 97.836 219.425, 95.984 218.139, 95.964 217.558 C 95.904 215.789, 91.706 211.336, 88 209.110 C 83.119 206.178, 76.638 206.337, 71.330 209.519 M 73.420 213.885 C 71.726 214.918, 69.759 217.167, 69.049 218.882 C 68.019 221.369, 67.165 222, 64.829 222 C 63.218 222, 60.550 222.699, 58.899 223.552 C 50.751 227.766, 55.476 239.129, 64.766 237.660 C 67.845 237.173, 69.289 237.603, 73 240.107 C 78.250 243.649, 81.366 243.483, 86.753 239.375 C 89.419 237.341, 90.915 236.887, 93.541 237.313 C 95.979 237.709, 97.595 237.320, 99.395 235.904 C 104.621 231.793, 103.526 226.837, 96.957 224.869 C 93.682 223.888, 92.609 222.905, 91.108 219.512 C 88.071 212.645, 79.780 210.008, 73.420 213.885 M 206.395 217.899 C 202.055 219.002, 198.500 221.859, 196.004 226.250 C 194.398 229.074, 193.231 230, 191.274 230 C 189.845 230, 186.739 231.135, 184.371 232.523 C 179.568 235.338, 177.181 240.600, 178.437 245.606 C 179.344 249.218, 185.492 255, 188.426 255 C 189.696 255, 191.773 256.249, 193.105 257.815 C 197.125 262.539, 200.065 264, 205.553 264 C 208.977 264, 212.241 263.200, 215.456 261.572 C 219.157 259.699, 220.808 259.357, 222.691 260.072 C 226.114 261.374, 235.510 261.227, 240.283 259.797 C 248.825 257.238, 254.618 246.563, 251.962 238.275 C 251.297 236.199, 249.686 233.071, 248.382 231.324 C 245.378 227.300, 236.118 223.608, 230.789 224.310 C 228.280 224.641, 226.690 224.331, 225.878 223.353 C 221.900 218.560, 213.284 216.148, 206.395 217.899 M 206 223.752 C 203.715 224.893, 201.632 227.147, 200 230.247 C 197.650 234.709, 197.258 234.994, 193.473 234.997 C 186.570 235.002, 182.298 239.689, 184.207 245.164 C 185.077 247.660, 190.135 251, 193.045 251 C 193.729 251, 195.698 252.631, 197.422 254.625 C 200.064 257.681, 201.337 258.324, 205.528 258.714 C 209.827 259.114, 211.102 258.769, 214.950 256.166 C 219.224 253.276, 219.520 253.218, 222.397 254.705 C 226.584 256.870, 237.053 256.851, 240.378 254.672 C 246.532 250.640, 248.394 243.512, 245.082 236.670 C 242.351 231.028, 239.043 229.537, 230.894 230.276 C 225.136 230.798, 224.735 230.685, 222.179 227.811 C 216.964 221.948, 212.069 220.720, 206 223.752" stroke="none" fill="black" fill-rule="evenodd"/>
</svg>