<svg xmlns="http://www.w3.org/2000/svg" width="294" height="291" viewBox="0 0 294 291" version="1.1">
	<path d="M 22.750 7.080 C 21.644 7.724, 21 9.311, 21 11.390 C 21 15.694, 25.976 29.991, 31.778 42.357 L 36.402 52.214 33.668 57.436 C 29.821 64.784, 24.466 69.666, 17.967 71.753 C 11.207 73.923, 10.583 75.918, 15.156 80.728 C 18.513 84.258, 27.067 88.972, 30.149 88.990 C 31.569 88.999, 31.340 90.354, 28.497 98.750 C 25.766 106.817, 24.187 109.700, 19.348 115.454 C 10.745 125.682, 9.381 127.936, 7.966 134.264 C 3.870 152.563, 18.826 170.039, 41.120 173.006 C 49.926 174.178, 66.981 173.098, 72.437 171.024 C 73.918 170.461, 75.270 170, 75.442 170 C 75.613 170, 75.831 174.613, 75.925 180.250 C 76.104 190.961, 78.592 203.266, 81.923 209.913 C 85.287 216.626, 86.437 236.804, 84.581 256.539 C 83.866 264.140, 83.993 266.086, 85.382 268.772 C 87.636 273.130, 92.297 275.390, 99.116 275.432 C 104.148 275.463, 104.892 275.747, 106.279 278.163 C 108.607 282.220, 113.190 284.125, 120.622 284.125 C 134.529 284.125, 140.163 275.820, 141.946 252.694 C 142.404 246.750, 142.942 241.740, 143.140 241.560 C 143.338 241.379, 149.067 241.041, 155.870 240.807 L 168.240 240.382 167.580 245.941 C 167.217 248.999, 166.663 255.100, 166.349 259.500 C 165.718 268.364, 166.833 270.845, 172.399 272.962 C 175.869 274.281, 185.554 274.309, 187.987 273.007 C 189.552 272.169, 190.128 272.599, 191.671 275.757 C 195.999 284.615, 211.113 285.614, 219.153 277.574 C 226.400 270.328, 230.062 241.696, 225.622 227.003 C 224.232 222.403, 224.148 220.607, 225.110 216.003 L 226.259 210.500 227.657 216 C 230.062 225.457, 238.198 235.510, 247.141 240.072 C 260.493 246.884, 279.287 242.014, 285.420 230.155 C 288.886 223.451, 288.644 212.644, 284.944 208.944 C 282.206 206.206, 280.440 206.523, 278.995 210.013 C 276.339 216.424, 269 214.244, 269 207.044 C 269 205.039, 269.890 199.371, 270.978 194.449 C 274.544 178.320, 273.145 167.398, 266.183 157 C 264.152 153.968, 260.327 150.048, 257.657 148.264 C 243.798 139.001, 224.700 141.130, 213.415 153.194 C 209.129 157.776, 208.674 158.015, 207.043 156.539 C 204.943 154.638, 195.793 151.310, 190.214 150.418 C 187.408 149.970, 185.574 148.915, 184.076 146.889 C 181.487 143.387, 179.552 143.227, 177.509 146.346 C 175.376 149.601, 171.409 151.289, 168.966 149.982 C 164.081 147.368, 164.121 142.843, 169.139 130.311 C 172.159 122.771, 172.161 122.747, 171.798 105.632 L 171.435 88.500 167.626 79.584 C 163.069 68.922, 160.594 64.923, 154.976 59.156 C 150.631 54.695, 142.147 48.795, 138.375 47.611 C 137.081 47.205, 135.609 45.265, 134.610 42.648 C 133.707 40.285, 131.611 36.505, 129.951 34.248 C 126.199 29.147, 122.593 28.135, 117.492 30.752 L 113.832 32.629 106.754 29.248 C 93.108 22.729, 75.272 22.507, 62.306 28.693 L 56.113 31.649 46.306 21.775 C 36.344 11.744, 28.933 5.975, 26.079 6.030 C 25.210 6.047, 23.712 6.519, 22.750 7.080 M 31.773 22.349 C 34.375 28.581, 34.455 28.660, 36.118 26.606 C 37.745 24.597, 37.668 24.351, 34.156 20.351 C 32.145 18.062, 30.190 16.146, 29.811 16.094 C 29.432 16.042, 30.315 18.857, 31.773 22.349 M 39.074 31.600 L 36.900 35.284 39.506 40.787 L 42.112 46.291 44.932 40.396 L 47.751 34.500 45.540 31.555 C 42.428 27.410, 41.542 27.416, 39.074 31.600 M 73.500 32.394 C 66.998 33.790, 62 35.846, 62 37.124 C 62 37.566, 63.872 39.674, 66.161 41.809 L 70.321 45.690 76.124 42.697 C 83.263 39.015, 94.058 37.950, 100.713 40.271 C 104.588 41.623, 105.055 41.597, 106.547 39.948 C 108.055 38.282, 108.004 38.051, 105.834 36.656 C 99.365 32.500, 83.037 30.347, 73.500 32.394 M 117.439 38.874 C 109.938 43.449, 103.548 54.575, 102.282 65.268 C 101.970 67.903, 101.369 70.272, 100.947 70.532 C 99.291 71.556, 97 69.655, 97 67.257 C 97 64.820, 96.829 64.752, 92.315 65.370 C 83.414 66.590, 80.937 69.913, 80.662 81 L 80.500 87.500 75.860 87.800 C 71.619 88.075, 70.910 87.775, 67.591 84.300 C 65.595 82.210, 63.695 79.481, 63.369 78.235 C 62.782 75.993, 62.739 76.003, 59.138 79.253 C 57.137 81.059, 52.067 84.080, 47.870 85.968 C 39.310 89.817, 38.931 90.319, 34.413 103.776 C 32.257 110.200, 30.389 113.528, 26.068 118.643 C 15.950 130.620, 15.500 131.504, 15.500 139.423 C 15.500 153.597, 23.988 162.567, 40.688 166.042 C 51.588 168.310, 66.606 166.162, 85.967 159.566 C 97.704 155.567, 99 155.362, 99 157.508 C 99 158.386, 95.926 160.537, 91.648 162.654 C 83.253 166.808, 82 168.842, 82 178.308 C 82 186.120, 86.410 202.415, 90.234 208.732 C 91.976 211.610, 95.823 216.335, 98.784 219.232 L 104.166 224.500 103.833 219.500 C 103.539 215.080, 103.729 214.500, 105.469 214.500 C 109.560 214.500, 113.326 231.103, 113.457 249.715 C 113.505 256.543, 113.949 260.349, 114.797 261.197 C 116.761 263.161, 130.298 263.559, 132.150 261.707 C 133.667 260.191, 135.315 250.574, 136.729 235 C 137.427 227.308, 137.707 226.470, 139.682 226.189 C 141.499 225.931, 141.917 226.433, 142.182 229.189 C 142.485 232.340, 142.752 232.543, 147.722 233.386 C 153.162 234.309, 171.620 232.252, 177.271 230.092 C 180.025 229.040, 180.032 229.013, 178.521 225.395 C 177.684 223.393, 177 220.011, 177 217.878 C 177 214.692, 177.350 214, 178.961 214 C 180.423 214, 181.214 215.083, 182.066 218.250 C 183.779 224.617, 185.741 227.875, 191.534 233.971 C 198.120 240.901, 200 245.347, 200 253.992 L 200 260.740 204.577 262.022 C 208.404 263.093, 209.921 263.065, 213.827 261.853 C 218.290 260.469, 218.530 260.203, 219.176 255.952 C 220.444 247.600, 219.974 237.578, 217.959 230 L 215.964 222.500 218.096 211.503 C 220.425 199.494, 220.350 188.901, 217.884 181.156 C 214.598 170.842, 201.495 159.852, 190.723 158.376 C 186.257 157.763, 186.080 157.838, 185.409 160.621 C 183.473 168.663, 177.304 175.432, 169.599 177.970 C 164.438 179.670, 151.492 179.438, 146.140 177.550 C 135.816 173.907, 127 164.283, 127 156.655 C 127 154.574, 126.986 154.575, 125.443 156.777 C 122.348 161.197, 118.270 158.852, 115.526 151.075 C 112.342 142.048, 114.357 131.358, 121.227 120.832 C 127.992 110.467, 129.949 104.735, 129.976 95.198 L 130 86.896 127 85.850 C 125.350 85.275, 124 84.608, 124 84.369 C 124 84.129, 125.116 81.732, 126.479 79.040 C 129.978 72.137, 131.515 61.295, 130.051 53.852 C 128.179 44.339, 124.493 36.994, 121.595 37.004 C 120.993 37.006, 119.122 37.848, 117.439 38.874 M 47.982 44.706 L 44.464 51.505 46.807 55.753 C 48.096 58.089, 49.543 60, 50.024 60 C 52.003 60, 56.271 52.777, 56.737 48.637 C 57.160 44.887, 56.833 43.846, 54.364 41.096 L 51.500 37.906 47.982 44.706 M 82.882 45.320 C 73.235 48.930, 67 56.663, 67 65.018 C 67 69.479, 69.397 76.653, 72.007 80 L 73.956 82.500 73.978 78.718 C 74.004 74.201, 76.263 68.433, 79.298 65.132 C 82.277 61.891, 88.711 59.049, 93.129 59.022 C 96.305 59.003, 96.905 58.595, 97.940 55.750 C 98.590 53.962, 99.747 51.266, 100.510 49.758 C 101.780 47.248, 101.721 46.921, 99.815 45.901 C 96.522 44.139, 86.919 43.809, 82.882 45.320 M 62 50.172 C 62 53.478, 56.012 63.275, 53.249 64.487 C 50.419 65.729, 50.438 66.123, 53.463 68.965 C 55.815 71.175, 56.039 71.204, 58.463 69.616 C 60.542 68.254, 61 67.161, 61 63.560 C 61 61.143, 61.871 57.134, 62.935 54.651 C 64.604 50.759, 64.673 49.973, 63.435 48.946 C 62.256 47.967, 62 48.186, 62 50.172 M 116.701 52.632 C 116.316 53.018, 115.993 54.946, 115.985 56.917 C 115.977 58.888, 115.289 63.390, 114.457 66.922 C 112.714 74.315, 113.673 76.771, 117.002 73.442 C 120.763 69.681, 122.308 52.859, 118.951 52.224 C 118.099 52.063, 117.087 52.246, 116.701 52.632 M 137.600 57.600 C 136.265 61.079, 137.175 63.402, 141.294 67.028 C 146.307 71.441, 151.215 80.840, 152.991 89.432 C 154.363 96.068, 153.721 104.764, 151.332 111.917 C 149.429 117.612, 142.859 128.350, 138.431 133 C 134.492 137.136, 131.998 142.656, 132.006 147.218 C 132.019 155.287, 136.782 164.976, 142.614 168.799 C 147.274 171.853, 148.347 171.572, 146.399 167.805 C 142.561 160.383, 145.820 148.865, 154.392 139.551 C 159.523 133.975, 163.297 125.545, 165.141 115.539 C 168.205 98.909, 159.668 72.917, 147.835 62.849 C 140.643 56.731, 138.379 55.569, 137.600 57.600 M 38.734 62.896 C 36.499 67.455, 34.669 69.539, 28.623 74.412 L 23.769 78.323 26.635 79.894 C 31.241 82.421, 42.522 81.968, 47.707 79.048 L 51.914 76.680 48.862 72.826 C 47.184 70.707, 44.616 66.795, 43.155 64.132 L 40.500 59.292 38.734 62.896 M 135.714 74.637 C 134.256 79.095, 134.237 80.138, 135.541 84.471 C 138.850 95.465, 136.462 108.334, 128.959 119.943 C 123.418 128.515, 122.363 130.818, 121.142 137 C 119.981 142.883, 121.028 151.465, 122.423 147.500 C 124.323 142.104, 126.999 137.960, 132.268 132.256 C 145.090 118.376, 148.650 109.574, 147.761 93.954 C 147.226 84.553, 145.144 78.740, 140.283 73.075 L 137.345 69.650 135.714 74.637 M 74.750 102.716 C 73.074 102.970, 70.927 104.541, 69.250 106.740 C 63.289 114.559, 67.287 126.171, 76.411 127.539 C 79.306 127.973, 81.773 127.737, 83.619 126.849 C 87.468 124.999, 91 119.442, 91 115.238 C 91 110.407, 87.350 104.318, 83.690 103.042 C 80.676 101.991, 79.757 101.958, 74.750 102.716 M 77.958 108.550 C 76.164 110.712, 78.898 113.484, 81.888 112.535 C 84.528 111.698, 84.619 109.402, 82.066 108.035 C 79.574 106.702, 79.483 106.713, 77.958 108.550 M 153.626 148.103 C 148.147 155.845, 148.295 164.449, 154.004 170.158 C 161.395 177.549, 179 168.501, 179 157.311 C 179 155.266, 178.726 155.076, 177.066 155.965 C 174.524 157.325, 169.417 157.280, 165.496 155.862 C 161.948 154.579, 158 149.484, 158 146.188 C 158 143.018, 156.877 143.510, 153.626 148.103 M 229.173 151.905 C 226.097 152.968, 222.196 155.356, 219.941 157.558 C 217.794 159.654, 216.157 161.491, 216.305 161.638 C 216.452 161.785, 218.971 160.719, 221.904 159.267 C 228.285 156.109, 237.088 155.802, 243.766 158.504 C 249.661 160.889, 255.511 167.795, 257.042 174.174 C 258.433 179.972, 257.735 192.285, 255.521 201 C 254.753 204.025, 253.835 209.650, 253.481 213.500 C 252.703 221.972, 254.188 226.202, 259.615 230.967 C 262.958 233.902, 263.802 234.177, 268.172 233.757 C 274.520 233.148, 278.099 229.842, 280.363 222.500 C 280.940 220.630, 280.591 220.522, 274.979 220.839 C 269.288 221.161, 268.803 221.003, 265.568 217.768 C 260.675 212.875, 260.238 208.974, 262.998 194.800 C 265.778 180.523, 265.363 169.942, 261.799 164.175 C 257.669 157.493, 253.947 154.124, 248.402 152.049 C 241.685 149.536, 236.152 149.495, 229.173 151.905 M 224.500 162.945 C 222.633 163.709, 218.200 167.914, 219.095 168.071 C 219.318 168.110, 221.247 168.354, 223.381 168.613 C 229.169 169.314, 233.742 171.541, 236.783 175.141 C 241.822 181.104, 242.291 183.293, 242.970 204 C 243.714 226.718, 244.722 229.995, 252.336 234.457 C 258.217 237.903, 258.736 237.658, 254.593 233.393 C 247.754 226.351, 246.409 215.064, 250.552 199.500 C 252.753 191.233, 253.458 180.333, 252.113 175.381 C 249.728 166.605, 242.954 162.013, 232.500 162.085 C 229.200 162.108, 225.600 162.495, 224.500 162.945 M 223 173.985 C 223 174.450, 224.377 176.106, 226.060 177.665 C 230.614 181.885, 231.980 186.165, 233.017 199.467 C 233.994 212.011, 234.747 215.730, 237.289 220.582 C 238.737 223.346, 238.790 223.083, 238.420 214.991 C 238.206 210.321, 237.839 201.775, 237.605 196 C 237.138 184.482, 235.456 179, 231.617 176.485 C 228.589 174.500, 223 172.879, 223 173.985 M 93.508 238.686 L 93.517 253.192 97.508 254.581 C 99.704 255.345, 102.484 255.977, 103.687 255.985 C 106.287 256.003, 106.667 253.758, 106.178 241.292 L 105.855 233.084 100.692 229.292 C 97.853 227.206, 95.073 225.203, 94.515 224.841 C 93.845 224.405, 93.503 229.107, 93.508 238.686 M 177.591 237.310 C 176.304 238.251, 175.653 240.459, 175.276 245.155 C 174.668 252.725, 174.859 252.913, 184.191 253.937 C 189.341 254.503, 189.933 254.370, 190.427 252.531 C 191.813 247.374, 190.993 243.998, 187.384 240.003 C 183.598 235.813, 180.721 235.021, 177.591 237.310 M 173.616 260.172 C 172.848 264.012, 174.183 265.756, 178.514 266.569 C 183.084 267.426, 185.761 266.363, 187.500 263 L 188.978 260.141 183.239 259.445 C 180.083 259.062, 176.766 258.369, 175.869 257.903 C 174.572 257.230, 174.111 257.694, 173.616 260.172 M 92 261.262 C 92 266.066, 94.652 268.208, 100.112 267.812 C 104.037 267.528, 104.485 267.221, 105.054 264.417 C 105.673 261.366, 105.620 261.321, 100.090 260.093 C 97.015 259.410, 93.938 258.622, 93.250 258.342 C 92.394 257.994, 92 258.914, 92 261.262 M 198.648 266.685 C 198.292 267.042, 198 268.593, 198 270.131 C 198 273.667, 200.386 275, 206.712 275 C 212.265 275, 215.550 273.136, 216.225 269.602 C 216.685 267.198, 216.568 267.151, 210.597 267.324 C 207.244 267.421, 203.329 267.171, 201.898 266.768 C 200.468 266.366, 199.005 266.328, 198.648 266.685 M 112.627 268.530 C 110.684 273.593, 114.208 277.273, 121 277.273 C 125.832 277.273, 129.149 275.210, 130.599 271.303 L 131.697 268.342 125.326 268.245 C 121.821 268.192, 117.672 267.867, 116.104 267.523 C 113.992 267.059, 113.091 267.320, 112.627 268.530" stroke="none" fill="black" fill-rule="evenodd"/>
</svg>