<svg xmlns="http://www.w3.org/2000/svg" width="291" height="253" viewBox="0 0 291 253" version="1.1">
	<path d="M 100.576 7.704 C 99.517 7.984, 90.742 10.816, 81.076 13.996 C 71.409 17.176, 60.954 20.503, 57.842 21.390 C 51.190 23.285, 52.422 21.929, 25.657 56.826 C 15.396 70.205, 7 81.727, 7 82.432 C 7 83.529, 13.224 92.538, 14.992 94 C 15.759 94.634, 40.676 124.240, 43.939 128.395 C 45.280 130.103, 48.205 133.556, 50.439 136.069 C 52.673 138.582, 57.200 143.935, 60.500 147.964 C 63.800 151.994, 68.300 157.377, 70.500 159.927 C 72.700 162.476, 76.525 166.984, 79 169.944 C 81.475 172.904, 85.300 177.435, 87.500 180.014 C 89.700 182.592, 96.900 191.161, 103.500 199.055 C 110.100 206.950, 117.335 215.454, 119.578 217.954 C 121.821 220.454, 124.296 223.437, 125.078 224.583 C 126.582 226.785, 133.900 235.437, 140.377 242.670 C 144.750 247.553, 147.579 248.135, 150.491 244.750 C 152.873 241.981, 184.022 204.444, 202.148 182.500 C 206.691 177, 210.654 172.275, 210.954 172 C 211.254 171.725, 213.137 169.475, 215.138 167 C 217.139 164.525, 219.614 161.535, 220.638 160.355 C 221.662 159.175, 224.525 155.814, 227 152.886 C 229.475 149.958, 233.300 145.469, 235.500 142.910 C 237.700 140.350, 242.425 134.766, 246 130.500 C 249.575 126.234, 254.300 120.625, 256.500 118.037 C 261.192 112.516, 262.954 110.397, 269.003 103 C 271.476 99.975, 273.728 97.275, 274.006 97 C 277.395 93.653, 285 83.927, 285 82.940 C 285 81.726, 277.445 71.116, 268.500 59.767 C 262.261 51.852, 247.067 31.902, 244.141 27.783 C 241.170 23.600, 241.962 23.943, 213 14.315 L 192.500 7.500 147.500 7.347 C 122.750 7.262, 101.634 7.423, 100.576 7.704 M 95 17.131 C 89.775 18.826, 81.225 21.699, 76 23.514 C 70.775 25.329, 65.487 27.112, 64.250 27.475 C 61.207 28.368, 61.418 29.034, 65.771 32.279 C 67.822 33.807, 71.172 36.334, 73.215 37.896 C 75.989 40.015, 78.522 40.903, 83.215 41.403 C 86.672 41.771, 95.125 42.714, 102 43.499 C 108.875 44.283, 121.831 45.649, 130.790 46.534 C 148.314 48.265, 146.131 48.376, 190.500 43.514 C 197.650 42.730, 206.045 41.817, 209.154 41.485 C 213.987 40.968, 215.877 40.082, 222.154 35.392 C 226.195 32.373, 229.629 29.539, 229.787 29.092 C 229.944 28.646, 220.492 25.068, 208.781 21.140 L 187.490 14 145.995 14.024 L 104.500 14.047 95 17.131 M 49.500 38.845 C 46.750 42.446, 42.025 48.447, 39 52.182 C 31.842 61.019, 25.954 69.287, 26.459 69.792 C 26.679 70.013, 28.804 68.877, 31.180 67.268 C 36.001 64.004, 55.850 52.135, 60.500 49.736 C 62.150 48.885, 64.737 47.119, 66.250 45.812 L 69 43.437 61.750 37.868 L 54.500 32.299 49.500 38.845 M 230.292 37.849 C 226.878 40.407, 224.065 42.818, 224.042 43.208 C 223.983 44.193, 245.908 58.983, 249.433 60.336 C 250.292 60.665, 254.350 63.199, 258.452 65.967 C 262.554 68.735, 266.159 71, 266.465 71 C 267.030 71, 264.912 68.081, 254.797 54.920 C 251.660 50.839, 246.710 44.381, 243.797 40.568 C 240.884 36.756, 238.050 33.538, 237.500 33.418 C 236.950 33.297, 233.706 35.291, 230.292 37.849 M 80 50.134 C 80 51.308, 80.431 53.895, 80.958 55.884 C 81.484 57.873, 83.075 64.450, 84.492 70.500 C 85.909 76.550, 87.504 83.075, 88.035 85 C 88.566 86.925, 89.816 91.766, 90.812 95.758 L 92.623 103.016 102.562 92.283 C 108.028 86.380, 118.283 75.547, 125.351 68.210 C 132.419 60.872, 138.016 54.683, 137.789 54.456 C 136.837 53.504, 90.015 48, 82.871 48 C 80.607 48, 80 48.451, 80 50.134 M 204 48.680 C 202.075 48.878, 191.500 49.952, 180.500 51.066 C 169.500 52.180, 158.970 53.418, 157.099 53.817 L 153.698 54.542 163.550 65.021 C 182.426 85.100, 199.092 102.241, 199.379 101.872 C 199.811 101.318, 203.637 86.568, 205.572 78 C 206.504 73.875, 208.162 67.125, 209.257 63 C 210.352 58.875, 211.582 53.813, 211.990 51.750 C 212.810 47.603, 213.159 47.738, 204 48.680 M 218.174 53.285 C 217.639 55.603, 215.757 62.900, 213.992 69.500 C 212.227 76.100, 210.424 83.525, 209.987 86 C 209.550 88.475, 208.474 93.265, 207.596 96.644 C 206.718 100.024, 206 103.237, 206 103.784 C 206 104.332, 219.838 100.077, 236.750 94.328 C 253.662 88.580, 268.550 83.555, 269.832 83.161 C 272.010 82.493, 271.811 82.208, 266.832 78.857 C 263.900 76.883, 255.425 71.522, 248 66.944 C 240.575 62.367, 231.046 56.472, 226.824 53.845 L 219.147 49.069 218.174 53.285 M 67 52.598 C 64.525 53.976, 59.951 56.768, 56.836 58.802 C 53.721 60.836, 44.721 66.514, 36.836 71.421 C 28.951 76.327, 22.089 80.698, 21.587 81.134 C 21.085 81.570, 21.984 82.441, 23.587 83.071 C 35.152 87.619, 60.312 96.450, 78.787 102.446 C 85.162 104.515, 86.014 104.604, 85.591 103.156 C 85.324 102.245, 84.815 99.700, 84.458 97.500 C 83.834 93.647, 82.869 89.795, 79.576 78 C 78.731 74.975, 76.849 67.438, 75.394 61.250 C 73.938 55.063, 72.467 50.021, 72.124 50.047 C 71.781 50.072, 69.475 51.221, 67 52.598 M 128.373 73.759 C 119.101 83.516, 108.474 94.609, 104.758 98.409 C 101.041 102.209, 98 105.624, 98 105.997 C 98 106.370, 119.699 106.781, 146.221 106.911 L 194.442 107.146 192.500 104.823 C 191.432 103.545, 189.645 101.537, 188.529 100.361 C 161.019 71.360, 150.824 60.807, 147.866 58.273 L 145.232 56.017 128.373 73.759 M 24.649 93.100 C 26.381 94.970, 30.098 99.425, 32.908 103 C 35.719 106.575, 38.819 110.400, 39.797 111.500 C 41.364 113.261, 54.676 129.078, 59.154 134.498 C 60.064 135.599, 64.559 141, 69.144 146.500 C 73.729 152, 78.384 157.587, 79.490 158.915 C 80.595 160.243, 83.300 163.433, 85.500 166.002 C 87.700 168.572, 91.525 173.099, 94 176.064 C 96.475 179.028, 101.200 184.572, 104.500 188.383 C 107.800 192.195, 112.075 197.238, 114 199.590 C 121.982 209.344, 133.516 222.795, 133.726 222.595 C 134.054 222.284, 130.234 212.398, 127.327 206.034 C 125.954 203.028, 124.153 198.528, 123.325 196.034 C 122.498 193.540, 120.760 189.250, 119.464 186.500 C 117.467 182.263, 114.721 175.771, 105.503 153.500 C 104.820 151.850, 102.402 146.153, 100.130 140.841 C 97.859 135.528, 96 130.775, 96 130.279 C 96 129.782, 95.153 127.604, 94.118 125.438 C 93.083 123.272, 91.292 119.407, 90.138 116.849 C 87.789 111.642, 90.193 112.795, 61 102.869 C 53.025 100.157, 44.250 97.095, 41.500 96.065 C 38.750 95.035, 33.800 93.416, 30.500 92.467 C 27.200 91.519, 23.825 90.508, 23 90.221 C 22.175 89.934, 22.917 91.230, 24.649 93.100 M 266.865 91.056 C 265.975 91.554, 262.829 92.623, 259.874 93.433 C 256.918 94.242, 243.253 98.751, 229.508 103.452 C 215.762 108.153, 204.404 112, 204.268 112 C 203.793 112, 195.794 129.573, 191.523 140 C 187.654 149.443, 185.814 153.773, 181.539 163.498 C 180.813 165.149, 179.453 168.525, 178.518 171 C 177.582 173.475, 175.769 177.750, 174.490 180.500 C 173.210 183.250, 171.038 188.425, 169.664 192 C 168.289 195.575, 164.657 204.543, 161.593 211.928 C 158.529 219.313, 156.167 225.500, 156.343 225.676 C 156.519 225.852, 158.126 223.960, 159.914 221.470 C 161.702 218.981, 167.290 212.198, 172.332 206.398 C 177.375 200.597, 182.632 194.388, 184.016 192.600 C 185.400 190.811, 188.629 186.907, 191.192 183.924 C 195.965 178.369, 219.714 150.072, 226 142.450 C 235.211 131.282, 239.604 126.015, 253.831 109.079 C 262.263 99.041, 269.009 90.676, 268.823 90.489 C 268.636 90.303, 267.755 90.557, 266.865 91.056 M 96.364 113.221 C 95.922 113.936, 99.550 123.500, 105.005 136 C 106.566 139.575, 111.975 152.400, 117.026 164.500 C 122.076 176.600, 126.991 188.300, 127.947 190.500 C 128.902 192.700, 130.259 196.075, 130.960 198 C 131.662 199.925, 133.150 203.525, 134.266 206 C 141.219 221.416, 145.010 230.495, 145.079 231.895 C 145.146 233.252, 145.244 233.269, 145.719 232 C 146.027 231.175, 147.960 226.900, 150.014 222.500 C 152.068 218.100, 154.889 211.575, 156.283 208 C 157.678 204.425, 163.422 190.700, 169.049 177.500 C 180.894 149.712, 191.400 124.562, 194.009 117.750 L 195.828 113 188.164 112.935 C 138.161 112.512, 96.724 112.641, 96.364 113.221" stroke="none" fill="black" fill-rule="evenodd"/>
</svg>