<svg xmlns="http://www.w3.org/2000/svg" width="218" height="304" viewBox="0 0 218 304" version="1.1">
	<path d="M 105.206 8.048 C 102.954 8.951, 100.447 13.558, 98.974 19.500 C 98.565 21.150, 97.021 26.966, 95.542 32.425 C 94.063 37.884, 91.795 47.773, 90.502 54.400 C 89.208 61.028, 87.702 66.599, 87.154 66.782 C 82.189 68.437, 68.718 75.887, 64.879 79.101 L 60.081 83.118 52.272 75.215 C 46.257 69.126, 42.746 66.503, 36.982 63.790 C 22.398 56.927, 13.389 56.413, 10.360 62.272 C 4.822 72.981, 4.749 96.333, 10.209 110.500 C 11.824 114.692, 19.537 125.433, 23.061 128.398 C 24.677 129.758, 26 131.340, 26 131.913 C 26 132.779, 23.843 137.866, 20.026 146 C 19.639 146.825, 18.518 150.200, 17.535 153.500 C 16.552 156.800, 14.721 162.875, 13.468 167 C 8.997 181.710, 7.714 192.434, 8.304 210.185 C 8.911 228.440, 9.952 233.277, 15.900 245.500 C 23.010 260.111, 34.220 272.117, 49.106 281.064 C 73.016 295.434, 103.735 300.048, 135.204 293.994 C 145.213 292.068, 160.849 286.327, 167 282.319 C 181.546 272.841, 191.473 262.764, 198.660 250.182 C 205.499 238.208, 209.023 223.568, 208.979 207.308 C 208.956 198.698, 206.823 179.308, 205.041 171.500 C 203.981 166.858, 197.890 148.052, 195.972 143.500 C 195.508 142.400, 194.196 139.295, 193.055 136.601 L 190.980 131.701 196.312 126.101 C 203.336 118.721, 204.340 117.034, 207.675 107 C 210.216 99.355, 210.500 97.142, 210.500 85 C 210.500 64.505, 207.471 58, 197.927 58 C 188.227 58, 173.961 65.585, 163.838 76.124 L 158.176 82.019 155.338 79.658 C 150.095 75.296, 143.912 71.905, 136.830 69.510 C 132.962 68.201, 129.695 66.988, 129.571 66.815 C 129.447 66.642, 128.832 64.025, 128.206 61 C 121.467 28.468, 117.190 13.576, 113.415 9.503 C 110.978 6.873, 109.004 6.523, 105.206 8.048 M 107.035 18.427 C 106.012 21.101, 103.153 31.524, 101.603 38.231 C 100.999 40.841, 101.089 40.917, 103.630 39.951 C 105.092 39.395, 107.980 37.600, 110.047 35.963 L 113.806 32.985 112.400 27.600 C 111.627 24.638, 110.355 20.704, 109.574 18.857 L 108.155 15.500 107.035 18.427 M 110.943 41.542 C 109.065 42.927, 105.833 44.569, 103.760 45.190 C 99.693 46.409, 98.733 48.377, 97.376 58.276 L 96.749 62.846 100.240 62.059 C 104.662 61.061, 113.300 56.389, 115.843 53.619 C 117.612 51.691, 117.683 50.987, 116.628 45.818 C 115.991 42.692, 115.219 39.885, 114.913 39.579 C 114.607 39.274, 112.821 40.157, 110.943 41.542 M 117.042 59.449 C 116.381 60.246, 114.189 61.437, 112.170 62.096 C 110.152 62.755, 106.932 64.128, 105.015 65.147 C 103.098 66.166, 100.487 67, 99.214 67 C 96.376 67, 94.462 71.133, 93.770 78.750 C 93.300 83.932, 93.329 84, 96.058 84 C 102.958 84, 119.889 76.337, 121.339 72.558 C 121.983 70.880, 119.842 58, 118.919 58 C 118.548 58, 117.704 58.652, 117.042 59.449 M 15.760 67.866 C 15.154 69.315, 14.463 75.791, 14.224 82.259 C 13.451 103.162, 17.731 114.722, 29.364 123.149 C 34.912 127.167, 35.697 126.694, 31.683 121.750 C 24.849 113.335, 20.179 94.047, 22.946 85.663 C 24.050 82.317, 24.478 82, 27.882 82 C 34.015 82, 44.920 90.341, 48.201 97.541 C 49.209 99.755, 49.330 99.678, 51.623 95.365 C 52.930 92.906, 54 90.221, 54 89.399 C 54 88.576, 50.711 84.614, 46.690 80.594 C 38.852 72.755, 30.066 67.699, 21.503 66.099 C 17.078 65.273, 16.811 65.355, 15.760 67.866 M 193.197 66.066 C 185.039 67.673, 173.206 75.902, 166.035 84.956 L 163.194 88.543 165.428 95.182 L 167.663 101.822 168.946 98.273 C 170.460 94.085, 179.573 84.493, 183.431 83.026 C 188.014 81.284, 191.795 81.758, 193.179 84.250 C 193.878 85.508, 194.443 90.027, 194.460 94.500 C 194.486 101.278, 194.062 103.375, 191.684 108.224 C 190.141 111.373, 187.141 115.435, 185.018 117.253 C 181.187 120.531, 181.171 120.576, 182.956 122.942 L 184.755 125.326 189.774 121.093 C 201.695 111.042, 206.842 88.299, 201.367 69.865 C 200.573 67.189, 199.377 65.049, 198.711 65.110 C 198.045 65.170, 195.564 65.600, 193.197 66.066 M 83 76.183 C 81.625 76.692, 77.739 78.902, 74.365 81.096 C 67.835 85.342, 62.899 91.490, 56.782 103 C 53.823 108.566, 52.559 109.895, 47.984 112.250 C 45.046 113.763, 41.110 115, 39.237 115 C 34.490 115, 35.480 116.857, 42.080 120.334 C 46.981 122.917, 48.229 123.150, 55.117 122.768 C 64.863 122.228, 69.354 119.691, 78.903 109.327 C 85.639 102.017, 87.250 98.891, 85 97.500 C 83.678 96.683, 83.716 88.400, 85.053 85.900 C 85.633 84.818, 85.970 81.981, 85.803 79.596 C 85.512 75.429, 85.402 75.295, 83 76.183 M 132.370 86.043 C 132.487 95.760, 132.290 97.045, 130.358 99.158 C 129.180 100.446, 127.899 103.075, 127.511 105 C 127.123 106.925, 124.821 112.271, 122.394 116.880 C 119.968 121.488, 117.704 127.113, 117.364 129.380 C 116.716 133.691, 114.125 138.853, 110.588 142.874 L 108.500 145.248 111 144.503 C 122.805 140.985, 133.763 133.618, 138.367 126.105 C 139.582 124.122, 141.630 119.216, 142.917 115.201 C 146.777 103.160, 149.724 106.596, 150.234 123.731 L 150.478 131.963 152.989 128.775 C 159.116 120.997, 161.482 107.647, 158.542 97.448 C 156.299 89.664, 149.399 82.823, 139.317 78.385 L 132.241 75.270 132.370 86.043 M 119.461 80.845 C 114.511 84.425, 101.310 89, 95.928 89 C 91.980 89, 91.882 89.083, 92.187 92.151 C 92.594 96.245, 95.937 98.680, 103.252 100.211 C 110.102 101.643, 115.818 100.472, 122.026 96.364 C 125.449 94.099, 125.998 93.233, 125.985 90.117 C 125.976 88.128, 125.396 84.583, 124.695 82.240 L 123.421 77.980 119.461 80.845 M 27.607 88.582 C 25.617 93.769, 28.360 104.758, 32.139 106.735 C 36.674 109.108, 46 107.807, 46 104.802 C 46 102.378, 39.477 93.692, 35.209 90.434 C 30.236 86.636, 28.515 86.217, 27.607 88.582 M 182 89.874 C 177.990 92.402, 175.856 95.160, 171.456 103.500 C 170.578 105.165, 171.061 106.338, 174.344 110.500 C 178.440 115.693, 179.243 115.960, 182.380 113.171 C 187.738 108.407, 190.927 97.886, 189.371 90.106 C 188.610 86.298, 187.718 86.270, 182 89.874 M 86.194 108.162 C 78.065 119.824, 63.894 129.970, 55.648 130.030 C 50.676 130.067, 51.821 130.926, 60.722 133.838 C 74.498 138.344, 88.394 137.364, 101.011 130.995 C 109.053 126.935, 114.916 120.947, 119.028 112.596 C 122.491 105.561, 122.492 104.131, 119.035 105.981 C 117.860 106.610, 113.884 107.352, 110.199 107.630 C 104.015 108.097, 101.212 107.632, 91.359 104.503 C 89.614 103.949, 88.658 104.627, 86.194 108.162 M 166.736 114.933 C 165.463 124.423, 156.355 138.248, 148.854 142.074 C 144.305 144.395, 142.645 144.483, 140.991 142.489 C 139.977 141.267, 140.049 140.159, 141.368 136.705 C 143.637 130.766, 143.411 130.055, 140.505 133.993 C 134.445 142.207, 121.652 149.890, 110.263 152.155 C 98.136 154.566, 94.793 150.432, 101.978 141.911 C 104.256 139.210, 105.922 137, 105.680 137 C 105.439 137, 102.825 138.095, 99.871 139.433 C 89.328 144.210, 71.010 144.675, 56.744 140.528 C 51.009 138.861, 41 131.898, 41 129.575 C 41 128.886, 39.854 127.799, 38.453 127.161 C 35.212 125.684, 34.949 125.703, 35.588 127.368 C 35.877 128.121, 34.010 133.408, 31.440 139.118 C 25.741 151.778, 20.550 167.306, 17.772 180 C 14.949 192.901, 14.707 218.401, 17.316 227.991 C 18.287 231.561, 19.433 234.833, 19.863 235.263 C 20.292 235.692, 21.736 235.072, 23.072 233.884 C 34.925 223.340, 59.494 212.795, 81.500 208.806 C 96.801 206.032, 120.527 205.745, 132.500 208.188 C 136.900 209.086, 142.300 210.127, 144.500 210.500 C 149.298 211.314, 162.263 215.793, 170.342 219.428 C 176.338 222.126, 183.079 226.367, 191 232.425 C 193.475 234.318, 195.776 235.897, 196.113 235.934 C 196.953 236.025, 199.689 226.779, 200.957 219.566 C 203.174 206.954, 201.240 183.638, 196.722 168.500 C 189.775 145.226, 180.312 125.587, 170.733 114.565 L 167.313 110.631 166.736 114.933 M 39.667 162.667 C 38.392 163.942, 39.015 166.330, 41.457 169.532 C 44.416 173.413, 43.725 174.652, 40.058 172.041 C 38.289 170.782, 36.906 170.440, 35.956 171.027 C 34.802 171.740, 35.193 172.603, 37.962 175.461 C 40.927 178.520, 41.366 179.596, 41.142 183.255 C 40.340 196.384, 54.178 207.295, 65.586 202.528 C 67.699 201.646, 70.279 200.153, 71.320 199.212 C 77.557 193.572, 79.221 180.843, 74.848 172.230 C 70.401 163.473, 59.423 160.603, 50.504 165.865 L 47.227 167.799 45.084 164.899 C 43.010 162.094, 41.048 161.286, 39.667 162.667 M 172.523 164.976 C 169.963 167.648, 169.460 167.821, 168.029 166.527 C 165.369 164.119, 156.281 162.598, 152.103 163.860 C 142.352 166.807, 136.054 181.038, 140.254 190.635 C 144.004 199.206, 149.117 203, 156.918 203 C 162.991 203, 166.724 201.305, 170.479 196.842 C 174.006 192.651, 175.017 189.849, 175.151 183.894 C 175.252 179.407, 175.605 178.745, 179.670 175.414 C 183.209 172.514, 183.850 171.524, 182.917 170.400 C 181.349 168.511, 180.328 168.630, 176.847 171.109 C 172.867 173.943, 171.974 172.681, 175.415 169.088 C 178.098 166.288, 178.597 163.031, 176.452 162.317 C 175.876 162.125, 174.108 163.322, 172.523 164.976 M 159 173 C 156.517 175.483, 156.470 177.211, 158.829 179.345 C 161.258 181.543, 164.293 181.439, 166.425 179.083 C 167.879 177.476, 167.961 176.789, 166.930 174.833 C 164.648 170.503, 162.089 169.911, 159 173 M 60.998 174.730 L 58.850 177.460 61.036 179.230 C 63.738 181.419, 66.368 181.489, 68.429 179.429 C 70.271 177.586, 70.371 176.562, 68.965 173.934 C 67.458 171.119, 63.530 171.511, 60.998 174.730 M 103 210.688 C 83.041 211.842, 61.261 217.017, 47.255 223.934 C 38.251 228.380, 26.272 236.244, 23.856 239.295 C 21.836 241.845, 22.578 243.918, 28.585 252.500 C 44.048 274.595, 69.809 287.284, 102.071 288.698 C 125.705 289.733, 143.453 286.144, 161.477 276.686 C 171.634 271.356, 186.914 256.553, 191.630 247.474 L 194.760 241.448 191.630 238.362 C 184.772 231.599, 169.578 223.015, 156 218.233 C 141.110 212.989, 118.606 209.785, 103 210.688 M 78.494 228.009 C 76.867 230.643, 82.587 237.756, 85.449 236.658 C 87.738 235.780, 87.336 232.655, 84.548 229.646 C 82.013 226.911, 79.580 226.253, 78.494 228.009 M 131.453 231.090 C 128.224 237.334, 131.731 238.936, 136.916 233.586 C 140.614 229.772, 140.312 228, 135.967 228 C 133.720 228, 132.685 228.709, 131.453 231.090 M 130.500 260.003 C 127.672 264.241, 122.929 266.214, 116.165 265.968 C 108.467 265.687, 108 265.776, 108 267.525 C 108 270.986, 119.192 272.200, 125.768 269.452 C 132.408 266.678, 137.107 261.039, 134.947 258.436 C 133.277 256.423, 132.769 256.602, 130.500 260.003" stroke="none" fill="black" fill-rule="evenodd"/>
</svg>